<?xml version="1.0" encoding="utf-8" standalone="no"?>
<!DOCTYPE svg PUBLIC "-//W3C//DTD SVG 1.1//EN"
  "http://www.w3.org/Graphics/SVG/1.1/DTD/svg11.dtd">
<!-- Created with matplotlib (https://matplotlib.org/) -->
<svg height="288pt" version="1.1" viewBox="0 0 432 288" width="432pt" xmlns="http://www.w3.org/2000/svg" xmlns:xlink="http://www.w3.org/1999/xlink">
 <defs>
  <style type="text/css">
*{stroke-linecap:butt;stroke-linejoin:round;}
  </style>
 </defs>
 <g id="figure_1">
  <g id="patch_1">
   <path d="M 0 288 
L 432 288 
L 432 0 
L 0 0 
z
" style="fill:#ffffff;"/>
  </g>
  <g id="axes_1">
   <g id="patch_2">
    <path d="M 54 251.458138 
L 388.8 251.458138 
L 388.8 35.101862 
L 54 35.101862 
z
" style="fill:#ffffff;"/>
   </g>
   <g id="PatchCollection_1">
    <path clip-path="url(#p0fc306c804)" d="M 187.425622 117.013428 
L 192.658224 47.276445 
L 73.86915 44.936238 
L 71.369488 114.755568 
L 187.425622 117.013428 
" style="fill:none;stroke:#0000ff;stroke-opacity:0.2;"/>
    <path clip-path="url(#p0fc306c804)" d="M 200.153908 117.486413 
L 204.83798 109.080966 
L 210.547141 98.92835 
L 216.272096 88.779181 
L 222.031475 78.638575 
L 227.798044 68.503029 
L 233.590665 58.380349 
L 239.078333 48.849761 
L 182.023322 46.999234 
L 177.03482 116.745965 
L 200.153908 117.486413 
" style="fill:none;stroke:#0000ff;stroke-opacity:0.2;"/>
    <path clip-path="url(#p0fc306c804)" d="M 166.008565 180.189849 
L 171.423496 170.071651 
L 176.89678 159.907089 
L 182.412929 149.744807 
L 185.513658 144.067702 
L 187.882045 110.763102 
L 71.587515 108.498017 
L 69.218182 178.328933 
L 166.008565 180.189849 
" style="fill:none;stroke:#0000ff;stroke-opacity:0.2;"/>
    <path clip-path="url(#p0fc306c804)" d="M 181.021029 152.309074 
L 182.412929 149.744807 
L 187.96495 139.579647 
L 193.541497 129.408796 
L 199.174621 119.243718 
L 204.315164 110.019146 
L 178.186127 110.495848 
L 181.021029 152.309074 
" style="fill:none;stroke:#0000ff;stroke-opacity:0.2;"/>
    <path clip-path="url(#p0fc306c804)" d="M 173.720676 165.805504 
L 176.89678 159.907089 
L 182.412929 149.744807 
L 187.96495 139.579647 
L 193.541497 129.408796 
L 199.174621 119.243718 
L 203.5835 111.332098 
L 177.46995 110.494784 
L 173.720676 165.805504 
" style="fill:none;stroke:#0000ff;stroke-opacity:0.2;"/>
    <path clip-path="url(#p0fc306c804)" d="M 178.621343 116.747026 
L 200.791082 116.34302 
L 204.83798 109.080966 
L 210.547141 98.92835 
L 216.272096 88.779181 
L 222.031475 78.638575 
L 227.798044 68.503029 
L 233.590665 58.380349 
L 239.417868 48.260081 
L 240.866641 45.75963 
L 173.631848 47.000334 
L 178.621343 116.747026 
" style="fill:none;stroke:#0000ff;stroke-opacity:0.2;"/>
   </g>
   <g id="PatchCollection_2">
    <path clip-path="url(#p0fc306c804)" d="M 125.921253 116.85999 
L 126.14227 117.24882 
L 126.066045 117.758325 
L 126.10058 118.294821 
L 126.440524 118.655436 
L 127.735644 119.49613 
L 129.38571 120.262694 
L 130.447712 121.277925 
L 131.028685 121.586072 
L 131.427239 121.648525 
L 132.187074 121.598251 
L 136.23644 120.282255 
L 137.490436 120.162345 
L 138.395423 119.955913 
L 139.095373 119.977554 
L 139.866764 120.215647 
L 141.099877 121.024538 
L 142.844299 122.043371 
L 143.50316 122.178341 
L 144.436951 122.157259 
L 146.022115 121.816919 
L 146.218045 121.924912 
L 146.963251 122.533592 
L 147.821227 122.827776 
L 148.792114 123.008427 
L 149.384899 122.963022 
L 151.167515 122.54674 
L 151.944893 122.626065 
L 152.440103 122.863592 
L 152.488487 123.156616 
L 152.266543 123.373054 
L 151.367521 124.111297 
L 151.337522 124.481048 
L 151.592954 124.777243 
L 152.131262 125.025619 
L 152.841487 125.131743 
L 153.567912 125.021281 
L 154.377355 124.824658 
L 154.941188 124.915418 
L 155.27356 125.167842 
L 155.522268 125.632112 
L 155.465038 126.267939 
L 155.584226 126.625001 
L 155.936745 126.919511 
L 156.562636 127.090389 
L 156.990113 127.040256 
L 159.238555 126.31277 
L 160.05407 126.435844 
L 160.772852 126.644993 
L 161.399075 127.031092 
L 161.828548 127.545996 
L 162.488825 128.089336 
L 163.030784 128.346169 
L 164.499761 128.483693 
L 165.969148 128.537272 
L 166.697427 128.786653 
L 167.11363 129.088233 
L 167.142178 129.519206 
L 166.895656 129.833942 
L 166.180994 130.197479 
L 165.575909 130.66361 
L 165.359372 131.184735 
L 165.619771 131.589127 
L 166.136303 131.856109 
L 166.858397 131.934527 
L 168.867557 131.963493 
L 169.190148 132.129834 
L 170.136641 132.882054 
L 170.963691 133.101118 
L 172.313041 133.163019 
L 173.695864 133.316905 
L 174.334699 133.553569 
L 175.12594 134.006968 
L 175.087435 133.92419 
L 175.083351 133.881022 
L 175.126471 133.90175 
L 175.691437 134.05122 
L 176.969912 134.212586 
L 177.008445 134.029013 
L 177.366959 133.843741 
L 178.344611 133.701178 
L 178.323727 133.675482 
L 178.342127 133.464903 
L 178.414276 133.480691 
L 179.649292 133.316254 
L 179.882601 133.418358 
L 181.278114 133.501497 
L 181.30652 133.545834 
L 181.379794 133.509197 
L 181.804532 133.349104 
L 181.886815 133.394127 
L 182.555633 133.512106 
L 182.638772 133.556336 
L 182.55121 133.719662 
L 183.03739 133.638894 
L 183.32759 133.569117 
L 183.62762 133.846798 
L 183.739286 134.217165 
L 184.619674 134.169538 
L 185.291168 134.202098 
L 185.831854 134.285159 
L 186.232531 133.440948 
L 186.726856 132.975227 
L 186.725702 132.978865 
L 186.959097 133.028934 
L 186.690976 133.23274 
L 186.513085 133.443503 
L 186.368314 134.296794 
L 187.281461 134.997593 
L 186.620922 135.841733 
L 186.901682 135.820574 
L 187.666053 135.603951 
L 190.138576 135.028879 
L 190.62264 134.763979 
L 191.194718 134.461465 
L 191.503523 134.166877 
L 191.828011 134.234666 
L 192.055426 134.691519 
L 192.493143 134.914213 
L 192.605509 134.985166 
L 192.583875 134.995158 
L 192.695336 135.249833 
L 193.069036 135.233231 
L 193.260479 134.983496 
L 193.962608 135.196905 
L 194.424783 135.507458 
L 194.361155 135.663517 
L 194.223383 135.923259 
L 194.36613 136.218038 
L 194.680463 136.680234 
L 194.699903 136.703071 
L 194.660343 136.923854 
L 195.56635 138.81827 
L 196.10017 139.303105 
L 195.71599 139.391764 
L 195.9546 139.754516 
L 195.390978 139.954833 
L 195.374022 140.366897 
L 195.003896 140.618812 
L 194.473543 140.51636 
L 193.935716 140.381065 
L 193.421194 140.375297 
L 193.621079 140.515157 
L 193.66693 140.574525 
L 193.586212 141.438651 
L 193.421137 141.505874 
L 193.091618 141.458614 
L 192.890105 141.628154 
L 193.076353 142.219439 
L 192.867296 142.199985 
L 192.551187 142.249367 
L 192.416748 142.446932 
L 192.736374 143.006852 
L 193.320122 143.092468 
L 193.400084 143.341898 
L 193.44154 143.49628 
L 193.4833 143.573007 
L 193.438157 143.611569 
L 193.26091 143.645042 
L 193.362237 143.723581 
L 193.55605 143.931761 
L 193.514658 143.9544 
L 193.340454 144.111562 
L 193.378237 144.159041 
L 193.278822 144.15989 
L 192.702504 144.257048 
L 192.472564 144.562626 
L 192.080789 144.677229 
L 192.083882 144.728338 
L 192.142195 144.723455 
L 192.437484 144.851716 
L 192.203615 144.914339 
L 192.440357 144.963558 
L 192.114956 145.168928 
L 191.884329 145.250326 
L 191.816292 145.390073 
L 191.945069 145.509657 
L 192.42827 145.352849 
L 192.736212 145.524512 
L 192.712865 145.636036 
L 192.371018 145.867668 
L 192.83068 146.088183 
L 193.22353 146.167868 
L 193.289126 146.281508 
L 193.639026 146.456144 
L 193.704197 146.547633 
L 193.636981 146.580045 
L 193.227508 146.752274 
L 193.364997 147.175562 
L 193.65589 147.560571 
L 194.140506 147.470419 
L 194.309268 147.52278 
L 194.22443 147.688782 
L 193.917139 147.967652 
L 193.954498 147.999003 
L 194.269793 148.046764 
L 194.492473 148.15906 
L 194.736108 148.918172 
L 194.690469 149.100663 
L 194.701863 149.110429 
L 194.765194 149.163569 
L 194.613841 149.168169 
L 194.464824 149.268299 
L 194.682338 149.391267 
L 194.386894 149.582759 
L 194.437153 149.656189 
L 194.488156 149.902852 
L 194.489635 149.947429 
L 194.340137 150.10169 
L 194.529839 150.409087 
L 194.660187 150.659686 
L 194.596156 150.881262 
L 194.20843 150.978738 
L 194.202209 151.696876 
L 194.612206 151.696777 
L 194.279672 151.801981 
L 192.882242 152.040853 
L 192.448078 152.21655 
L 192.215009 152.48898 
L 191.407519 152.385821 
L 189.663238 151.861016 
L 189.719407 152.667975 
L 190.256385 152.562028 
L 190.125052 152.645096 
L 189.892118 153.16356 
L 190.001639 153.320949 
L 190.280071 153.325655 
L 190.122229 154.123322 
L 190.351292 155.464753 
L 190.695085 155.55838 
L 190.611833 155.620741 
L 188.929709 156.905875 
L 188.869301 157.105655 
L 188.496358 157.869325 
L 188.095738 158.234341 
L 187.99076 158.352107 
L 188.094761 158.443094 
L 188.059207 158.588106 
L 187.91048 158.879764 
L 188.066553 158.806314 
L 188.240495 158.788657 
L 188.868466 158.735524 
L 188.990442 158.502589 
L 189.106545 158.428983 
L 189.673556 158.263144 
L 190.014625 158.161188 
L 190.15048 158.144791 
L 190.647196 158.486235 
L 190.88219 158.520805 
L 191.206055 158.600859 
L 191.134409 158.675349 
L 189.747163 159.995231 
L 190.024936 160.489747 
L 190.819482 161.048656 
L 190.987345 161.156663 
L 191.519277 160.959516 
L 191.846977 160.97856 
L 192.032037 161.075597 
L 192.041017 161.050425 
L 192.436464 160.983075 
L 193.057048 160.755568 
L 193.053559 160.762418 
L 193.161742 160.790988 
L 193.427988 160.862124 
L 193.54339 160.865111 
L 193.671084 160.643626 
L 193.973542 160.437669 
L 193.958355 160.420224 
L 193.764563 159.98158 
L 194.304696 159.641014 
L 194.243106 159.41723 
L 194.208246 159.323193 
L 194.228294 159.293725 
L 194.555535 159.191995 
L 195.335213 159.557089 
L 196.067914 159.581314 
L 196.131769 159.648954 
L 196.097078 160.108461 
L 196.219614 160.443649 
L 196.231156 160.587337 
L 196.600914 160.708472 
L 196.961416 160.816854 
L 196.855822 160.881784 
L 196.396004 161.216052 
L 196.549664 161.241323 
L 197.014952 161.45038 
L 197.087256 161.765965 
L 197.896827 161.598789 
L 198.095446 161.40293 
L 198.716269 161.376314 
L 198.885229 161.16686 
L 199.163809 161.229483 
L 199.853137 161.527235 
L 200.993882 161.13769 
L 201.218041 161.1442 
L 201.210115 161.204346 
L 201.14055 161.419759 
L 200.908769 161.485694 
L 200.777515 161.459233 
L 200.217042 161.51209 
L 199.947315 161.672225 
L 199.735328 161.971335 
L 199.79689 162.078535 
L 199.721543 162.410546 
L 199.779566 162.428655 
L 200.059271 162.516614 
L 200.380157 162.597629 
L 200.899237 162.421076 
L 201.13641 162.363336 
L 201.258472 162.418953 
L 201.183046 162.486671 
L 200.946786 162.70023 
L 200.845474 163.163211 
L 200.865926 163.414269 
L 200.583963 163.526572 
L 200.14781 163.689325 
L 200.154561 163.816043 
L 200.307046 164.008661 
L 200.10968 164.282634 
L 199.373128 164.386494 
L 199.408052 164.742934 
L 199.623811 164.798161 
L 199.610012 164.856085 
L 199.244591 165.209064 
L 199.079694 165.606338 
L 198.314191 165.787533 
L 198.45846 165.917507 
L 198.887409 166.266862 
L 198.789026 166.282 
L 198.326583 166.427231 
L 197.310333 167.008643 
L 197.366714 167.104839 
L 198.373424 167.387 
L 198.823675 167.404062 
L 199.114356 167.390744 
L 199.219766 167.639651 
L 199.24399 167.988539 
L 199.303428 168.169714 
L 199.033171 168.347229 
L 198.762722 168.51885 
L 198.58263 169.018561 
L 198.690495 169.290227 
L 199.543666 169.535447 
L 199.389822 169.653687 
L 199.100924 170.002342 
L 198.320624 170.08064 
L 197.963788 170.232353 
L 198.02605 170.531534 
L 198.64008 171.049305 
L 198.934831 171.409439 
L 198.929721 171.431957 
L 199.477561 171.707876 
L 199.65226 171.876589 
L 198.932892 172.630655 
L 198.301495 173.441556 
L 197.870239 173.642043 
L 197.632138 173.934996 
L 195.674937 176.780654 
L 195.596738 177.270181 
L 195.723109 177.640703 
L 195.865615 177.753522 
L 195.821541 177.799692 
L 195.227538 178.554013 
L 195.216498 178.583248 
L 195.975023 178.750389 
L 196.40945 178.811745 
L 196.104558 179.051537 
L 196.251721 179.090608 
L 196.61516 179.117387 
L 196.641939 179.053009 
L 197.016927 179.146225 
L 196.815067 179.185296 
L 196.805102 179.228543 
L 196.900364 179.244246 
L 197.141324 179.338114 
L 197.129371 179.373958 
L 197.235644 179.432569 
L 197.358852 179.507937 
L 197.229197 179.531807 
L 196.386854 179.584487 
L 196.42596 179.669523 
L 196.443709 179.679692 
L 196.712382 179.688616 
L 196.960786 179.629008 
L 198.080436 179.760128 
L 198.074611 179.794422 
L 198.083804 179.911884 
L 198.143328 179.899902 
L 198.877388 180.066279 
L 198.688648 180.147189 
L 197.819137 180.813998 
L 197.886523 180.820657 
L 197.747081 180.922592 
L 197.294941 180.962187 
L 196.630863 180.996864 
L 196.160218 180.982972 
L 195.279306 181.50387 
L 195.345559 181.626378 
L 195.762838 181.780964 
L 195.747835 181.810935 
L 195.455597 182.178676 
L 195.370526 182.256606 
L 194.95692 182.428921 
L 194.970543 182.431652 
L 195.156784 183.093507 
L 195.369104 183.265206 
L 195.313487 183.282282 
L 194.823125 183.353709 
L 194.002543 183.085935 
L 193.138269 184.193582 
L 193.513886 184.531028 
L 194.386349 184.744699 
L 194.2461 185.30486 
L 194.270543 185.305907 
L 194.984045 186.15801 
L 195.225189 186.424241 
L 195.573002 186.606717 
L 196.605132 187.024485 
L 196.65157 187.279251 
L 196.850295 187.495902 
L 196.931311 187.938934 
L 197.033763 188.348259 
L 197.459555 188.927223 
L 198.141629 188.969245 
L 200.46861 190.0255 
L 200.709598 190.577919 
L 201.393901 191.55456 
L 201.756215 191.726803 
L 202.691279 192.328845 
L 203.225942 192.920972 
L 203.51288 192.988365 
L 205.414606 193.18048 
L 206.156465 193.800221 
L 206.400567 193.963795 
L 206.976912 194.285346 
L 207.669566 194.462954 
L 208.242713 194.968319 
L 209.05275 195.078491 
L 209.711506 195.033978 
L 209.791743 194.861953 
L 209.873672 194.425998 
L 210.542427 193.807892 
L 211.512691 193.858711 
L 211.869584 193.917951 
L 211.954315 194.435729 
L 212.191205 195.056581 
L 212.488836 195.196575 
L 213.157217 195.620712 
L 213.943589 195.79626 
L 215.768269 196.058458 
L 215.72377 196.210836 
L 215.929148 196.521892 
L 216.078193 197.012459 
L 216.023991 197.332708 
L 216.069715 197.331873 
L 219.007867 197.478682 
L 220.668117 197.563852 
L 221.386969 197.516239 
L 221.345938 197.40124 
L 221.311204 197.302334 
L 221.429147 197.292731 
L 221.408362 197.188107 
L 221.299181 196.85299 
L 221.439147 196.83195 
L 222.579185 196.731721 
L 223.480945 196.569512 
L 223.625709 196.114768 
L 223.701849 196.053567 
L 223.796785 195.660802 
L 224.24574 195.356809 
L 225.303786 195.381925 
L 225.586173 195.579029 
L 225.855101 195.90937 
L 227.384422 196.094429 
L 228.212802 196.283884 
L 228.13306 196.421019 
L 228.477193 196.597133 
L 229.88199 197.098167 
L 230.098089 197.015743 
L 230.738162 197.120466 
L 231.232692 197.210399 
L 231.447375 197.331823 
L 231.561921 197.503182 
L 232.12003 197.721694 
L 232.591836 197.783616 
L 232.817757 197.977572 
L 232.773874 198.747179 
L 234.377085 198.944673 
L 236.091232 198.846163 
L 236.382784 198.740767 
L 237.600809 198.55989 
L 237.90144 199.153878 
L 238.024875 199.234307 
L 238.319045 200.868323 
L 240.352245 200.925369 
L 240.749334 200.877806 
L 240.752441 200.912426 
L 240.875238 201.339776 
L 242.533762 201.148021 
L 242.597991 201.131214 
L 242.741418 200.559348 
L 243.424178 200.646315 
L 244.619925 200.800456 
L 245.828297 200.915143 
L 245.817929 200.947824 
L 245.523971 201.734444 
L 245.573799 201.738287 
L 246.956799 201.935023 
L 246.950296 201.967103 
L 246.711601 203.271847 
L 246.789934 203.246498 
L 247.673684 203.058289 
L 248.727342 203.119129 
L 249.673963 203.233257 
L 250.168755 203.580568 
L 250.168924 203.4102 
L 250.22239 203.111111 
L 251.853406 203.418706 
L 252.030461 203.927708 
L 251.266622 203.991188 
L 251.313046 204.680954 
L 251.271016 204.740945 
L 250.521988 204.683636 
L 250.648671 204.884654 
L 250.927506 205.048894 
L 251.737643 205.451566 
L 252.156111 205.45853 
L 253.336649 205.543926 
L 254.144903 205.615572 
L 254.307317 205.65211 
L 254.316857 205.604872 
L 254.503834 205.308352 
L 254.609683 205.313801 
L 254.669928 205.203105 
L 255.798806 205.20193 
L 256.535428 205.131863 
L 256.660709 205.121077 
L 256.666378 205.002137 
L 257.036539 204.904519 
L 257.1058 204.537358 
L 257.984384 204.582812 
L 257.969884 204.786215 
L 258.437961 204.787234 
L 258.526414 205.026255 
L 258.752357 205.133695 
L 258.859656 205.2779 
L 259.197526 205.297397 
L 259.324202 205.890402 
L 259.237645 206.208308 
L 257.349357 206.464348 
L 257.541925 206.950846 
L 258.250983 208.127217 
L 258.492 208.324222 
L 258.479558 208.393377 
L 258.705819 208.440247 
L 258.704263 208.498136 
L 258.638964 208.609589 
L 258.530002 208.68052 
L 258.886874 209.026054 
L 259.210859 209.058445 
L 259.04916 209.159552 
L 259.108145 209.212713 
L 259.566789 209.487713 
L 260.097114 210.313185 
L 259.936278 210.460114 
L 259.959497 210.482739 
L 260.00716 210.61376 
L 259.989263 210.628918 
L 259.819524 210.593477 
L 259.843055 210.609287 
L 260.189085 210.956569 
L 260.015136 211.12422 
L 259.94039 211.269649 
L 260.685745 211.331536 
L 260.607022 211.636789 
L 259.898672 211.658437 
L 259.896153 211.750953 
L 260.023861 211.830397 
L 259.924771 212.199087 
L 259.674902 212.387381 
L 259.043045 212.787492 
L 259.629058 212.945256 
L 259.195799 213.297435 
L 259.352311 213.348452 
L 260.202934 213.725415 
L 260.137523 213.910297 
L 259.655851 214.117225 
L 259.735812 214.185141 
L 259.80375 214.301923 
L 259.666204 214.233327 
L 259.424445 214.371305 
L 260.466879 214.738968 
L 260.504365 214.893951 
L 260.499942 215.003331 
L 260.606272 214.993133 
L 260.754992 215.054886 
L 261.145627 215.200591 
L 261.32005 215.399288 
L 261.775679 215.966993 
L 261.644 216.028766 
L 261.668832 216.12274 
L 261.843043 216.38568 
L 261.714973 216.380804 
L 260.470311 216.218567 
L 260.514768 216.358116 
L 260.730563 216.733217 
L 260.429747 216.851804 
L 260.130778 216.626215 
L 260.082663 216.584391 
L 259.558424 216.878618 
L 259.978322 217.566198 
L 260.014768 217.845344 
L 259.688008 217.867495 
L 259.879833 217.95064 
L 260.108026 218.082397 
L 259.941536 218.163342 
L 259.576711 218.284349 
L 259.538113 218.458461 
L 252.21879 221.205113 
L 252.338262 221.324365 
L 254.099732 223.08534 
L 254.009269 223.13635 
L 254.012411 223.17649 
L 254.404581 223.3852 
L 254.775536 224.009025 
L 255.449514 224.070537 
L 255.587647 224.024367 
L 255.500283 223.95781 
L 255.461587 223.912065 
L 255.83143 223.81928 
L 256.057634 223.892653 
L 255.928779 223.731152 
L 255.657502 223.789968 
L 255.642938 223.577938 
L 255.496518 223.426777 
L 255.983639 223.410507 
L 256.179434 223.751208 
L 256.526207 223.671693 
L 256.481056 223.574266 
L 256.45127 223.526483 
L 256.746021 223.462267 
L 256.80064 223.314927 
L 257.20942 223.331883 
L 257.620047 223.682895 
L 258.806438 224.642969 
L 258.793495 224.757953 
L 259.599498 224.62626 
L 260.056677 225.135666 
L 259.538021 225.36083 
L 259.547582 225.662056 
L 259.21163 226.028177 
L 258.658603 226.698992 
L 258.708134 226.838526 
L 259.017073 227.14414 
L 259.790807 227.104509 
L 260.192899 227.506326 
L 261.749898 227.546388 
L 262.115884 228.903218 
L 263.124958 229.908704 
L 263.340483 229.932262 
L 263.297406 230.60503 
L 263.314985 231.057977 
L 263.270578 231.306601 
L 262.916177 231.361963 
L 263.053736 231.742471 
L 262.881613 231.790374 
L 262.916283 231.860541 
L 262.95696 231.906073 
L 262.904019 231.93327 
L 262.531897 232.077751 
L 262.638913 232.164187 
L 262.881238 232.227674 
L 262.338458 232.482575 
L 262.17976 232.456284 
L 261.944228 232.238593 
L 261.534896 232.219415 
L 261.516425 232.221616 
L 261.614135 232.274416 
L 261.84765 232.605485 
L 261.789068 232.870061 
L 261.516171 233.477403 
L 261.579721 233.746854 
L 261.836858 234.004423 
L 262.380431 234.306491 
L 262.937159 234.535399 
L 263.045633 234.76919 
L 262.906531 235.250507 
L 262.457583 235.579899 
L 262.19133 235.891174 
L 262.196992 236.097939 
L 262.065242 236.036094 
L 261.839731 235.994277 
L 261.276152 236.242087 
L 260.987325 236.467534 
L 260.965818 236.781994 
L 261.064597 236.844405 
L 261.834969 236.968667 
L 262.011267 236.81142 
L 261.912623 236.400021 
L 262.153264 236.257508 
L 262.27575 236.173017 
L 262.932531 236.521226 
L 263.04794 236.815234 
L 262.987943 237.038197 
L 262.871911 237.433468 
L 263.057162 237.762789 
L 264.039527 239.084235 
L 266.779662 239.302739 
L 267.236911 239.605027 
L 267.276712 239.804764 
L 267.63221 239.8177 
L 267.746869 239.369969 
L 267.292861 239.369672 
L 267.277532 239.109846 
L 266.961119 238.989532 
L 266.96751 238.966745 
L 266.969654 238.75439 
L 267.087406 238.770645 
L 267.067265 238.708277 
L 267.032461 238.625287 
L 267.137531 238.672461 
L 268.055844 238.74376 
L 268.889462 238.776554 
L 268.886603 238.737717 
L 268.830795 237.964054 
L 270.285632 237.531871 
L 270.59029 237.386329 
L 270.644612 237.32706 
L 270.652135 237.145808 
L 271.876218 236.818298 
L 271.704654 236.425632 
L 271.53028 236.251945 
L 271.323126 236.081181 
L 271.46293 236.091003 
L 272.204102 236.088852 
L 272.202375 236.178891 
L 272.406408 236.54722 
L 272.538738 236.667767 
L 274.181487 236.40598 
L 275.179323 236.877418 
L 275.248159 236.966056 
L 275.70216 236.79774 
L 275.683959 236.779623 
L 275.267302 236.237791 
L 275.121024 236.130528 
L 275.162812 235.978036 
L 275.541112 236.170498 
L 275.732853 236.073906 
L 275.984746 235.825339 
L 276.159233 235.541005 
L 276.081975 235.341785 
L 276.959547 234.991721 
L 277.074878 234.895412 
L 277.108995 234.913741 
L 277.590065 235.210969 
L 277.326743 235.474299 
L 277.760773 235.802594 
L 277.712049 235.865018 
L 277.878277 235.924832 
L 278.372673 236.004206 
L 278.617546 236.340703 
L 278.850601 236.382463 
L 278.97124 236.478206 
L 278.909027 236.541056 
L 278.850941 236.580106 
L 278.961035 236.623423 
L 279.014182 236.775384 
L 278.875518 236.833931 
L 278.561151 236.96089 
L 278.493496 237.099561 
L 278.474438 237.200434 
L 279.025576 237.104175 
L 279.173631 236.891841 
L 279.508309 236.832494 
L 279.934201 236.813316 
L 280.154284 236.885104 
L 280.055512 236.73431 
L 280.061952 236.604245 
L 280.182832 236.543363 
L 280.230034 236.623204 
L 280.386723 236.71959 
L 280.668622 237.153415 
L 281.386441 237.067403 
L 281.487973 236.802828 
L 282.292525 237.416193 
L 282.066533 237.342799 
L 281.5632 237.175665 
L 281.563695 237.2661 
L 281.530936 237.548714 
L 281.366782 237.624571 
L 281.463657 237.867561 
L 282.367448 237.998462 
L 283.410073 238.168844 
L 283.574659 238.337535 
L 283.729204 238.506509 
L 284.70842 238.451734 
L 285.496463 238.546536 
L 285.669131 240.042327 
L 285.651835 240.076239 
L 286.697885 240.092494 
L 286.766248 240.477284 
L 287.012267 240.891917 
L 287.26346 240.904556 
L 287.663344 240.196043 
L 288.083801 240.162343 
L 288.979277 239.741695 
L 290.001932 239.824508 
L 290.372914 239.842547 
L 290.205929 240.002116 
L 290.512604 240.32528 
L 290.45267 240.503737 
L 290.762523 240.540954 
L 290.672881 240.887607 
L 290.75425 240.899991 
L 292.272574 240.857594 
L 292.297697 240.781525 
L 293.827131 240.949423 
L 295.38551 240.924293 
L 295.654034 240.790406 
L 295.962669 240.440569 
L 296.64422 240.874394 
L 296.938928 241.010461 
L 297.52671 240.567712 
L 298.477286 241.11546 
L 299.218834 241.304454 
L 299.998936 241.248547 
L 300.193238 241.251796 
L 301.229268 241.432057 
L 301.494338 241.273706 
L 301.817014 241.045534 
L 302.10863 240.724464 
L 303.053785 240.872675 
L 303.051945 240.877282 
L 302.928454 241.01557 
L 302.730196 241.088172 
L 302.750429 241.120018 
L 302.531514 241.347871 
L 302.6685 241.404832 
L 302.637228 241.623762 
L 302.749233 241.452877 
L 303.003398 241.43101 
L 303.587153 241.429446 
L 303.587712 241.276883 
L 304.132467 240.836045 
L 305.951231 240.701578 
L 306.745714 240.803293 
L 307.316561 240.445608 
L 307.85864 240.235886 
L 307.634552 239.960837 
L 307.657042 239.876636 
L 307.682519 239.876636 
L 308.307029 239.98596 
L 309.710093 240.020756 
L 309.744769 240.188952 
L 309.795786 240.151169 
L 309.922157 240.300681 
L 309.952729 240.284765 
L 310.094599 240.377104 
L 310.437069 240.409792 
L 310.837774 240.507226 
L 310.893674 240.539065 
L 310.924239 240.520177 
L 311.533676 240.40009 
L 311.564241 240.352533 
L 311.635286 240.355789 
L 311.746937 240.346589 
L 311.746803 240.368739 
L 311.990912 240.302578 
L 312.249323 240.360098 
L 312.259301 240.398455 
L 312.340175 240.37956 
L 312.798118 240.25643 
L 312.991005 240.244258 
L 312.983291 240.195151 
L 312.901348 239.942182 
L 315.214699 239.44146 
L 316.492785 238.929068 
L 316.847781 239.05672 
L 317.055742 239.10802 
L 317.43119 239.191442 
L 317.416484 239.894166 
L 317.29593 240.446521 
L 318.290715 240.58556 
L 319.428368 240.670319 
L 319.377422 240.606847 
L 319.133292 239.967312 
L 319.159894 239.811572 
L 319.441715 239.684903 
L 319.817369 239.570485 
L 319.781206 239.211158 
L 319.654261 239.211165 
L 319.725087 239.023501 
L 320.461532 238.861031 
L 321.376363 238.991153 
L 321.325488 238.895552 
L 321.208309 238.609399 
L 320.557543 238.555417 
L 320.511685 238.409082 
L 320.760401 238.227724 
L 320.8417 238.157528 
L 321.329571 238.131832 
L 322.206407 237.500004 
L 322.560964 237.376987 
L 322.465419 236.986763 
L 322.257155 236.881183 
L 322.101853 236.715875 
L 322.676126 236.736426 
L 322.459185 236.371162 
L 321.995927 236.282645 
L 322.051827 236.23806 
L 322.813664 235.850143 
L 323.815378 235.512393 
L 323.101777 235.0843 
L 323.268472 234.636669 
L 323.313608 234.445827 
L 323.028305 234.268149 
L 322.105399 233.728256 
L 321.866867 233.615394 
L 321.70342 233.418934 
L 322.11939 233.062544 
L 324.599684 233.612181 
L 324.790801 233.533352 
L 325.52104 233.238934 
L 325.680857 233.14218 
L 325.185895 232.707788 
L 325.068433 232.612477 
L 324.604319 232.219691 
L 324.609344 232.200796 
L 325.367019 232.123587 
L 325.631439 232.021546 
L 326.252326 231.650118 
L 326.257839 231.344221 
L 326.462962 231.052966 
L 326.768335 230.359938 
L 327.179436 230.09975 
L 328.320479 230.079496 
L 329.064708 230.057912 
L 329.211383 229.98064 
L 329.456426 230.024651 
L 329.250936 229.891832 
L 328.615095 229.398923 
L 328.594282 229.068752 
L 328.815823 228.818189 
L 329.286426 228.532879 
L 329.75548 228.682958 
L 330.083237 228.720451 
L 330.793859 228.762905 
L 331.227323 228.751504 
L 331.930309 228.876814 
L 334.978562 228.941886 
L 335.429294 229.1686 
L 335.369013 229.198032 
L 335.724646 229.327383 
L 336.734222 229.458559 
L 336.544945 229.607017 
L 337.313703 229.539264 
L 337.323738 229.391138 
L 338.224904 229.377112 
L 339.19618 229.521274 
L 342.410188 230.525812 
L 342.448898 230.689584 
L 342.726919 231.139021 
L 342.954426 231.285186 
L 343.248816 231.254657 
L 343.453266 231.123254 
L 343.598186 230.898273 
L 343.602304 230.676351 
L 343.665557 230.392887 
L 343.418469 230.39126 
L 343.443089 230.294109 
L 343.589984 230.156974 
L 344.678134 230.05276 
L 344.960345 229.921817 
L 345.254409 229.71477 
L 346.524788 229.227897 
L 346.737518 229.256997 
L 346.705078 229.185959 
L 346.828187 228.707833 
L 348.069494 228.89222 
L 348.364769 229.018811 
L 348.660822 228.871981 
L 350.691 228.512484 
L 351.085754 228.657021 
L 351.049244 228.542355 
L 351.126637 227.805874 
L 351.331971 227.688696 
L 355.387466 227.524945 
L 355.941965 227.813687 
L 357.334385 227.43422 
L 357.955371 227.284523 
L 358.062593 226.975703 
L 357.916279 226.440375 
L 358.121175 226.503402 
L 358.762408 226.527031 
L 359.129541 226.366479 
L 359.606004 225.917339 
L 360.562553 226.024922 
L 360.625254 226.30566 
L 360.642897 226.373669 
L 360.669973 226.377384 
L 361.025174 226.374773 
L 361.645063 226.515029 
L 361.775483 226.725275 
L 362.142764 227.452308 
L 362.302283 227.645676 
L 362.241897 227.676764 
L 362.105328 227.750215 
L 362.241253 227.793228 
L 362.542613 228.072884 
L 362.525487 228.101397 
L 362.950742 228.091503 
L 363.10426 228.083216 
L 364.466242 227.896373 
L 364.70515 227.817381 
L 365.645472 227.804806 
L 366.397415 227.782648 
L 366.36501 227.900605 
L 366.466337 227.874145 
L 366.686887 227.922466 
L 367.325551 227.972421 
L 367.809551 227.693459 
L 368.312311 227.203401 
L 368.4874 226.695453 
L 368.670499 226.330238 
L 368.617692 226.313339 
L 368.413659 226.24867 
L 368.755386 226.2432 
L 368.87168 226.210045 
L 368.885805 226.261359 
L 369.402854 226.21577 
L 369.32135 226.200201 
L 369.105817 225.740241 
L 368.809467 225.281131 
L 368.788215 225.041381 
L 368.678751 224.806699 
L 368.751296 224.803217 
L 369.49687 224.777443 
L 369.952435 225.071599 
L 370.383302 225.491044 
L 370.439591 225.574586 
L 371.039736 225.862862 
L 371.039389 225.840846 
L 371.175406 225.621039 
L 371.635685 225.35134 
L 371.792161 225.163761 
L 372.123577 224.990647 
L 372.346802 224.959049 
L 372.616961 224.875917 
L 373.129608 224.464257 
L 373.335473 224.23886 
L 373.552237 223.693942 
L 373.459106 223.397281 
L 373.403269 223.210806 
L 373.146026 222.987722 
L 372.7781 222.698229 
L 372.728846 222.516638 
L 372.89593 222.200019 
L 372.770457 221.564164 
L 372.853681 221.29298 
L 372.531451 220.901368 
L 372.571145 220.783588 
L 372.861692 220.546216 
L 372.990887 220.207709 
L 372.664991 219.862678 
L 372.50894 219.640217 
L 372.365152 219.513393 
L 372.216567 219.177518 
L 371.523184 218.923905 
L 371.650999 218.764421 
L 371.711711 218.635644 
L 371.599876 218.39 
L 371.325075 218.284024 
L 370.930455 218.293924 
L 370.351152 217.970116 
L 369.596413 217.512562 
L 368.020745 216.620709 
L 367.427904 216.049572 
L 367.275015 215.845504 
L 366.465077 215.329107 
L 366.09115 214.780778 
L 365.824346 214.581926 
L 365.899432 214.442441 
L 366.09275 214.028962 
L 365.905822 213.722343 
L 366.169435 213.617514 
L 366.386722 213.47609 
L 366.250917 213.350497 
L 365.413797 213.034566 
L 365.548469 212.847737 
L 365.718455 212.654327 
L 365.747612 212.299352 
L 365.651862 211.958035 
L 365.593903 211.778142 
L 365.633349 211.517664 
L 364.787467 210.636094 
L 364.352899 210.547174 
L 364.255444 210.353523 
L 363.846445 210.323885 
L 363.327209 210.329808 
L 362.689741 210.132223 
L 362.355834 210.15099 
L 362.010738 209.865496 
L 361.911684 209.666948 
L 361.820619 209.411127 
L 361.515465 209.115817 
L 361.147158 208.907666 
L 361.193645 208.741424 
L 361.126543 208.501476 
L 361.348614 208.222054 
L 361.252758 207.963381 
L 361.251159 207.837016 
L 361.168077 207.697822 
L 361.216008 207.660315 
L 361.730453 207.469799 
L 362.069158 207.6228 
L 362.272058 207.473748 
L 362.212945 207.339507 
L 362.112298 207.047353 
L 362.380702 207.026625 
L 362.473366 207.183554 
L 362.578811 207.252646 
L 362.74177 207.140131 
L 362.53088 206.858847 
L 362.350349 206.688118 
L 362.385493 206.649634 
L 362.844023 206.334849 
L 363.631846 206.279437 
L 364.617418 205.745815 
L 365.020027 205.586989 
L 365.234116 205.270335 
L 365.587201 205.124347 
L 365.593591 204.815634 
L 365.673475 204.700238 
L 365.798091 204.418191 
L 366.258214 204.173636 
L 366.291765 204.033613 
L 366.480285 203.9853 
L 367.168877 204.017839 
L 367.210418 203.707258 
L 367.65776 203.63036 
L 368.018835 203.399662 
L 368.533279 203.159134 
L 368.464577 202.998462 
L 368.288838 202.792454 
L 368.520498 202.56182 
L 368.836833 202.40315 
L 368.958251 202.198169 
L 369.141987 201.805977 
L 369.314535 201.668035 
L 369.228261 201.074946 
L 369.603709 200.783365 
L 369.886005 200.701175 
L 370.308273 200.302713 
L 370.268331 200.112643 
L 370.362206 199.546764 
L 370.081403 199.355413 
L 369.878503 199.272706 
L 369.437552 198.465478 
L 369.293835 197.834966 
L 369.553456 197.702608 
L 369.920115 197.622406 
L 370.119024 197.330656 
L 370.166955 197.059096 
L 370.353883 196.877086 
L 370.43422 196.539903 
L 370.097093 196.177603 
L 369.916923 196.005063 
L 370.075091 195.873271 
L 370.746104 195.640683 
L 370.852907 195.256792 
L 371.340941 194.903594 
L 371.836887 194.455212 
L 371.770237 194.230691 
L 371.950987 194.138947 
L 372.350906 194.006193 
L 372.344127 193.532221 
L 372.45258 193.220217 
L 372.302331 193.065962 
L 372.171282 192.934644 
L 372.205378 192.604835 
L 372.181458 192.373351 
L 372.566085 192.17435 
L 373.004284 191.929916 
L 373.075406 191.524695 
L 372.82577 191.288463 
L 372.541026 191.108803 
L 371.978197 190.360448 
L 371.659774 190.138546 
L 370.491054 189.59837 
L 369.736485 189.46202 
L 368.926101 189.30795 
L 368.231451 188.822224 
L 367.68405 188.20053 
L 367.641511 187.809576 
L 367.791717 187.327409 
L 367.469742 186.340444 
L 367.582703 185.970176 
L 368.637075 185.12215 
L 369.256611 184.475814 
L 369.3137 184.113366 
L 369.216471 183.790995 
L 368.871588 183.373581 
L 367.920212 182.543254 
L 368.094635 182.25834 
L 369.518015 181.286017 
L 369.811931 180.538277 
L 369.901736 179.961613 
L 370.072395 179.643501 
L 369.957537 179.501271 
L 369.23606 178.954485 
L 368.92402 178.478156 
L 368.598018 178.273402 
L 367.849252 178.051776 
L 366.716164 177.854226 
L 365.833836 177.689371 
L 364.733252 177.592736 
L 362.83161 177.041407 
L 361.512776 176.915977 
L 361.27505 176.778425 
L 360.748193 176.076875 
L 360.09195 175.796993 
L 360.003114 175.512107 
L 360.119019 175.252861 
L 360.788071 174.711956 
L 360.732277 174.508079 
L 360.288113 173.842459 
L 360.241264 173.601224 
L 359.804255 173.30171 
L 359.118437 173.06736 
L 359.097674 172.811964 
L 359.201059 172.2475 
L 358.923633 171.852456 
L 358.487777 171.356044 
L 358.500558 171.05302 
L 358.492617 170.422268 
L 358.376168 169.624827 
L 357.989644 169.170394 
L 357.265046 168.455328 
L 357.201354 168.119999 
L 357.446801 167.690477 
L 358.063293 167.060135 
L 358.054299 166.731875 
L 357.875339 166.253537 
L 358.007931 165.884451 
L 358.426803 165.462501 
L 358.97828 165.192045 
L 359.85617 165.128848 
L 360.348783 165.016546 
L 362.58886 163.279632 
L 362.859132 162.441684 
L 364.12758 161.642856 
L 364.343169 161.252186 
L 364.277213 160.975509 
L 363.880958 160.604874 
L 363.305059 160.425079 
L 362.807344 160.209334 
L 362.631357 159.912708 
L 362.589674 159.548498 
L 362.142948 158.536134 
L 362.377149 158.153885 
L 362.763333 157.793213 
L 362.87887 157.473304 
L 362.935605 157.055388 
L 363.317549 156.751402 
L 364.658173 155.91535 
L 364.549692 155.616813 
L 364.125301 155.378238 
L 362.858396 154.776678 
L 362.586306 154.32923 
L 362.375536 153.8048 
L 361.579157 153.051413 
L 360.410797 152.624523 
L 359.870855 152.25991 
L 358.529792 151.885637 
L 356.784139 151.249959 
L 355.671807 150.928061 
L 352.135456 149.283635 
L 351.579067 148.482493 
L 351.008099 148.247896 
L 349.970032 147.955508 
L 349.275765 146.979852 
L 348.547479 146.491775 
L 348.241915 146.137813 
L 347.047293 145.257785 
L 346.662681 144.992311 
L 346.352906 144.674115 
L 345.163592 143.945143 
L 344.625426 143.520051 
L 344.185663 143.097959 
L 340.35776 141.874287 
L 339.221898 141.471898 
L 336.913741 140.126192 
L 336.324551 139.644705 
L 335.592012 139.178715 
L 334.886811 138.55383 
L 334.383873 138.380928 
L 332.591003 138.21826 
L 330.182122 137.980803 
L 328.532161 137.611583 
L 328.265421 137.288298 
L 328.088634 136.917818 
L 328.419264 136.135876 
L 328.820005 135.787419 
L 329.315498 135.369318 
L 329.49089 135.192836 
L 330.008704 134.856855 
L 330.588772 134.132979 
L 330.635542 133.075945 
L 330.347083 132.815722 
L 330.165703 132.528331 
L 329.590865 130.374422 
L 329.483927 130.112224 
L 329.464671 129.198533 
L 329.232479 128.862311 
L 329.515065 128.486241 
L 329.629137 128.172028 
L 329.962888 128.069414 
L 330.997665 127.871836 
L 331.239757 127.579279 
L 331.327375 127.362791 
L 331.904988 127.153882 
L 332.342252 127.078372 
L 333.374842 126.623692 
L 334.024851 126.378755 
L 334.699281 126.29016 
L 334.960354 126.268427 
L 338.071959 125.063742 
L 338.391337 124.792692 
L 341.245735 123.23466 
L 341.980156 122.783794 
L 344.053878 121.624959 
L 344.066765 121.475638 
L 344.452736 121.179111 
L 344.769638 120.555506 
L 344.831419 120.341573 
L 345.383413 119.685832 
L 345.657216 118.805253 
L 345.592958 118.400393 
L 345.582407 118.094886 
L 345.838249 117.844082 
L 346.225211 117.402062 
L 346.326757 116.9577 
L 346.400717 116.22773 
L 346.451946 116.121499 
L 346.536592 115.938846 
L 346.55265 115.767798 
L 346.793057 115.420332 
L 345.832934 114.575286 
L 345.541786 114.131489 
L 345.529967 113.801637 
L 345.305702 113.325861 
L 345.497272 112.936783 
L 346.063222 111.415819 
L 346.102704 111.204936 
L 346.688101 110.989864 
L 347.95238 110.705665 
L 348.225327 110.365473 
L 348.295324 109.701594 
L 349.071725 109.017687 
L 349.481765 108.781533 
L 350.014149 108.442488 
L 350.115136 108.202088 
L 350.239327 107.834155 
L 351.060178 107.225051 
L 351.250687 107.057896 
L 351.24085 106.802075 
L 351.006535 106.44681 
L 350.857532 106.139066 
L 350.872925 106.128047 
L 350.895641 106.075841 
L 350.805624 106.066733 
L 349.139521 105.801196 
L 348.529843 103.967514 
L 348.174996 103.648942 
L 348.787193 102.541528 
L 348.471764 102.166399 
L 347.505066 102.191472 
L 346.353168 102.592114 
L 346.184208 102.996626 
L 345.907524 103.176492 
L 345.488709 103.131002 
L 345.080665 103.02683 
L 344.986741 103.023674 
L 344.997293 103.122219 
L 345.028388 103.198649 
L 344.921217 103.208557 
L 344.155233 103.305856 
L 344.169188 103.356067 
L 344.000604 103.563829 
L 342.579303 103.448908 
L 341.758127 103.408669 
L 341.755317 103.482473 
L 341.632945 103.875585 
L 340.6744 105.085259 
L 340.762556 105.242712 
L 340.690273 105.260234 
L 337.926169 105.929549 
L 338.188041 106.668075 
L 338.154482 106.680155 
L 338.171261 107.147156 
L 337.138629 107.292182 
L 336.611581 107.316165 
L 334.287968 107.433924 
L 333.795702 107.185541 
L 333.602016 107.027076 
L 333.543483 106.970058 
L 333.321844 107.018265 
L 333.171284 107.010863 
L 332.50693 107.008315 
L 332.099049 106.975344 
L 331.234025 106.723203 
L 331.167665 106.678017 
L 330.583485 106.575212 
L 330.119301 106.620745 
L 328.017441 107.081709 
L 326.394252 106.993376 
L 327.054338 105.599208 
L 327.883059 105.030265 
L 329.600667 103.906334 
L 331.747025 102.720198 
L 333.985864 101.251624 
L 335.474628 99.8314 
L 335.877796 99.201312 
L 336.609726 97.50415 
L 336.47959 96.708988 
L 336.197068 96.134758 
L 336.519072 95.597696 
L 336.426443 95.555122 
L 336.057442 95.143921 
L 335.882814 95.203954 
L 335.296051 94.762996 
L 334.622887 95.068694 
L 334.314018 95.393062 
L 333.823153 95.526977 
L 332.247302 95.607469 
L 331.562907 95.471877 
L 330.207846 94.835774 
L 329.924645 94.695872 
L 329.048906 94.2946 
L 328.881411 94.430235 
L 327.95428 94.30455 
L 326.903418 95.491564 
L 326.807866 95.595799 
L 326.030311 95.629202 
L 325.19467 96.185775 
L 325.304609 96.319641 
L 325.280463 96.34218 
L 325.182972 96.422191 
L 325.149569 96.384719 
L 324.743634 96.20697 
L 324.168598 96.149754 
L 323.197194 96.293846 
L 322.910192 96.102056 
L 322.502325 95.117588 
L 319.823511 95.002873 
L 319.372737 94.728751 
L 316.768061 95.055659 
L 315.461051 95.044329 
L 313.460264 95.592034 
L 312.702722 95.181131 
L 312.57386 94.990778 
L 312.514966 94.938643 
L 312.592713 94.890513 
L 313.146391 94.485597 
L 313.088538 94.438515 
L 312.687571 94.016339 
L 312.732141 94.017697 
L 313.620384 93.69914 
L 313.483433 93.204454 
L 310.577806 92.003074 
L 310.91579 91.581492 
L 311.031404 91.479168 
L 311.138215 91.272156 
L 311.231304 91.15306 
L 311.176557 91.12541 
L 310.810444 91.05864 
L 310.594203 91.05421 
L 310.586115 91.023475 
L 310.497251 90.880332 
L 310.423828 90.801326 
L 310.474017 90.748016 
L 310.550546 90.476499 
L 310.679097 90.367091 
L 310.721233 90.055518 
L 310.875586 89.829038 
L 308.324163 89.008668 
L 306.967658 88.854768 
L 306.778756 88.834005 
L 306.883762 88.739656 
L 306.894696 88.577235 
L 305.152644 86.793459 
L 305.246306 86.212266 
L 305.3772 86.186286 
L 305.300621 86.094011 
L 305.230843 85.931194 
L 304.795759 86.014354 
L 304.606092 85.982785 
L 304.067877 86.571946 
L 303.595617 87.981315 
L 303.552717 88.142795 
L 303.837815 88.509078 
L 303.830378 88.637091 
L 303.718577 89.141451 
L 304.727984 89.463186 
L 304.661341 89.511931 
L 305.233653 90.051407 
L 305.269342 90.227953 
L 305.486488 90.197239 
L 305.574106 90.130851 
L 306.039869 89.992761 
L 306.272556 90.034875 
L 306.386217 90.142408 
L 307.156631 90.233444 
L 305.232259 91.670823 
L 303.984483 91.93617 
L 303.681084 91.851212 
L 302.822203 91.748272 
L 301.654912 91.539519 
L 301.081517 91.09539 
L 300.873479 91.436771 
L 299.796156 91.389462 
L 299.522445 91.3685 
L 299.3794 91.35395 
L 298.942596 91.463967 
L 298.579214 91.862011 
L 296.961298 92.551629 
L 296.701096 92.601174 
L 294.907716 93.635894 
L 294.956009 93.632271 
L 295.119866 93.790431 
L 295.026629 93.822086 
L 294.805598 93.889925 
L 294.683281 94.049239 
L 294.700528 94.130623 
L 294.567943 94.021979 
L 294.383159 93.962264 
L 293.951252 93.855737 
L 293.478568 94.372778 
L 293.843231 94.498824 
L 293.783552 94.545906 
L 293.720228 94.834437 
L 293.749626 94.886536 
L 293.125497 94.924681 
L 293.240149 95.048985 
L 293.639205 95.533537 
L 293.59615 95.563175 
L 292.831496 96.554606 
L 292.545026 96.5093 
L 292.201232 96.231605 
L 291.661927 96.264321 
L 291.548421 96.387557 
L 291.445538 96.396559 
L 290.641459 96.573459 
L 290.380161 96.568045 
L 290.221986 96.547742 
L 289.533791 96.63541 
L 289.001074 96.730494 
L 288.888262 96.899843 
L 288.964112 96.951653 
L 288.797303 96.974419 
L 288.557143 97.098448 
L 288.499708 97.166598 
L 287.812383 97.185387 
L 287.474513 97.423084 
L 287.347526 97.513038 
L 287.248287 97.586588 
L 287.279758 97.618349 
L 287.385415 97.712251 
L 288.003146 97.82357 
L 287.871453 97.920466 
L 287.962299 98.168383 
L 287.908585 98.174929 
L 287.565939 98.567715 
L 287.633614 98.604253 
L 288.025849 98.671462 
L 288.007399 98.729166 
L 287.925464 98.894269 
L 287.287394 99.258883 
L 287.313507 99.282668 
L 287.173343 99.5511 
L 286.920664 99.734532 
L 286.224423 99.628598 
L 285.851621 99.507322 
L 285.489605 100.142052 
L 285.159378 100.577165 
L 285.312295 100.581333 
L 285.78287 100.661132 
L 285.755468 101.093336 
L 285.634058 101.303922 
L 285.432891 101.383813 
L 285.400989 101.610604 
L 285.634298 101.838231 
L 285.574223 101.858216 
L 285.496569 101.976831 
L 285.657015 102.675047 
L 285.604944 102.899483 
L 285.170496 102.987957 
L 284.734435 103.008402 
L 284.742722 102.891924 
L 284.209509 102.324927 
L 284.128911 102.418299 
L 284.229325 102.642841 
L 284.50448 103.129197 
L 284.466512 103.135453 
L 284.233592 103.320902 
L 284.042135 103.500342 
L 283.729727 103.830584 
L 283.766626 103.953013 
L 283.806603 104.133437 
L 283.153445 104.640755 
L 283.005603 104.830995 
L 282.164795 104.926462 
L 281.642658 104.981612 
L 281.178467 105.017718 
L 281.195203 104.972384 
L 280.935334 104.608039 
L 280.701437 104.371637 
L 280.334128 104.382528 
L 280.070303 104.373902 
L 279.758872 104.318341 
L 279.659322 104.267749 
L 279.625396 104.289149 
L 279.552362 104.357476 
L 279.585999 104.402308 
L 279.526129 104.51471 
L 279.427527 104.66326 
L 279.58895 104.82348 
L 279.667949 104.835376 
L 279.344961 104.962193 
L 279.382193 104.998702 
L 279.497503 105.053647 
L 279.568024 105.045813 
L 279.603776 105.106419 
L 279.723382 105.175411 
L 279.937534 105.213732 
L 279.860248 105.272272 
L 279.271489 105.454147 
L 279.059368 105.451331 
L 278.88365 105.591962 
L 278.969902 105.651789 
L 278.885476 105.718956 
L 278.836235 105.899345 
L 278.317127 106.458451 
L 278.006135 106.638755 
L 277.70856 106.876516 
L 277.528921 106.905899 
L 277.565664 106.933874 
L 277.408183 107.386191 
L 277.198383 107.878789 
L 277.203528 107.877204 
L 277.329284 108.029858 
L 277.272782 108.056828 
L 276.89439 108.101858 
L 276.637578 108.105574 
L 276.637882 108.148325 
L 276.259448 108.303081 
L 276.045883 108.249191 
L 275.879662 108.06077 
L 275.92598 107.876595 
L 275.920283 107.785438 
L 275.776248 107.779239 
L 275.669685 107.77897 
L 274.820187 106.780554 
L 274.689831 106.312243 
L 274.054557 105.824917 
L 272.981452 105.883238 
L 272.709241 105.948791 
L 272.756203 106.159157 
L 272.643263 106.15305 
L 272.032092 106.071553 
L 270.038424 105.687428 
L 269.70739 105.635265 
L 269.709584 105.658463 
L 269.03695 106.048015 
L 269.039463 105.996071 
L 268.739624 106.027422 
L 268.44333 106.304452 
L 268.191592 106.590236 
L 268.033821 106.76289 
L 267.568235 106.834557 
L 267.33051 106.845321 
L 267.121488 106.898185 
L 266.624552 106.958791 
L 266.482717 106.948572 
L 266.564059 107.020756 
L 266.522772 107.156738 
L 266.076492 107.467942 
L 265.97644 108.01419 
L 266.157126 107.979429 
L 266.237151 107.912284 
L 266.24945 107.942134 
L 266.351569 108.066163 
L 266.058666 108.429325 
L 265.829553 108.572341 
L 265.688532 108.542343 
L 265.592669 108.698373 
L 265.81111 108.70569 
L 265.696961 108.774789 
L 265.66406 108.953267 
L 265.585019 109.202138 
L 265.218445 109.755633 
L 264.723257 110.134181 
L 263.239291 109.904572 
L 263.199668 109.919151 
L 262.877721 109.661652 
L 262.626309 109.320945 
L 262.100867 108.763777 
L 262.096309 108.470612 
L 261.641884 107.844891 
L 261.388511 107.774667 
L 261.401816 107.815699 
L 261.254518 107.96449 
L 260.909147 108.017983 
L 260.701696 107.789585 
L 260.095953 107.861408 
L 259.824216 107.973895 
L 259.325836 108.012421 
L 259.386803 107.782183 
L 259.383237 107.731973 
L 259.302752 107.758518 
L 258.321858 108.25113 
L 257.963154 108.661439 
L 257.79171 108.719335 
L 257.788101 108.682386 
L 257.619926 108.573219 
L 256.788319 108.499315 
L 256.640179 108.52022 
L 256.464992 108.524799 
L 256.475395 108.53126 
L 256.39239 108.601137 
L 256.207579 108.724168 
L 255.981877 108.814214 
L 256.249997 109.578712 
L 256.051251 110.031439 
L 256.152995 110.274614 
L 255.355307 110.354681 
L 255.112875 110.170994 
L 254.777284 110.267339 
L 254.844202 110.388367 
L 254.742352 110.393823 
L 254.564433 110.441012 
L 254.667642 110.628449 
L 254.562593 110.628315 
L 254.401899 110.705381 
L 254.369785 110.833706 
L 254.222643 111.129306 
L 254.293935 111.285619 
L 254.171159 111.371532 
L 254.15324 111.33319 
L 253.64566 111.196883 
L 253.526925 111.086215 
L 253.151802 111.272655 
L 252.962291 111.304536 
L 252.305376 111.375035 
L 250.648883 112.14247 
L 250.627872 112.34116 
L 250.186588 112.398008 
L 249.891151 112.44301 
L 249.896813 112.461905 
L 249.956322 112.525094 
L 250.034938 112.740273 
L 250.149336 112.78112 
L 250.02915 112.834791 
L 249.945947 113.092891 
L 248.999992 113.479181 
L 249.042099 113.542292 
L 249.117241 113.622508 
L 249.059827 113.648155 
L 248.848597 113.687141 
L 248.728531 113.682626 
L 248.77325 113.606684 
L 248.776434 113.541209 
L 247.788407 113.611709 
L 247.496317 113.717034 
L 247.600184 113.859278 
L 247.523881 113.882037 
L 246.916843 113.933798 
L 246.764536 113.76091 
L 246.370072 113.715597 
L 246.196993 113.409488 
L 246.096934 113.007785 
L 245.567175 112.991303 
L 245.134723 113.222489 
L 244.641997 113.267066 
L 244.529476 113.130037 
L 244.61478 113.10444 
L 245.022583 112.858683 
L 245.753296 112.703926 
L 245.926481 112.675102 
L 245.82611 112.586514 
L 245.857467 112.449358 
L 247.227687 111.90391 
L 247.074664 111.833346 
L 246.931209 111.589414 
L 246.979601 111.524633 
L 246.921082 111.499234 
L 246.007879 111.348094 
L 244.768001 111.513558 
L 244.528322 111.67336 
L 244.121538 111.761601 
L 244.264504 111.820353 
L 244.648289 112.151026 
L 244.530488 112.361584 
L 243.280405 112.240357 
L 242.912677 112.184676 
L 243.029353 112.147565 
L 243.719948 111.840466 
L 243.611686 111.73151 
L 243.166198 111.638521 
L 242.541688 111.690394 
L 242.25187 111.796469 
L 241.939052 111.772408 
L 241.875296 111.76003 
L 241.680364 111.836948 
L 241.74964 111.896118 
L 241.612589 112.091736 
L 240.735414 112.322073 
L 240.607627 112.729176 
L 240.453586 112.70462 
L 239.673696 112.603654 
L 239.183341 112.287779 
L 238.530855 112.113547 
L 238.324218 111.795068 
L 238.366014 111.783716 
L 238.257477 111.627106 
L 237.526006 111.311606 
L 237.265125 111.448012 
L 236.974784 111.540273 
L 236.6713 111.61407 
L 236.621988 111.630835 
L 236.117643 111.609838 
L 235.822255 111.770957 
L 235.814555 111.660423 
L 235.564191 111.659058 
L 235.367589 111.911439 
L 235.214389 111.563513 
L 235.277642 111.556719 
L 235.34628 111.550279 
L 234.887842 111.653665 
L 234.657604 111.810255 
L 234.415752 111.906351 
L 234.464434 111.978952 
L 234.422475 112.004571 
L 233.394089 112.164706 
L 233.252014 112.203274 
L 233.046318 112.226274 
L 232.949804 112.150913 
L 232.732581 112.126646 
L 232.156893 112.157643 
L 231.777843 111.950596 
L 231.24836 111.613992 
L 230.328646 111.413604 
L 230.163125 111.360068 
L 230.236088 111.318138 
L 231.025942 110.720646 
L 231.384887 110.080616 
L 231.440136 109.619467 
L 230.714044 109.554926 
L 230.470756 109.686485 
L 229.528757 109.765604 
L 229.105278 109.785589 
L 228.867758 109.715302 
L 228.223623 109.576589 
L 226.724845 109.483054 
L 225.547604 109.274535 
L 224.892784 109.050673 
L 225.019863 108.788582 
L 225.237447 108.687418 
L 225.177245 108.67439 
L 224.939434 108.425221 
L 224.970537 108.391698 
L 225.603915 107.959168 
L 225.499376 107.920111 
L 225.310544 107.867452 
L 225.107439 107.933578 
L 224.982971 107.717055 
L 224.915677 107.558901 
L 223.894573 107.458714 
L 222.972742 107.525944 
L 222.248859 107.470901 
L 222.247401 107.558491 
L 221.83044 107.723799 
L 221.439862 107.802911 
L 221.198506 107.957597 
L 221.050486 107.980809 
L 220.91994 108.099332 
L 220.417207 108.160122 
L 220.084079 107.920104 
L 218.316827 107.517558 
L 215.839569 106.84266 
L 214.924759 106.796526 
L 213.31065 106.974162 
L 213.233392 107.347211 
L 212.970105 107.431207 
L 211.89218 107.40878 
L 210.570359 107.416366 
L 209.792387 107.70196 
L 209.528605 107.797469 
L 209.394852 107.819315 
L 209.389085 107.71467 
L 209.236168 107.635855 
L 209.045971 107.57653 
L 208.939613 107.384464 
L 208.587837 107.16891 
L 208.52808 106.996327 
L 208.452648 106.818946 
L 208.37471 106.257532 
L 208.092563 106.029106 
L 205.956225 105.593052 
L 205.584238 105.206691 
L 206.047262 104.61467 
L 205.773622 104.143019 
L 205.285949 104.11457 
L 204.703991 104.038869 
L 203.937823 103.813995 
L 203.432734 103.757869 
L 202.620588 103.314221 
L 201.12411 102.885251 
L 200.84001 102.756007 
L 199.829118 102.583777 
L 199.739454 102.336512 
L 197.600618 102.340758 
L 197.110476 102.553064 
L 196.703132 102.525959 
L 196.033733 102.473237 
L 196.092542 102.368004 
L 196.187301 102.282233 
L 196.114628 102.240642 
L 195.499714 101.998663 
L 195.186563 101.854013 
L 194.878579 101.501869 
L 194.524595 101.22389 
L 194.43111 100.987806 
L 194.334511 100.721292 
L 194.153768 100.447772 
L 193.956678 100.164556 
L 193.381613 100.303617 
L 192.794659 100.512667 
L 191.202793 100.536303 
L 191.027075 100.719594 
L 190.914553 100.94209 
L 191.123107 100.984692 
L 191.098692 101.051993 
L 191.06529 101.190912 
L 189.703916 101.420909 
L 188.930912 100.637785 
L 188.741323 100.121812 
L 188.591011 99.917433 
L 187.802579 99.989617 
L 187.731103 99.921821 
L 187.723602 100.028681 
L 187.676894 100.460439 
L 187.39014 100.725821 
L 187.383417 100.826879 
L 187.292621 100.820722 
L 185.521498 100.749175 
L 185.528009 100.809753 
L 185.561836 101.157863 
L 185.462548 101.151281 
L 183.646841 100.997572 
L 183.460012 99.717583 
L 183.383936 99.474564 
L 183.26622 99.372063 
L 182.258505 99.247609 
L 182.117385 99.263058 
L 181.75314 99.297642 
L 181.035866 99.259321 
L 181.231406 99.387165 
L 181.460725 99.545849 
L 181.357969 99.609187 
L 181.213799 99.803326 
L 181.170786 99.962463 
L 181.276231 99.97789 
L 181.510263 100.088643 
L 181.724684 100.425112 
L 181.579134 100.485612 
L 181.823618 100.781424 
L 180.198972 101.320439 
L 180.208151 101.327835 
L 178.841795 101.844275 
L 178.994521 101.948701 
L 179.368886 102.839818 
L 179.195715 103.227487 
L 179.437461 103.767026 
L 179.449562 104.033399 
L 179.123956 104.304655 
L 177.979842 104.334731 
L 177.660747 104.710795 
L 176.732689 104.41937 
L 176.520313 104.419158 
L 176.348345 104.439681 
L 175.964497 104.491271 
L 175.988417 104.515403 
L 175.997758 104.523046 
L 175.934491 104.551495 
L 175.93626 104.604571 
L 174.77318 105.756046 
L 174.68019 105.874795 
L 174.690098 105.899918 
L 174.760937 105.971111 
L 174.695052 106.011732 
L 174.501571 106.136851 
L 174.499731 106.134232 
L 174.333496 106.188795 
L 174.006191 106.135152 
L 174.004705 106.122131 
L 173.899472 106.081793 
L 171.046865 105.960991 
L 170.246261 105.755975 
L 170.123903 106.344769 
L 168.985096 107.035964 
L 168.717733 107.152449 
L 168.279817 107.545427 
L 168.290857 107.553211 
L 168.246839 107.687955 
L 168.069776 107.902171 
L 167.972187 107.899835 
L 167.960015 107.879525 
L 164.652154 107.540898 
L 164.578533 107.575348 
L 163.408808 107.570727 
L 163.62543 107.786047 
L 163.776068 107.82112 
L 163.98061 108.036412 
L 165.023129 108.238491 
L 166.075053 109.07087 
L 166.059866 109.092001 
L 165.731791 109.151857 
L 165.723964 109.329295 
L 164.954604 109.313655 
L 164.858861 109.448972 
L 163.811254 109.428966 
L 163.21498 109.46367 
L 162.481387 109.412944 
L 161.419527 109.427529 
L 158.913424 110.09305 
L 158.635374 110.143996 
L 158.649195 110.086822 
L 158.572971 109.975673 
L 158.467802 109.103041 
L 157.666865 109.175565 
L 157.663525 109.056539 
L 157.13211 108.9267 
L 157.217039 108.680617 
L 156.772033 108.490087 
L 156.577582 108.235363 
L 156.106767 108.299975 
L 155.973651 108.405498 
L 153.899356 108.266218 
L 153.675735 108.475919 
L 153.146259 108.584471 
L 152.34431 108.615135 
L 151.838259 108.434513 
L 151.495074 108.402752 
L 151.027075 108.627937 
L 150.835533 108.876306 
L 150.764425 109.148878 
L 150.554752 109.226773 
L 149.853656 109.383752 
L 148.891707 110.113212 
L 148.599836 110.310281 
L 147.936771 110.466028 
L 147.714169 110.481739 
L 146.940152 110.427757 
L 146.059792 110.786518 
L 146.128714 110.850202 
L 146.420308 110.970919 
L 146.644043 111.221128 
L 146.584541 111.244333 
L 146.584265 111.936513 
L 146.658282 112.180848 
L 146.608836 112.183155 
L 146.460802 112.396055 
L 147.207509 112.587703 
L 146.975508 113.186213 
L 147.324843 113.484255 
L 147.364756 113.742319 
L 147.288708 113.838663 
L 147.095985 113.841827 
L 146.833533 114.210467 
L 146.543615 114.525457 
L 146.397521 114.659861 
L 146.475579 114.851254 
L 146.18685 114.885393 
L 146.118424 114.734317 
L 146.015753 114.792842 
L 146.293682 115.766227 
L 145.77904 115.963261 
L 145.906756 116.247163 
L 145.042736 116.349126 
L 144.9164 116.635731 
L 144.21093 116.641768 
L 143.133586 116.619582 
L 142.646034 116.930921 
L 142.521064 116.838172 
L 142.420006 116.546039 
L 141.272729 116.376881 
L 140.678408 116.464733 
L 140.588213 116.525361 
L 140.556771 116.283955 
L 140.627978 116.020958 
L 140.599529 115.976006 
L 139.439089 115.578443 
L 138.583823 115.683796 
L 138.593717 115.713257 
L 138.513394 115.785434 
L 137.892359 115.751118 
L 137.505495 115.634513 
L 136.752356 115.559385 
L 136.814993 115.598902 
L 136.762129 115.656656 
L 136.707128 115.625412 
L 136.539711 115.726915 
L 136.545125 115.740064 
L 136.533356 115.799531 
L 136.44452 115.776956 
L 136.302353 115.816225 
L 135.331912 115.66023 
L 135.063784 115.576971 
L 134.789939 116.31014 
L 134.910358 116.619391 
L 135.486032 117.31823 
L 135.279282 117.371235 
L 134.715759 117.677217 
L 134.371966 117.602224 
L 134.190728 117.652745 
L 133.780348 117.667465 
L 133.38948 117.509092 
L 133.167238 117.52222 
L 133.169821 117.453079 
L 132.553605 117.266194 
L 130.787287 117.397597 
L 130.452481 117.338236 
L 130.536597 117.260461 
L 130.580374 117.22795 
L 130.447952 117.200669 
L 129.904415 117.067837 
L 129.628467 117.034837 
L 129.496654 117.01561 
L 129.487164 117.101183 
L 128.604221 117.235742 
L 128.385553 117.254085 
L 127.89667 117.235884 
L 127.140643 116.977572 
L 127.024668 116.909598 
L 125.921253 116.85999 
M 197.965175 179.547928 
L 197.986717 179.492304 
L 198.075361 179.522006 
L 198.148635 179.595761 
L 197.965175 179.547928 
M 254.869736 166.568931 
L 255.559254 166.254598 
L 255.692816 166.157398 
L 256.077364 166.169046 
L 256.262091 166.071527 
L 256.599204 165.89215 
L 256.548987 165.671749 
L 256.680383 165.625325 
L 256.913034 165.398986 
L 257.330788 165.154799 
L 257.048747 164.860424 
L 256.871175 164.761425 
L 256.564591 164.54871 
L 256.395893 164.310149 
L 256.56784 163.979865 
L 256.541485 163.766888 
L 256.437803 163.712396 
L 256.473526 163.382424 
L 256.44161 163.311811 
L 257.19482 162.451351 
L 257.786424 162.242619 
L 260.565021 160.228456 
L 260.371136 160.160723 
L 258.847229 159.53755 
L 258.714496 159.48274 
L 256.924492 159.674134 
L 257.432935 158.02769 
L 257.853073 156.917566 
L 257.907735 156.943645 
L 258.421153 157.16319 
L 258.968165 157.081721 
L 259.015601 156.844703 
L 259.137203 156.238415 
L 259.435478 155.81447 
L 259.369663 155.179719 
L 259.205332 154.982204 
L 257.964222 155.235746 
L 257.726362 154.890849 
L 257.915944 154.730848 
L 258.275335 154.664121 
L 258.672027 154.554974 
L 259.240688 154.335061 
L 259.916286 153.944023 
L 260.388744 153.952961 
L 260.907838 154.13507 
L 262.957583 154.664319 
L 263.268299 154.690029 
L 263.290691 154.627208 
L 264.057248 154.579467 
L 264.105774 154.344714 
L 263.770961 154.12236 
L 263.283762 153.813851 
L 262.909744 153.298211 
L 262.936735 153.280752 
L 263.423325 152.967807 
L 264.204729 151.956511 
L 264.314258 151.804776 
L 267.317149 151.903435 
L 267.314268 151.204377 
L 267.169674 150.925223 
L 267.206403 150.930403 
L 268.182435 150.959171 
L 268.715817 150.775633 
L 268.796019 150.080361 
L 268.56767 150.071352 
L 268.628744 149.506039 
L 268.738406 149.525557 
L 270.248394 149.593282 
L 270.473607 149.684567 
L 270.563023 149.742816 
L 270.135164 149.914692 
L 269.878819 150.01812 
L 269.934245 150.085569 
L 270.457366 150.891721 
L 270.348404 151.131202 
L 270.441082 151.407595 
L 270.555862 151.704618 
L 270.534511 151.718842 
L 270.03296 151.880308 
L 270.582216 151.818782 
L 271.075628 151.879628 
L 272.635571 152.162908 
L 272.85496 152.152469 
L 273.48325 152.193699 
L 273.70104 152.147091 
L 273.70065 152.139986 
L 273.82245 152.160409 
L 274.19322 152.082479 
L 274.587542 152.002397 
L 274.636182 151.964211 
L 274.69804 151.994387 
L 275.298907 151.728545 
L 275.28498 151.714391 
L 275.242215 151.613638 
L 275.302884 151.463722 
L 275.550376 151.361822 
L 276.212613 151.035933 
L 276.193945 151.023323 
L 276.210957 150.935732 
L 276.260219 150.979899 
L 276.241452 150.920475 
L 276.195063 150.887157 
L 276.312171 150.73746 
L 276.373498 150.744799 
L 276.396229 150.613127 
L 276.509664 150.48452 
L 276.691468 150.434196 
L 276.805802 150.414947 
L 277.637424 150.755853 
L 277.967842 150.804959 
L 278.025575 150.956383 
L 278.460482 151.191709 
L 278.648394 151.294564 
L 278.650001 151.286808 
L 279.0659 151.154683 
L 279.349505 151.118591 
L 279.336526 151.066449 
L 279.33165 150.670825 
L 279.770344 150.487025 
L 279.865074 150.30958 
L 279.905986 150.33195 
L 280.679216 150.36335 
L 281.35778 150.30849 
L 281.543575 150.202903 
L 282.180336 149.859011 
L 282.127224 149.804059 
L 281.080183 149.599843 
L 280.518855 149.369668 
L 280.674715 149.265009 
L 281.139296 148.923133 
L 281.590587 149.054571 
L 282.336614 148.540983 
L 282.393647 148.574549 
L 282.592442 148.506972 
L 282.367703 148.724146 
L 282.203548 148.987724 
L 282.241954 148.992904 
L 282.443064 149.015061 
L 283.182807 148.794901 
L 283.14225 148.944909 
L 282.965866 149.59893 
L 283.586803 150.019089 
L 285.153158 150.524207 
L 285.406707 150.563165 
L 285.444908 150.628441 
L 285.631171 150.61743 
L 285.623259 150.702975 
L 285.427194 151.313855 
L 285.165358 151.741559 
L 284.410563 152.064964 
L 284.328443 152.41824 
L 284.161811 152.578191 
L 283.798875 153.329887 
L 283.765685 153.448828 
L 283.847621 153.443945 
L 283.929294 153.439175 
L 284.704931 154.355499 
L 286.129551 154.390523 
L 287.778343 154.859413 
L 288.568197 155.347433 
L 288.974812 155.694184 
L 289.49622 155.819898 
L 289.596471 155.848382 
L 289.834826 155.960635 
L 289.975648 156.585379 
L 290.092006 156.770594 
L 290.211909 157.018015 
L 290.189058 157.381999 
L 293.743263 157.985505 
L 293.6528 158.07444 
L 293.357349 158.199502 
L 292.835636 158.185186 
L 292.840682 158.207499 
L 292.98931 158.745233 
L 294.118542 158.754766 
L 294.687273 158.772033 
L 295.138273 158.870685 
L 295.106045 159.113774 
L 294.319567 159.459733 
L 293.541149 159.936387 
L 293.219909 160.33262 
L 293.036647 160.739787 
L 292.907749 161.33415 
L 292.979926 161.348063 
L 293.181659 161.374233 
L 293.128229 161.418669 
L 292.086849 162.418649 
L 292.037835 162.606865 
L 292.126373 162.621464 
L 292.245434 162.662715 
L 292.183299 162.713683 
L 291.883234 162.958358 
L 291.977165 162.97634 
L 292.270946 162.933086 
L 292.3295 162.927814 
L 292.568238 163.052076 
L 292.65541 163.250787 
L 292.732923 163.237143 
L 292.686357 163.144457 
L 292.678601 163.14174 
L 292.862748 163.093235 
L 292.853187 162.869692 
L 292.964258 162.748019 
L 293.162106 162.714185 
L 293.597523 162.5786 
L 294.665893 162.440077 
L 295.729275 162.724814 
L 295.994933 162.772088 
L 296.667771 163.08027 
L 297.079262 163.318902 
L 297.962332 163.626072 
L 298.214282 164.070569 
L 298.526477 164.022369 
L 298.527539 163.721539 
L 298.365727 163.629767 
L 298.206752 163.280828 
L 298.090232 163.126206 
L 298.20533 163.129122 
L 298.410375 163.245373 
L 299.132723 163.496955 
L 299.334583 163.581927 
L 299.738402 164.030479 
L 300.400335 164.387556 
L 302.014125 164.636951 
L 302.090909 164.772168 
L 302.004161 164.89539 
L 302.096677 164.906579 
L 302.194854 164.917994 
L 302.155896 165.013163 
L 302.070691 165.239417 
L 302.483901 165.289634 
L 302.422467 165.368237 
L 302.333277 165.392369 
L 302.00869 165.362469 
L 302.022908 165.323993 
L 302.140044 165.013651 
L 302.069842 165.015244 
L 301.516736 165.136272 
L 301.24139 165.399899 
L 301.128019 165.622933 
L 299.960749 165.416713 
L 299.769682 165.329654 
L 300.508979 165.607166 
L 300.993191 165.660277 
L 300.965704 165.773613 
L 300.911418 165.916176 
L 301.0236 165.943514 
L 301.108565 165.962862 
L 301.076747 166.06421 
L 300.950426 166.088384 
L 300.744001 166.142324 
L 300.301606 166.715244 
L 300.323671 166.899207 
L 300.918035 167.439185 
L 300.842978 167.482948 
L 300.602344 167.653054 
L 300.359282 167.957882 
L 299.388388 168.025452 
L 299.278661 167.979983 
L 298.388436 168.435138 
L 298.239851 168.506678 
L 298.04201 168.612944 
L 298.068669 168.531539 
L 297.967753 168.671569 
L 297.177517 169.100341 
L 297.240041 169.099024 
L 297.300491 169.164514 
L 297.545209 169.19442 
L 297.888662 169.292272 
L 298.073219 169.267368 
L 298.021573 169.380011 
L 297.958348 169.554731 
L 298.199619 169.572246 
L 298.177015 169.632074 
L 297.946692 169.901114 
L 297.251222 170.272373 
L 296.892341 170.10686 
L 296.298813 170.278947 
L 296.033219 170.451559 
L 295.745637 170.784702 
L 295.388171 171.22975 
L 295.111027 171.401725 
L 294.937744 171.743275 
L 294.6989 172.020256 
L 294.66629 172.285326 
L 294.280134 172.264895 
L 293.970176 172.071152 
L 293.684901 171.834227 
L 293.676401 171.627851 
L 293.753589 171.623209 
L 293.899577 170.669087 
L 294.418812 170.289478 
L 294.39277 170.070626 
L 294.05819 170.02423 
L 294.080865 169.976851 
L 294.108613 169.719452 
L 294.098988 169.550202 
L 294.008709 169.562721 
L 293.372529 169.576598 
L 293.024468 169.302866 
L 291.490568 169.825095 
L 291.557557 169.698568 
L 291.478877 169.36665 
L 291.035095 168.991216 
L 290.718151 168.839 
L 290.726077 168.740844 
L 290.676468 168.742507 
L 290.531903 168.40279 
L 288.355382 168.796454 
L 286.513484 168.737397 
L 286.489606 168.417106 
L 286.72167 167.913468 
L 286.621448 167.95917 
L 286.057275 168.126623 
L 285.320101 167.881063 
L 284.944865 167.880009 
L 282.986644 168.151583 
L 282.54587 168.138462 
L 282.302829 167.539188 
L 281.631335 166.515861 
L 281.13401 166.502429 
L 280.315417 166.743856 
L 279.789416 166.911592 
L 278.228319 167.337936 
L 278.290143 167.597168 
L 278.808593 169.050895 
L 278.304877 169.643779 
L 276.093772 169.464968 
L 276.074905 169.077702 
L 276.026195 168.767056 
L 274.826973 168.777268 
L 274.939906 168.397291 
L 273.326236 167.681907 
L 272.904611 167.299113 
L 272.915616 167.128858 
L 272.834833 167.156139 
L 270.62077 167.935697 
L 269.560128 166.931902 
L 269.632828 166.893079 
L 269.618363 166.808206 
L 269.533023 166.843201 
L 267.673213 167.658857 
L 267.115175 167.544099 
L 266.629781 167.518354 
L 266.264163 167.464258 
L 266.023281 166.459798 
L 263.621512 166.726815 
L 262.794511 166.860171 
L 262.033262 167.041558 
L 259.89122 167.860236 
L 259.795364 168.131301 
L 259.784643 168.216145 
L 260.756676 168.197689 
L 260.77308 168.266617 
L 260.246917 168.367929 
L 259.306849 168.311421 
L 258.747077 168.193711 
L 258.753185 168.161908 
L 258.653974 168.16355 
L 257.844036 168.640062 
L 257.888953 168.668568 
L 258.042697 168.856727 
L 257.958157 168.841689 
L 257.68337 168.748508 
L 257.586304 168.695446 
L 257.62597 168.552161 
L 258.092009 168.432314 
L 258.450989 168.241912 
L 258.219498 168.224644 
L 258.18042 168.14406 
L 258.294011 168.130812 
L 258.391006 168.110006 
L 258.161242 168.053887 
L 257.996153 168.052896 
L 257.448278 168.179841 
L 256.850708 167.793877 
L 256.480271 167.583376 
L 256.185194 167.287011 
L 256.296506 167.30418 
L 256.529434 167.216646 
L 256.51879 167.181878 
L 256.363163 167.039852 
L 256.197437 167.025486 
L 256.219475 167.102815 
L 256.113103 167.282546 
L 256.081582 167.268626 
L 255.747781 167.01388 
L 255.75534 166.984483 
L 255.64228 166.993803 
L 255.443335 167.032011 
L 255.490234 167.084592 
L 255.598205 167.232152 
L 255.551753 167.259079 
L 255.509964 167.291753 
L 255.000155 167.057368 
L 255.00162 166.999288 
L 254.869736 166.568931 
M 284.245255 152.460517 
L 284.387719 152.397038 
L 284.245255 152.460517 
" style="fill:none;stroke:#ffc0cb;"/>
    <path clip-path="url(#p0fc306c804)" d="M 193.284377 135.315046 
L 193.295778 135.318103 
L 193.319146 135.324366 
L 193.331353 135.325541 
L 193.345054 135.324423 
L 193.360567 135.319993 
L 193.40324 135.293462 
L 193.407394 135.295698 
L 193.488466 135.250279 
L 193.57227 135.205631 
L 193.509003 135.177515 
L 193.471114 135.205496 
L 193.457972 135.196063 
L 193.4114 135.232289 
L 193.361798 135.271092 
L 193.342209 135.261849 
L 193.336243 135.261404 
L 193.328162 135.267178 
L 193.331014 135.270158 
L 193.311552 135.288437 
L 193.284377 135.315046 
" style="fill:none;stroke:#ffc0cb;"/>
    <path clip-path="url(#p0fc306c804)" d="M 196.251856 179.996827 
L 196.276094 180.001951 
L 196.31881 180.01079 
L 196.372127 179.948683 
L 196.337698 179.940113 
L 196.306645 179.93281 
L 196.251856 179.996827 
" style="fill:none;stroke:#ffc0cb;"/>
    <path clip-path="url(#p0fc306c804)" d="M 196.432938 179.774508 
L 196.435677 179.785986 
L 196.448932 179.791669 
L 196.466256 179.790155 
L 196.473149 179.797026 
L 196.486099 179.814025 
L 196.494804 179.835107 
L 196.499751 179.842007 
L 196.508236 179.847229 
L 196.522113 179.847774 
L 196.556096 179.856323 
L 196.584531 179.85558 
L 196.595203 179.932888 
L 196.605373 179.967982 
L 196.625322 180.017435 
L 196.6913 180.01224 
L 196.804473 180.018581 
L 196.843848 180.017159 
L 196.883953 180.005496 
L 196.922338 179.999608 
L 196.960545 180.006919 
L 196.999199 180.008582 
L 197.003891 180.033407 
L 197.007599 180.053958 
L 196.722211 180.349778 
L 197.01181 180.054737 
L 197.008583 180.03437 
L 197.100738 180.053222 
L 197.15937 180.064354 
L 197.198066 180.025601 
L 197.247406 180.042048 
L 197.249309 180.037307 
L 197.270554 180.022197 
L 197.294516 179.994279 
L 197.293999 179.963601 
L 197.307743 179.949617 
L 197.280497 179.937091 
L 197.245304 179.925032 
L 197.204208 179.920093 
L 197.096428 179.899789 
L 197.046373 179.908112 
L 196.999864 179.917262 
L 196.990091 179.911678 
L 196.940214 179.905543 
L 196.891596 179.900164 
L 196.839411 179.907687 
L 196.779937 179.901261 
L 196.751318 179.895777 
L 196.718248 179.895989 
L 196.696176 179.892054 
L 196.682553 179.89158 
L 196.674124 179.887695 
L 196.659277 179.878813 
L 196.648513 179.871135 
L 196.634841 179.866287 
L 196.628075 179.863223 
L 196.616745 179.8626 
L 196.603023 179.855538 
L 196.594319 179.852247 
L 196.58439 179.853599 
L 196.570102 179.852672 
L 196.557328 179.85432 
L 196.523217 179.844929 
L 196.508278 179.843387 
L 196.504174 179.840195 
L 196.501428 179.837945 
L 196.489192 179.813077 
L 196.476461 179.794889 
L 196.46736 179.787692 
L 196.449024 179.788633 
L 196.438154 179.783736 
L 196.436384 179.774755 
L 196.443766 179.767551 
L 196.439788 179.765633 
L 196.432938 179.774508 
" style="fill:none;stroke:#ffc0cb;"/>
    <path clip-path="url(#p0fc306c804)" d="M 197.412367 180.125449 
L 197.414915 180.126581 
L 197.414787 180.143912 
L 197.478387 180.152518 
L 197.55229 180.135363 
L 197.62734 180.145151 
L 197.723062 180.158441 
L 197.797291 180.154159 
L 197.824551 180.127225 
L 197.770852 180.097714 
L 197.782847 180.059372 
L 197.730988 180.04432 
L 197.667735 180.048467 
L 197.590442 180.029642 
L 197.616959 180.025686 
L 197.632535 180.028609 
L 197.644948 180.027703 
L 197.662137 180.019544 
L 197.68508 180.002828 
L 197.692511 179.99849 
L 197.701421 179.991484 
L 197.705214 179.982546 
L 197.72689 179.971506 
L 197.751935 179.96888 
L 197.769896 179.960459 
L 197.779577 179.957798 
L 197.801601 179.95668 
L 197.801742 179.954875 
L 197.779294 179.955909 
L 197.766811 179.958916 
L 197.750251 179.966135 
L 197.726048 179.969008 
L 197.706757 179.977819 
L 197.701704 179.982291 
L 197.697918 179.990069 
L 197.69181 179.99711 
L 197.6822 180.001667 
L 197.659193 180.01851 
L 197.643971 180.025644 
L 197.634219 180.02633 
L 197.619761 180.022764 
L 197.59156 180.026373 
L 197.58369 180.028984 
L 197.552135 180.04047 
L 197.523049 180.051545 
L 197.45572 180.059224 
L 197.441092 180.071686 
L 197.433293 180.081976 
L 197.412367 180.125449 
" style="fill:none;stroke:#ffc0cb;"/>
    <path clip-path="url(#p0fc306c804)" d="M 197.854259 180.180591 
L 197.895001 180.190506 
L 197.908249 180.190612 
L 197.93352 180.198963 
L 197.971381 180.190358 
L 198.014133 180.198453 
L 198.063479 180.198829 
L 198.101284 180.176487 
L 198.105657 180.168858 
L 198.108913 180.155907 
L 198.11064 180.149333 
L 198.084894 180.135901 
L 198.034818 180.130615 
L 197.988472 180.128548 
L 197.957688 180.120714 
L 197.916387 180.120084 
L 197.89055 180.117636 
L 197.857855 180.144216 
L 197.854259 180.180591 
" style="fill:none;stroke:#ffc0cb;"/>
    <path clip-path="url(#p0fc306c804)" d="M 198.10512 180.257184 
L 198.105353 180.258784 
L 198.118311 180.260673 
L 198.127992 180.264806 
L 198.118927 180.265238 
L 198.10749 180.264976 
L 198.107873 180.266603 
L 198.119542 180.266837 
L 198.129981 180.266313 
L 198.125947 180.269455 
L 198.116556 180.272449 
L 198.118509 180.273553 
L 198.129365 180.270991 
L 198.133066 180.266342 
L 198.14659 180.267276 
L 198.161161 180.272392 
L 198.166193 180.297211 
L 198.16879 180.303007 
L 198.179101 180.309942 
L 198.192575 180.315002 
L 198.205675 180.317967 
L 198.222206 180.318236 
L 198.234053 180.322213 
L 198.24677 180.324075 
L 198.262424 180.321109 
L 198.279097 180.323629 
L 198.291941 180.328724 
L 198.303979 180.337457 
L 198.315479 180.343373 
L 198.327326 180.352715 
L 198.335506 180.362155 
L 198.338825 180.369126 
L 198.351543 180.374186 
L 198.352873 180.372558 
L 198.383197 180.371666 
L 198.401279 180.359247 
L 198.405872 180.336962 
L 198.390621 180.320288 
L 198.362837 180.309539 
L 198.317489 180.29213 
L 198.290137 180.293347 
L 198.261575 180.282038 
L 198.240443 180.27431 
L 198.216205 180.267679 
L 198.163482 180.26286 
L 198.16448 180.271345 
L 198.16235 180.269915 
L 198.147828 180.265556 
L 198.133646 180.264537 
L 198.118311 180.259251 
L 198.10512 180.257184 
" style="fill:none;stroke:#ffc0cb;"/>
   </g>
   <g id="matplotlib.axis_1">
    <g id="xtick_1">
     <g id="line2d_1">
      <defs>
       <path d="M 0 0 
L 0 3.5 
" id="m666ad6b52d" style="stroke:#000000;stroke-width:0.8;"/>
      </defs>
      <g>
       <use style="stroke:#000000;stroke-width:0.8;" x="107.080713" xlink:href="#m666ad6b52d" y="251.458138"/>
      </g>
     </g>
     <g id="text_1">
      <!-- 11 -->
      <defs>
       <path d="M 12.40625 8.296875 
L 28.515625 8.296875 
L 28.515625 63.921875 
L 10.984375 60.40625 
L 10.984375 69.390625 
L 28.421875 72.90625 
L 38.28125 72.90625 
L 38.28125 8.296875 
L 54.390625 8.296875 
L 54.390625 0 
L 12.40625 0 
z
" id="DejaVuSans-49"/>
      </defs>
      <g transform="translate(100.718213 266.056576)scale(0.1 -0.1)">
       <use xlink:href="#DejaVuSans-49"/>
       <use x="63.623047" xlink:href="#DejaVuSans-49"/>
      </g>
     </g>
    </g>
    <g id="xtick_2">
     <g id="line2d_2">
      <g>
       <use style="stroke:#000000;stroke-width:0.8;" x="177.849203" xlink:href="#m666ad6b52d" y="251.458138"/>
      </g>
     </g>
     <g id="text_2">
      <!-- 12 -->
      <defs>
       <path d="M 19.1875 8.296875 
L 53.609375 8.296875 
L 53.609375 0 
L 7.328125 0 
L 7.328125 8.296875 
Q 12.9375 14.109375 22.625 23.890625 
Q 32.328125 33.6875 34.8125 36.53125 
Q 39.546875 41.84375 41.421875 45.53125 
Q 43.3125 49.21875 43.3125 52.78125 
Q 43.3125 58.59375 39.234375 62.25 
Q 35.15625 65.921875 28.609375 65.921875 
Q 23.96875 65.921875 18.8125 64.3125 
Q 13.671875 62.703125 7.8125 59.421875 
L 7.8125 69.390625 
Q 13.765625 71.78125 18.9375 73 
Q 24.125 74.21875 28.421875 74.21875 
Q 39.75 74.21875 46.484375 68.546875 
Q 53.21875 62.890625 53.21875 53.421875 
Q 53.21875 48.921875 51.53125 44.890625 
Q 49.859375 40.875 45.40625 35.40625 
Q 44.1875 33.984375 37.640625 27.21875 
Q 31.109375 20.453125 19.1875 8.296875 
z
" id="DejaVuSans-50"/>
      </defs>
      <g transform="translate(171.486703 266.056576)scale(0.1 -0.1)">
       <use xlink:href="#DejaVuSans-49"/>
       <use x="63.623047" xlink:href="#DejaVuSans-50"/>
      </g>
     </g>
    </g>
    <g id="xtick_3">
     <g id="line2d_3">
      <g>
       <use style="stroke:#000000;stroke-width:0.8;" x="248.617693" xlink:href="#m666ad6b52d" y="251.458138"/>
      </g>
     </g>
     <g id="text_3">
      <!-- 13 -->
      <defs>
       <path d="M 40.578125 39.3125 
Q 47.65625 37.796875 51.625 33 
Q 55.609375 28.21875 55.609375 21.1875 
Q 55.609375 10.40625 48.1875 4.484375 
Q 40.765625 -1.421875 27.09375 -1.421875 
Q 22.515625 -1.421875 17.65625 -0.515625 
Q 12.796875 0.390625 7.625 2.203125 
L 7.625 11.71875 
Q 11.71875 9.328125 16.59375 8.109375 
Q 21.484375 6.890625 26.8125 6.890625 
Q 36.078125 6.890625 40.9375 10.546875 
Q 45.796875 14.203125 45.796875 21.1875 
Q 45.796875 27.640625 41.28125 31.265625 
Q 36.765625 34.90625 28.71875 34.90625 
L 20.21875 34.90625 
L 20.21875 43.015625 
L 29.109375 43.015625 
Q 36.375 43.015625 40.234375 45.921875 
Q 44.09375 48.828125 44.09375 54.296875 
Q 44.09375 59.90625 40.109375 62.90625 
Q 36.140625 65.921875 28.71875 65.921875 
Q 24.65625 65.921875 20.015625 65.03125 
Q 15.375 64.15625 9.8125 62.3125 
L 9.8125 71.09375 
Q 15.4375 72.65625 20.34375 73.4375 
Q 25.25 74.21875 29.59375 74.21875 
Q 40.828125 74.21875 47.359375 69.109375 
Q 53.90625 64.015625 53.90625 55.328125 
Q 53.90625 49.265625 50.4375 45.09375 
Q 46.96875 40.921875 40.578125 39.3125 
z
" id="DejaVuSans-51"/>
      </defs>
      <g transform="translate(242.255193 266.056576)scale(0.1 -0.1)">
       <use xlink:href="#DejaVuSans-49"/>
       <use x="63.623047" xlink:href="#DejaVuSans-51"/>
      </g>
     </g>
    </g>
    <g id="xtick_4">
     <g id="line2d_4">
      <g>
       <use style="stroke:#000000;stroke-width:0.8;" x="319.386183" xlink:href="#m666ad6b52d" y="251.458138"/>
      </g>
     </g>
     <g id="text_4">
      <!-- 14 -->
      <defs>
       <path d="M 37.796875 64.3125 
L 12.890625 25.390625 
L 37.796875 25.390625 
z
M 35.203125 72.90625 
L 47.609375 72.90625 
L 47.609375 25.390625 
L 58.015625 25.390625 
L 58.015625 17.1875 
L 47.609375 17.1875 
L 47.609375 0 
L 37.796875 0 
L 37.796875 17.1875 
L 4.890625 17.1875 
L 4.890625 26.703125 
z
" id="DejaVuSans-52"/>
      </defs>
      <g transform="translate(313.023683 266.056576)scale(0.1 -0.1)">
       <use xlink:href="#DejaVuSans-49"/>
       <use x="63.623047" xlink:href="#DejaVuSans-52"/>
      </g>
     </g>
    </g>
   </g>
   <g id="matplotlib.axis_2">
    <g id="ytick_1">
     <g id="line2d_5">
      <defs>
       <path d="M 0 0 
L -3.5 0 
" id="mf09c8e5d64" style="stroke:#000000;stroke-width:0.8;"/>
      </defs>
      <g>
       <use style="stroke:#000000;stroke-width:0.8;" x="54" xlink:href="#mf09c8e5d64" y="231.649934"/>
      </g>
     </g>
     <g id="text_5">
      <!-- 51.5 -->
      <defs>
       <path d="M 10.796875 72.90625 
L 49.515625 72.90625 
L 49.515625 64.59375 
L 19.828125 64.59375 
L 19.828125 46.734375 
Q 21.96875 47.46875 24.109375 47.828125 
Q 26.265625 48.1875 28.421875 48.1875 
Q 40.625 48.1875 47.75 41.5 
Q 54.890625 34.8125 54.890625 23.390625 
Q 54.890625 11.625 47.5625 5.09375 
Q 40.234375 -1.421875 26.90625 -1.421875 
Q 22.3125 -1.421875 17.546875 -0.640625 
Q 12.796875 0.140625 7.71875 1.703125 
L 7.71875 11.625 
Q 12.109375 9.234375 16.796875 8.0625 
Q 21.484375 6.890625 26.703125 6.890625 
Q 35.15625 6.890625 40.078125 11.328125 
Q 45.015625 15.765625 45.015625 23.390625 
Q 45.015625 31 40.078125 35.4375 
Q 35.15625 39.890625 26.703125 39.890625 
Q 22.75 39.890625 18.8125 39.015625 
Q 14.890625 38.140625 10.796875 36.28125 
z
" id="DejaVuSans-53"/>
       <path d="M 10.6875 12.40625 
L 21 12.40625 
L 21 0 
L 10.6875 0 
z
" id="DejaVuSans-46"/>
      </defs>
      <g transform="translate(24.734375 235.449153)scale(0.1 -0.1)">
       <use xlink:href="#DejaVuSans-53"/>
       <use x="63.623047" xlink:href="#DejaVuSans-49"/>
       <use x="127.246094" xlink:href="#DejaVuSans-46"/>
       <use x="159.033203" xlink:href="#DejaVuSans-53"/>
      </g>
     </g>
    </g>
    <g id="ytick_2">
     <g id="line2d_6">
      <g>
       <use style="stroke:#000000;stroke-width:0.8;" x="54" xlink:href="#mf09c8e5d64" y="196.265689"/>
      </g>
     </g>
     <g id="text_6">
      <!-- 52.0 -->
      <defs>
       <path d="M 31.78125 66.40625 
Q 24.171875 66.40625 20.328125 58.90625 
Q 16.5 51.421875 16.5 36.375 
Q 16.5 21.390625 20.328125 13.890625 
Q 24.171875 6.390625 31.78125 6.390625 
Q 39.453125 6.390625 43.28125 13.890625 
Q 47.125 21.390625 47.125 36.375 
Q 47.125 51.421875 43.28125 58.90625 
Q 39.453125 66.40625 31.78125 66.40625 
z
M 31.78125 74.21875 
Q 44.046875 74.21875 50.515625 64.515625 
Q 56.984375 54.828125 56.984375 36.375 
Q 56.984375 17.96875 50.515625 8.265625 
Q 44.046875 -1.421875 31.78125 -1.421875 
Q 19.53125 -1.421875 13.0625 8.265625 
Q 6.59375 17.96875 6.59375 36.375 
Q 6.59375 54.828125 13.0625 64.515625 
Q 19.53125 74.21875 31.78125 74.21875 
z
" id="DejaVuSans-48"/>
      </defs>
      <g transform="translate(24.734375 200.064908)scale(0.1 -0.1)">
       <use xlink:href="#DejaVuSans-53"/>
       <use x="63.623047" xlink:href="#DejaVuSans-50"/>
       <use x="127.246094" xlink:href="#DejaVuSans-46"/>
       <use x="159.033203" xlink:href="#DejaVuSans-48"/>
      </g>
     </g>
    </g>
    <g id="ytick_3">
     <g id="line2d_7">
      <g>
       <use style="stroke:#000000;stroke-width:0.8;" x="54" xlink:href="#mf09c8e5d64" y="160.881444"/>
      </g>
     </g>
     <g id="text_7">
      <!-- 52.5 -->
      <g transform="translate(24.734375 164.680663)scale(0.1 -0.1)">
       <use xlink:href="#DejaVuSans-53"/>
       <use x="63.623047" xlink:href="#DejaVuSans-50"/>
       <use x="127.246094" xlink:href="#DejaVuSans-46"/>
       <use x="159.033203" xlink:href="#DejaVuSans-53"/>
      </g>
     </g>
    </g>
    <g id="ytick_4">
     <g id="line2d_8">
      <g>
       <use style="stroke:#000000;stroke-width:0.8;" x="54" xlink:href="#mf09c8e5d64" y="125.497199"/>
      </g>
     </g>
     <g id="text_8">
      <!-- 53.0 -->
      <g transform="translate(24.734375 129.296418)scale(0.1 -0.1)">
       <use xlink:href="#DejaVuSans-53"/>
       <use x="63.623047" xlink:href="#DejaVuSans-51"/>
       <use x="127.246094" xlink:href="#DejaVuSans-46"/>
       <use x="159.033203" xlink:href="#DejaVuSans-48"/>
      </g>
     </g>
    </g>
    <g id="ytick_5">
     <g id="line2d_9">
      <g>
       <use style="stroke:#000000;stroke-width:0.8;" x="54" xlink:href="#mf09c8e5d64" y="90.112954"/>
      </g>
     </g>
     <g id="text_9">
      <!-- 53.5 -->
      <g transform="translate(24.734375 93.912173)scale(0.1 -0.1)">
       <use xlink:href="#DejaVuSans-53"/>
       <use x="63.623047" xlink:href="#DejaVuSans-51"/>
       <use x="127.246094" xlink:href="#DejaVuSans-46"/>
       <use x="159.033203" xlink:href="#DejaVuSans-53"/>
      </g>
     </g>
    </g>
    <g id="ytick_6">
     <g id="line2d_10">
      <g>
       <use style="stroke:#000000;stroke-width:0.8;" x="54" xlink:href="#mf09c8e5d64" y="54.728709"/>
      </g>
     </g>
     <g id="text_10">
      <!-- 54.0 -->
      <g transform="translate(24.734375 58.527928)scale(0.1 -0.1)">
       <use xlink:href="#DejaVuSans-53"/>
       <use x="63.623047" xlink:href="#DejaVuSans-52"/>
       <use x="127.246094" xlink:href="#DejaVuSans-46"/>
       <use x="159.033203" xlink:href="#DejaVuSans-48"/>
      </g>
     </g>
    </g>
   </g>
   <g id="patch_3">
    <path d="M 54 251.458138 
L 54 35.101862 
" style="fill:none;stroke:#000000;stroke-linecap:square;stroke-linejoin:miter;stroke-width:0.8;"/>
   </g>
   <g id="patch_4">
    <path d="M 388.8 251.458138 
L 388.8 35.101862 
" style="fill:none;stroke:#000000;stroke-linecap:square;stroke-linejoin:miter;stroke-width:0.8;"/>
   </g>
   <g id="patch_5">
    <path d="M 54 251.458138 
L 388.8 251.458138 
" style="fill:none;stroke:#000000;stroke-linecap:square;stroke-linejoin:miter;stroke-width:0.8;"/>
   </g>
   <g id="patch_6">
    <path d="M 54 35.101862 
L 388.8 35.101862 
" style="fill:none;stroke:#000000;stroke-linecap:square;stroke-linejoin:miter;stroke-width:0.8;"/>
   </g>
  </g>
 </g>
 <defs>
  <clipPath id="p0fc306c804">
   <rect height="216.356276" width="334.8" x="54" y="35.101862"/>
  </clipPath>
 </defs>
</svg>
