<?xml version="1.0" encoding="utf-8" standalone="no"?>
<!DOCTYPE svg PUBLIC "-//W3C//DTD SVG 1.1//EN"
  "http://www.w3.org/Graphics/SVG/1.1/DTD/svg11.dtd">
<!-- Created with matplotlib (https://matplotlib.org/) -->
<svg height="288pt" version="1.1" viewBox="0 0 432 288" width="432pt" xmlns="http://www.w3.org/2000/svg" xmlns:xlink="http://www.w3.org/1999/xlink">
 <defs>
  <style type="text/css">
*{stroke-linecap:butt;stroke-linejoin:round;}
  </style>
 </defs>
 <g id="figure_1">
  <g id="patch_1">
   <path d="M 0 288 
L 432 288 
L 432 0 
L 0 0 
z
" style="fill:#ffffff;"/>
  </g>
  <g id="axes_1">
   <g id="patch_2">
    <path d="M 99.81825 252 
L 342.98175 252 
L 342.98175 34.56 
L 99.81825 34.56 
z
" style="fill:#ffffff;"/>
   </g>
   <g id="PatchCollection_1">
    <path clip-path="url(#p291a94cf5a)" d="M 168.839269 242.116364 
L 247.612067 240.732531 
L 251.332447 233.107729 
L 255.898096 223.996372 
L 260.533321 214.889935 
L 265.214741 205.787064 
L 265.486824 205.256254 
L 264.736853 178.047247 
L 165.035418 179.823138 
L 168.839269 242.116364 
" style="fill:none;stroke:#0000ff;stroke-opacity:0.2;"/>
    <path clip-path="url(#p291a94cf5a)" d="M 165.383001 185.371098 
L 264.893907 183.600748 
L 263.083932 121.25674 
L 161.377429 123.090544 
L 165.383001 185.371098 
" style="fill:none;stroke:#0000ff;stroke-opacity:0.2;"/>
    <path clip-path="url(#p291a94cf5a)" d="M 255.970124 183.704815 
L 276.630991 183.590491 
L 279.277292 178.473266 
L 283.991277 169.379753 
L 288.725367 160.293931 
L 293.482363 151.214827 
L 298.268594 142.137584 
L 303.085367 133.060344 
L 307.92675 123.983323 
L 309.501377 121.053089 
L 253.962923 121.36454 
L 255.970124 183.704815 
" style="fill:none;stroke:#0000ff;stroke-opacity:0.2;"/>
    <path clip-path="url(#p291a94cf5a)" d="M 257.123761 221.58841 
L 260.533321 214.889935 
L 265.214741 205.787064 
L 269.885586 196.674652 
L 274.572111 187.571806 
L 279.277292 178.473266 
L 279.51213 178.02025 
L 255.795956 178.15164 
L 257.123761 221.58841 
" style="fill:none;stroke:#0000ff;stroke-opacity:0.2;"/>
   </g>
   <g id="PatchCollection_2">
    <path clip-path="url(#p291a94cf5a)" d="M 110.871136 72.050168 
L 111.068413 72.397231 
L 110.99392 72.933069 
L 111.031201 73.330874 
L 111.334629 73.652753 
L 112.490632 74.403143 
L 113.963454 75.087366 
L 114.911379 75.993544 
L 115.565029 76.302752 
L 116.378149 76.312795 
L 118.081581 75.76759 
L 120.210731 75.095375 
L 121.197598 74.997795 
L 122.005375 74.813538 
L 122.860533 74.876174 
L 123.505207 75.149389 
L 125.190168 76.268048 
L 125.701699 76.574735 
L 126.564457 76.79724 
L 127.397942 76.778423 
L 128.812834 76.474641 
L 128.987718 76.571034 
L 129.852098 77.204394 
L 131.129634 77.529735 
L 131.8144 77.497633 
L 133.405533 77.126067 
L 134.224118 77.236628 
L 134.563993 77.450322 
L 134.58461 77.670433 
L 134.258474 77.954854 
L 133.632207 78.459316 
L 133.537634 78.677141 
L 133.604957 78.935328 
L 133.944333 79.21462 
L 134.48993 79.397204 
L 135.167122 79.416489 
L 136.773851 79.24031 
L 137.136713 79.544692 
L 137.285262 79.800189 
L 137.484932 80.916637 
L 137.899673 81.108367 
L 138.602688 81.136906 
L 140.60961 80.487564 
L 141.671235 80.65469 
L 142.156988 80.868775 
L 142.746435 81.344541 
L 143.172634 81.851815 
L 143.77527 82.25065 
L 144.181092 82.327549 
L 145.305675 82.425293 
L 146.617226 82.473117 
L 147.267275 82.69571 
L 147.638772 82.964896 
L 147.664253 83.349575 
L 147.444212 83.630503 
L 146.087092 84.649244 
L 146.107817 84.912119 
L 146.305378 85.197153 
L 146.766426 85.435456 
L 147.410955 85.505451 
L 149.204297 85.531305 
L 149.61689 85.795747 
L 150.173724 86.275271 
L 150.968944 86.532019 
L 152.27968 86.601982 
L 153.513965 86.739338 
L 154.084178 86.950581 
L 154.790427 87.355278 
L 154.751017 87.264659 
L 154.752413 87.24286 
L 154.790901 87.261361 
L 155.29518 87.394776 
L 156.436326 87.538809 
L 156.406265 87.487271 
L 156.957117 87.211478 
L 157.595765 87.171664 
L 157.777154 86.877629 
L 157.989736 86.858174 
L 158.827896 86.738757 
L 159.036144 86.829894 
L 160.281755 86.904103 
L 160.307111 86.943677 
L 160.372513 86.910975 
L 160.825072 86.808266 
L 161.496257 86.95305 
L 161.418101 87.098833 
L 161.515516 87.100179 
L 161.991541 86.943058 
L 162.111084 86.964458 
L 162.378886 87.212312 
L 162.478557 87.542896 
L 164.346348 87.603586 
L 164.703986 86.850057 
L 165.145212 86.434363 
L 165.144183 86.43761 
L 165.352507 86.4823 
L 165.113187 86.664214 
L 164.954405 86.852337 
L 164.825184 87.613971 
L 165.640244 88.239493 
L 165.050658 88.992959 
L 165.30126 88.974072 
L 166.113262 88.755338 
L 168.127051 88.304554 
L 168.124152 88.299829 
L 169.220689 87.651555 
L 169.52003 87.490379 
L 169.69842 87.558517 
L 169.901406 87.966296 
L 170.292105 88.165069 
L 170.392401 88.2284 
L 170.374645 88.263426 
L 170.632107 88.504124 
L 170.886081 88.348076 
L 170.977016 88.22691 
L 171.603726 88.417396 
L 172.014562 88.725081 
L 171.959462 88.833886 
L 171.836489 89.065727 
L 171.963903 89.328842 
L 172.261822 89.761774 
L 172.226512 89.958842 
L 173.035199 91.649766 
L 173.511678 92.082522 
L 173.168765 92.161657 
L 173.381744 92.485444 
L 172.878665 92.664244 
L 172.86353 93.032045 
L 172.533162 93.2569 
L 172.059777 93.165453 
L 171.579722 93.044691 
L 171.120468 93.039543 
L 171.298883 93.164379 
L 171.339808 93.21737 
L 171.26776 93.988674 
L 171.120418 94.048676 
L 170.691452 94.052536 
L 170.646427 94.157822 
L 170.812669 94.685593 
L 170.626068 94.668229 
L 170.296356 94.746726 
L 170.223917 94.888649 
L 170.509209 95.388425 
L 171.09234 95.532553 
L 171.101625 95.687482 
L 171.138629 95.82528 
L 171.175903 95.893766 
L 171.135609 95.928185 
L 170.977402 95.958063 
L 171.067844 96.028166 
L 171.240839 96.213983 
L 171.203893 96.23419 
L 171.048401 96.374471 
L 171.086611 96.408196 
L 170.993389 96.417608 
L 170.478978 96.504329 
L 170.273736 96.777084 
L 169.924045 96.879376 
L 170.03429 96.925803 
L 170.242425 97.03512 
L 170.033677 97.091016 
L 170.244989 97.134949 
L 169.947088 97.31733 
L 169.718406 97.424587 
L 169.746439 97.608687 
L 169.860878 97.592674 
L 170.2342 97.482423 
L 170.518981 97.658323 
L 170.441931 97.755398 
L 170.149828 97.863849 
L 170.165298 97.895445 
L 170.337592 98.062837 
L 170.593386 98.13877 
L 170.944037 98.209896 
L 171.002586 98.311329 
L 171.357849 98.50093 
L 171.359428 98.565986 
L 171.313076 98.577798 
L 170.947587 98.731527 
L 171.070307 99.109347 
L 171.329954 99.452999 
L 171.913906 99.447687 
L 171.837424 99.567438 
L 171.563141 99.816353 
L 171.596487 99.844336 
L 171.877914 99.886968 
L 172.085739 100.009404 
L 172.082865 100.239268 
L 172.320915 100.610834 
L 172.263572 100.836377 
L 172.3201 100.883809 
L 172.185005 100.887915 
L 172.051995 100.977289 
L 172.246144 101.087048 
L 171.982436 101.257971 
L 172.027297 101.323513 
L 172.074141 101.583469 
L 171.940701 101.72116 
L 172.110026 101.995538 
L 172.226373 102.219218 
L 172.16922 102.416993 
L 171.823142 102.503999 
L 171.817589 103.144997 
L 172.183546 103.144908 
L 171.886732 103.238812 
L 170.528128 103.475643 
L 170.251881 103.608849 
L 169.898968 103.844758 
L 169.323095 103.759938 
L 167.766179 103.291506 
L 167.816315 104.011784 
L 168.295612 103.917217 
L 168.178387 103.991362 
L 167.970473 104.454135 
L 168.06823 104.594617 
L 168.316754 104.598818 
L 168.175866 105.310802 
L 168.380325 106.508142 
L 168.687189 106.591711 
L 168.612879 106.647374 
L 167.114045 107.808044 
L 167.057524 107.972783 
L 166.661405 108.790983 
L 166.272999 109.106166 
L 166.359291 109.154103 
L 166.334447 109.295995 
L 166.201696 109.556324 
L 166.260871 109.570303 
L 166.496262 109.475003 
L 167.068357 109.417503 
L 167.233866 109.164122 
L 168.201083 108.900299 
L 168.644444 109.205066 
L 169.143272 109.307378 
L 168.999795 109.540305 
L 168.824608 109.683523 
L 168.435198 109.870427 
L 168.195682 110.161809 
L 167.777758 110.414672 
L 167.825158 110.483177 
L 168.037386 110.959372 
L 168.987844 111.565792 
L 169.019465 111.502303 
L 169.204967 111.410566 
L 170.393816 111.328108 
L 170.589659 111.141823 
L 170.692197 111.183248 
L 170.916477 111.282691 
L 171.229538 111.328411 
L 171.343516 111.130718 
L 171.613485 110.946884 
L 171.599929 110.931313 
L 171.426953 110.539787 
L 171.921259 110.1734 
L 171.84393 110.029766 
L 171.840873 109.925818 
L 171.883093 109.902396 
L 172.132962 109.835016 
L 172.82889 110.160893 
L 173.51555 110.193525 
L 173.545706 110.459161 
L 173.508918 110.653039 
L 173.618291 110.952222 
L 173.628594 111.080476 
L 174.090311 111.281586 
L 174.280412 111.285338 
L 174.186161 111.343294 
L 173.775734 111.641656 
L 173.912889 111.664212 
L 174.328197 111.850813 
L 174.392735 112.132499 
L 175.115344 111.98328 
L 175.3338 111.812926 
L 175.855223 111.76159 
L 175.901455 111.638933 
L 176.171133 111.627626 
L 176.861514 111.919413 
L 177.879725 111.571711 
L 178.079805 111.577522 
L 178.073621 111.65439 
L 178.044697 111.768078 
L 177.892807 111.900842 
L 177.007278 111.962808 
L 176.706534 112.583542 
L 176.795846 112.724006 
L 177.121736 112.849758 
L 177.331923 112.874829 
L 177.85821 112.665197 
L 178.006943 112.665703 
L 178.115893 112.715346 
L 178.048569 112.77579 
L 177.769296 113.112178 
L 177.661054 113.667856 
L 177.093715 113.891877 
L 177.209715 114.344101 
L 176.872069 114.366835 
L 176.433066 114.47154 
L 176.464239 114.789692 
L 176.656822 114.838988 
L 176.644505 114.89069 
L 176.318337 115.205753 
L 176.115129 115.579397 
L 175.487876 115.722085 
L 175.551037 115.778979 
L 175.999521 116.149926 
L 175.911707 116.163437 
L 175.35311 116.342648 
L 174.573967 116.717688 
L 174.677352 116.911433 
L 175.664668 117.175186 
L 176.295818 117.297129 
L 176.296178 117.375254 
L 176.3178 117.686666 
L 176.348934 117.877468 
L 176.177247 117.991073 
L 175.888228 118.160013 
L 175.736558 118.637977 
L 175.82376 118.848531 
L 176.585286 119.06741 
L 176.447967 119.172949 
L 176.190102 119.484153 
L 175.409423 119.569352 
L 175.175112 119.689458 
L 175.230687 119.956502 
L 175.989787 120.566263 
L 176.070167 120.619197 
L 176.037289 120.760204 
L 176.549584 121.015208 
L 176.682215 121.157075 
L 176.008788 121.869855 
L 175.476544 122.553939 
L 175.091612 122.73289 
L 174.792884 123.12496 
L 174.30571 123.844499 
L 173.831037 124.310405 
L 173.836324 124.408048 
L 173.058634 125.737721 
L 173.072075 125.868609 
L 173.136076 126.273812 
L 173.302318 126.402729 
L 173.235962 126.471107 
L 172.722927 127.143328 
L 173.782954 127.338235 
L 173.787736 127.347281 
L 173.515595 127.561315 
L 173.64695 127.596189 
L 174.510352 127.896472 
L 174.635156 127.96869 
L 174.469944 127.987053 
L 173.913924 128.01448 
L 173.935376 127.956682 
L 173.806876 128.015434 
L 173.759109 128.047946 
L 173.86979 128.116437 
L 174.125059 128.077533 
L 174.725984 128.09412 
L 175.27923 128.193791 
L 175.274032 128.224402 
L 175.282237 128.329246 
L 175.335367 128.318552 
L 175.990577 128.467057 
L 175.822111 128.539276 
L 175.046 129.134458 
L 175.106147 129.140402 
L 174.981683 129.231388 
L 174.578111 129.26673 
L 173.908214 129.284284 
L 173.45306 129.336403 
L 172.753127 129.786637 
L 172.711121 129.82261 
L 172.838125 129.859575 
L 173.210581 129.997557 
L 173.19719 130.024308 
L 172.868243 130.4238 
L 172.86041 130.422107 
L 172.510011 130.671824 
L 172.669627 131.169111 
L 172.85914 131.322366 
L 172.809497 131.337609 
L 172.371808 131.401363 
L 171.639371 131.162352 
L 170.867934 132.15102 
L 171.203204 132.452218 
L 171.981949 132.642937 
L 171.856765 133.142928 
L 171.878583 133.143863 
L 172.544121 133.963174 
L 172.730684 134.142068 
L 173.135015 134.336906 
L 173.962399 134.677836 
L 174.003849 134.905237 
L 174.181227 135.098616 
L 174.259535 135.594203 
L 174.45299 136.043629 
L 174.650658 136.323041 
L 174.725043 136.376189 
L 175.333851 136.413698 
L 177.410876 137.356493 
L 177.625977 137.849573 
L 178.236775 138.721307 
L 178.661963 138.932858 
L 179.26508 139.238567 
L 179.945563 139.984213 
L 181.737819 140.175703 
L 181.825589 140.172576 
L 182.497046 140.7284 
L 183.514834 141.185733 
L 183.870917 141.353921 
L 184.045106 141.589281 
L 184.415529 141.784807 
L 184.700436 141.857297 
L 185.620069 141.875357 
L 185.73255 141.673432 
L 185.805678 141.284305 
L 186.480944 140.730339 
L 187.587196 140.830831 
L 187.662826 141.292991 
L 187.87427 141.847153 
L 188.139931 141.972109 
L 188.736516 142.350687 
L 189.438419 142.507378 
L 191.067098 142.741411 
L 191.027379 142.877422 
L 191.294909 143.32211 
L 191.336726 143.63128 
L 191.241477 143.719915 
L 191.336164 143.878041 
L 194.419189 144.06017 
L 195.899629 144.055002 
L 196.082257 144.042603 
L 196.045633 143.939957 
L 196.014631 143.851675 
L 196.119904 143.843103 
L 196.003899 143.450597 
L 196.12883 143.431818 
L 197.379671 143.318781 
L 197.951305 143.19757 
L 198.080519 142.791673 
L 198.14848 142.737046 
L 198.392563 142.283585 
L 198.633949 142.115132 
L 199.578343 142.137549 
L 199.830397 142.313482 
L 200.078365 142.608913 
L 201.594917 142.823332 
L 202.174883 142.942623 
L 202.0984 143.033956 
L 202.153343 143.107059 
L 203.18636 143.572762 
L 203.664772 143.669439 
L 203.857659 143.595868 
L 204.428977 143.689343 
L 204.935442 143.77511 
L 205.062009 143.877997 
L 205.290616 144.09392 
L 205.662409 144.225989 
L 206.083536 144.28126 
L 206.28519 144.454381 
L 206.24602 145.14132 
L 207.677019 145.317599 
L 209.207039 145.229671 
L 209.84748 145.044074 
L 210.556547 144.979202 
L 210.822801 145.504333 
L 210.932976 145.576122 
L 211.195548 147.034618 
L 213.241716 147.056789 
L 213.364784 147.043082 
L 213.367557 147.073983 
L 213.551833 147.451765 
L 214.075644 147.473267 
L 215.014865 147.26927 
L 215.142885 146.758831 
L 215.752305 146.836457 
L 216.900254 146.98344 
L 217.898182 147.076409 
L 217.849626 147.200563 
L 217.626546 147.807703 
L 217.75389 147.819048 
L 218.905465 147.986737 
L 218.89966 148.01537 
L 218.686604 149.179964 
L 218.756524 149.157337 
L 219.545344 148.989345 
L 220.700153 149.046423 
L 221.390269 149.17733 
L 221.772403 149.455523 
L 221.773584 149.239088 
L 221.820277 149.036493 
L 223.276095 149.311047 
L 223.434132 149.765375 
L 222.752341 149.822035 
L 222.793778 150.437709 
L 222.756264 150.491256 
L 222.087694 150.440103 
L 222.200768 150.619528 
L 222.516748 150.806919 
L 223.033439 151.113126 
L 224.600014 151.207984 
L 225.321448 151.271934 
L 225.466415 151.304547 
L 225.47493 151.262383 
L 225.641823 150.997714 
L 226.593241 150.940182 
L 227.902474 150.637259 
L 227.964295 150.309537 
L 228.748505 150.350109 
L 228.735562 150.531663 
L 229.15336 150.532573 
L 229.232312 150.745919 
L 229.433984 150.841819 
L 229.529758 150.970534 
L 229.870505 151.09899 
L 229.933564 151.688828 
L 229.867144 151.801 
L 228.18169 152.029537 
L 228.189826 152.07474 
L 228.427434 152.651225 
L 228.839869 153.214628 
L 228.986467 153.513786 
L 229.197633 153.716318 
L 229.190489 153.751357 
L 229.392446 153.793192 
L 229.391056 153.844862 
L 229.332772 153.944344 
L 229.235514 154.007656 
L 229.554052 154.316074 
L 229.843236 154.344985 
L 229.698906 154.435232 
L 229.751555 154.482683 
L 230.160933 154.728142 
L 230.634292 155.464945 
L 230.490733 155.596092 
L 230.511458 155.616286 
L 230.554001 155.733233 
L 230.538026 155.746764 
L 230.386521 155.71513 
L 230.407523 155.729241 
L 230.716384 156.03922 
L 230.504813 156.235195 
L 230.494403 156.318669 
L 231.159695 156.373909 
L 231.089428 156.646372 
L 230.457166 156.665695 
L 230.454917 156.748273 
L 230.568908 156.819184 
L 230.457034 157.179519 
L 230.160617 157.359488 
L 229.784124 157.600418 
L 229.693448 157.673471 
L 229.817325 157.697746 
L 230.149493 157.79019 
L 230.216513 157.814288 
L 230.091355 157.837193 
L 229.829794 158.128638 
L 229.922611 158.159015 
L 230.728746 158.510645 
L 230.67036 158.675669 
L 230.234345 158.888661 
L 230.372441 159.025227 
L 230.194108 158.98703 
L 230.110494 159.08142 
L 230.033879 159.087156 
L 230.297234 159.150676 
L 230.271746 159.17533 
L 230.262511 159.193011 
L 230.368088 159.223072 
L 230.735574 159.254561 
L 230.857524 159.249722 
L 230.997798 159.553662 
L 230.99385 159.651292 
L 231.097823 159.659232 
L 231.346125 159.747344 
L 231.570178 159.827363 
L 231.835004 160.154087 
L 232.079807 160.421062 
L 232.132551 160.511441 
L 232.018043 160.503987 
L 232.037182 160.650458 
L 232.19268 160.885154 
L 232.078367 160.880802 
L 230.967402 160.735992 
L 231.007084 160.860551 
L 231.177482 161.214582 
L 231.063555 161.362796 
L 231.04456 161.35449 
L 230.298725 161.125182 
L 230.153467 161.325142 
L 230.52826 161.938865 
L 230.560791 162.188026 
L 230.269131 162.207797 
L 230.440351 162.282012 
L 230.644033 162.399616 
L 230.450205 162.483678 
L 229.689677 162.873316 
L 223.602231 165.186901 
L 223.672074 165.254957 
L 225.7296 167.548776 
L 225.88434 167.689626 
L 226.485921 167.74453 
L 226.609216 167.70332 
L 226.531237 167.643912 
L 226.496697 167.603081 
L 226.826813 167.520263 
L 227.02872 167.585754 
L 226.913705 167.441601 
L 226.671568 167.494099 
L 226.658568 167.304845 
L 226.527876 167.169921 
L 226.962672 167.155399 
L 227.137436 167.459503 
L 227.446959 167.388528 
L 227.406659 167.301567 
L 227.380072 167.258917 
L 227.643162 167.201599 
L 227.691914 167.070086 
L 228.056784 167.08522 
L 228.494069 167.44848 
L 229.209414 168.030183 
L 229.494069 168.233302 
L 229.46824 168.281751 
L 229.470703 168.358107 
L 230.190129 168.24056 
L 230.598199 168.695247 
L 230.135256 168.896225 
L 230.14379 169.165094 
L 229.794578 169.53834 
L 229.350301 170.090646 
L 229.394511 170.215192 
L 229.670266 170.487977 
L 230.360887 170.452604 
L 230.719788 170.811259 
L 232.143896 171.001511 
L 232.436213 172.058101 
L 233.336896 172.955581 
L 233.52927 172.97661 
L 233.490821 173.577111 
L 233.506511 173.981404 
L 233.466874 174.203321 
L 233.150541 174.252737 
L 233.273325 174.592372 
L 233.11969 174.635129 
L 233.176553 174.723575 
L 233.186944 174.738401 
L 233.091297 174.783615 
L 232.807539 174.891637 
L 232.90306 174.968789 
L 233.119356 175.025456 
L 232.634879 175.252976 
L 232.493228 175.22951 
L 232.282996 175.035202 
L 231.901146 175.020049 
L 232.166352 175.246533 
L 232.179238 175.538585 
L 231.893598 176.206245 
L 231.990925 176.429388 
L 232.525184 176.82022 
L 233.259712 177.228663 
L 233.22852 177.566757 
L 233.021182 177.834243 
L 232.503555 178.295436 
L 232.508609 178.47999 
L 232.391011 178.424789 
L 232.094929 178.414183 
L 231.42888 178.809885 
L 231.456357 179.132503 
L 232.075746 179.312503 
L 232.328053 179.077359 
L 232.214997 178.789602 
L 232.578907 178.547004 
L 233.207391 178.9084 
L 233.265189 179.17708 
L 233.150509 179.782148 
L 234.153225 181.145509 
L 236.67701 181.379346 
L 237.023284 181.667146 
L 237.042683 181.788641 
L 237.359995 181.800188 
L 237.462337 181.400551 
L 237.057097 181.400286 
L 237.043415 181.168369 
L 236.76099 181.060979 
L 236.766694 181.040639 
L 236.768608 180.851095 
L 236.873711 180.865604 
L 236.855734 180.809935 
L 236.824669 180.735859 
L 236.918452 180.777966 
L 237.738124 180.841607 
L 238.482197 180.870878 
L 238.479645 180.836213 
L 238.429831 180.145654 
L 239.818218 179.747501 
L 240.048815 179.577084 
L 240.05553 179.415301 
L 241.148126 179.122971 
L 241.069622 179.0221 
L 240.839347 178.617454 
L 240.654446 178.465033 
L 240.779232 178.4738 
L 241.44079 178.47188 
L 241.439249 178.552247 
L 241.621365 178.881011 
L 241.73948 178.988609 
L 243.205771 178.754943 
L 244.113414 179.207533 
L 244.157865 179.254857 
L 244.563099 179.104621 
L 244.546852 179.088451 
L 244.083423 178.540517 
L 243.988369 178.457636 
L 244.008096 178.424877 
L 244.081686 178.372967 
L 244.109953 178.398019 
L 244.252047 178.507714 
L 244.590494 178.458539 
L 244.81533 178.236672 
L 244.965452 177.957361 
L 244.902115 177.80506 
L 245.952623 177.507557 
L 246.248212 177.688296 
L 246.013174 177.923339 
L 246.046015 177.945442 
L 246.411308 178.199764 
L 246.377956 178.248067 
L 246.417202 178.329091 
L 246.424738 178.333924 
L 246.917413 178.382309 
L 246.978161 178.485296 
L 247.014665 178.604871 
L 247.165324 178.696678 
L 247.373345 178.733952 
L 247.481025 178.819411 
L 247.425495 178.875509 
L 247.373648 178.910365 
L 247.483602 178.959799 
L 247.559693 179.037437 
L 247.437131 179.011236 
L 247.519355 179.084667 
L 247.395586 179.136925 
L 247.114986 179.250246 
L 247.123912 179.289189 
L 247.037588 179.464059 
L 247.529525 179.37814 
L 247.682439 179.177472 
L 247.850608 179.080656 
L 247.809928 179.140235 
L 248.042054 179.118847 
L 248.195903 179.084225 
L 248.536991 179.182601 
L 248.448829 179.048005 
L 248.460009 178.909101 
L 248.604604 178.948833 
L 248.744462 179.034866 
L 248.996081 179.422091 
L 249.636794 179.345319 
L 249.727419 179.109163 
L 250.44555 179.656642 
L 250.243833 179.591132 
L 249.794566 179.441951 
L 249.795513 179.586016 
L 249.664783 179.847438 
L 249.619246 179.842637 
L 249.705715 180.059526 
L 250.512424 180.176366 
L 251.443054 180.328446 
L 251.589961 180.479017 
L 251.727905 180.62984 
L 252.601938 180.580949 
L 253.305331 180.665567 
L 253.459452 182.000686 
L 253.444014 182.030955 
L 253.561321 182.024304 
L 254.377701 182.045465 
L 254.43872 182.388922 
L 254.658313 182.759016 
L 254.923456 182.668713 
L 255.008712 182.462163 
L 255.239454 182.13789 
L 255.614747 182.10781 
L 256.414034 181.732347 
L 257.56854 181.813213 
L 257.657971 181.822366 
L 257.508923 181.964795 
L 257.782656 182.253246 
L 257.72916 182.412533 
L 258.00573 182.445753 
L 257.925716 182.755169 
L 257.998345 182.766223 
L 259.353576 182.72838 
L 259.376 182.660482 
L 260.741148 182.810345 
L 262.132131 182.787915 
L 262.43945 182.557817 
L 262.683609 182.37301 
L 263.518687 182.864826 
L 264.043331 182.469636 
L 264.8918 182.958547 
L 265.553693 183.12724 
L 266.249999 183.077338 
L 266.42343 183.080238 
L 267.361438 183.228452 
L 267.866797 182.933021 
L 267.960632 182.741613 
L 268.191904 182.614541 
L 268.976707 182.741841 
L 268.975065 182.745953 
L 268.864839 182.869387 
L 268.687877 182.93419 
L 268.687688 182.972532 
L 268.510536 183.165993 
L 268.57407 183.157339 
L 268.632808 183.216836 
L 268.632619 183.25972 
L 268.604895 183.412249 
L 268.73222 183.248413 
L 268.931733 183.240201 
L 269.452783 183.238805 
L 269.453282 183.10263 
L 269.939521 182.709146 
L 271.56292 182.589122 
L 272.272062 182.679912 
L 272.912301 182.331427 
L 273.235191 182.190129 
L 273.238602 182.096845 
L 273.085498 181.852794 
L 273.253124 181.89833 
L 273.838149 181.950809 
L 275.021472 182.157333 
L 275.043833 182.21683 
L 275.080337 182.165987 
L 275.107303 182.231289 
L 275.238797 182.245501 
L 275.238614 182.28529 
L 275.508229 182.334933 
L 275.813848 182.357351 
L 275.938211 182.442613 
L 276.418645 182.353744 
L 277.048955 182.227486 
L 277.393163 182.265058 
L 277.842336 182.144106 
L 277.83962 182.137095 
L 277.766479 181.911299 
L 277.857048 181.894433 
L 278.378913 181.793499 
L 278.718889 181.743098 
L 280.122107 181.328692 
L 280.659196 181.012069 
L 281.103757 181.015663 
L 281.814731 181.329621 
L 281.68901 182.361463 
L 282.930559 182.49472 
L 283.592389 182.561222 
L 283.546916 182.504567 
L 283.414139 181.74987 
L 283.988925 181.460976 
L 284.07084 181.332508 
L 284.011785 181.335413 
L 283.793765 181.108417 
L 283.857235 181.091299 
L 284.514574 180.946281 
L 285.331137 181.062425 
L 285.285727 180.977093 
L 285.181135 180.721679 
L 284.600272 180.673495 
L 284.577343 180.517359 
L 285.01723 180.312781 
L 285.289371 180.29541 
L 286.072021 179.731451 
L 286.388492 179.621648 
L 286.303211 179.27334 
L 286.117317 179.179101 
L 285.978698 179.03155 
L 286.491284 179.049894 
L 286.43811 178.951549 
L 286.297646 178.723865 
L 285.88415 178.644856 
L 285.934045 178.605061 
L 286.761587 178.21378 
L 287.508162 177.957342 
L 286.871213 177.575234 
L 287.020002 177.175685 
L 287.06029 177.005343 
L 286.805633 176.84675 
L 285.623063 176.088755 
L 285.718299 176.028968 
L 285.994351 175.770647 
L 288.283881 176.242174 
L 289.030607 175.92809 
L 289.173257 175.841729 
L 288.731462 175.453998 
L 288.626618 175.368925 
L 288.216842 175.001465 
L 289.686948 174.551376 
L 289.764429 174.179552 
L 289.916439 173.690887 
L 289.95439 173.562924 
L 290.463685 173.11859 
L 290.819004 173.092565 
L 291.110538 173.069951 
L 292.087021 173.172319 
L 292.324547 173.01979 
L 292.543268 173.059074 
L 292.301434 172.902944 
L 291.807533 172.548749 
L 291.773732 172.205855 
L 291.971476 171.982206 
L 292.469211 171.734991 
L 292.64719 171.749961 
L 293.052601 171.892825 
L 297.602719 172.193544 
L 298.302512 172.437652 
L 298.498614 172.446805 
L 298.764129 172.491899 
L 298.85754 172.419832 
L 299.039309 172.55379 
L 299.017522 172.588026 
L 298.870363 172.686301 
L 299.002299 172.687502 
L 299.168283 172.750915 
L 299.544649 172.583144 
L 299.660636 172.481995 
L 300.369866 172.481091 
L 301.236812 172.609769 
L 304.112833 173.513774 
L 304.222402 174.044488 
L 304.451041 174.136055 
L 304.591359 174.184207 
L 305.165969 173.838855 
L 305.169645 173.64077 
L 305.226104 173.387756 
L 305.005557 173.386303 
L 305.027532 173.299588 
L 305.158648 173.177183 
L 306.175734 173.040301 
L 306.381809 172.967286 
L 306.852579 172.683446 
L 307.577197 172.351385 
L 307.982083 172.228892 
L 307.965622 172.223295 
L 308.028428 172.079818 
L 308.008082 171.884146 
L 309.022333 171.970666 
L 309.420542 172.161278 
L 309.684794 172.03022 
L 311.496898 171.709339 
L 311.849248 171.83835 
L 311.816661 171.736001 
L 311.88574 171.078631 
L 312.069018 170.974039 
L 315.688885 170.827878 
L 316.183823 171.085605 
L 317.47799 170.742786 
L 318.003639 170.590983 
L 318.150748 170.487049 
L 317.946062 169.859809 
L 317.98815 169.878449 
L 318.579985 169.964331 
L 319.182047 169.668546 
L 319.695112 169.405854 
L 320.287882 169.471908 
L 320.357302 169.627507 
L 320.460214 169.816881 
L 321.394002 170.012641 
L 321.442779 170.238456 
L 321.80007 170.973521 
L 321.746422 170.996735 
L 321.685138 171.02895 
L 321.806462 171.067343 
L 322.075452 171.316959 
L 322.060165 171.342409 
L 322.576769 171.326182 
L 323.792451 171.159409 
L 324.005696 171.088902 
L 325.176398 171.115508 
L 325.516184 171.0579 
L 325.48726 171.163186 
L 326.52437 171.146125 
L 327.215529 170.571958 
L 327.497966 169.746418 
L 327.409552 169.720071 
L 327.31585 169.688696 
L 327.636605 169.672412 
L 327.724672 169.65422 
L 327.73728 169.700022 
L 328.198789 169.65933 
L 328.123703 169.635712 
L 328.031738 169.286065 
L 327.778667 169.056864 
L 327.558468 168.398755 
L 327.583267 168.401351 
L 328.350004 168.403385 
L 328.840122 168.736236 
L 328.969266 168.882612 
L 329.659843 169.34433 
L 329.692001 169.201819 
L 330.08951 168.923191 
L 330.310606 168.736217 
L 330.737728 168.535707 
L 331.107316 168.421457 
L 331.387777 168.151166 
L 331.710496 167.940884 
L 331.753765 167.826363 
L 331.900375 167.601173 
L 331.90246 167.408388 
L 331.82546 167.109104 
L 331.577397 166.800837 
L 331.140795 166.432461 
L 331.251463 166.267849 
L 331.299533 166.02952 
L 331.233208 165.795235 
L 331.278941 165.265329 
L 330.992549 164.869791 
L 331.150617 164.739446 
L 331.340282 164.50235 
L 331.401408 164.296634 
L 331.106034 163.966954 
L 331.058217 163.832554 
L 330.842888 163.676899 
L 330.710263 163.377103 
L 330.091361 163.150732 
L 330.205446 163.008379 
L 330.259637 162.893435 
L 330.061413 162.598149 
L 329.821841 162.604339 
L 329.562301 162.588421 
L 329.045224 162.299395 
L 328.371557 161.890991 
L 326.847115 161.019662 
L 326.464425 160.677108 
L 326.261742 160.38464 
L 325.726245 160.14772 
L 325.503785 159.803252 
L 325.15583 159.41026 
L 325.014653 159.21246 
L 325.200035 158.917553 
L 325.195758 158.721553 
L 325.077396 158.507904 
L 325.312693 158.414335 
L 325.50664 158.288102 
L 325.385423 158.176 
L 324.638223 157.894005 
L 324.837388 157.680312 
L 324.910156 157.55461 
L 324.834192 156.709293 
L 324.784264 156.499724 
L 324.447086 156.188881 
L 324.079172 155.753169 
L 323.691283 155.6738 
L 323.604296 155.50095 
L 323.23923 155.474496 
L 322.775769 155.479783 
L 322.206775 155.303421 
L 321.816038 155.275205 
L 321.512295 154.888125 
L 321.431012 154.659783 
L 321.008899 154.352117 
L 320.829891 154.210402 
L 320.825747 153.976521 
L 320.854267 153.79937 
L 321.009708 153.598436 
L 320.924149 153.367549 
L 320.922721 153.254758 
L 320.848563 153.130516 
L 320.891346 153.097037 
L 321.350531 152.926986 
L 321.652853 153.063552 
L 321.833959 152.930511 
L 321.781196 152.810689 
L 321.69136 152.549918 
L 321.982268 152.560486 
L 322.107761 152.733159 
L 322.253216 152.63273 
L 322.064979 152.381661 
L 321.90384 152.229271 
L 321.935209 152.194921 
L 322.344485 151.913949 
L 323.047683 151.864489 
L 323.927388 151.388186 
L 324.28675 151.246421 
L 324.477842 150.963781 
L 324.793 150.833474 
L 324.798704 150.557922 
L 324.870007 150.454922 
L 324.981237 150.203171 
L 325.391935 149.984885 
L 325.421883 149.859904 
L 325.72135 149.843183 
L 326.204778 149.845824 
L 326.241857 149.568604 
L 326.736693 149.418128 
L 326.963436 149.294049 
L 327.422621 149.079358 
L 327.280016 148.877875 
L 327.245792 148.6896 
L 327.801944 148.221616 
L 327.965944 147.871552 
L 328.119957 147.748428 
L 328.04295 147.219046 
L 328.378069 146.958786 
L 328.696076 146.817235 
L 329.006951 146.529763 
L 328.9713 146.36011 
L 329.055091 145.855016 
L 328.804451 145.684219 
L 328.623346 145.610396 
L 328.198385 144.795873 
L 328.15835 144.542682 
L 328.101481 144.327093 
L 328.333214 144.208953 
L 328.660488 144.137366 
L 328.838031 143.876954 
L 328.880814 143.634564 
L 329.047662 143.472106 
L 329.119369 143.171141 
L 328.818455 142.847759 
L 328.657639 142.693752 
L 328.798817 142.576116 
L 329.397752 142.368513 
L 329.493083 142.025858 
L 329.981128 141.674613 
L 330.402628 141.375531 
L 330.373388 141.060347 
L 330.826142 140.85004 
L 330.824121 140.486534 
L 330.920924 140.208044 
L 330.786815 140.07036 
L 330.669842 139.953147 
L 330.680821 139.620802 
L 330.678926 139.452146 
L 331.022237 139.274521 
L 331.439643 138.996335 
L 331.476848 138.69465 
L 331.254028 138.483793 
L 330.99987 138.323432 
L 330.431242 137.587059 
L 329.722164 137.196675 
L 328.901614 136.910637 
L 327.590777 136.609944 
L 326.817837 135.963451 
L 326.599242 135.520513 
L 326.733503 135.208507 
L 326.760715 134.948222 
L 326.473325 134.067273 
L 326.574152 133.736778 
L 328.123147 132.256616 
L 328.032427 131.791677 
L 327.72459 131.4191 
L 326.875407 130.677964 
L 327.031094 130.423655 
L 328.301581 129.555775 
L 328.563925 128.888354 
L 328.644083 128.373633 
L 328.79641 128.089692 
L 328.69389 127.96274 
L 328.049911 127.474688 
L 327.696045 126.986365 
L 327.106654 126.707793 
L 324.030779 126.259214 
L 322.333406 125.767107 
L 321.079646 125.62915 
L 320.832658 125.352271 
L 320.712976 125.056613 
L 320.289828 124.856052 
L 319.998938 124.760152 
L 319.819955 124.484309 
L 319.873053 124.23235 
L 319.912191 124.17068 
L 320.509377 123.687877 
L 320.459576 123.5059 
L 320.063122 122.911778 
L 320.021306 122.696456 
L 319.631238 122.429115 
L 319.019089 122.219938 
L 319.016922 121.949913 
L 319.124697 121.63531 
L 318.967545 121.283863 
L 318.444998 120.493476 
L 318.493548 120.092708 
L 318.483315 119.724149 
L 318.389537 119.196706 
L 318.011547 118.741571 
L 317.326636 118.034848 
L 317.342541 117.692901 
L 317.625282 117.333646 
L 318.077285 116.857988 
L 318.069256 116.564988 
L 317.90952 116.138032 
L 318.027869 115.808591 
L 318.401747 115.431966 
L 318.893987 115.190561 
L 320.303333 114.870078 
L 320.724902 114.495095 
L 321.239117 114.180676 
L 321.517758 113.880918 
L 322.116731 113.483574 
L 322.357971 112.735635 
L 323.490167 112.022614 
L 323.687714 111.597294 
L 323.562587 111.343079 
L 323.270037 111.096128 
L 322.667451 110.916381 
L 322.311746 110.743076 
L 322.154663 110.478313 
L 322.117458 110.153225 
L 321.718717 109.249605 
L 321.927761 108.908416 
L 322.272463 108.586487 
L 322.375589 108.300941 
L 322.522477 107.816881 
L 323.003725 107.538025 
L 323.932505 107.018276 
L 323.952901 106.799745 
L 323.763003 106.561802 
L 322.179405 105.68703 
L 321.926321 105.026495 
L 321.215486 104.354034 
L 320.172628 103.972999 
L 319.690684 103.647552 
L 318.493674 103.313481 
L 316.935533 102.746086 
L 315.942683 102.458765 
L 312.786195 100.990978 
L 312.289571 100.275892 
L 311.667707 100.046116 
L 310.853373 99.805514 
L 310.233682 98.934659 
L 309.583626 98.49901 
L 309.249651 98.131746 
L 306.462928 96.168813 
L 306.010761 95.757224 
L 305.587329 95.434303 
L 301.921211 94.282722 
L 301.259766 94.01835 
L 299.199544 92.817196 
L 298.673642 92.387428 
L 298.01979 91.971494 
L 297.30034 91.36393 
L 296.819438 91.240723 
L 292.251703 90.801702 
L 291.589109 90.456249 
L 291.332715 89.92302 
L 291.485363 89.415045 
L 292.067104 88.883996 
L 293.553981 87.467752 
L 293.595728 86.524262 
L 293.338254 86.291991 
L 293.176357 86.035471 
L 292.663266 84.112927 
L 292.567815 83.878894 
L 292.550627 83.063347 
L 292.343377 82.763242 
L 292.595608 82.427567 
L 292.697427 82.147107 
L 292.995328 82.055515 
L 293.918952 81.87916 
L 294.14478 81.523208 
L 294.213246 81.424795 
L 294.728814 81.238326 
L 295.119109 81.170927 
L 296.040781 80.765087 
L 296.620968 80.54646 
L 299.274479 79.800088 
L 299.507697 79.675081 
L 300.456645 79.186416 
L 300.837863 78.989589 
L 301.016107 78.917768 
L 301.68234 78.59575 
L 302.152048 78.389252 
L 302.241176 78.30234 
L 302.444952 78.138164 
L 304.330102 77.056818 
L 305.245073 76.574603 
L 305.706815 76.10521 
L 305.928727 75.905344 
L 306.202056 75.268876 
L 306.326747 75.075901 
L 306.759433 74.572468 
L 307.003825 73.786477 
L 307.026445 73.068972 
L 307.591535 72.341923 
L 307.893845 70.929134 
L 308.017659 70.765153 
L 307.074446 69.912598 
L 306.900794 69.614754 
L 306.890245 69.320333 
L 306.699368 68.851888 
L 306.94021 68.343269 
L 306.965161 68.214036 
L 307.215876 67.895796 
L 307.599242 66.905909 
L 308.327927 66.760815 
L 308.778679 66.696511 
L 309.191361 66.448518 
L 309.30177 66.134207 
L 309.479711 65.529385 
L 310.417554 64.839471 
L 310.952823 64.46565 
L 311.093742 63.993857 
L 311.82642 63.450181 
L 311.996465 63.300981 
L 311.987685 63.072639 
L 311.66585 62.627692 
L 311.666248 62.446461 
L 311.679557 62.424415 
L 311.599209 62.416286 
L 310.112073 62.179271 
L 309.567885 60.542557 
L 309.251154 60.258205 
L 309.797591 59.269746 
L 309.516044 58.934912 
L 308.653186 58.957292 
L 307.62502 59.314898 
L 307.474209 59.675959 
L 307.227246 59.836504 
L 306.853419 59.7959 
L 306.489206 59.702919 
L 306.405371 59.700101 
L 306.414789 59.788061 
L 306.442544 59.856281 
L 306.346884 59.865125 
L 305.66318 59.951973 
L 305.675636 59.996789 
L 305.52516 60.182234 
L 304.147253 60.072874 
L 303.818602 60.045036 
L 303.523563 60.043741 
L 303.521055 60.109618 
L 303.411827 60.460503 
L 302.556246 61.540238 
L 302.634933 61.680778 
L 302.570414 61.696418 
L 300.10322 62.293837 
L 300.320697 63.018455 
L 300.270347 63.392901 
L 299.136952 63.535115 
L 298.706293 63.538475 
L 297.399448 63.606594 
L 296.855822 63.636617 
L 296.191308 63.222578 
L 295.993476 63.265607 
L 295.859088 63.259 
L 295.218318 63.239658 
L 293.30559 62.904028 
L 292.264431 63.098898 
L 290.966726 63.325199 
L 290.937246 63.231352 
L 289.810022 63.243392 
L 290.399204 61.998981 
L 291.232431 61.423986 
L 293.30228 60.173467 
L 295.561889 58.801308 
L 297.447266 57.345383 
L 298.193013 56.425314 
L 298.906639 55.078662 
L 298.908263 54.506863 
L 298.689497 53.855462 
L 298.611429 53.451163 
L 298.847269 53.071796 
L 298.76459 53.033795 
L 298.435226 52.666764 
L 298.279355 52.720349 
L 297.755621 52.326756 
L 296.960534 52.803817 
L 296.982762 52.81633 
L 296.934244 52.858532 
L 296.440937 53.008673 
L 294.885335 53.069983 
L 294.182484 52.850377 
L 292.179522 51.908674 
L 292.030019 52.02974 
L 291.121081 51.998049 
L 289.966878 53.072642 
L 289.172208 53.268737 
L 288.739295 53.596706 
L 288.837424 53.716192 
L 288.815872 53.73631 
L 288.651057 53.747946 
L 288.022958 53.543791 
L 287.82344 53.564554 
L 286.956381 53.693168 
L 286.700208 53.521979 
L 286.336152 52.64326 
L 283.945088 52.540866 
L 283.542734 52.29619 
L 281.217843 52.587983 
L 279.953642 52.608196 
L 278.265358 53.066743 
L 277.589189 52.699977 
L 277.582897 52.378679 
L 277.984436 52.143712 
L 277.933561 52.03713 
L 277.575665 51.660303 
L 277.615447 51.661515 
L 278.408279 51.377176 
L 278.40248 51.355529 
L 278.277296 51.041274 
L 278.383764 50.992806 
L 278.286038 50.935628 
L 275.692524 49.863296 
L 276.041628 49.469628 
L 276.275825 49.104587 
L 275.900172 49.02031 
L 275.70716 49.016356 
L 275.69994 48.988922 
L 275.588425 48.834783 
L 275.578603 48.64177 
L 275.668192 48.5007 
L 275.782935 48.403044 
L 275.820544 48.12494 
L 275.958317 47.922787 
L 273.680959 47.190539 
L 272.301554 47.034637 
L 272.428102 46.866638 
L 272.257331 46.666393 
L 270.816831 45.087836 
L 270.93652 44.728013 
L 270.909813 44.707402 
L 271.034555 44.687429 
L 271.018997 44.610018 
L 270.997078 44.653009 
L 270.982196 44.588964 
L 270.919913 44.443636 
L 270.510353 44.506348 
L 270.362271 44.489685 
L 269.881868 45.015561 
L 269.422046 46.417674 
L 269.676519 46.744613 
L 269.654771 46.766974 
L 269.57009 47.309059 
L 270.503398 47.71241 
L 270.72548 47.918997 
L 270.831568 48.070673 
L 270.9151 48.186452 
L 271.018359 48.301895 
L 271.148097 48.251438 
L 271.226304 48.192181 
L 271.680208 48.06284 
L 271.87365 48.168796 
L 272.201271 48.192263 
L 272.362681 48.264336 
L 272.638839 48.283754 
L 270.921177 49.566734 
L 269.807433 49.803578 
L 269.460855 49.711696 
L 268.826655 49.638852 
L 267.774858 49.482767 
L 267.586861 49.35992 
L 267.497272 49.10779 
L 267.216293 49.053112 
L 267.030602 49.357823 
L 266.022087 49.328438 
L 265.824691 49.296886 
L 265.613108 49.289584 
L 265.254826 49.465585 
L 265.022827 49.7121 
L 264.525868 49.924182 
L 264.244075 50.071544 
L 263.758367 50.29758 
L 263.061542 50.610824 
L 262.873684 50.722307 
L 261.716026 51.261392 
L 261.793494 51.403094 
L 261.895022 51.458662 
L 261.740156 51.485349 
L 261.558324 51.596106 
L 261.520727 51.762311 
L 261.432275 51.719578 
L 261.347373 51.613205 
L 260.851936 51.516952 
L 260.430027 51.978455 
L 260.755519 52.090961 
L 260.70225 52.132986 
L 260.645728 52.390523 
L 260.671968 52.437027 
L 260.114881 52.471073 
L 260.217218 52.582026 
L 260.515466 53.093683 
L 260.310793 53.360405 
L 259.634921 53.928622 
L 259.633013 53.925463 
L 259.344455 53.654093 
L 258.925836 53.63062 
L 258.302683 53.833771 
L 258.038924 53.873319 
L 257.927289 53.933814 
L 257.664439 53.937914 
L 257.523255 53.919791 
L 256.71179 53.997 
L 256.484566 54.037907 
L 256.495071 54.053597 
L 256.406865 54.106278 
L 256.332795 54.234071 
L 256.400497 54.280315 
L 256.233579 54.302695 
L 255.784482 54.50836 
L 255.345258 54.499782 
L 255.062322 54.722635 
L 255.105502 54.77848 
L 254.95756 54.781399 
L 254.868981 54.847048 
L 254.897071 54.875397 
L 255.052809 54.97148 
L 255.273671 54.951008 
L 255.542756 55.058574 
L 255.517748 55.075509 
L 255.44997 55.252926 
L 255.506296 55.366348 
L 255.458352 55.372191 
L 255.152511 55.722786 
L 255.285332 55.759056 
L 255.563019 55.815388 
L 255.546552 55.866895 
L 255.473417 56.014263 
L 254.903887 56.339711 
L 254.927195 56.360941 
L 254.802087 56.600539 
L 254.57655 56.764267 
L 253.955096 56.669713 
L 253.62234 56.561464 
L 253.25867 57.20411 
L 253.004455 57.516388 
L 253.140946 57.520108 
L 253.573038 57.664956 
L 253.531784 58.065541 
L 253.428146 58.165079 
L 253.248589 58.236388 
L 253.281896 58.500223 
L 253.428361 58.641995 
L 253.317541 58.692932 
L 253.357798 58.974296 
L 253.40216 59.58925 
L 253.014379 59.668221 
L 252.625158 59.68647 
L 252.632554 59.582504 
L 252.156618 59.076411 
L 252.084677 59.159754 
L 252.1863 59.376681 
L 252.367355 59.540599 
L 252.329297 59.569921 
L 252.326328 59.629809 
L 252.436131 59.780178 
L 252.419903 59.794289 
L 252.245696 59.920711 
L 251.831347 60.30829 
L 251.78804 60.576774 
L 251.796991 60.690658 
L 251.204631 61.175381 
L 250.907729 61.368601 
L 250.088348 61.444844 
L 249.451159 61.479952 
L 249.466098 61.439487 
L 249.226823 61.099978 
L 249.074679 60.915481 
L 248.664082 60.926832 
L 248.001823 60.869161 
L 248.055237 60.964088 
L 247.960385 61.282821 
L 247.97768 61.290047 
L 248.032383 61.306578 
L 248.088867 61.28958 
L 248.03863 61.379611 
L 248.020602 61.369953 
L 247.813958 61.420714 
L 247.847835 61.462979 
L 247.950759 61.512022 
L 247.972577 61.497342 
L 248.093983 61.60458 
L 248.223721 61.607081 
L 248.343523 61.654911 
L 248.250479 61.717705 
L 247.703233 61.840836 
L 247.559687 61.866987 
L 247.360522 62.157207 
L 247.218915 62.445412 
L 246.688099 62.881522 
L 246.129654 63.369056 
L 246.124007 63.585711 
L 246.028739 63.681801 
L 246.014021 64.12057 
L 245.96501 64.192612 
L 245.594259 64.228673 
L 245.410576 64.198 
L 245.398037 64.236121 
L 245.333658 64.326367 
L 244.8699 64.364311 
L 244.721534 64.19613 
L 244.554205 63.954675 
L 244.44425 63.852837 
L 243.754179 62.893422 
L 243.659511 62.635424 
L 243.092475 62.200445 
L 242.134639 62.252501 
L 241.891668 62.311012 
L 241.933586 62.498782 
L 241.832778 62.49333 
L 241.287257 62.420587 
L 239.34431 62.039774 
L 239.18403 62.072943 
L 239.016872 62.194223 
L 238.555628 62.349992 
L 238.398943 62.352708 
L 238.294206 62.491126 
L 238.322164 62.515912 
L 238.201332 62.586305 
L 237.967318 62.710081 
L 237.718466 63.037664 
L 237.263589 63.084161 
L 236.333976 63.203401 
L 236.40658 63.267831 
L 236.369729 63.389206 
L 235.971386 63.666982 
L 235.915004 64.166126 
L 236.231558 64.137922 
L 236.130352 64.25996 
L 235.583991 64.913225 
L 235.572014 65.182163 
L 235.381712 65.417258 
L 235.476797 65.519657 
L 235.00484 65.944321 
L 234.891298 66.074268 
L 233.065815 65.584062 
L 232.613851 65.075127 
L 232.422809 64.823622 
L 232.380247 64.498313 
L 231.825409 63.907609 
L 231.373072 64.170838 
L 231.081968 63.980883 
L 230.439435 64.065059 
L 230.283426 64.134852 
L 229.945863 64.152974 
L 229.997097 63.902651 
L 229.701685 64.02642 
L 229.18927 64.266157 
L 228.968597 64.427901 
L 228.729555 64.732277 
L 228.576527 64.783954 
L 228.573305 64.750974 
L 228.351571 64.640521 
L 227.327517 64.678453 
L 227.162557 64.788268 
L 226.961099 64.868641 
L 227.200419 65.55102 
L 227.023022 65.955116 
L 227.113837 66.17217 
L 226.401833 66.243637 
L 226.185443 66.079681 
L 225.8859 66.165677 
L 225.94563 66.273704 
L 225.854721 66.278575 
L 225.695913 66.320694 
L 225.744608 66.399709 
L 225.788035 66.487998 
L 225.694271 66.487878 
L 225.550838 66.556666 
L 225.522173 66.671207 
L 225.390836 66.935054 
L 225.454471 67.074577 
L 225.344883 67.151262 
L 225.328889 67.117038 
L 224.875831 66.995372 
L 224.722778 66.905827 
L 224.213212 67.092396 
L 223.870766 67.110462 
L 222.947937 67.416613 
L 222.736499 67.597661 
L 222.200958 67.839388 
L 222.182204 68.016735 
L 221.732639 68.073415 
L 221.524619 68.107645 
L 221.553738 68.144029 
L 221.707499 68.450539 
L 221.69594 68.454481 
L 221.64715 68.530369 
L 221.649285 68.562907 
L 221.573529 68.687718 
L 220.729185 69.032514 
L 220.766769 69.088846 
L 220.833839 69.160445 
L 220.75207 69.199419 
L 220.486883 69.214106 
L 220.526798 69.146321 
L 220.529641 69.087879 
L 219.510438 69.183103 
L 219.387029 69.244817 
L 219.479739 69.371783 
L 219.411633 69.392097 
L 218.869801 69.438297 
L 218.733853 69.283981 
L 218.329535 69.181139 
L 218.210409 68.744258 
L 218.071891 68.599935 
L 217.889452 68.53716 
L 216.839311 68.843184 
L 216.738876 68.720874 
L 216.815017 68.698027 
L 217.179015 68.478667 
L 217.831238 68.340534 
L 217.98582 68.314806 
L 217.890842 68.218938 
L 217.982503 68.089838 
L 219.01607 67.736849 
L 219.147255 67.626453 
L 219.111692 67.610092 
L 218.918749 67.494643 
L 218.764578 67.243327 
L 218.271314 67.135141 
L 217.945045 67.145248 
L 216.505765 67.450811 
L 216.385577 67.509847 
L 216.502367 67.551872 
L 216.844415 67.858376 
L 216.813343 68.000122 
L 216.518278 68.011941 
L 216.335657 67.888102 
L 216.100942 67.889347 
L 215.751812 67.938996 
L 215.511987 67.928017 
L 215.312304 67.954914 
L 215.304535 67.929843 
L 215.317775 67.86216 
L 215.357961 67.858951 
L 216.011188 67.544311 
L 215.998485 67.529586 
L 215.66439 67.391971 
L 215.451486 67.408395 
L 215.032823 67.447432 
L 214.781912 67.489697 
L 214.488123 67.541746 
L 214.195806 67.566684 
L 214.175024 67.781148 
L 213.338778 68.136581 
L 213.294252 68.314882 
L 213.100804 68.341153 
L 212.404687 68.251033 
L 211.886473 67.955387 
L 211.237971 67.677049 
L 210.927727 67.178518 
L 210.626725 67.050643 
L 210.16653 67.306709 
L 209.995682 67.301876 
L 209.724798 67.367747 
L 209.570248 67.354652 
L 209.146973 67.452813 
L 209.105283 67.527679 
L 209.075115 67.537583 
L 208.966954 67.507781 
L 209.000603 67.440142 
L 208.775502 67.393936 
L 208.729321 67.513239 
L 208.679293 67.641133 
L 208.674113 67.64069 
L 208.446113 67.520686 
L 208.387184 67.368157 
L 208.542107 67.310808 
L 208.357938 67.300196 
L 208.1098 67.437319 
L 208.064074 67.533699 
L 208.030981 67.536541 
L 207.711534 67.628632 
L 207.749743 67.659457 
L 207.717534 67.716301 
L 206.781175 67.887407 
L 206.232907 67.827917 
L 205.309042 67.625745 
L 205.021608 67.392502 
L 203.915709 67.141029 
L 203.980834 67.103602 
L 204.727339 66.516353 
L 205.055743 65.862583 
L 205.084219 65.604326 
L 205.012853 65.578996 
L 204.346525 65.607857 
L 203.657319 65.704761 
L 202.70741 65.65448 
L 202.184541 65.549125 
L 200.515371 65.426467 
L 200.264195 65.41089 
L 199.905111 65.321036 
L 199.156603 64.946438 
L 199.175174 64.932225 
L 199.51913 64.755465 
L 199.465394 64.743836 
L 199.253128 64.521433 
L 199.28089 64.49151 
L 199.846233 64.105441 
L 199.752923 64.07058 
L 199.584375 64.023577 
L 199.383947 64.068388 
L 199.260974 63.781901 
L 199.289146 63.767689 
L 199.179501 63.737305 
L 198.069452 63.654892 
L 197.183222 63.70883 
L 196.851565 63.669622 
L 196.850264 63.747804 
L 196.478092 63.895355 
L 196.129468 63.965969 
L 195.914037 64.104039 
L 195.781918 64.124758 
L 195.665394 64.230549 
L 195.216664 64.28481 
L 194.919319 64.070573 
L 192.97502 63.595376 
L 191.360274 63.124089 
L 189.671896 63.125112 
L 188.873468 63.226242 
L 188.804508 63.559219 
L 188.569503 63.634192 
L 187.607365 63.614174 
L 186.366144 63.635405 
L 185.378292 63.980611 
L 185.378904 63.952894 
L 185.294937 63.841189 
L 184.714459 63.494637 
L 184.536916 63.059216 
L 184.332054 62.444989 
L 184.042061 62.350245 
L 182.30903 61.993485 
L 181.977 61.648626 
L 182.390288 61.120198 
L 182.146041 60.69921 
L 181.710752 60.673817 
L 181.191307 60.606248 
L 180.336793 60.412288 
L 179.922014 60.273675 
L 179.204117 59.931848 
L 178.357632 59.719437 
L 177.963307 59.556334 
L 177.742381 59.461186 
L 176.840075 59.307457 
L 176.760043 59.086752 
L 174.825118 59.107913 
L 174.365327 59.289328 
L 173.91779 59.257681 
L 173.757789 59.291475 
L 173.454841 59.219528 
L 173.53721 59.083215 
L 173.589449 59.038303 
L 173.524583 59.00118 
L 172.90409 58.768454 
L 172.671067 58.608074 
L 171.76355 57.426792 
L 171.734241 57.291868 
L 171.609865 57.147658 
L 171.085139 57.272223 
L 170.561234 57.458818 
L 169.120399 57.490338 
L 168.936079 57.722034 
L 169.017627 58.064208 
L 167.802488 58.2695 
L 167.10102 57.504929 
L 166.943293 57.109947 
L 166.809127 56.927522 
L 166.105386 56.991952 
L 166.041587 56.931438 
L 166.034891 57.02682 
L 165.993201 57.4122 
L 165.737249 57.649076 
L 165.731249 57.739278 
L 165.629803 57.732393 
L 164.069331 57.669921 
L 164.078553 57.751153 
L 164.105336 58.034709 
L 164.016713 58.028835 
L 162.396042 57.891636 
L 162.229282 56.749139 
L 162.161378 56.532224 
L 162.004528 56.439805 
L 161.156836 56.329648 
L 160.980279 56.358913 
L 160.824175 56.378034 
L 160.065529 56.340102 
L 160.240065 56.454213 
L 160.444751 56.595852 
L 160.345326 56.657124 
L 160.214818 56.865523 
L 160.185957 56.967715 
L 160.280075 56.981485 
L 160.514171 57.126263 
L 160.680357 57.380668 
L 160.550442 57.434669 
L 160.768664 57.698706 
L 159.267587 58.21356 
L 158.107138 58.647389 
L 158.243458 58.740598 
L 158.546153 59.574968 
L 158.437759 59.916195 
L 158.64962 60.601365 
L 158.35899 60.843483 
L 157.328487 60.882899 
L 156.925736 61.179657 
L 155.542952 61.00399 
L 155.568597 61.038416 
L 155.487491 61.152874 
L 155.339112 61.392087 
L 154.432859 62.140361 
L 154.376451 62.187294 
L 154.397548 62.258925 
L 154.464631 62.330935 
L 154.376324 62.379447 
L 154.247843 62.483609 
L 154.231483 62.476534 
L 154.070534 62.526941 
L 153.860315 62.596741 
L 153.858925 62.591561 
L 153.883876 62.536164 
L 153.806434 62.483988 
L 153.108314 62.427264 
L 151.313493 62.384753 
L 150.434906 62.138908 
L 150.317164 62.670583 
L 149.203723 63.306293 
L 148.94815 63.488277 
L 148.310481 64.017488 
L 147.883979 63.985083 
L 146.68501 63.876184 
L 146.663218 63.887112 
L 146.585649 63.86494 
L 145.002475 63.728873 
L 144.725046 63.721545 
L 144.544844 63.676943 
L 144.331909 63.758725 
L 144.659719 63.982222 
L 144.84229 64.174388 
L 145.772825 64.354761 
L 146.711755 65.097728 
L 146.6982 65.11659 
L 146.405365 65.170016 
L 146.398378 65.328395 
L 145.711661 65.314435 
L 145.626202 65.435216 
L 144.625489 65.421521 
L 144.158901 65.448336 
L 143.504108 65.403058 
L 142.556309 65.416076 
L 140.319403 66.010109 
L 140.071221 66.055583 
L 140.083557 66.004551 
L 140.01552 65.905341 
L 139.921648 65.126444 
L 139.206745 65.191177 
L 139.203764 65.084937 
L 138.729432 64.969045 
L 138.805238 64.749395 
L 138.408033 64.579331 
L 138.167108 64.347143 
L 137.814227 64.40964 
L 137.69541 64.503828 
L 135.843929 64.379509 
L 135.644328 64.566685 
L 135.105541 64.674884 
L 134.793579 64.661448 
L 134.26481 64.635303 
L 133.697907 64.501377 
L 133.280178 64.702374 
L 133.109211 64.924064 
L 132.998998 65.214511 
L 132.232804 65.377001 
L 131.374184 66.028106 
L 131.113665 66.204006 
L 129.073637 66.512936 
L 128.874883 66.677277 
L 129.012125 66.703043 
L 129.376294 66.983787 
L 129.314599 67.655554 
L 129.380665 67.873643 
L 129.336531 67.875702 
L 129.204399 68.065733 
L 129.870897 68.236795 
L 129.663817 68.771016 
L 129.975627 69.037043 
L 129.943374 69.353382 
L 129.771352 69.356206 
L 129.537092 69.685248 
L 129.278316 69.966403 
L 129.147915 70.086369 
L 129.217588 70.257204 
L 128.959874 70.287676 
L 128.898798 70.152827 
L 128.807155 70.205066 
L 129.05523 71.073894 
L 128.595869 71.249763 
L 128.709866 71.503169 
L 127.938656 71.594179 
L 127.825891 71.849999 
L 127.1962 71.855387 
L 126.234581 71.835584 
L 125.799399 72.11348 
L 125.687853 72.030694 
L 125.597651 71.769941 
L 124.57361 71.618954 
L 123.922051 71.59272 
L 123.972723 71.261139 
L 122.936933 70.906281 
L 122.173538 71.000317 
L 122.182368 71.026613 
L 122.110674 71.091037 
L 121.556347 71.060408 
L 121.21104 70.956328 
L 120.5388 70.88927 
L 120.596231 70.939279 
L 120.437689 70.996066 
L 120.349338 71.035191 
L 120.429389 71.028104 
L 120.359501 71.086066 
L 120.250899 71.079023 
L 119.878669 71.104561 
L 119.474749 71.02907 
L 119.031609 70.904967 
L 118.787179 71.559381 
L 119.4085 72.459185 
L 119.349875 72.471307 
L 119.097498 72.603023 
L 118.691146 72.763258 
L 118.555603 72.664977 
L 118.40502 72.721195 
L 117.813924 72.737265 
L 117.338783 72.641264 
L 117.344001 72.592688 
L 117.243837 72.546116 
L 116.791064 72.412739 
L 115.046903 72.504495 
L 114.915636 72.477043 
L 115.01935 72.390845 
L 115.029791 72.378604 
L 114.911593 72.354253 
L 114.39974 72.241588 
L 114.180135 72.206234 
L 114.002914 72.279204 
L 113.769986 72.335416 
L 113.524583 72.408096 
L 113.07073 72.401931 
L 112.49722 72.37168 
L 112.37659 72.341127 
L 112.376761 72.309348 
L 112.358455 72.249206 
L 111.969885 72.17256 
L 111.856027 72.094448 
L 110.871136 72.050168 
M 175.176351 128.004386 
L 175.195578 127.954737 
L 175.295035 127.990691 
L 175.340104 128.04708 
L 175.176351 128.004386 
M 225.968421 116.419547 
L 226.583874 116.138979 
L 226.703088 116.052219 
L 227.04633 116.062617 
L 227.211215 115.975573 
L 227.512116 115.815464 
L 227.467293 115.618737 
L 227.584575 115.5773 
L 227.792235 115.375274 
L 228.165115 115.157317 
L 227.527251 114.653959 
L 227.330644 114.403396 
L 227.358892 114.374472 
L 227.491284 114.082521 
L 227.460597 113.91849 
L 227.368051 113.869851 
L 227.399938 113.575323 
L 227.37145 113.512296 
L 228.0589 112.74161 
L 228.586722 112.546444 
L 231.051938 110.760144 
L 230.87888 110.699687 
L 228.968717 110.161418 
L 227.802462 110.265365 
L 228.31693 108.602373 
L 228.663874 107.81788 
L 228.785078 107.898354 
L 229.058729 108.019552 
L 229.611748 107.971192 
L 229.668952 107.739862 
L 229.79773 107.18011 
L 230.045199 106.793914 
L 230.080863 106.493057 
L 230.021158 106.297493 
L 229.838302 106.077426 
L 228.705412 106.275157 
L 228.495054 106.091569 
L 228.470874 106.092081 
L 228.518199 105.995884 
L 228.687416 105.85307 
L 229.098948 105.739812 
L 230.059405 105.343283 
L 230.308661 105.176207 
L 230.894596 105.158741 
L 231.424995 105.335248 
L 232.088651 105.47527 
L 232.408786 105.608533 
L 232.808632 105.688312 
L 233.484826 105.760563 
L 234.169042 105.71795 
L 234.212356 105.508413 
L 233.913507 105.309943 
L 233.420023 104.968818 
L 233.144799 104.574322 
L 233.168891 104.558739 
L 233.603213 104.279409 
L 234.303404 103.325635 
L 234.436819 103.243145 
L 237.078776 103.329368 
L 237.059599 102.679521 
L 236.947143 102.456232 
L 236.979926 102.460856 
L 237.875303 102.482112 
L 238.327204 102.32271 
L 238.398791 101.702122 
L 238.194971 101.694081 
L 238.206531 101.588396 
L 238.249484 101.189492 
L 238.347367 101.206913 
L 239.97599 101.400835 
L 239.835697 101.456662 
L 239.365281 101.646567 
L 239.414753 101.706771 
L 239.881682 102.426329 
L 239.72235 102.705817 
L 239.95054 103.164604 
L 239.833637 103.197052 
L 239.498771 103.28589 
L 240.158258 103.245918 
L 242.441769 103.52564 
L 243.752675 103.339506 
L 244.201892 103.13789 
L 244.173126 103.104583 
L 244.196277 102.941979 
L 245.061213 102.505035 
L 245.023389 102.469466 
L 245.001318 102.403595 
L 245.048643 102.447496 
L 245.052686 102.364969 
L 245.167914 102.263277 
L 245.032118 102.34576 
L 245.150285 102.224398 
L 245.21258 102.143115 
L 245.168862 102.223002 
L 245.224967 102.139186 
L 245.548191 102.000768 
L 246.290483 102.305055 
L 246.585409 102.348887 
L 246.700663 102.535646 
L 247.192858 102.7859 
L 247.194292 102.778977 
L 247.565517 102.661044 
L 247.818658 102.628829 
L 247.807073 102.582288 
L 247.802721 102.22916 
L 248.194292 102.065104 
L 248.278847 101.906719 
L 248.315364 101.926686 
L 249.005537 101.954713 
L 249.618943 101.891888 
L 249.891577 101.763375 
L 250.247844 101.638532 
L 250.345412 101.504549 
L 250.298005 101.4555 
L 249.363433 101.27322 
L 248.862401 101.06777 
L 249.001519 100.974352 
L 249.583355 100.717832 
L 249.819011 100.786519 
L 250.484903 100.328099 
L 250.535809 100.358059 
L 250.713251 100.297741 
L 250.484934 100.51861 
L 250.428754 100.790208 
L 250.444748 100.822626 
L 250.516 100.786715 
L 251.004582 100.635058 
L 251.240201 100.554742 
L 251.204 100.688636 
L 251.046563 101.272405 
L 251.671813 101.675181 
L 253.018049 102.093971 
L 253.230946 102.151983 
L 253.387214 102.183983 
L 253.425569 102.181501 
L 253.414098 102.289611 
L 253.243504 102.803119 
L 253.009793 103.18488 
L 252.336075 103.473546 
L 252.205111 103.809619 
L 252.092257 103.966531 
L 251.760468 104.70876 
L 251.906503 104.700144 
L 252.598823 105.51804 
L 253.961034 105.569022 
L 255.365585 105.97924 
L 256.090588 106.456837 
L 256.520401 106.709966 
L 256.842002 106.756324 
L 256.96493 106.850562 
L 257.181561 106.960163 
L 257.27103 107.331401 
L 257.304774 107.562326 
L 257.458768 108.119918 
L 257.427829 108.198245 
L 257.493864 108.219443 
L 260.666289 108.758123 
L 260.575986 108.845521 
L 260.359305 108.955722 
L 259.856156 108.936355 
L 259.86066 108.956271 
L 259.993323 109.436244 
L 261.047356 109.454897 
L 261.938759 109.622839 
L 261.882686 109.765198 
L 261.092678 110.114643 
L 260.447012 110.531645 
L 260.084321 111.066629 
L 259.804385 111.709427 
L 259.920523 111.747068 
L 260.16501 111.782846 
L 260.054317 111.874634 
L 259.187801 112.715074 
L 259.144052 112.883072 
L 259.22308 112.896104 
L 259.329352 112.932924 
L 259.240312 113.006001 
L 259.006058 113.196809 
L 259.14047 113.223364 
L 259.352123 113.174252 
L 259.404387 113.169546 
L 259.617481 113.280461 
L 259.695289 113.457827 
L 259.764476 113.445648 
L 259.720828 113.351593 
L 260.147557 112.978865 
L 260.608359 112.835205 
L 261.293245 112.681975 
L 261.828697 112.834225 
L 262.351851 113.004586 
L 262.676092 113.030548 
L 263.311007 113.337482 
L 263.664273 113.523754 
L 264.43216 113.7928 
L 264.657047 114.189551 
L 264.935707 114.146528 
L 264.936654 113.878012 
L 264.792224 113.796098 
L 264.633384 113.462577 
L 264.546322 113.346628 
L 264.684234 113.350191 
L 265.014823 113.539003 
L 265.84006 113.991744 
L 266.197975 114.280802 
L 266.671164 114.478476 
L 266.952136 114.514595 
L 267.658157 114.580433 
L 268.081343 114.719577 
L 268.082695 114.864507 
L 268.03983 114.925772 
L 268.122408 114.935759 
L 268.210039 114.945948 
L 268.175266 115.030895 
L 268.099213 115.232845 
L 268.468038 115.277668 
L 268.413203 115.347828 
L 268.333594 115.369368 
L 268.043873 115.34268 
L 268.056563 115.308336 
L 268.161117 115.03133 
L 268.098455 115.032752 
L 267.591719 115.14769 
L 267.358993 115.376088 
L 267.2578 115.575165 
L 266.200199 115.382544 
L 266.045371 115.313389 
L 266.762162 115.568874 
L 267.137455 115.608498 
L 267.112921 115.70966 
L 267.064466 115.836909 
L 267.164598 115.86131 
L 267.240436 115.87858 
L 267.212036 115.969041 
L 267.010117 115.975434 
L 266.875445 116.076539 
L 266.510796 116.568362 
L 266.554754 116.728502 
L 267.070372 117.196321 
L 266.942509 117.251605 
L 266.778187 117.411221 
L 266.552827 117.662638 
L 266.233645 117.689212 
L 266.081792 117.764627 
L 265.714111 117.727459 
L 265.547743 117.710613 
L 265.189063 117.932006 
L 264.50328 118.243999 
L 264.542374 118.178066 
L 264.542153 118.170713 
L 264.436999 118.296327 
L 263.731647 118.679042 
L 263.787455 118.677867 
L 263.841412 118.736321 
L 264.134234 118.795357 
L 264.498549 118.828993 
L 264.531136 118.828128 
L 264.485037 118.928671 
L 264.428604 119.084623 
L 264.643959 119.100257 
L 264.621692 119.158326 
L 264.380648 119.420866 
L 263.904806 119.718167 
L 263.64202 119.629702 
L 263.271919 119.597007 
L 262.736037 119.852321 
L 261.284863 121.558891 
L 260.992603 121.453384 
L 260.606609 120.935056 
L 260.675505 120.930912 
L 260.805812 120.079279 
L 261.27384 119.679351 
L 261.246028 119.545103 
L 260.947388 119.50369 
L 260.967626 119.4614 
L 260.992394 119.23165 
L 260.983803 119.08058 
L 260.903222 119.091755 
L 260.298014 119.063709 
L 259.980904 118.875029 
L 258.655571 119.325945 
L 258.715364 119.21301 
L 258.630822 118.89914 
L 258.178308 118.574633 
L 257.966124 118.445773 
L 257.911826 118.321038 
L 257.908352 118.188103 
L 257.86675 118.083145 
L 257.694696 118.079324 
L 256.668893 118.284003 
L 255.677042 118.402788 
L 254.171026 118.242793 
L 254.271594 117.87129 
L 254.398931 117.619659 
L 254.247123 117.684462 
L 253.721878 117.768379 
L 253.054104 117.561823 
L 252.748516 117.601707 
L 250.692873 117.915785 
L 250.443825 117.265578 
L 249.855383 116.372178 
L 249.378764 116.365773 
L 247.888116 116.802792 
L 246.818374 117.21248 
L 247.335849 118.634907 
L 246.88624 119.164106 
L 244.912645 119.004502 
L 244.876343 118.532729 
L 244.744665 118.387931 
L 243.781921 118.390673 
L 243.882723 118.051511 
L 242.413975 117.394672 
L 242.066053 117.071295 
L 242.075875 116.919329 
L 242.00377 116.94368 
L 240.027534 117.6395 
L 239.080822 116.743529 
L 239.154348 116.683098 
L 239.132802 116.63312 
L 239.044356 116.67054 
L 237.446741 117.395063 
L 236.138898 117.218701 
L 235.923891 116.322137 
L 233.71764 116.578361 
L 230.446706 117.484432 
L 230.355386 117.889823 
L 231.223007 117.873349 
L 231.237649 117.934874 
L 230.768004 118.025303 
L 229.800832 117.963716 
L 229.019737 117.99907 
L 228.623232 118.268205 
L 228.663324 118.293649 
L 228.800554 118.461596 
L 228.708141 118.448938 
L 228.479825 118.365002 
L 228.393185 118.317639 
L 228.42859 118.189746 
L 228.844569 118.082773 
L 229.164989 117.912822 
L 228.95259 117.885585 
L 228.923483 117.825482 
L 229.037815 117.812368 
L 229.111448 117.795086 
L 228.906365 117.744995 
L 228.759009 117.74411 
L 228.269985 117.857419 
L 227.142578 117.060494 
L 227.241933 117.075818 
L 227.44984 116.997687 
L 227.434086 116.946238 
L 227.28584 116.836606 
L 227.153506 116.827061 
L 227.169581 116.91444 
L 227.07823 117.056508 
L 227.028296 117.034457 
L 226.905418 117.024135 
L 226.766268 116.889912 
L 226.648449 116.800228 
L 226.480407 116.832885 
L 226.560483 116.925513 
L 226.639347 116.9758 
L 226.577178 117.035562 
L 226.539878 117.064726 
L 226.084831 116.855518 
L 226.086138 116.803677 
L 225.968421 116.419547 
M 252.188524 103.82661 
L 252.315685 103.76995 
L 252.188524 103.82661 
" style="fill:none;stroke:#ffc0cb;"/>
    <path clip-path="url(#p291a94cf5a)" d="M 170.998348 88.522846 
L 171.008524 88.525575 
L 171.029382 88.531165 
L 171.040278 88.532214 
L 171.052507 88.531216 
L 171.066353 88.527262 
L 171.104443 88.50358 
L 171.108151 88.505576 
L 171.180514 88.465036 
L 171.255317 88.425184 
L 171.198845 88.400088 
L 171.165026 88.425064 
L 171.153296 88.416644 
L 171.111726 88.448979 
L 171.067452 88.483613 
L 171.049968 88.475364 
L 171.044643 88.474966 
L 171.037429 88.48012 
L 171.039975 88.482779 
L 171.022604 88.499095 
L 170.998348 88.522846 
" style="fill:none;stroke:#ffc0cb;"/>
    <path clip-path="url(#p291a94cf5a)" d="M 173.64707 128.405065 
L 173.668705 128.409639 
L 173.706832 128.417528 
L 173.754422 128.362093 
L 173.723691 128.354443 
L 173.695974 128.347925 
L 173.64707 128.405065 
" style="fill:none;stroke:#ffc0cb;"/>
    <path clip-path="url(#p291a94cf5a)" d="M 173.808701 128.206627 
L 173.811146 128.216872 
L 173.822977 128.221945 
L 173.83844 128.220593 
L 173.844593 128.226726 
L 173.856152 128.241899 
L 173.863922 128.260717 
L 173.868337 128.266875 
L 173.875911 128.271537 
L 173.888298 128.272023 
L 173.91863 128.279654 
L 173.944011 128.278991 
L 173.953536 128.347994 
L 173.962613 128.379318 
L 173.98042 128.423459 
L 174.039311 128.418823 
L 174.140327 128.424483 
L 174.175473 128.423213 
L 174.211269 128.412803 
L 174.245531 128.407548 
L 174.279635 128.414073 
L 174.314137 128.415557 
L 174.318325 128.437716 
L 174.321634 128.45606 
L 174.066902 128.720103 
L 174.325393 128.456755 
L 174.322512 128.438575 
L 174.404768 128.455403 
L 174.457102 128.465339 
L 174.491642 128.430749 
L 174.535681 128.445429 
L 174.537381 128.441197 
L 174.556343 128.427711 
L 174.577732 128.402791 
L 174.57727 128.375408 
L 174.589537 128.362927 
L 174.565218 128.351746 
L 174.533805 128.340983 
L 174.497124 128.336574 
L 174.400921 128.318451 
L 174.356244 128.325879 
L 174.31473 128.334047 
L 174.306007 128.329063 
L 174.261487 128.323586 
L 174.218091 128.318786 
L 174.171512 128.3255 
L 174.118427 128.319765 
L 174.092882 128.314869 
L 174.063364 128.315059 
L 174.043663 128.311547 
L 174.031503 128.311124 
L 174.02398 128.307656 
L 174.010728 128.299728 
L 174.00112 128.292875 
L 173.988916 128.288548 
L 173.982877 128.285813 
L 173.972764 128.285257 
L 173.960516 128.278953 
L 173.952747 128.276016 
L 173.943884 128.277222 
L 173.931131 128.276395 
L 173.919729 128.277866 
L 173.889283 128.269484 
L 173.875949 128.268107 
L 173.872285 128.265258 
L 173.869834 128.26325 
L 173.858912 128.241053 
L 173.847549 128.224819 
L 173.839426 128.218395 
L 173.823059 128.219235 
L 173.813357 128.214864 
L 173.811777 128.206848 
L 173.818366 128.200418 
L 173.814816 128.198706 
L 173.808701 128.206627 
" style="fill:none;stroke:#ffc0cb;"/>
    <path clip-path="url(#p291a94cf5a)" d="M 174.682923 128.519871 
L 174.685197 128.520882 
L 174.685083 128.536351 
L 174.741851 128.544032 
L 174.807817 128.528721 
L 174.874805 128.537457 
L 174.960244 128.549319 
L 175.0265 128.545498 
L 175.050832 128.521456 
L 175.002901 128.495116 
L 175.013608 128.460892 
L 174.967319 128.447456 
L 174.910861 128.451158 
L 174.84187 128.434356 
L 174.865538 128.430825 
L 174.879441 128.433433 
L 174.890521 128.432625 
L 174.905864 128.425342 
L 174.926343 128.410422 
L 174.932975 128.40655 
L 174.940928 128.400296 
L 174.944314 128.392318 
L 174.963662 128.382464 
L 174.986016 128.380121 
L 175.002048 128.372604 
L 175.010689 128.370229 
L 175.030347 128.369231 
L 175.030473 128.36762 
L 175.010437 128.368542 
L 174.999294 128.371227 
L 174.984513 128.37767 
L 174.96291 128.380234 
L 174.945691 128.388099 
L 174.941181 128.392091 
L 174.937801 128.399033 
L 174.93235 128.405318 
L 174.923772 128.409386 
L 174.903236 128.42442 
L 174.889649 128.430787 
L 174.880945 128.4314 
L 174.86804 128.428216 
L 174.842868 128.431437 
L 174.835844 128.433768 
L 174.807678 128.44402 
L 174.781716 128.453906 
L 174.721619 128.460759 
L 174.708563 128.471883 
L 174.701602 128.481068 
L 174.682923 128.519871 
" style="fill:none;stroke:#ffc0cb;"/>
    <path clip-path="url(#p291a94cf5a)" d="M 175.077349 128.56909 
L 175.113714 128.57794 
L 175.125539 128.578035 
L 175.148096 128.585489 
L 175.18189 128.577807 
L 175.220049 128.585034 
L 175.264096 128.585369 
L 175.297839 128.565427 
L 175.301743 128.558617 
L 175.304649 128.547058 
L 175.30619 128.54119 
L 175.28321 128.529201 
L 175.238513 128.524482 
L 175.197145 128.522638 
L 175.169667 128.515645 
L 175.132803 128.515083 
L 175.109741 128.512897 
L 175.080558 128.536623 
L 175.077349 128.56909 
" style="fill:none;stroke:#ffc0cb;"/>
    <path clip-path="url(#p291a94cf5a)" d="M 175.301263 128.637456 
L 175.301471 128.638883 
L 175.313037 128.64057 
L 175.321678 128.644259 
L 175.313587 128.644644 
L 175.303379 128.644411 
L 175.30372 128.645863 
L 175.314136 128.646072 
L 175.323453 128.645604 
L 175.319853 128.648409 
L 175.311471 128.651081 
L 175.313214 128.652066 
L 175.322904 128.64978 
L 175.326207 128.64563 
L 175.338279 128.646463 
L 175.351285 128.65103 
L 175.355776 128.673183 
L 175.358094 128.678356 
L 175.367297 128.684547 
L 175.379324 128.689063 
L 175.391017 128.69171 
L 175.405772 128.69195 
L 175.416346 128.6955 
L 175.427697 128.697161 
L 175.44167 128.694514 
L 175.456552 128.696763 
L 175.468017 128.701311 
L 175.478762 128.709106 
L 175.489026 128.714387 
L 175.4996 128.722725 
L 175.506902 128.731151 
L 175.509865 128.737373 
L 175.521216 128.74189 
L 175.522403 128.740437 
L 175.54947 128.739641 
L 175.56561 128.728555 
L 175.569709 128.708664 
L 175.556097 128.693782 
L 175.531297 128.684187 
L 175.49082 128.668648 
L 175.466406 128.669734 
L 175.440912 128.65964 
L 175.42205 128.652742 
L 175.400416 128.646824 
L 175.353356 128.642522 
L 175.354247 128.650096 
L 175.352346 128.64882 
L 175.339384 128.644928 
L 175.326725 128.644019 
L 175.313037 128.6393 
L 175.301263 128.637456 
" style="fill:none;stroke:#ffc0cb;"/>
   </g>
   <g id="matplotlib.axis_1">
    <g id="xtick_1">
     <g id="line2d_1">
      <defs>
       <path d="M 0 0 
L 0 3.5 
" id="m90fe19c0c3" style="stroke:#000000;stroke-width:0.8;"/>
      </defs>
      <g>
       <use style="stroke:#000000;stroke-width:0.8;" x="125.637775" xlink:href="#m90fe19c0c3" y="252"/>
      </g>
     </g>
     <g id="text_1">
      <!-- 11.5 -->
      <defs>
       <path d="M 12.40625 8.296875 
L 28.515625 8.296875 
L 28.515625 63.921875 
L 10.984375 60.40625 
L 10.984375 69.390625 
L 28.421875 72.90625 
L 38.28125 72.90625 
L 38.28125 8.296875 
L 54.390625 8.296875 
L 54.390625 0 
L 12.40625 0 
z
" id="DejaVuSans-49"/>
       <path d="M 10.6875 12.40625 
L 21 12.40625 
L 21 0 
L 10.6875 0 
z
" id="DejaVuSans-46"/>
       <path d="M 10.796875 72.90625 
L 49.515625 72.90625 
L 49.515625 64.59375 
L 19.828125 64.59375 
L 19.828125 46.734375 
Q 21.96875 47.46875 24.109375 47.828125 
Q 26.265625 48.1875 28.421875 48.1875 
Q 40.625 48.1875 47.75 41.5 
Q 54.890625 34.8125 54.890625 23.390625 
Q 54.890625 11.625 47.5625 5.09375 
Q 40.234375 -1.421875 26.90625 -1.421875 
Q 22.3125 -1.421875 17.546875 -0.640625 
Q 12.796875 0.140625 7.71875 1.703125 
L 7.71875 11.625 
Q 12.109375 9.234375 16.796875 8.0625 
Q 21.484375 6.890625 26.703125 6.890625 
Q 35.15625 6.890625 40.078125 11.328125 
Q 45.015625 15.765625 45.015625 23.390625 
Q 45.015625 31 40.078125 35.4375 
Q 35.15625 39.890625 26.703125 39.890625 
Q 22.75 39.890625 18.8125 39.015625 
Q 14.890625 38.140625 10.796875 36.28125 
z
" id="DejaVuSans-53"/>
      </defs>
      <g transform="translate(114.504962 266.598437)scale(0.1 -0.1)">
       <use xlink:href="#DejaVuSans-49"/>
       <use x="63.623047" xlink:href="#DejaVuSans-49"/>
       <use x="127.246094" xlink:href="#DejaVuSans-46"/>
       <use x="159.033203" xlink:href="#DejaVuSans-53"/>
      </g>
     </g>
    </g>
    <g id="xtick_2">
     <g id="line2d_2">
      <g>
       <use style="stroke:#000000;stroke-width:0.8;" x="157.221167" xlink:href="#m90fe19c0c3" y="252"/>
      </g>
     </g>
     <g id="text_2">
      <!-- 12.0 -->
      <defs>
       <path d="M 19.1875 8.296875 
L 53.609375 8.296875 
L 53.609375 0 
L 7.328125 0 
L 7.328125 8.296875 
Q 12.9375 14.109375 22.625 23.890625 
Q 32.328125 33.6875 34.8125 36.53125 
Q 39.546875 41.84375 41.421875 45.53125 
Q 43.3125 49.21875 43.3125 52.78125 
Q 43.3125 58.59375 39.234375 62.25 
Q 35.15625 65.921875 28.609375 65.921875 
Q 23.96875 65.921875 18.8125 64.3125 
Q 13.671875 62.703125 7.8125 59.421875 
L 7.8125 69.390625 
Q 13.765625 71.78125 18.9375 73 
Q 24.125 74.21875 28.421875 74.21875 
Q 39.75 74.21875 46.484375 68.546875 
Q 53.21875 62.890625 53.21875 53.421875 
Q 53.21875 48.921875 51.53125 44.890625 
Q 49.859375 40.875 45.40625 35.40625 
Q 44.1875 33.984375 37.640625 27.21875 
Q 31.109375 20.453125 19.1875 8.296875 
z
" id="DejaVuSans-50"/>
       <path d="M 31.78125 66.40625 
Q 24.171875 66.40625 20.328125 58.90625 
Q 16.5 51.421875 16.5 36.375 
Q 16.5 21.390625 20.328125 13.890625 
Q 24.171875 6.390625 31.78125 6.390625 
Q 39.453125 6.390625 43.28125 13.890625 
Q 47.125 21.390625 47.125 36.375 
Q 47.125 51.421875 43.28125 58.90625 
Q 39.453125 66.40625 31.78125 66.40625 
z
M 31.78125 74.21875 
Q 44.046875 74.21875 50.515625 64.515625 
Q 56.984375 54.828125 56.984375 36.375 
Q 56.984375 17.96875 50.515625 8.265625 
Q 44.046875 -1.421875 31.78125 -1.421875 
Q 19.53125 -1.421875 13.0625 8.265625 
Q 6.59375 17.96875 6.59375 36.375 
Q 6.59375 54.828125 13.0625 64.515625 
Q 19.53125 74.21875 31.78125 74.21875 
z
" id="DejaVuSans-48"/>
      </defs>
      <g transform="translate(146.088354 266.598437)scale(0.1 -0.1)">
       <use xlink:href="#DejaVuSans-49"/>
       <use x="63.623047" xlink:href="#DejaVuSans-50"/>
       <use x="127.246094" xlink:href="#DejaVuSans-46"/>
       <use x="159.033203" xlink:href="#DejaVuSans-48"/>
      </g>
     </g>
    </g>
    <g id="xtick_3">
     <g id="line2d_3">
      <g>
       <use style="stroke:#000000;stroke-width:0.8;" x="188.804559" xlink:href="#m90fe19c0c3" y="252"/>
      </g>
     </g>
     <g id="text_3">
      <!-- 12.5 -->
      <g transform="translate(177.671747 266.598437)scale(0.1 -0.1)">
       <use xlink:href="#DejaVuSans-49"/>
       <use x="63.623047" xlink:href="#DejaVuSans-50"/>
       <use x="127.246094" xlink:href="#DejaVuSans-46"/>
       <use x="159.033203" xlink:href="#DejaVuSans-53"/>
      </g>
     </g>
    </g>
    <g id="xtick_4">
     <g id="line2d_4">
      <g>
       <use style="stroke:#000000;stroke-width:0.8;" x="220.387951" xlink:href="#m90fe19c0c3" y="252"/>
      </g>
     </g>
     <g id="text_4">
      <!-- 13.0 -->
      <defs>
       <path d="M 40.578125 39.3125 
Q 47.65625 37.796875 51.625 33 
Q 55.609375 28.21875 55.609375 21.1875 
Q 55.609375 10.40625 48.1875 4.484375 
Q 40.765625 -1.421875 27.09375 -1.421875 
Q 22.515625 -1.421875 17.65625 -0.515625 
Q 12.796875 0.390625 7.625 2.203125 
L 7.625 11.71875 
Q 11.71875 9.328125 16.59375 8.109375 
Q 21.484375 6.890625 26.8125 6.890625 
Q 36.078125 6.890625 40.9375 10.546875 
Q 45.796875 14.203125 45.796875 21.1875 
Q 45.796875 27.640625 41.28125 31.265625 
Q 36.765625 34.90625 28.71875 34.90625 
L 20.21875 34.90625 
L 20.21875 43.015625 
L 29.109375 43.015625 
Q 36.375 43.015625 40.234375 45.921875 
Q 44.09375 48.828125 44.09375 54.296875 
Q 44.09375 59.90625 40.109375 62.90625 
Q 36.140625 65.921875 28.71875 65.921875 
Q 24.65625 65.921875 20.015625 65.03125 
Q 15.375 64.15625 9.8125 62.3125 
L 9.8125 71.09375 
Q 15.4375 72.65625 20.34375 73.4375 
Q 25.25 74.21875 29.59375 74.21875 
Q 40.828125 74.21875 47.359375 69.109375 
Q 53.90625 64.015625 53.90625 55.328125 
Q 53.90625 49.265625 50.4375 45.09375 
Q 46.96875 40.921875 40.578125 39.3125 
z
" id="DejaVuSans-51"/>
      </defs>
      <g transform="translate(209.255139 266.598437)scale(0.1 -0.1)">
       <use xlink:href="#DejaVuSans-49"/>
       <use x="63.623047" xlink:href="#DejaVuSans-51"/>
       <use x="127.246094" xlink:href="#DejaVuSans-46"/>
       <use x="159.033203" xlink:href="#DejaVuSans-48"/>
      </g>
     </g>
    </g>
    <g id="xtick_5">
     <g id="line2d_5">
      <g>
       <use style="stroke:#000000;stroke-width:0.8;" x="251.971343" xlink:href="#m90fe19c0c3" y="252"/>
      </g>
     </g>
     <g id="text_5">
      <!-- 13.5 -->
      <g transform="translate(240.838531 266.598437)scale(0.1 -0.1)">
       <use xlink:href="#DejaVuSans-49"/>
       <use x="63.623047" xlink:href="#DejaVuSans-51"/>
       <use x="127.246094" xlink:href="#DejaVuSans-46"/>
       <use x="159.033203" xlink:href="#DejaVuSans-53"/>
      </g>
     </g>
    </g>
    <g id="xtick_6">
     <g id="line2d_6">
      <g>
       <use style="stroke:#000000;stroke-width:0.8;" x="283.554736" xlink:href="#m90fe19c0c3" y="252"/>
      </g>
     </g>
     <g id="text_6">
      <!-- 14.0 -->
      <defs>
       <path d="M 37.796875 64.3125 
L 12.890625 25.390625 
L 37.796875 25.390625 
z
M 35.203125 72.90625 
L 47.609375 72.90625 
L 47.609375 25.390625 
L 58.015625 25.390625 
L 58.015625 17.1875 
L 47.609375 17.1875 
L 47.609375 0 
L 37.796875 0 
L 37.796875 17.1875 
L 4.890625 17.1875 
L 4.890625 26.703125 
z
" id="DejaVuSans-52"/>
      </defs>
      <g transform="translate(272.421923 266.598437)scale(0.1 -0.1)">
       <use xlink:href="#DejaVuSans-49"/>
       <use x="63.623047" xlink:href="#DejaVuSans-52"/>
       <use x="127.246094" xlink:href="#DejaVuSans-46"/>
       <use x="159.033203" xlink:href="#DejaVuSans-48"/>
      </g>
     </g>
    </g>
    <g id="xtick_7">
     <g id="line2d_7">
      <g>
       <use style="stroke:#000000;stroke-width:0.8;" x="315.138128" xlink:href="#m90fe19c0c3" y="252"/>
      </g>
     </g>
     <g id="text_7">
      <!-- 14.5 -->
      <g transform="translate(304.005315 266.598437)scale(0.1 -0.1)">
       <use xlink:href="#DejaVuSans-49"/>
       <use x="63.623047" xlink:href="#DejaVuSans-52"/>
       <use x="127.246094" xlink:href="#DejaVuSans-46"/>
       <use x="159.033203" xlink:href="#DejaVuSans-53"/>
      </g>
     </g>
    </g>
   </g>
   <g id="matplotlib.axis_2">
    <g id="ytick_1">
     <g id="line2d_8">
      <defs>
       <path d="M 0 0 
L -3.5 0 
" id="m15e67f9374" style="stroke:#000000;stroke-width:0.8;"/>
      </defs>
      <g>
       <use style="stroke:#000000;stroke-width:0.8;" x="99.81825" xlink:href="#m15e67f9374" y="237.676559"/>
      </g>
     </g>
     <g id="text_8">
      <!-- 50.5 -->
      <g transform="translate(70.552625 241.475778)scale(0.1 -0.1)">
       <use xlink:href="#DejaVuSans-53"/>
       <use x="63.623047" xlink:href="#DejaVuSans-48"/>
       <use x="127.246094" xlink:href="#DejaVuSans-46"/>
       <use x="159.033203" xlink:href="#DejaVuSans-53"/>
      </g>
     </g>
    </g>
    <g id="ytick_2">
     <g id="line2d_9">
      <g>
       <use style="stroke:#000000;stroke-width:0.8;" x="99.81825" xlink:href="#m15e67f9374" y="206.093167"/>
      </g>
     </g>
     <g id="text_9">
      <!-- 51.0 -->
      <g transform="translate(70.552625 209.892386)scale(0.1 -0.1)">
       <use xlink:href="#DejaVuSans-53"/>
       <use x="63.623047" xlink:href="#DejaVuSans-49"/>
       <use x="127.246094" xlink:href="#DejaVuSans-46"/>
       <use x="159.033203" xlink:href="#DejaVuSans-48"/>
      </g>
     </g>
    </g>
    <g id="ytick_3">
     <g id="line2d_10">
      <g>
       <use style="stroke:#000000;stroke-width:0.8;" x="99.81825" xlink:href="#m15e67f9374" y="174.509775"/>
      </g>
     </g>
     <g id="text_10">
      <!-- 51.5 -->
      <g transform="translate(70.552625 178.308994)scale(0.1 -0.1)">
       <use xlink:href="#DejaVuSans-53"/>
       <use x="63.623047" xlink:href="#DejaVuSans-49"/>
       <use x="127.246094" xlink:href="#DejaVuSans-46"/>
       <use x="159.033203" xlink:href="#DejaVuSans-53"/>
      </g>
     </g>
    </g>
    <g id="ytick_4">
     <g id="line2d_11">
      <g>
       <use style="stroke:#000000;stroke-width:0.8;" x="99.81825" xlink:href="#m15e67f9374" y="142.926383"/>
      </g>
     </g>
     <g id="text_11">
      <!-- 52.0 -->
      <g transform="translate(70.552625 146.725601)scale(0.1 -0.1)">
       <use xlink:href="#DejaVuSans-53"/>
       <use x="63.623047" xlink:href="#DejaVuSans-50"/>
       <use x="127.246094" xlink:href="#DejaVuSans-46"/>
       <use x="159.033203" xlink:href="#DejaVuSans-48"/>
      </g>
     </g>
    </g>
    <g id="ytick_5">
     <g id="line2d_12">
      <g>
       <use style="stroke:#000000;stroke-width:0.8;" x="99.81825" xlink:href="#m15e67f9374" y="111.34299"/>
      </g>
     </g>
     <g id="text_12">
      <!-- 52.5 -->
      <g transform="translate(70.552625 115.142209)scale(0.1 -0.1)">
       <use xlink:href="#DejaVuSans-53"/>
       <use x="63.623047" xlink:href="#DejaVuSans-50"/>
       <use x="127.246094" xlink:href="#DejaVuSans-46"/>
       <use x="159.033203" xlink:href="#DejaVuSans-53"/>
      </g>
     </g>
    </g>
    <g id="ytick_6">
     <g id="line2d_13">
      <g>
       <use style="stroke:#000000;stroke-width:0.8;" x="99.81825" xlink:href="#m15e67f9374" y="79.759598"/>
      </g>
     </g>
     <g id="text_13">
      <!-- 53.0 -->
      <g transform="translate(70.552625 83.558817)scale(0.1 -0.1)">
       <use xlink:href="#DejaVuSans-53"/>
       <use x="63.623047" xlink:href="#DejaVuSans-51"/>
       <use x="127.246094" xlink:href="#DejaVuSans-46"/>
       <use x="159.033203" xlink:href="#DejaVuSans-48"/>
      </g>
     </g>
    </g>
    <g id="ytick_7">
     <g id="line2d_14">
      <g>
       <use style="stroke:#000000;stroke-width:0.8;" x="99.81825" xlink:href="#m15e67f9374" y="48.176206"/>
      </g>
     </g>
     <g id="text_14">
      <!-- 53.5 -->
      <g transform="translate(70.552625 51.975425)scale(0.1 -0.1)">
       <use xlink:href="#DejaVuSans-53"/>
       <use x="63.623047" xlink:href="#DejaVuSans-51"/>
       <use x="127.246094" xlink:href="#DejaVuSans-46"/>
       <use x="159.033203" xlink:href="#DejaVuSans-53"/>
      </g>
     </g>
    </g>
   </g>
   <g id="patch_3">
    <path d="M 99.81825 252 
L 99.81825 34.56 
" style="fill:none;stroke:#000000;stroke-linecap:square;stroke-linejoin:miter;stroke-width:0.8;"/>
   </g>
   <g id="patch_4">
    <path d="M 342.98175 252 
L 342.98175 34.56 
" style="fill:none;stroke:#000000;stroke-linecap:square;stroke-linejoin:miter;stroke-width:0.8;"/>
   </g>
   <g id="patch_5">
    <path d="M 99.81825 252 
L 342.98175 252 
" style="fill:none;stroke:#000000;stroke-linecap:square;stroke-linejoin:miter;stroke-width:0.8;"/>
   </g>
   <g id="patch_6">
    <path d="M 99.81825 34.56 
L 342.98175 34.56 
" style="fill:none;stroke:#000000;stroke-linecap:square;stroke-linejoin:miter;stroke-width:0.8;"/>
   </g>
  </g>
 </g>
 <defs>
  <clipPath id="p291a94cf5a">
   <rect height="217.44" width="243.1635" x="99.81825" y="34.56"/>
  </clipPath>
 </defs>
</svg>
