<?xml version="1.0" encoding="utf-8" standalone="no"?>
<!DOCTYPE svg PUBLIC "-//W3C//DTD SVG 1.1//EN"
  "http://www.w3.org/Graphics/SVG/1.1/DTD/svg11.dtd">
<!-- Created with matplotlib (https://matplotlib.org/) -->
<svg height="288pt" version="1.1" viewBox="0 0 432 288" width="432pt" xmlns="http://www.w3.org/2000/svg" xmlns:xlink="http://www.w3.org/1999/xlink">
 <defs>
  <style type="text/css">
*{stroke-linecap:butt;stroke-linejoin:round;}
  </style>
 </defs>
 <g id="figure_1">
  <g id="patch_1">
   <path d="M 0 288 
L 432 288 
L 432 0 
L 0 0 
z
" style="fill:#ffffff;"/>
  </g>
  <g id="axes_1">
   <g id="patch_2">
    <path d="M 110.852005 252 
L 331.947995 252 
L 331.947995 34.56 
L 110.852005 34.56 
z
" style="fill:#ffffff;"/>
   </g>
   <g id="PatchCollection_1">
    <path clip-path="url(#pef6f09d2ec)" d="M 188.974543 180.655438 
L 258.374562 178.604262 
L 257.070191 108.661753 
L 186.088145 110.787056 
L 188.974543 180.655438 
" style="fill:none;stroke:#0000ff;stroke-opacity:0.2;"/>
    <path clip-path="url(#pef6f09d2ec)" d="M 250.837421 115.053851 
L 308.754986 114.515127 
L 311.374959 106.802753 
L 314.842847 96.633114 
L 318.328915 86.471617 
L 321.830254 76.335615 
L 321.898178 44.443636 
L 249.311359 45.127308 
L 250.837421 115.053851 
" style="fill:none;stroke:#0000ff;stroke-opacity:0.2;"/>
    <path clip-path="url(#pef6f09d2ec)" d="M 252.15081 178.724839 
L 287.503326 178.39986 
L 287.603051 178.092074 
L 290.926402 167.906308 
L 294.284591 157.723751 
L 297.654358 147.533082 
L 301.052939 137.345057 
L 304.475696 127.158836 
L 307.917896 116.979253 
L 310.891393 108.226217 
L 250.704314 108.78669 
L 252.15081 178.724839 
" style="fill:none;stroke:#0000ff;stroke-opacity:0.2;"/>
    <path clip-path="url(#pef6f09d2ec)" d="M 256.048835 120.760985 
L 260.747552 51.042339 
L 188.429846 47.19292 
L 185.385545 117.046772 
L 256.048835 120.760985 
" style="fill:none;stroke:#0000ff;stroke-opacity:0.2;"/>
    <path clip-path="url(#pef6f09d2ec)" d="M 252.0039 184.250765 
L 256.458721 114.512067 
L 185.651088 110.78599 
L 182.765265 180.654409 
L 252.0039 184.250765 
" style="fill:none;stroke:#0000ff;stroke-opacity:0.2;"/>
    <path clip-path="url(#pef6f09d2ec)" d="M 186.353742 117.047835 
L 257.19022 114.929312 
L 255.814093 44.998223 
L 183.308834 47.194021 
L 186.353742 117.047835 
" style="fill:none;stroke:#0000ff;stroke-opacity:0.2;"/>
    <path clip-path="url(#pef6f09d2ec)" d="M 191.726674 117.314646 
L 194.919941 47.470557 
L 128.48612 45.322648 
L 126.522862 52.347147 
L 123.656188 62.65703 
L 121.906306 69.00793 
L 120.901822 115.053319 
L 191.726674 117.314646 
" style="fill:none;stroke:#0000ff;stroke-opacity:0.2;"/>
   </g>
   <g id="PatchCollection_2">
    <path clip-path="url(#pef6f09d2ec)" d="M 154.192787 117.160972 
L 154.327666 117.5504 
L 154.403062 118.799596 
L 154.931612 119.446832 
L 155.658698 120.046006 
L 156.200394 120.437858 
L 156.539852 120.99328 
L 157.176754 121.811911 
L 157.552891 121.956862 
L 158.01659 121.906511 
L 160.487772 120.588493 
L 161.25304 120.468399 
L 161.805321 120.26165 
L 162.232475 120.283324 
L 162.703227 120.521784 
L 163.455751 121.331917 
L 164.637312 122.410086 
L 165.19288 122.513567 
L 165.682366 122.367603 
L 166.260236 122.08123 
L 166.579184 122.233673 
L 167.170165 122.944344 
L 168.043622 123.309397 
L 168.5118 123.273377 
L 169.599666 122.856457 
L 170.074071 122.935903 
L 170.391711 123.22029 
L 170.389184 123.505968 
L 170.009057 123.969909 
L 169.721722 124.423416 
L 169.736013 124.886563 
L 170.033911 125.252821 
L 170.527747 125.439476 
L 170.913614 125.398212 
L 171.764031 125.152728 
L 171.951093 125.269803 
L 172.216803 125.695584 
L 172.230999 126.14637 
L 172.341507 127.038628 
L 172.58324 127.288449 
L 173.052049 127.407218 
L 173.618979 127.048268 
L 173.767526 126.936431 
L 174.442836 126.619652 
L 175.250968 126.815798 
L 175.583079 127.056015 
L 175.986087 127.589854 
L 176.331526 128.237537 
L 176.839389 128.664792 
L 177.735852 128.802528 
L 178.632566 128.856189 
L 179.077008 129.105953 
L 179.331002 129.407996 
L 179.321246 129.923854 
L 179.070802 130.281316 
L 178.321539 131.1611 
L 178.260442 131.507718 
L 178.511227 132.022258 
L 178.818086 132.211798 
L 179.366424 132.251936 
L 180.40136 132.287672 
L 180.683451 132.584392 
L 181.175836 133.207644 
L 181.680555 133.427044 
L 182.504014 133.48904 
L 183.347901 133.643163 
L 183.737758 133.88019 
L 184.220624 134.334286 
L 184.194634 134.208146 
L 184.565726 134.378605 
L 185.345933 134.54022 
L 185.325381 134.482391 
L 185.702001 134.172934 
L 186.138648 134.12826 
L 186.262665 133.798334 
L 186.282868 133.803437 
L 186.981062 133.642511 
L 187.123442 133.744772 
L 187.975073 133.828039 
L 187.982842 133.874768 
L 188.037125 133.83575 
L 188.346541 133.720504 
L 188.754697 133.838663 
L 188.751998 134.046539 
L 188.779987 134.048871 
L 189.078987 133.949636 
L 189.225794 133.895762 
L 189.408892 134.17387 
L 189.477037 134.544805 
L 190.014306 134.497105 
L 190.424095 134.529716 
L 190.754055 134.612904 
L 190.998574 133.767396 
L 191.300243 133.30096 
L 191.299539 133.304604 
L 191.441971 133.354749 
L 191.086339 134.324959 
L 191.13328 134.693917 
L 191.638698 135.326432 
L 191.235595 136.171869 
L 191.406933 136.150677 
L 191.962103 135.905243 
L 193.33894 135.399435 
L 193.417019 135.312745 
L 194.072984 134.694278 
L 194.291327 134.485878 
L 194.392796 134.465742 
L 194.397478 134.486388 
L 194.635665 135.166037 
L 194.887772 135.313986 
L 194.886105 135.381057 
L 194.920948 135.423845 
L 194.953382 135.58356 
L 194.971918 135.577316 
L 195.185536 135.531288 
L 195.383313 135.335667 
L 195.71596 135.52605 
L 195.996851 135.871293 
L 195.959179 135.993379 
L 195.899939 136.391376 
L 196.03255 136.66173 
L 196.161361 136.8932 
L 196.186289 137.425934 
L 196.613482 138.987011 
L 197.020437 139.638557 
L 196.785985 139.727352 
L 196.9316 140.090661 
L 196.587643 140.291286 
L 196.554367 140.744312 
L 196.244674 140.858417 
L 195.385555 140.712396 
L 195.535519 140.911929 
L 195.44416 141.827989 
L 195.06145 141.967177 
L 195.175111 142.55937 
L 195.047531 142.539886 
L 194.854621 142.589344 
L 194.772578 142.787212 
L 194.967634 143.347992 
L 195.323874 143.433739 
L 195.372672 143.683553 
L 195.349575 144.065822 
L 195.442592 144.296995 
L 195.362406 144.49224 
L 195.235284 144.538736 
L 194.569441 145.072122 
L 194.574097 145.071321 
L 194.723552 145.11328 
L 194.785232 145.195689 
L 194.667291 145.336643 
L 194.786985 145.307704 
L 194.55817 145.521909 
L 194.556291 145.514332 
L 194.426957 145.632697 
L 194.484729 145.854642 
L 194.818171 145.712689 
L 194.978418 145.955202 
L 194.796236 146.279593 
L 195.025186 146.434055 
L 195.264928 146.513863 
L 195.394948 146.661479 
L 195.558261 146.894211 
L 195.415591 146.969405 
L 195.273315 147.219219 
L 195.454421 147.852719 
L 195.656508 147.907075 
L 195.927514 147.870856 
L 195.919135 147.95087 
L 195.740499 148.179066 
L 195.711011 148.34781 
L 195.94177 148.401592 
L 196.043032 148.542978 
L 196.146923 148.956553 
L 196.206306 149.207869 
L 196.034623 150.115409 
L 196.102591 151.234496 
L 195.865976 151.332122 
L 195.86218 152.051363 
L 196.112386 152.051263 
L 195.909453 152.156629 
L 195.056652 152.395868 
L 194.791697 152.571835 
L 194.519966 152.837391 
L 194.156682 152.741366 
L 193.092211 152.215755 
L 193.126488 153.023953 
L 193.225539 152.983986 
L 193.454186 152.917843 
L 193.374039 153.001039 
L 193.231887 153.520299 
L 193.298724 153.67793 
L 193.468641 153.682643 
L 193.372316 154.481536 
L 193.569376 155.863265 
L 193.721909 155.918797 
L 193.671104 155.981254 
L 192.646343 157.283601 
L 192.596643 157.529545 
L 192.270047 158.441188 
L 192.071113 158.676699 
L 192.063024 159.260968 
L 192.176814 159.149528 
L 192.616527 159.078452 
L 192.728266 158.805207 
L 193.389556 158.509181 
L 193.744354 158.851029 
L 194.033736 158.965949 
L 193.990013 159.040554 
L 193.143427 160.362463 
L 193.312942 160.857739 
L 193.797824 161.417506 
L 193.858092 161.553278 
L 193.927469 161.500035 
L 194.075917 161.325861 
L 194.488525 161.435572 
L 194.660649 161.421985 
L 194.888739 161.233338 
L 195.048554 160.996134 
L 195.059407 161.039574 
L 195.421858 161.228249 
L 195.460126 161.233679 
L 195.538054 161.011854 
L 195.713365 160.788109 
L 195.5951 160.348791 
L 195.933059 159.937682 
L 196.045135 159.555406 
L 196.299794 159.678336 
L 196.498944 159.827603 
L 196.553611 159.923649 
L 197.000752 159.94791 
L 197.030202 160.082314 
L 197.034853 160.308717 
L 197.01855 160.475867 
L 197.07855 160.8554 
L 197.176361 161.007084 
L 197.381579 161.141184 
L 197.515952 161.179238 
L 197.546024 161.185347 
L 197.481584 161.250377 
L 197.200973 161.585158 
L 197.294746 161.610469 
L 197.578695 161.819847 
L 197.62282 162.135917 
L 197.65407 162.127178 
L 198.116871 161.968484 
L 198.266231 161.777335 
L 198.62273 161.719733 
L 198.654339 161.582104 
L 198.838719 161.569417 
L 199.310736 161.89682 
L 200.006892 161.506676 
L 200.143688 161.513197 
L 200.138851 161.573435 
L 200.037987 161.869248 
L 199.629321 161.927077 
L 199.441529 161.919004 
L 199.25141 162.204256 
L 199.281766 162.410552 
L 199.265838 162.799625 
L 199.313638 162.804728 
L 199.436533 162.887718 
L 199.632357 162.968858 
L 199.949133 162.792034 
L 200.071073 162.709327 
L 200.093871 162.734205 
L 200.168361 162.789908 
L 200.122332 162.85773 
L 199.931392 163.235179 
L 199.756733 163.899228 
L 199.490564 164.062231 
L 199.494684 164.189144 
L 199.577211 164.431955 
L 199.528384 164.631141 
L 199.168952 164.66059 
L 199.017804 164.76047 
L 199.073499 165.127834 
L 199.170787 165.17277 
L 199.107652 165.296607 
L 198.934038 165.644146 
L 198.838732 165.982187 
L 198.371573 166.163661 
L 198.459615 166.293834 
L 198.721387 166.643727 
L 198.661348 166.658887 
L 198.379135 166.804341 
L 197.758955 167.386647 
L 197.817414 167.498186 
L 198.492446 167.794134 
L 198.773726 167.715574 
L 198.809213 167.69127 
L 198.859885 167.769334 
L 198.911153 168.138448 
L 198.810341 168.727289 
L 198.645295 168.899173 
L 198.549337 169.480968 
L 198.700066 169.72957 
L 199.121877 169.917331 
L 199.03504 170.005956 
L 198.851688 170.384943 
L 198.375499 170.463362 
L 198.157735 170.615308 
L 198.231845 170.972947 
L 198.769688 171.658535 
L 198.831165 171.919817 
L 199.188149 172.262069 
L 198.727723 173.061854 
L 198.363826 173.829439 
L 198.100646 174.030234 
L 197.887623 174.498329 
L 197.508213 175.345346 
L 197.253947 175.85136 
L 197.156961 176.119665 
L 197.155937 176.118992 
L 196.71524 177.364276 
L 196.71321 177.663945 
L 196.834208 178.10232 
L 196.831928 178.224753 
L 196.481164 178.979028 
L 196.944064 179.146426 
L 197.209179 179.207876 
L 197.023114 179.448037 
L 197.112923 179.487168 
L 197.334716 179.513988 
L 197.351058 179.449511 
L 197.5799 179.54287 
L 197.456712 179.582002 
L 197.557969 179.649675 
L 197.746966 179.932574 
L 197.595892 179.958678 
L 197.295455 179.956517 
L 197.286925 179.892996 
L 197.189606 179.994067 
L 197.205119 180.003692 
L 197.381955 180.101687 
L 197.545639 180.026394 
L 198.225367 180.192063 
L 198.306045 180.389378 
L 198.715272 180.464337 
L 198.547044 180.609919 
L 198.205008 181.073045 
L 198.06946 181.213204 
L 198.110583 181.219874 
L 197.960636 181.306287 
L 197.29155 181.381318 
L 196.980359 181.439799 
L 196.501812 181.94499 
L 196.585414 182.04492 
L 196.670087 182.105959 
L 196.82802 182.097433 
L 196.814575 182.181656 
L 196.580517 182.659928 
L 196.575161 182.658029 
L 196.335592 182.938227 
L 196.444722 183.496215 
L 196.574293 183.668177 
L 196.485098 183.713489 
L 196.241102 183.756816 
L 195.740331 183.488631 
L 195.212895 184.59798 
L 195.442121 184.935943 
L 195.974554 185.149943 
L 195.888965 185.710964 
L 195.903882 185.712013 
L 196.849531 187.092644 
L 197.328597 187.43323 
L 197.447163 187.808744 
L 197.529958 188.418571 
L 197.664016 188.965736 
L 198.076271 189.302885 
L 198.266265 189.380977 
L 199.686337 190.438855 
L 199.932791 191.32567 
L 200.331273 192.056541 
L 200.823998 192.414528 
L 200.954066 192.550661 
L 201.419316 193.387324 
L 202.603351 193.601529 
L 202.704699 193.59868 
L 203.211318 194.266711 
L 203.658118 194.705243 
L 204.1031 194.924225 
L 204.222194 195.188313 
L 204.543897 195.401172 
L 205.03819 195.504985 
L 205.326942 195.455024 
L 205.395506 194.983457 
L 205.425906 194.846111 
L 205.887588 194.224525 
L 206.572264 194.314291 
L 206.643938 194.337284 
L 206.721594 194.973399 
L 206.840212 195.477662 
L 207.021846 195.617871 
L 207.555876 196.115862 
L 208.277896 196.293005 
L 209.023165 196.481078 
L 209.042716 196.71768 
L 209.20751 197.479567 
L 209.174079 197.708727 
L 209.281538 197.759596 
L 210.094278 197.836448 
L 212.32719 197.955011 
L 212.452054 197.941098 
L 212.39848 197.27683 
L 213.521802 197.102132 
L 213.729931 196.992917 
L 213.894523 196.112949 
L 214.196658 195.778352 
L 214.842345 195.803506 
L 215.014676 196.000913 
L 215.216555 196.336254 
L 215.429932 196.471913 
L 216.439788 196.653522 
L 216.617612 196.70685 
L 216.565321 196.809331 
L 216.674222 196.957443 
L 217.636257 197.522384 
L 217.66591 197.469616 
L 217.89923 197.44522 
L 218.266142 197.594182 
L 218.591555 197.756399 
L 218.747854 197.998678 
L 219.002051 198.146868 
L 219.289978 198.208886 
L 219.427849 198.403139 
L 219.401069 199.173928 
L 220.37945 199.371725 
L 221.425532 199.273064 
L 221.863405 199.064813 
L 222.346772 198.986352 
L 222.348197 198.992022 
L 222.695964 200.782203 
L 222.785086 201.29833 
L 224.025874 201.355464 
L 224.268203 201.307828 
L 224.270099 201.342501 
L 224.39609 201.766396 
L 224.754222 201.790523 
L 225.396372 201.561625 
L 225.594205 200.985989 
L 225.900563 201.075981 
L 226.685422 201.240905 
L 227.361383 201.377954 
L 227.334512 201.484532 
L 227.181991 202.165782 
L 227.269057 202.178511 
L 228.052425 202.398798 
L 227.906758 203.705546 
L 227.954563 203.680158 
L 228.493883 203.49166 
L 229.136892 203.552593 
L 229.71458 203.666897 
L 230.016534 204.014741 
L 230.016638 203.844111 
L 230.049266 203.544563 
L 230.128916 203.574572 
L 231.044616 203.85263 
L 231.152666 204.362414 
L 230.686523 204.425991 
L 230.692586 205.177382 
L 230.689204 205.1769 
L 230.2321 205.119503 
L 230.340798 205.333921 
L 230.561357 205.576165 
L 230.878711 205.874678 
L 231.844957 205.982199 
L 232.443034 206.052871 
L 232.542149 206.089465 
L 232.54797 206.042154 
L 232.763437 205.63977 
L 233.45235 205.638593 
L 233.901884 205.568418 
L 233.978339 205.557616 
L 234.058961 205.431802 
L 234.207694 205.340725 
L 234.200175 204.971774 
L 234.317174 204.974269 
L 234.78613 205.018524 
L 234.77728 205.22224 
L 235.062931 205.22326 
L 235.116911 205.462648 
L 235.254795 205.570254 
L 235.320276 205.71468 
L 235.526466 205.734207 
L 235.596361 206.520653 
L 235.550949 206.646517 
L 234.398596 206.90295 
L 234.566612 207.600523 
L 234.854029 208.284304 
L 234.999994 208.604952 
L 235.074285 208.676673 
L 235.336886 209.468591 
L 235.534603 209.501031 
L 235.47192 209.655536 
L 235.751814 209.930958 
L 236.006896 210.818801 
L 235.920409 211.054255 
L 236.046218 211.467653 
L 235.979809 211.715631 
L 236.434672 211.777613 
L 236.38663 212.083335 
L 236.288962 212.064666 
L 235.956915 212.081684 
L 235.95435 212.105016 
L 236.030749 212.277241 
L 235.943873 212.700923 
L 235.432192 213.235805 
L 235.606786 213.296894 
L 235.763958 213.440264 
L 235.704243 213.419512 
L 235.525412 213.746532 
L 235.620926 213.797627 
L 236.14003 214.175169 
L 236.075426 214.370152 
L 235.806165 214.56758 
L 235.894535 214.715125 
L 235.888964 214.75931 
L 235.812484 214.683861 
L 235.786679 214.691466 
L 235.664947 214.822051 
L 235.784325 214.86822 
L 236.301106 215.190279 
L 236.320817 215.39999 
L 236.2891 215.432636 
L 236.386173 215.444834 
L 236.39237 215.463957 
L 236.562135 215.562823 
L 236.700452 215.620092 
L 237.140929 216.83952 
L 236.706157 216.745388 
L 236.631693 216.665594 
L 236.403836 216.685093 
L 236.303201 216.67215 
L 236.406717 217.395289 
L 236.327036 217.34379 
L 235.846023 217.108846 
L 235.746709 217.333215 
L 236.002957 218.02185 
L 236.025199 218.301425 
L 235.922987 218.307386 
L 235.82579 218.32361 
L 235.942853 218.406884 
L 236.082111 218.538843 
L 235.909694 218.675125 
L 234.421947 219.723654 
L 231.267597 221.666355 
L 231.295457 221.70801 
L 233.040139 224.545414 
L 233.222895 224.548824 
L 233.323487 224.489939 
L 233.270173 224.423279 
L 233.246558 224.377464 
L 233.47226 224.284537 
L 233.610304 224.358022 
L 233.551988 224.187393 
L 233.531668 224.196273 
L 233.366118 224.25518 
L 233.441691 223.827655 
L 233.468209 223.910376 
L 233.565147 223.875136 
L 233.684634 224.21636 
L 233.868703 224.039146 
L 233.850525 223.99129 
L 234.030401 223.926976 
L 234.063733 223.779409 
L 234.275615 223.60659 
L 234.313197 223.796392 
L 234.631821 224.234795 
L 235.101255 224.8567 
L 235.278216 225.138975 
L 235.2799 225.224652 
L 235.771775 225.092756 
L 236.050775 225.602945 
L 235.734258 225.828454 
L 235.740093 226.130143 
L 235.501335 226.548949 
L 235.198358 227.216506 
L 235.354502 227.446616 
L 235.416342 227.614503 
L 235.888524 227.574811 
L 236.133906 227.977245 
L 237.084086 228.017369 
L 237.386839 229.518455 
L 237.923235 230.383313 
L 238.054763 230.406908 
L 238.028474 231.080709 
L 238.012629 231.648293 
L 238.012102 231.783357 
L 237.795824 231.838804 
L 237.879771 232.219896 
L 237.795888 232.338148 
L 237.813608 232.367115 
L 237.755318 232.434484 
L 237.584749 232.61941 
L 237.62662 232.642261 
L 237.774502 232.705844 
L 237.443263 232.961137 
L 237.346415 232.934806 
L 237.128042 232.67541 
L 236.941606 232.699777 
L 237.001235 232.752659 
L 237.143741 233.084236 
L 237.10799 233.349218 
L 236.936445 234.030766 
L 237.076571 234.397442 
L 237.468877 234.787855 
L 237.808629 235.017114 
L 237.874827 235.251264 
L 237.747665 235.807168 
L 237.345616 236.457962 
L 237.356931 236.582054 
L 237.276529 236.520114 
L 237.074097 236.508214 
L 236.618715 236.952217 
L 236.665872 237.329666 
L 237.136002 237.454119 
L 237.24359 237.29663 
L 237.213359 236.820251 
L 237.250967 236.832434 
L 237.404995 236.657247 
L 237.834692 237.062757 
L 237.86881 237.411855 
L 237.795802 238.043158 
L 238.552697 239.579166 
L 239.464509 239.610551 
L 239.751412 239.656968 
L 239.67329 239.625534 
L 239.903639 239.655721 
L 239.909167 239.753481 
L 240.206888 239.835316 
L 240.443637 240.158247 
L 240.4569 240.294572 
L 240.673848 240.307528 
L 240.74382 239.85911 
L 240.673744 239.869734 
L 240.466756 239.858812 
L 240.457401 239.598586 
L 240.268206 239.455266 
L 240.307843 239.113283 
L 240.344051 239.142286 
L 240.51088 239.176378 
L 241.441103 239.264783 
L 241.439358 239.225886 
L 241.405301 238.451035 
L 242.335822 238.005239 
L 242.425082 237.972614 
L 242.718938 237.566509 
L 243.260681 237.338575 
L 243.196971 237.116659 
L 242.964229 236.581515 
L 242.926281 236.56527 
L 243.105115 236.574179 
L 243.463908 236.572953 
L 243.462854 236.66313 
L 243.668124 237.152757 
L 244.670634 236.890568 
L 245.291195 237.398403 
L 245.424713 237.421665 
L 245.598646 237.28293 
L 245.587538 237.264785 
L 245.269502 236.461966 
L 245.473575 236.648494 
L 245.590492 236.594422 
L 245.877581 236.024264 
L 245.938782 235.765308 
L 246.365983 235.474137 
L 246.436366 235.37768 
L 246.457187 235.396037 
L 246.672321 235.779044 
L 246.612523 235.982256 
L 246.839473 236.321821 
L 246.871458 236.418157 
L 247.208303 236.472449 
L 247.241807 236.637529 
L 247.3778 236.825191 
L 247.516065 236.810377 
L 247.520025 236.867015 
L 247.555681 237.025851 
L 247.530433 237.044967 
L 247.537819 237.095212 
L 247.595409 237.12043 
L 247.60688 237.294674 
L 247.290467 237.686242 
L 247.424477 237.675986 
L 247.626806 237.589835 
L 247.776546 237.263474 
L 247.846332 237.256039 
L 247.861029 237.333316 
L 248.251202 237.324513 
L 248.315616 237.370428 
L 248.230282 237.174445 
L 248.333038 237.028162 
L 248.361844 237.108125 
L 248.457465 237.20466 
L 248.629498 237.639151 
L 249.067557 237.553007 
L 249.129518 237.288026 
L 249.16307 237.331764 
L 249.620507 237.902333 
L 249.564536 237.87009 
L 249.175426 237.661435 
L 249.175728 237.752009 
L 249.086693 238.116417 
L 249.055559 238.11103 
L 249.161744 238.375161 
L 249.493376 238.503073 
L 249.746982 238.49308 
L 250.360109 238.727506 
L 250.49726 238.994323 
L 251.09484 238.939464 
L 251.575754 239.034411 
L 251.750775 240.559001 
L 251.809769 240.549347 
L 252.308939 240.582744 
L 252.350658 240.968125 
L 252.500794 241.383394 
L 252.654088 241.396053 
L 252.898123 240.686452 
L 253.154713 240.6527 
L 253.701189 240.231406 
L 254.325278 240.314347 
L 254.551675 240.332413 
L 254.44977 240.492227 
L 254.636923 240.815888 
L 254.600348 240.994619 
L 254.683993 241.003755 
L 254.78944 241.031893 
L 254.784391 241.391481 
L 254.833923 241.394458 
L 255.106176 241.403949 
L 255.918023 241.319888 
L 256.895618 241.423518 
L 257.204732 241.38854 
L 257.737458 241.332547 
L 257.962901 240.931354 
L 258.068438 241.042192 
L 258.558676 241.502121 
L 258.917378 241.058692 
L 259.49748 241.607281 
L 259.95002 241.796566 
L 260.426088 241.740573 
L 260.544663 241.743826 
L 261.185984 241.910132 
L 261.531501 241.57864 
L 261.632261 241.307712 
L 261.825141 241.227968 
L 262.289229 241.368737 
L 262.27052 241.409087 
L 262.092791 241.659468 
L 261.984278 241.694056 
L 261.987258 241.77329 
L 261.971628 241.840049 
L 262.042918 241.830339 
L 262.045811 241.846279 
L 262.036142 242.116364 
L 262.151258 241.86251 
L 262.603279 241.981775 
L 262.608194 241.9583 
L 262.833857 241.382289 
L 263.239974 241.288525 
L 263.624546 241.1944 
L 264.021378 241.167396 
L 264.472829 241.378405 
L 264.981137 240.903613 
L 265.194599 240.751801 
L 265.20423 240.640396 
L 265.099552 240.366555 
L 265.214159 240.41765 
L 265.614144 240.476535 
L 266.42323 240.698558 
L 266.48187 240.791251 
L 266.531618 240.772334 
L 267.257452 240.991876 
L 267.858785 240.818872 
L 267.926754 240.892152 
L 267.957499 240.870251 
L 268.286665 240.72503 
L 268.354676 240.734741 
L 268.349969 240.685559 
L 268.361884 240.413277 
L 268.718686 240.300022 
L 268.95113 240.24347 
L 269.910517 239.77848 
L 270.277727 239.423208 
L 270.581676 239.427241 
L 271.067772 239.779522 
L 270.981816 240.937315 
L 271.588898 241.076567 
L 272.283166 241.161457 
L 272.252076 241.097887 
L 272.161295 240.251068 
L 272.55428 239.926911 
L 272.610285 239.782761 
L 272.569909 239.786021 
L 272.420848 239.531317 
L 272.464242 239.512109 
L 272.913668 239.349389 
L 273.471957 239.479711 
L 273.440909 239.383963 
L 273.369399 239.097371 
L 272.972261 239.043306 
L 272.956584 238.868112 
L 273.257337 238.638562 
L 273.443401 238.619071 
L 273.978502 237.986272 
L 274.194876 237.863067 
L 274.111753 237.463078 
L 274.009472 237.366501 
L 273.914697 237.200939 
L 274.265155 237.221522 
L 274.132763 236.855696 
L 273.850054 236.767043 
L 273.884168 236.72239 
L 274.449962 236.283349 
L 274.960399 235.995609 
L 274.534066 235.448933 
L 274.623096 234.876522 
L 273.671547 233.898934 
L 273.925399 233.541997 
L 275.439033 234.092479 
L 275.555665 234.013528 
L 276.001303 233.718658 
L 276.098833 233.621755 
L 275.544678 232.913642 
L 275.444928 232.678925 
L 275.534874 232.64377 
L 275.90731 232.601598 
L 276.068675 232.499401 
L 276.44758 232.127402 
L 276.50302 231.756686 
L 276.981105 230.566218 
L 277.224039 230.537017 
L 277.423362 230.511643 
L 278.090988 230.626506 
L 278.253386 230.455359 
L 278.402926 230.499438 
L 278.277523 230.366416 
L 277.865696 229.771614 
L 277.924332 229.410892 
L 278.277419 229.008848 
L 278.473978 229.03053 
L 278.75116 229.190832 
L 281.827121 229.484179 
L 282.172357 229.798902 
L 282.844302 229.932477 
L 282.728792 230.081163 
L 283.197938 230.013305 
L 283.269106 229.851918 
L 283.584582 229.840571 
L 284.346745 229.995288 
L 286.313096 231.00964 
L 286.388008 231.605136 
L 286.54433 231.70788 
L 286.640266 231.761909 
L 287.03313 231.374402 
L 287.04847 231.067242 
L 287.074244 230.86824 
L 286.923455 230.86661 
L 286.93848 230.76931 
L 287.069359 230.629767 
L 287.64095 230.582485 
L 288.53756 229.750805 
L 288.890963 229.724325 
L 288.94895 229.730605 
L 288.932004 229.636239 
L 289.123074 229.200295 
L 289.669745 229.278174 
L 289.942003 229.492053 
L 290.122673 229.344997 
L 291.361617 228.984948 
L 291.593085 229.147647 
L 291.580241 229.014866 
L 291.62747 228.277254 
L 291.836722 228.154792 
L 292.305172 228.079131 
L 292.342879 228.208383 
L 292.414505 228.068783 
L 293.95057 227.960419 
L 293.950078 227.968527 
L 294.14015 228.087835 
L 294.2277 227.995893 
L 294.566091 228.285079 
L 295.45092 227.900414 
L 295.80139 227.740777 
L 295.874809 227.484578 
L 295.770943 226.909658 
L 296.143089 227.030943 
L 296.469051 226.924691 
L 296.714018 226.500562 
L 296.775496 226.378348 
L 296.814745 226.385953 
L 297.043543 226.391099 
L 297.368529 226.46849 
L 297.424132 226.774736 
L 297.51778 226.865862 
L 297.95222 226.903775 
L 298.125643 227.1438 
L 298.230615 227.577632 
L 298.583776 228.57323 
L 298.859895 228.537579 
L 299.380243 228.541675 
L 299.798993 228.324175 
L 299.913945 228.288779 
L 300.487789 228.276184 
L 300.946673 228.253992 
L 300.926898 228.37213 
L 301.038606 228.35434 
L 301.501895 228.452207 
L 301.938106 228.006858 
L 302.110881 227.538537 
L 302.255529 227.057011 
L 302.301627 226.782426 
L 302.177114 226.717658 
L 302.385657 226.71218 
L 302.456627 226.678974 
L 302.510715 226.728403 
L 302.780783 226.684708 
L 302.729446 226.658207 
L 302.66657 226.26588 
L 302.493544 226.008702 
L 302.342992 225.270261 
L 302.383161 225.269985 
L 302.838158 225.244171 
L 303.151431 225.57796 
L 303.377288 225.971435 
L 303.413466 226.042539 
L 303.779713 226.331257 
L 303.779502 226.309207 
L 303.914031 226.014216 
L 304.664477 225.396175 
L 304.769358 225.295734 
L 304.96111 224.992451 
L 305.181755 224.756501 
L 305.272276 224.559533 
L 305.331054 224.282474 
L 305.222092 223.675128 
L 305.003607 223.398778 
L 304.810516 222.979893 
L 304.900777 222.611828 
L 304.85543 222.348945 
L 304.819542 221.655199 
L 304.714277 221.244182 
L 304.928637 220.898245 
L 304.94117 220.634447 
L 304.770688 220.435715 
L 304.676315 220.099055 
L 304.571015 219.860894 
L 304.443293 219.615807 
L 304.115694 219.475903 
L 304.109842 219.263583 
L 304.189795 219.092939 
L 304.009419 218.737802 
L 303.713023 218.750695 
L 303.359495 218.426389 
L 302.845832 217.925146 
L 302.290925 217.462913 
L 301.993135 217.231371 
L 301.856637 216.990446 
L 301.59499 216.606079 
L 301.456414 216.27791 
L 301.090293 216.012071 
L 300.861171 215.408538 
L 300.697374 214.774407 
L 300.727596 214.41182 
L 300.646671 214.172093 
L 300.877746 214.028467 
L 300.911873 213.851175 
L 300.693474 213.746192 
L 300.347788 213.548607 
L 300.428592 213.296143 
L 300.532328 213.102435 
L 300.264476 211.713519 
L 299.96418 211.081103 
L 299.698979 210.992046 
L 299.557605 210.752581 
L 298.824412 210.67738 
L 298.684014 210.576458 
L 298.416865 210.544797 
L 298.209194 210.110469 
L 298.092195 209.745437 
L 297.86502 209.509033 
L 297.742631 209.35002 
L 297.739798 209.08759 
L 297.759297 208.888815 
L 297.865573 208.663355 
L 297.821699 208.344961 
L 297.850664 208.044101 
L 298.098595 207.909945 
L 298.305294 208.063181 
L 298.429117 207.9139 
L 298.447645 207.446323 
L 298.495418 207.466091 
L 298.674815 207.680593 
L 298.715765 207.579771 
L 298.530517 207.243692 
L 298.498342 207.088521 
L 298.778167 206.773252 
L 299.258947 206.717755 
L 299.993008 206.154664 
L 300.12853 205.937298 
L 300.236754 205.707103 
L 300.452229 205.560891 
L 300.498051 205.205279 
L 300.6482 204.805255 
L 300.861723 204.60872 
L 300.936796 204.427012 
L 301.086946 204.449721 
L 301.404793 204.501071 
L 301.417468 204.452684 
L 301.442819 204.141625 
L 301.715816 204.06461 
L 301.936167 203.833557 
L 302.250113 203.59266 
L 302.107763 203.282671 
L 302.180474 203.079382 
L 302.509458 202.630219 
L 302.903358 201.213242 
L 303.120781 201.054413 
L 303.333328 200.731851 
L 303.374131 200.210798 
L 303.396982 200.045512 
L 303.194878 199.783097 
L 303.071055 199.700262 
L 302.780507 198.786315 
L 302.824429 198.126768 
L 302.872691 198.127753 
L 303.096449 198.047428 
L 303.217836 197.755229 
L 303.278773 197.440882 
L 303.423676 197.037726 
L 303.270486 196.660085 
L 303.108637 196.378844 
L 303.25781 196.273939 
L 303.577609 196.106988 
L 303.620196 195.784029 
L 303.665698 195.678181 
L 303.999378 195.284061 
L 304.287559 194.948472 
L 304.267567 194.594816 
L 304.577118 194.358838 
L 304.575736 193.950961 
L 304.62262 193.557755 
L 304.470255 193.352467 
L 304.453662 192.917749 
L 304.522028 192.731271 
L 305.040752 192.054464 
L 304.937227 191.808521 
L 304.561682 191.119587 
L 304.266876 190.650792 
L 303.444872 190.011068 
L 302.984386 189.874509 
L 302.489838 189.720203 
L 302.065919 189.23373 
L 301.73186 188.611081 
L 301.726107 188.145184 
L 301.797565 187.73662 
L 301.607886 186.615725 
L 301.770089 186.221861 
L 302.729066 184.716465 
L 302.612283 184.037093 
L 302.073118 183.385526 
L 301.879721 183.063262 
L 301.909645 182.763792 
L 302.084559 182.554789 
L 302.686039 181.983094 
L 302.924494 181.437198 
L 303.18938 180.04091 
L 303.119287 179.898461 
L 302.678995 179.350836 
L 302.437054 178.802905 
L 302.034085 178.49033 
L 299.931094 177.986996 
L 298.770592 177.43482 
L 297.965755 177.309197 
L 297.820679 177.171433 
L 297.499158 176.468806 
L 297.098676 176.188494 
L 297.068505 175.764259 
L 297.299329 175.455674 
L 297.523494 175.101791 
L 297.416907 174.758547 
L 297.206368 174.328868 
L 297.147905 173.924457 
L 296.923106 173.689379 
L 296.504577 173.454669 
L 296.503095 173.151683 
L 296.554998 172.63355 
L 296.385695 172.237899 
L 296.119707 171.740724 
L 296.138265 170.654234 
L 296.051596 170.006849 
L 295.628727 169.290316 
L 295.324722 168.611398 
L 295.484437 168.069527 
L 295.874351 167.34276 
L 295.792256 166.944544 
L 295.76107 166.470007 
L 295.929126 166.045778 
L 296.419044 165.567258 
L 296.954788 165.503965 
L 297.255412 165.39149 
L 298.62245 163.651909 
L 298.866964 162.742866 
L 299.395363 162.27675 
L 299.693041 161.621348 
L 299.610989 161.250136 
L 299.337263 160.913299 
L 298.658706 160.381154 
L 298.541288 159.668214 
L 298.350326 158.901125 
L 298.553268 158.454223 
L 298.784753 157.984853 
L 298.975425 157.197209 
L 299.884715 156.218983 
L 299.748014 155.885237 
L 298.665301 154.903687 
L 298.400087 154.007764 
L 297.907875 153.36079 
L 297.121492 152.816666 
L 296.96375 152.615261 
L 296.145348 152.240413 
L 295.080039 151.603759 
L 294.401223 151.281367 
L 292.243116 149.634415 
L 291.837962 148.771181 
L 291.4784 148.57422 
L 290.921636 148.304249 
L 290.358943 147.210593 
L 290.053504 146.838268 
L 289.825163 146.426174 
L 287.321216 143.39947 
L 284.814673 142.107323 
L 284.36244 141.81068 
L 282.953855 140.462908 
L 282.464554 139.872919 
L 282.235475 139.671373 
L 281.65536 138.832251 
L 281.326565 138.694005 
L 278.203582 138.201395 
L 277.750563 137.813774 
L 277.575265 137.215458 
L 277.679632 136.645477 
L 278.169671 135.908 
L 279.083988 134.56682 
L 279.122498 133.401833 
L 278.825019 132.381329 
L 278.673176 131.553065 
L 278.575266 131.296696 
L 278.390298 128.904881 
L 278.712002 128.387613 
L 279.343488 128.189731 
L 279.897195 127.470675 
L 280.164041 127.395049 
L 280.794194 126.93967 
L 281.19087 126.694357 
L 281.68766 126.610438 
L 282.612389 126.173346 
L 283.591017 125.447698 
L 284.651355 124.505535 
L 284.851537 124.393329 
L 285.663841 123.462216 
L 285.856198 123.197071 
L 287.311222 121.93326 
L 287.402909 121.710989 
L 287.554631 121.486727 
L 288.230303 119.440084 
L 288.273313 118.777595 
L 288.2578 118.365551 
L 288.636308 117.703877 
L 288.724104 117.078953 
L 288.715337 116.81833 
L 288.885448 115.596337 
L 288.337965 114.762481 
L 288.228135 114.333171 
L 288.145958 113.940086 
L 288.102416 113.523399 
L 288.47223 112.132002 
L 288.631121 111.433727 
L 289.120698 111.231437 
L 289.602238 111.086287 
L 289.834276 110.772089 
L 290.137067 109.643363 
L 290.52727 109.129645 
L 290.862876 108.862367 
L 291.010188 108.489773 
L 291.085978 108.121275 
L 291.697171 107.087609 
L 291.481808 106.359481 
L 290.414806 106.085193 
L 290.042742 104.248695 
L 289.826191 103.929634 
L 290.169009 102.740655 
L 289.958967 102.440448 
L 289.629965 102.417406 
L 289.247609 102.546041 
L 288.714395 102.871183 
L 288.562639 103.359895 
L 288.353197 103.464729 
L 288.186848 103.410898 
L 287.893765 103.300861 
L 287.886954 103.402102 
L 287.905931 103.47865 
L 287.840527 103.488573 
L 287.376573 103.612026 
L 287.381592 103.636309 
L 287.215514 103.828152 
L 285.910208 103.688992 
L 285.914886 103.724112 
L 285.669555 104.602918 
L 285.248849 105.368157 
L 285.302648 105.525852 
L 285.258536 105.543401 
L 283.571703 106.213743 
L 283.715107 107.104145 
L 283.595102 107.48012 
L 282.866021 107.588477 
L 282.558193 107.607621 
L 281.723121 107.686741 
L 281.351441 107.720429 
L 280.897109 107.255851 
L 280.806891 107.350302 
L 280.73887 107.272195 
L 280.719639 107.248543 
L 280.669969 107.296718 
L 280.231871 107.275016 
L 278.92413 106.898417 
L 278.365168 107.036975 
L 277.524766 107.367674 
L 276.534193 107.279205 
L 276.937019 105.882896 
L 277.506701 105.237715 
L 279.140197 103.630199 
L 280.466772 102.294902 
L 281.755814 100.661261 
L 282.321656 99.475173 
L 282.764435 97.544089 
L 282.640539 96.043853 
L 282.713003 95.866022 
L 282.675011 95.844639 
L 281.966638 95.03004 
L 281.423033 95.565333 
L 281.405058 95.626727 
L 281.367338 95.661074 
L 281.067782 95.795195 
L 280.004209 95.863988 
L 279.523666 95.617577 
L 278.154231 94.560925 
L 277.972736 94.676476 
L 277.486221 94.570891 
L 276.585789 95.884784 
L 276.098116 96.087003 
L 275.802131 96.455005 
L 275.854487 96.61165 
L 275.794992 96.691784 
L 275.741802 96.624706 
L 275.312368 96.395631 
L 275.175956 96.418928 
L 274.583144 96.563241 
L 274.407997 96.371157 
L 274.216871 95.360399 
L 274.159091 95.385177 
L 272.524308 95.270285 
L 272.249216 94.995743 
L 270.659677 95.323153 
L 269.862056 95.311805 
L 268.641048 95.860352 
L 268.178748 95.448818 
L 268.203356 95.072942 
L 268.429468 94.871949 
L 268.414197 94.705061 
L 268.169502 94.282236 
L 268.196701 94.283597 
L 268.738764 93.964551 
L 268.546761 93.401637 
L 266.902628 92.206152 
L 267.136648 91.333838 
L 266.856785 91.189319 
L 266.807249 90.867381 
L 266.865353 90.73696 
L 266.937312 90.53177 
L 267.000003 90.262189 
L 267.063713 90.088504 
L 265.506672 89.266875 
L 264.678846 89.112738 
L 264.563566 89.091943 
L 264.627647 88.997449 
L 264.63432 88.834779 
L 263.571209 87.048263 
L 263.664969 86.455333 
L 263.708247 86.440158 
L 263.661514 86.347742 
L 263.618931 86.184674 
L 263.580684 86.222679 
L 263.473467 86.27668 
L 263.237668 86.236344 
L 262.85783 87.043954 
L 262.594832 88.399671 
L 262.76924 88.83013 
L 262.777666 89.431246 
L 262.791011 89.425909 
L 263.313255 89.706413 
L 263.402333 89.900396 
L 263.425689 89.972209 
L 263.707569 90.526476 
L 263.780871 90.429495 
L 264.158826 90.24622 
L 264.79417 90.493532 
L 263.619795 91.933119 
L 262.858323 92.198872 
L 262.673169 92.113784 
L 261.959886 91.981457 
L 261.43667 91.801613 
L 261.086748 91.356802 
L 260.95979 91.698706 
L 260.302339 91.651325 
L 260.135302 91.630331 
L 259.990642 91.622138 
L 259.745683 91.819623 
L 259.559683 92.1246 
L 258.572327 92.815277 
L 258.413536 92.864898 
L 257.319101 93.901208 
L 257.348572 93.897579 
L 257.432818 94.077174 
L 257.363213 94.085885 
L 257.256782 94.155628 
L 257.192661 94.396696 
L 257.074137 94.22939 
L 256.735405 94.121388 
L 256.446944 94.639223 
L 256.656187 94.793289 
L 256.633064 94.812617 
L 256.458017 95.209898 
L 256.41004 95.180158 
L 256.231477 95.191973 
L 256.505359 95.890581 
L 256.365423 96.18986 
L 255.903326 96.827436 
L 255.897163 96.810666 
L 255.590329 96.48327 
L 255.272379 96.61793 
L 255.244082 96.683704 
L 255.183093 96.669288 
L 254.926996 96.702196 
L 254.802625 96.823722 
L 254.326958 96.862492 
L 253.749413 96.95006 
L 253.674258 97.045412 
L 253.408525 97.437334 
L 252.989076 97.456152 
L 252.777017 97.718369 
L 252.80654 97.781032 
L 252.705391 97.784306 
L 252.644829 97.857969 
L 252.664034 97.889779 
L 252.770513 97.99759 
L 252.794676 97.984371 
L 253.071275 98.006364 
L 253.066084 98.160274 
L 253.042054 98.31339 
L 253.024939 98.494949 
L 252.953999 98.739327 
L 252.893139 98.787771 
L 252.85424 98.774141 
L 252.854776 98.858776 
L 252.87998 98.877197 
L 253.117744 98.971612 
L 253.108088 99.002302 
L 253.058085 99.167659 
L 252.678329 99.597578 
L 252.521762 100.018645 
L 252.020002 99.903116 
L 251.792494 99.781653 
L 251.482149 100.634419 
L 251.370043 100.853139 
L 251.463363 100.857314 
L 251.750538 100.937235 
L 251.70133 101.545623 
L 251.505332 101.85345 
L 251.65987 102.116142 
L 251.623208 102.136158 
L 251.578367 102.312904 
L 251.58855 102.321977 
L 251.673733 102.954244 
L 251.617533 103.193745 
L 251.376828 103.267634 
L 251.110716 103.288111 
L 251.115773 103.171454 
L 250.773599 102.60428 
L 250.770364 102.643497 
L 250.810667 102.940508 
L 250.930102 103.136157 
L 250.908434 103.157335 
L 250.964928 103.297622 
L 250.893975 103.454587 
L 250.590018 103.933171 
L 250.54788 104.305815 
L 250.513576 104.445351 
L 249.775675 105.17119 
L 249.384164 105.24914 
L 249.242803 105.270106 
L 249.041545 105.320081 
L 248.956578 105.339126 
L 248.950851 105.255108 
L 248.783807 104.852342 
L 248.683236 104.66714 
L 248.425368 104.664347 
L 248.222685 104.670506 
L 248.091339 104.632672 
L 248.083583 104.605058 
L 247.949719 104.615165 
L 247.951213 104.656536 
L 247.882644 104.873094 
L 247.933917 105.095826 
L 247.974884 105.187924 
L 247.871791 105.19784 
L 247.862433 105.335788 
L 247.887892 105.344463 
L 247.979661 105.38935 
L 247.986044 105.425632 
L 248.15533 105.454011 
L 248.181342 105.470462 
L 248.119726 105.567287 
L 247.745572 105.705448 
L 247.711588 105.656089 
L 247.647428 105.734791 
L 247.505255 106.134503 
L 247.441731 106.324113 
L 247.122969 106.782618 
L 246.974987 107.028037 
L 246.914313 107.136671 
L 246.679857 107.380474 
L 246.571448 108.189218 
L 246.591621 108.317279 
L 246.326221 108.389389 
L 246.17807 108.350336 
L 246.169683 108.435927 
L 245.938739 108.590922 
L 245.808408 108.536949 
L 245.696055 108.272116 
L 245.709655 108.038406 
L 245.578827 108.066005 
L 245.055357 106.98639 
L 244.923385 106.502341 
L 244.498131 106.100085 
L 243.938296 106.167361 
L 243.772176 106.233015 
L 243.800835 106.443704 
L 243.731912 106.437588 
L 243.358937 106.355966 
L 242.142273 105.971251 
L 241.945027 105.904414 
L 241.92095 105.965886 
L 241.806663 106.10197 
L 241.53111 106.332392 
L 241.468881 106.245496 
L 241.349662 106.311767 
L 240.918937 107.048365 
L 240.607935 107.100537 
L 239.972354 107.234332 
L 240.021994 107.306627 
L 239.947193 107.478299 
L 239.769041 107.655534 
L 239.669127 108.041992 
L 239.615699 108.154658 
L 239.685901 108.314571 
L 239.779959 108.21613 
L 239.774819 108.200565 
L 239.860119 108.256991 
L 239.892319 108.353639 
L 239.42919 108.98682 
L 239.532559 108.969023 
L 239.562497 108.994149 
L 239.492835 109.063353 
L 239.477068 109.325719 
L 239.415996 109.520405 
L 239.321286 109.718422 
L 239.321196 109.905842 
L 238.985988 110.455629 
L 237.737896 109.905587 
L 236.889825 108.024499 
L 236.865903 108.13236 
L 236.642676 108.315741 
L 236.63761 108.312551 
L 236.571006 108.305386 
L 236.444407 108.076637 
L 236.074744 108.14857 
L 235.908912 108.261229 
L 235.604769 108.299815 
L 235.639799 108.018936 
L 235.620455 108.022409 
L 234.908328 108.691567 
L 234.709347 108.997728 
L 234.612464 108.920685 
L 234.617344 108.908699 
L 234.582108 108.860659 
L 234.563714 108.861474 
L 234.040239 108.82089 
L 234.038667 108.831429 
L 233.945421 108.792234 
L 233.858899 108.81298 
L 233.857137 108.861545 
L 233.615046 109.265715 
L 233.683826 109.999407 
L 233.606408 110.321934 
L 233.668499 110.565482 
L 233.181699 110.645672 
L 233.033752 110.461703 
L 232.828952 110.558196 
L 232.86979 110.67941 
L 232.807635 110.684874 
L 232.699057 110.732135 
L 232.762042 110.919861 
L 232.649228 110.910873 
L 232.600612 111.079164 
L 232.520128 111.464481 
L 232.514474 111.630879 
L 232.485841 111.677616 
L 232.448121 111.625684 
L 232.138363 111.489167 
L 232.065904 111.37833 
L 232.018013 111.404632 
L 231.553921 111.622906 
L 231.320436 111.667594 
L 230.309539 112.436207 
L 230.240176 112.670697 
L 229.955083 112.688516 
L 229.907663 112.663149 
L 229.869187 112.69235 
L 229.886894 112.819419 
L 229.943547 113.044007 
L 230.004683 113.075838 
L 229.931338 113.129591 
L 229.880563 113.388088 
L 229.328977 113.838179 
L 229.374833 113.918518 
L 229.318927 113.962249 
L 229.137618 113.978728 
L 229.159069 113.942262 
L 229.166851 113.837094 
L 228.563894 113.907702 
L 228.385642 114.013189 
L 228.352604 114.198235 
L 228.054066 114.258502 
L 227.757364 114.058238 
L 227.650536 113.904399 
L 227.581181 113.45153 
L 227.447317 113.262316 
L 227.266345 113.277477 
L 226.976907 113.481284 
L 226.721531 113.602144 
L 226.618689 113.525199 
L 226.65066 113.369348 
L 226.876012 113.15352 
L 227.32194 112.998525 
L 227.427628 112.969657 
L 227.362692 112.862087 
L 227.459008 112.684624 
L 227.775745 112.498848 
L 228.221707 112.19728 
L 228.164609 112.173628 
L 228.055384 111.863916 
L 228.070309 111.817421 
L 228.002125 111.776603 
L 227.031211 111.65682 
L 226.326137 112.054753 
L 226.413384 112.113595 
L 226.647244 112.457513 
L 226.575704 112.655657 
L 225.736257 112.535655 
L 225.619508 112.607156 
L 225.594421 112.537703 
L 225.659616 112.44131 
L 226.081061 112.133739 
L 225.963479 111.985272 
L 225.694892 111.952605 
L 225.40865 111.996407 
L 225.237101 112.043831 
L 225.036236 112.102234 
L 224.836377 112.130216 
L 224.795017 112.385395 
L 224.259708 112.616086 
L 224.149554 113.040045 
L 224.146229 113.036785 
L 224.016775 113.025161 
L 223.84621 113.096031 
L 223.469283 112.786978 
L 223.222838 112.5501 
L 223.012943 112.519027 
L 222.787578 112.152634 
L 222.683919 111.823608 
L 222.396179 111.551185 
L 222.094074 111.805386 
L 222.008424 111.844134 
L 221.824891 111.891374 
L 221.55138 111.870742 
L 221.45176 111.881444 
L 221.44165 111.902757 
L 221.261385 112.064123 
L 221.256687 111.95342 
L 221.103898 111.952052 
L 220.983919 112.204821 
L 220.97066 112.166697 
L 220.890427 111.856361 
L 220.970915 111.843107 
L 220.675345 111.98506 
L 220.644081 112.093204 
L 220.621455 112.096393 
L 220.403048 112.199725 
L 220.41609 112.22191 
L 220.432756 112.272438 
L 220.342728 112.3049 
L 219.420628 112.439049 
L 219.247248 112.46757 
L 218.856143 112.389534 
L 218.37487 111.896817 
L 218.139533 111.779466 
L 217.813334 111.63616 
L 217.85235 111.610608 
L 218.362739 110.951677 
L 218.557946 109.899903 
L 218.144029 109.844689 
L 217.995559 109.97645 
L 217.420691 110.055691 
L 217.162258 110.075706 
L 217.033006 110.064437 
L 217.017308 110.005311 
L 216.624216 109.866385 
L 215.692788 109.77036 
L 215.065758 109.610454 
L 214.553999 109.190131 
L 214.566697 109.174184 
L 214.801861 108.975848 
L 214.593637 108.809464 
L 214.614436 108.800059 
L 214.776337 108.568283 
L 214.826365 108.593771 
L 214.887679 108.40944 
L 215.040718 108.309964 
L 215.047852 108.308157 
L 214.970197 108.225302 
L 214.88269 108.136159 
L 214.846469 108.154623 
L 214.722521 108.22085 
L 214.699377 108.185986 
L 214.569655 107.833407 
L 213.810709 107.740934 
L 213.419794 107.812591 
L 212.978033 107.757463 
L 212.977144 107.845187 
L 212.722688 108.010749 
L 212.484332 108.089983 
L 212.337041 108.244906 
L 212.24671 108.268154 
L 212.118811 108.413084 
L 211.921993 108.466093 
L 211.830189 108.361705 
L 211.656947 108.207355 
L 210.578457 107.804192 
L 208.963311 107.089686 
L 208.508401 107.082053 
L 207.523369 107.259961 
L 207.423066 107.706367 
L 206.725869 107.700917 
L 205.809099 107.719068 
L 205.133699 108.106412 
L 205.134118 108.075311 
L 205.03686 107.92267 
L 204.92079 107.863254 
L 204.780962 107.633335 
L 204.641207 107.455008 
L 204.511144 106.542231 
L 204.33896 106.313453 
L 203.03523 105.87673 
L 202.80822 105.489776 
L 203.090786 104.896845 
L 202.842476 104.385027 
L 202.320137 104.354741 
L 201.803472 104.094941 
L 201.495235 104.038728 
L 200.912386 103.56344 
L 200.333639 103.325101 
L 200.064037 103.142089 
L 199.912989 103.035327 
L 199.296078 102.862833 
L 199.204651 102.612424 
L 197.936106 102.619441 
L 197.590606 102.835829 
L 197.298098 102.806982 
L 197.188704 102.844901 
L 196.985075 102.777143 
L 197.037893 102.611219 
L 197.000795 102.492075 
L 196.654 102.276821 
L 196.445707 102.078081 
L 195.821821 100.696543 
L 195.604437 100.451358 
L 195.3614 100.579171 
L 195.003203 100.788542 
L 194.031745 100.812215 
L 193.897389 101.06794 
L 193.855842 101.218625 
L 193.922481 101.240951 
L 193.968216 101.328697 
L 193.833083 101.510213 
L 193.117035 101.69818 
L 192.637438 100.840282 
L 192.529599 100.397087 
L 192.437869 100.192394 
L 191.974597 100.342299 
L 191.956718 100.264689 
L 191.913098 100.196788 
L 191.905325 100.384967 
L 191.78738 100.826248 
L 191.705021 101.002024 
L 191.700918 101.103236 
L 191.603099 101.093314 
L 190.56552 101.006276 
L 190.565607 101.053835 
L 190.496464 101.463009 
L 189.390563 101.057946 
L 189.317749 99.854948 
L 189.233317 99.646781 
L 189.118655 99.645144 
L 188.652144 99.57796 
L 188.48725 99.537014 
L 188.264964 99.571651 
L 187.827238 99.533271 
L 187.946569 99.661311 
L 188.018537 99.88899 
L 187.929307 100.122828 
L 187.973924 100.252944 
L 188.116745 100.363867 
L 188.307975 101.057712 
L 187.301353 101.619038 
L 186.578581 102.08059 
L 186.488276 102.122195 
L 186.559324 102.198431 
L 186.642632 102.428923 
L 186.76766 103.201272 
L 186.720715 103.568983 
L 186.859174 104.314681 
L 186.574612 104.576856 
L 185.955909 104.630581 
L 185.654503 104.954632 
L 185.138284 104.659924 
L 185.071559 104.701033 
L 184.908052 104.712232 
L 184.73297 104.768154 
L 184.748042 104.798489 
L 184.697426 104.958388 
L 184.551755 105.272374 
L 184.415412 105.535116 
L 184.290687 105.652063 
L 184.16838 105.836415 
L 184.169978 105.838966 
L 184.056438 105.995321 
L 183.948945 106.154157 
L 183.873626 106.435043 
L 183.824392 106.418387 
L 183.537282 106.419663 
L 183.533525 106.397833 
L 183.414932 106.3653 
L 181.700175 106.225672 
L 181.242733 106.039903 
L 181.124313 106.702463 
L 180.817769 107.065283 
L 180.713255 107.176135 
L 180.064968 107.778945 
L 180.069287 107.782844 
L 180.022558 107.97485 
L 179.636074 108.157855 
L 179.286472 107.99101 
L 179.118429 107.982221 
L 178.96317 107.98782 
L 178.054204 107.854359 
L 177.471381 107.846343 
L 177.070083 107.857442 
L 177.419033 108.323842 
L 178.055245 108.526232 
L 178.687928 109.381053 
L 178.487715 109.441001 
L 178.482939 109.618712 
L 178.013427 109.603048 
L 177.865756 109.721363 
L 177.571541 109.753272 
L 177.371838 109.720038 
L 177.059826 109.757482 
L 176.890544 109.711936 
L 176.720585 109.626628 
L 175.856097 109.717096 
L 174.326713 110.383639 
L 174.15703 110.434664 
L 174.165464 110.377402 
L 174.118947 110.266082 
L 174.054766 109.39211 
L 173.565984 109.464745 
L 173.563945 109.345537 
L 173.239642 109.215498 
L 173.291471 108.969037 
L 173.0199 108.778214 
L 172.855179 108.517684 
L 172.63643 108.558871 
L 172.532676 108.693495 
L 171.266809 108.554002 
L 171.078698 108.79918 
L 170.187158 108.841019 
L 169.799563 108.690745 
L 169.51396 108.916276 
L 169.396944 109.244756 
L 169.244808 109.514423 
L 168.81362 109.655731 
L 167.715501 110.722113 
L 167.417771 110.747487 
L 167.136021 110.706542 
L 166.822437 110.846212 
L 166.625018 110.973281 
L 166.482608 111.078172 
L 166.637888 111.192837 
L 166.839155 111.51345 
L 166.828189 111.52046 
L 166.798783 111.636195 
L 166.747749 112.074237 
L 166.847844 112.474644 
L 166.817669 112.476954 
L 166.727329 112.690181 
L 167.183017 112.882124 
L 167.041436 113.481553 
L 167.254622 113.780053 
L 167.114958 114.138174 
L 166.736347 115.149152 
L 166.560147 115.183343 
L 166.518389 115.032034 
L 166.455732 115.09065 
L 166.625342 116.06553 
L 166.311275 116.262866 
L 166.389215 116.547204 
L 165.861935 116.649324 
L 165.784837 116.936369 
L 165.354314 116.942415 
L 164.69685 116.920195 
L 164.399315 117.232012 
L 164.32305 117.139121 
L 164.261378 116.84654 
L 163.561236 116.677122 
L 163.198544 116.765109 
L 163.143501 116.825829 
L 162.929154 116.146131 
L 162.613445 115.91746 
L 162.442232 115.877457 
L 161.920295 115.982972 
L 161.926332 116.012478 
L 161.877315 116.084766 
L 161.498319 116.050397 
L 161.183461 115.90624 
L 160.802617 115.85837 
L 160.841883 115.914483 
L 160.651651 116.099317 
L 160.527996 116.115604 
L 159.935771 115.95937 
L 159.772143 115.875983 
L 159.652656 116.716452 
L 159.823773 117.286531 
L 159.953508 117.5421 
L 160.029825 117.619916 
L 159.903653 117.673003 
L 159.559755 117.979455 
L 159.539367 117.961104 
L 159.401245 117.834624 
L 158.634862 117.851053 
L 158.359214 117.648827 
L 156.958032 117.639953 
L 157.009364 117.562059 
L 157.03608 117.529498 
L 156.935747 117.487489 
L 156.638393 117.365488 
L 155.593693 117.527038 
L 155.222073 117.487446 
L 155.22219 117.451788 
L 155.130132 117.352007 
L 154.192787 117.160972 
M 198.158582 179.94519 
L 198.171728 179.889481 
L 198.265039 179.976738 
L 198.252324 180.008583 
L 198.158582 179.94519 
M 232.885372 166.946259 
L 233.306161 166.631444 
L 233.387668 166.534094 
L 233.42972 166.554294 
L 233.585994 166.637936 
L 233.735077 166.448091 
L 233.940804 166.268439 
L 233.990345 166.001204 
L 234.132323 165.774517 
L 234.387263 165.529956 
L 233.919681 164.922935 
L 233.837371 164.649342 
L 233.935963 164.24885 
L 233.900718 163.55733 
L 234.088622 163.257279 
L 234.346162 162.809725 
L 234.624129 162.665447 
L 236.360999 160.596046 
L 236.242678 160.52821 
L 234.93669 159.924237 
L 234.139316 160.040872 
L 234.598441 157.673128 
L 234.705995 157.280071 
L 234.794447 157.360765 
L 235.020849 157.523825 
L 235.386496 157.444478 
L 235.416567 157.162366 
L 235.489653 156.599877 
L 235.672686 156.145682 
L 235.53123 155.341736 
L 234.756667 155.563603 
L 234.639513 155.062119 
L 234.693242 155.077627 
L 234.941181 155.04508 
L 235.205773 154.913851 
L 235.552806 154.6936 
L 235.992523 154.294958 
L 236.253423 154.310913 
L 236.616059 154.508965 
L 237.069804 154.666079 
L 237.312755 154.837452 
L 237.997211 155.112102 
L 238.010711 155.049113 
L 238.024376 154.986195 
L 238.492178 154.938382 
L 238.489919 154.645007 
L 237.781023 153.77421 
L 237.858696 153.61424 
L 238.045145 153.438039 
L 238.594139 152.166687 
L 238.594597 152.155184 
L 238.70092 152.163554 
L 238.92093 152.209986 
L 239.497577 152.166687 
L 239.65075 152.208037 
L 239.892747 152.22297 
L 240.481577 152.258239 
L 240.488708 152.165184 
L 240.438783 151.471119 
L 240.391579 151.278525 
L 240.413993 151.283713 
L 241.00963 151.312525 
L 241.337393 151.099 
L 241.384078 150.432365 
L 241.244726 150.423342 
L 241.281996 149.857161 
L 241.363746 149.879388 
L 242.27041 149.944538 
L 242.40785 150.035963 
L 242.130012 150.31361 
L 242.078697 150.437581 
L 242.378469 151.272522 
L 242.331179 151.500987 
L 242.276042 151.514737 
L 242.312043 151.613172 
L 242.445017 152.073363 
L 242.138939 152.235076 
L 242.482447 152.172371 
L 242.775241 152.234396 
L 243.732974 152.512008 
L 244.003846 152.486719 
L 244.725461 152.418684 
L 244.850972 152.356758 
L 244.854699 152.358388 
L 245.000958 152.342257 
L 245.318843 151.932658 
L 245.304514 151.928894 
L 245.357595 151.813336 
L 245.909682 151.387754 
L 245.9006 151.379263 
L 245.898259 151.219463 
L 245.9257 151.227912 
L 246.081832 150.852985 
L 246.249969 150.739348 
L 246.350535 150.838243 
L 246.779667 151.108895 
L 246.981309 151.158076 
L 247.095562 151.395827 
L 247.396626 151.648433 
L 247.397606 151.640665 
L 247.651414 151.508337 
L 247.824488 151.47219 
L 247.816568 151.419967 
L 247.846902 151.012728 
L 248.081311 150.839653 
L 248.215231 150.65117 
L 249.137071 150.572028 
L 249.54616 150.19706 
L 249.52692 150.170353 
L 249.376537 150.134284 
L 248.880659 149.951109 
L 248.5381 149.720581 
L 248.633216 149.61576 
L 249.03102 149.327928 
L 249.19214 149.405 
L 249.606519 148.844815 
L 249.664092 148.906826 
L 249.682218 148.92424 
L 249.777809 148.810475 
L 249.62578 149.159949 
L 249.619959 149.445513 
L 249.641945 149.427312 
L 250.066612 149.20176 
L 250.163814 149.14493 
L 250.144241 149.263919 
L 250.120013 150.074896 
L 250.510112 150.435143 
L 251.379337 150.872044 
L 251.495723 150.834848 
L 251.520979 150.91591 
L 251.631738 150.973044 
L 251.657961 150.970259 
L 251.653133 151.055935 
L 251.486999 151.825456 
L 251.297229 152.13246 
L 250.915889 152.353987 
L 250.787903 152.864933 
L 250.519523 153.806005 
L 250.619368 153.796338 
L 251.092711 154.714069 
L 251.962104 154.749147 
L 252.968303 155.218757 
L 253.480048 155.76746 
L 253.773913 156.051486 
L 253.993793 156.103503 
L 254.131198 156.209755 
L 254.2233 156.32167 
L 254.424938 157.570505 
L 254.43865 157.744912 
L 254.439474 157.745217 
L 256.608478 158.349651 
L 256.553271 158.438722 
L 256.347712 158.556598 
L 256.075868 158.565394 
L 256.054586 158.549638 
L 256.072331 158.67828 
L 256.137147 159.114663 
L 256.228851 159.098957 
L 256.837496 159.120093 
L 257.209176 159.136565 
L 257.463092 159.254263 
L 257.401045 159.518437 
L 256.254876 160.780454 
L 256.019189 161.661203 
L 256.265751 161.743583 
L 256.190069 161.846575 
L 255.590325 162.835382 
L 255.66557 163.012511 
L 255.678578 163.059645 
L 255.63353 163.116042 
L 255.473369 163.33014 
L 255.565268 163.359937 
L 255.679585 163.341098 
L 255.745709 163.29955 
L 255.891402 163.424003 
L 255.965343 163.627676 
L 255.985209 163.462936 
L 256.071131 163.465225 
L 256.054482 163.359122 
L 256.165297 163.122314 
L 256.253818 163.085593 
L 256.611708 162.896478 
L 257.02556 162.751187 
L 257.342202 162.889894 
L 258.393199 163.452241 
L 258.692876 163.710184 
L 259.183222 163.998881 
L 259.375808 164.449093 
L 259.5275 164.395786 
L 259.446048 164.081956 
L 259.261275 163.498247 
L 259.407521 163.574277 
L 259.897469 163.869565 
L 260.020657 163.954668 
L 260.390519 164.54645 
L 260.71404 164.768253 
L 260.876589 164.800055 
L 261.738956 165.064888 
L 261.702743 165.146737 
L 261.649804 165.270148 
L 261.760398 165.291596 
L 261.766177 165.292786 
L 261.742402 165.388102 
L 261.690405 165.614703 
L 261.942572 165.664998 
L 261.905081 165.743721 
L 261.78296 165.757797 
L 261.652568 165.737945 
L 261.661244 165.699409 
L 261.732728 165.388591 
L 261.689886 165.390186 
L 261.352346 165.5114 
L 261.184313 165.775432 
L 261.043305 165.989155 
L 260.460323 165.83628 
L 260.286182 165.705079 
L 260.876503 166.008107 
L 261.022113 166.111474 
L 261.0855 166.333618 
L 261.083837 166.440763 
L 260.936188 166.447468 
L 260.880774 166.518997 
L 260.588477 167.179204 
L 260.731103 167.439061 
L 260.941176 167.86168 
L 260.794326 168.032048 
L 260.598669 168.362236 
L 260.379212 168.390452 
L 260.274392 168.460238 
L 260.266096 168.456092 
L 259.945951 168.394917 
L 259.706645 168.627395 
L 259.545448 168.742209 
L 259.307723 168.965415 
L 258.988641 169.265608 
L 258.704278 169.481557 
L 258.857269 169.524558 
L 259.138264 169.673783 
L 259.250893 169.648841 
L 259.219374 169.761656 
L 259.180791 169.936645 
L 259.276248 169.931379 
L 259.32803 169.954187 
L 259.307231 170.039183 
L 259.105865 170.384851 
L 258.856488 170.619235 
L 258.21486 170.639676 
L 257.908074 170.924489 
L 257.833822 171.27195 
L 257.731977 171.355018 
L 257.436372 171.840732 
L 257.313111 172.156986 
L 257.191668 172.405956 
L 257.146377 172.681378 
L 256.947793 172.676608 
L 256.746954 172.456931 
L 256.550995 172.107053 
L 256.8718 170.870402 
L 257.023863 170.603968 
L 256.863262 170.431339 
L 256.814503 170.359413 
L 256.825564 169.932109 
L 256.818049 169.933888 
L 256.382231 169.958546 
L 256.213822 169.659303 
L 256.139876 169.701467 
L 255.233739 170.207424 
L 255.27462 170.080703 
L 255.192072 169.688298 
L 254.716829 168.987139 
L 254.666943 168.776322 
L 254.6487 168.782935 
L 253.320449 169.177203 
L 252.196405 169.118056 
L 252.203362 168.690263 
L 252.323454 168.292861 
L 252.178616 168.38968 
L 251.860549 168.459735 
L 251.403989 168.227966 
L 251.195057 168.272718 
L 249.789603 168.625134 
L 249.570112 167.777542 
L 249.089479 166.843685 
L 248.484561 167.082081 
L 247.552269 167.494777 
L 247.140269 167.716446 
L 247.215843 168.116597 
L 247.476976 169.472995 
L 247.129304 170.022654 
L 245.837633 169.846744 
L 245.656915 169.160341 
L 245.064551 169.157988 
L 245.057495 168.730932 
L 244.12928 168.040411 
L 243.891403 167.677562 
L 243.898119 167.507046 
L 243.84882 167.534369 
L 242.547216 168.401105 
L 242.497658 168.315124 
L 241.885925 167.185902 
L 241.723748 167.314799 
L 240.770156 168.038923 
L 240.399888 167.949128 
L 240.106836 167.89125 
L 239.853144 167.957747 
L 239.838979 167.842961 
L 239.649813 166.841623 
L 238.323829 167.058046 
L 237.721576 167.237947 
L 237.257013 167.419612 
L 235.949802 168.239548 
L 235.884762 168.596003 
L 236.052701 168.573549 
L 236.468518 168.509448 
L 236.477959 168.577518 
L 236.48797 168.646553 
L 236.166871 168.74802 
L 235.593182 168.691425 
L 235.255301 168.541683 
L 235.254536 168.532901 
L 235.157801 168.574414 
L 234.70048 169.020572 
L 234.75418 169.076621 
L 234.821716 169.237569 
L 234.746721 169.225938 
L 234.731096 169.241354 
L 234.653138 169.17502 
L 234.543196 169.07604 
L 234.657712 168.924299 
L 234.851809 168.812505 
L 235.070882 168.621809 
L 234.925664 168.591247 
L 234.905763 168.523808 
L 235.015692 168.504316 
L 235.034276 168.489702 
L 234.894059 168.433496 
L 234.835907 168.382656 
L 234.793312 168.432504 
L 234.458963 168.559643 
L 233.688149 167.665442 
L 233.756079 167.682637 
L 233.898226 167.594969 
L 233.891731 167.560147 
L 233.749307 167.401439 
L 233.695621 167.403516 
L 233.706612 167.50156 
L 233.644154 167.66097 
L 233.578691 167.643648 
L 233.430864 167.474039 
L 233.402205 167.360741 
L 233.304545 167.387632 
L 233.23542 167.410051 
L 233.283237 167.503672 
L 233.329931 167.610498 
L 233.301583 167.637467 
L 233.276081 167.670191 
L 232.964963 167.435446 
L 232.885372 166.946259 
M 250.812187 152.816177 
L 250.899128 152.7526 
L 250.812187 152.816177 
" style="fill:none;stroke:#ffc0cb;"/>
    <path clip-path="url(#pef6f09d2ec)" d="M 195.30206 135.644373 
L 195.309018 135.647435 
L 195.323278 135.653707 
L 195.330728 135.654884 
L 195.339089 135.653764 
L 195.348556 135.649327 
L 195.374598 135.622755 
L 195.377133 135.624995 
L 195.426609 135.579506 
L 195.477751 135.534789 
L 195.439142 135.50663 
L 195.416019 135.534655 
L 195.407999 135.525207 
L 195.379577 135.561489 
L 195.349307 135.600351 
L 195.337353 135.591094 
L 195.333712 135.590648 
L 195.32878 135.596431 
L 195.330521 135.599415 
L 195.318644 135.617723 
L 195.30206 135.644373 
" style="fill:none;stroke:#ffc0cb;"/>
    <path clip-path="url(#pef6f09d2ec)" d="M 197.113005 180.394778 
L 197.127797 180.39991 
L 197.153864 180.408763 
L 197.186402 180.346561 
L 197.165391 180.337978 
L 197.146441 180.330663 
L 197.113005 180.394778 
" style="fill:none;stroke:#ffc0cb;"/>
    <path clip-path="url(#pef6f09d2ec)" d="M 197.223513 180.172118 
L 197.225184 180.183614 
L 197.233273 180.189306 
L 197.243846 180.187789 
L 197.248052 180.194671 
L 197.255955 180.211696 
L 197.261267 180.23281 
L 197.264286 180.23972 
L 197.269464 180.244951 
L 197.277933 180.245497 
L 197.298672 180.254059 
L 197.316025 180.253315 
L 197.322537 180.330741 
L 197.328743 180.365889 
L 197.340918 180.415418 
L 197.381182 180.410216 
L 197.450247 180.416566 
L 197.474276 180.415141 
L 197.498751 180.403461 
L 197.522176 180.397564 
L 197.545493 180.404886 
L 197.569082 180.406551 
L 197.571945 180.431415 
L 197.574208 180.451998 
L 197.400046 180.748271 
L 197.576778 180.452777 
L 197.574808 180.432379 
L 197.631047 180.451261 
L 197.666828 180.462409 
L 197.690443 180.423597 
L 197.720553 180.440069 
L 197.721715 180.43532 
L 197.734679 180.420188 
L 197.749303 180.392227 
L 197.748987 180.361502 
L 197.757374 180.347496 
L 197.740747 180.334951 
L 197.71927 180.322874 
L 197.694191 180.317926 
L 197.628417 180.297592 
L 197.59787 180.305927 
L 197.569487 180.315091 
L 197.563523 180.309499 
L 197.533085 180.303354 
L 197.503415 180.297967 
L 197.471569 180.305502 
L 197.435274 180.299066 
L 197.417809 180.293573 
L 197.397627 180.293786 
L 197.384157 180.289845 
L 197.375844 180.28937 
L 197.3707 180.285479 
L 197.361639 180.276584 
L 197.35507 180.268894 
L 197.346727 180.264038 
L 197.342598 180.260969 
L 197.335684 180.260346 
L 197.32731 180.253272 
L 197.321998 180.249976 
L 197.315938 180.25133 
L 197.307219 180.250402 
L 197.299423 180.252053 
L 197.278607 180.242648 
L 197.26949 180.241103 
L 197.266985 180.237906 
L 197.26531 180.235652 
L 197.257843 180.210746 
L 197.250073 180.19253 
L 197.244519 180.185322 
L 197.233329 180.186265 
L 197.226696 180.18136 
L 197.225616 180.172366 
L 197.230121 180.165151 
L 197.227693 180.16323 
L 197.223513 180.172118 
" style="fill:none;stroke:#ffc0cb;"/>
    <path clip-path="url(#pef6f09d2ec)" d="M 197.821223 180.523598 
L 197.822778 180.524732 
L 197.8227 180.54209 
L 197.861512 180.550708 
L 197.906613 180.533528 
L 197.952413 180.54333 
L 198.010829 180.556641 
L 198.056128 180.552353 
L 198.072764 180.525377 
L 198.039993 180.495821 
L 198.047313 180.45742 
L 198.015666 180.442344 
L 197.977065 180.446498 
L 197.929895 180.427644 
L 197.946078 180.423682 
L 197.955583 180.426609 
L 197.963158 180.425702 
L 197.973649 180.41753 
L 197.98765 180.400789 
L 197.992185 180.396444 
L 197.997622 180.389427 
L 197.999937 180.380475 
L 198.013165 180.369419 
L 198.028449 180.366789 
L 198.03941 180.358355 
L 198.045318 180.35569 
L 198.058758 180.35457 
L 198.058844 180.352762 
L 198.045145 180.353797 
L 198.037527 180.35681 
L 198.027421 180.364039 
L 198.012651 180.366917 
L 198.000878 180.375741 
L 197.997795 180.38022 
L 197.995484 180.38801 
L 197.991757 180.395062 
L 197.985892 180.399626 
L 197.971852 180.416495 
L 197.962562 180.42364 
L 197.956611 180.424327 
L 197.947788 180.420755 
L 197.930578 180.42437 
L 197.925775 180.426985 
L 197.906518 180.438488 
L 197.888768 180.449581 
L 197.847679 180.457271 
L 197.838753 180.469752 
L 197.833993 180.480058 
L 197.821223 180.523598 
" style="fill:none;stroke:#ffc0cb;"/>
    <path clip-path="url(#pef6f09d2ec)" d="M 198.090894 180.578825 
L 198.115757 180.588755 
L 198.123842 180.588861 
L 198.139264 180.597225 
L 198.162369 180.588606 
L 198.188459 180.596715 
L 198.218573 180.59709 
L 198.241644 180.574714 
L 198.244313 180.567074 
L 198.2463 180.554103 
L 198.247353 180.547519 
L 198.231642 180.534066 
L 198.201082 180.528772 
L 198.172799 180.526702 
L 198.154012 180.518856 
L 198.128808 180.518225 
L 198.11304 180.515773 
L 198.093088 180.542394 
L 198.090894 180.578825 
" style="fill:none;stroke:#ffc0cb;"/>
    <path clip-path="url(#pef6f09d2ec)" d="M 198.243985 180.655536 
L 198.244127 180.657137 
L 198.252035 180.65903 
L 198.257943 180.663169 
L 198.252411 180.663601 
L 198.245431 180.663339 
L 198.245665 180.664969 
L 198.252786 180.665203 
L 198.259156 180.664679 
L 198.256695 180.667826 
L 198.250964 180.670824 
L 198.252156 180.67193 
L 198.258781 180.669364 
L 198.261039 180.664707 
L 198.269293 180.665643 
L 198.278185 180.670767 
L 198.281255 180.695624 
L 198.28284 180.701429 
L 198.289133 180.708375 
L 198.297356 180.713442 
L 198.30535 180.716412 
L 198.315438 180.716681 
L 198.322668 180.720665 
L 198.330429 180.722529 
L 198.339982 180.719559 
L 198.350157 180.722082 
L 198.357995 180.727185 
L 198.365341 180.735932 
L 198.372359 180.741857 
L 198.379589 180.751213 
L 198.384581 180.760668 
L 198.386607 180.767649 
L 198.394368 180.772717 
L 198.39518 180.771087 
L 198.413685 180.770194 
L 198.42472 180.757755 
L 198.427523 180.735435 
L 198.418216 180.718737 
L 198.40126 180.707971 
L 198.373586 180.690535 
L 198.356894 180.691754 
L 198.339463 180.680428 
L 198.326568 180.672688 
L 198.311776 180.666047 
L 198.279601 180.66122 
L 198.28021 180.669718 
L 198.27891 180.668286 
L 198.270048 180.66392 
L 198.261394 180.6629 
L 198.252035 180.657605 
L 198.243985 180.655536 
" style="fill:none;stroke:#ffc0cb;"/>
   </g>
   <g id="matplotlib.axis_1">
    <g id="xtick_1">
     <g id="line2d_1">
      <defs>
       <path d="M 0 0 
L 0 3.5 
" id="m9f7028f6ae" style="stroke:#000000;stroke-width:0.8;"/>
      </defs>
      <g>
       <use style="stroke:#000000;stroke-width:0.8;" x="142.695089" xlink:href="#m9f7028f6ae" y="252"/>
      </g>
     </g>
     <g id="text_1">
      <!-- 11 -->
      <defs>
       <path d="M 12.40625 8.296875 
L 28.515625 8.296875 
L 28.515625 63.921875 
L 10.984375 60.40625 
L 10.984375 69.390625 
L 28.421875 72.90625 
L 38.28125 72.90625 
L 38.28125 8.296875 
L 54.390625 8.296875 
L 54.390625 0 
L 12.40625 0 
z
" id="DejaVuSans-49"/>
      </defs>
      <g transform="translate(136.332589 266.598437)scale(0.1 -0.1)">
       <use xlink:href="#DejaVuSans-49"/>
       <use x="63.623047" xlink:href="#DejaVuSans-49"/>
      </g>
     </g>
    </g>
    <g id="xtick_2">
     <g id="line2d_2">
      <g>
       <use style="stroke:#000000;stroke-width:0.8;" x="185.882533" xlink:href="#m9f7028f6ae" y="252"/>
      </g>
     </g>
     <g id="text_2">
      <!-- 12 -->
      <defs>
       <path d="M 19.1875 8.296875 
L 53.609375 8.296875 
L 53.609375 0 
L 7.328125 0 
L 7.328125 8.296875 
Q 12.9375 14.109375 22.625 23.890625 
Q 32.328125 33.6875 34.8125 36.53125 
Q 39.546875 41.84375 41.421875 45.53125 
Q 43.3125 49.21875 43.3125 52.78125 
Q 43.3125 58.59375 39.234375 62.25 
Q 35.15625 65.921875 28.609375 65.921875 
Q 23.96875 65.921875 18.8125 64.3125 
Q 13.671875 62.703125 7.8125 59.421875 
L 7.8125 69.390625 
Q 13.765625 71.78125 18.9375 73 
Q 24.125 74.21875 28.421875 74.21875 
Q 39.75 74.21875 46.484375 68.546875 
Q 53.21875 62.890625 53.21875 53.421875 
Q 53.21875 48.921875 51.53125 44.890625 
Q 49.859375 40.875 45.40625 35.40625 
Q 44.1875 33.984375 37.640625 27.21875 
Q 31.109375 20.453125 19.1875 8.296875 
z
" id="DejaVuSans-50"/>
      </defs>
      <g transform="translate(179.520033 266.598437)scale(0.1 -0.1)">
       <use xlink:href="#DejaVuSans-49"/>
       <use x="63.623047" xlink:href="#DejaVuSans-50"/>
      </g>
     </g>
    </g>
    <g id="xtick_3">
     <g id="line2d_3">
      <g>
       <use style="stroke:#000000;stroke-width:0.8;" x="229.069978" xlink:href="#m9f7028f6ae" y="252"/>
      </g>
     </g>
     <g id="text_3">
      <!-- 13 -->
      <defs>
       <path d="M 40.578125 39.3125 
Q 47.65625 37.796875 51.625 33 
Q 55.609375 28.21875 55.609375 21.1875 
Q 55.609375 10.40625 48.1875 4.484375 
Q 40.765625 -1.421875 27.09375 -1.421875 
Q 22.515625 -1.421875 17.65625 -0.515625 
Q 12.796875 0.390625 7.625 2.203125 
L 7.625 11.71875 
Q 11.71875 9.328125 16.59375 8.109375 
Q 21.484375 6.890625 26.8125 6.890625 
Q 36.078125 6.890625 40.9375 10.546875 
Q 45.796875 14.203125 45.796875 21.1875 
Q 45.796875 27.640625 41.28125 31.265625 
Q 36.765625 34.90625 28.71875 34.90625 
L 20.21875 34.90625 
L 20.21875 43.015625 
L 29.109375 43.015625 
Q 36.375 43.015625 40.234375 45.921875 
Q 44.09375 48.828125 44.09375 54.296875 
Q 44.09375 59.90625 40.109375 62.90625 
Q 36.140625 65.921875 28.71875 65.921875 
Q 24.65625 65.921875 20.015625 65.03125 
Q 15.375 64.15625 9.8125 62.3125 
L 9.8125 71.09375 
Q 15.4375 72.65625 20.34375 73.4375 
Q 25.25 74.21875 29.59375 74.21875 
Q 40.828125 74.21875 47.359375 69.109375 
Q 53.90625 64.015625 53.90625 55.328125 
Q 53.90625 49.265625 50.4375 45.09375 
Q 46.96875 40.921875 40.578125 39.3125 
z
" id="DejaVuSans-51"/>
      </defs>
      <g transform="translate(222.707478 266.598437)scale(0.1 -0.1)">
       <use xlink:href="#DejaVuSans-49"/>
       <use x="63.623047" xlink:href="#DejaVuSans-51"/>
      </g>
     </g>
    </g>
    <g id="xtick_4">
     <g id="line2d_4">
      <g>
       <use style="stroke:#000000;stroke-width:0.8;" x="272.257422" xlink:href="#m9f7028f6ae" y="252"/>
      </g>
     </g>
     <g id="text_4">
      <!-- 14 -->
      <defs>
       <path d="M 37.796875 64.3125 
L 12.890625 25.390625 
L 37.796875 25.390625 
z
M 35.203125 72.90625 
L 47.609375 72.90625 
L 47.609375 25.390625 
L 58.015625 25.390625 
L 58.015625 17.1875 
L 47.609375 17.1875 
L 47.609375 0 
L 37.796875 0 
L 37.796875 17.1875 
L 4.890625 17.1875 
L 4.890625 26.703125 
z
" id="DejaVuSans-52"/>
      </defs>
      <g transform="translate(265.894922 266.598437)scale(0.1 -0.1)">
       <use xlink:href="#DejaVuSans-49"/>
       <use x="63.623047" xlink:href="#DejaVuSans-52"/>
      </g>
     </g>
    </g>
    <g id="xtick_5">
     <g id="line2d_5">
      <g>
       <use style="stroke:#000000;stroke-width:0.8;" x="315.444867" xlink:href="#m9f7028f6ae" y="252"/>
      </g>
     </g>
     <g id="text_5">
      <!-- 15 -->
      <defs>
       <path d="M 10.796875 72.90625 
L 49.515625 72.90625 
L 49.515625 64.59375 
L 19.828125 64.59375 
L 19.828125 46.734375 
Q 21.96875 47.46875 24.109375 47.828125 
Q 26.265625 48.1875 28.421875 48.1875 
Q 40.625 48.1875 47.75 41.5 
Q 54.890625 34.8125 54.890625 23.390625 
Q 54.890625 11.625 47.5625 5.09375 
Q 40.234375 -1.421875 26.90625 -1.421875 
Q 22.3125 -1.421875 17.546875 -0.640625 
Q 12.796875 0.140625 7.71875 1.703125 
L 7.71875 11.625 
Q 12.109375 9.234375 16.796875 8.0625 
Q 21.484375 6.890625 26.703125 6.890625 
Q 35.15625 6.890625 40.078125 11.328125 
Q 45.015625 15.765625 45.015625 23.390625 
Q 45.015625 31 40.078125 35.4375 
Q 35.15625 39.890625 26.703125 39.890625 
Q 22.75 39.890625 18.8125 39.015625 
Q 14.890625 38.140625 10.796875 36.28125 
z
" id="DejaVuSans-53"/>
      </defs>
      <g transform="translate(309.082367 266.598437)scale(0.1 -0.1)">
       <use xlink:href="#DejaVuSans-49"/>
       <use x="63.623047" xlink:href="#DejaVuSans-53"/>
      </g>
     </g>
    </g>
   </g>
   <g id="matplotlib.axis_2">
    <g id="ytick_1">
     <g id="line2d_6">
      <defs>
       <path d="M 0 0 
L -3.5 0 
" id="mc09908e372" style="stroke:#000000;stroke-width:0.8;"/>
      </defs>
      <g>
       <use style="stroke:#000000;stroke-width:0.8;" x="110.852005" xlink:href="#mc09908e372" y="232.127217"/>
      </g>
     </g>
     <g id="text_6">
      <!-- 51.5 -->
      <defs>
       <path d="M 10.6875 12.40625 
L 21 12.40625 
L 21 0 
L 10.6875 0 
z
" id="DejaVuSans-46"/>
      </defs>
      <g transform="translate(81.58638 235.926436)scale(0.1 -0.1)">
       <use xlink:href="#DejaVuSans-53"/>
       <use x="63.623047" xlink:href="#DejaVuSans-49"/>
       <use x="127.246094" xlink:href="#DejaVuSans-46"/>
       <use x="159.033203" xlink:href="#DejaVuSans-53"/>
      </g>
     </g>
    </g>
    <g id="ytick_2">
     <g id="line2d_7">
      <g>
       <use style="stroke:#000000;stroke-width:0.8;" x="110.852005" xlink:href="#mc09908e372" y="196.688627"/>
      </g>
     </g>
     <g id="text_7">
      <!-- 52.0 -->
      <defs>
       <path d="M 31.78125 66.40625 
Q 24.171875 66.40625 20.328125 58.90625 
Q 16.5 51.421875 16.5 36.375 
Q 16.5 21.390625 20.328125 13.890625 
Q 24.171875 6.390625 31.78125 6.390625 
Q 39.453125 6.390625 43.28125 13.890625 
Q 47.125 21.390625 47.125 36.375 
Q 47.125 51.421875 43.28125 58.90625 
Q 39.453125 66.40625 31.78125 66.40625 
z
M 31.78125 74.21875 
Q 44.046875 74.21875 50.515625 64.515625 
Q 56.984375 54.828125 56.984375 36.375 
Q 56.984375 17.96875 50.515625 8.265625 
Q 44.046875 -1.421875 31.78125 -1.421875 
Q 19.53125 -1.421875 13.0625 8.265625 
Q 6.59375 17.96875 6.59375 36.375 
Q 6.59375 54.828125 13.0625 64.515625 
Q 19.53125 74.21875 31.78125 74.21875 
z
" id="DejaVuSans-48"/>
      </defs>
      <g transform="translate(81.58638 200.487846)scale(0.1 -0.1)">
       <use xlink:href="#DejaVuSans-53"/>
       <use x="63.623047" xlink:href="#DejaVuSans-50"/>
       <use x="127.246094" xlink:href="#DejaVuSans-46"/>
       <use x="159.033203" xlink:href="#DejaVuSans-48"/>
      </g>
     </g>
    </g>
    <g id="ytick_3">
     <g id="line2d_8">
      <g>
       <use style="stroke:#000000;stroke-width:0.8;" x="110.852005" xlink:href="#mc09908e372" y="161.250037"/>
      </g>
     </g>
     <g id="text_8">
      <!-- 52.5 -->
      <g transform="translate(81.58638 165.049256)scale(0.1 -0.1)">
       <use xlink:href="#DejaVuSans-53"/>
       <use x="63.623047" xlink:href="#DejaVuSans-50"/>
       <use x="127.246094" xlink:href="#DejaVuSans-46"/>
       <use x="159.033203" xlink:href="#DejaVuSans-53"/>
      </g>
     </g>
    </g>
    <g id="ytick_4">
     <g id="line2d_9">
      <g>
       <use style="stroke:#000000;stroke-width:0.8;" x="110.852005" xlink:href="#mc09908e372" y="125.811447"/>
      </g>
     </g>
     <g id="text_9">
      <!-- 53.0 -->
      <g transform="translate(81.58638 129.610666)scale(0.1 -0.1)">
       <use xlink:href="#DejaVuSans-53"/>
       <use x="63.623047" xlink:href="#DejaVuSans-51"/>
       <use x="127.246094" xlink:href="#DejaVuSans-46"/>
       <use x="159.033203" xlink:href="#DejaVuSans-48"/>
      </g>
     </g>
    </g>
    <g id="ytick_5">
     <g id="line2d_10">
      <g>
       <use style="stroke:#000000;stroke-width:0.8;" x="110.852005" xlink:href="#mc09908e372" y="90.372857"/>
      </g>
     </g>
     <g id="text_10">
      <!-- 53.5 -->
      <g transform="translate(81.58638 94.172075)scale(0.1 -0.1)">
       <use xlink:href="#DejaVuSans-53"/>
       <use x="63.623047" xlink:href="#DejaVuSans-51"/>
       <use x="127.246094" xlink:href="#DejaVuSans-46"/>
       <use x="159.033203" xlink:href="#DejaVuSans-53"/>
      </g>
     </g>
    </g>
    <g id="ytick_6">
     <g id="line2d_11">
      <g>
       <use style="stroke:#000000;stroke-width:0.8;" x="110.852005" xlink:href="#mc09908e372" y="54.934266"/>
      </g>
     </g>
     <g id="text_11">
      <!-- 54.0 -->
      <g transform="translate(81.58638 58.733485)scale(0.1 -0.1)">
       <use xlink:href="#DejaVuSans-53"/>
       <use x="63.623047" xlink:href="#DejaVuSans-52"/>
       <use x="127.246094" xlink:href="#DejaVuSans-46"/>
       <use x="159.033203" xlink:href="#DejaVuSans-48"/>
      </g>
     </g>
    </g>
   </g>
   <g id="patch_3">
    <path d="M 110.852005 252 
L 110.852005 34.56 
" style="fill:none;stroke:#000000;stroke-linecap:square;stroke-linejoin:miter;stroke-width:0.8;"/>
   </g>
   <g id="patch_4">
    <path d="M 331.947995 252 
L 331.947995 34.56 
" style="fill:none;stroke:#000000;stroke-linecap:square;stroke-linejoin:miter;stroke-width:0.8;"/>
   </g>
   <g id="patch_5">
    <path d="M 110.852005 252 
L 331.947995 252 
" style="fill:none;stroke:#000000;stroke-linecap:square;stroke-linejoin:miter;stroke-width:0.8;"/>
   </g>
   <g id="patch_6">
    <path d="M 110.852005 34.56 
L 331.947995 34.56 
" style="fill:none;stroke:#000000;stroke-linecap:square;stroke-linejoin:miter;stroke-width:0.8;"/>
   </g>
  </g>
 </g>
 <defs>
  <clipPath id="pef6f09d2ec">
   <rect height="217.44" width="221.095991" x="110.852005" y="34.56"/>
  </clipPath>
 </defs>
</svg>
