<?xml version="1.0" encoding="utf-8" standalone="no"?>
<!DOCTYPE svg PUBLIC "-//W3C//DTD SVG 1.1//EN"
  "http://www.w3.org/Graphics/SVG/1.1/DTD/svg11.dtd">
<!-- Created with matplotlib (https://matplotlib.org/) -->
<svg height="288pt" version="1.1" viewBox="0 0 432 288" width="432pt" xmlns="http://www.w3.org/2000/svg" xmlns:xlink="http://www.w3.org/1999/xlink">
 <defs>
  <style type="text/css">
*{stroke-linecap:butt;stroke-linejoin:round;}
  </style>
 </defs>
 <g id="figure_1">
  <g id="patch_1">
   <path d="M 0 288 
L 432 288 
L 432 0 
L 0 0 
z
" style="fill:#ffffff;"/>
  </g>
  <g id="axes_1">
   <g id="patch_2">
    <path d="M 147.316846 252 
L 295.483154 252 
L 295.483154 34.56 
L 147.316846 34.56 
z
" style="fill:#ffffff;"/>
   </g>
   <g id="PatchCollection_1">
    <path clip-path="url(#pe8ddb76d30)" d="M 189.373279 242.116364 
L 248.8536 240.4015 
L 247.806354 178.047247 
L 187.055487 179.823138 
L 189.373279 242.116364 
" style="fill:none;stroke:#0000ff;stroke-opacity:0.2;"/>
   </g>
   <g id="PatchCollection_2">
    <path clip-path="url(#pe8ddb76d30)" d="M 154.051678 72.050168 
L 154.175971 72.501141 
L 154.204546 73.436887 
L 154.334097 73.652753 
L 155.219936 74.532357 
L 155.935913 75.087366 
L 156.629806 76.11965 
L 156.985851 76.319908 
L 157.459508 76.279462 
L 159.742554 75.095375 
L 160.343879 74.997795 
L 160.83608 74.813538 
L 161.357152 74.876174 
L 161.74997 75.149389 
L 163.471053 76.771487 
L 164.121922 76.778423 
L 164.984055 76.474641 
L 165.090617 76.571034 
L 165.617308 77.204394 
L 166.395746 77.529735 
L 166.812993 77.497633 
L 167.782515 77.126067 
L 168.281301 77.236628 
L 168.488397 77.450322 
L 168.486145 77.704922 
L 168.14737 78.118392 
L 167.874397 78.612085 
L 167.904029 78.935328 
L 168.169521 79.261743 
L 168.609634 79.428093 
L 168.953524 79.391317 
L 169.711429 79.172539 
L 169.956675 79.364932 
L 170.150961 79.880019 
L 170.142516 80.610227 
L 170.314783 80.97391 
L 170.614437 81.138902 
L 170.911844 81.159488 
L 172.17216 80.487564 
L 172.819038 80.65469 
L 173.115021 80.868775 
L 173.4978 81.40875 
L 173.628383 81.670109 
L 174.046781 82.209686 
L 174.348364 82.327549 
L 175.033604 82.425293 
L 175.832768 82.473117 
L 176.228862 82.69571 
L 176.455225 82.964896 
L 176.44653 83.424636 
L 176.223331 83.743211 
L 175.555576 84.527288 
L 175.522371 84.912119 
L 175.724629 85.294764 
L 175.998107 85.463685 
L 176.486794 85.499456 
L 177.409143 85.531305 
L 177.660547 85.795747 
L 178.099368 86.351197 
L 178.54918 86.54673 
L 180.382591 86.950581 
L 180.812928 87.355278 
L 180.813216 87.261361 
L 181.19 87.414755 
L 181.722841 87.566015 
L 181.807599 87.477063 
L 181.963865 87.243346 
L 182.297444 87.234503 
L 182.522298 87.171664 
L 182.632824 86.877629 
L 182.65083 86.882177 
L 183.27307 86.738757 
L 183.588032 86.830052 
L 184.12341 86.822024 
L 184.174397 86.943677 
L 184.214249 86.910975 
L 184.490005 86.808266 
L 184.898977 86.95305 
L 184.851354 87.098833 
L 184.949236 87.093672 
L 185.328429 87.044105 
L 185.444874 87.42677 
L 185.49752 87.542896 
L 186.635618 87.603586 
L 186.853536 86.850057 
L 187.122388 86.434363 
L 187.12176 86.43761 
L 187.248698 86.4823 
L 186.928937 87.403543 
L 186.973588 87.675786 
L 187.424024 88.239493 
L 187.158587 89.038761 
L 187.469461 88.841895 
L 189.134326 88.135545 
L 189.878517 87.472433 
L 189.882689 87.490834 
L 190.113836 88.099818 
L 190.301645 88.17673 
L 190.378119 88.468649 
L 190.656851 88.257937 
L 190.662613 88.224187 
L 190.76128 88.247723 
L 191.05774 88.417396 
L 191.308074 88.725081 
L 191.235992 88.926097 
L 191.232358 89.230573 
L 191.33989 89.42953 
L 191.450542 89.672084 
L 191.857624 91.501855 
L 192.220309 92.082522 
L 192.011362 92.161657 
L 192.141136 92.485444 
L 191.834596 92.664244 
L 191.80494 93.067987 
L 191.528937 93.169679 
L 190.763278 93.039543 
L 190.896928 93.21737 
L 190.815508 94.033775 
L 190.481051 94.239996 
L 190.575727 94.685593 
L 190.53372 94.683553 
L 190.290102 94.712307 
L 190.216984 94.888649 
L 190.390821 95.388425 
L 190.746138 95.532553 
L 190.787053 95.907972 
L 190.772007 96.084315 
L 190.814111 96.23419 
L 190.035946 96.924995 
L 190.067661 96.920636 
L 190.228261 97.03512 
L 190.123151 97.16074 
L 190.229824 97.134949 
L 189.995747 97.333539 
L 189.908962 97.424587 
L 189.960449 97.622388 
L 190.257617 97.495877 
L 190.400432 97.712009 
L 190.238068 98.001111 
L 190.442112 98.13877 
L 190.655773 98.209896 
L 190.771649 98.341453 
L 190.908883 98.565986 
L 190.659668 98.771764 
L 190.756669 99.196207 
L 190.890924 99.452999 
L 191.246742 99.447687 
L 191.200139 99.567438 
L 191.053329 99.844336 
L 191.079344 99.866691 
L 191.350116 100.077832 
L 191.432125 100.370831 
L 191.494743 100.610834 
L 191.34293 101.491953 
L 191.402311 102.416993 
L 191.192476 102.618843 
L 191.188053 103.144997 
L 191.299749 103.144946 
L 191.411041 103.144908 
L 191.230184 103.238812 
L 190.402348 103.475643 
L 190.234023 103.608849 
L 189.991852 103.845516 
L 189.668088 103.759938 
L 188.719416 103.291506 
L 188.749965 104.011784 
L 188.83824 103.976164 
L 189.042014 103.917217 
L 188.970585 103.991362 
L 188.84844 104.556073 
L 189.011615 104.797528 
L 188.9643 106.055021 
L 189.093632 106.508142 
L 189.280613 106.591711 
L 189.187307 106.701659 
L 188.338164 107.734563 
L 187.766132 109.556324 
L 187.861386 109.478724 
L 188.031693 109.502721 
L 188.294213 109.417503 
L 188.416644 109.153964 
L 188.774802 108.965165 
L 188.984415 108.900299 
L 189.300616 109.204959 
L 189.558517 109.307378 
L 189.505221 109.394605 
L 189.317024 109.70265 
L 189.108011 109.932444 
L 188.76506 110.551972 
L 188.916135 110.993369 
L 189.348269 111.492241 
L 189.401981 111.613243 
L 189.46381 111.565792 
L 189.596109 111.410566 
L 190.320509 111.328108 
L 190.462938 111.116708 
L 190.47261 111.155423 
L 190.795632 111.323573 
L 190.829737 111.328411 
L 190.987128 111.068278 
L 191.039765 110.896269 
L 190.919263 110.591754 
L 191.150361 110.412904 
L 191.246911 110.101599 
L 191.227967 109.902396 
L 191.380219 109.835016 
L 191.804267 110.160893 
L 192.222668 110.193525 
L 192.233157 110.504072 
L 192.261773 110.744289 
L 192.55674 111.267847 
L 192.678023 111.3025 
L 192.63129 111.343294 
L 192.381206 111.641656 
L 192.464777 111.664212 
L 192.717837 111.850813 
L 192.757161 112.132499 
L 192.785012 112.124711 
L 193.197467 111.98328 
L 193.330578 111.812926 
L 193.648296 111.76159 
L 193.676466 111.638933 
L 193.840789 111.627626 
L 194.261457 111.919413 
L 194.881881 111.571711 
L 195.003796 111.577522 
L 195.000028 111.65439 
L 194.96165 111.823481 
L 194.792525 111.857958 
L 194.350275 111.962808 
L 194.181111 112.696787 
L 194.49541 112.918661 
L 195.013507 112.67581 
L 194.984763 112.77579 
L 194.809822 113.152157 
L 194.748639 113.667856 
L 194.402944 113.891877 
L 194.455428 114.35628 
L 194.115691 114.382608 
L 194.000392 114.47154 
L 194.050028 114.79894 
L 194.084757 114.79388 
L 194.136733 114.838988 
L 194.129227 114.89069 
L 193.925738 115.259085 
L 193.8408 115.560352 
L 193.424462 115.722085 
L 193.502926 115.838097 
L 193.736221 116.149926 
L 193.618263 116.176753 
L 193.300865 116.383788 
L 192.872756 116.854646 
L 193.078227 116.993626 
L 193.782866 117.105172 
L 193.814493 117.083512 
L 193.859652 117.153084 
L 193.90209 117.601581 
L 193.915762 117.96436 
L 193.890417 117.966432 
L 193.668407 118.160013 
L 193.582887 118.678517 
L 193.717219 118.900075 
L 194.093144 119.06741 
L 194.015753 119.146394 
L 193.852347 119.484153 
L 193.376658 119.569352 
L 193.233886 119.689458 
L 193.299933 120.008191 
L 193.779267 120.619197 
L 193.847012 120.861315 
L 194.152205 121.157075 
L 193.741867 121.869855 
L 193.417557 122.553939 
L 193.183007 122.73289 
L 192.960038 123.220083 
L 191.9471 125.951055 
L 192.025461 126.311914 
L 192.068769 126.443939 
L 191.739701 127.143328 
L 192.385605 127.338235 
L 192.32035 127.441879 
L 192.222695 127.561315 
L 192.302734 127.596189 
L 192.847399 127.90697 
L 192.904875 127.96869 
L 192.804207 127.987053 
L 192.465409 128.01448 
L 192.47848 127.956682 
L 192.411489 128.12494 
L 192.542499 128.143858 
L 192.719461 128.080672 
L 192.907993 128.055759 
L 192.916946 128.085555 
L 193.29416 128.224402 
L 193.383301 128.407984 
L 193.609911 128.4279 
L 193.720425 128.46695 
L 193.72096 128.467986 
L 193.730771 128.467057 
L 193.605838 128.564574 
L 192.966701 129.24104 
L 192.429617 129.279445 
L 192.252967 129.285282 
L 191.758103 129.786637 
L 191.83261 129.875695 
L 191.84336 129.872044 
L 191.993719 130.133429 
L 191.693579 130.511033 
L 191.609965 130.671824 
L 191.707224 131.169111 
L 191.822699 131.322366 
L 191.725233 131.371763 
L 191.477854 131.379671 
L 191.079459 131.162352 
L 190.609401 132.15102 
L 190.813691 132.452218 
L 191.288202 132.642937 
L 191.211924 133.142928 
L 191.225218 133.143863 
L 192.067995 134.374301 
L 192.494945 134.677836 
L 192.600614 135.0125 
L 192.675999 135.594203 
L 192.808152 136.061075 
L 193.096814 136.356336 
L 193.330609 136.413698 
L 194.596199 137.356493 
L 194.85883 138.250139 
L 195.234324 138.830073 
L 195.726017 139.238567 
L 196.140654 139.984213 
L 197.232726 140.175703 
L 197.286207 140.172576 
L 197.737713 140.767936 
L 198.135908 141.158761 
L 198.532482 141.353921 
L 198.732715 141.6983 
L 199.136218 141.876374 
L 199.623188 141.826977 
L 200.122844 140.730339 
L 200.796915 140.830831 
L 200.887264 141.5402 
L 201.070612 141.910718 
L 201.748016 142.472877 
L 202.746328 142.674214 
L 202.917316 142.741411 
L 202.93474 142.952275 
L 203.081608 143.63128 
L 203.051813 143.835511 
L 203.147582 143.880845 
L 203.947567 143.957043 
L 204.959839 144.06017 
L 205.861912 144.055002 
L 205.973192 144.042603 
L 205.950876 143.939957 
L 205.925446 143.450597 
L 207.012503 143.285852 
L 207.112056 143.19757 
L 207.258742 142.413329 
L 207.528009 142.115132 
L 208.103455 142.137549 
L 208.257039 142.313482 
L 208.436957 142.612343 
L 208.627121 142.733244 
L 209.595331 142.91716 
L 209.685599 142.942623 
L 209.638997 143.033956 
L 209.736051 143.165955 
L 210.661126 143.596563 
L 211.059082 143.689343 
L 211.367685 143.77511 
L 211.444806 143.877997 
L 211.584103 144.09392 
L 211.810647 144.225989 
L 212.067251 144.28126 
L 212.190124 144.454381 
L 212.24598 145.165967 
L 213.800362 145.262884 
L 214.824215 145.105845 
L 214.827602 145.16255 
L 214.92167 145.432733 
L 215.061259 145.867832 
L 215.09966 146.674106 
L 215.182143 147.034618 
L 216.42893 147.056789 
L 216.503919 147.043082 
L 216.505608 147.073983 
L 216.658642 147.454437 
L 217.219019 147.372869 
L 217.509359 147.26927 
L 217.68567 146.756254 
L 217.958702 146.836457 
L 218.76302 147.009471 
L 219.268331 147.036468 
L 219.260606 147.105579 
L 219.100729 147.807703 
L 219.178323 147.819048 
L 219.876473 148.01537 
L 219.746652 149.179964 
L 219.789256 149.157337 
L 220.269906 148.989345 
L 220.973564 149.046423 
L 221.394071 149.17733 
L 221.626916 149.455523 
L 221.627635 149.239088 
L 221.656087 149.036493 
L 221.727072 149.063238 
L 222.554781 149.394181 
L 222.639453 149.765375 
L 222.224019 149.822035 
L 222.229423 150.491685 
L 222.226409 150.491256 
L 221.819031 150.440103 
L 221.942127 150.646469 
L 222.112469 150.847087 
L 222.3953 151.113126 
L 223.349858 151.207984 
L 223.789448 151.271934 
L 223.87778 151.304547 
L 223.895358 151.220535 
L 223.981251 151.039764 
L 224.05042 150.899642 
L 224.074996 150.903773 
L 224.77617 150.889137 
L 225.089596 150.840183 
L 225.157734 150.830556 
L 225.229586 150.718429 
L 225.362139 150.637259 
L 225.355438 150.308445 
L 225.459709 150.310668 
L 225.877649 150.350109 
L 225.869763 150.531663 
L 226.124338 150.532573 
L 226.172446 150.745919 
L 226.295331 150.841819 
L 226.353688 150.970534 
L 226.561315 151.09899 
L 226.582407 151.794462 
L 225.754845 151.925173 
L 225.527935 151.902199 
L 225.652999 152.512466 
L 225.881213 153.079104 
L 225.985511 153.386101 
L 226.224819 153.75195 
L 226.269174 153.844862 
L 226.368491 154.316074 
L 226.544699 154.344985 
L 226.488836 154.482683 
L 226.738281 154.728142 
L 226.965614 155.519401 
L 226.888535 155.729241 
L 226.999462 156.106252 
L 226.941474 156.318669 
L 227.346854 156.373909 
L 227.304039 156.646372 
L 227.216995 156.629734 
L 226.92107 156.644901 
L 226.918784 156.665695 
L 226.986352 156.921552 
L 226.82178 157.293845 
L 226.45343 157.673471 
L 226.528911 157.697746 
L 226.731311 157.79019 
L 226.749104 157.855688 
L 226.695885 157.837193 
L 226.536509 158.128638 
L 226.621632 158.174175 
L 227.084265 158.510645 
L 227.004088 158.692831 
L 226.870973 158.678404 
L 226.858302 158.747729 
L 226.793594 158.905482 
L 226.830209 158.920989 
L 226.860511 159.031241 
L 226.757218 159.010945 
L 226.864507 159.223072 
L 227.070721 159.28982 
L 227.101666 159.229079 
L 227.190688 159.332319 
L 227.460452 159.747344 
L 227.596973 159.827363 
L 227.776045 160.216237 
L 227.887879 160.415756 
L 227.939643 160.511441 
L 227.86987 160.503987 
L 227.970204 160.856988 
L 227.976281 160.885154 
L 227.906627 160.880802 
L 227.229685 160.735992 
L 227.253864 160.860551 
L 227.354156 161.28229 
L 227.32194 161.380464 
L 227.250927 161.334567 
L 226.822242 161.125182 
L 226.733732 161.325142 
L 226.962104 161.938865 
L 226.981926 162.188026 
L 226.890833 162.193338 
L 226.804209 162.207797 
L 226.908538 162.282012 
L 227.005866 162.459618 
L 226.743677 162.579875 
L 226.722685 162.735284 
L 222.826072 165.325166 
L 224.038146 167.548776 
L 224.181372 167.703257 
L 224.347407 167.77113 
L 224.484472 167.755799 
L 224.777764 167.433686 
L 224.759655 167.441601 
L 224.612114 167.494099 
L 224.679466 167.113083 
L 224.703098 167.186805 
L 224.789492 167.155399 
L 224.89598 167.459503 
L 225.060025 167.301567 
L 225.043825 167.258917 
L 225.204133 167.201599 
L 225.233839 167.070086 
L 225.422671 166.916066 
L 225.456164 167.08522 
L 225.740127 167.475932 
L 226.158494 168.030183 
L 226.316204 168.281751 
L 226.317705 168.358107 
L 226.419763 168.322235 
L 226.725206 168.177147 
L 226.756071 168.24056 
L 227.004719 168.695247 
L 226.722635 168.896225 
L 226.727835 169.165094 
L 226.515051 169.53834 
L 226.245033 170.133277 
L 226.4069 170.371826 
L 226.439304 170.487977 
L 226.860119 170.452604 
L 227.129043 170.815964 
L 227.925622 170.847017 
L 228.195439 172.184808 
L 228.771362 173.120674 
L 228.767274 173.577111 
L 228.752683 174.203321 
L 228.559933 174.252737 
L 228.582114 174.738401 
L 228.37182 174.948424 
L 228.434662 174.9805 
L 228.540931 175.025456 
L 228.245725 175.252976 
L 228.159413 175.22951 
L 227.955493 174.997132 
L 227.798642 175.020049 
L 227.88296 175.108912 
L 227.979907 175.427992 
L 227.856918 175.83929 
L 227.803661 176.282671 
L 227.972917 176.611353 
L 228.320545 176.902198 
L 228.596975 177.12723 
L 228.625149 177.36408 
L 228.48111 177.834243 
L 228.160818 178.332262 
L 228.168785 178.47999 
L 228.09713 178.424789 
L 227.916719 178.414183 
L 227.510876 178.809885 
L 227.552903 179.146274 
L 227.97189 179.257188 
L 228.058768 179.077359 
L 228.014124 178.749624 
L 228.21162 178.547004 
L 228.594573 178.9084 
L 228.62498 179.219522 
L 228.559913 179.782148 
L 229.234469 181.151061 
L 230.047089 181.179031 
L 230.302781 181.220399 
L 230.233158 181.192385 
L 230.438448 181.219288 
L 230.443375 181.306413 
L 230.708709 181.379346 
L 230.919703 181.667146 
L 230.931523 181.788641 
L 231.12487 181.800188 
L 231.187231 181.400551 
L 231.124778 181.41002 
L 230.940306 181.400286 
L 230.93197 181.168369 
L 230.763356 181.040639 
L 230.798681 180.735859 
L 230.842205 180.774088 
L 231.355275 180.841607 
L 231.808659 180.870878 
L 231.807104 180.836213 
L 231.776752 180.145654 
L 233.433084 179.122971 
L 233.132271 178.465033 
L 233.208307 178.4738 
L 233.611413 178.47188 
L 233.610474 178.552247 
L 233.793413 178.988609 
L 234.686865 178.754943 
L 235.239917 179.207533 
L 235.358911 179.228264 
L 235.513923 179.104621 
L 235.491672 179.055358 
L 235.220584 178.372967 
L 235.402458 178.539203 
L 235.506656 178.491013 
L 235.762513 177.98288 
L 235.817057 177.752094 
L 236.197785 177.492599 
L 236.260511 177.406635 
L 236.279067 177.422995 
L 236.470797 177.764336 
L 236.417505 177.945442 
L 236.435595 177.961511 
L 236.767688 178.335787 
L 237.00773 178.604871 
L 237.15668 178.686855 
L 237.222755 178.683476 
L 237.226284 178.733952 
L 237.258061 178.875509 
L 237.23556 178.892545 
L 237.278229 179.033951 
L 237.32932 179.005765 
L 237.161637 179.16981 
L 237.021698 179.464059 
L 237.321449 179.37814 
L 237.454899 179.087282 
L 237.583996 179.135643 
L 237.877919 179.141681 
L 237.935326 179.182601 
L 237.859275 179.007938 
L 237.950853 178.877568 
L 237.976525 178.948833 
L 238.061744 179.034866 
L 238.215062 179.422091 
L 238.605467 179.345319 
L 238.660687 179.109163 
L 238.69059 179.148143 
L 239.098264 179.656642 
L 239.048382 179.627908 
L 238.701601 179.441951 
L 238.701871 179.522672 
L 238.742631 180.110812 
L 239.139013 180.176366 
L 239.706072 180.328446 
L 239.821832 180.531818 
L 239.879639 180.62984 
L 240.529619 180.583211 
L 240.733974 180.608313 
L 240.840809 180.665567 
L 240.996791 182.024304 
L 241.049367 182.015701 
L 241.494234 182.045465 
L 241.579734 182.513594 
L 241.801836 182.770297 
L 242.019324 182.13789 
L 242.248 182.10781 
L 242.735028 181.732347 
L 243.492994 181.822366 
L 243.402175 181.964795 
L 243.568968 182.253246 
L 243.536371 182.412533 
L 243.610917 182.420676 
L 243.704893 182.445753 
L 243.700393 182.766223 
L 243.744537 182.768876 
L 244.006995 182.773228 
L 244.382554 182.723579 
L 246.33221 182.7137 
L 246.533128 182.356151 
L 246.627184 182.454931 
L 247.064091 182.864826 
L 247.383772 182.469636 
L 247.900768 182.958547 
L 248.304078 183.12724 
L 248.728357 183.077338 
L 248.88505 183.102675 
L 249.417657 183.22122 
L 249.711288 182.94856 
L 249.869341 182.609228 
L 250.389816 182.741841 
L 250.388815 182.745953 
L 250.213747 183.005057 
L 250.100338 183.117797 
L 250.16326 183.412249 
L 250.224177 183.25972 
L 250.423024 183.257566 
L 250.668701 183.292301 
L 250.679902 183.238805 
L 250.680206 183.10263 
L 251.051066 182.693733 
L 252.125721 182.672048 
L 252.397767 182.679912 
L 252.787883 182.331427 
L 252.984629 182.190129 
L 252.986707 182.096845 
L 252.893417 181.852794 
L 253.042467 181.918544 
L 253.727861 182.011563 
L 254.010022 181.981433 
L 254.00421 182.060701 
L 254.125359 182.231289 
L 254.194478 182.225793 
L 254.20537 182.28529 
L 254.369654 182.334933 
L 254.555877 182.357351 
L 254.565422 182.412742 
L 255.001864 182.291531 
L 255.07375 182.252058 
L 255.11774 182.292036 
L 255.518197 182.265058 
L 255.790236 182.137095 
L 255.800855 181.894433 
L 256.118842 181.793499 
L 256.325999 181.743098 
L 257.194991 181.308921 
L 257.378169 181.085273 
L 257.698966 181.007009 
L 257.906011 181.132509 
L 258.099085 181.172797 
L 258.214653 181.31232 
L 258.135777 182.361463 
L 258.892287 182.49472 
L 259.295559 182.561222 
L 259.267851 182.504567 
L 259.272535 181.699532 
L 259.537179 181.460976 
L 259.587092 181.332508 
L 259.551109 181.335413 
L 259.418263 181.108417 
L 259.456937 181.091299 
L 259.857472 180.946281 
L 260.355027 181.062425 
L 260.327357 180.977093 
L 260.263626 180.721679 
L 259.90969 180.673495 
L 259.917808 180.497594 
L 260.999699 179.538672 
L 260.985204 179.527555 
L 260.834068 179.179101 
L 260.749603 179.03155 
L 261.061936 179.049894 
L 261.029536 178.951549 
L 260.943947 178.723865 
L 260.691993 178.644856 
L 260.722395 178.605061 
L 261.22664 178.21378 
L 261.681548 177.957342 
L 261.301594 177.470137 
L 261.297814 176.880734 
L 260.6218 176.264112 
L 260.590935 176.028968 
L 260.759141 175.770647 
L 262.154216 176.242174 
L 262.609217 175.92809 
L 262.696137 175.841729 
L 262.202266 175.210648 
L 262.113367 175.001465 
L 262.193529 174.970134 
L 262.525449 174.93255 
L 262.66926 174.84147 
L 263.001327 174.404147 
L 263.091834 174.072117 
L 263.148979 173.690887 
L 263.287591 173.358345 
L 263.511179 173.126106 
L 264.131765 173.108028 
L 264.536533 173.088762 
L 264.616306 173.01979 
L 264.749579 173.059074 
L 264.602223 172.902944 
L 264.301275 172.548749 
L 264.323049 172.088946 
L 264.65712 171.727543 
L 264.912227 171.861501 
L 265.090486 171.894967 
L 265.499104 171.929702 
L 265.712727 171.922684 
L 266.169915 172.033081 
L 266.566909 172.036423 
L 266.950593 172.068505 
L 267.537735 172.014491 
L 267.610545 172.050174 
L 267.998079 172.294977 
L 267.965294 172.321248 
L 268.206163 172.438599 
L 268.672931 172.469222 
L 268.657308 172.526319 
L 268.707798 172.55379 
L 268.603161 172.59548 
L 268.685247 172.687502 
L 268.881746 172.702718 
L 269.292346 172.454978 
L 269.643103 172.456393 
L 270.024782 172.599832 
L 271.799238 173.513774 
L 271.866002 174.044488 
L 272.005317 174.136055 
L 272.090818 174.184207 
L 272.440943 173.838855 
L 272.457574 173.544896 
L 272.477585 173.387756 
L 272.3432 173.386303 
L 272.35659 173.299588 
L 272.473232 173.175225 
L 273.02513 173.088611 
L 273.341723 172.782479 
L 274.067373 172.361397 
L 274.148351 172.373878 
L 274.133248 172.289778 
L 274.333392 171.900563 
L 274.790733 171.970666 
L 275.033373 172.161278 
L 275.07936 172.103676 
L 275.19439 172.03022 
L 276.298555 171.709339 
L 276.504842 171.854338 
L 276.493395 171.736001 
L 276.535487 171.078631 
L 276.721975 170.969491 
L 277.139465 170.902061 
L 277.109197 170.987298 
L 277.192711 171.00856 
L 277.303695 170.883705 
L 277.81718 170.855532 
L 278.338368 170.791645 
L 278.71002 170.87891 
L 278.774824 170.909818 
L 278.85285 170.827878 
L 279.191221 171.064349 
L 280.095065 170.705795 
L 280.193971 170.649432 
L 280.352931 170.487049 
L 280.228211 169.859809 
L 280.259783 169.881721 
L 280.673847 169.943448 
L 280.902066 169.765097 
L 281.20095 169.379602 
L 281.697447 169.627507 
L 281.785018 169.820778 
L 281.79636 169.819028 
L 282.184217 169.863529 
L 282.340637 170.174247 
L 282.735049 171.342409 
L 283.077003 171.324836 
L 283.444872 171.314287 
L 284.478036 171.078625 
L 285.185908 171.28969 
L 285.345688 171.227288 
L 285.724477 170.83765 
L 285.885031 170.381017 
L 286.013266 169.979889 
L 286.048453 169.746418 
L 286.010421 169.729243 
L 285.937484 169.688696 
L 286.132929 169.672412 
L 286.179659 169.650013 
L 286.242435 169.699132 
L 286.373156 169.737215 
L 286.400637 169.674743 
L 286.474306 169.648908 
L 286.420713 169.564138 
L 286.313932 169.234881 
L 286.154833 168.712637 
L 286.20756 168.372364 
L 286.567623 168.403385 
L 286.866265 168.736236 
L 286.99828 168.919849 
L 287.006089 169.034446 
L 287.03934 169.08702 
L 287.365745 169.34433 
L 287.365556 169.324679 
L 287.48545 169.061779 
L 288.178373 168.505974 
L 288.273129 168.312039 
L 288.316973 168.197089 
L 288.612532 167.960845 
L 288.651214 166.977148 
L 288.382789 166.596758 
L 288.284411 166.357545 
L 288.364853 166.02952 
L 288.326441 165.729415 
L 288.339258 165.434237 
L 288.352306 165.265329 
L 288.177799 164.869791 
L 288.319297 164.207784 
L 288.246949 163.966954 
L 288.164809 163.7901 
L 288.070964 163.577847 
L 287.957136 163.359422 
L 287.665176 163.234738 
L 287.65996 163.045515 
L 287.731216 162.893435 
L 287.570461 162.576931 
L 287.306309 162.588421 
L 286.752514 162.037664 
L 285.570223 160.928474 
L 285.401355 160.58515 
L 285.249557 160.365014 
L 284.968894 160.14772 
L 284.764696 159.609842 
L 284.618718 159.044695 
L 284.645653 158.721553 
L 284.603076 158.464654 
L 284.809883 158.221897 
L 284.615242 158.128335 
L 284.307163 157.952245 
L 284.379176 157.727245 
L 284.471627 157.55461 
L 284.189466 156.188881 
L 283.965285 155.753169 
L 283.728934 155.6738 
L 283.60294 155.460384 
L 282.949507 155.393365 
L 282.824382 155.303421 
L 282.586295 155.275205 
L 282.401216 154.888125 
L 282.296944 154.562803 
L 282.094483 154.352117 
L 281.985408 154.210402 
L 281.966375 153.913064 
L 282.192296 152.917296 
L 282.302648 152.926986 
L 282.53813 153.041526 
L 282.594609 152.866194 
L 282.510325 152.549918 
L 282.687584 152.560486 
L 282.816184 152.722584 
L 282.832696 152.552558 
L 282.719734 152.130617 
L 282.908293 151.913949 
L 283.336771 151.864489 
L 284.388945 150.710223 
L 284.476704 150.266546 
L 284.695674 150.108989 
L 284.765189 149.984885 
L 284.832095 149.822945 
L 285.111893 149.892472 
L 285.260477 149.845824 
L 285.28307 149.568604 
L 285.584587 149.418128 
L 285.722749 149.294049 
L 286.002543 149.079358 
L 286.046855 148.519814 
L 286.214561 148.306058 
L 286.584724 146.958786 
L 286.778494 146.817235 
L 286.967919 146.529763 
L 287.004284 146.065393 
L 286.997252 145.855016 
L 286.794132 145.674548 
L 286.734178 145.610396 
L 286.475237 144.795873 
L 286.514381 144.208075 
L 286.557393 144.208953 
L 286.756809 144.137366 
L 286.864991 143.876954 
L 286.9193 143.596803 
L 287.048439 143.237504 
L 286.911914 142.900945 
L 286.798085 142.605091 
L 287.214736 142.27284 
L 287.264133 142.025858 
L 287.782091 141.500866 
L 287.799296 141.31038 
L 287.800527 141.060347 
L 288.076403 140.85004 
L 288.075171 140.486534 
L 288.116955 140.136104 
L 287.981165 139.953147 
L 287.960874 139.541022 
L 288.064872 139.361502 
L 288.476476 138.904301 
L 288.420359 138.60489 
L 288.088277 138.059552 
L 287.876151 137.655462 
L 287.548649 137.315479 
L 286.903735 136.910637 
L 286.105005 136.609944 
L 285.568222 135.825135 
L 285.535541 135.312341 
L 285.599225 134.948222 
L 285.43018 133.949264 
L 285.574738 133.598247 
L 286.429393 132.256616 
L 286.325314 131.651149 
L 285.844802 131.070464 
L 285.672443 130.783257 
L 285.763974 130.423655 
L 286.538117 129.555775 
L 286.697971 128.888354 
L 286.746814 128.373633 
L 286.839631 128.089692 
L 286.777163 127.96274 
L 286.384768 127.474688 
L 286.169147 126.986365 
L 285.810015 126.707793 
L 283.935799 126.259214 
L 282.901542 125.767107 
L 282.137591 125.62915 
L 281.987094 125.352271 
L 281.844915 124.96751 
L 281.370026 124.484309 
L 281.426228 124.17068 
L 281.79011 123.687877 
L 281.695118 123.381973 
L 281.509373 122.987515 
L 281.492715 122.696456 
L 281.255036 122.429115 
L 280.882036 122.219938 
L 280.880716 121.949913 
L 280.926972 121.488144 
L 280.776086 121.135535 
L 280.539035 120.692445 
L 280.555574 119.724149 
L 280.478333 119.14719 
L 280.101465 118.508605 
L 279.830532 117.903543 
L 279.972873 117.42062 
L 280.320369 116.772915 
L 280.218685 116.294603 
L 280.240385 115.914131 
L 280.505872 115.431966 
L 280.971943 115.138708 
L 281.603875 114.969806 
L 282.041691 114.411532 
L 282.252193 114.136592 
L 282.563902 113.750554 
L 282.769516 113.483574 
L 282.987431 112.673422 
L 283.458347 112.258012 
L 283.723642 111.673909 
L 283.650516 111.343079 
L 283.406567 111.042885 
L 282.801828 110.568629 
L 282.61169 109.710249 
L 282.529192 109.507174 
L 282.554203 109.127453 
L 283.247491 107.584832 
L 283.88696 106.97274 
L 283.835965 106.643868 
L 283.472981 106.352145 
L 283.009531 106.008069 
L 282.807705 105.68703 
L 282.571342 104.88857 
L 282.132676 104.311978 
L 281.339454 103.715405 
L 281.108326 103.529967 
L 279.007496 102.458765 
L 277.08416 100.990978 
L 276.72308 100.22165 
L 276.402634 100.046116 
L 275.906437 99.805514 
L 275.404957 98.830832 
L 275.132745 98.49901 
L 274.929245 98.131746 
L 272.69769 95.434303 
L 269.682197 93.687103 
L 268.664066 92.586915 
L 267.601285 91.333452 
L 267.355169 91.240723 
L 264.57192 90.801702 
L 264.15159 90.418431 
L 264.056048 90.186981 
L 264.011497 89.736103 
L 264.185492 89.255505 
L 264.621233 88.655332 
L 265.392993 87.217852 
L 265.452317 86.701874 
L 264.868958 84.404568 
L 264.822697 84.112927 
L 264.745757 83.760513 
L 264.632941 82.857859 
L 264.667077 82.69818 
L 264.925344 82.094615 
L 265.672914 81.745562 
L 265.922794 81.302068 
L 268.280875 80.208272 
L 268.572897 80.038416 
L 269.25664 79.556308 
L 271.220613 77.665929 
L 271.392045 77.429628 
L 272.688437 76.279355 
L 272.770496 76.10521 
L 272.905713 75.905344 
L 273.523312 74.003708 
L 273.763373 72.785985 
L 273.869719 72.534013 
L 273.947964 71.977071 
L 273.940151 71.744801 
L 274.091756 70.655742 
L 273.556336 69.824025 
L 273.393907 68.80831 
L 273.737547 67.419588 
L 273.923604 66.905909 
L 274.367613 66.760815 
L 274.642268 66.696511 
L 274.893727 66.448518 
L 274.972241 66.023475 
L 275.069426 65.529385 
L 275.998019 64.153802 
L 276.183341 63.804546 
L 276.597605 63.072639 
L 276.295695 62.405465 
L 275.454743 62.179271 
L 275.050809 60.456296 
L 274.983364 60.117766 
L 275.230169 59.184572 
L 275.016161 58.920276 
L 274.565802 58.957292 
L 273.939312 59.314898 
L 273.804064 59.750445 
L 273.617407 59.843875 
L 273.469154 59.7959 
L 273.196145 59.700101 
L 273.160508 59.865125 
L 272.747025 59.975148 
L 272.751498 59.996789 
L 272.603487 60.167763 
L 271.440179 60.043741 
L 271.444348 60.07504 
L 271.225705 60.858245 
L 270.850766 61.540238 
L 270.898712 61.680778 
L 270.859399 61.696418 
L 269.356069 62.293837 
L 269.495285 63.199598 
L 269.457904 63.392901 
L 268.767295 63.535115 
L 268.504882 63.538475 
L 267.708585 63.606594 
L 267.377339 63.636617 
L 266.972432 63.222578 
L 266.892027 63.306754 
L 266.831407 63.237144 
L 266.726312 63.268077 
L 265.577826 62.877245 
L 265.329855 62.864631 
L 263.96695 63.322236 
L 263.084136 63.243392 
L 263.443141 61.998981 
L 264.153954 61.197028 
L 267.52299 57.641894 
L 268.022735 56.85073 
L 268.569556 55.30694 
L 268.640088 54.773465 
L 268.56931 54.063717 
L 268.447079 53.451163 
L 268.514844 52.977178 
L 268.244737 52.720349 
L 267.925611 52.326756 
L 267.441143 52.803817 
L 267.454687 52.81633 
L 267.197671 53.03876 
L 267.124537 53.008673 
L 266.176666 53.069983 
L 265.748399 52.850377 
L 264.527939 51.908674 
L 264.366187 52.011655 
L 263.883001 51.998049 
L 263.130119 53.088516 
L 262.695498 53.268737 
L 262.431712 53.596706 
L 262.454255 53.772587 
L 262.42535 53.807727 
L 262.377946 53.747946 
L 261.995228 53.543791 
L 261.873656 53.564554 
L 261.345333 53.693168 
L 261.189239 53.521979 
L 261.018905 52.621177 
L 260.96741 52.64326 
L 259.510468 52.540866 
L 259.265303 52.29619 
L 257.744329 52.576796 
L 257.322132 52.56144 
L 256.688895 52.797393 
L 256.04965 53.066743 
L 255.637641 52.699977 
L 255.659572 52.364991 
L 255.878476 52.143712 
L 255.847477 52.03713 
L 255.629401 51.660303 
L 255.653641 51.661515 
L 256.133202 51.355529 
L 255.822247 50.770712 
L 254.500344 49.810065 
L 254.708906 49.032646 
L 254.459488 48.903849 
L 254.415341 48.616933 
L 254.434789 48.608835 
L 254.526921 48.449137 
L 254.52221 48.244786 
L 254.587126 48.077577 
L 254.643906 47.922787 
L 253.256248 47.190539 
L 252.415738 47.034637 
L 252.48759 46.835712 
L 252.261792 46.428154 
L 251.511055 45.087836 
L 251.613921 44.519879 
L 251.573866 44.443636 
L 251.508295 44.520826 
L 251.15215 44.620724 
L 250.895561 45.209439 
L 250.661173 46.417674 
L 250.816608 46.801305 
L 250.824117 47.337029 
L 250.836011 47.332272 
L 251.300372 47.596234 
L 251.316476 47.709568 
L 251.320071 47.71241 
L 251.473562 47.959992 
L 251.652861 48.313114 
L 251.682513 48.289091 
L 251.955137 48.06754 
L 251.976629 48.085757 
L 252.140428 48.106514 
L 252.26914 48.216203 
L 252.436214 48.202414 
L 252.517369 48.282617 
L 252.535416 48.280854 
L 252.621255 48.283754 
L 251.574635 49.566734 
L 250.819029 49.808012 
L 249.781874 49.55899 
L 249.542944 49.35992 
L 249.488354 49.10779 
L 249.317146 49.053112 
L 249.203999 49.357823 
L 248.589483 49.328438 
L 248.469204 49.296886 
L 248.340281 49.289584 
L 248.121969 49.465585 
L 247.956204 49.737386 
L 247.076258 50.352927 
L 246.886467 50.438499 
L 246.481406 50.818889 
L 246.240209 50.977166 
L 245.96568 51.261392 
L 246.012884 51.403094 
L 246.06071 51.477548 
L 245.980383 51.485349 
L 245.865227 51.645256 
L 245.846679 51.762311 
L 245.774569 51.665337 
L 245.622036 51.609087 
L 245.439166 51.516952 
L 245.182085 51.978455 
L 245.368565 52.11576 
L 245.347958 52.132986 
L 245.191953 52.487048 
L 245.149196 52.460544 
L 244.990058 52.471073 
L 245.223984 53.105476 
L 244.697605 53.928622 
L 244.674353 53.885479 
L 244.418657 53.621896 
L 244.132324 53.776813 
L 244.025782 53.805857 
L 242.921855 53.999621 
L 242.780338 54.02504 
L 242.784406 54.053597 
L 242.685527 54.234071 
L 242.72678 54.280315 
L 242.625072 54.302695 
L 242.313486 54.491558 
L 242.313855 54.479632 
L 242.233105 54.427519 
L 242.196144 54.461566 
L 241.911392 54.722635 
L 241.937704 54.77848 
L 241.847558 54.781399 
L 241.793584 54.847048 
L 241.8107 54.875397 
L 241.905596 54.97148 
L 241.941002 54.955088 
L 242.204919 55.036934 
L 242.083701 55.598695 
L 242.003155 55.755399 
L 242.119996 55.764192 
L 242.216481 55.815388 
L 242.206447 55.866895 
L 242.161884 56.014263 
L 241.82344 56.397413 
L 241.683905 56.772675 
L 241.236729 56.669713 
L 241.033971 56.561464 
L 240.725337 57.386473 
L 240.657477 57.516388 
L 240.740644 57.520108 
L 241.00393 57.664956 
L 240.952724 58.13354 
L 240.780846 58.411379 
L 240.910009 59.234764 
L 240.878043 59.60237 
L 240.547882 59.668411 
L 240.42636 59.68647 
L 240.430867 59.582504 
L 240.125917 59.077031 
L 240.121333 59.120729 
L 240.123265 59.317601 
L 240.311181 59.780178 
L 239.899992 60.529614 
L 239.89418 60.717819 
L 239.210884 61.363194 
L 239.061026 61.389567 
L 238.606883 61.502629 
L 238.400546 61.330247 
L 238.221359 60.898325 
L 237.927974 60.904705 
L 237.609233 60.869161 
L 237.607955 60.890631 
L 237.540545 61.146419 
L 237.599507 61.306767 
L 237.644228 61.293395 
L 237.662271 61.28958 
L 237.531442 61.51139 
L 237.815597 61.661083 
L 237.775407 61.707163 
L 237.427294 61.840836 
L 237.397007 61.796847 
L 237.326329 61.886506 
L 237.218471 62.157207 
L 237.084674 62.537427 
L 236.686464 63.116363 
L 236.477513 63.333644 
L 236.398922 64.06545 
L 236.368146 64.192612 
L 236.142237 64.228673 
L 236.040803 64.164913 
L 236.02284 64.27428 
L 235.758072 64.428236 
L 235.599126 64.108214 
L 235.441505 63.852837 
L 234.990087 62.703132 
L 234.749306 62.285215 
L 234.533127 62.192543 
L 234.034194 62.252501 
L 233.886145 62.311012 
L 233.911687 62.498782 
L 233.850262 62.49333 
L 233.517861 62.420587 
L 232.333969 62.039774 
L 232.257764 62.018158 
L 232.236306 62.072943 
L 232.045465 62.269492 
L 231.494929 62.710081 
L 231.249887 63.091337 
L 230.960783 63.11124 
L 230.798489 63.181185 
L 230.612859 63.266435 
L 230.606766 63.254149 
L 230.524899 63.203925 
L 230.521474 63.389206 
L 230.278753 63.666982 
L 230.244397 64.166126 
L 230.266459 64.164654 
L 230.437282 64.137922 
L 230.395471 64.242652 
L 230.237796 64.35886 
L 230.339258 64.431047 
L 230.054441 64.992758 
L 229.966566 65.289787 
L 229.620624 66.074268 
L 228.508307 65.584062 
L 227.752493 63.907609 
L 227.731174 64.003737 
L 227.53223 64.167168 
L 227.527715 64.164325 
L 227.468357 64.157939 
L 227.35553 63.954075 
L 227.299493 63.980883 
L 226.90798 64.065059 
L 226.718521 64.190893 
L 226.607233 64.152974 
L 226.638451 63.902651 
L 226.594677 63.926345 
L 226.011757 64.427901 
L 225.809219 64.774965 
L 225.722876 64.706303 
L 225.729388 64.688294 
L 225.540999 64.596197 
L 225.267178 64.553862 
L 224.788533 64.868641 
L 224.917503 65.591314 
L 224.871562 66.138976 
L 224.8816 66.17217 
L 224.447757 66.243637 
L 224.25797 66.102207 
L 224.133384 66.165677 
L 224.169779 66.273704 
L 224.062933 66.290753 
L 224.047291 66.399709 
L 224.073752 66.487998 
L 223.973211 66.479988 
L 223.929883 66.629971 
L 223.877977 67.006496 
L 223.827598 67.16332 
L 223.325679 67.012869 
L 222.416993 67.346984 
L 222.322124 67.490429 
L 222.214366 67.597661 
L 221.888046 67.839388 
L 221.826228 68.048369 
L 221.572149 68.064249 
L 221.564447 68.038736 
L 221.475934 68.107645 
L 221.493677 68.144029 
L 221.552831 68.50334 
L 221.454938 68.721291 
L 221.223232 68.880983 
L 221.182183 68.836337 
L 221.067285 68.933039 
L 221.04881 69.121017 
L 220.961713 69.219064 
L 220.843612 69.214106 
L 220.867934 69.146321 
L 220.869666 69.087879 
L 220.770148 69.085403 
L 220.173441 69.244817 
L 220.143996 69.409733 
L 219.877935 69.463444 
L 219.59273 69.274424 
L 219.47289 69.009849 
L 219.311177 68.558952 
L 219.161631 68.593947 
L 218.975296 68.699928 
L 218.730743 68.870036 
L 218.598706 68.809914 
L 218.627199 68.671017 
L 218.828036 68.478667 
L 219.225454 68.340534 
L 219.319645 68.314806 
L 219.261772 68.218938 
L 219.359558 68.048211 
L 219.629891 67.895215 
L 220.027339 67.626453 
L 219.976453 67.605374 
L 219.888201 67.31787 
L 219.860584 67.265246 
L 219.831644 67.251539 
L 218.966351 67.144787 
L 218.337979 67.499431 
L 218.415735 67.551872 
L 218.629509 67.888576 
L 218.573002 68.023121 
L 218.425431 68.011941 
L 218.314154 67.888102 
L 218.171136 67.889347 
L 217.958402 67.938996 
L 217.796774 67.941983 
L 217.708221 67.99174 
L 217.681514 67.906913 
L 217.787405 67.822358 
L 218.079812 67.643786 
L 218.075652 67.488162 
L 217.839824 67.385516 
L 217.010284 67.566684 
L 217.047961 67.619498 
L 216.937331 67.805676 
L 216.925738 67.791027 
L 216.496348 67.999699 
L 216.398177 68.377537 
L 216.395213 68.374632 
L 216.25706 68.384044 
L 216.058409 68.391245 
L 215.791909 68.152 
L 215.572274 67.940891 
L 215.348443 67.876126 
L 215.184956 67.529302 
L 215.197261 67.408774 
L 214.667537 67.133379 
L 214.489971 67.311724 
L 214.285973 67.367747 
L 214.134695 67.375687 
L 213.673474 67.598002 
L 213.576916 67.633174 
L 213.5651 67.599196 
L 213.493595 67.32262 
L 213.565327 67.310808 
L 213.30191 67.437319 
L 213.274048 67.533699 
L 213.253883 67.536541 
L 213.059235 67.628632 
L 213.082517 67.659457 
L 213.062892 67.716301 
L 212.993969 67.725271 
L 212.85085 67.788621 
L 212.838807 67.737778 
L 212.832841 67.709605 
L 212.592245 67.813193 
L 212.261941 67.846924 
L 211.994071 67.870182 
L 211.648476 67.752698 
L 211.460675 67.411761 
L 210.751245 67.126374 
L 210.838958 67.050138 
L 211.330008 66.24912 
L 211.440869 65.587397 
L 211.045965 65.529789 
L 210.861963 65.662124 
L 209.960967 65.62555 
L 209.691484 65.549125 
L 208.674413 65.426467 
L 208.491096 65.380709 
L 207.846477 64.946438 
L 207.903588 64.903364 
L 208.067375 64.755465 
L 207.93767 64.733856 
L 207.881803 64.607181 
L 207.903746 64.591194 
L 208.266688 64.105441 
L 208.107131 64.023577 
L 207.996667 64.0826 
L 207.972922 64.031505 
L 207.793816 63.721141 
L 207.475248 63.639984 
L 206.835656 63.718753 
L 206.396482 63.800156 
L 206.107439 63.876853 
L 206.052484 63.857777 
L 205.870692 64.104039 
L 205.790187 64.124758 
L 205.639025 64.282593 
L 205.500794 64.301164 
L 205.418977 64.208132 
L 205.264582 64.070573 
L 204.079866 63.595376 
L 203.095957 63.124089 
L 202.06718 63.125112 
L 201.580676 63.226242 
L 201.491285 63.624085 
L 200.809204 63.614174 
L 200.052894 63.635405 
L 199.450968 63.980611 
L 199.451341 63.952894 
L 199.364663 63.816858 
L 199.261219 63.763905 
L 199.136602 63.558998 
L 199.012051 63.400071 
L 198.896137 62.58659 
L 198.636765 62.350245 
L 197.580781 61.993485 
L 197.378466 61.648626 
L 197.630293 61.120198 
L 197.408995 60.664058 
L 196.899721 60.606248 
L 196.379041 60.412288 
L 196.126305 60.273675 
L 195.688871 59.931848 
L 195.173084 59.719437 
L 194.93281 59.556334 
L 194.798194 59.461186 
L 194.248394 59.307457 
L 194.13716 59.082078 
L 193.036366 59.090542 
L 192.728452 59.28339 
L 192.45845 59.273978 
L 192.302876 59.300066 
L 192.209386 59.12781 
L 192.202804 58.977031 
L 191.850088 58.768454 
L 191.708101 58.608074 
L 191.135612 57.331979 
L 191.138306 57.137362 
L 191.054515 57.1481 
L 190.71808 57.293321 
L 190.457353 57.463555 
L 189.576026 57.457302 
L 189.420144 57.793665 
L 189.399976 57.842114 
L 189.459365 57.862011 
L 189.492388 57.987903 
L 189.364604 58.107604 
L 188.741539 58.2695 
L 188.310536 57.456986 
L 188.176016 57.015387 
L 188.136257 56.927522 
L 187.723382 57.061119 
L 187.698903 56.97357 
L 187.671383 56.931817 
L 187.556531 57.492422 
L 187.483132 57.649076 
L 187.479476 57.739278 
L 187.378788 57.72854 
L 186.466823 57.669921 
L 186.477677 57.812804 
L 186.406048 58.059913 
L 186.386457 58.053785 
L 185.426573 57.742626 
L 185.132742 56.44223 
L 184.819905 56.401216 
L 184.027195 56.340102 
L 184.097345 56.416648 
L 184.197683 56.657124 
L 184.11816 56.865523 
L 184.157924 56.981485 
L 184.300565 57.126263 
L 184.455634 57.698706 
L 183.51033 58.236691 
L 182.935392 58.801617 
L 183.07253 59.637756 
L 183.066814 60.029958 
L 183.164442 60.601365 
L 182.910836 60.835019 
L 182.359439 60.882899 
L 182.090822 61.171698 
L 181.280315 60.965711 
L 181.269538 61.005506 
L 181.108037 61.454875 
L 180.986526 61.689034 
L 180.875369 61.793259 
L 180.769446 61.973916 
L 180.641008 62.141119 
L 180.635619 62.138466 
L 180.570688 62.153373 
L 180.576961 62.220772 
L 180.348566 62.558525 
L 180.246184 62.596741 
L 180.219011 62.499401 
L 180.094883 62.428906 
L 178.566666 62.304468 
L 178.158988 62.138908 
L 178.04021 62.768491 
L 177.86108 63.03436 
L 177.699272 63.141238 
L 177.048572 63.902651 
L 176.969322 64.066063 
L 176.961393 64.063726 
L 176.851122 64.022099 
L 176.566686 63.975419 
L 175.897357 63.863487 
L 175.70264 63.836262 
L 174.440261 63.758725 
L 174.75125 64.174388 
L 175.318251 64.354761 
L 175.882108 65.11659 
L 175.703675 65.170016 
L 175.699418 65.328395 
L 175.280982 65.314435 
L 175.111718 65.435254 
L 174.619147 65.421521 
L 174.334842 65.448336 
L 173.935859 65.403058 
L 173.358338 65.416076 
L 171.995329 66.010109 
L 171.844104 66.055583 
L 171.851621 66.004551 
L 171.810165 65.905341 
L 171.752966 65.126444 
L 171.317355 65.191177 
L 171.315539 65.084937 
L 171.026515 64.969045 
L 171.072706 64.749395 
L 170.830678 64.579331 
L 170.683876 64.347143 
L 170.468855 64.40964 
L 170.396457 64.503828 
L 169.268298 64.379509 
L 169.10065 64.598016 
L 168.306096 64.635303 
L 167.960666 64.501377 
L 167.628127 64.801849 
L 167.293951 65.263427 
L 166.897146 65.531728 
L 166.10332 66.311762 
L 165.837979 66.334376 
L 165.586878 66.297885 
L 165.307408 66.422361 
L 165.131465 66.535607 
L 165.004547 66.629087 
L 165.142935 66.731278 
L 165.322307 67.017013 
L 165.289945 67.037726 
L 165.222646 68.065733 
L 165.628762 68.236795 
L 165.502583 68.771016 
L 165.692578 69.037043 
L 165.521831 69.478787 
L 165.269126 69.878576 
L 165.230683 70.257204 
L 165.073651 70.287676 
L 165.036435 70.152827 
L 165.084324 70.721979 
L 165.131754 71.073894 
L 164.851852 71.249763 
L 164.921314 71.503169 
L 164.451394 71.594179 
L 164.382683 71.849999 
L 163.998995 71.855387 
L 163.413053 71.835584 
L 163.147885 72.11348 
L 163.079917 72.030694 
L 163.024954 71.769941 
L 162.276807 71.627974 
L 162.028686 71.751484 
L 161.837656 71.145727 
L 161.556292 70.941932 
L 161.403705 70.906281 
L 160.938547 71.000317 
L 160.943927 71.026613 
L 160.900242 71.091037 
L 160.562475 71.060408 
L 160.281869 70.931933 
L 159.942455 70.88927 
L 159.972084 70.947889 
L 159.69771 71.118521 
L 159.125828 70.959833 
L 159.024082 70.904967 
L 158.917594 71.654005 
L 159.070096 72.162068 
L 159.253732 72.459185 
L 159.06423 72.603023 
L 158.816628 72.763258 
L 158.806552 72.72429 
L 158.67635 72.652811 
L 158.647818 72.712674 
L 158.509357 72.771602 
L 158.360076 72.751338 
L 158.352686 72.781526 
L 158.251679 72.707368 
L 157.992596 72.641264 
L 158.005605 72.634871 
L 157.971619 72.546116 
L 157.959122 72.543248 
L 157.676391 72.466968 
L 157.658855 72.412739 
L 156.596089 72.504495 
L 156.518391 72.470056 
L 156.5793 72.390845 
L 156.585662 72.378604 
L 156.552923 72.378484 
L 156.496244 72.341165 
L 156.218024 72.235689 
L 155.306059 72.389525 
L 155.300186 72.376412 
L 154.968993 72.341127 
L 154.969097 72.309348 
L 154.887053 72.220421 
L 154.051678 72.050168 
M 193.23464 128.004386 
L 193.246356 127.954737 
L 193.318185 128.060882 
L 193.23464 128.004386 
M 224.183666 116.419547 
L 224.558679 116.138979 
L 224.63132 116.052219 
L 224.668797 116.070222 
L 224.80807 116.144765 
L 224.940935 115.975573 
L 225.124283 115.815464 
L 225.168434 115.5773 
L 225.393119 115.024742 
L 225.157226 114.686162 
L 225.045353 114.34882 
L 225.118282 113.99609 
L 225.088557 113.399284 
L 225.25602 113.131874 
L 225.531284 112.721984 
L 225.769983 112.557953 
L 227.281195 110.760144 
L 227.129748 110.674212 
L 226.01183 110.161418 
L 225.301199 110.265365 
L 225.727152 108.092131 
L 225.806232 107.804899 
L 225.885062 107.876814 
L 226.115197 108.024138 
L 226.419116 107.937751 
L 226.439504 107.699998 
L 226.50464 107.1987 
L 226.693141 106.715676 
L 226.604435 106.150011 
L 226.445943 106.119337 
L 225.851392 106.275157 
L 225.746982 105.828227 
L 225.828329 105.851763 
L 226.03589 105.79351 
L 226.333751 105.658959 
L 226.706396 105.297051 
L 226.994008 105.134093 
L 227.185323 105.158741 
L 227.535036 105.338356 
L 227.928027 105.496677 
L 228.460665 105.727886 
L 229.150712 105.817267 
L 229.178521 105.45649 
L 228.546742 104.680423 
L 228.645029 104.52617 
L 228.782131 104.380823 
L 229.477175 103.240814 
L 229.478949 103.266618 
L 230.660405 103.284589 
L 230.882191 103.300463 
L 230.953516 103.329368 
L 230.961033 103.230783 
L 230.902679 102.603436 
L 230.873308 102.456232 
L 230.959459 102.475997 
L 231.438862 102.482112 
L 231.714218 102.32271 
L 231.757838 101.702122 
L 231.633645 101.694081 
L 231.640688 101.588396 
L 231.666861 101.189492 
L 231.769581 101.215157 
L 232.21802 101.280572 
L 232.691272 101.387444 
L 232.718869 101.400835 
L 232.633385 101.456662 
L 232.376892 101.706771 
L 232.64701 102.484531 
L 232.559374 102.689191 
L 232.63213 103.197052 
L 232.603109 103.205561 
L 232.430581 103.308725 
L 232.862015 103.257636 
L 233.810783 103.573842 
L 233.812935 103.55776 
L 233.948317 103.554974 
L 234.075201 103.531438 
L 234.721786 103.477652 
L 234.796225 103.468657 
L 234.821658 103.430548 
L 235.033242 103.331989 
L 235.128472 103.284216 
L 235.138952 103.292649 
L 235.264558 103.039205 
L 235.251788 103.035851 
L 235.299095 102.932864 
L 235.317539 102.937216 
L 235.576483 102.728336 
L 235.578038 102.731166 
L 235.604811 102.7356 
L 235.66686 102.687701 
L 235.68077 102.689886 
L 235.806103 102.480823 
L 235.823338 102.327113 
L 235.961565 102.04585 
L 236.099668 101.975994 
L 236.100007 101.988369 
L 236.566466 102.305055 
L 236.746173 102.348887 
L 236.847996 102.560773 
L 237.203314 102.694889 
L 237.34338 102.661044 
L 237.497626 102.628829 
L 237.490567 102.582288 
L 237.535977 102.213476 
L 237.735035 102.010565 
L 237.845861 101.897124 
L 238.681533 101.821381 
L 239.008361 101.4555 
L 238.438901 101.27322 
L 238.133607 101.06777 
L 238.218376 100.974352 
L 238.572905 100.717832 
L 238.716497 100.786519 
L 239.085798 100.287274 
L 239.153262 100.358059 
L 239.238454 100.25667 
L 239.099261 100.578088 
L 239.097775 100.822626 
L 239.11737 100.806404 
L 239.582467 100.554742 
L 239.543431 101.38354 
L 239.891094 101.704598 
L 240.66576 102.093971 
L 240.769484 102.060821 
L 240.795484 102.151983 
L 240.864403 102.579742 
L 240.713821 103.158685 
L 240.250214 103.473546 
L 240.130227 103.891691 
L 239.89948 104.70876 
L 239.988464 104.700144 
L 240.453318 105.514976 
L 241.240347 105.569022 
L 242.096179 105.97924 
L 242.564613 106.496816 
L 242.824959 106.702727 
L 242.990439 106.737993 
L 242.995801 106.756324 
L 243.118258 106.851017 
L 243.202704 106.960163 
L 243.274933 107.487012 
L 243.392999 108.219443 
L 245.326046 108.758123 
L 245.271022 108.845521 
L 245.093648 108.942558 
L 244.839646 108.943954 
L 244.83241 108.936355 
L 244.854876 109.098959 
L 244.905989 109.439914 
L 245.005523 109.423358 
L 245.530151 109.444753 
L 245.897924 109.46134 
L 246.087691 109.564327 
L 246.019742 109.812068 
L 245.099564 110.717507 
L 244.817807 111.656481 
L 244.87163 111.747068 
L 245.020603 111.782846 
L 244.953154 111.874634 
L 244.414 112.788354 
L 244.485713 112.913734 
L 244.497306 112.955739 
L 244.457158 113.006001 
L 244.314421 113.196809 
L 244.41417 113.232688 
L 244.525288 113.174252 
L 244.650755 113.19679 
L 244.686978 113.280461 
L 244.752875 113.461977 
L 244.792665 113.315752 
L 244.847155 113.317199 
L 244.832317 113.222638 
L 244.961526 113.014017 
L 245.601756 112.670781 
L 246.064317 112.861438 
L 246.353106 113.004586 
L 246.550675 113.030548 
L 246.947061 113.351934 
L 247.183693 113.535509 
L 247.620697 113.7928 
L 247.792332 114.194036 
L 247.927522 114.146528 
L 247.847629 113.840902 
L 247.690258 113.346628 
L 247.897685 113.478729 
L 248.524225 114.082079 
L 248.984984 114.478476 
L 249.156188 114.514595 
L 249.898404 114.742841 
L 249.845069 114.864507 
L 249.914677 114.976167 
L 249.855134 115.232845 
L 250.079869 115.277668 
L 250.046457 115.347828 
L 249.925012 115.358389 
L 249.821414 115.34268 
L 249.845997 115.235037 
L 249.892854 115.03133 
L 249.786962 115.035228 
L 249.545904 115.14769 
L 249.404098 115.376088 
L 249.27843 115.566562 
L 248.748752 115.4234 
L 248.603671 115.313389 
L 249.129773 115.583452 
L 249.254159 115.70966 
L 249.082954 116.117875 
L 248.874893 116.641521 
L 249.015056 116.884631 
L 249.187411 117.235384 
L 249.150322 117.251605 
L 249.047067 117.423444 
L 248.882164 117.681487 
L 248.870909 117.675827 
L 248.737783 117.686805 
L 248.141287 117.874625 
L 247.664032 118.243999 
L 247.687853 118.178066 
L 247.687718 118.170713 
L 247.58004 118.345243 
L 247.193854 118.679042 
L 247.364731 118.742518 
L 247.661149 118.828993 
L 247.681005 118.828128 
L 247.652916 118.928671 
L 247.61853 119.084623 
L 247.724325 119.079664 
L 247.749751 119.100257 
L 247.727662 119.18917 
L 247.516364 119.535893 
L 247.233941 119.725178 
L 247.213195 119.697581 
L 246.954478 119.590557 
L 246.785244 119.696229 
L 246.416936 120.177225 
L 246.125746 120.683065 
L 246.063878 120.781573 
L 245.936136 121.087623 
L 245.845794 121.28531 
L 245.763615 121.551273 
L 245.628449 121.526518 
L 245.618037 121.503671 
L 245.289681 120.935056 
L 245.331662 120.930912 
L 245.460763 119.990807 
L 245.696244 119.679351 
L 245.553114 119.525502 
L 245.509659 119.4614 
L 245.519516 119.08058 
L 245.490726 119.087137 
L 245.101646 119.063709 
L 244.974323 118.837451 
L 244.908422 118.875029 
L 244.100859 119.325945 
L 244.137293 119.21301 
L 244.046166 118.842997 
L 243.63343 118.293933 
L 243.595722 118.050526 
L 243.515372 118.079324 
L 242.821987 118.307362 
L 242.285958 118.402788 
L 241.368301 118.242793 
L 241.468061 117.731515 
L 241.50717 117.619659 
L 241.378089 117.705945 
L 241.094623 117.768379 
L 240.674239 117.557181 
L 240.501526 117.601707 
L 239.248965 117.915785 
L 239.031281 117.103289 
L 238.738659 116.372178 
L 238.435794 116.370289 
L 236.900665 117.029429 
L 236.935544 117.389921 
L 237.187918 118.671411 
L 236.866536 119.160613 
L 235.726911 119.004502 
L 235.565852 118.39277 
L 235.03793 118.390673 
L 235.03164 118.010074 
L 234.16761 117.356178 
L 233.993831 117.028096 
L 233.998388 116.919329 
L 233.954452 116.94368 
L 232.794443 117.716127 
L 232.750277 117.6395 
L 232.205091 116.63312 
L 232.060556 116.747995 
L 231.210701 117.393345 
L 230.880713 117.313319 
L 230.619541 117.261737 
L 230.393447 117.321 
L 230.376758 117.184231 
L 230.175913 116.329199 
L 229.016939 116.525781 
L 228.448768 116.685353 
L 228.297159 116.722766 
L 226.914731 117.572145 
L 226.856766 117.889823 
L 227.006436 117.869812 
L 227.377018 117.812684 
L 227.385432 117.873349 
L 227.301006 117.998963 
L 227.074139 118.02814 
L 226.557516 117.969862 
L 226.042918 117.99907 
L 225.801317 118.268205 
L 225.843082 118.311784 
L 225.909364 118.461596 
L 225.842528 118.451231 
L 225.828602 118.46497 
L 225.753563 118.40076 
L 225.682716 118.189746 
L 225.936184 118.082773 
L 226.131424 117.912822 
L 225.996793 117.867506 
L 225.984268 117.825482 
L 226.082239 117.808111 
L 226.098801 117.795086 
L 225.973838 117.744995 
L 225.922012 117.699685 
L 225.88405 117.74411 
L 225.563923 117.831786 
L 224.899113 117.060494 
L 225.086336 116.997687 
L 224.943095 116.821502 
L 224.905772 116.827061 
L 224.915567 116.91444 
L 224.859904 117.056508 
L 224.801562 117.04107 
L 224.669817 116.889912 
L 224.644275 116.78894 
L 224.549726 116.813663 
L 224.495634 116.832885 
L 224.544426 116.925513 
L 224.579863 117.011527 
L 224.554599 117.035562 
L 224.531871 117.064726 
L 224.254598 116.855518 
L 224.183666 116.419547 
M 240.160307 103.82661 
L 240.23779 103.76995 
L 240.160307 103.82661 
" style="fill:none;stroke:#ffc0cb;"/>
    <path clip-path="url(#pe8ddb76d30)" d="M 190.688866 88.522846 
L 190.695067 88.525575 
L 190.707776 88.531165 
L 190.714416 88.532214 
L 190.721867 88.531216 
L 190.730304 88.527262 
L 190.753513 88.50358 
L 190.755772 88.505576 
L 190.799866 88.465036 
L 190.845445 88.425184 
L 190.811035 88.400088 
L 190.790428 88.425064 
L 190.783281 88.416644 
L 190.757951 88.448979 
L 190.730974 88.483613 
L 190.72032 88.475364 
L 190.717075 88.474966 
L 190.71268 88.48012 
L 190.714231 88.482779 
L 190.703646 88.499095 
L 190.688866 88.522846 
" style="fill:none;stroke:#ffc0cb;"/>
    <path clip-path="url(#pe8ddb76d30)" d="M 192.302807 128.405065 
L 192.315989 128.409639 
L 192.339221 128.417528 
L 192.368219 128.362093 
L 192.349494 128.354443 
L 192.332605 128.347925 
L 192.302807 128.405065 
" style="fill:none;stroke:#ffc0cb;"/>
    <path clip-path="url(#pe8ddb76d30)" d="M 192.401293 128.206627 
L 192.402783 128.216872 
L 192.409992 128.221945 
L 192.419414 128.220593 
L 192.423163 128.226726 
L 192.430206 128.241899 
L 192.43494 128.260717 
L 192.437631 128.266875 
L 192.442246 128.271537 
L 192.449794 128.272023 
L 192.468276 128.279654 
L 192.483741 128.278991 
L 192.489545 128.347994 
L 192.495076 128.379318 
L 192.505926 128.423459 
L 192.54181 128.418823 
L 192.603362 128.424483 
L 192.624777 128.423213 
L 192.646589 128.412803 
L 192.667466 128.407548 
L 192.688246 128.414073 
L 192.709269 128.415557 
L 192.711821 128.437716 
L 192.713838 128.45606 
L 192.558622 128.720103 
L 192.716128 128.456755 
L 192.714373 128.438575 
L 192.764493 128.455403 
L 192.796382 128.465339 
L 192.817428 128.430749 
L 192.844262 128.445429 
L 192.845298 128.441197 
L 192.856852 128.427711 
L 192.869885 128.402791 
L 192.869604 128.375408 
L 192.877078 128.362927 
L 192.86226 128.351746 
L 192.843119 128.340983 
L 192.820769 128.336574 
L 192.762149 128.318451 
L 192.734926 128.325879 
L 192.709631 128.334047 
L 192.704315 128.329063 
L 192.677188 128.323586 
L 192.650746 128.318786 
L 192.622364 128.3255 
L 192.590018 128.319765 
L 192.574453 128.314869 
L 192.556467 128.315059 
L 192.544462 128.311547 
L 192.537053 128.311124 
L 192.532468 128.307656 
L 192.524393 128.299728 
L 192.518539 128.292875 
L 192.511103 128.288548 
L 192.507424 128.285813 
L 192.501261 128.285257 
L 192.493798 128.278953 
L 192.489064 128.276016 
L 192.483664 128.277222 
L 192.475893 128.276395 
L 192.468946 128.277866 
L 192.450394 128.269484 
L 192.442269 128.268107 
L 192.440036 128.265258 
L 192.438543 128.26325 
L 192.431888 128.241053 
L 192.424964 128.224819 
L 192.420014 128.218395 
L 192.410042 128.219235 
L 192.40413 128.214864 
L 192.403168 128.206848 
L 192.407182 128.200418 
L 192.405019 128.198706 
L 192.401293 128.206627 
" style="fill:none;stroke:#ffc0cb;"/>
    <path clip-path="url(#pe8ddb76d30)" d="M 192.933981 128.519871 
L 192.935367 128.520882 
L 192.935297 128.536351 
L 192.969888 128.544032 
L 193.010082 128.528721 
L 193.0509 128.537457 
L 193.102961 128.549319 
L 193.143332 128.545498 
L 193.158158 128.521456 
L 193.128952 128.495116 
L 193.135476 128.460892 
L 193.107271 128.447456 
L 193.07287 128.451158 
L 193.030832 128.434356 
L 193.045254 128.430825 
L 193.053725 128.433433 
L 193.060476 128.432625 
L 193.069825 128.425342 
L 193.082303 128.410422 
L 193.086345 128.40655 
L 193.091191 128.400296 
L 193.093254 128.392318 
L 193.105043 128.382464 
L 193.118664 128.380121 
L 193.128433 128.372604 
L 193.133698 128.370229 
L 193.145676 128.369231 
L 193.145753 128.36762 
L 193.133544 128.368542 
L 193.126755 128.371227 
L 193.117748 128.37767 
L 193.104585 128.380234 
L 193.094093 128.388099 
L 193.091344 128.392091 
L 193.089285 128.399033 
L 193.085964 128.405318 
L 193.080737 128.409386 
L 193.068224 128.42442 
L 193.059945 128.430787 
L 193.054641 128.4314 
L 193.046778 128.428216 
L 193.03144 128.431437 
L 193.02716 128.433768 
L 193.009997 128.44402 
L 192.994178 128.453906 
L 192.95756 128.460759 
L 192.949604 128.471883 
L 192.945362 128.481068 
L 192.933981 128.519871 
" style="fill:none;stroke:#ffc0cb;"/>
    <path clip-path="url(#pe8ddb76d30)" d="M 193.174316 128.56909 
L 193.196474 128.57794 
L 193.203679 128.578035 
L 193.217424 128.585489 
L 193.238016 128.577807 
L 193.261267 128.585034 
L 193.288106 128.585369 
L 193.308667 128.565427 
L 193.311045 128.558617 
L 193.312816 128.547058 
L 193.313755 128.54119 
L 193.299752 128.529201 
L 193.272517 128.524482 
L 193.247311 128.522638 
L 193.230568 128.515645 
L 193.208106 128.515083 
L 193.194053 128.512897 
L 193.176271 128.536623 
L 193.174316 128.56909 
" style="fill:none;stroke:#ffc0cb;"/>
    <path clip-path="url(#pe8ddb76d30)" d="M 193.310753 128.637456 
L 193.31088 128.638883 
L 193.317927 128.64057 
L 193.323192 128.644259 
L 193.318262 128.644644 
L 193.312042 128.644411 
L 193.31225 128.645863 
L 193.318597 128.646072 
L 193.324274 128.645604 
L 193.32208 128.648409 
L 193.316972 128.651081 
L 193.318035 128.652066 
L 193.323939 128.64978 
L 193.325952 128.64563 
L 193.333307 128.646463 
L 193.341232 128.65103 
L 193.343969 128.673183 
L 193.345381 128.678356 
L 193.350989 128.684547 
L 193.358318 128.689063 
L 193.365442 128.69171 
L 193.374433 128.69195 
L 193.380876 128.6955 
L 193.387793 128.697161 
L 193.396307 128.694514 
L 193.405375 128.696763 
L 193.41236 128.701311 
L 193.418908 128.709106 
L 193.425162 128.714387 
L 193.431605 128.722725 
L 193.436054 128.731151 
L 193.43786 128.737373 
L 193.444776 128.74189 
L 193.4455 128.740437 
L 193.461992 128.739641 
L 193.471826 128.728555 
L 193.474324 128.708664 
L 193.46603 128.693782 
L 193.450919 128.684187 
L 193.426255 128.668648 
L 193.411379 128.669734 
L 193.395845 128.65964 
L 193.384352 128.652742 
L 193.371169 128.646824 
L 193.342495 128.642522 
L 193.343037 128.650096 
L 193.341879 128.64882 
L 193.333981 128.644928 
L 193.326268 128.644019 
L 193.317927 128.6393 
L 193.310753 128.637456 
" style="fill:none;stroke:#ffc0cb;"/>
   </g>
   <g id="matplotlib.axis_1">
    <g id="xtick_1">
     <g id="line2d_1">
      <defs>
       <path d="M 0 0 
L 0 3.5 
" id="m78d1b7ab69" style="stroke:#000000;stroke-width:0.8;"/>
      </defs>
      <g>
       <use style="stroke:#000000;stroke-width:0.8;" x="182.294045" xlink:href="#m78d1b7ab69" y="252"/>
      </g>
     </g>
     <g id="text_1">
      <!-- 12 -->
      <defs>
       <path d="M 12.40625 8.296875 
L 28.515625 8.296875 
L 28.515625 63.921875 
L 10.984375 60.40625 
L 10.984375 69.390625 
L 28.421875 72.90625 
L 38.28125 72.90625 
L 38.28125 8.296875 
L 54.390625 8.296875 
L 54.390625 0 
L 12.40625 0 
z
" id="DejaVuSans-49"/>
       <path d="M 19.1875 8.296875 
L 53.609375 8.296875 
L 53.609375 0 
L 7.328125 0 
L 7.328125 8.296875 
Q 12.9375 14.109375 22.625 23.890625 
Q 32.328125 33.6875 34.8125 36.53125 
Q 39.546875 41.84375 41.421875 45.53125 
Q 43.3125 49.21875 43.3125 52.78125 
Q 43.3125 58.59375 39.234375 62.25 
Q 35.15625 65.921875 28.609375 65.921875 
Q 23.96875 65.921875 18.8125 64.3125 
Q 13.671875 62.703125 7.8125 59.421875 
L 7.8125 69.390625 
Q 13.765625 71.78125 18.9375 73 
Q 24.125 74.21875 28.421875 74.21875 
Q 39.75 74.21875 46.484375 68.546875 
Q 53.21875 62.890625 53.21875 53.421875 
Q 53.21875 48.921875 51.53125 44.890625 
Q 49.859375 40.875 45.40625 35.40625 
Q 44.1875 33.984375 37.640625 27.21875 
Q 31.109375 20.453125 19.1875 8.296875 
z
" id="DejaVuSans-50"/>
      </defs>
      <g transform="translate(175.931545 266.598437)scale(0.1 -0.1)">
       <use xlink:href="#DejaVuSans-49"/>
       <use x="63.623047" xlink:href="#DejaVuSans-50"/>
      </g>
     </g>
    </g>
    <g id="xtick_2">
     <g id="line2d_2">
      <g>
       <use style="stroke:#000000;stroke-width:0.8;" x="220.78333" xlink:href="#m78d1b7ab69" y="252"/>
      </g>
     </g>
     <g id="text_2">
      <!-- 13 -->
      <defs>
       <path d="M 40.578125 39.3125 
Q 47.65625 37.796875 51.625 33 
Q 55.609375 28.21875 55.609375 21.1875 
Q 55.609375 10.40625 48.1875 4.484375 
Q 40.765625 -1.421875 27.09375 -1.421875 
Q 22.515625 -1.421875 17.65625 -0.515625 
Q 12.796875 0.390625 7.625 2.203125 
L 7.625 11.71875 
Q 11.71875 9.328125 16.59375 8.109375 
Q 21.484375 6.890625 26.8125 6.890625 
Q 36.078125 6.890625 40.9375 10.546875 
Q 45.796875 14.203125 45.796875 21.1875 
Q 45.796875 27.640625 41.28125 31.265625 
Q 36.765625 34.90625 28.71875 34.90625 
L 20.21875 34.90625 
L 20.21875 43.015625 
L 29.109375 43.015625 
Q 36.375 43.015625 40.234375 45.921875 
Q 44.09375 48.828125 44.09375 54.296875 
Q 44.09375 59.90625 40.109375 62.90625 
Q 36.140625 65.921875 28.71875 65.921875 
Q 24.65625 65.921875 20.015625 65.03125 
Q 15.375 64.15625 9.8125 62.3125 
L 9.8125 71.09375 
Q 15.4375 72.65625 20.34375 73.4375 
Q 25.25 74.21875 29.59375 74.21875 
Q 40.828125 74.21875 47.359375 69.109375 
Q 53.90625 64.015625 53.90625 55.328125 
Q 53.90625 49.265625 50.4375 45.09375 
Q 46.96875 40.921875 40.578125 39.3125 
z
" id="DejaVuSans-51"/>
      </defs>
      <g transform="translate(214.42083 266.598437)scale(0.1 -0.1)">
       <use xlink:href="#DejaVuSans-49"/>
       <use x="63.623047" xlink:href="#DejaVuSans-51"/>
      </g>
     </g>
    </g>
    <g id="xtick_3">
     <g id="line2d_3">
      <g>
       <use style="stroke:#000000;stroke-width:0.8;" x="259.272615" xlink:href="#m78d1b7ab69" y="252"/>
      </g>
     </g>
     <g id="text_3">
      <!-- 14 -->
      <defs>
       <path d="M 37.796875 64.3125 
L 12.890625 25.390625 
L 37.796875 25.390625 
z
M 35.203125 72.90625 
L 47.609375 72.90625 
L 47.609375 25.390625 
L 58.015625 25.390625 
L 58.015625 17.1875 
L 47.609375 17.1875 
L 47.609375 0 
L 37.796875 0 
L 37.796875 17.1875 
L 4.890625 17.1875 
L 4.890625 26.703125 
z
" id="DejaVuSans-52"/>
      </defs>
      <g transform="translate(252.910115 266.598437)scale(0.1 -0.1)">
       <use xlink:href="#DejaVuSans-49"/>
       <use x="63.623047" xlink:href="#DejaVuSans-52"/>
      </g>
     </g>
    </g>
   </g>
   <g id="matplotlib.axis_2">
    <g id="ytick_1">
     <g id="line2d_4">
      <defs>
       <path d="M 0 0 
L -3.5 0 
" id="maf6193be56" style="stroke:#000000;stroke-width:0.8;"/>
      </defs>
      <g>
       <use style="stroke:#000000;stroke-width:0.8;" x="147.316846" xlink:href="#maf6193be56" y="237.676559"/>
      </g>
     </g>
     <g id="text_4">
      <!-- 50.5 -->
      <defs>
       <path d="M 10.796875 72.90625 
L 49.515625 72.90625 
L 49.515625 64.59375 
L 19.828125 64.59375 
L 19.828125 46.734375 
Q 21.96875 47.46875 24.109375 47.828125 
Q 26.265625 48.1875 28.421875 48.1875 
Q 40.625 48.1875 47.75 41.5 
Q 54.890625 34.8125 54.890625 23.390625 
Q 54.890625 11.625 47.5625 5.09375 
Q 40.234375 -1.421875 26.90625 -1.421875 
Q 22.3125 -1.421875 17.546875 -0.640625 
Q 12.796875 0.140625 7.71875 1.703125 
L 7.71875 11.625 
Q 12.109375 9.234375 16.796875 8.0625 
Q 21.484375 6.890625 26.703125 6.890625 
Q 35.15625 6.890625 40.078125 11.328125 
Q 45.015625 15.765625 45.015625 23.390625 
Q 45.015625 31 40.078125 35.4375 
Q 35.15625 39.890625 26.703125 39.890625 
Q 22.75 39.890625 18.8125 39.015625 
Q 14.890625 38.140625 10.796875 36.28125 
z
" id="DejaVuSans-53"/>
       <path d="M 31.78125 66.40625 
Q 24.171875 66.40625 20.328125 58.90625 
Q 16.5 51.421875 16.5 36.375 
Q 16.5 21.390625 20.328125 13.890625 
Q 24.171875 6.390625 31.78125 6.390625 
Q 39.453125 6.390625 43.28125 13.890625 
Q 47.125 21.390625 47.125 36.375 
Q 47.125 51.421875 43.28125 58.90625 
Q 39.453125 66.40625 31.78125 66.40625 
z
M 31.78125 74.21875 
Q 44.046875 74.21875 50.515625 64.515625 
Q 56.984375 54.828125 56.984375 36.375 
Q 56.984375 17.96875 50.515625 8.265625 
Q 44.046875 -1.421875 31.78125 -1.421875 
Q 19.53125 -1.421875 13.0625 8.265625 
Q 6.59375 17.96875 6.59375 36.375 
Q 6.59375 54.828125 13.0625 64.515625 
Q 19.53125 74.21875 31.78125 74.21875 
z
" id="DejaVuSans-48"/>
       <path d="M 10.6875 12.40625 
L 21 12.40625 
L 21 0 
L 10.6875 0 
z
" id="DejaVuSans-46"/>
      </defs>
      <g transform="translate(118.051221 241.475778)scale(0.1 -0.1)">
       <use xlink:href="#DejaVuSans-53"/>
       <use x="63.623047" xlink:href="#DejaVuSans-48"/>
       <use x="127.246094" xlink:href="#DejaVuSans-46"/>
       <use x="159.033203" xlink:href="#DejaVuSans-53"/>
      </g>
     </g>
    </g>
    <g id="ytick_2">
     <g id="line2d_5">
      <g>
       <use style="stroke:#000000;stroke-width:0.8;" x="147.316846" xlink:href="#maf6193be56" y="206.093167"/>
      </g>
     </g>
     <g id="text_5">
      <!-- 51.0 -->
      <g transform="translate(118.051221 209.892386)scale(0.1 -0.1)">
       <use xlink:href="#DejaVuSans-53"/>
       <use x="63.623047" xlink:href="#DejaVuSans-49"/>
       <use x="127.246094" xlink:href="#DejaVuSans-46"/>
       <use x="159.033203" xlink:href="#DejaVuSans-48"/>
      </g>
     </g>
    </g>
    <g id="ytick_3">
     <g id="line2d_6">
      <g>
       <use style="stroke:#000000;stroke-width:0.8;" x="147.316846" xlink:href="#maf6193be56" y="174.509775"/>
      </g>
     </g>
     <g id="text_6">
      <!-- 51.5 -->
      <g transform="translate(118.051221 178.308994)scale(0.1 -0.1)">
       <use xlink:href="#DejaVuSans-53"/>
       <use x="63.623047" xlink:href="#DejaVuSans-49"/>
       <use x="127.246094" xlink:href="#DejaVuSans-46"/>
       <use x="159.033203" xlink:href="#DejaVuSans-53"/>
      </g>
     </g>
    </g>
    <g id="ytick_4">
     <g id="line2d_7">
      <g>
       <use style="stroke:#000000;stroke-width:0.8;" x="147.316846" xlink:href="#maf6193be56" y="142.926383"/>
      </g>
     </g>
     <g id="text_7">
      <!-- 52.0 -->
      <g transform="translate(118.051221 146.725601)scale(0.1 -0.1)">
       <use xlink:href="#DejaVuSans-53"/>
       <use x="63.623047" xlink:href="#DejaVuSans-50"/>
       <use x="127.246094" xlink:href="#DejaVuSans-46"/>
       <use x="159.033203" xlink:href="#DejaVuSans-48"/>
      </g>
     </g>
    </g>
    <g id="ytick_5">
     <g id="line2d_8">
      <g>
       <use style="stroke:#000000;stroke-width:0.8;" x="147.316846" xlink:href="#maf6193be56" y="111.34299"/>
      </g>
     </g>
     <g id="text_8">
      <!-- 52.5 -->
      <g transform="translate(118.051221 115.142209)scale(0.1 -0.1)">
       <use xlink:href="#DejaVuSans-53"/>
       <use x="63.623047" xlink:href="#DejaVuSans-50"/>
       <use x="127.246094" xlink:href="#DejaVuSans-46"/>
       <use x="159.033203" xlink:href="#DejaVuSans-53"/>
      </g>
     </g>
    </g>
    <g id="ytick_6">
     <g id="line2d_9">
      <g>
       <use style="stroke:#000000;stroke-width:0.8;" x="147.316846" xlink:href="#maf6193be56" y="79.759598"/>
      </g>
     </g>
     <g id="text_9">
      <!-- 53.0 -->
      <g transform="translate(118.051221 83.558817)scale(0.1 -0.1)">
       <use xlink:href="#DejaVuSans-53"/>
       <use x="63.623047" xlink:href="#DejaVuSans-51"/>
       <use x="127.246094" xlink:href="#DejaVuSans-46"/>
       <use x="159.033203" xlink:href="#DejaVuSans-48"/>
      </g>
     </g>
    </g>
    <g id="ytick_7">
     <g id="line2d_10">
      <g>
       <use style="stroke:#000000;stroke-width:0.8;" x="147.316846" xlink:href="#maf6193be56" y="48.176206"/>
      </g>
     </g>
     <g id="text_10">
      <!-- 53.5 -->
      <g transform="translate(118.051221 51.975425)scale(0.1 -0.1)">
       <use xlink:href="#DejaVuSans-53"/>
       <use x="63.623047" xlink:href="#DejaVuSans-51"/>
       <use x="127.246094" xlink:href="#DejaVuSans-46"/>
       <use x="159.033203" xlink:href="#DejaVuSans-53"/>
      </g>
     </g>
    </g>
   </g>
   <g id="patch_3">
    <path d="M 147.316846 252 
L 147.316846 34.56 
" style="fill:none;stroke:#000000;stroke-linecap:square;stroke-linejoin:miter;stroke-width:0.8;"/>
   </g>
   <g id="patch_4">
    <path d="M 295.483154 252 
L 295.483154 34.56 
" style="fill:none;stroke:#000000;stroke-linecap:square;stroke-linejoin:miter;stroke-width:0.8;"/>
   </g>
   <g id="patch_5">
    <path d="M 147.316846 252 
L 295.483154 252 
" style="fill:none;stroke:#000000;stroke-linecap:square;stroke-linejoin:miter;stroke-width:0.8;"/>
   </g>
   <g id="patch_6">
    <path d="M 147.316846 34.56 
L 295.483154 34.56 
" style="fill:none;stroke:#000000;stroke-linecap:square;stroke-linejoin:miter;stroke-width:0.8;"/>
   </g>
  </g>
 </g>
 <defs>
  <clipPath id="pe8ddb76d30">
   <rect height="217.44" width="148.166308" x="147.316846" y="34.56"/>
  </clipPath>
 </defs>
</svg>
