<?xml version="1.0" encoding="utf-8" standalone="no"?>
<!DOCTYPE svg PUBLIC "-//W3C//DTD SVG 1.1//EN"
  "http://www.w3.org/Graphics/SVG/1.1/DTD/svg11.dtd">
<!-- Created with matplotlib (https://matplotlib.org/) -->
<svg height="288pt" version="1.1" viewBox="0 0 432 288" width="432pt" xmlns="http://www.w3.org/2000/svg" xmlns:xlink="http://www.w3.org/1999/xlink">
 <defs>
  <style type="text/css">
*{stroke-linecap:butt;stroke-linejoin:round;}
  </style>
 </defs>
 <g id="figure_1">
  <g id="patch_1">
   <path d="M 0 288 
L 432 288 
L 432 0 
L 0 0 
z
" style="fill:#ffffff;"/>
  </g>
  <g id="axes_1">
   <g id="patch_2">
    <path d="M 118.887584 252 
L 323.912416 252 
L 323.912416 34.56 
L 118.887584 34.56 
z
" style="fill:#ffffff;"/>
   </g>
   <g id="PatchCollection_1">
    <path clip-path="url(#p7cc0ee96a4)" d="M 187.466779 180.374332 
L 188.825935 176.193707 
L 192.162227 165.971622 
L 195.5243 155.753661 
L 198.907424 145.537419 
L 199.428167 143.973663 
L 200.874274 110.600226 
L 129.657827 108.323795 
L 128.206894 178.504493 
L 187.466779 180.374332 
" style="fill:none;stroke:#0000ff;stroke-opacity:0.2;"/>
    <path clip-path="url(#p7cc0ee96a4)" d="M 196.670205 152.293297 
L 198.907424 145.537419 
L 202.308691 135.323636 
L 205.730481 125.113544 
L 209.169145 114.903096 
L 210.885086 109.854115 
L 194.936687 110.331633 
L 196.670205 152.293297 
" style="fill:none;stroke:#0000ff;stroke-opacity:0.2;"/>
    <path clip-path="url(#p7cc0ee96a4)" d="M 192.205346 165.840574 
L 195.5243 155.753661 
L 198.907424 145.537419 
L 202.308691 135.323636 
L 205.730481 125.113544 
L 209.169145 114.903096 
L 210.438087 111.169365 
L 194.498115 110.330563 
L 192.205346 165.840574 
" style="fill:none;stroke:#0000ff;stroke-opacity:0.2;"/>
    <path clip-path="url(#p7cc0ee96a4)" d="M 200.594769 116.88186 
L 203.79911 46.795565 
L 131.055054 44.443636 
L 129.524312 114.61269 
L 200.594769 116.88186 
" style="fill:none;stroke:#0000ff;stroke-opacity:0.2;"/>
    <path clip-path="url(#p7cc0ee96a4)" d="M 195.203205 116.614123 
L 208.729142 116.2096 
L 209.169145 114.903096 
L 212.637945 104.696505 
L 216.129835 94.492647 
L 219.643007 84.291707 
L 223.191956 74.100973 
L 226.75224 63.911394 
L 228.198829 59.795911 
L 230.303316 53.803939 
L 231.615825 50.084629 
L 233.312274 45.271416 
L 192.147738 46.518071 
L 195.203205 116.614123 
" style="fill:none;stroke:#0000ff;stroke-opacity:0.2;"/>
    <path clip-path="url(#p7cc0ee96a4)" d="M 208.343462 117.354803 
L 209.169145 114.903096 
L 212.637945 104.696505 
L 216.129835 94.492647 
L 219.643007 84.291707 
L 223.191956 74.100973 
L 226.75224 63.911394 
L 228.198829 59.795911 
L 230.303316 53.803939 
L 231.615825 50.084629 
L 232.217923 48.376339 
L 197.286509 46.516965 
L 194.23165 116.613057 
L 208.343462 117.354803 
" style="fill:none;stroke:#0000ff;stroke-opacity:0.2;"/>
   </g>
   <g id="PatchCollection_2">
    <path clip-path="url(#p7cc0ee96a4)" d="M 162.930722 116.727652 
L 163.066069 117.11843 
L 163.141727 118.371959 
L 163.672109 119.021439 
L 164.401717 119.622691 
L 164.945292 120.015902 
L 165.285926 120.57325 
L 165.925038 121.39472 
L 166.302479 121.540174 
L 166.767786 121.489648 
L 169.247537 120.16706 
L 170.015459 120.046549 
L 170.569655 119.839083 
L 170.998291 119.860832 
L 171.470675 120.100119 
L 172.225808 120.913061 
L 173.411467 121.99497 
L 173.968961 122.098809 
L 174.460145 121.952339 
L 175.040019 121.664973 
L 175.360072 121.817945 
L 175.953103 122.53108 
L 176.82959 122.897399 
L 177.299391 122.861254 
L 178.391029 122.442888 
L 178.86708 122.52261 
L 179.185821 122.807983 
L 179.183285 123.094652 
L 178.80184 123.560201 
L 178.513509 124.015282 
L 178.527849 124.480035 
L 178.826781 124.847562 
L 179.322329 125.034865 
L 179.709534 124.993457 
L 180.5629 124.747123 
L 180.75061 124.864604 
L 181.017242 125.291861 
L 181.031487 125.74421 
L 181.142379 126.639563 
L 181.38495 126.89025 
L 181.855384 127.00943 
L 182.42428 126.649235 
L 182.573343 126.53701 
L 183.250994 126.219133 
L 183.832978 126.351472 
L 184.273145 126.561669 
L 184.720823 127.041962 
L 185.436147 128.153963 
L 185.612399 128.261209 
L 186.55543 128.409579 
L 187.455254 128.463426 
L 187.901237 128.714056 
L 188.156112 129.017146 
L 188.146322 129.534794 
L 187.895009 129.893495 
L 187.143148 130.77633 
L 187.081839 131.12415 
L 187.333493 131.640474 
L 187.641417 131.830672 
L 188.191657 131.870948 
L 189.230181 131.906809 
L 189.513251 132.204558 
L 190.007343 132.829971 
L 190.513812 133.050132 
L 191.340127 133.112343 
L 192.18694 133.267 
L 192.57815 133.504849 
L 193.06269 133.96052 
L 193.035652 133.858487 
L 193.03661 133.833942 
L 193.127505 133.903081 
L 193.815353 134.210695 
L 194.151719 134.179579 
L 194.182645 134.097645 
L 194.358594 133.83449 
L 194.636394 133.807129 
L 194.984314 133.779526 
L 195.111812 133.422709 
L 195.132085 133.42783 
L 195.8327 133.266346 
L 195.975574 133.368962 
L 196.830158 133.452517 
L 196.837955 133.499408 
L 196.892425 133.460255 
L 197.202915 133.344609 
L 197.612486 133.463178 
L 197.609777 133.671775 
L 197.637864 133.674115 
L 197.937901 133.574536 
L 198.085217 133.520475 
L 198.268949 133.799547 
L 198.337331 134.171769 
L 198.876463 134.123904 
L 199.287673 134.156627 
L 199.618778 134.240104 
L 199.864144 133.391664 
L 200.166859 132.923611 
L 200.166153 132.927267 
L 200.309079 132.977586 
L 199.952214 133.95116 
L 199.999317 134.321398 
L 200.506488 134.956106 
L 200.101988 135.804475 
L 200.273919 135.78321 
L 200.831015 135.536925 
L 202.212627 135.029363 
L 202.290976 134.942372 
L 202.949216 134.321761 
L 203.168316 134.112638 
L 203.270137 134.092432 
L 203.274835 134.11315 
L 203.513848 134.795155 
L 203.766829 134.943617 
L 203.765156 135.010921 
L 203.800121 135.053858 
L 203.832667 135.214126 
L 203.851267 135.20786 
L 204.065626 135.161673 
L 204.264089 134.965374 
L 204.597889 135.156417 
L 204.879755 135.502857 
L 204.841951 135.625366 
L 204.782506 136.024743 
L 204.915577 136.296035 
L 205.044835 136.528308 
L 205.069849 137.06289 
L 205.498523 138.62938 
L 205.90689 139.283185 
L 205.671625 139.372288 
L 205.817745 139.736857 
L 205.472595 139.938178 
L 205.439203 140.392774 
L 205.128436 140.507275 
L 204.266338 140.360748 
L 204.416822 140.560973 
L 204.325147 141.480209 
L 203.94111 141.61988 
L 204.055164 142.214127 
L 203.927142 142.194575 
L 203.733563 142.244205 
L 203.651236 142.442759 
L 203.846968 143.005484 
L 204.204444 143.091528 
L 204.253411 143.342208 
L 204.230234 143.725803 
L 204.323573 143.957778 
L 204.243109 144.1537 
L 204.115546 144.200357 
L 203.447395 144.735593 
L 203.452067 144.734789 
L 203.602039 144.776894 
L 203.663933 144.859588 
L 203.545584 145.001031 
L 203.665693 144.971991 
L 203.436084 145.186939 
L 203.434199 145.179336 
L 203.304417 145.298111 
L 203.362389 145.520826 
L 203.696987 145.378381 
L 203.857789 145.621735 
L 203.674976 145.947251 
L 203.904719 146.102249 
L 204.145293 146.182333 
L 204.275764 146.330461 
L 204.439644 146.564001 
L 204.296479 146.639455 
L 204.153709 146.890135 
L 204.335444 147.525832 
L 204.538231 147.580376 
L 204.810177 147.544032 
L 204.801769 147.624323 
L 204.622514 147.853311 
L 204.592923 148.02264 
L 204.824482 148.076608 
L 204.926095 148.218484 
L 205.030347 148.633494 
L 205.089936 148.885682 
L 204.917657 149.796369 
L 204.985861 150.919336 
L 204.748425 151.017301 
L 204.744616 151.739036 
L 204.99569 151.738936 
L 204.792053 151.844668 
L 203.936295 152.084736 
L 203.670421 152.261313 
L 203.397748 152.527789 
L 203.033204 152.431432 
L 201.965041 151.903998 
L 201.999438 152.714999 
L 202.098832 152.674893 
L 202.328272 152.608521 
L 202.247847 152.692005 
L 202.105202 153.213066 
L 202.172271 153.371244 
L 202.342777 153.375974 
L 202.246118 154.177636 
L 202.443861 155.564157 
L 202.596924 155.619882 
L 202.545942 155.682555 
L 201.517628 156.989419 
L 201.467755 157.236215 
L 201.140026 158.15102 
L 200.940402 158.387348 
L 200.932285 158.973643 
L 201.04647 158.861816 
L 201.487708 158.790494 
L 201.599834 158.516301 
L 202.263418 158.219248 
L 202.619446 158.562282 
L 202.909831 158.6776 
L 202.865957 158.752464 
L 202.016435 160.078958 
L 202.186538 160.575951 
L 202.673102 161.137659 
L 202.733579 161.273902 
L 202.803196 161.220474 
L 202.952159 161.045697 
L 203.366198 161.155788 
L 203.538919 161.142154 
L 203.7678 160.952853 
L 203.928169 160.714825 
L 203.93906 160.758417 
L 204.302767 160.947746 
L 204.341168 160.953194 
L 204.419366 160.7306 
L 204.595285 160.506079 
L 204.47661 160.065238 
L 204.815741 159.652703 
L 204.928206 159.269102 
L 205.183748 159.392457 
L 205.383589 159.542242 
L 205.438445 159.638621 
L 205.887137 159.662966 
L 205.916688 159.797837 
L 205.921356 160.025025 
L 205.904996 160.192754 
L 205.965204 160.573604 
L 206.063354 160.725814 
L 206.269284 160.860379 
L 206.404124 160.898564 
L 206.434299 160.904695 
L 206.369636 160.969951 
L 206.088052 161.305893 
L 206.18215 161.331291 
L 206.467084 161.541395 
L 206.511361 161.858561 
L 206.54272 161.849791 
L 207.007126 161.690547 
L 207.157004 161.498736 
L 207.514739 161.440934 
L 207.546458 161.302827 
L 207.731477 161.290096 
L 208.205131 161.618635 
L 208.903701 161.227138 
L 209.040972 161.233682 
L 209.036118 161.294129 
L 208.934904 161.590968 
L 208.524821 161.648997 
L 208.336378 161.640896 
L 208.145599 161.927138 
L 208.176061 162.134148 
L 208.160078 162.524571 
L 208.208044 162.529691 
L 208.331364 162.612969 
L 208.527868 162.694391 
L 208.845742 162.516953 
L 208.968105 162.43396 
L 208.990982 162.458924 
L 209.06573 162.51482 
L 209.019541 162.582877 
L 208.827939 162.961636 
L 208.652675 163.627987 
L 208.385583 163.791555 
L 208.389717 163.918908 
L 208.472531 164.162561 
L 208.423534 164.362438 
L 208.062855 164.39199 
L 207.911184 164.492216 
L 207.967071 164.860853 
L 208.064697 164.905945 
L 208.001342 165.030211 
L 207.827127 165.378956 
L 207.73149 165.71817 
L 207.262712 165.900273 
L 207.351059 166.030897 
L 207.613739 166.382003 
L 207.553491 166.397216 
L 207.2703 166.543175 
L 206.647969 167.1275 
L 206.70663 167.239426 
L 207.384004 167.5364 
L 207.666259 167.457567 
L 207.701869 167.433179 
L 207.752717 167.511514 
L 207.804162 167.881908 
L 207.703 168.472791 
L 207.537383 168.645271 
L 207.441092 169.229084 
L 207.592343 169.478548 
L 208.015618 169.66696 
L 207.92848 169.755892 
L 207.744491 170.136193 
L 207.266651 170.214884 
L 207.048132 170.367357 
L 207.122498 170.726237 
L 207.662207 171.414202 
L 207.723898 171.67639 
L 208.082119 172.019828 
L 207.620096 172.822387 
L 207.254937 173.592634 
L 206.990844 173.794126 
L 206.777084 174.263843 
L 206.411396 175.094986 
L 206.139498 175.602441 
L 206.06839 175.829174 
L 205.607902 177.27216 
L 205.687499 177.823946 
L 205.736262 177.9726 
L 205.365747 178.760081 
L 205.830252 178.928059 
L 206.096286 178.989723 
L 205.909577 179.230716 
L 205.999696 179.269983 
L 206.222259 179.296896 
L 206.238658 179.232195 
L 206.468293 179.325878 
L 206.344678 179.365145 
L 206.446286 179.433053 
L 206.635939 179.716934 
L 206.484341 179.743128 
L 206.182861 179.740959 
L 206.174302 179.677219 
L 206.076646 179.77864 
L 206.092213 179.788298 
L 206.269661 179.886633 
L 206.433914 179.811079 
L 207.115998 179.977322 
L 207.196956 180.175321 
L 207.607602 180.250541 
L 207.438791 180.396627 
L 207.095569 180.861359 
L 206.959551 181.002005 
L 207.000816 181.008697 
L 206.915425 181.111143 
L 206.638543 181.150936 
L 206.231875 181.185786 
L 205.943661 181.171825 
L 205.404208 181.695333 
L 205.470358 181.836604 
L 205.482462 181.832493 
L 205.667404 181.89186 
L 205.713805 181.889299 
L 205.700314 181.973815 
L 205.465444 182.453745 
L 205.46007 182.451839 
L 205.21967 182.73301 
L 205.329179 183.292932 
L 205.459199 183.465491 
L 205.369695 183.51096 
L 205.124852 183.554437 
L 204.622345 183.285322 
L 204.09308 184.398518 
L 204.323101 184.737653 
L 204.85738 184.952395 
L 204.771494 185.515362 
L 204.786463 185.516414 
L 205.735391 186.901833 
L 206.216118 187.2436 
L 206.335096 187.620417 
L 206.418178 188.232359 
L 206.526482 188.719835 
L 206.73935 189.155869 
L 207.157038 189.198102 
L 208.582035 190.259648 
L 208.829343 191.149538 
L 209.229207 191.882944 
L 209.723641 192.242172 
L 209.85416 192.378778 
L 210.321023 193.218342 
L 211.509165 193.43329 
L 211.610864 193.43043 
L 212.11924 194.100779 
L 212.567589 194.540831 
L 213.014114 194.760572 
L 213.133621 195.025576 
L 213.45644 195.239173 
L 213.952447 195.343347 
L 214.2422 195.293212 
L 214.311002 194.82001 
L 214.341507 194.682188 
L 214.80479 194.058446 
L 215.491841 194.148523 
L 215.563764 194.171596 
L 215.641688 194.809917 
L 215.760718 195.315929 
L 215.942981 195.456624 
L 216.478863 195.956341 
L 216.97842 196.08299 
L 217.951241 196.322824 
L 217.970859 196.560246 
L 218.136226 197.324776 
L 218.102678 197.55473 
L 218.21051 197.605775 
L 219.026069 197.682894 
L 221.266724 197.801869 
L 221.39202 197.787907 
L 221.33826 197.121336 
L 222.465479 196.946032 
L 222.674329 196.836438 
L 222.839492 195.953418 
L 223.142674 195.617661 
L 223.7906 195.642902 
L 223.963529 195.840994 
L 224.166109 196.177498 
L 224.380225 196.313628 
L 225.393583 196.495866 
L 225.572024 196.549379 
L 225.519551 196.652216 
L 225.62883 196.800841 
L 226.594201 197.367741 
L 226.623957 197.31479 
L 226.858086 197.290309 
L 227.22627 197.439789 
L 227.552812 197.602568 
L 227.709654 197.845687 
L 227.964732 197.994391 
L 228.253657 198.056624 
L 228.392007 198.251551 
L 228.365133 199.025013 
L 229.346907 199.223496 
L 230.396617 199.124493 
L 230.836009 198.915519 
L 231.321052 198.836786 
L 231.322482 198.842476 
L 231.671455 200.638864 
L 231.760885 201.156782 
L 233.005976 201.214114 
L 233.249146 201.166312 
L 233.251048 201.201105 
L 233.377476 201.626471 
L 233.73685 201.650681 
L 234.381226 201.420989 
L 234.579745 200.843357 
L 234.887167 200.933662 
L 235.674747 201.099158 
L 236.353052 201.236681 
L 236.326088 201.343629 
L 236.173038 202.027241 
L 236.260406 202.040015 
L 237.046491 202.261065 
L 236.900319 203.572345 
L 236.948289 203.546869 
L 237.489479 203.357717 
L 238.134718 203.418862 
L 238.71441 203.533562 
L 239.017411 203.882612 
L 239.017515 203.711391 
L 239.050256 203.410804 
L 239.130183 203.440917 
L 240.049057 203.71994 
L 240.157483 204.231491 
L 239.689722 204.295289 
L 239.695807 205.049285 
L 239.692414 205.048801 
L 239.233724 204.991206 
L 239.342799 205.206367 
L 239.564123 205.449451 
L 239.882577 205.749 
L 240.852174 205.856893 
L 241.452325 205.92781 
L 241.551784 205.964531 
L 241.557626 205.917056 
L 241.773839 205.513277 
L 242.465141 205.512096 
L 242.916234 205.441677 
L 242.992954 205.430838 
L 243.073856 205.304588 
L 243.223105 205.213195 
L 243.21556 204.842964 
L 243.332965 204.845468 
L 243.803546 204.889877 
L 243.794666 205.094298 
L 244.081307 205.095323 
L 244.135474 205.33554 
L 244.273837 205.443519 
L 244.339545 205.588447 
L 244.54645 205.608041 
L 244.616587 206.397214 
L 244.571018 206.523514 
L 243.414668 206.780837 
L 243.583267 207.48083 
L 243.871681 208.166981 
L 244.018152 208.488742 
L 244.092701 208.560711 
L 244.356213 209.355375 
L 244.554615 209.387928 
L 244.491715 209.542969 
L 244.772579 209.819346 
L 245.028546 210.710268 
L 244.941759 210.946538 
L 245.068005 211.36137 
L 245.001365 211.610208 
L 245.457805 211.672405 
L 245.409597 211.979187 
L 245.31159 211.960453 
L 244.978392 211.977529 
L 244.975818 212.000943 
L 245.052481 212.173765 
L 244.965304 212.598917 
L 244.451849 213.135653 
L 244.627048 213.196954 
L 244.784766 213.340822 
L 244.724843 213.319997 
L 244.545392 213.648151 
L 244.641237 213.699424 
L 245.162142 214.078274 
L 245.097314 214.273934 
L 244.827119 214.472047 
L 244.915796 214.620103 
L 244.910205 214.664441 
L 244.833459 214.588731 
L 244.807565 214.596363 
L 244.685411 214.727399 
L 244.805203 214.773729 
L 245.323776 215.096905 
L 245.343556 215.307343 
L 245.311729 215.340102 
L 245.409138 215.352343 
L 245.415357 215.371532 
L 245.585711 215.470741 
L 245.724507 215.528209 
L 246.166512 216.751865 
L 245.730232 216.657407 
L 245.65551 216.577336 
L 245.426863 216.596902 
L 245.325878 216.583915 
L 245.429753 217.309561 
L 245.349796 217.257884 
L 244.867115 217.022125 
L 244.767457 217.247272 
L 245.024594 217.938296 
L 245.046912 218.21884 
L 244.944346 218.224822 
L 244.846811 218.241102 
L 244.964281 218.324664 
L 245.104022 218.457081 
L 244.931007 218.593836 
L 243.438101 219.646001 
L 240.272812 221.595439 
L 240.300768 221.637238 
L 242.051501 224.484482 
L 242.234891 224.487903 
L 242.335832 224.428814 
L 242.282332 224.361923 
L 242.258635 224.315949 
L 242.48512 224.2227 
L 242.623643 224.29644 
L 242.565125 224.125219 
L 242.544735 224.13413 
L 242.37861 224.193241 
L 242.454446 223.764234 
L 242.481055 223.847242 
L 242.57833 223.811879 
L 242.698231 224.154287 
L 242.882938 223.976458 
L 242.864697 223.928436 
L 243.045197 223.863899 
L 243.078645 223.715821 
L 243.291261 223.542401 
L 243.328973 223.732862 
L 243.648702 224.172786 
L 244.119765 224.796847 
L 244.297339 225.080101 
L 244.299029 225.166075 
L 244.79261 225.033722 
L 245.072577 225.545679 
L 244.754963 225.771971 
L 244.760817 226.074706 
L 244.521232 226.494965 
L 244.217204 227.164836 
L 244.37389 227.395744 
L 244.435944 227.564213 
L 244.909763 227.524384 
L 245.155996 227.928213 
L 246.109471 227.968476 
L 246.413274 229.474768 
L 246.951531 230.342625 
L 247.083514 230.366302 
L 247.057135 231.042439 
L 247.041234 231.611992 
L 247.040706 231.747524 
L 246.823677 231.803163 
L 246.907916 232.185577 
L 246.823742 232.304239 
L 246.841524 232.333307 
L 246.783031 232.400909 
L 246.611871 232.586476 
L 246.653886 232.609406 
L 246.802282 232.673211 
L 246.469894 232.929389 
L 246.37271 232.902966 
L 246.165511 232.650807 
L 246.013687 232.661639 
L 245.966498 232.667123 
L 246.061436 232.767178 
L 246.170594 233.126449 
L 246.133459 233.318815 
L 245.961319 234.002727 
L 246.101931 234.370674 
L 246.495597 234.762441 
L 246.836527 234.992495 
L 246.902954 235.227457 
L 246.775352 235.785289 
L 246.371909 236.43834 
L 246.383263 236.562862 
L 246.302582 236.500707 
L 246.099447 236.488766 
L 245.642487 236.934309 
L 245.689807 237.313067 
L 246.161567 237.437952 
L 246.269529 237.279916 
L 246.239193 236.801885 
L 246.276931 236.814111 
L 246.431493 236.638316 
L 246.862681 237.045232 
L 246.896917 237.395541 
L 246.823656 238.029033 
L 247.583175 239.570368 
L 248.498149 239.601861 
L 248.786047 239.648439 
L 248.707654 239.616896 
L 248.938802 239.647188 
L 248.944349 239.745287 
L 249.243103 239.827406 
L 249.480673 240.151457 
L 249.493982 240.288254 
L 249.711682 240.301256 
L 249.781897 239.851282 
L 249.711578 239.861943 
L 249.503871 239.850983 
L 249.494484 239.589855 
L 249.304633 239.446038 
L 249.344408 239.102869 
L 249.380742 239.131973 
L 249.548149 239.166183 
L 250.481598 239.254895 
L 250.479847 239.215862 
L 250.445671 238.438325 
L 251.379419 237.990983 
L 251.468988 237.958245 
L 251.763863 237.550731 
L 252.307485 237.322007 
L 252.243554 237.099321 
L 252.010006 236.562321 
L 251.971925 236.54602 
L 252.15138 236.55496 
L 252.511417 236.55373 
L 252.51036 236.644219 
L 252.716342 237.135544 
L 253.722328 236.872446 
L 254.345041 237.382042 
L 254.479022 237.405385 
L 254.653558 237.266168 
L 254.642412 237.247961 
L 254.323272 236.442358 
L 254.528054 236.629532 
L 254.645376 236.575273 
L 254.93346 236.003138 
L 254.994873 235.743283 
L 255.423556 235.451103 
L 255.494183 235.354312 
L 255.515076 235.372733 
L 255.809674 235.671449 
L 255.670951 235.960984 
L 255.898688 236.301727 
L 255.930784 236.398397 
L 256.268797 236.452877 
L 256.302418 236.61853 
L 256.438882 236.806842 
L 256.577626 236.791977 
L 256.5816 236.848812 
L 256.61738 237.008198 
L 256.592045 237.02738 
L 256.599455 237.077799 
L 256.657245 237.103105 
L 256.668756 237.277953 
L 256.351246 237.670879 
L 256.485721 237.660588 
L 256.688752 237.574138 
L 256.83901 237.246645 
L 256.909039 237.239184 
L 256.923787 237.31673 
L 257.315312 237.307896 
L 257.37995 237.35397 
L 257.29432 237.157308 
L 257.397432 237.010517 
L 257.426338 237.090758 
L 257.522291 237.187627 
L 257.69492 237.623625 
L 258.134498 237.537182 
L 258.196674 237.271282 
L 258.230343 237.315172 
L 258.689366 237.887719 
L 258.633201 237.855365 
L 258.242742 237.645986 
L 258.243045 237.736874 
L 258.153701 238.102546 
L 258.122459 238.097141 
L 258.229012 238.362188 
L 258.561795 238.490543 
L 258.816279 238.480515 
L 259.431533 238.715754 
L 259.569159 238.983496 
L 260.168812 238.928447 
L 260.651393 239.023724 
L 260.827022 240.5536 
L 260.88622 240.543913 
L 261.387121 240.577426 
L 261.428984 240.964143 
L 261.579642 241.380853 
L 261.733467 241.393555 
L 261.978348 240.681493 
L 262.235828 240.647625 
L 262.7842 240.22487 
L 263.410453 240.308098 
L 263.637635 240.326227 
L 263.535376 240.486595 
L 263.723178 240.811378 
L 263.686476 240.990729 
L 263.770411 240.999897 
L 263.876224 241.028132 
L 263.871157 241.388968 
L 263.920861 241.391955 
L 264.194059 241.401478 
L 265.00872 241.317126 
L 265.989706 241.421115 
L 266.299892 241.386016 
L 266.834465 241.329829 
L 267.060689 240.927245 
L 267.166593 241.038467 
L 267.658531 241.499991 
L 268.018476 241.055024 
L 268.60059 241.605516 
L 269.054699 241.795457 
L 269.532418 241.73927 
L 269.651405 241.742534 
L 270.29495 241.909417 
L 270.641665 241.576775 
L 270.742775 241.304907 
L 270.936323 241.224887 
L 271.40202 241.366144 
L 271.383247 241.406635 
L 271.204901 241.657884 
L 271.096012 241.692592 
L 271.099002 241.7721 
L 271.083319 241.839091 
L 271.154855 241.829347 
L 271.157759 241.845342 
L 271.148056 242.116364 
L 271.263571 241.86163 
L 271.71716 241.981308 
L 271.722092 241.957752 
L 271.948537 241.379743 
L 272.356063 241.285654 
L 272.741968 241.191203 
L 273.140176 241.164105 
L 273.593193 241.375846 
L 274.103263 240.899407 
L 274.317466 240.747069 
L 274.32713 240.635278 
L 274.22209 240.360487 
L 274.337094 240.411759 
L 274.738465 240.470848 
L 275.550358 240.693641 
L 275.609201 240.786656 
L 275.659121 240.767673 
L 276.387472 240.987976 
L 276.990891 240.814372 
L 277.059095 240.887906 
L 277.089947 240.865929 
L 277.420254 240.720206 
L 277.488502 240.729949 
L 277.483778 240.680597 
L 277.495735 240.407371 
L 277.853774 240.293724 
L 278.087023 240.236975 
L 279.049738 239.770373 
L 279.418221 239.413869 
L 279.723224 239.417916 
L 280.211006 239.771418 
L 280.124752 240.933226 
L 280.733939 241.072961 
L 281.430615 241.158145 
L 281.399416 241.094355 
L 281.308321 240.244599 
L 281.702668 239.919318 
L 281.758868 239.774668 
L 281.718352 239.77794 
L 281.568774 239.522353 
L 281.612319 239.503078 
L 282.063303 239.339794 
L 282.623528 239.470568 
L 282.592373 239.374488 
L 282.520615 239.086902 
L 282.122099 239.03265 
L 282.106367 238.856848 
L 282.408163 238.626502 
L 282.594873 238.606943 
L 283.13183 237.97195 
L 283.348954 237.848317 
L 283.265542 237.446942 
L 283.162907 237.350029 
L 283.067803 237.183893 
L 283.419476 237.204547 
L 283.286626 236.837453 
L 283.002936 236.748493 
L 283.037168 236.703685 
L 283.604925 236.263121 
L 284.117132 235.974383 
L 283.68932 235.425812 
L 283.778659 234.851416 
L 282.823811 233.870438 
L 283.078542 233.512263 
L 284.597425 234.064653 
L 284.714461 233.985429 
L 285.161645 233.689537 
L 285.259514 233.592297 
L 284.703436 232.881729 
L 284.60334 232.646198 
L 284.693599 232.610921 
L 285.067326 232.568603 
L 285.229251 232.466051 
L 285.60947 232.092762 
L 285.665102 231.72076 
L 286.144845 230.526165 
L 286.388621 230.496862 
L 286.588635 230.4714 
L 287.258577 230.586662 
L 287.421538 230.414921 
L 287.571597 230.459153 
L 287.445759 230.325669 
L 287.032504 229.728805 
L 287.091343 229.366832 
L 287.445655 228.963394 
L 287.642895 228.985151 
L 287.921038 229.146009 
L 291.007666 229.440373 
L 291.354099 229.756188 
L 292.028374 229.890226 
L 291.912464 230.039428 
L 292.383236 229.971335 
L 292.454652 229.809388 
L 292.771221 229.798001 
L 293.536028 229.953255 
L 295.509197 230.971124 
L 295.58437 231.568685 
L 295.741233 231.671785 
L 295.837502 231.726002 
L 296.231728 231.337152 
L 296.247121 231.028926 
L 296.272985 230.829234 
L 296.121673 230.827598 
L 296.13675 230.729961 
L 296.268084 230.589934 
L 296.841656 230.542488 
L 297.741375 229.707924 
L 298.096004 229.681352 
L 298.154193 229.687653 
L 298.137187 229.59296 
L 298.32892 229.155504 
L 298.877486 229.233654 
L 299.150688 229.448275 
L 299.331985 229.300709 
L 300.575226 228.939411 
L 300.807496 229.102674 
L 300.794607 228.969432 
L 300.842001 228.229263 
L 301.051978 228.106377 
L 301.522053 228.030453 
L 301.559891 228.160153 
L 301.631765 228.020069 
L 303.173157 227.911329 
L 303.172663 227.919465 
L 303.363394 228.039187 
L 303.451248 227.946926 
L 303.790812 228.237115 
L 304.678709 227.851116 
L 305.030395 227.690926 
L 305.104068 227.433838 
L 304.999842 226.856924 
L 305.373279 226.978629 
L 305.700371 226.872009 
L 305.946188 226.446409 
L 306.007879 226.323772 
L 306.047264 226.331403 
L 306.276855 226.336567 
L 306.602968 226.414226 
L 306.658765 226.721534 
L 306.752737 226.812977 
L 307.188683 226.851021 
L 307.362708 227.091878 
L 307.468044 227.527215 
L 307.822429 228.526265 
L 308.099506 228.49049 
L 308.594014 228.503278 
L 309.04186 228.276346 
L 309.157211 228.240827 
L 309.733046 228.228189 
L 310.193521 228.20592 
L 310.173677 228.324468 
L 310.285773 228.306616 
L 310.750668 228.404823 
L 311.188391 227.957929 
L 311.361766 227.487984 
L 311.506916 227.004788 
L 311.553174 226.729251 
L 311.428228 226.664259 
L 311.637495 226.658761 
L 311.708711 226.62544 
L 311.762986 226.675041 
L 312.033991 226.631194 
L 311.982476 226.604601 
L 311.919382 226.210914 
L 311.745756 225.952844 
L 311.594682 225.211842 
L 311.63499 225.211565 
L 312.091565 225.185662 
L 312.405924 225.520609 
L 312.632565 225.915448 
L 312.668868 225.986798 
L 313.036385 226.276518 
L 313.036173 226.254391 
L 313.171168 225.958378 
L 313.924217 225.338192 
L 314.029462 225.237404 
L 314.221879 224.933069 
L 314.443289 224.6963 
L 314.534124 224.49865 
L 314.593106 224.22063 
L 314.483766 223.611177 
L 314.264523 223.333869 
L 314.070762 222.913532 
L 314.161337 222.544191 
L 314.115833 222.280395 
L 314.07982 221.584244 
L 313.97419 221.171802 
L 314.189294 220.824665 
L 314.20187 220.559952 
L 314.030797 220.360531 
L 313.936096 220.022704 
L 313.830431 219.783716 
L 313.702266 219.53778 
L 313.373532 219.39739 
L 313.367659 219.184334 
L 313.44789 219.013099 
L 313.311893 218.68062 
L 313.147528 218.68759 
L 312.969464 218.669667 
L 312.61471 218.344237 
L 312.099266 217.841255 
L 311.542435 217.37742 
L 311.243612 217.145075 
L 311.10664 216.903314 
L 310.844086 216.517614 
L 310.70503 216.188308 
L 310.337639 215.921547 
L 310.107722 215.315921 
L 309.943357 214.679591 
L 309.973684 214.315747 
L 309.892479 214.075188 
L 310.124355 213.931064 
L 310.1586 213.753157 
L 309.939443 213.64781 
L 309.592559 213.44954 
L 309.673643 213.1962 
L 309.777739 213.001821 
L 309.508958 211.608088 
L 309.207621 210.973479 
L 308.9415 210.884113 
L 308.799636 210.643817 
L 308.0639 210.568356 
L 307.923015 210.467084 
L 307.65494 210.435313 
L 307.446548 209.999479 
L 307.329144 209.633181 
L 307.101181 209.395958 
L 306.978368 209.236393 
L 306.975525 208.973054 
L 306.995092 208.773589 
L 307.101736 208.547347 
L 307.05771 208.227848 
L 307.086776 207.925946 
L 307.335566 207.791324 
L 307.542982 207.945092 
L 307.667234 207.795293 
L 307.685826 207.326095 
L 307.733766 207.345931 
L 307.913784 207.561177 
L 307.954877 207.460005 
L 307.768986 207.122761 
L 307.7367 206.967052 
L 308.017494 206.650689 
L 308.499942 206.595 
L 309.236548 206.029957 
L 309.372541 205.811837 
L 309.481139 205.580844 
L 309.697362 205.434124 
L 309.743342 205.077279 
L 309.894013 204.675868 
L 310.108276 204.478651 
L 310.18361 204.296313 
L 310.33428 204.319101 
L 310.653229 204.370629 
L 310.665948 204.322074 
L 310.691387 204.009936 
L 310.96533 203.932654 
L 311.186446 203.7008 
L 311.501481 203.459068 
L 311.358637 203.148004 
L 311.4316 202.944009 
L 311.761725 202.493289 
L 312.156991 201.071398 
L 312.329863 200.988796 
L 312.563992 200.397316 
L 312.583169 199.747715 
L 312.392776 199.625405 
L 312.325269 199.553172 
L 312.033714 198.636056 
L 312.077788 197.974221 
L 312.126217 197.975209 
L 312.350752 197.894606 
L 312.47256 197.601394 
L 312.533708 197.285957 
L 312.679113 196.881402 
L 312.525392 196.502452 
L 312.362981 196.220236 
L 312.512673 196.114967 
L 312.83358 195.947437 
L 312.876315 195.623358 
L 312.921975 195.517143 
L 313.256811 195.121656 
L 313.545992 194.784903 
L 313.525931 194.430021 
L 313.836555 194.193224 
L 313.835168 193.783933 
L 313.882215 193.389364 
L 313.729321 193.183363 
L 313.712671 192.747138 
L 313.781274 192.560013 
L 314.301797 191.88086 
L 314.197914 191.634063 
L 313.821066 190.942741 
L 313.525238 190.47232 
L 312.700383 189.830378 
L 312.2383 189.693345 
L 311.742037 189.538503 
L 311.316648 189.050344 
L 310.98143 188.425536 
L 310.975658 187.958023 
L 311.047363 187.548042 
L 310.857026 186.423261 
L 311.019792 186.02803 
L 311.982095 184.517414 
L 311.864907 183.835686 
L 311.323872 183.18186 
L 311.129804 182.858478 
L 311.159832 182.557969 
L 311.335352 182.348242 
L 311.938918 181.774564 
L 312.1782 181.226775 
L 312.444005 179.825645 
L 312.373668 179.682702 
L 311.93185 179.133178 
L 311.689071 178.583347 
L 311.284704 178.269688 
L 309.17442 177.764608 
L 308.009893 177.210518 
L 307.202265 177.084459 
L 307.056687 176.946218 
L 306.73405 176.241154 
L 306.33218 175.95987 
L 306.301904 175.534163 
L 306.533529 175.224508 
L 306.75847 174.869398 
L 306.651514 174.524964 
L 306.440245 174.093795 
L 306.38158 173.687982 
L 306.156001 173.452088 
L 305.73602 173.216565 
L 305.734534 172.912528 
L 305.786616 172.392598 
L 305.616726 171.995575 
L 305.349816 171.496676 
L 305.368438 170.406418 
L 305.281469 169.756788 
L 304.857133 169.03777 
L 304.552073 168.356498 
L 304.655667 167.929162 
L 305.084363 166.849345 
L 304.978542 166.267915 
L 305.158573 165.781981 
L 305.650191 165.301802 
L 306.187793 165.238289 
L 306.489459 165.125424 
L 307.861238 163.37981 
L 308.1066 162.467615 
L 308.636831 161.999882 
L 308.935541 161.342208 
L 308.853205 160.969709 
L 308.578529 160.631704 
L 307.897619 160.097713 
L 307.779794 159.382301 
L 307.58817 158.612551 
L 307.791816 158.1641 
L 308.024103 157.693102 
L 308.215437 156.902727 
L 309.128444 155.97864 
L 309.062012 155.678608 
L 308.728294 155.392452 
L 308.131484 154.962727 
L 307.904237 154.601252 
L 307.638103 153.702222 
L 307.144185 153.053004 
L 306.355075 152.506993 
L 306.196786 152.30489 
L 305.375545 151.928742 
L 304.306542 151.28988 
L 303.625372 150.96637 
L 301.459782 149.313707 
L 301.053222 148.447479 
L 300.692414 148.249835 
L 300.133719 147.978928 
L 299.569074 146.881479 
L 299.262576 146.507863 
L 299.033444 146.09434 
L 296.520813 143.05714 
L 294.247356 141.867246 
L 293.551777 141.462841 
L 292.138307 140.110395 
L 291.64731 139.51836 
L 291.417436 139.316115 
L 290.835309 138.474083 
L 290.505374 138.335358 
L 287.371561 137.841039 
L 286.916971 137.452074 
L 286.741065 136.851683 
L 286.845794 136.279726 
L 287.337533 135.539692 
L 288.25502 134.19386 
L 288.293664 133.024833 
L 287.995153 132.000791 
L 287.842784 131.169655 
L 287.744534 130.912396 
L 287.558925 128.512287 
L 287.881744 127.993225 
L 288.515421 127.794656 
L 289.071047 127.073107 
L 289.338819 126.997219 
L 289.971157 126.540261 
L 290.369209 126.294097 
L 290.782217 126.205058 
L 290.942092 126.183216 
L 292.847577 124.972497 
L 293.043158 124.700089 
L 294.857691 123.050747 
L 295.050715 122.784683 
L 296.510785 121.51649 
L 296.60279 121.293448 
L 296.755038 121.068408 
L 297.433053 119.014668 
L 297.476212 118.349882 
L 297.460646 117.936409 
L 297.840466 117.27244 
L 297.928566 116.645349 
L 297.919769 116.383823 
L 298.09047 115.157592 
L 297.541088 114.320844 
L 297.430877 113.890045 
L 297.348415 113.495597 
L 297.304723 113.077465 
L 297.675819 111.681243 
L 297.835261 110.980547 
L 298.326536 110.777555 
L 298.809746 110.631902 
L 299.042588 110.316614 
L 299.34643 109.183973 
L 299.737986 108.668474 
L 300.074755 108.400269 
L 300.222578 108.026383 
L 300.29863 107.656608 
L 300.911943 106.619357 
L 300.695833 105.888704 
L 299.625131 105.613465 
L 299.251777 103.770598 
L 299.034475 103.450431 
L 299.378482 102.257329 
L 299.167711 101.956081 
L 298.837568 101.932958 
L 298.453887 102.06204 
L 297.918824 102.388309 
L 297.766541 102.878716 
L 297.556373 102.983914 
L 297.389447 102.929896 
L 297.095348 102.819478 
L 297.088513 102.92107 
L 297.107556 102.997883 
L 297.041926 103.00784 
L 296.576363 103.131722 
L 296.581399 103.156089 
L 296.414745 103.348597 
L 295.104913 103.208954 
L 295.109606 103.244196 
L 294.863425 104.126049 
L 294.44126 104.893943 
L 294.495245 105.052184 
L 294.45098 105.069794 
L 292.758298 105.742461 
L 292.902199 106.63595 
L 292.87296 106.979958 
L 292.217476 107.104537 
L 291.28671 107.206755 
L 291.17298 107.14837 
L 290.530337 107.254372 
L 290.074429 106.788182 
L 289.983898 106.882961 
L 289.915642 106.804583 
L 289.896344 106.780849 
L 289.846501 106.829192 
L 289.406884 106.807414 
L 288.094608 106.429509 
L 287.533707 106.568547 
L 286.690391 106.900393 
L 285.696383 106.811617 
L 286.100606 105.410466 
L 286.672263 104.763048 
L 288.311424 103.149958 
L 289.6426 101.81003 
L 290.936112 100.170723 
L 291.503916 98.980523 
L 291.94823 97.042742 
L 291.823905 95.537304 
L 291.89662 95.358856 
L 291.858496 95.337398 
L 291.147667 94.519975 
L 290.602177 95.057124 
L 290.58414 95.118731 
L 290.546289 95.153197 
L 290.245693 95.287783 
L 289.178432 95.356815 
L 288.696224 95.109549 
L 287.32204 94.049234 
L 287.139915 94.165185 
L 286.651713 94.059233 
L 285.748158 95.377683 
L 285.258794 95.580603 
L 284.961783 95.949881 
L 285.01432 96.10707 
L 284.954619 96.187482 
L 284.901245 96.120171 
L 284.470321 95.890301 
L 284.333436 95.913679 
L 283.738568 96.058493 
L 283.562814 95.865743 
L 283.371025 94.851479 
L 283.313044 94.876344 
L 281.672592 94.761054 
L 281.396547 94.485559 
L 279.801495 94.814104 
L 279.001109 94.802717 
L 277.775866 95.353166 
L 277.311963 94.940205 
L 277.336657 94.563026 
L 277.563553 94.361335 
L 277.548229 94.193869 
L 277.302685 93.769578 
L 277.329979 93.770944 
L 277.873921 93.450791 
L 277.681253 92.885925 
L 276.031418 91.686294 
L 276.266249 90.810955 
L 275.985416 90.665935 
L 275.935708 90.342881 
L 275.994014 90.212007 
L 276.066222 90.006106 
L 276.12913 89.73559 
L 276.193062 89.561303 
L 274.630621 88.736824 
L 273.799924 88.582153 
L 273.684244 88.561286 
L 273.748548 88.466465 
L 273.755244 88.30323 
L 272.688446 86.510519 
L 272.782531 85.915533 
L 272.82596 85.900305 
L 272.779065 85.807568 
L 272.736334 85.643935 
L 272.697955 85.682072 
L 272.590366 85.73626 
L 272.353749 85.695784 
L 271.972594 86.506195 
L 271.708683 87.866613 
L 271.883696 88.298565 
L 271.892151 88.901766 
L 271.905542 88.89641 
L 272.429598 89.177886 
L 272.518985 89.372543 
L 272.542422 89.444605 
L 272.825279 90.000793 
L 272.898836 89.903476 
L 273.278101 89.719566 
L 273.915648 89.967735 
L 272.737201 91.412314 
L 271.973088 91.678989 
L 271.787292 91.593606 
L 271.071535 91.46082 
L 270.546505 91.280352 
L 270.195369 90.833999 
L 270.067971 91.177089 
L 269.40824 91.129543 
L 269.240625 91.108477 
L 269.095462 91.100255 
L 268.849654 91.298425 
L 268.663009 91.60446 
L 267.672229 92.297532 
L 267.512887 92.347325 
L 266.414657 93.387228 
L 266.444231 93.383587 
L 266.528768 93.563805 
L 266.458922 93.572546 
L 266.352122 93.642531 
L 266.287779 93.884434 
L 266.168844 93.716549 
L 265.828938 93.608172 
L 265.539475 94.127803 
L 265.749444 94.282403 
L 265.726241 94.301798 
L 265.550587 94.700457 
L 265.502444 94.670614 
L 265.323262 94.68247 
L 265.598093 95.3835 
L 265.457672 95.683817 
L 264.993973 96.323604 
L 264.987788 96.306776 
L 264.67989 95.978245 
L 264.360838 96.113371 
L 264.332443 96.179374 
L 264.271242 96.164907 
L 264.014257 96.197929 
L 263.889454 96.319877 
L 263.412138 96.358781 
L 262.83259 96.446654 
L 262.757174 96.542335 
L 262.490521 96.935617 
L 262.069617 96.9545 
L 261.856822 97.217627 
L 261.886448 97.280506 
L 261.784947 97.283792 
L 261.724176 97.35771 
L 261.743448 97.38963 
L 261.850296 97.497816 
L 261.874543 97.484551 
L 262.1521 97.506621 
L 262.146891 97.661064 
L 262.122778 97.814711 
L 262.105604 97.9969 
L 262.034418 98.242124 
L 261.973347 98.290737 
L 261.934313 98.27706 
L 261.934851 98.361988 
L 261.960142 98.380473 
L 262.198731 98.475216 
L 262.189041 98.506012 
L 262.138865 98.671942 
L 261.757792 99.103353 
L 261.600682 99.52588 
L 261.097182 99.409949 
L 260.868886 99.288066 
L 260.557464 100.143789 
L 260.44497 100.363267 
L 260.538613 100.367457 
L 260.826783 100.447655 
L 260.777405 101.058153 
L 260.580728 101.367047 
L 260.735801 101.63065 
L 260.699012 101.650735 
L 260.654015 101.828095 
L 260.687389 102.004807 
L 260.693318 102.71199 
L 260.451778 102.786135 
L 260.184743 102.806683 
L 260.189817 102.689621 
L 259.846457 102.120481 
L 259.843211 102.159834 
L 259.883653 102.457874 
L 260.003502 102.654202 
L 259.98176 102.675454 
L 260.038449 102.816227 
L 259.967251 102.973736 
L 259.662239 103.45398 
L 259.619955 103.827916 
L 259.585532 103.967936 
L 258.845073 104.696292 
L 258.452203 104.774513 
L 258.310352 104.795551 
L 258.108396 104.8457 
L 258.023135 104.864811 
L 258.017388 104.780502 
L 257.849764 104.376338 
L 257.748845 104.190494 
L 257.490083 104.187692 
L 257.286697 104.193872 
L 257.154895 104.155907 
L 257.147112 104.128197 
L 257.012784 104.138339 
L 257.014283 104.179854 
L 256.945477 104.397163 
L 256.996927 104.620667 
L 257.038037 104.713084 
L 256.934586 104.723034 
L 256.925195 104.861461 
L 256.950742 104.870166 
L 257.04283 104.915209 
L 257.049235 104.951616 
L 257.219108 104.980094 
L 257.24521 104.996602 
L 257.183381 105.093763 
L 256.807929 105.232403 
L 256.773827 105.182873 
L 256.709445 105.261848 
L 256.566779 105.662946 
L 256.503034 105.853214 
L 256.183167 106.313308 
L 256.034672 106.559579 
L 255.973787 106.668589 
L 255.738518 106.913238 
L 255.629733 107.724786 
L 255.649976 107.853291 
L 255.383656 107.925652 
L 255.234992 107.886463 
L 255.226576 107.972351 
L 254.99483 108.127883 
L 254.864047 108.073723 
L 254.751305 107.807972 
L 254.764952 107.573451 
L 254.633671 107.601146 
L 254.108385 106.517787 
L 253.975955 106.03206 
L 253.549226 105.628408 
L 252.987451 105.695918 
L 252.820754 105.761799 
L 252.849513 105.97322 
L 252.780351 105.967082 
L 252.406082 105.885176 
L 251.185199 105.499128 
L 250.987269 105.432059 
L 250.963109 105.493744 
L 250.848426 105.6303 
L 250.571917 105.861521 
L 250.509472 105.774324 
L 250.38984 105.840824 
L 249.957621 106.579977 
L 249.645541 106.63233 
L 249.007756 106.766589 
L 249.057567 106.839135 
L 248.982507 107.011402 
L 248.803737 107.189252 
L 248.703476 107.57705 
L 248.649864 107.690107 
L 248.720309 107.850574 
L 248.814693 107.751792 
L 248.809536 107.736173 
L 248.895131 107.792794 
L 248.927443 107.889777 
L 248.462708 108.525154 
L 248.566435 108.507295 
L 248.596477 108.532508 
L 248.526574 108.601953 
L 248.510751 108.865229 
L 248.449468 109.060589 
L 248.35443 109.259293 
L 248.419665 109.37459 
L 248.095867 109.852743 
L 248.025799 110.002101 
L 248.017968 109.999057 
L 246.765549 109.447107 
L 245.914536 107.559496 
L 245.890532 107.667731 
L 245.66653 107.851748 
L 245.661447 107.848547 
L 245.594612 107.841357 
L 245.467574 107.611814 
L 245.096629 107.683997 
L 244.930223 107.797047 
L 244.625025 107.835766 
L 244.660175 107.553913 
L 244.640765 107.557398 
L 243.926169 108.228877 
L 243.726497 108.5361 
L 243.629279 108.458789 
L 243.634176 108.446763 
L 243.598817 108.398555 
L 243.580359 108.399373 
L 243.055069 108.358648 
L 243.053492 108.369224 
L 242.959922 108.329893 
L 242.873101 108.350711 
L 242.871332 108.399444 
L 242.628401 108.805016 
L 242.69742 109.541253 
L 242.619734 109.864898 
L 242.68204 110.10929 
L 242.193551 110.189759 
L 242.045091 110.005152 
L 241.839582 110.101979 
L 241.880561 110.223613 
L 241.818191 110.229097 
L 241.709236 110.276522 
L 241.772439 110.464898 
L 241.659234 110.45588 
L 241.610449 110.624754 
L 241.529686 111.011407 
L 241.524013 111.178382 
L 241.495281 111.225281 
L 241.45743 111.173169 
L 241.146598 111.036179 
L 241.073887 110.924957 
L 241.02583 110.951351 
L 240.560129 111.170381 
L 240.325835 111.215224 
L 239.311432 111.986503 
L 239.241828 112.221806 
L 238.955746 112.239686 
L 238.908162 112.214232 
L 238.869553 112.243534 
L 238.887321 112.371043 
L 238.944171 112.596411 
L 239.005519 112.628352 
L 238.931919 112.682292 
L 238.880968 112.941684 
L 238.327469 113.393337 
L 238.373485 113.473954 
L 238.317385 113.517837 
L 238.135446 113.534373 
L 238.156972 113.497781 
L 238.164781 113.392248 
L 237.559733 113.463101 
L 237.380863 113.568953 
L 237.34771 113.754641 
L 237.048138 113.815117 
L 236.750407 113.614159 
L 236.643208 113.459787 
L 236.573612 113.005347 
L 236.439284 112.815477 
L 236.257684 112.83069 
L 235.967243 113.035204 
L 235.75645 113.146967 
L 235.607782 113.079272 
L 235.639865 112.922879 
L 235.865998 112.706303 
L 236.313472 112.550771 
L 236.419527 112.521803 
L 236.354365 112.413859 
L 236.451016 112.235782 
L 236.768851 112.049361 
L 237.21636 111.746747 
L 237.159063 111.723014 
L 237.049459 111.412228 
L 237.064437 111.365571 
L 236.996016 111.324611 
L 236.021735 111.204413 
L 235.314216 111.603726 
L 235.401766 111.662772 
L 235.636437 112.007882 
L 235.564649 112.206714 
L 234.72229 112.086296 
L 234.605137 112.158044 
L 234.579962 112.088351 
L 234.645384 111.991624 
L 235.06829 111.682986 
L 234.9503 111.534004 
L 234.680782 111.501224 
L 234.393547 111.545178 
L 234.221403 111.592766 
L 234.019842 111.651371 
L 233.81929 111.679451 
L 233.777786 111.935515 
L 233.240621 112.167006 
L 233.130085 112.592435 
L 233.126748 112.589163 
L 232.996845 112.577499 
L 232.825689 112.648615 
L 232.447455 112.33849 
L 232.200156 112.10079 
L 231.989532 112.06961 
L 231.763386 111.701947 
L 231.659368 111.37178 
L 231.370629 111.098412 
L 231.067477 111.353494 
L 230.981531 111.392377 
L 230.79736 111.439781 
L 230.522902 111.419077 
L 230.422936 111.429816 
L 230.41279 111.451203 
L 230.231901 111.613129 
L 230.227186 111.502042 
L 230.073867 111.500669 
L 229.953472 111.754315 
L 229.940168 111.716058 
L 229.859656 111.404646 
L 229.940423 111.391346 
L 229.643828 111.533791 
L 229.612456 111.64231 
L 229.589752 111.645511 
L 229.370587 111.749201 
L 229.383675 111.771463 
L 229.400398 111.822166 
L 229.310058 111.85474 
L 228.384761 111.989355 
L 228.210779 112.017975 
L 227.818317 111.939668 
L 227.335376 111.445243 
L 227.099223 111.327485 
L 226.771893 111.183681 
L 226.811044 111.158041 
L 227.323203 110.496825 
L 227.519087 109.441403 
L 227.103734 109.385998 
L 226.95475 109.518216 
L 226.377888 109.597731 
L 226.118558 109.617816 
L 225.988859 109.606508 
L 225.973106 109.547177 
L 225.57865 109.407769 
L 224.660829 109.313766 
L 223.93991 109.104202 
L 223.538911 108.879219 
L 223.668337 108.586512 
L 223.749976 108.514144 
L 223.651172 108.485027 
L 223.530074 108.39586 
L 223.705456 108.102684 
L 223.830297 108.0125 
L 223.982558 107.861982 
L 223.966939 107.773456 
L 223.918896 107.760995 
L 223.831086 107.671544 
L 223.794739 107.690071 
L 223.670361 107.756528 
L 223.647137 107.721543 
L 223.516965 107.367742 
L 222.755387 107.274948 
L 222.363116 107.346853 
L 221.919824 107.291534 
L 221.918931 107.379562 
L 221.663593 107.545699 
L 221.42441 107.625207 
L 221.276609 107.780668 
L 221.185965 107.803996 
L 221.057622 107.949428 
L 220.860121 108.002621 
L 220.767999 107.897871 
L 220.594156 107.742987 
L 219.511926 107.338425 
L 217.89118 106.621441 
L 217.434692 106.613781 
L 216.446243 106.792307 
L 216.345593 107.240261 
L 215.645979 107.234792 
L 214.726029 107.253006 
L 214.048287 107.641693 
L 214.048708 107.610484 
L 213.951112 107.457314 
L 213.834639 107.397692 
L 213.694326 107.166976 
L 213.554087 106.988031 
L 213.423573 106.072088 
L 213.250792 105.842517 
L 211.942541 105.404278 
L 211.714743 105.015983 
L 211.99829 104.420996 
L 211.749118 103.907403 
L 211.224968 103.877012 
L 210.706512 103.616311 
L 210.397205 103.559903 
L 209.812335 103.082967 
L 209.231582 102.843802 
L 208.961045 102.660155 
L 208.809473 102.553023 
L 208.190423 102.379931 
L 208.098678 102.128653 
L 206.825734 102.135694 
L 206.479036 102.352833 
L 206.185513 102.323886 
L 206.07574 102.361937 
L 205.871405 102.293943 
L 205.924407 102.127444 
L 205.88718 102.007887 
L 205.539182 101.791886 
L 205.347415 101.646511 
L 205.108714 101.251138 
L 204.904769 100.860317 
L 204.594258 99.948592 
L 204.2421 100.088349 
L 203.882661 100.298446 
L 202.907833 100.322201 
L 202.773011 100.578813 
L 202.731321 100.73002 
L 202.79819 100.752424 
L 202.844084 100.840474 
L 202.708482 101.02262 
L 201.989951 101.211238 
L 201.508692 100.350366 
L 201.400479 99.905634 
L 201.30843 99.700231 
L 200.843552 99.850656 
L 200.825611 99.772776 
L 200.78184 99.70464 
L 200.774039 99.893472 
L 200.655685 100.336283 
L 200.573041 100.512668 
L 200.568924 100.614232 
L 200.470766 100.604275 
L 199.429589 100.516936 
L 199.429676 100.564659 
L 199.360293 100.975252 
L 198.250557 100.568784 
L 198.17749 99.361614 
L 198.092766 99.152726 
L 197.977706 99.151083 
L 197.509577 99.083666 
L 197.344112 99.042578 
L 197.121055 99.077336 
L 196.681811 99.038823 
L 196.801556 99.167306 
L 196.873773 99.395775 
L 196.784234 99.630423 
L 196.829005 99.760991 
L 196.972322 99.872298 
L 197.164214 100.56855 
L 196.154102 101.131822 
L 195.428824 101.594975 
L 195.338205 101.636724 
L 195.409499 101.713224 
L 195.493097 101.944516 
L 195.618558 102.719543 
L 195.571451 103.088529 
L 195.71039 103.836814 
L 195.424841 104.099897 
L 194.804122 104.153595 
L 194.484207 104.473009 
L 193.983532 104.183254 
L 193.916576 104.224505 
L 193.752501 104.235742 
L 193.576812 104.291858 
L 193.591937 104.322299 
L 193.541146 104.482752 
L 193.394969 104.797827 
L 193.258154 105.06148 
L 193.132996 105.178833 
L 193.010265 105.363824 
L 193.011868 105.366384 
L 192.897935 105.523281 
L 192.790069 105.682668 
L 192.714488 105.964528 
L 192.665084 105.947814 
L 192.376978 105.949095 
L 192.373208 105.927189 
L 192.254204 105.894543 
L 190.5335 105.754431 
L 190.074472 105.568018 
L 189.955642 106.232875 
L 189.648034 106.596954 
L 189.543158 106.70819 
L 188.892623 107.313091 
L 188.896957 107.317003 
L 188.850066 107.509675 
L 188.462241 107.693314 
L 188.111427 107.525891 
L 187.942802 107.517072 
L 187.787004 107.52269 
L 186.887757 107.391682 
L 186.347412 107.358247 
L 186.157075 107.349997 
L 186.033442 107.299777 
L 185.887352 107.39186 
L 186.237513 107.859877 
L 186.875931 108.062969 
L 187.510808 108.920754 
L 187.309901 108.98091 
L 187.305108 109.159237 
L 186.833967 109.143519 
L 186.685784 109.262244 
L 186.390549 109.294264 
L 186.190154 109.260914 
L 185.87706 109.298489 
L 185.707191 109.252785 
L 185.536642 109.167181 
L 184.669156 109.257963 
L 183.134469 109.926817 
L 182.964197 109.978019 
L 182.972661 109.920558 
L 182.925982 109.808853 
L 182.861579 108.93185 
L 182.371101 109.004736 
L 182.369056 108.885115 
L 182.043628 108.754625 
L 182.095637 108.50731 
L 181.823124 108.315825 
L 181.657831 108.054391 
L 181.438324 108.095721 
L 181.334211 108.230812 
L 180.063954 108.090835 
L 179.87519 108.336863 
L 178.980558 108.378847 
L 178.59162 108.228052 
L 178.305027 108.454366 
L 178.187604 108.783985 
L 178.03494 109.054587 
L 177.602257 109.196384 
L 176.500331 110.266465 
L 176.201568 110.291927 
L 175.918841 110.250839 
L 175.604169 110.390994 
L 175.406066 110.518504 
L 175.263162 110.623758 
L 175.418981 110.738821 
L 175.620945 111.060546 
L 175.609942 111.06758 
L 175.580434 111.183717 
L 175.529222 111.623278 
L 175.629665 112.025073 
L 175.599385 112.027391 
L 175.508732 112.241358 
L 175.966 112.433966 
L 175.823928 113.035474 
L 176.037853 113.335009 
L 175.897705 113.694372 
L 175.517781 114.708855 
L 175.340969 114.743165 
L 175.299067 114.591332 
L 175.236193 114.650151 
L 175.406391 115.628411 
L 175.091234 115.826432 
L 175.169445 116.111756 
L 174.640337 116.21423 
L 174.562971 116.502271 
L 174.130956 116.508338 
L 173.471212 116.486041 
L 173.172644 116.798939 
L 173.096115 116.705725 
L 173.034229 116.41213 
L 172.33166 116.242124 
L 171.967709 116.330416 
L 171.912476 116.391347 
L 171.697385 115.709292 
L 171.380581 115.479828 
L 171.208775 115.439687 
L 170.685028 115.545567 
L 170.691086 115.575176 
L 170.641898 115.647714 
L 170.261588 115.613227 
L 169.945639 115.46857 
L 169.563474 115.420533 
L 169.602876 115.476841 
L 169.411984 115.662316 
L 169.287901 115.67866 
L 168.693622 115.521883 
L 168.529426 115.438207 
L 168.409525 116.28159 
L 168.581236 116.853647 
L 168.711421 117.110102 
L 168.788002 117.188188 
L 168.661392 117.241459 
L 168.316302 117.548973 
L 168.295843 117.53056 
L 168.157242 117.403641 
L 167.388201 117.420127 
L 167.111597 117.217199 
L 165.705556 117.208294 
L 165.757067 117.13013 
L 165.783875 117.097456 
L 165.683194 117.055302 
L 165.384809 116.932878 
L 164.336486 117.094988 
L 163.963578 117.055259 
L 163.963695 117.019477 
L 163.871318 116.91935 
L 162.930722 116.727652 
M 207.048981 179.729594 
L 207.062173 179.673691 
L 207.155807 179.76125 
L 207.143049 179.793206 
L 207.048981 179.729594 
M 241.896198 166.685584 
L 242.318445 166.369677 
L 242.400235 166.27199 
L 242.442433 166.29226 
L 242.599248 166.376192 
L 242.748848 166.185689 
L 242.95529 166.005414 
L 243.005002 165.737252 
L 243.147473 165.509779 
L 243.403297 165.26437 
L 242.934093 164.655244 
L 242.851497 164.380702 
L 242.950431 163.978822 
L 242.915064 163.284904 
L 243.10362 162.983812 
L 243.362053 162.534706 
L 243.640984 162.389928 
L 245.383876 160.31335 
L 245.265146 160.245279 
L 243.954628 159.639211 
L 243.154489 159.756251 
L 243.615207 157.380296 
L 243.723134 156.985877 
L 243.811893 157.06685 
L 244.03908 157.230476 
L 244.405994 157.150853 
L 244.43617 156.867763 
L 244.509509 156.303324 
L 244.693177 155.847554 
L 244.55123 155.04082 
L 243.773981 155.263456 
L 243.656421 154.760233 
L 243.710336 154.775794 
L 243.959135 154.743135 
L 244.224645 154.611451 
L 244.572881 154.390436 
L 245.014123 153.990412 
L 245.275928 154.006422 
L 245.639822 154.205161 
L 246.09514 154.362819 
L 246.338933 154.534787 
L 247.025763 154.810389 
L 247.03931 154.747182 
L 247.053022 154.684046 
L 247.522446 154.636066 
L 247.52018 154.341674 
L 246.808826 153.467857 
L 246.886768 153.307333 
L 247.073863 153.130521 
L 247.624761 151.85476 
L 247.625221 151.843217 
L 247.731912 151.851616 
L 247.952685 151.898209 
L 248.531332 151.85476 
L 248.685036 151.896253 
L 248.927872 151.911239 
L 249.518745 151.946629 
L 249.5259 151.853252 
L 249.475802 151.15678 
L 249.428434 150.963518 
L 249.450926 150.968724 
L 250.048629 150.997636 
L 250.377528 150.783371 
L 250.424375 150.114424 
L 250.284539 150.10537 
L 250.321939 149.537225 
L 250.403972 149.559529 
L 251.313781 149.624906 
L 251.451697 149.716647 
L 251.172896 149.995257 
L 251.121402 150.119658 
L 251.422215 150.957494 
L 251.37476 151.186752 
L 251.319432 151.20055 
L 251.355558 151.299325 
L 251.488993 151.761112 
L 251.181853 151.923386 
L 251.526553 151.860464 
L 251.820362 151.922704 
L 252.781417 152.201278 
L 253.053228 152.175901 
L 253.777345 152.107631 
L 253.903291 152.04549 
L 253.907031 152.047126 
L 254.053797 152.030939 
L 254.372785 151.619919 
L 254.358406 151.616142 
L 254.411672 151.500183 
L 254.965673 151.073126 
L 254.956559 151.064605 
L 254.95421 150.904251 
L 254.981747 150.912729 
L 255.138419 150.536503 
L 255.30714 150.422471 
L 255.408055 150.521709 
L 255.838675 150.793299 
L 256.041016 150.842652 
L 256.155665 151.081227 
L 256.457773 151.334709 
L 256.458757 151.326914 
L 256.713445 151.194127 
L 256.887119 151.157854 
L 256.879171 151.105451 
L 256.909611 150.6968 
L 257.144832 150.523125 
L 257.279217 150.333987 
L 258.204254 150.254571 
L 258.614761 149.878302 
L 258.595455 149.851503 
L 258.44455 149.815309 
L 257.946952 149.631499 
L 257.603206 149.400171 
L 257.698652 149.294987 
L 258.097835 149.006157 
L 258.259513 149.083496 
L 258.675329 148.521369 
L 258.733102 148.583594 
L 258.751291 148.601069 
L 258.847213 148.48691 
L 258.694658 148.837596 
L 258.688816 149.12415 
L 258.710879 149.105886 
L 259.137018 148.879551 
L 259.234557 148.822525 
L 259.214917 148.941926 
L 259.190604 149.755715 
L 259.582056 150.117212 
L 260.454296 150.555628 
L 260.571085 150.518302 
L 260.596429 150.599646 
L 260.707571 150.656978 
L 260.733886 150.654183 
L 260.729041 150.740156 
L 260.562331 151.512345 
L 260.371903 151.820415 
L 259.98924 152.042709 
L 259.86081 152.555428 
L 259.5915 153.499763 
L 259.691691 153.490062 
L 260.166675 154.410976 
L 261.039084 154.446175 
L 262.048771 154.917414 
L 262.562291 155.46802 
L 262.857175 155.753031 
L 263.074992 155.79562 
L 263.215699 155.911849 
L 263.305104 156.018192 
L 263.340402 156.331439 
L 263.503528 157.329735 
L 263.525045 157.452635 
L 265.701569 158.059165 
L 265.646172 158.148545 
L 265.439899 158.26683 
L 265.167113 158.275656 
L 265.145757 158.259845 
L 265.163564 158.388934 
L 265.228604 158.826831 
L 265.320627 158.81107 
L 265.931382 158.832279 
L 266.279662 158.849633 
L 266.555846 158.948778 
L 266.496885 159.232004 
L 265.346742 160.498398 
L 265.110238 161.382201 
L 265.357654 161.464867 
L 265.28171 161.568216 
L 264.679886 162.560452 
L 264.755392 162.738196 
L 264.768446 162.785492 
L 264.723241 162.842085 
L 264.562525 163.056926 
L 264.654742 163.086826 
L 264.769455 163.067922 
L 264.835809 163.026229 
L 264.982007 163.151114 
L 265.056205 163.355493 
L 265.07614 163.190182 
L 265.162359 163.192479 
L 265.145653 163.086008 
L 265.256852 162.848379 
L 265.34568 162.81153 
L 265.704811 162.62176 
L 266.120099 162.475965 
L 266.437838 162.615153 
L 267.49248 163.17945 
L 267.793197 163.438287 
L 268.285243 163.727985 
L 268.478497 164.179759 
L 268.630714 164.126267 
L 268.54898 163.811349 
L 268.363566 163.225616 
L 268.510319 163.301909 
L 269.001967 163.598222 
L 269.125582 163.683619 
L 269.496726 164.277453 
L 269.821369 164.500025 
L 269.984482 164.531938 
L 270.849839 164.797689 
L 270.813501 164.879822 
L 270.760378 165.003661 
L 270.871356 165.025183 
L 270.877155 165.026378 
L 270.853298 165.122024 
L 270.80112 165.349411 
L 271.054161 165.39988 
L 271.01654 165.478876 
L 270.893996 165.493002 
L 270.763152 165.47308 
L 270.771858 165.43441 
L 270.84359 165.122515 
L 270.8006 165.124115 
L 270.461889 165.24575 
L 270.293273 165.510697 
L 270.151777 165.725161 
L 269.566772 165.571756 
L 269.392028 165.4401 
L 269.984395 165.744179 
L 270.130511 165.847905 
L 270.194117 166.070819 
L 270.192448 166.178335 
L 270.044287 166.185064 
L 269.988681 166.256841 
L 269.695371 166.919337 
L 269.838492 167.180095 
L 270.049293 167.60418 
L 269.901933 167.775138 
L 269.705598 168.106472 
L 269.48538 168.134786 
L 269.380197 168.204814 
L 269.371871 168.200653 
L 269.050617 168.139267 
L 268.810481 168.37255 
L 268.670519 168.449548 
L 268.386487 168.724822 
L 267.804638 169.229674 
L 268.360706 168.657319 
L 267.879945 169.294169 
L 268.029805 169.324225 
L 268.240129 169.422567 
L 268.353148 169.397539 
L 268.32152 169.510745 
L 268.282803 169.686341 
L 268.378591 169.681056 
L 268.430553 169.703943 
L 268.409681 169.789234 
L 268.207617 170.136101 
L 267.957375 170.371297 
L 267.313523 170.391809 
L 267.005673 170.67761 
L 266.931163 171.026276 
L 266.828965 171.109632 
L 266.532335 171.597031 
L 266.408646 171.914381 
L 266.286782 172.164215 
L 266.241334 172.440592 
L 266.042061 172.435805 
L 265.840526 172.215367 
L 265.643888 171.864275 
L 265.965805 170.623336 
L 266.118395 170.355978 
L 265.957237 170.18275 
L 265.90831 170.110575 
L 265.919408 169.681789 
L 265.911868 169.683574 
L 265.474539 169.708318 
L 265.305545 169.408036 
L 265.231343 169.450347 
L 264.322064 169.958059 
L 264.363087 169.830898 
L 264.280252 169.437133 
L 263.803361 168.733542 
L 263.753302 168.521994 
L 263.734996 168.528629 
L 262.402139 168.924265 
L 261.274197 168.864913 
L 261.281178 168.435636 
L 261.401686 168.036857 
L 261.256346 168.134011 
L 260.937176 168.204309 
L 260.479033 167.971737 
L 260.269376 168.016644 
L 258.859049 168.370281 
L 258.638796 167.51975 
L 258.156496 166.582655 
L 257.549481 166.821877 
L 256.613956 167.236005 
L 256.200528 167.458442 
L 256.276363 167.859981 
L 256.538402 169.221083 
L 256.189524 169.772648 
L 254.893373 169.596128 
L 254.712029 168.907345 
L 254.117611 168.904984 
L 254.11053 168.476446 
L 253.179096 167.783531 
L 252.940395 167.419424 
L 252.947134 167.248316 
L 252.897665 167.275734 
L 251.591546 168.145476 
L 251.541817 168.059196 
L 250.927962 166.926058 
L 250.765222 167.055402 
L 249.808324 167.782037 
L 249.436772 167.691932 
L 249.142703 167.633853 
L 248.888132 167.70058 
L 248.873917 167.585397 
L 248.684096 166.580585 
L 247.353514 166.797759 
L 246.749172 166.978284 
L 246.282998 167.160579 
L 244.971254 167.983358 
L 244.905988 168.34105 
L 245.074509 168.318518 
L 245.491769 168.254194 
L 245.501242 168.322501 
L 245.511288 168.391775 
L 245.189076 168.493594 
L 244.613397 168.436802 
L 244.274344 168.286541 
L 244.273577 168.277729 
L 244.176506 168.319386 
L 243.7176 168.76709 
L 243.764625 168.816158 
L 243.839256 168.984841 
L 243.764001 168.973169 
L 243.748322 168.988638 
L 243.670094 168.922074 
L 243.55977 168.822751 
L 243.674683 168.670484 
L 243.869453 168.558302 
L 244.089286 168.366945 
L 243.943564 168.336277 
L 243.923595 168.268604 
L 244.033905 168.249045 
L 244.052553 168.234379 
L 243.91185 168.177979 
L 243.853497 168.126962 
L 243.810753 168.176983 
L 243.475245 168.304564 
L 242.701758 167.407262 
L 242.769923 167.424516 
L 242.912563 167.336544 
L 242.906046 167.301602 
L 242.768606 167.144271 
L 242.709256 167.144427 
L 242.720285 167.242811 
L 242.657611 167.402774 
L 242.59192 167.385392 
L 242.443581 167.215194 
L 242.414823 167.101504 
L 242.316824 167.128488 
L 242.247459 167.150985 
L 242.295442 167.244931 
L 242.342298 167.352127 
L 242.313851 167.37919 
L 242.288261 167.412027 
L 241.976064 167.176468 
L 241.896198 166.685584 
M 259.885179 152.506502 
L 259.972421 152.442705 
L 259.885179 152.506502 
" style="fill:none;stroke:#ffc0cb;"/>
    <path clip-path="url(#p7cc0ee96a4)" d="M 204.182554 135.27515 
L 204.189536 135.278222 
L 204.203846 135.284517 
L 204.211321 135.285697 
L 204.219712 135.284574 
L 204.229211 135.280121 
L 204.255343 135.253457 
L 204.257887 135.255705 
L 204.307534 135.210058 
L 204.358854 135.165187 
L 204.320111 135.136929 
L 204.296908 135.165051 
L 204.28886 135.155571 
L 204.26034 135.191979 
L 204.229965 135.230975 
L 204.217969 135.221687 
L 204.214316 135.221239 
L 204.209367 135.227042 
L 204.211113 135.230036 
L 204.199196 135.248408 
L 204.182554 135.27515 
" style="fill:none;stroke:#ffc0cb;"/>
    <path clip-path="url(#p7cc0ee96a4)" d="M 205.999779 180.180741 
L 206.014622 180.18589 
L 206.04078 180.194773 
L 206.07343 180.132356 
L 206.052347 180.123743 
L 206.03333 180.116403 
L 205.999779 180.180741 
" style="fill:none;stroke:#ffc0cb;"/>
    <path clip-path="url(#p7cc0ee96a4)" d="M 206.11067 179.957308 
L 206.112347 179.968844 
L 206.120464 179.974555 
L 206.131073 179.973033 
L 206.135294 179.979939 
L 206.143225 179.997023 
L 206.148555 180.018211 
L 206.151585 180.025145 
L 206.156781 180.030394 
L 206.165279 180.030942 
L 206.18609 180.039533 
L 206.203503 180.038786 
L 206.210038 180.116481 
L 206.216265 180.151751 
L 206.228482 180.201452 
L 206.268885 180.196231 
L 206.33819 180.202604 
L 206.362303 180.201174 
L 206.386862 180.189453 
L 206.410368 180.183536 
L 206.433766 180.190883 
L 206.457437 180.192554 
L 206.46031 180.217504 
L 206.462581 180.238158 
L 206.287815 180.535459 
L 206.46516 180.238941 
L 206.463184 180.218471 
L 206.519617 180.237419 
L 206.555522 180.248606 
L 206.579219 180.209659 
L 206.609434 180.226188 
L 206.610599 180.221423 
L 206.623609 180.206238 
L 206.638283 180.17818 
L 206.637967 180.147348 
L 206.646383 180.133295 
L 206.629698 180.120706 
L 206.608146 180.108586 
L 206.582981 180.103622 
L 206.516978 180.083217 
L 206.486326 180.091581 
L 206.457844 180.100777 
L 206.451859 180.095166 
L 206.421315 180.088999 
L 206.391543 180.083594 
L 206.359586 180.091154 
L 206.323165 180.084696 
L 206.30564 180.079184 
L 206.285388 180.079398 
L 206.271871 180.075443 
L 206.263529 180.074967 
L 206.258368 180.071062 
L 206.249275 180.062136 
L 206.242684 180.054419 
L 206.234311 180.049547 
L 206.230168 180.046468 
L 206.22323 180.045842 
L 206.214827 180.038744 
L 206.209496 180.035437 
L 206.203416 180.036795 
L 206.194666 180.035863 
L 206.186844 180.03752 
L 206.165955 180.028082 
L 206.156807 180.026532 
L 206.154293 180.023324 
L 206.152612 180.021063 
L 206.145119 179.99607 
L 206.137322 179.977791 
L 206.131749 179.970558 
L 206.120521 179.971504 
L 206.113864 179.966582 
L 206.112781 179.957557 
L 206.117301 179.950317 
L 206.114865 179.948389 
L 206.11067 179.957308 
" style="fill:none;stroke:#ffc0cb;"/>
    <path clip-path="url(#p7cc0ee96a4)" d="M 206.710453 180.310007 
L 206.712013 180.311145 
L 206.711935 180.328563 
L 206.750882 180.337211 
L 206.796139 180.319971 
L 206.842098 180.329807 
L 206.900716 180.343164 
L 206.946172 180.338861 
L 206.962866 180.311792 
L 206.929982 180.282134 
L 206.937327 180.243599 
L 206.90557 180.228471 
L 206.866835 180.232639 
L 206.819502 180.21372 
L 206.835741 180.209745 
L 206.845279 180.212682 
L 206.85288 180.211772 
L 206.863407 180.203571 
L 206.877457 180.186772 
L 206.882007 180.182412 
L 206.887463 180.175371 
L 206.889786 180.166388 
L 206.903061 180.155293 
L 206.918398 180.152654 
L 206.929397 180.144191 
L 206.935325 180.141516 
L 206.948812 180.140393 
L 206.948898 180.138579 
L 206.935152 180.139617 
L 206.927507 180.14264 
L 206.917366 180.149895 
L 206.902545 180.152782 
L 206.890731 180.161637 
L 206.887637 180.166132 
L 206.885318 180.173948 
L 206.881578 180.181025 
L 206.875693 180.185606 
L 206.861604 180.202533 
L 206.852282 180.209702 
L 206.84631 180.210392 
L 206.837457 180.206807 
L 206.820187 180.210435 
L 206.815368 180.213059 
L 206.796044 180.224602 
L 206.778232 180.235733 
L 206.737001 180.24345 
L 206.728043 180.255975 
L 206.723267 180.266316 
L 206.710453 180.310007 
" style="fill:none;stroke:#ffc0cb;"/>
    <path clip-path="url(#p7cc0ee96a4)" d="M 206.981059 180.365426 
L 207.006008 180.37539 
L 207.014121 180.375497 
L 207.029597 180.383889 
L 207.052782 180.375241 
L 207.078962 180.383377 
L 207.109181 180.383754 
L 207.132332 180.361301 
L 207.13501 180.353634 
L 207.137003 180.340618 
L 207.138061 180.334011 
L 207.122295 180.320512 
L 207.091629 180.315199 
L 207.063248 180.313122 
L 207.044396 180.305249 
L 207.019105 180.304616 
L 207.003282 180.302155 
L 206.98326 180.328869 
L 206.981059 180.365426 
" style="fill:none;stroke:#ffc0cb;"/>
    <path clip-path="url(#p7cc0ee96a4)" d="M 207.134681 180.442402 
L 207.134824 180.44401 
L 207.142759 180.445908 
L 207.148687 180.450062 
L 207.143136 180.450496 
L 207.136132 180.450233 
L 207.136366 180.451869 
L 207.143513 180.452103 
L 207.149905 180.451577 
L 207.147435 180.454735 
L 207.141684 180.457743 
L 207.14288 180.458853 
L 207.149528 180.456278 
L 207.151794 180.451605 
L 207.160076 180.452544 
L 207.168999 180.457686 
L 207.172081 180.482629 
L 207.173671 180.488454 
L 207.179985 180.495424 
L 207.188237 180.50051 
L 207.196258 180.50349 
L 207.206382 180.50376 
L 207.213637 180.507757 
L 207.221424 180.509628 
L 207.231011 180.506648 
L 207.241221 180.509179 
L 207.249086 180.5143 
L 207.256458 180.523077 
L 207.2635 180.529023 
L 207.270755 180.538411 
L 207.275765 180.547899 
L 207.277797 180.554904 
L 207.285585 180.55999 
L 207.2864 180.558354 
L 207.30497 180.557458 
L 207.316042 180.544976 
L 207.318855 180.522579 
L 207.309516 180.505822 
L 207.292502 180.495019 
L 207.264731 180.477523 
L 207.247981 180.478746 
L 207.23049 180.467381 
L 207.21755 180.459614 
L 207.202707 180.45295 
L 207.170421 180.448106 
L 207.171032 180.456634 
L 207.169727 180.455197 
L 207.160835 180.450816 
L 207.15215 180.449792 
L 207.142759 180.444479 
L 207.134681 180.442402 
" style="fill:none;stroke:#ffc0cb;"/>
   </g>
   <g id="matplotlib.axis_1">
    <g id="xtick_1">
     <g id="line2d_1">
      <defs>
       <path d="M 0 0 
L 0 3.5 
" id="mc7429dae30" style="stroke:#000000;stroke-width:0.8;"/>
      </defs>
      <g>
       <use style="stroke:#000000;stroke-width:0.8;" x="151.393152" xlink:href="#mc7429dae30" y="252"/>
      </g>
     </g>
     <g id="text_1">
      <!-- 11 -->
      <defs>
       <path d="M 12.40625 8.296875 
L 28.515625 8.296875 
L 28.515625 63.921875 
L 10.984375 60.40625 
L 10.984375 69.390625 
L 28.421875 72.90625 
L 38.28125 72.90625 
L 38.28125 8.296875 
L 54.390625 8.296875 
L 54.390625 0 
L 12.40625 0 
z
" id="DejaVuSans-49"/>
      </defs>
      <g transform="translate(145.030652 266.598437)scale(0.1 -0.1)">
       <use xlink:href="#DejaVuSans-49"/>
       <use x="63.623047" xlink:href="#DejaVuSans-49"/>
      </g>
     </g>
    </g>
    <g id="xtick_2">
     <g id="line2d_2">
      <g>
       <use style="stroke:#000000;stroke-width:0.8;" x="194.730362" xlink:href="#mc7429dae30" y="252"/>
      </g>
     </g>
     <g id="text_2">
      <!-- 12 -->
      <defs>
       <path d="M 19.1875 8.296875 
L 53.609375 8.296875 
L 53.609375 0 
L 7.328125 0 
L 7.328125 8.296875 
Q 12.9375 14.109375 22.625 23.890625 
Q 32.328125 33.6875 34.8125 36.53125 
Q 39.546875 41.84375 41.421875 45.53125 
Q 43.3125 49.21875 43.3125 52.78125 
Q 43.3125 58.59375 39.234375 62.25 
Q 35.15625 65.921875 28.609375 65.921875 
Q 23.96875 65.921875 18.8125 64.3125 
Q 13.671875 62.703125 7.8125 59.421875 
L 7.8125 69.390625 
Q 13.765625 71.78125 18.9375 73 
Q 24.125 74.21875 28.421875 74.21875 
Q 39.75 74.21875 46.484375 68.546875 
Q 53.21875 62.890625 53.21875 53.421875 
Q 53.21875 48.921875 51.53125 44.890625 
Q 49.859375 40.875 45.40625 35.40625 
Q 44.1875 33.984375 37.640625 27.21875 
Q 31.109375 20.453125 19.1875 8.296875 
z
" id="DejaVuSans-50"/>
      </defs>
      <g transform="translate(188.367862 266.598437)scale(0.1 -0.1)">
       <use xlink:href="#DejaVuSans-49"/>
       <use x="63.623047" xlink:href="#DejaVuSans-50"/>
      </g>
     </g>
    </g>
    <g id="xtick_3">
     <g id="line2d_3">
      <g>
       <use style="stroke:#000000;stroke-width:0.8;" x="238.067572" xlink:href="#mc7429dae30" y="252"/>
      </g>
     </g>
     <g id="text_3">
      <!-- 13 -->
      <defs>
       <path d="M 40.578125 39.3125 
Q 47.65625 37.796875 51.625 33 
Q 55.609375 28.21875 55.609375 21.1875 
Q 55.609375 10.40625 48.1875 4.484375 
Q 40.765625 -1.421875 27.09375 -1.421875 
Q 22.515625 -1.421875 17.65625 -0.515625 
Q 12.796875 0.390625 7.625 2.203125 
L 7.625 11.71875 
Q 11.71875 9.328125 16.59375 8.109375 
Q 21.484375 6.890625 26.8125 6.890625 
Q 36.078125 6.890625 40.9375 10.546875 
Q 45.796875 14.203125 45.796875 21.1875 
Q 45.796875 27.640625 41.28125 31.265625 
Q 36.765625 34.90625 28.71875 34.90625 
L 20.21875 34.90625 
L 20.21875 43.015625 
L 29.109375 43.015625 
Q 36.375 43.015625 40.234375 45.921875 
Q 44.09375 48.828125 44.09375 54.296875 
Q 44.09375 59.90625 40.109375 62.90625 
Q 36.140625 65.921875 28.71875 65.921875 
Q 24.65625 65.921875 20.015625 65.03125 
Q 15.375 64.15625 9.8125 62.3125 
L 9.8125 71.09375 
Q 15.4375 72.65625 20.34375 73.4375 
Q 25.25 74.21875 29.59375 74.21875 
Q 40.828125 74.21875 47.359375 69.109375 
Q 53.90625 64.015625 53.90625 55.328125 
Q 53.90625 49.265625 50.4375 45.09375 
Q 46.96875 40.921875 40.578125 39.3125 
z
" id="DejaVuSans-51"/>
      </defs>
      <g transform="translate(231.705072 266.598437)scale(0.1 -0.1)">
       <use xlink:href="#DejaVuSans-49"/>
       <use x="63.623047" xlink:href="#DejaVuSans-51"/>
      </g>
     </g>
    </g>
    <g id="xtick_4">
     <g id="line2d_4">
      <g>
       <use style="stroke:#000000;stroke-width:0.8;" x="281.404781" xlink:href="#mc7429dae30" y="252"/>
      </g>
     </g>
     <g id="text_4">
      <!-- 14 -->
      <defs>
       <path d="M 37.796875 64.3125 
L 12.890625 25.390625 
L 37.796875 25.390625 
z
M 35.203125 72.90625 
L 47.609375 72.90625 
L 47.609375 25.390625 
L 58.015625 25.390625 
L 58.015625 17.1875 
L 47.609375 17.1875 
L 47.609375 0 
L 37.796875 0 
L 37.796875 17.1875 
L 4.890625 17.1875 
L 4.890625 26.703125 
z
" id="DejaVuSans-52"/>
      </defs>
      <g transform="translate(275.042281 266.598437)scale(0.1 -0.1)">
       <use xlink:href="#DejaVuSans-49"/>
       <use x="63.623047" xlink:href="#DejaVuSans-52"/>
      </g>
     </g>
    </g>
   </g>
   <g id="matplotlib.axis_2">
    <g id="ytick_1">
     <g id="line2d_5">
      <defs>
       <path d="M 0 0 
L -3.5 0 
" id="m08dc4d3940" style="stroke:#000000;stroke-width:0.8;"/>
      </defs>
      <g>
       <use style="stroke:#000000;stroke-width:0.8;" x="118.887584" xlink:href="#m08dc4d3940" y="232.092577"/>
      </g>
     </g>
     <g id="text_5">
      <!-- 51.5 -->
      <defs>
       <path d="M 10.796875 72.90625 
L 49.515625 72.90625 
L 49.515625 64.59375 
L 19.828125 64.59375 
L 19.828125 46.734375 
Q 21.96875 47.46875 24.109375 47.828125 
Q 26.265625 48.1875 28.421875 48.1875 
Q 40.625 48.1875 47.75 41.5 
Q 54.890625 34.8125 54.890625 23.390625 
Q 54.890625 11.625 47.5625 5.09375 
Q 40.234375 -1.421875 26.90625 -1.421875 
Q 22.3125 -1.421875 17.546875 -0.640625 
Q 12.796875 0.140625 7.71875 1.703125 
L 7.71875 11.625 
Q 12.109375 9.234375 16.796875 8.0625 
Q 21.484375 6.890625 26.703125 6.890625 
Q 35.15625 6.890625 40.078125 11.328125 
Q 45.015625 15.765625 45.015625 23.390625 
Q 45.015625 31 40.078125 35.4375 
Q 35.15625 39.890625 26.703125 39.890625 
Q 22.75 39.890625 18.8125 39.015625 
Q 14.890625 38.140625 10.796875 36.28125 
z
" id="DejaVuSans-53"/>
       <path d="M 10.6875 12.40625 
L 21 12.40625 
L 21 0 
L 10.6875 0 
z
" id="DejaVuSans-46"/>
      </defs>
      <g transform="translate(89.621959 235.891796)scale(0.1 -0.1)">
       <use xlink:href="#DejaVuSans-53"/>
       <use x="63.623047" xlink:href="#DejaVuSans-49"/>
       <use x="127.246094" xlink:href="#DejaVuSans-46"/>
       <use x="159.033203" xlink:href="#DejaVuSans-53"/>
      </g>
     </g>
    </g>
    <g id="ytick_2">
     <g id="line2d_6">
      <g>
       <use style="stroke:#000000;stroke-width:0.8;" x="118.887584" xlink:href="#m08dc4d3940" y="196.531093"/>
      </g>
     </g>
     <g id="text_6">
      <!-- 52.0 -->
      <defs>
       <path d="M 31.78125 66.40625 
Q 24.171875 66.40625 20.328125 58.90625 
Q 16.5 51.421875 16.5 36.375 
Q 16.5 21.390625 20.328125 13.890625 
Q 24.171875 6.390625 31.78125 6.390625 
Q 39.453125 6.390625 43.28125 13.890625 
Q 47.125 21.390625 47.125 36.375 
Q 47.125 51.421875 43.28125 58.90625 
Q 39.453125 66.40625 31.78125 66.40625 
z
M 31.78125 74.21875 
Q 44.046875 74.21875 50.515625 64.515625 
Q 56.984375 54.828125 56.984375 36.375 
Q 56.984375 17.96875 50.515625 8.265625 
Q 44.046875 -1.421875 31.78125 -1.421875 
Q 19.53125 -1.421875 13.0625 8.265625 
Q 6.59375 17.96875 6.59375 36.375 
Q 6.59375 54.828125 13.0625 64.515625 
Q 19.53125 74.21875 31.78125 74.21875 
z
" id="DejaVuSans-48"/>
      </defs>
      <g transform="translate(89.621959 200.330312)scale(0.1 -0.1)">
       <use xlink:href="#DejaVuSans-53"/>
       <use x="63.623047" xlink:href="#DejaVuSans-50"/>
       <use x="127.246094" xlink:href="#DejaVuSans-46"/>
       <use x="159.033203" xlink:href="#DejaVuSans-48"/>
      </g>
     </g>
    </g>
    <g id="ytick_3">
     <g id="line2d_7">
      <g>
       <use style="stroke:#000000;stroke-width:0.8;" x="118.887584" xlink:href="#m08dc4d3940" y="160.969609"/>
      </g>
     </g>
     <g id="text_7">
      <!-- 52.5 -->
      <g transform="translate(89.621959 164.768828)scale(0.1 -0.1)">
       <use xlink:href="#DejaVuSans-53"/>
       <use x="63.623047" xlink:href="#DejaVuSans-50"/>
       <use x="127.246094" xlink:href="#DejaVuSans-46"/>
       <use x="159.033203" xlink:href="#DejaVuSans-53"/>
      </g>
     </g>
    </g>
    <g id="ytick_4">
     <g id="line2d_8">
      <g>
       <use style="stroke:#000000;stroke-width:0.8;" x="118.887584" xlink:href="#m08dc4d3940" y="125.408125"/>
      </g>
     </g>
     <g id="text_8">
      <!-- 53.0 -->
      <g transform="translate(89.621959 129.207344)scale(0.1 -0.1)">
       <use xlink:href="#DejaVuSans-53"/>
       <use x="63.623047" xlink:href="#DejaVuSans-51"/>
       <use x="127.246094" xlink:href="#DejaVuSans-46"/>
       <use x="159.033203" xlink:href="#DejaVuSans-48"/>
      </g>
     </g>
    </g>
    <g id="ytick_5">
     <g id="line2d_9">
      <g>
       <use style="stroke:#000000;stroke-width:0.8;" x="118.887584" xlink:href="#m08dc4d3940" y="89.846641"/>
      </g>
     </g>
     <g id="text_9">
      <!-- 53.5 -->
      <g transform="translate(89.621959 93.64586)scale(0.1 -0.1)">
       <use xlink:href="#DejaVuSans-53"/>
       <use x="63.623047" xlink:href="#DejaVuSans-51"/>
       <use x="127.246094" xlink:href="#DejaVuSans-46"/>
       <use x="159.033203" xlink:href="#DejaVuSans-53"/>
      </g>
     </g>
    </g>
    <g id="ytick_6">
     <g id="line2d_10">
      <g>
       <use style="stroke:#000000;stroke-width:0.8;" x="118.887584" xlink:href="#m08dc4d3940" y="54.285157"/>
      </g>
     </g>
     <g id="text_10">
      <!-- 54.0 -->
      <g transform="translate(89.621959 58.084376)scale(0.1 -0.1)">
       <use xlink:href="#DejaVuSans-53"/>
       <use x="63.623047" xlink:href="#DejaVuSans-52"/>
       <use x="127.246094" xlink:href="#DejaVuSans-46"/>
       <use x="159.033203" xlink:href="#DejaVuSans-48"/>
      </g>
     </g>
    </g>
   </g>
   <g id="patch_3">
    <path d="M 118.887584 252 
L 118.887584 34.56 
" style="fill:none;stroke:#000000;stroke-linecap:square;stroke-linejoin:miter;stroke-width:0.8;"/>
   </g>
   <g id="patch_4">
    <path d="M 323.912416 252 
L 323.912416 34.56 
" style="fill:none;stroke:#000000;stroke-linecap:square;stroke-linejoin:miter;stroke-width:0.8;"/>
   </g>
   <g id="patch_5">
    <path d="M 118.887584 252 
L 323.912416 252 
" style="fill:none;stroke:#000000;stroke-linecap:square;stroke-linejoin:miter;stroke-width:0.8;"/>
   </g>
   <g id="patch_6">
    <path d="M 118.887584 34.56 
L 323.912416 34.56 
" style="fill:none;stroke:#000000;stroke-linecap:square;stroke-linejoin:miter;stroke-width:0.8;"/>
   </g>
  </g>
 </g>
 <defs>
  <clipPath id="p7cc0ee96a4">
   <rect height="217.44" width="205.024832" x="118.887584" y="34.56"/>
  </clipPath>
 </defs>
</svg>
