<?xml version="1.0" encoding="utf-8" standalone="no"?>
<!DOCTYPE svg PUBLIC "-//W3C//DTD SVG 1.1//EN"
  "http://www.w3.org/Graphics/SVG/1.1/DTD/svg11.dtd">
<!-- Created with matplotlib (https://matplotlib.org/) -->
<svg height="288pt" version="1.1" viewBox="0 0 432 288" width="432pt" xmlns="http://www.w3.org/2000/svg" xmlns:xlink="http://www.w3.org/1999/xlink">
 <defs>
  <style type="text/css">
*{stroke-linecap:butt;stroke-linejoin:round;}
  </style>
 </defs>
 <g id="figure_1">
  <g id="patch_1">
   <path d="M 0 288 
L 432 288 
L 432 0 
L 0 0 
z
" style="fill:#ffffff;"/>
  </g>
  <g id="axes_1">
   <g id="patch_2">
    <path d="M 54 248.516519 
L 388.8 248.516519 
L 388.8 38.043481 
L 54 38.043481 
z
" style="fill:#ffffff;"/>
   </g>
   <g id="PatchCollection_1">
    <path clip-path="url(#pe83d3145b9)" d="M 165.103209 163.067315 
L 255.416572 161.440843 
L 245.937336 159.991102 
L 235.03865 158.329773 
L 235.040066 158.326579 
L 235.0156 158.322843 
L 235.016469 158.320881 
L 234.995215 158.31763 
L 234.999085 158.308887 
L 234.902417 158.294081 
L 234.912786 158.270668 
L 234.877526 158.265258 
L 234.877811 158.264616 
L 201.993575 153.759458 
L 201.991182 153.764967 
L 201.961049 153.760855 
L 201.957882 153.768153 
L 201.929446 153.76426 
L 201.925514 153.773317 
L 201.881916 153.767334 
L 201.875204 153.782787 
L 174.894102 150.070142 
L 170.868884 149.528176 
L 165.501709 162.127888 
L 165.103209 163.067315 
" style="fill:none;stroke:#0000ff;stroke-opacity:0.2;"/>
   </g>
   <g id="PatchCollection_2">
    <path clip-path="url(#pe83d3145b9)" d="M 69.218182 85.620528 
L 69.489802 86.098383 
L 69.428148 86.553408 
L 69.376365 87.216495 
L 69.563606 87.529835 
L 69.856342 87.82705 
L 71.447986 88.860226 
L 73.475843 89.802298 
L 74.64125 90.955129 
L 75.494986 91.42867 
L 75.98479 91.505422 
L 76.918592 91.443638 
L 81.118679 89.931094 
L 85.40858 89.451874 
L 86.155733 89.645054 
L 87.037439 90.14173 
L 88.339312 91.036438 
L 90.01584 91.99067 
L 90.825551 92.156541 
L 91.973137 92.130632 
L 93.921233 91.71237 
L 94.162022 91.845088 
L 95.077847 92.593128 
L 96.13226 92.954668 
L 97.325436 93.176679 
L 98.053943 93.120879 
L 99.996794 92.625221 
L 101.006174 92.648503 
L 101.808649 92.998684 
L 101.890498 93.302101 
L 101.67514 93.570616 
L 100.556793 94.444973 
L 100.42658 94.744885 
L 100.519274 95.100371 
L 100.878065 95.420477 
L 101.429098 95.655717 
L 102.301933 95.78614 
L 103.194676 95.650386 
L 104.189444 95.408745 
L 104.785058 95.477418 
L 105.157478 95.691871 
L 105.586507 96.291156 
L 105.543474 97.022932 
L 105.57741 97.406458 
L 105.861424 97.828338 
L 106.253046 98.047654 
L 107.197137 98.193391 
L 108.254229 97.84308 
L 108.518605 97.655004 
L 109.997916 97.226993 
L 111.165871 97.38882 
L 112.049221 97.645855 
L 112.818821 98.120353 
L 113.237649 98.631796 
L 113.925513 99.297474 
L 114.824118 99.736523 
L 116.629424 99.905534 
L 118.435235 99.97138 
L 119.039268 100.139321 
L 119.771566 100.571282 
L 119.900875 100.841067 
L 119.876836 101.178132 
L 119.573871 101.564928 
L 119.056818 101.879677 
L 118.520623 102.128494 
L 117.951961 102.584554 
L 117.666452 103.084291 
L 117.821861 103.521269 
L 118.19088 103.856369 
L 118.808837 104.088948 
L 119.913085 104.1382 
L 121.861729 104.14661 
L 122.393697 104.386477 
L 123.332004 105.206381 
L 124.070521 105.490942 
L 125.301234 105.644768 
L 127.448059 105.779774 
L 128.525077 106.024859 
L 129.374803 106.610384 
L 129.518715 106.754148 
L 129.688517 106.69339 
L 129.64231 106.616577 
L 129.636178 106.538607 
L 129.68917 106.564081 
L 130.214641 106.723543 
L 130.982293 106.929334 
L 131.389945 107.011644 
L 131.954676 106.946085 
L 131.977158 106.76702 
L 132.200335 106.560211 
L 132.846705 106.505819 
L 133.544928 106.472065 
L 133.641066 106.027216 
L 133.729733 106.046619 
L 135.247512 105.844533 
L 135.534239 105.970015 
L 137.249261 106.072189 
L 137.284171 106.126676 
L 137.34192 106.097175 
L 137.896205 105.884905 
L 137.997327 105.940236 
L 138.819275 106.085226 
L 138.787139 106.134738 
L 138.921449 106.139583 
L 138.813839 106.340304 
L 138.870205 106.343165 
L 139.411332 106.241043 
L 139.767975 106.15529 
L 140.136698 106.496548 
L 140.27393 106.951712 
L 141.355888 106.89318 
L 142.040604 106.914471 
L 142.845601 107.035274 
L 143.338015 105.997776 
L 143.945518 105.425427 
L 143.944101 105.429897 
L 144.230932 105.491429 
L 143.901424 105.741898 
L 143.682804 106.000916 
L 143.504887 107.049572 
L 144.627103 107.910822 
L 143.815331 108.948233 
L 144.076297 108.977768 
L 144.325217 108.85907 
L 145.471586 108.59319 
L 148.051067 108.000403 
L 148.047075 107.993897 
L 149.485719 107.188021 
L 149.815827 106.88991 
L 150.214608 106.97322 
L 150.49409 107.534671 
L 150.959238 107.791628 
L 151.170118 107.89555 
L 151.14567 107.943776 
L 151.166761 107.977851 
L 151.205202 108.104655 
L 151.500156 108.27518 
L 151.769759 108.162195 
L 151.975046 107.893498 
L 152.700282 108.09341 
L 153.390712 108.497148 
L 153.353766 108.669151 
L 153.208429 109.217583 
L 153.333841 109.410694 
L 153.738388 109.927712 
L 153.695416 110.278111 
L 154.178028 111.584437 
L 154.238386 111.818546 
L 154.432941 112.021659 
L 154.562841 112.303185 
L 155.265525 112.977142 
L 155.464898 113.202102 
L 154.992757 113.31106 
L 155.285998 113.756866 
L 154.593333 114.003047 
L 154.596151 114.484242 
L 154.221105 114.822351 
L 153.989631 114.754748 
L 153.799181 114.679997 
L 153.465846 114.693138 
L 152.864414 114.516569 
L 152.267199 114.515256 
L 152.172557 114.519778 
L 152.251179 114.574631 
L 152.474556 114.76462 
L 152.375357 115.826591 
L 152.172488 115.909205 
L 151.767523 115.851126 
L 151.530822 115.957996 
L 151.534832 116.172624 
L 151.570829 116.383329 
L 151.543303 116.652957 
L 151.748764 116.786145 
L 151.653843 116.783336 
L 151.103359 116.822925 
L 150.938139 117.065723 
L 151.330945 117.75384 
L 152.048345 117.859058 
L 152.175923 118.052116 
L 152.197562 118.355324 
L 152.248883 118.449619 
L 152.193404 118.497009 
L 151.975576 118.538147 
L 152.33829 118.890511 
L 152.28742 118.918333 
L 152.073332 119.111479 
L 152.119766 119.169828 
L 151.997588 119.170871 
L 151.289321 119.290274 
L 151.074371 119.593517 
L 150.590967 119.805718 
L 150.52526 119.806657 
L 150.800098 119.896751 
L 150.963622 120.021094 
L 150.676208 120.098055 
L 150.726112 120.194054 
L 150.967153 120.158543 
L 150.800803 120.289139 
L 150.343308 120.479032 
L 150.242126 120.557333 
L 150.221592 120.764629 
L 150.358467 120.829674 
L 150.952298 120.636964 
L 151.278049 120.797843 
L 151.352662 120.953069 
L 151.004568 121.060557 
L 150.836131 121.162131 
L 150.85743 121.205634 
L 150.985782 121.351119 
L 151.37343 121.540804 
L 151.929638 121.638586 
L 152.010252 121.778244 
L 152.335742 121.919903 
L 152.520355 122.1053 
L 152.50157 122.128869 
L 151.934526 122.356794 
L 152.074628 122.813341 
L 152.419077 123.345197 
L 152.903777 123.303712 
L 153.230389 123.245623 
L 153.225527 123.437717 
L 153.039609 123.590682 
L 152.782052 123.850439 
L 153.003359 123.949665 
L 153.455801 124.039228 
L 153.498591 124.210457 
L 153.497634 124.432729 
L 153.842258 124.8504 
L 153.723664 125.399128 
L 153.51609 125.323219 
L 153.455131 125.448875 
L 153.560071 125.486525 
L 153.722446 125.599997 
L 153.359359 125.835332 
L 153.482353 126.157491 
L 153.485624 126.283495 
L 153.272544 126.357369 
L 153.495086 126.818082 
L 153.717889 127.110218 
L 153.616533 127.431133 
L 153.140034 127.550928 
L 153.13239 128.433486 
L 153.636258 128.433364 
L 153.629848 128.528485 
L 151.51021 128.856219 
L 150.976641 129.072142 
L 150.69021 129.406947 
L 149.697842 129.280169 
L 147.5542 128.635207 
L 147.623229 129.626923 
L 148.28315 129.496719 
L 148.121748 129.598805 
L 147.854251 130.085218 
L 147.892101 130.40155 
L 148.312259 130.435182 
L 148.13542 131.280412 
L 148.154589 131.882601 
L 148.213747 132.832432 
L 148.51512 133.110958 
L 148.822293 133.1791 
L 148.71998 133.255739 
L 147.123727 134.229982 
L 146.885756 134.434495 
L 146.652725 134.835111 
L 146.598916 135.048634 
L 146.436541 135.404034 
L 146.03309 136.20717 
L 145.498312 136.64113 
L 145.578639 136.681137 
L 145.647537 136.824849 
L 145.400139 137.260931 
L 145.64919 137.145807 
L 146.602656 137.008749 
L 146.821284 136.720927 
L 148.152997 136.357682 
L 148.76344 136.777301 
L 149.052237 136.819787 
L 149.450252 136.918169 
L 149.362202 137.009715 
L 149.252705 137.238875 
L 149.087034 137.423802 
L 148.727138 137.563713 
L 147.715419 138.310074 
L 147.570142 138.442749 
L 147.757182 138.849601 
L 147.700164 138.880415 
L 147.99871 139.239528 
L 148.975171 139.926401 
L 149.181467 140.059136 
L 149.535197 139.813947 
L 150.322991 139.931697 
L 150.567198 139.930932 
L 150.962369 139.845804 
L 151.225936 139.594692 
L 151.493903 139.409348 
L 151.5024 139.447154 
L 151.72075 139.574628 
L 152.322731 139.700832 
L 152.479662 139.428638 
L 152.851368 139.175526 
L 152.83807 139.161193 
L 152.525026 138.686564 
L 152.692515 138.565605 
L 153.172257 138.326225 
L 153.281398 138.052805 
L 153.222579 137.737421 
L 153.566611 137.644648 
L 154.145135 137.812364 
L 154.414712 137.975478 
L 154.5248 138.093333 
L 155.399035 138.100674 
L 155.549548 138.371641 
L 155.493929 138.565839 
L 155.461098 138.770944 
L 155.627535 139.136075 
L 155.625874 139.359461 
L 155.961504 139.456069 
L 156.52333 139.641526 
L 156.39356 139.721322 
L 155.828464 140.132123 
L 156.017305 140.16318 
L 156.533923 140.310831 
L 156.865423 140.780754 
L 157.381789 140.758446 
L 157.500139 140.655672 
L 157.672908 140.602489 
L 157.917001 140.361788 
L 158.657353 140.368389 
L 158.887609 140.071669 
L 159.229972 140.14863 
L 160.077124 140.514553 
L 161.479049 140.035819 
L 161.75453 140.043821 
L 161.74479 140.117738 
L 161.659297 140.382469 
L 161.374449 140.463501 
L 161.213143 140.430982 
L 160.582349 140.502985 
L 160.277819 140.574302 
L 160.007999 141.192076 
L 159.915401 141.600102 
L 160.935861 141.822714 
L 161.314125 141.680437 
L 161.556732 141.504599 
L 161.804217 141.610434 
L 161.327006 142.156814 
L 161.296661 142.525094 
L 161.321796 142.833633 
L 161.177972 142.9219 
L 160.439264 143.171664 
L 160.447561 143.327395 
L 160.634958 143.564113 
L 160.515425 143.869757 
L 159.918175 143.908781 
L 159.499113 143.9971 
L 159.528805 144.161276 
L 159.54473 144.279417 
L 159.363681 144.43787 
L 159.454923 144.432556 
L 159.778334 144.60556 
L 159.697677 144.656081 
L 159.318891 145.153348 
L 159.30555 145.458017 
L 159.049463 145.553807 
L 158.185829 145.750267 
L 158.272792 145.828602 
L 158.890288 146.339341 
L 158.769381 146.357944 
L 158.201058 146.536426 
L 156.927512 147.121065 
L 157.069858 147.387823 
L 158.110625 147.678272 
L 158.731853 147.751867 
L 159.169196 147.72054 
L 159.29874 148.026436 
L 159.32851 148.455204 
L 159.401557 148.677859 
L 159.13499 148.874327 
L 158.737053 149.106932 
L 158.507145 149.688535 
L 158.648291 150.054919 
L 159.315673 150.234167 
L 159.696799 150.356283 
L 159.434815 150.648793 
L 159.187965 150.930528 
L 158.193735 151.026301 
L 157.840971 151.178448 
L 157.740458 151.347738 
L 157.831717 151.58043 
L 158.457423 152.068165 
L 158.810014 152.376321 
L 158.987557 152.492863 
L 158.942288 152.687009 
L 159.483693 152.969805 
L 159.830256 153.233441 
L 159.053681 154.023088 
L 158.170227 155.156715 
L 157.763288 155.257793 
L 156.924042 156.38561 
L 156.447187 157.016839 
L 155.904608 157.575107 
L 155.911887 157.709548 
L 154.942305 159.260315 
L 154.85963 159.720524 
L 154.884417 160.076088 
L 154.938644 160.145978 
L 154.916431 160.166486 
L 154.843158 160.234324 
L 154.94775 160.278427 
L 155.176641 160.455927 
L 155.122475 160.512667 
L 154.511685 161.255932 
L 154.378905 161.475621 
L 155.317369 161.553034 
L 155.207316 161.641067 
L 155.168213 161.663671 
L 155.311098 161.68103 
L 155.844989 161.756434 
L 155.470291 162.051128 
L 155.549921 162.070418 
L 156.097797 162.132054 
L 156.130707 162.052937 
L 156.59155 162.167495 
L 156.343473 162.215512 
L 156.331228 162.26866 
L 156.434115 162.283184 
L 156.983895 162.56057 
L 156.976224 162.580122 
L 157.011761 162.612023 
L 156.910152 162.644559 
L 155.847198 162.69388 
L 155.805574 162.721146 
L 155.852094 162.799672 
L 156.039422 162.83747 
L 156.217278 162.834069 
L 156.397126 162.751029 
L 157.898555 162.921954 
L 157.891397 162.9641 
L 157.902694 163.108455 
L 157.975846 163.09373 
L 158.155572 163.254436 
L 158.24163 163.239494 
L 158.254911 163.205567 
L 158.877973 163.2982 
L 158.754352 163.343712 
L 158.501657 163.541485 
L 157.671203 164.148144 
L 157.577431 164.217112 
L 157.660245 164.225296 
L 157.488876 164.35057 
L 157.151463 164.363859 
L 156.117096 164.441846 
L 155.538693 164.424774 
L 154.460858 165.025763 
L 154.537515 165.21549 
L 154.984286 165.305253 
L 155.077407 165.302122 
L 155.050332 165.40547 
L 154.700351 165.864618 
L 154.568198 165.990013 
L 154.059895 166.201779 
L 154.076637 166.205137 
L 154.305519 167.018527 
L 154.56645 167.229536 
L 154.4981 167.250523 
L 153.895467 167.338303 
L 152.887009 167.009221 
L 151.824855 168.370469 
L 152.286472 168.785174 
L 153.358689 169.047767 
L 153.186329 169.736179 
L 153.216369 169.737466 
L 154.053676 170.698229 
L 154.255676 171.005542 
L 154.817032 171.336102 
L 156.085473 171.84952 
L 156.142544 172.162617 
L 156.386768 172.42887 
L 156.468921 172.904038 
L 156.793202 173.754034 
L 156.980851 173.985891 
L 157.135521 174.187899 
L 157.807583 174.18189 
L 158.741002 174.62313 
L 159.462411 174.897489 
L 160.493864 175.157699 
L 160.891062 175.909704 
L 161.088618 176.163487 
L 161.506836 176.875755 
L 161.970654 177.416777 
L 162.275436 177.566533 
L 163.386477 178.128968 
L 164.222149 179.096036 
L 164.574783 179.178859 
L 166.911918 179.41496 
L 167.722238 180.14938 
L 167.932152 180.234681 
L 168.831922 180.77279 
L 169.683162 180.991062 
L 170.275854 181.561063 
L 170.870155 181.734571 
L 172.098616 181.771438 
L 172.192614 181.692824 
L 172.291222 181.481415 
L 172.391909 180.945646 
L 173.213779 180.186021 
L 174.40619 180.248475 
L 174.844794 180.321279 
L 174.890324 180.786975 
L 175.240053 181.720603 
L 175.605828 181.89265 
L 176.427237 182.413895 
L 177.237105 182.596386 
L 178.345414 182.747734 
L 179.636103 182.951864 
L 179.581415 183.139131 
L 179.833815 183.521404 
L 180.020029 184.080899 
L 179.876196 184.299119 
L 180.006566 184.516834 
L 183.617422 184.697256 
L 185.491896 184.820659 
L 186.541231 184.743411 
L 186.490805 184.602083 
L 186.448119 184.480532 
L 186.593065 184.46873 
L 186.433343 183.928308 
L 186.5124 183.916306 
L 188.327577 183.746816 
L 189.114632 183.579927 
L 189.246776 183.114092 
L 189.722179 182.321505 
L 190.054531 182.08957 
L 191.157509 182.070697 
L 191.591348 182.247223 
L 192.377429 182.910805 
L 193.069877 182.967162 
L 193.911829 182.996072 
L 194.929871 183.228902 
L 194.831872 183.397435 
L 195.254796 183.613872 
L 196.981228 184.22962 
L 197.134193 184.129281 
L 197.921944 184.212591 
L 198.579438 184.358938 
L 198.878402 184.477288 
L 199.219772 184.814067 
L 199.551029 184.963257 
L 200.486448 185.229146 
L 200.589153 185.310369 
L 200.535222 186.256181 
L 202.281422 186.491012 
L 204.00401 186.448022 
L 204.970409 186.248302 
L 206.087737 186.044276 
L 206.470176 186.032969 
L 206.836769 186.755996 
L 206.988464 186.854839 
L 207.168643 188.661885 
L 207.183349 188.849551 
L 207.209136 188.853691 
L 209.848697 188.933079 
L 210.336702 188.874625 
L 210.34052 188.917172 
L 210.491432 189.442365 
L 211.952558 189.328694 
L 212.608617 189.186052 
L 212.784882 188.483255 
L 213.541967 188.571922 
L 214.477691 188.669669 
L 215.86003 188.840263 
L 216.583231 188.865519 
L 216.565776 188.960675 
L 216.204514 189.927395 
L 216.265751 189.932118 
L 217.965396 190.173898 
L 217.664058 191.816794 
L 218.768967 191.560672 
L 219.654169 191.591443 
L 221.433819 191.835701 
L 221.912743 192.196197 
L 221.912952 191.986823 
L 221.978659 191.619256 
L 223.972936 191.917037 
L 224.009369 192.11174 
L 224.200697 192.622818 
L 223.261972 192.700831 
L 223.357493 193.511942 
L 223.267373 193.622248 
L 222.346852 193.551819 
L 222.419725 193.781275 
L 222.752843 193.914289 
L 223.437733 194.435369 
L 224.057394 194.485542 
L 226.687284 194.636081 
L 226.99885 194.742029 
L 227.010573 194.683976 
L 227.24036 194.319566 
L 227.370443 194.326263 
L 227.444482 194.190223 
L 228.831821 194.188779 
L 229.543012 194.107852 
L 229.891062 194.089414 
L 229.898028 193.943242 
L 230.35294 193.823273 
L 230.438059 193.372049 
L 231.517799 193.427911 
L 231.499978 193.677884 
L 232.075224 193.679136 
L 232.183929 193.972881 
L 232.461602 194.104921 
L 232.475083 194.276402 
L 233.008695 194.306103 
L 233.164374 195.034879 
L 233.057999 195.425571 
L 230.73738 195.740233 
L 230.912966 196.22482 
L 231.563424 197.21437 
L 231.625121 197.315466 
L 231.845437 197.783823 
L 232.141635 198.025934 
L 232.126346 198.110922 
L 232.40441 198.168524 
L 232.322248 198.376637 
L 232.188339 198.463808 
L 232.626917 198.888454 
L 232.970758 198.867738 
L 233.025081 198.928261 
L 232.82636 199.052517 
L 232.89885 199.11785 
L 233.385124 199.328564 
L 233.873433 199.949104 
L 234.090009 200.212444 
L 234.17925 200.406399 
L 233.981704 200.858301 
L 233.773103 200.814746 
L 233.802021 200.834176 
L 234.227276 201.26097 
L 234.040809 201.441583 
L 233.921641 201.645731 
L 234.837649 201.721787 
L 234.740902 202.096929 
L 233.875538 202.094903 
L 233.867276 202.237231 
L 234.024224 202.334865 
L 233.945315 202.734402 
L 233.595369 203.019372 
L 232.943693 203.410508 
L 232.818846 203.511091 
L 232.946032 203.534947 
L 233.539029 203.704976 
L 233.366704 203.736511 
L 233.006573 204.137788 
L 234.246001 204.642013 
L 234.114196 204.903014 
L 233.609188 205.094681 
L 233.587489 205.207387 
L 233.761884 205.362187 
L 233.68568 205.370249 
L 233.676261 205.310161 
L 233.50818 205.319667 
L 233.505292 205.352594 
L 233.467121 205.437209 
L 233.287569 205.457525 
L 233.58835 205.52885 
L 234.510428 205.823744 
L 234.614742 206.099834 
L 234.609306 206.234257 
L 234.695642 206.224151 
L 235.026794 206.312496 
L 235.253145 206.372602 
L 235.402823 206.476681 
L 235.617181 206.72087 
L 236.177128 207.418553 
L 236.019467 207.408291 
L 236.045819 207.60996 
L 236.259916 207.933102 
L 236.244966 207.933102 
L 235.384368 207.817595 
L 235.234412 207.719683 
L 234.859331 207.780771 
L 234.572891 207.727728 
L 234.786205 208.104913 
L 234.915888 208.291623 
L 234.705279 208.590744 
L 234.28319 208.339492 
L 234.096488 208.177308 
L 233.416564 208.386979 
L 233.638672 208.915442 
L 233.968258 209.383904 
L 234.013048 209.726962 
L 233.611476 209.754184 
L 233.631036 209.777406 
L 234.127659 210.01829 
L 233.92305 210.117768 
L 233.474696 210.26648 
L 233.427262 210.480455 
L 224.432145 213.855967 
L 224.528309 213.94967 
L 227.28175 216.919782 
L 227.52286 217.285645 
L 228.211481 217.495541 
L 228.572317 217.320703 
L 228.464951 217.238906 
L 228.417395 217.182688 
L 228.871915 217.06866 
L 229.035987 217.189228 
L 229.14991 217.158832 
L 228.991553 216.960355 
L 228.658166 217.032636 
L 228.640267 216.772062 
L 228.460324 216.586291 
L 229.058973 216.566296 
L 229.299596 216.985002 
L 229.725764 216.887281 
L 229.633671 216.708825 
L 229.995906 216.629907 
L 230.06303 216.448833 
L 230.389147 216.383744 
L 230.324883 216.273829 
L 230.48972 216.236771 
L 230.478223 216.313793 
L 230.843311 216.746562 
L 231.356998 217.187584 
L 231.658518 217.444376 
L 232.528066 218.080936 
L 232.512159 218.222247 
L 233.502701 218.060402 
L 234.064553 218.686439 
L 233.427149 218.963155 
L 233.438899 219.333348 
L 233.204555 219.668153 
L 232.580466 220.201322 
L 232.305245 220.482987 
L 232.374988 220.509861 
L 232.407254 220.779176 
L 232.786927 221.154762 
L 233.73781 221.106058 
L 234.021832 221.586078 
L 236.145445 221.649106 
L 236.595225 223.316589 
L 237.388864 224.327526 
L 237.613833 224.51194 
L 238.100202 224.581239 
L 237.998742 225.329861 
L 238.114779 225.674911 
L 238.068867 225.964691 
L 238.014292 226.270238 
L 237.578749 226.338276 
L 237.747803 226.805903 
L 237.536272 226.864774 
L 237.578879 226.951006 
L 237.62887 227.006963 
L 237.563807 227.040386 
L 237.106486 227.217947 
L 237.199971 227.315372 
L 237.535811 227.402195 
L 237.029969 227.712944 
L 236.673726 227.683147 
L 236.384268 227.415615 
L 235.953221 227.388045 
L 235.858518 227.394751 
L 235.978599 227.45964 
L 236.250706 227.78059 
L 236.241409 228.108698 
L 235.858205 228.938056 
L 235.89021 229.187542 
L 236.130312 229.477904 
L 236.717724 229.873319 
L 237.729061 230.435684 
L 237.686115 230.901189 
L 237.40064 231.269477 
L 236.711332 231.845688 
L 236.664646 232.150314 
L 236.532989 232.082572 
L 236.255846 232.031181 
L 235.563233 232.335728 
L 235.208277 232.612792 
L 235.181846 232.999249 
L 235.303241 233.075949 
L 236.249993 233.228662 
L 236.466656 233.035412 
L 236.328041 232.791222 
L 236.250558 232.710348 
L 236.405776 232.45086 
L 236.566907 232.390502 
L 236.791693 232.250844 
L 237.598848 232.678777 
L 237.725374 232.950528 
L 237.72573 233.176801 
L 237.524348 233.799881 
L 237.752013 234.204601 
L 238.5211 235.512754 
L 238.727891 235.74668 
L 239.102946 235.836243 
L 240.939162 235.874754 
L 241.435125 235.954846 
L 241.359607 235.89314 
L 241.823486 235.930181 
L 241.834618 236.05014 
L 242.434172 236.150558 
L 242.888736 236.468629 
L 242.937649 236.714097 
L 243.37454 236.729995 
L 243.515451 236.179754 
L 242.957496 236.179388 
L 242.938658 235.860073 
L 242.549801 235.712214 
L 242.637476 235.264572 
L 242.766603 235.322547 
L 243.895168 235.410171 
L 244.919646 235.450474 
L 244.916132 235.402744 
L 244.847547 234.451948 
L 246.170867 234.073666 
L 247.009888 233.741949 
L 247.076647 233.669111 
L 247.085892 233.44636 
L 248.590234 233.043865 
L 248.409542 232.63837 
L 248.188948 232.365437 
L 247.91051 232.137981 
L 248.082322 232.150053 
L 248.993189 232.147409 
L 249.079995 232.522873 
L 249.241814 232.710722 
L 249.404442 232.858869 
L 250.165832 232.596476 
L 250.397071 232.560601 
L 251.09265 232.566845 
L 251.131143 232.437423 
L 252.450393 232.991961 
L 252.941876 233.188838 
L 253.292144 233.0186 
L 253.269775 232.996336 
L 252.757723 232.330449 
L 252.615091 232.224222 
L 252.505498 232.108194 
L 252.563464 232.067735 
L 252.66823 232.045713 
L 252.863872 232.196748 
L 253.329864 232.129041 
L 253.567156 231.888809 
L 253.808302 231.59161 
L 253.809771 231.310902 
L 253.758919 231.229297 
L 254.837415 230.799085 
L 254.979152 230.680725 
L 254.992529 230.686839 
L 255.612295 231.06853 
L 255.288683 231.39215 
L 255.822087 231.79561 
L 255.790934 231.839252 
L 255.762207 231.872327 
L 255.966494 231.945836 
L 256.574084 232.043383 
L 256.875022 232.456922 
L 257.161436 232.508244 
L 257.309696 232.625907 
L 257.262427 232.675168 
L 257.171437 232.765392 
L 257.276429 232.782934 
L 257.36247 232.991126 
L 257.192058 233.063077 
L 256.805714 233.219104 
L 256.801705 233.317738 
L 256.708837 233.408284 
L 256.72831 233.455709 
L 256.699148 233.513493 
L 257.376472 233.395194 
L 257.536925 233.179001 
L 257.738307 232.974671 
L 258.763603 233.125966 
L 258.684677 232.995631 
L 258.650132 232.780803 
L 258.77791 232.705025 
L 258.856697 232.804103 
L 259.04926 232.922558 
L 259.171194 233.155206 
L 259.291345 233.438724 
L 259.841603 233.441576 
L 260.277869 233.350004 
L 260.402646 233.024853 
L 261.391405 233.778651 
L 261.113671 233.688453 
L 260.495097 233.483053 
L 260.495706 233.594193 
L 260.455447 233.941513 
L 260.253708 234.034738 
L 260.272676 234.327013 
L 260.587808 234.403974 
L 261.135388 234.515802 
L 261.646101 234.503539 
L 262.880823 234.791196 
L 263.157018 235.1186 
L 264.272946 235.047631 
L 265.328899 235.167791 
L 265.627393 236.897745 
L 265.519845 237.047727 
L 266.805393 237.067704 
L 266.788251 237.385593 
L 267.191754 238.050158 
L 267.500459 238.065691 
L 267.927644 237.192499 
L 268.508621 237.153545 
L 269.609121 236.636588 
L 270.865917 236.738362 
L 271.321838 236.760531 
L 271.11662 236.956633 
L 271.49351 237.353788 
L 271.419854 237.573103 
L 271.800649 237.618841 
L 271.690483 238.044861 
L 271.790482 238.060081 
L 272.988686 238.0412 
L 273.331909 238.001367 
L 277.737395 237.987765 
L 278.328443 237.579095 
L 279.391172 238.195844 
L 280.113529 237.651725 
L 280.886338 238.11783 
L 281.824802 238.495407 
L 282.567249 238.564358 
L 283.505852 238.523325 
L 284.658065 238.722872 
L 284.866196 238.56575 
L 284.989565 238.519359 
L 285.377874 238.289738 
L 285.469098 238.087686 
L 285.744501 237.844367 
L 286.906055 238.026511 
L 286.903794 238.032172 
L 286.752029 238.202123 
L 286.508379 238.291347 
L 286.508205 238.38892 
L 286.289681 238.431362 
L 286.419172 238.945649 
L 286.481609 238.875646 
L 286.706995 238.661975 
L 287.236746 238.784065 
L 287.56154 238.710757 
L 287.562227 238.523264 
L 288.231706 237.981494 
L 290.392011 237.785113 
L 291.301148 238.044035 
L 292.144813 237.501665 
L 292.811004 237.243926 
L 292.634279 236.96527 
L 292.519164 236.864774 
L 292.549777 236.821297 
L 292.594559 236.802425 
L 293.362054 236.936778 
L 295.086356 236.979542 
L 295.128971 237.186246 
L 295.166708 237.131811 
L 295.228797 237.221731 
L 295.216099 237.252945 
L 295.346974 237.323556 
L 295.528022 237.343125 
L 295.596294 237.433393 
L 296.148214 237.491124 
L 297.240069 237.445377 
L 298.206954 237.396578 
L 298.200693 237.420147 
L 298.318608 237.420495 
L 298.84401 237.273174 
L 299.118448 237.254214 
L 299.108968 237.193865 
L 299.008264 236.882977 
L 301.336216 236.33658 
L 301.458915 236.344573 
L 301.744659 236.333963 
L 302.991105 235.644872 
L 303.533284 235.645211 
L 303.771298 235.716519 
L 304.00165 235.841914 
L 304.575235 235.960351 
L 304.567416 236.574125 
L 304.436037 237.206511 
L 304.409006 237.502787 
L 305.176328 237.598264 
L 306.698456 237.769476 
L 307.029677 237.777825 
L 306.967066 237.69982 
L 306.747742 236.988474 
L 306.655561 236.796728 
L 306.784253 236.660714 
L 307.575648 236.26295 
L 307.688432 236.086068 
L 307.607123 236.090069 
L 307.306942 235.777529 
L 308.299388 235.554291 
L 309.423674 235.714205 
L 309.217144 235.245047 
L 308.455554 235.219226 
L 308.361025 234.998867 
L 308.560685 234.873811 
L 308.766598 234.689718 
L 309.366169 234.658139 
L 310.198789 233.918057 
L 310.879495 233.730469 
L 310.847638 233.600916 
L 310.712102 233.239655 
L 310.506128 233.121148 
L 310.315269 232.917992 
L 311.021024 232.943248 
L 310.754413 232.494355 
L 310.185091 232.385571 
L 310.253789 232.330779 
L 311.190052 231.854046 
L 312.421113 231.438967 
L 311.54413 230.91286 
L 311.718986 230.411358 
L 311.804461 230.128206 
L 311.453836 229.909847 
L 310.319626 229.246343 
L 310.026481 229.107641 
L 309.825612 228.8662 
L 310.336821 228.428213 
L 313.38499 229.103693 
L 313.619865 229.006815 
L 314.517295 228.644989 
L 314.713702 228.526082 
L 314.165505 228.134589 
L 313.961062 227.875102 
L 313.423823 227.434905 
L 313.396861 227.369164 
L 313.928004 227.282627 
L 314.633837 227.164529 
L 315.164535 226.821114 
L 315.420979 226.749459 
L 315.422788 226.316472 
L 315.654262 226.029502 
L 316.009035 225.146665 
L 316.49043 224.776724 
L 316.898525 224.761156 
L 317.47097 224.72862 
L 318.346988 224.777054 
L 318.725522 224.850702 
L 319.05256 224.640692 
L 319.353707 224.69478 
L 318.319749 223.925788 
L 318.259565 223.614205 
L 318.413652 223.334879 
L 319.144784 222.86146 
L 319.496792 222.892326 
L 319.961505 223.10164 
L 320.382899 223.147717 
L 323.206612 223.207779 
L 323.262613 223.191525 
L 323.806375 223.333523 
L 326.026943 223.358109 
L 326.249381 223.448986 
L 326.605659 223.624468 
L 326.694091 223.642732 
L 326.620009 223.678903 
L 327.057066 223.837869 
L 328.219002 223.882642 
L 328.1837 223.961255 
L 328.297789 223.999079 
L 328.267793 224.046217 
L 328.061349 224.05648 
L 328.065176 224.181527 
L 329.009945 224.098261 
L 329.022277 223.916221 
L 329.788572 223.886303 
L 331.255265 224.052271 
L 331.539869 224.123178 
L 332.088902 224.273386 
L 332.510147 224.516184 
L 334.646762 224.880115 
L 335.174651 225.178148 
L 335.320867 225.511953 
L 335.434139 226.051549 
L 335.74894 226.177622 
L 335.942138 226.243921 
L 336.197816 226.15027 
L 336.396528 226.163568 
L 336.64931 225.932581 
L 336.733289 225.768423 
L 336.637047 225.590218 
L 336.7174 225.558048 
L 336.816086 225.147326 
L 336.512426 225.145326 
L 336.539987 225.045491 
L 336.593553 224.861399 
L 338.060497 224.729325 
L 338.245494 224.597972 
L 338.629498 224.464219 
L 338.768713 224.31395 
L 340.321881 223.713083 
L 340.591387 223.751367 
L 340.563774 223.715587 
L 340.587996 223.544037 
L 340.674471 223.34649 
L 340.615939 223.100996 
L 340.702815 223.07647 
L 342.228326 223.303074 
L 342.591205 223.458648 
L 342.955041 223.2782 
L 345.450038 222.836395 
L 345.935172 223.014025 
L 345.890304 222.873105 
L 345.923848 222.007837 
L 346.406809 221.817735 
L 347.350177 221.724893 
L 347.281783 221.842252 
L 347.470493 221.871527 
L 347.570354 221.712195 
L 350.446885 221.535374 
L 350.505956 221.59281 
L 350.847753 221.6597 
L 351.045474 221.735573 
L 351.221782 221.622754 
L 351.883468 221.985433 
L 353.2481 221.554099 
L 354.281492 221.365189 
L 354.6114 221.153483 
L 354.329579 220.289867 
L 354.947631 220.435014 
L 355.573607 220.355339 
L 355.800724 220.243216 
L 355.975562 220.053862 
L 356.225952 219.845244 
L 356.302879 219.664465 
L 356.527604 219.628694 
L 357.596341 219.801871 
L 357.847375 220.236128 
L 358.638866 220.27089 
L 358.981098 220.438049 
L 359.071496 220.577177 
L 359.144039 220.811208 
L 359.635974 221.823284 
L 359.56211 221.855246 
L 359.47773 221.899601 
L 359.591028 221.941869 
L 359.8659 222.093512 
L 360.372734 222.385788 
L 361.069913 222.309244 
L 361.932912 222.255444 
L 362.441302 222.025579 
L 362.505139 221.962516 
L 363.53788 221.972692 
L 365.048866 222.094078 
L 365.688105 222.23738 
L 366.140634 222.060933 
L 366.960478 221.413962 
L 367.255728 220.701798 
L 367.546029 220.154514 
L 367.230384 220.054271 
L 367.599708 220.063464 
L 367.987913 220.108689 
L 368.142722 220.119273 
L 368.326266 220.018117 
L 368.443399 219.999487 
L 368.340164 219.932111 
L 368.216056 219.499907 
L 368.081016 219.429434 
L 367.716815 218.865208 
L 367.690697 218.570567 
L 367.55617 218.282153 
L 367.645324 218.277874 
L 368.400713 218.241459 
L 368.654261 218.284588 
L 369.12147 218.607704 
L 369.667389 219.082688 
L 369.720163 219.225852 
L 370.457714 219.580129 
L 370.535388 219.350777 
L 371.856421 218.476916 
L 372.481284 218.266507 
L 372.607131 218.000548 
L 373.154876 217.790513 
L 373.30151 217.529773 
L 373.542594 217.180061 
L 373.545464 216.914625 
L 373.43101 216.550041 
L 373.36239 216.320872 
L 373.097901 216.078118 
L 372.509028 215.602489 
L 372.533553 215.467771 
L 372.743241 215.107884 
L 372.700364 214.126152 
L 372.686971 213.963951 
L 372.290964 213.482678 
L 372.339747 213.337931 
L 372.696816 213.046212 
L 372.855591 212.630203 
L 372.451426 212.288501 
L 372.383067 211.991233 
L 372.086591 211.776919 
L 371.903986 211.364144 
L 371.134316 211.168129 
L 371.061669 210.972121 
L 371.283541 210.698205 
L 371.146101 210.396319 
L 370.808383 210.26608 
L 370.454966 210.317202 
L 369.956247 210.109062 
L 367.965309 208.876279 
L 366.859887 208.413931 
L 366.694024 208.181518 
L 366.108838 207.735651 
L 365.779034 207.243967 
L 365.088856 207.049108 
L 364.795737 206.556425 
L 364.376126 205.96075 
L 364.048236 205.716369 
L 364.140512 205.544949 
L 364.317221 205.224007 
L 364.311333 204.954144 
L 364.148366 204.659981 
L 364.313298 204.560321 
L 364.68243 204.44364 
L 364.68243 204.266193 
L 364.242617 204.137371 
L 363.561779 203.934493 
L 363.574129 203.736111 
L 363.81791 203.52051 
L 363.918101 203.347437 
L 363.938626 203.005292 
L 363.913665 202.665147 
L 363.837043 202.099051 
L 363.785235 201.919551 
L 363.378696 201.643139 
L 362.972262 200.907197 
L 362.212411 200.657059 
L 361.955194 200.464 
L 360.478683 200.371723 
L 360.325535 200.25152 
L 359.657961 200.209035 
L 359.224044 199.785337 
L 359.226 199.498854 
L 358.752816 198.998769 
L 358.324778 198.822782 
L 358.351417 198.636959 
L 358.294477 198.42094 
L 358.274848 198.243771 
L 358.547764 197.900374 
L 358.429961 197.582476 
L 358.427996 197.42718 
L 358.325891 197.256117 
L 358.916896 196.933427 
L 359.549125 197.133591 
L 359.676746 196.892185 
L 359.441133 196.510086 
L 359.59428 196.417905 
L 359.886834 196.47127 
L 360.05962 196.709015 
L 360.246147 196.643517 
L 360.214733 196.460355 
L 359.822041 195.967942 
L 360.075327 195.705984 
L 360.220621 195.593208 
L 361.353753 195.512986 
L 362.564976 194.857188 
L 362.977306 194.756562 
L 363.546707 194.229203 
L 363.756795 194.093432 
L 363.764649 193.714037 
L 363.862822 193.572222 
L 363.929572 193.312856 
L 364.151445 193.166214 
L 364.54806 193.02806 
L 364.732621 192.702083 
L 365.034995 192.729949 
L 365.675077 192.79296 
L 365.684896 192.664512 
L 365.571016 192.436708 
L 365.914622 192.338569 
L 366.301418 192.25739 
L 366.745163 191.973873 
L 367.377392 191.678275 
L 367.29296 191.480815 
L 367.076984 191.227642 
L 367.361685 190.944202 
L 367.750446 190.749204 
L 367.899663 190.497292 
L 368.125467 190.015306 
L 368.33752 189.845781 
L 368.231493 189.116901 
L 368.692902 188.758562 
L 369.03983 188.657554 
L 369.558779 188.167862 
L 369.509693 187.934274 
L 369.62506 187.238835 
L 369.36833 187.018189 
L 369.030611 186.90203 
L 368.488702 185.909983 
L 368.312081 185.135113 
L 368.533953 184.971241 
L 369.081751 184.873886 
L 369.330132 184.580027 
L 369.385106 184.181603 
L 369.614832 183.957922 
L 369.713562 183.543538 
L 369.356345 183.117014 
L 369.072914 182.941845 
L 369.175019 182.764171 
L 370.116491 182.306711 
L 370.22811 181.966654 
L 370.594642 181.776099 
L 371.098614 181.377093 
L 371.46792 181.157534 
L 371.437376 180.981547 
L 371.355467 180.705622 
L 371.5776 180.592873 
L 372.069083 180.429723 
L 372.060751 179.847233 
L 372.194035 179.463794 
L 372.009386 179.274223 
L 371.848333 179.112839 
L 371.890236 178.707518 
L 371.860839 178.423035 
L 372.281258 178.197345 
L 372.872054 177.878073 
L 372.973376 177.421126 
L 372.788597 177.218657 
L 372.090365 176.50564 
L 371.846437 176.119096 
L 371.219713 175.67656 
L 369.96811 175.07271 
L 369.165652 174.88393 
L 367.860152 174.655796 
L 367.006459 174.05886 
L 366.395991 173.429179 
L 366.255976 172.899324 
L 366.429092 172.136577 
L 366.256637 171.614028 
L 366.154628 170.672051 
L 366.410715 170.363085 
L 368.266334 168.717319 
L 368.336494 168.271887 
L 368.217004 167.875707 
L 367.839505 167.414211 
L 367.423313 167.100019 
L 366.718976 166.618398 
L 366.62396 166.34229 
L 366.838318 165.992144 
L 368.587588 164.797202 
L 368.948798 163.878264 
L 369.059164 163.169569 
L 369.271478 162.877242 
L 369.210164 162.670206 
L 368.134251 161.70773 
L 367.753856 161.259506 
L 366.942353 160.875954 
L 365.144239 160.579687 
L 364.059899 160.377087 
L 362.70733 160.258328 
L 360.370299 159.580769 
L 358.749511 159.426621 
L 358.457357 159.257575 
L 357.809873 158.395403 
L 357.011381 158.067695 
L 356.894205 157.701329 
L 357.036646 157.382727 
L 357.820971 156.852341 
L 357.8412 156.563127 
L 357.527965 156.210041 
L 357.229992 155.896353 
L 357.102519 155.273308 
L 356.821393 155.047748 
L 355.741853 154.553003 
L 355.803994 154.32506 
L 355.952384 153.8919 
L 355.736008 153.408009 
L 355.012773 152.388315 
L 355.056745 150.901932 
L 354.894761 150.466128 
L 354.419742 149.90765 
L 353.529243 149.028866 
L 353.430974 148.753811 
L 353.553395 148.354656 
L 353.887912 147.969148 
L 354.510253 147.314236 
L 354.499199 146.91082 
L 354.283005 146.412188 
L 354.357088 146.014686 
L 354.648128 145.605616 
L 355.286993 145.159758 
L 356.010133 144.947044 
L 357.438062 144.714491 
L 358.155628 144.060885 
L 358.776759 143.731811 
L 359.407275 143.126291 
L 359.996401 142.788878 
L 360.119265 142.494593 
L 360.275596 141.735855 
L 360.762905 141.474794 
L 361.448821 141.128413 
L 362.111159 140.461587 
L 362.23498 140.071043 
L 362.062699 139.721027 
L 361.6599 139.381013 
L 361.170148 139.189876 
L 360.469785 138.983867 
L 360.144982 138.654724 
L 359.908525 137.779897 
L 359.494403 137.022117 
L 359.585444 136.67044 
L 359.932651 136.290245 
L 360.349087 135.831341 
L 360.428378 135.532455 
L 360.498103 135.018855 
L 360.967496 134.64527 
L 362.596972 133.703719 
L 362.600103 133.465531 
L 362.378474 133.169585 
L 361.960186 132.957714 
L 360.614314 132.375511 
L 360.158263 131.933488 
L 359.809804 131.02403 
L 358.83109 130.098151 
L 357.395229 129.573523 
L 356.731664 129.125429 
L 355.083559 128.665464 
L 352.93823 127.884245 
L 351.571224 127.488647 
L 347.225208 125.467722 
L 346.541431 124.483155 
L 345.839739 124.194845 
L 344.610756 123.923851 
L 343.863803 122.725605 
L 342.815747 122.036653 
L 342.440223 121.601649 
L 341.160058 120.627475 
L 340.439701 120.095324 
L 339.526755 119.210678 
L 339.030349 119.022203 
L 338.398076 118.749678 
L 337.995721 118.384538 
L 337.455273 117.865807 
L 332.750953 116.361969 
L 331.6163 115.994802 
L 329.698322 114.955322 
L 328.518409 114.213639 
L 327.794321 113.621913 
L 326.894064 113.049233 
L 326.027404 112.281277 
L 325.674318 112.131947 
L 325.241358 112.043071 
L 320.245554 111.577053 
L 319.601157 111.535785 
L 319.305551 111.537472 
L 318.372445 111.220836 
L 317.999103 110.867863 
L 317.685919 109.971433 
L 317.897129 109.529384 
L 318.571574 108.881483 
L 319.180512 108.367656 
L 319.396062 108.150767 
L 319.801209 107.921494 
L 320.601979 107.175341 
L 320.745308 106.848251 
L 320.895351 106.343261 
L 320.946855 105.924364 
L 320.890872 105.691968 
L 320.571531 105.285238 
L 320.367583 105.163217 
L 320.182691 104.558845 
L 320.178855 104.115387 
L 319.344453 101.562163 
L 319.408899 100.851007 
L 319.078486 100.370839 
L 319.425771 99.908665 
L 319.56596 99.522512 
L 319.976125 99.396404 
L 321.247819 99.153589 
L 321.545339 98.79405 
L 321.653018 98.527996 
L 322.228081 98.288921 
L 323.208578 98.076189 
L 324.013341 97.755169 
L 324.299111 97.551135 
L 325.796939 97.209781 
L 326.117784 97.183072 
L 327.333104 96.853025 
L 327.992963 96.619159 
L 329.241184 96.029842 
L 329.537965 95.955368 
L 330.249251 95.446082 
L 330.694213 95.186742 
L 331.019546 95.076193 
L 331.536077 94.866775 
L 332.60699 94.302557 
L 332.706285 94.228841 
L 332.902327 94.11029 
L 333.097481 93.931651 
L 333.842234 93.454709 
L 334.744804 92.900615 
L 337.248847 91.519024 
L 337.269137 91.351735 
L 337.477955 91.203719 
L 337.783494 90.928533 
L 337.903079 90.544824 
L 338.025883 90.407845 
L 338.172951 90.162151 
L 338.248877 89.899237 
L 338.927253 89.093361 
L 338.982645 88.806964 
L 338.961954 88.705121 
L 339.15991 88.519863 
L 339.191124 88.247556 
L 339.270529 87.842888 
L 339.14302 87.407771 
L 339.486226 86.829933 
L 339.942208 86.416115 
L 340.289571 84.646433 
L 340.344459 84.488484 
L 340.309748 84.322456 
L 340.48917 84.077032 
L 340.659642 83.851254 
L 339.479694 82.81273 
L 339.121886 82.267325 
L 339.107362 81.861952 
L 338.83175 81.277244 
L 338.972313 80.998683 
L 339.631364 79.449629 
L 339.811229 78.670723 
L 340.353921 78.448155 
L 341.223825 78.351017 
L 341.906984 78.166464 
L 342.374264 77.78092 
L 342.453068 77.322669 
L 342.50586 76.823184 
L 343.299908 76.104984 
L 343.963942 75.69247 
L 344.618218 75.2758 
L 344.742326 74.980358 
L 344.894952 74.528186 
L 345.706316 73.861647 
L 346.137867 73.574198 
L 346.125778 73.259805 
L 345.837816 72.823201 
L 345.620136 72.541849 
L 345.701532 72.367298 
L 345.590905 72.356104 
L 343.610482 72.219359 
L 343.210927 70.786603 
L 343.063494 69.97524 
L 342.357983 69.384748 
L 343.110345 68.023787 
L 342.722697 67.56277 
L 341.534669 67.593583 
L 340.119038 68.085954 
L 339.943408 68.54244 
L 339.620075 68.80385 
L 339.056658 68.748223 
L 338.675506 68.617862 
L 338.438179 68.665765 
L 338.490944 68.831359 
L 337.417875 68.963111 
L 337.435026 69.024818 
L 337.227843 69.280148 
L 335.671109 69.138045 
L 334.466148 69.245394 
L 334.390823 69.604794 
L 334.203704 69.85428 
L 334.09265 70.077257 
L 333.274894 70.988672 
L 333.140089 71.149917 
L 333.248429 71.343419 
L 332.100243 71.60449 
L 330.230569 72.061237 
L 329.762638 72.187511 
L 330.084466 73.095125 
L 330.062071 73.185201 
L 330.077213 73.434609 
L 330.063845 73.683895 
L 328.824826 73.86623 
L 328.20693 73.874466 
L 327.721622 73.897896 
L 326.225211 73.967099 
L 325.291453 74.03632 
L 324.789681 73.731233 
L 324.57461 73.648689 
L 324.38843 73.462596 
L 324.057852 73.486305 
L 323.919098 73.516397 
L 323.102638 73.513266 
L 322.7252 73.465988 
L 322.245006 73.394263 
L 321.83638 73.209475 
L 321.254107 73.009041 
L 320.989315 72.949301 
L 320.168349 73.036959 
L 317.585259 73.603464 
L 317.157108 73.5352 
L 317.142453 73.478329 
L 315.590434 73.494906 
L 316.401649 71.781537 
L 317.193923 71.219886 
L 318.166253 70.578142 
L 318.421514 70.373455 
L 319.387991 69.773649 
L 322.168749 68.243363 
L 324.920181 66.438553 
L 326.749805 64.693161 
L 327.24528 63.918812 
L 328.144789 61.833076 
L 328.014715 61.073251 
L 327.984858 60.855858 
L 327.637651 60.150156 
L 328.033379 59.490131 
L 327.919542 59.437809 
L 327.466057 58.932462 
L 327.251446 59.00624 
L 326.530341 58.464322 
L 325.703053 58.840012 
L 325.323467 59.238644 
L 324.720217 59.40322 
L 322.783567 59.502141 
L 321.942476 59.335504 
L 320.455111 58.648214 
L 319.929126 58.38183 
L 318.852883 57.888685 
L 318.647039 58.055374 
L 317.507637 57.900913 
L 316.271836 59.246924 
L 316.098746 59.4878 
L 315.143166 59.52885 
L 314.089135 60.146677 
L 314.16714 60.455016 
L 314.060774 60.457347 
L 313.561898 60.238901 
L 312.855204 60.168585 
L 311.661393 60.345667 
L 311.308681 60.109966 
L 310.807431 58.9001 
L 307.564742 58.793369 
L 306.961309 58.422236 
L 304.169375 58.760842 
L 302.36519 58.773322 
L 302.154024 58.810067 
L 300.523191 59.221407 
L 300.334194 59.328199 
L 300.022367 59.481512 
L 299.695146 59.483173 
L 298.798794 59.041994 
L 298.628965 58.621035 
L 299.074432 58.42008 
L 299.308359 58.212296 
L 299.238312 58.06555 
L 298.745541 57.546714 
L 299.400392 57.477189 
L 299.798416 57.37952 
L 299.824577 57.197055 
L 299.891927 57.156891 
L 299.883943 57.127086 
L 299.842588 56.930035 
L 299.885074 56.907919 
L 299.739545 56.811007 
L 299.711584 56.694404 
L 299.858174 56.627671 
L 299.822898 56.591613 
L 296.152736 55.072503 
L 296.1943 54.999212 
L 296.568103 54.554398 
L 296.710188 54.428646 
L 296.78627 54.268027 
L 296.955855 54.027874 
L 296.536236 53.917385 
L 296.148684 53.794269 
L 295.982255 53.573231 
L 296.024715 53.440557 
L 296.002224 53.356447 
L 296.073471 53.336913 
L 296.277218 53.061953 
L 296.329001 52.679045 
L 296.518694 52.400711 
L 293.38311 51.392514 
L 292.336446 51.273337 
L 291.483875 51.17786 
L 291.589406 51.123598 
L 291.62636 50.862302 
L 290.181637 49.356994 
L 289.614497 48.825122 
L 289.446451 48.739403 
L 289.488815 48.587551 
L 289.439633 48.497405 
L 289.60994 48.019802 
L 289.600564 47.955861 
L 289.674272 47.942554 
L 289.761426 47.923934 
L 289.717984 47.83952 
L 289.672072 47.715412 
L 289.581561 47.610437 
L 289.288624 47.723335 
L 288.81377 47.673839 
L 288.152327 48.397893 
L 287.571942 50.129943 
L 287.51922 50.328394 
L 287.869592 50.77854 
L 287.860452 50.935862 
L 287.689649 51.531207 
L 287.72562 51.537669 
L 287.723054 51.555698 
L 288.324435 51.628475 
L 288.722554 51.758228 
L 288.961612 51.890833 
L 289.097844 52.147398 
L 289.192408 52.258008 
L 289.827063 52.905057 
L 290.355753 52.60645 
L 290.861778 52.653675 
L 291.001463 52.785828 
L 291.948267 52.897708 
L 290.829955 53.939372 
L 290.141665 54.4158 
L 289.038364 54.820121 
L 287.676977 54.885871 
L 286.62145 54.759363 
L 285.251287 54.548571 
L 284.992443 54.379429 
L 284.895957 54.080256 
L 284.869092 54.032283 
L 284.482226 53.957001 
L 284.226557 54.376541 
L 282.967526 54.304303 
L 282.566197 54.29264 
L 282.390402 54.274759 
L 281.853589 54.409965 
L 281.407009 54.899143 
L 279.509913 55.7456 
L 279.234093 55.751714 
L 278.823066 56.017298 
L 278.703351 56.164071 
L 277.954997 56.403903 
L 277.624307 56.492579 
L 277.461949 56.632646 
L 276.894905 57.079165 
L 277.027031 57.129617 
L 277.015838 57.192576 
L 277.155627 57.269084 
L 277.041042 57.307987 
L 276.769405 57.391357 
L 276.619084 57.587147 
L 276.640279 57.687164 
L 276.518493 57.628328 
L 276.401595 57.481868 
L 275.924757 57.451872 
L 275.719453 57.349341 
L 275.138546 57.984762 
L 275.5867 58.139667 
L 275.513357 58.197529 
L 275.435535 58.552119 
L 275.471663 58.616148 
L 274.704637 58.663025 
L 274.84554 58.81579 
L 275.335962 59.411282 
L 275.283049 59.447706 
L 274.707516 60.154609 
L 274.458891 60.554024 
L 274.409996 60.600684 
L 274.234436 60.690769 
L 273.934159 60.548041 
L 273.84664 60.344145 
L 273.413488 60.247537 
L 272.773197 60.412774 
L 272.716213 60.493483 
L 272.421702 60.518401 
L 271.330743 60.682646 
L 271.136354 60.657694 
L 270.290593 60.765434 
L 269.683516 60.856658 
L 269.49311 61.060649 
L 269.4612 61.207152 
L 269.261236 61.21424 
L 268.656594 61.444932 
L 268.657429 61.428512 
L 268.474963 61.35676 
L 268.092794 61.475476 
L 267.799397 61.575163 
L 267.793596 61.846382 
L 267.603772 61.843999 
L 267.481812 61.934389 
L 267.520488 61.973421 
L 267.650337 62.088824 
L 268.039011 62.077526 
L 268.411274 62.195833 
L 268.330139 62.305339 
L 268.266832 62.391953 
L 268.364806 62.612547 
L 268.247281 62.716008 
L 268.208422 62.859372 
L 268.137367 62.969295 
L 267.943838 63.051552 
L 267.859859 63.100369 
L 267.904606 63.162449 
L 268.219381 63.197159 
L 268.4374 63.26765 
L 268.434174 63.300907 
L 268.314032 63.54147 
L 267.529873 63.989563 
L 267.529681 64.123795 
L 267.233979 64.585691 
L 266.223529 64.443927 
L 265.765373 64.294885 
L 265.388214 64.961241 
L 264.914638 65.609673 
L 265.680881 65.712864 
L 265.702684 66.080805 
L 265.61146 66.131735 
L 265.651467 66.167063 
L 265.581786 66.4594 
L 265.250773 66.601006 
L 265.211566 66.879723 
L 265.498293 67.159466 
L 265.424463 67.184027 
L 265.32903 67.3298 
L 265.485265 67.975622 
L 265.544979 68.411696 
L 265.218115 68.517488 
L 264.666996 68.572689 
L 264.392401 68.597554 
L 264.422154 68.500685 
L 264.095847 68.043112 
L 263.904258 67.942773 
L 263.925696 67.904888 
L 263.85471 67.780441 
L 263.697744 67.791295 
L 263.703154 67.818613 
L 263.664008 67.992121 
L 263.78816 68.171021 
L 263.940299 68.376829 
L 264.13214 68.726576 
L 263.163915 69.652359 
L 263.189876 70.017569 
L 262.286279 70.787873 
L 262.267745 70.837438 
L 262.225903 70.836934 
L 260.356273 71.093925 
L 260.030627 71.085863 
L 259.846369 70.926157 
L 259.719461 70.756207 
L 259.600162 70.312279 
L 259.15567 70.270838 
L 258.023869 70.255505 
L 257.975374 70.458008 
L 257.901474 70.736499 
L 258.164841 70.847196 
L 258.052613 70.91546 
L 257.768095 70.98535 
L 257.780088 71.012894 
L 258.440818 71.255265 
L 258.497227 71.307805 
L 258.413222 71.36745 
L 258.188697 71.465623 
L 257.781602 71.647175 
L 257.359747 71.650585 
L 257.202051 71.772631 
L 257.280247 71.819796 
L 257.310574 71.877762 
L 257.242597 71.911855 
L 257.14378 71.999392 
L 257.003765 72.322942 
L 256.50582 72.837508 
L 256.123625 73.059093 
L 255.83802 73.35096 
L 255.537151 73.387401 
L 255.578758 73.456387 
L 255.469496 73.619171 
L 255.461095 73.695253 
L 255.517365 73.809003 
L 255.310113 74.09853 
L 255.147198 74.588874 
L 255.251181 74.611556 
L 255.296824 74.732925 
L 255.222368 74.801841 
L 254.822621 74.850971 
L 254.611742 74.769175 
L 254.482694 74.763704 
L 254.228303 75.019043 
L 253.977026 75.104475 
L 253.714564 75.038246 
L 253.510286 74.806685 
L 253.567209 74.580342 
L 253.560207 74.468315 
L 253.439274 74.445207 
L 253.252233 74.460366 
L 252.211926 73.329182 
L 252.108474 72.75105 
L 251.683785 72.255592 
L 251.21801 72.057619 
L 250.270606 72.058671 
L 249.613981 72.211158 
L 249.671696 72.469689 
L 249.578106 72.464723 
L 248.504437 72.321046 
L 245.885966 71.883372 
L 245.655814 72.050357 
L 245.02075 72.264828 
L 244.877335 72.230848 
L 244.660811 72.459148 
L 244.685589 72.527812 
L 244.210734 72.760616 
L 243.868102 73.211649 
L 243.295918 73.299725 
L 243.067619 73.284418 
L 242.263309 73.52552 
L 241.961866 73.439845 
L 242.082956 73.592749 
L 242.011092 73.695671 
L 241.510085 74.00274 
L 241.422714 74.335536 
L 241.334612 74.536265 
L 241.212469 74.638718 
L 241.224932 74.671767 
L 241.491743 74.757199 
L 241.735845 74.694718 
L 241.800691 74.813312 
L 241.370087 75.030741 
L 241.558893 75.113885 
L 241.599352 75.130131 
L 241.126203 75.411814 
L 240.985848 75.398516 
L 240.868037 75.59027 
L 241.136491 75.599263 
L 241.047754 75.656177 
L 240.929247 75.794018 
L 240.912758 76.164307 
L 240.650739 76.487996 
L 240.781657 76.628986 
L 240.22338 77.096074 
L 239.975512 77.392602 
L 237.975842 77.072635 
L 237.927147 77.090551 
L 237.561746 76.838456 
L 237.344431 76.464523 
L 236.57677 75.670649 
L 236.571169 75.310362 
L 236.0127 74.541379 
L 235.701317 74.455078 
L 235.717668 74.505504 
L 235.59102 74.678063 
L 235.1122 74.754102 
L 234.857252 74.473411 
L 234.338173 74.519193 
L 233.845959 74.62622 
L 233.631157 74.722314 
L 233.248866 74.842804 
L 233.166383 74.747266 
L 233.241309 74.464314 
L 233.236925 74.402608 
L 233.138013 74.435231 
L 231.943923 74.98909 
L 231.79562 75.184584 
L 231.363173 75.603655 
L 231.214947 75.521424 
L 230.791084 75.3786 
L 230.507227 75.320938 
L 229.646986 75.436549 
L 229.334185 75.621971 
L 229.056807 75.732634 
L 229.38475 76.582595 
L 229.348231 76.727646 
L 229.142065 77.228548 
L 229.267104 77.527399 
L 228.380371 77.732912 
L 227.988844 77.400056 
L 227.576417 77.518458 
L 227.658657 77.667197 
L 227.314834 77.731894 
L 227.441673 77.962247 
L 227.358058 77.958168 
L 227.115087 78.056793 
L 227.075619 78.214498 
L 226.894789 78.577777 
L 226.982403 78.769879 
L 226.831517 78.875462 
L 226.824055 78.848188 
L 226.809496 78.828341 
L 226.186747 78.711617 
L 226.072658 78.54004 
L 225.94334 78.557095 
L 225.055964 78.834325 
L 224.615724 78.8417 
L 223.479635 79.374947 
L 223.378114 79.463727 
L 222.665228 79.685226 
L 222.524917 79.913986 
L 222.547538 80.025475 
L 222.515602 80.049357 
L 222.037982 80.15988 
L 221.616015 80.137215 
L 221.611675 80.242355 
L 221.628721 80.441406 
L 221.765762 80.568723 
L 221.888879 80.607782 
L 221.741175 80.673741 
L 221.708422 80.973636 
L 221.192891 81.215398 
L 220.975932 81.240168 
L 220.787335 81.221956 
L 220.528135 81.543228 
L 220.620481 81.64181 
L 220.549921 81.673328 
L 220.290329 81.721241 
L 220.142774 81.715692 
L 220.197731 81.622363 
L 220.201645 81.541897 
L 218.987404 81.628538 
L 218.628439 81.757977 
L 218.756086 81.93279 
L 218.662314 81.96076 
L 217.960708 82.058994 
L 217.495838 81.814248 
L 217.316251 81.798741 
L 217.105545 81.558465 
L 217.031629 81.380018 
L 216.90866 80.886343 
L 216.25761 80.866087 
L 215.726146 81.150205 
L 215.120609 81.204988 
L 214.982324 81.036585 
L 215.047709 81.01973 
L 215.250961 80.832794 
L 215.458257 80.703833 
L 216.148192 80.611418 
L 216.699181 80.477491 
L 216.642902 80.423186 
L 216.59472 80.215742 
L 216.900502 80.065751 
L 218.29012 79.544732 
L 218.298304 79.52973 
L 218.249339 79.507204 
L 218.003515 79.37546 
L 217.933947 79.143229 
L 217.993418 79.063616 
L 217.921501 79.032402 
L 217.364998 78.976332 
L 215.900872 78.866548 
L 214.480987 79.354839 
L 214.656687 79.427043 
L 215.128993 79.813074 
L 215.012051 80.075883 
L 214.800728 80.073292 
L 214.538788 79.969152 
L 214.427152 79.889982 
L 214.181902 79.867787 
L 213.623285 79.960055 
L 213.447273 79.943209 
L 212.995353 79.87478 
L 213.081011 79.849845 
L 213.980407 79.416632 
L 213.750663 79.269581 
L 213.306919 79.203579 
L 212.633343 79.283245 
L 212.392572 79.276478 
L 212.059855 79.409953 
L 211.584226 79.393759 
L 211.487671 79.466997 
L 211.566032 79.520154 
L 211.397603 79.76056 
L 210.319594 80.043634 
L 210.23959 80.477595 
L 210.031937 80.52142 
L 209.778894 80.57282 
L 209.486888 80.63256 
L 208.858955 80.326639 
L 208.727829 80.253331 
L 208.412167 80.001488 
L 207.610291 79.787365 
L 207.356344 79.395968 
L 207.41331 79.27787 
L 207.21078 79.125435 
L 206.629412 78.7379 
L 206.210637 78.831942 
L 205.785938 79.096395 
L 205.477782 79.127079 
L 205.26438 79.194134 
L 204.664922 79.142177 
L 204.343076 79.397786 
L 204.327874 79.273208 
L 204.062359 79.200639 
L 203.940599 79.288498 
L 203.959959 79.325808 
L 203.885477 79.549942 
L 203.878345 79.549333 
L 203.69608 79.492202 
L 203.483287 79.174096 
L 203.612239 79.103049 
L 203.696593 79.095134 
L 203.177974 79.183054 
L 202.759277 79.414893 
L 202.553016 79.53273 
L 202.612844 79.621954 
L 202.561278 79.653438 
L 201.342489 79.822675 
L 200.98048 79.941113 
L 199.324886 79.62198 
L 199.098613 79.323008 
L 198.849388 79.207614 
L 197.32673 78.861373 
L 197.416397 78.809843 
L 198.349268 78.142251 
L 198.976296 76.835125 
L 198.837334 76.710686 
L 198.003784 76.642936 
L 197.847322 76.772349 
L 196.970965 76.883846 
L 195.766395 76.912582 
L 195.663082 76.814617 
L 194.943169 76.669558 
L 193.230235 76.539397 
L 192.835629 76.508539 
L 192.574506 76.517288 
L 192.332822 76.505182 
L 192.036041 76.374621 
L 191.304256 76.227326 
L 190.824931 75.928362 
L 190.799718 75.820179 
L 190.83215 75.811917 
L 191.273294 75.576807 
L 191.075008 75.541201 
L 190.843039 75.465936 
L 190.903553 75.35063 
L 191.06545 75.140698 
L 191.221894 75.076696 
L 191.343228 75.097517 
L 191.363501 75.050761 
L 191.561586 74.795936 
L 191.768674 74.757503 
L 191.723666 74.681821 
L 191.43607 74.54645 
L 191.066911 74.607591 
L 191.059867 74.580021 
L 190.805676 74.174952 
L 189.472789 74.060176 
L 187.600454 74.081762 
L 187.616917 74.161419 
L 187.497706 74.261488 
L 186.844578 74.367089 
L 186.7204 74.340824 
L 186.446493 74.667279 
L 186.127708 74.708416 
L 185.967272 74.854076 
L 185.473789 74.951301 
L 185.288914 74.82321 
L 185.011684 74.629464 
L 184.508025 74.523289 
L 180.967937 73.499168 
L 180.699866 73.417163 
L 179.515569 73.262354 
L 178.599466 73.252987 
L 176.615799 73.471293 
L 176.520853 73.929754 
L 176.301459 74.028284 
L 174.872564 74.005419 
L 173.326198 74.002479 
L 172.552971 74.221369 
L 171.803461 74.509948 
L 171.761097 74.352147 
L 171.316431 74.033276 
L 171.243992 73.975536 
L 170.889463 73.840834 
L 170.645012 73.241324 
L 170.362947 72.395624 
L 169.963671 72.265176 
L 167.577544 71.773971 
L 167.101611 71.345942 
L 167.332129 71.047656 
L 167.689424 70.571584 
L 167.353132 69.991947 
L 167.074694 69.949348 
L 166.038605 69.863951 
L 165.097019 69.587591 
L 164.476288 69.518614 
L 163.478197 68.973391 
L 161.691972 68.480995 
L 161.289947 68.287371 
L 160.047606 68.075709 
L 159.937414 67.771831 
L 157.331232 67.758524 
L 157.093018 67.912464 
L 156.205911 68.004653 
L 155.803756 68.053705 
L 155.454044 67.992999 
L 155.38612 67.924727 
L 155.410559 67.87237 
L 155.571977 67.705124 
L 155.482667 67.654011 
L 154.904125 67.398376 
L 154.342117 67.178861 
L 154.015192 66.775923 
L 153.490407 66.364288 
L 152.95249 65.094594 
L 152.182011 65.239662 
L 151.524247 65.508578 
L 150.757074 65.512491 
L 149.489815 65.52832 
L 149.369795 65.604942 
L 149.092009 66.058149 
L 149.348313 66.110506 
L 149.318308 66.193215 
L 149.277257 66.36394 
L 147.604191 66.646597 
L 146.654204 65.684173 
L 146.441646 65.076852 
L 146.236481 64.798892 
L 145.298235 64.970486 
L 145.304584 64.913433 
L 145.179693 64.804284 
L 145.170474 64.935611 
L 145.113073 65.466223 
L 144.760665 65.792365 
L 144.752403 65.91656 
L 144.674912 65.911342 
L 142.464189 65.821065 
L 142.466102 65.855941 
L 142.513762 66.323324 
L 140.16032 66.126335 
L 139.982116 64.853249 
L 139.968374 64.748449 
L 139.77582 64.119733 
L 139.020387 64.102426 
L 138.157015 64.016525 
L 138.0449 64.035858 
L 137.405157 64.020108 
L 136.951549 63.990103 
L 137.110063 64.095494 
L 137.473681 64.342232 
L 137.396277 64.389892 
L 137.170221 64.65866 
L 137.11736 64.854232 
L 137.19259 64.86519 
L 137.534561 65.009302 
L 137.798076 65.422807 
L 137.619202 65.497158 
L 137.919661 65.860698 
L 136.045874 66.474794 
L 134.255135 67.166894 
L 134.388471 67.251308 
L 134.565979 67.543271 
L 134.902906 68.390371 
L 134.685739 68.825749 
L 134.848114 69.21625 
L 135.002053 69.857228 
L 134.601899 70.190589 
L 133.219925 70.202069 
L 132.664353 70.66093 
L 131.721758 70.366097 
L 131.425186 70.317306 
L 131.190798 70.35653 
L 130.719066 70.419932 
L 130.58974 70.787386 
L 130.355352 71.032384 
L 130.18868 71.220842 
L 130.070173 71.390271 
L 129.893361 71.468023 
L 129.589309 71.751289 
L 129.592266 71.79347 
L 129.520515 71.829998 
L 129.348921 71.921578 
L 129.152887 72.151096 
L 129.168455 72.157618 
L 129.239946 72.238589 
L 129.143494 72.299208 
L 129.060959 72.4094 
L 129.06522 72.423838 
L 128.921196 72.442275 
L 128.809438 72.465149 
L 128.407891 72.604564 
L 128.379626 72.493067 
L 128.021217 72.373046 
L 124.675519 72.226152 
L 123.860337 71.983763 
L 123.691613 71.974196 
L 123.568114 72.655442 
L 123.328769 72.881133 
L 123.123256 73.039507 
L 122.998626 73.226843 
L 122.736321 73.258501 
L 122.748497 73.297116 
L 122.760934 73.32686 
L 122.652828 73.354256 
L 122.075513 73.5589 
L 121.72267 73.736582 
L 121.287901 74.23371 
L 121.299381 74.246929 
L 121.234414 74.348512 
L 121.061689 74.557852 
L 121.068386 74.560113 
L 120.749027 74.564027 
L 120.256248 74.572811 
L 119.287127 74.365384 
L 119.058827 74.352426 
L 119.055957 74.342163 
L 119.019429 74.311636 
L 118.945852 74.337901 
L 118.651802 74.336075 
L 118.086141 74.308853 
L 117.717295 74.2251 
L 117.055531 74.159088 
L 116.726232 74.210123 
L 115.581872 74.091842 
L 115.288692 74.204444 
L 115.554911 74.469063 
L 115.740038 74.512166 
L 115.991411 74.77675 
L 117.27262 75.025096 
L 118.43139 75.926684 
L 118.428781 75.953549 
L 118.565387 76.048052 
L 118.546723 76.074022 
L 118.143533 76.147582 
L 118.133914 76.365645 
L 117.333413 76.333135 
L 117.084084 76.458148 
L 117.070742 76.512722 
L 116.36931 76.534561 
L 116.082896 76.466828 
L 115.825496 76.481909 
L 114.993616 76.521967 
L 114.584868 76.37536 
L 112.979153 76.437405 
L 111.187675 77.095926 
L 110.72003 77.117825 
L 110.508673 77.250682 
L 109.422358 77.366876 
L 109.439343 77.296612 
L 109.345667 77.160015 
L 109.216419 76.087589 
L 108.232104 76.176718 
L 108.227999 76.030441 
L 107.574914 75.870874 
L 107.679288 75.568449 
L 107.132396 75.334296 
L 106.893425 75.021252 
L 106.36016 75.065146 
L 106.15122 75.23034 
L 103.6467 75.041525 
L 103.530837 75.189837 
L 103.327185 75.316885 
L 102.730136 75.45029 
L 101.427793 75.411362 
L 100.723769 75.204579 
L 100.072102 75.503708 
L 99.836706 75.808942 
L 99.749317 76.143921 
L 99.53008 76.237676 
L 98.907035 76.362619 
L 98.244097 76.645606 
L 97.395657 77.388088 
L 97.089136 77.571232 
L 96.274258 77.762639 
L 96.085296 77.809429 
L 95.922338 77.758734 
L 95.049459 77.715605 
L 94.189017 78.031711 
L 94.097889 78.12163 
L 93.967536 78.156506 
L 94.006665 78.222856 
L 94.410594 78.383127 
L 94.685554 78.690622 
L 94.663472 78.699224 
L 94.604253 78.841239 
L 94.501479 79.378748 
L 94.703053 79.870075 
L 94.642286 79.87291 
L 94.460359 80.134554 
L 95.378028 80.370081 
L 95.023168 81.013703 
L 95.184134 81.156319 
L 95.522226 81.471903 
L 95.548144 81.670954 
L 95.588464 81.841383 
L 95.477819 81.907455 
L 95.24097 81.911343 
L 94.918428 82.364385 
L 94.565386 82.630569 
L 94.562133 82.751494 
L 94.382589 82.91667 
L 94.478519 83.151883 
L 94.123685 83.193838 
L 94.039592 83.008172 
L 93.913414 83.080097 
L 94.264891 84.020074 
L 94.349453 84.022022 
L 94.40695 84.165542 
L 93.874164 84.486397 
L 93.622504 84.518489 
L 93.779461 84.867392 
L 92.71762 84.9927 
L 92.562359 85.344925 
L 92.012518 85.266729 
L 91.695368 85.352344 
L 90.371361 85.325078 
L 89.918963 85.66551 
L 89.660014 85.666119 
L 89.567999 85.343916 
L 89.589159 85.23348 
L 89.494404 85.234698 
L 88.084452 85.02681 
L 87.354058 85.134776 
L 87.243213 85.209285 
L 87.204572 84.912608 
L 87.306424 84.773576 
L 87.25712 84.534153 
L 85.830991 84.045565 
L 84.779908 84.17504 
L 84.792067 84.211246 
L 84.693355 84.299948 
L 83.93013 84.257775 
L 83.454692 84.114473 
L 82.529118 84.022144 
L 82.529118 84.026484 
L 82.552322 84.139729 
L 82.452714 84.106106 
L 82.28225 84.293103 
L 82.165726 84.296738 
L 82.020284 84.330396 
L 82.019814 84.334597 
L 81.251136 84.304253 
L 80.45394 84.043756 
L 80.117396 84.944788 
L 80.265386 85.324843 
L 80.886735 86.152158 
L 80.972863 86.183685 
L 80.718776 86.248826 
L 80.263708 86.536484 
L 80.408523 86.568967 
L 80.43652 86.62369 
L 80.42023 86.62996 
L 79.985173 86.602347 
L 79.923406 86.522873 
L 79.653134 86.459688 
L 79.509667 86.562018 
L 79.031733 86.620498 
L 79.028185 86.595963 
L 78.130354 86.367498 
L 78.047532 86.299426 
L 77.641872 86.223752 
L 77.369043 86.119735 
L 75.198318 86.281223 
L 74.786857 86.208271 
L 74.869001 86.122205 
L 74.944031 86.072735 
L 74.852555 86.066682 
L 74.076545 85.884086 
L 73.817005 85.862178 
L 73.612188 85.811778 
L 73.606874 85.845436 
L 73.600525 85.916944 
L 73.530174 85.935877 
L 73.209468 86.013273 
L 72.912174 86.126788 
L 72.39459 86.067334 
L 72.039339 86.069717 
L 71.290968 86.021135 
L 71.265999 85.894575 
L 70.904546 85.824745 
L 70.909251 85.793958 
L 70.716758 85.765031 
L 70.694189 85.671641 
L 69.650038 85.661918 
L 69.218182 85.620528 
M 157.756905 162.66117 
L 157.783379 162.592811 
L 157.871559 162.624738 
L 157.983647 162.71531 
L 157.756905 162.66117 
M 227.690037 146.710569 
L 228.505714 146.377164 
L 228.701565 146.204814 
L 229.100954 146.332235 
L 229.305224 146.187602 
L 229.401179 146.099283 
L 229.815475 145.878836 
L 229.75376 145.607973 
L 229.91524 145.55092 
L 230.201158 145.27276 
L 230.717341 145.05147 
L 230.714558 144.972665 
L 230.358333 144.654124 
L 230.285068 144.555308 
L 229.640272 144.119216 
L 229.565616 143.934628 
L 229.764475 143.580455 
L 229.744542 143.266985 
L 229.61712 143.200017 
L 229.697655 142.875553 
L 229.621799 142.707716 
L 230.502514 141.659399 
L 231.274514 141.393728 
L 234.61549 138.950557 
L 234.689285 138.918412 
L 234.547234 138.868865 
L 232.578196 138.06932 
L 232.415073 138.001961 
L 230.215239 138.237175 
L 230.764471 136.406665 
L 231.382628 134.859237 
L 231.481445 134.915733 
L 232.054568 135.151339 
L 232.706357 135.078439 
L 232.795903 134.798922 
L 232.791571 134.3838 
L 232.830161 134.235357 
L 232.934561 134.014833 
L 233.161173 133.659738 
L 233.272453 133.570592 
L 233.373227 133.217115 
L 233.018288 132.471006 
L 231.493021 132.782598 
L 231.200702 132.358734 
L 231.406354 132.160301 
L 231.875364 132.080096 
L 232.172788 131.969764 
L 232.722116 131.830375 
L 233.245988 131.532377 
L 233.665902 131.23016 
L 234.472648 131.206113 
L 234.872324 131.324315 
L 237.840237 132.154108 
L 237.984304 132.189227 
L 238.011492 132.111936 
L 238.039009 132.034732 
L 238.981073 131.976061 
L 239.04071 131.68756 
L 238.732936 131.462287 
L 238.030495 131.035153 
L 237.570843 130.401455 
L 237.586341 130.389914 
L 238.234851 129.957805 
L 239.40144 128.571153 
L 239.770051 128.619683 
L 240.627031 128.60682 
L 243.00433 128.551602 
L 243.008235 127.866033 
L 242.806105 127.48516 
L 242.851243 127.491526 
L 243.858118 127.521183 
L 244.691781 127.447614 
L 244.804809 126.446862 
L 244.524179 126.435791 
L 244.599235 125.741047 
L 244.696095 125.763085 
L 246.866489 125.960449 
L 246.849582 125.979252 
L 246.976378 126.032035 
L 246.83284 126.089054 
L 246.135522 126.370371 
L 246.203638 126.453263 
L 246.87576 127.418201 
L 246.700339 127.708711 
L 246.712089 127.758137 
L 246.601053 127.775009 
L 246.655201 127.873887 
L 246.983883 128.360769 
L 246.948199 128.361943 
L 246.869907 128.488504 
L 246.324954 128.658916 
L 246.944346 128.587173 
L 247.53068 128.64714 
L 249.105478 128.979805 
L 249.443692 129.023943 
L 249.448553 129.0018 
L 249.611564 129.008784 
L 249.850717 128.992033 
L 250.041176 128.965559 
L 251.395745 128.93191 
L 251.395779 128.926004 
L 251.505963 128.885145 
L 252.171154 128.717656 
L 252.263953 128.64313 
L 252.289548 128.657794 
L 252.587869 128.596914 
L 252.661229 128.529633 
L 252.703706 128.552871 
L 252.796565 128.472406 
L 252.692756 128.498567 
L 252.794312 128.4657 
L 252.692156 128.274833 
L 252.704114 128.272163 
L 252.921438 128.055987 
L 253.193571 127.991228 
L 253.304147 127.960797 
L 253.22322 127.873904 
L 253.213166 127.858188 
L 253.318349 127.860693 
L 253.336987 127.839533 
L 253.72327 127.785089 
L 253.866912 127.728079 
L 253.844769 127.705954 
L 253.938463 127.573131 
L 253.960032 127.470871 
L 253.925452 127.449867 
L 253.897899 127.438378 
L 254.321528 126.887772 
L 254.603784 126.823552 
L 254.733328 126.903192 
L 255.555972 127.297746 
L 256.005179 127.328986 
L 256.076565 127.337361 
L 256.035149 127.43716 
L 256.681998 127.812659 
L 256.912933 127.939063 
L 256.914907 127.929531 
L 257.295006 127.763798 
L 257.774566 127.7228 
L 257.740786 127.196415 
L 257.861224 127.150921 
L 258.291758 126.946634 
L 258.408178 126.728562 
L 258.414013 126.760028 
L 259.326081 126.703714 
L 259.325133 126.788085 
L 260.22205 126.757628 
L 260.44975 126.611064 
L 260.775475 126.524301 
L 260.925822 126.469718 
L 261.249738 126.188957 
L 261.188258 126.1073 
L 260.004761 125.909345 
L 259.211644 125.573453 
L 259.352051 125.478967 
L 259.974139 125.024682 
L 260.528755 125.186213 
L 261.427751 124.544244 
L 261.515679 124.596287 
L 261.75999 124.513238 
L 261.600049 124.668126 
L 261.282056 125.10406 
L 261.308574 125.105904 
L 261.746179 125.100277 
L 262.485521 124.86709 
L 262.465335 124.942529 
L 262.218911 125.855205 
L 262.982014 126.371562 
L 264.83565 127.007809 
L 265.207792 127.017254 
L 265.265541 127.120428 
L 265.494449 127.106896 
L 265.484726 127.212027 
L 265.308174 127.814285 
L 265.041955 128.452333 
L 264.000056 128.804827 
L 263.893456 129.32001 
L 263.723253 129.461573 
L 263.275412 130.336304 
L 263.201852 130.586556 
L 263.302547 130.580555 
L 263.40292 130.574693 
L 264.268337 131.704571 
L 266.060815 131.733828 
L 268.024043 132.270833 
L 268.977222 132.8211 
L 269.702885 133.351355 
L 270.155848 133.366471 
L 270.69567 133.733376 
L 270.789078 134.197542 
L 270.829102 134.411796 
L 270.976614 134.668857 
L 271.121873 134.947426 
L 271.095886 135.420245 
L 275.463844 136.161927 
L 275.385831 136.239193 
L 275.041173 136.433991 
L 274.348412 136.407326 
L 274.53727 137.095599 
L 275.814426 137.083571 
L 276.553221 137.132718 
L 277.165324 137.207131 
L 277.138642 137.548519 
L 276.417415 137.867504 
L 275.442745 138.388792 
L 275.035102 138.747696 
L 274.623867 139.454408 
L 274.394681 140.264754 
L 274.437036 140.27726 
L 274.773658 140.326521 
L 274.707995 140.38113 
L 273.452303 141.517531 
L 273.36795 141.841369 
L 273.47676 141.859311 
L 273.62308 141.910007 
L 273.546719 141.972643 
L 273.177952 142.273338 
L 273.293389 142.295437 
L 273.593232 142.286784 
L 273.726393 142.235801 
L 274.019791 142.388514 
L 274.073713 142.62565 
L 274.222182 142.615953 
L 274.171634 142.532034 
L 274.180757 142.435713 
L 274.208701 142.436287 
L 274.381731 142.439096 
L 274.341385 142.373564 
L 274.425477 142.01018 
L 274.749628 141.973261 
L 275.188111 141.828445 
L 275.90311 141.563992 
L 276.086846 141.549076 
L 277.012672 141.751884 
L 277.809695 142.001779 
L 278.231044 142.044421 
L 279.040877 142.406761 
L 279.388571 142.671884 
L 280.374521 142.816647 
L 280.567936 142.952827 
L 280.754872 143.435605 
L 280.906342 143.635612 
L 281.342198 143.58096 
L 281.343503 143.211254 
L 281.144643 143.098469 
L 280.998583 142.731555 
L 280.806072 142.479616 
L 280.894766 142.481999 
L 281.145982 142.597515 
L 281.949788 142.923387 
L 282.335323 143.039677 
L 282.831599 143.590927 
L 283.645084 144.029758 
L 285.598068 144.313606 
L 285.722724 144.502429 
L 285.616114 144.653863 
L 285.729812 144.667614 
L 285.850467 144.681642 
L 285.819592 144.755098 
L 285.697876 145.076657 
L 286.205693 145.138372 
L 286.134507 145.229352 
L 286.020583 145.264628 
L 285.621681 145.227883 
L 285.639153 145.180596 
L 285.783108 144.799201 
L 285.696832 144.801158 
L 285.077832 144.917404 
L 284.708265 145.154174 
L 284.539375 145.54798 
L 283.197869 145.339023 
L 282.87004 145.187554 
L 283.856955 145.539318 
L 284.373678 145.593875 
L 284.352065 145.68623 
L 284.273182 145.908363 
L 284.515467 145.965738 
L 284.504178 145.977662 
L 284.43207 146.120286 
L 284.116799 146.139342 
L 283.594015 146.788112 
L 283.525664 147.091225 
L 284.281314 147.780072 
L 284.189072 147.833855 
L 283.907259 148.010494 
L 283.622646 148.401995 
L 283.417341 148.409631 
L 283.057385 148.482696 
L 282.920188 148.562544 
L 282.640557 148.507056 
L 282.18488 148.488175 
L 281.825228 148.713996 
L 281.172552 149.004054 
L 281.007576 149.070952 
L 280.74681 149.222569 
L 280.800332 149.121665 
L 280.655551 149.294616 
L 280.087055 149.667905 
L 279.884342 149.672932 
L 279.845049 149.629281 
L 279.807538 149.707912 
L 279.718688 149.74057 
L 279.684386 149.821557 
L 279.761226 149.81994 
L 279.835516 149.900423 
L 280.136263 149.937177 
L 280.558352 150.057432 
L 280.785165 150.026827 
L 280.756516 150.099057 
L 280.643993 150.379983 
L 280.940504 150.401508 
L 280.929928 150.429426 
L 280.710404 150.730285 
L 280.250335 151.131701 
L 280.284923 151.203096 
L 280.192368 151.206671 
L 280.211789 151.265672 
L 279.72809 151.223934 
L 279.246295 151.065351 
L 279.065734 151.083241 
L 278.640522 151.259741 
L 277.958685 151.765487 
L 277.834534 152.059746 
L 277.615053 152.269938 
L 277.52355 152.420851 
L 277.144764 152.649855 
L 276.962638 153.046374 
L 276.638278 153.410001 
L 276.598202 153.735761 
L 276.14716 153.742109 
L 276.059032 153.643693 
L 275.913129 153.641414 
L 275.348086 153.043226 
L 275.55726 152.005502 
L 275.580334 151.840456 
L 275.686987 151.730768 
L 275.768253 151.627664 
L 276.294064 151.282953 
L 276.262058 151.013994 
L 275.850875 150.956976 
L 275.878741 150.898749 
L 275.912842 150.582417 
L 275.901014 150.374416 
L 275.83596 150.383444 
L 275.008228 150.406857 
L 274.580477 150.070452 
L 272.695384 150.712248 
L 272.762682 150.596993 
L 272.755359 150.440001 
L 272.665318 150.333792 
L 272.7394 150.278765 
L 272.661308 150.1246 
L 272.100335 149.687422 
L 271.75111 149.530021 
L 271.553964 148.956185 
L 268.842382 149.448094 
L 266.578772 149.375517 
L 266.549428 148.981893 
L 266.834624 148.362945 
L 266.711456 148.419111 
L 266.018112 148.624902 
L 265.219437 148.340767 
L 264.562247 148.338228 
L 261.731933 148.770666 
L 261.444197 147.984046 
L 260.578833 146.645349 
L 260.108388 146.6113 
L 259.315044 146.809986 
L 257.136501 147.401321 
L 256.39668 147.655642 
L 256.434921 147.888282 
L 257.146068 149.708495 
L 256.490765 150.489419 
L 253.788663 150.343437 
L 253.542135 149.420742 
L 252.216579 149.424516 
L 252.355368 148.957541 
L 250.476736 148.141246 
L 249.842498 147.749571 
L 249.867607 147.398694 
L 249.768329 147.432222 
L 247.047346 148.390262 
L 245.743864 147.156645 
L 245.83321 147.108932 
L 245.815433 147.004627 
L 245.770947 147.022909 
L 245.243231 147.303035 
L 243.720773 148.028349 
L 243.224889 148.045691 
L 241.844133 147.942439 
L 241.730218 147.984968 
L 241.721799 147.951736 
L 241.39724 146.57645 
L 239.597935 146.605855 
L 239.597856 146.598785 
L 239.452597 146.6119 
L 237.602518 147.060498 
L 236.731196 147.211323 
L 233.855969 148.176757 
L 233.770372 148.591871 
L 233.730235 148.734921 
L 234.92482 148.712239 
L 234.94498 148.796949 
L 234.4225 148.915334 
L 233.338429 148.866804 
L 232.455114 148.707351 
L 232.466203 148.691975 
L 232.461081 148.65749 
L 232.355341 148.682356 
L 232.242235 148.721301 
L 231.345317 149.255896 
L 231.400518 149.290928 
L 231.589463 149.522168 
L 231.548543 149.514766 
L 231.028577 149.32396 
L 231.077324 149.147869 
L 231.566294 149.059828 
L 232.091235 148.766587 
L 231.817076 148.750637 
L 231.758718 148.646332 
L 231.80997 148.639905 
L 232.017518 148.604481 
L 231.743828 148.540166 
L 231.532262 148.534296 
L 230.935448 148.708325 
L 230.617316 148.544454 
L 230.124563 148.215972 
L 229.669311 147.957276 
L 229.306676 147.593058 
L 229.443473 147.614157 
L 229.72973 147.506582 
L 229.721485 147.479647 
L 229.648525 147.430621 
L 229.565137 147.371394 
L 229.429836 147.269107 
L 229.321722 147.271655 
L 229.348631 147.363332 
L 229.273244 147.582578 
L 228.980142 147.542997 
L 228.796616 147.390963 
L 228.639458 147.232718 
L 228.394965 147.279674 
L 228.452601 147.344294 
L 228.585293 147.525638 
L 228.528205 147.55873 
L 228.476848 147.598885 
L 227.850316 147.310836 
L 227.852116 147.239459 
L 227.690037 146.710569 
M 263.791221 129.371967 
L 263.966303 129.293954 
L 263.791221 129.371967 
" style="fill:none;stroke:#ffc0cb;"/>
    <path clip-path="url(#pe83d3145b9)" d="M 152.004416 108.300958 
L 152.018427 108.304715 
L 152.047145 108.312412 
L 152.062147 108.313856 
L 152.078985 108.312482 
L 152.098049 108.307037 
L 152.150493 108.274432 
L 152.155598 108.27718 
L 152.255232 108.221362 
L 152.358224 108.166492 
L 152.280471 108.131938 
L 152.233907 108.166326 
L 152.217756 108.154733 
L 152.16052 108.199254 
L 152.099562 108.24694 
L 152.075489 108.235582 
L 152.068157 108.235034 
L 152.058225 108.242131 
L 152.06173 108.245792 
L 152.037813 108.268257 
L 152.004416 108.300958 
" style="fill:none;stroke:#ffc0cb;"/>
    <path clip-path="url(#pe83d3145b9)" d="M 155.651313 163.212846 
L 155.6811 163.219143 
L 155.733596 163.230006 
L 155.79912 163.15368 
L 155.756809 163.143148 
L 155.718646 163.134172 
L 155.651313 163.212846 
" style="fill:none;stroke:#ffc0cb;"/>
    <path clip-path="url(#pe83d3145b9)" d="M 155.873855 162.939626 
L 155.87722 162.953733 
L 155.89351 162.960717 
L 155.914801 162.958855 
L 155.923272 162.9673 
L 155.939188 162.988191 
L 155.949885 163.0141 
L 155.955964 163.022579 
L 155.966392 163.028998 
L 155.983447 163.029667 
L 156.025211 163.040174 
L 156.060156 163.03926 
L 156.073271 163.134268 
L 156.085769 163.177397 
L 156.110286 163.238172 
L 156.191369 163.231789 
L 156.330454 163.239581 
L 156.378845 163.237833 
L 156.428131 163.2235 
L 156.475305 163.216264 
L 156.52226 163.225248 
L 156.569764 163.227292 
L 156.57553 163.257802 
L 156.580088 163.283058 
L 156.229358 163.646607 
L 156.585262 163.284015 
L 156.581296 163.258985 
L 156.69455 163.282154 
L 156.766606 163.295834 
L 156.814162 163.248209 
L 156.874798 163.268421 
L 156.877138 163.262594 
L 156.903247 163.244026 
L 156.932695 163.209715 
L 156.93206 163.172013 
L 156.94895 163.154828 
L 156.915466 163.139434 
L 156.872215 163.124614 
L 156.821711 163.118543 
L 156.689254 163.093591 
L 156.627739 163.103819 
L 156.570582 163.115065 
L 156.558571 163.108202 
L 156.497273 163.100662 
L 156.437524 163.094052 
L 156.373392 163.103297 
L 156.300301 163.0954 
L 156.26513 163.08866 
L 156.224488 163.088921 
L 156.197362 163.084085 
L 156.18062 163.083503 
L 156.170261 163.078728 
L 156.152015 163.067813 
L 156.138787 163.058377 
L 156.121984 163.052419 
L 156.113669 163.048653 
L 156.099745 163.047888 
L 156.082881 163.039208 
L 156.072184 163.035164 
L 156.059982 163.036825 
L 156.042422 163.035686 
L 156.026724 163.037712 
L 155.984804 163.026171 
L 155.966444 163.024275 
L 155.9614 163.020353 
L 155.958025 163.017587 
L 155.942988 162.987025 
L 155.927342 162.964674 
L 155.916158 162.955829 
L 155.893623 162.956986 
L 155.880264 162.950967 
L 155.87809 162.93993 
L 155.887161 162.931077 
L 155.882274 162.92872 
L 155.873855 162.939626 
" style="fill:none;stroke:#ffc0cb;"/>
    <path clip-path="url(#pe83d3145b9)" d="M 157.077528 163.370917 
L 157.080659 163.372308 
L 157.080503 163.393607 
L 157.158664 163.404183 
L 157.249488 163.383101 
L 157.341721 163.395129 
L 157.459358 163.411463 
L 157.550583 163.406201 
L 157.584084 163.3731 
L 157.51809 163.336833 
L 157.532832 163.289712 
L 157.469099 163.271213 
L 157.391364 163.276309 
L 157.296374 163.253175 
L 157.328962 163.248313 
L 157.348105 163.251905 
L 157.36336 163.250792 
L 157.384485 163.240764 
L 157.412681 163.220221 
L 157.421813 163.21489 
L 157.432763 163.20628 
L 157.437424 163.195296 
L 157.464064 163.181728 
L 157.494843 163.178501 
L 157.516916 163.168152 
L 157.528814 163.164882 
L 157.555879 163.163508 
L 157.556053 163.16129 
L 157.528466 163.16256 
L 157.513124 163.166256 
L 157.492773 163.175127 
L 157.463029 163.178658 
L 157.43932 163.189486 
L 157.43311 163.194982 
L 157.428458 163.204541 
L 157.420952 163.213194 
L 157.409141 163.218795 
L 157.380867 163.239494 
L 157.362159 163.248261 
L 157.350175 163.249105 
L 157.332406 163.244721 
L 157.297748 163.249157 
L 157.288077 163.252366 
L 157.249297 163.266482 
L 157.213552 163.280093 
L 157.130807 163.289529 
L 157.11283 163.304845 
L 157.103246 163.31749 
L 157.077528 163.370917 
" style="fill:none;stroke:#ffc0cb;"/>
    <path clip-path="url(#pe83d3145b9)" d="M 157.620594 163.438685 
L 157.670664 163.450869 
L 157.686945 163.451 
L 157.718002 163.461262 
L 157.764532 163.450687 
L 157.817071 163.460636 
L 157.877716 163.461097 
L 157.924176 163.43364 
L 157.929551 163.424265 
L 157.933552 163.408349 
L 157.935674 163.400269 
L 157.904034 163.383762 
L 157.842493 163.377266 
L 157.785535 163.374726 
L 157.747703 163.365098 
L 157.696947 163.364324 
L 157.665193 163.361315 
L 157.625013 163.393981 
L 157.620594 163.438685 
" style="fill:none;stroke:#ffc0cb;"/>
    <path clip-path="url(#pe83d3145b9)" d="M 157.92889 163.532814 
L 157.929177 163.534779 
L 157.945102 163.537101 
L 157.956999 163.54218 
L 157.945858 163.542711 
L 157.931804 163.542389 
L 157.932273 163.54439 
L 157.946615 163.544677 
L 157.959443 163.544033 
L 157.954486 163.547894 
L 157.942945 163.551573 
L 157.945345 163.55293 
L 157.958687 163.549782 
L 157.963235 163.544068 
L 157.979855 163.545216 
L 157.997763 163.551504 
L 158.003946 163.582005 
L 158.007138 163.589128 
L 158.01981 163.597651 
L 158.036369 163.603869 
L 158.052468 163.607513 
L 158.072784 163.607844 
L 158.087343 163.612732 
L 158.102972 163.615019 
L 158.12221 163.611375 
L 158.1427 163.614471 
L 158.158486 163.620733 
L 158.17328 163.631465 
L 158.187412 163.638736 
L 158.201971 163.650216 
L 158.212025 163.661818 
L 158.216104 163.670385 
L 158.231733 163.676603 
L 158.233368 163.674603 
L 158.270635 163.673507 
L 158.292856 163.658244 
L 158.298501 163.630856 
L 158.279758 163.610366 
L 158.245614 163.597155 
L 158.189882 163.57576 
L 158.156268 163.577256 
L 158.121166 163.563358 
L 158.095197 163.553861 
L 158.065409 163.545711 
L 158.000615 163.539789 
L 158.001842 163.550217 
L 157.999224 163.54846 
L 157.981377 163.543102 
L 157.963948 163.54185 
L 157.945102 163.535353 
L 157.92889 163.532814 
" style="fill:none;stroke:#ffc0cb;"/>
   </g>
   <g id="matplotlib.axis_1">
    <g id="xtick_1">
     <g id="line2d_1">
      <defs>
       <path d="M 0 0 
L 0 3.5 
" id="m4c3eb6b7e6" style="stroke:#000000;stroke-width:0.8;"/>
      </defs>
      <g>
       <use style="stroke:#000000;stroke-width:0.8;" x="89.549648" xlink:href="#m4c3eb6b7e6" y="248.516519"/>
      </g>
     </g>
     <g id="text_1">
      <!-- 11.5 -->
      <defs>
       <path d="M 12.40625 8.296875 
L 28.515625 8.296875 
L 28.515625 63.921875 
L 10.984375 60.40625 
L 10.984375 69.390625 
L 28.421875 72.90625 
L 38.28125 72.90625 
L 38.28125 8.296875 
L 54.390625 8.296875 
L 54.390625 0 
L 12.40625 0 
z
" id="DejaVuSans-49"/>
       <path d="M 10.6875 12.40625 
L 21 12.40625 
L 21 0 
L 10.6875 0 
z
" id="DejaVuSans-46"/>
       <path d="M 10.796875 72.90625 
L 49.515625 72.90625 
L 49.515625 64.59375 
L 19.828125 64.59375 
L 19.828125 46.734375 
Q 21.96875 47.46875 24.109375 47.828125 
Q 26.265625 48.1875 28.421875 48.1875 
Q 40.625 48.1875 47.75 41.5 
Q 54.890625 34.8125 54.890625 23.390625 
Q 54.890625 11.625 47.5625 5.09375 
Q 40.234375 -1.421875 26.90625 -1.421875 
Q 22.3125 -1.421875 17.546875 -0.640625 
Q 12.796875 0.140625 7.71875 1.703125 
L 7.71875 11.625 
Q 12.109375 9.234375 16.796875 8.0625 
Q 21.484375 6.890625 26.703125 6.890625 
Q 35.15625 6.890625 40.078125 11.328125 
Q 45.015625 15.765625 45.015625 23.390625 
Q 45.015625 31 40.078125 35.4375 
Q 35.15625 39.890625 26.703125 39.890625 
Q 22.75 39.890625 18.8125 39.015625 
Q 14.890625 38.140625 10.796875 36.28125 
z
" id="DejaVuSans-53"/>
      </defs>
      <g transform="translate(78.416835 263.114957)scale(0.1 -0.1)">
       <use xlink:href="#DejaVuSans-49"/>
       <use x="63.623047" xlink:href="#DejaVuSans-49"/>
       <use x="127.246094" xlink:href="#DejaVuSans-46"/>
       <use x="159.033203" xlink:href="#DejaVuSans-53"/>
      </g>
     </g>
    </g>
    <g id="xtick_2">
     <g id="line2d_2">
      <g>
       <use style="stroke:#000000;stroke-width:0.8;" x="133.035285" xlink:href="#m4c3eb6b7e6" y="248.516519"/>
      </g>
     </g>
     <g id="text_2">
      <!-- 12.0 -->
      <defs>
       <path d="M 19.1875 8.296875 
L 53.609375 8.296875 
L 53.609375 0 
L 7.328125 0 
L 7.328125 8.296875 
Q 12.9375 14.109375 22.625 23.890625 
Q 32.328125 33.6875 34.8125 36.53125 
Q 39.546875 41.84375 41.421875 45.53125 
Q 43.3125 49.21875 43.3125 52.78125 
Q 43.3125 58.59375 39.234375 62.25 
Q 35.15625 65.921875 28.609375 65.921875 
Q 23.96875 65.921875 18.8125 64.3125 
Q 13.671875 62.703125 7.8125 59.421875 
L 7.8125 69.390625 
Q 13.765625 71.78125 18.9375 73 
Q 24.125 74.21875 28.421875 74.21875 
Q 39.75 74.21875 46.484375 68.546875 
Q 53.21875 62.890625 53.21875 53.421875 
Q 53.21875 48.921875 51.53125 44.890625 
Q 49.859375 40.875 45.40625 35.40625 
Q 44.1875 33.984375 37.640625 27.21875 
Q 31.109375 20.453125 19.1875 8.296875 
z
" id="DejaVuSans-50"/>
       <path d="M 31.78125 66.40625 
Q 24.171875 66.40625 20.328125 58.90625 
Q 16.5 51.421875 16.5 36.375 
Q 16.5 21.390625 20.328125 13.890625 
Q 24.171875 6.390625 31.78125 6.390625 
Q 39.453125 6.390625 43.28125 13.890625 
Q 47.125 21.390625 47.125 36.375 
Q 47.125 51.421875 43.28125 58.90625 
Q 39.453125 66.40625 31.78125 66.40625 
z
M 31.78125 74.21875 
Q 44.046875 74.21875 50.515625 64.515625 
Q 56.984375 54.828125 56.984375 36.375 
Q 56.984375 17.96875 50.515625 8.265625 
Q 44.046875 -1.421875 31.78125 -1.421875 
Q 19.53125 -1.421875 13.0625 8.265625 
Q 6.59375 17.96875 6.59375 36.375 
Q 6.59375 54.828125 13.0625 64.515625 
Q 19.53125 74.21875 31.78125 74.21875 
z
" id="DejaVuSans-48"/>
      </defs>
      <g transform="translate(121.902473 263.114957)scale(0.1 -0.1)">
       <use xlink:href="#DejaVuSans-49"/>
       <use x="63.623047" xlink:href="#DejaVuSans-50"/>
       <use x="127.246094" xlink:href="#DejaVuSans-46"/>
       <use x="159.033203" xlink:href="#DejaVuSans-48"/>
      </g>
     </g>
    </g>
    <g id="xtick_3">
     <g id="line2d_3">
      <g>
       <use style="stroke:#000000;stroke-width:0.8;" x="176.520922" xlink:href="#m4c3eb6b7e6" y="248.516519"/>
      </g>
     </g>
     <g id="text_3">
      <!-- 12.5 -->
      <g transform="translate(165.38811 263.114957)scale(0.1 -0.1)">
       <use xlink:href="#DejaVuSans-49"/>
       <use x="63.623047" xlink:href="#DejaVuSans-50"/>
       <use x="127.246094" xlink:href="#DejaVuSans-46"/>
       <use x="159.033203" xlink:href="#DejaVuSans-53"/>
      </g>
     </g>
    </g>
    <g id="xtick_4">
     <g id="line2d_4">
      <g>
       <use style="stroke:#000000;stroke-width:0.8;" x="220.006559" xlink:href="#m4c3eb6b7e6" y="248.516519"/>
      </g>
     </g>
     <g id="text_4">
      <!-- 13.0 -->
      <defs>
       <path d="M 40.578125 39.3125 
Q 47.65625 37.796875 51.625 33 
Q 55.609375 28.21875 55.609375 21.1875 
Q 55.609375 10.40625 48.1875 4.484375 
Q 40.765625 -1.421875 27.09375 -1.421875 
Q 22.515625 -1.421875 17.65625 -0.515625 
Q 12.796875 0.390625 7.625 2.203125 
L 7.625 11.71875 
Q 11.71875 9.328125 16.59375 8.109375 
Q 21.484375 6.890625 26.8125 6.890625 
Q 36.078125 6.890625 40.9375 10.546875 
Q 45.796875 14.203125 45.796875 21.1875 
Q 45.796875 27.640625 41.28125 31.265625 
Q 36.765625 34.90625 28.71875 34.90625 
L 20.21875 34.90625 
L 20.21875 43.015625 
L 29.109375 43.015625 
Q 36.375 43.015625 40.234375 45.921875 
Q 44.09375 48.828125 44.09375 54.296875 
Q 44.09375 59.90625 40.109375 62.90625 
Q 36.140625 65.921875 28.71875 65.921875 
Q 24.65625 65.921875 20.015625 65.03125 
Q 15.375 64.15625 9.8125 62.3125 
L 9.8125 71.09375 
Q 15.4375 72.65625 20.34375 73.4375 
Q 25.25 74.21875 29.59375 74.21875 
Q 40.828125 74.21875 47.359375 69.109375 
Q 53.90625 64.015625 53.90625 55.328125 
Q 53.90625 49.265625 50.4375 45.09375 
Q 46.96875 40.921875 40.578125 39.3125 
z
" id="DejaVuSans-51"/>
      </defs>
      <g transform="translate(208.873747 263.114957)scale(0.1 -0.1)">
       <use xlink:href="#DejaVuSans-49"/>
       <use x="63.623047" xlink:href="#DejaVuSans-51"/>
       <use x="127.246094" xlink:href="#DejaVuSans-46"/>
       <use x="159.033203" xlink:href="#DejaVuSans-48"/>
      </g>
     </g>
    </g>
    <g id="xtick_5">
     <g id="line2d_5">
      <g>
       <use style="stroke:#000000;stroke-width:0.8;" x="263.492196" xlink:href="#m4c3eb6b7e6" y="248.516519"/>
      </g>
     </g>
     <g id="text_5">
      <!-- 13.5 -->
      <g transform="translate(252.359384 263.114957)scale(0.1 -0.1)">
       <use xlink:href="#DejaVuSans-49"/>
       <use x="63.623047" xlink:href="#DejaVuSans-51"/>
       <use x="127.246094" xlink:href="#DejaVuSans-46"/>
       <use x="159.033203" xlink:href="#DejaVuSans-53"/>
      </g>
     </g>
    </g>
    <g id="xtick_6">
     <g id="line2d_6">
      <g>
       <use style="stroke:#000000;stroke-width:0.8;" x="306.977834" xlink:href="#m4c3eb6b7e6" y="248.516519"/>
      </g>
     </g>
     <g id="text_6">
      <!-- 14.0 -->
      <defs>
       <path d="M 37.796875 64.3125 
L 12.890625 25.390625 
L 37.796875 25.390625 
z
M 35.203125 72.90625 
L 47.609375 72.90625 
L 47.609375 25.390625 
L 58.015625 25.390625 
L 58.015625 17.1875 
L 47.609375 17.1875 
L 47.609375 0 
L 37.796875 0 
L 37.796875 17.1875 
L 4.890625 17.1875 
L 4.890625 26.703125 
z
" id="DejaVuSans-52"/>
      </defs>
      <g transform="translate(295.845021 263.114957)scale(0.1 -0.1)">
       <use xlink:href="#DejaVuSans-49"/>
       <use x="63.623047" xlink:href="#DejaVuSans-52"/>
       <use x="127.246094" xlink:href="#DejaVuSans-46"/>
       <use x="159.033203" xlink:href="#DejaVuSans-48"/>
      </g>
     </g>
    </g>
    <g id="xtick_7">
     <g id="line2d_7">
      <g>
       <use style="stroke:#000000;stroke-width:0.8;" x="350.463471" xlink:href="#m4c3eb6b7e6" y="248.516519"/>
      </g>
     </g>
     <g id="text_7">
      <!-- 14.5 -->
      <g transform="translate(339.330658 263.114957)scale(0.1 -0.1)">
       <use xlink:href="#DejaVuSans-49"/>
       <use x="63.623047" xlink:href="#DejaVuSans-52"/>
       <use x="127.246094" xlink:href="#DejaVuSans-46"/>
       <use x="159.033203" xlink:href="#DejaVuSans-53"/>
      </g>
     </g>
    </g>
   </g>
   <g id="matplotlib.axis_2">
    <g id="ytick_1">
     <g id="line2d_8">
      <defs>
       <path d="M 0 0 
L -3.5 0 
" id="me049be3314" style="stroke:#000000;stroke-width:0.8;"/>
      </defs>
      <g>
       <use style="stroke:#000000;stroke-width:0.8;" x="54" xlink:href="#me049be3314" y="226.692179"/>
      </g>
     </g>
     <g id="text_8">
      <!-- 51.5 -->
      <g transform="translate(24.734375 230.491398)scale(0.1 -0.1)">
       <use xlink:href="#DejaVuSans-53"/>
       <use x="63.623047" xlink:href="#DejaVuSans-49"/>
       <use x="127.246094" xlink:href="#DejaVuSans-46"/>
       <use x="159.033203" xlink:href="#DejaVuSans-53"/>
      </g>
     </g>
    </g>
    <g id="ytick_2">
     <g id="line2d_9">
      <g>
       <use style="stroke:#000000;stroke-width:0.8;" x="54" xlink:href="#me049be3314" y="183.206542"/>
      </g>
     </g>
     <g id="text_9">
      <!-- 52.0 -->
      <g transform="translate(24.734375 187.005761)scale(0.1 -0.1)">
       <use xlink:href="#DejaVuSans-53"/>
       <use x="63.623047" xlink:href="#DejaVuSans-50"/>
       <use x="127.246094" xlink:href="#DejaVuSans-46"/>
       <use x="159.033203" xlink:href="#DejaVuSans-48"/>
      </g>
     </g>
    </g>
    <g id="ytick_3">
     <g id="line2d_10">
      <g>
       <use style="stroke:#000000;stroke-width:0.8;" x="54" xlink:href="#me049be3314" y="139.720905"/>
      </g>
     </g>
     <g id="text_10">
      <!-- 52.5 -->
      <g transform="translate(24.734375 143.520124)scale(0.1 -0.1)">
       <use xlink:href="#DejaVuSans-53"/>
       <use x="63.623047" xlink:href="#DejaVuSans-50"/>
       <use x="127.246094" xlink:href="#DejaVuSans-46"/>
       <use x="159.033203" xlink:href="#DejaVuSans-53"/>
      </g>
     </g>
    </g>
    <g id="ytick_4">
     <g id="line2d_11">
      <g>
       <use style="stroke:#000000;stroke-width:0.8;" x="54" xlink:href="#me049be3314" y="96.235268"/>
      </g>
     </g>
     <g id="text_11">
      <!-- 53.0 -->
      <g transform="translate(24.734375 100.034487)scale(0.1 -0.1)">
       <use xlink:href="#DejaVuSans-53"/>
       <use x="63.623047" xlink:href="#DejaVuSans-51"/>
       <use x="127.246094" xlink:href="#DejaVuSans-46"/>
       <use x="159.033203" xlink:href="#DejaVuSans-48"/>
      </g>
     </g>
    </g>
    <g id="ytick_5">
     <g id="line2d_12">
      <g>
       <use style="stroke:#000000;stroke-width:0.8;" x="54" xlink:href="#me049be3314" y="52.749631"/>
      </g>
     </g>
     <g id="text_12">
      <!-- 53.5 -->
      <g transform="translate(24.734375 56.548849)scale(0.1 -0.1)">
       <use xlink:href="#DejaVuSans-53"/>
       <use x="63.623047" xlink:href="#DejaVuSans-51"/>
       <use x="127.246094" xlink:href="#DejaVuSans-46"/>
       <use x="159.033203" xlink:href="#DejaVuSans-53"/>
      </g>
     </g>
    </g>
   </g>
   <g id="patch_3">
    <path d="M 54 248.516519 
L 54 38.043481 
" style="fill:none;stroke:#000000;stroke-linecap:square;stroke-linejoin:miter;stroke-width:0.8;"/>
   </g>
   <g id="patch_4">
    <path d="M 388.8 248.516519 
L 388.8 38.043481 
" style="fill:none;stroke:#000000;stroke-linecap:square;stroke-linejoin:miter;stroke-width:0.8;"/>
   </g>
   <g id="patch_5">
    <path d="M 54 248.516519 
L 388.8 248.516519 
" style="fill:none;stroke:#000000;stroke-linecap:square;stroke-linejoin:miter;stroke-width:0.8;"/>
   </g>
   <g id="patch_6">
    <path d="M 54 38.043481 
L 388.8 38.043481 
" style="fill:none;stroke:#000000;stroke-linecap:square;stroke-linejoin:miter;stroke-width:0.8;"/>
   </g>
  </g>
 </g>
 <defs>
  <clipPath id="pe83d3145b9">
   <rect height="210.473038" width="334.8" x="54" y="38.043481"/>
  </clipPath>
 </defs>
</svg>
