<?xml version="1.0" encoding="utf-8" standalone="no"?>
<!DOCTYPE svg PUBLIC "-//W3C//DTD SVG 1.1//EN"
  "http://www.w3.org/Graphics/SVG/1.1/DTD/svg11.dtd">
<!-- Created with matplotlib (https://matplotlib.org/) -->
<svg height="288pt" version="1.1" viewBox="0 0 432 288" width="432pt" xmlns="http://www.w3.org/2000/svg" xmlns:xlink="http://www.w3.org/1999/xlink">
 <defs>
  <style type="text/css">
*{stroke-linecap:butt;stroke-linejoin:round;}
  </style>
 </defs>
 <g id="figure_1">
  <g id="patch_1">
   <path d="M 0 288 
L 432 288 
L 432 0 
L 0 0 
z
" style="fill:#ffffff;"/>
  </g>
  <g id="axes_1">
   <g id="patch_2">
    <path d="M 54 238.270582 
L 388.8 238.270582 
L 388.8 48.289418 
L 54 48.289418 
z
" style="fill:#ffffff;"/>
   </g>
   <g id="PatchCollection_1">
    <path clip-path="url(#p17484cc456)" d="M 324.094199 229.58618 
L 373.338302 229.313693 
L 373.581818 151.812647 
L 356.71192 151.90725 
L 355.420612 154.927483 
L 350.549233 166.362054 
L 345.70016 177.800256 
L 340.879054 189.247945 
L 336.081315 200.703756 
L 331.310525 212.166041 
L 326.554774 223.622972 
L 324.094199 229.58618 
" style="fill:none;stroke:#0000ff;stroke-opacity:0.2;"/>
   </g>
   <g id="PatchCollection_2">
    <path clip-path="url(#p17484cc456)" d="M 69.218182 91.234314 
L 69.463357 91.665645 
L 69.407705 92.076368 
L 69.382584 92.758777 
L 69.600408 93.049256 
L 70.2923 93.585703 
L 71.23089 94.158591 
L 73.061313 95.008943 
L 74.239394 96.135141 
L 74.88387 96.476969 
L 75.325986 96.546249 
L 76.168872 96.49048 
L 80.660844 95.030641 
L 82.051905 94.897625 
L 83.05581 94.668629 
L 83.832266 94.692636 
L 84.687972 94.956754 
L 85.833411 95.71674 
L 87.990959 96.984252 
L 88.721835 97.133974 
L 89.757691 97.110588 
L 91.516118 96.733048 
L 91.733464 96.852845 
L 92.560123 97.528055 
L 93.511878 97.854394 
L 94.588885 98.054791 
L 95.246463 98.004423 
L 97.000156 97.557023 
L 97.911262 97.578038 
L 98.635607 97.894125 
L 98.68928 98.219177 
L 98.443077 98.459273 
L 97.44579 99.278207 
L 97.412513 99.688373 
L 97.695864 100.016943 
L 98.29301 100.292467 
L 99.080865 100.410191 
L 99.886689 100.287655 
L 100.784606 100.06954 
L 101.32223 100.131527 
L 101.778768 100.450236 
L 102.045649 100.866038 
L 102.006806 101.526568 
L 102.037438 101.872753 
L 102.2938 102.253559 
L 102.647294 102.451522 
L 103.499467 102.58307 
L 104.453639 102.266865 
L 104.692275 102.097101 
L 106.177148 101.720307 
L 107.081801 101.856833 
L 107.879147 102.088843 
L 108.573818 102.517143 
L 108.951868 102.978791 
L 109.679777 103.638293 
L 110.615784 104.00704 
L 112.013416 104.128517 
L 113.643411 104.187952 
L 114.451293 104.464591 
L 114.912988 104.799134 
L 114.944657 105.277214 
L 114.671189 105.626351 
L 114.204477 105.910456 
L 113.720486 106.135047 
L 113.078044 106.740875 
L 112.966985 107.12479 
L 113.255847 107.573383 
L 113.828837 107.869546 
L 114.629857 107.956536 
L 116.858623 107.988667 
L 117.216474 108.17319 
L 118.266421 109.007629 
L 119.051725 109.232354 
L 120.333902 109.315317 
L 121.778738 109.430835 
L 122.750896 109.652058 
L 123.517892 110.180576 
L 123.647792 110.310343 
L 123.801063 110.2555 
L 123.758349 110.163674 
L 123.753819 110.115787 
L 123.801652 110.138781 
L 124.42837 110.304588 
L 125.846586 110.483592 
L 125.866879 110.321961 
L 126.068327 110.135287 
L 126.651766 110.086191 
L 127.282009 110.055724 
L 127.368787 109.654185 
L 127.448822 109.6717 
L 128.818828 109.489289 
L 129.077639 109.602554 
L 130.625684 109.69478 
L 130.657196 109.743962 
L 130.738478 109.703321 
L 131.209642 109.52573 
L 131.300918 109.575674 
L 132.04284 109.706547 
L 132.013833 109.75124 
L 132.135066 109.755612 
L 132.037934 109.936791 
L 132.159002 109.938463 
L 132.70337 109.791865 
L 132.876015 109.751844 
L 133.231998 110.077823 
L 133.355869 110.488672 
L 134.332486 110.435839 
L 134.950537 110.455056 
L 135.677159 110.564098 
L 136.121631 109.627612 
L 136.669987 109.110987 
L 136.668708 109.115022 
L 136.927613 109.170564 
L 136.630186 109.396646 
L 136.432851 109.630446 
L 136.272256 110.577004 
L 137.285213 111.354402 
L 136.552475 112.290809 
L 136.788033 112.317469 
L 137.249439 112.136628 
L 139.021149 111.755485 
L 140.20854 111.481916 
L 140.773586 111.225216 
L 142.291454 110.401101 
L 142.299964 110.423969 
L 142.580983 111.014874 
L 143.000844 111.246813 
L 143.191192 111.340617 
L 143.167194 111.351702 
L 143.290837 111.634213 
L 143.678551 111.662081 
L 143.917752 111.338764 
L 144.572378 111.519213 
L 145.209317 111.919997 
L 145.138735 112.093114 
L 144.985904 112.381246 
L 145.144253 112.708245 
L 145.509413 113.174925 
L 145.470625 113.491209 
L 146.47566 115.592689 
L 147.067829 116.130518 
L 146.641656 116.228867 
L 146.906347 116.631269 
L 146.28112 116.853481 
L 146.283663 117.287826 
L 145.851728 117.590034 
L 145.657691 117.481636 
L 144.181461 117.315821 
L 144.096033 117.319903 
L 144.249775 117.418983 
L 144.368629 117.540907 
L 144.279088 118.499483 
L 144.095971 118.574054 
L 143.730434 118.521629 
L 143.506895 118.7097 
L 143.689165 119.344332 
L 143.713501 119.365614 
L 143.627822 119.363079 
L 143.130933 119.398813 
L 142.9818 119.617972 
L 143.336361 120.239093 
L 143.983914 120.334067 
L 144.099071 120.508329 
L 144.118603 120.782017 
L 144.164928 120.86713 
L 144.114851 120.909907 
L 143.91823 120.947039 
L 144.030632 121.034162 
L 144.24563 121.265097 
L 144.199713 121.29021 
L 144.006469 121.464551 
L 144.048382 121.517219 
L 143.9381 121.518161 
L 143.298789 121.625939 
L 143.104768 121.899657 
L 142.61255 122.148742 
L 142.857198 122.173368 
L 143.004801 122.285605 
L 142.74537 122.355073 
L 142.790415 122.441725 
L 143.007988 122.409672 
L 142.857834 122.527553 
L 142.335016 122.956749 
L 142.530615 122.978533 
L 142.99458 122.841513 
L 143.336181 123.031939 
L 143.310282 123.155653 
L 142.93107 123.412604 
L 143.37471 123.657354 
L 143.876765 123.745616 
L 143.94953 123.871677 
L 144.337675 124.065401 
L 144.40997 124.16689 
L 144.335407 124.202845 
L 143.881177 124.393899 
L 144.007638 124.805996 
L 144.318552 125.28607 
L 144.756061 125.248624 
L 145.050873 125.196191 
L 145.038164 125.383085 
L 144.646187 125.742121 
L 144.74069 125.804681 
L 145.292963 126.067087 
L 145.292099 126.267719 
L 145.60317 126.644725 
L 145.496123 127.140028 
L 145.41904 127.073857 
L 145.308758 127.07151 
L 145.253735 127.184932 
L 145.353285 127.223085 
L 145.495024 127.32134 
L 145.167286 127.533763 
L 145.22304 127.615219 
L 145.279617 127.888843 
L 145.281258 127.938293 
L 145.115419 128.109415 
L 145.289799 128.420831 
L 145.49091 128.684525 
L 145.399422 128.974195 
L 144.969316 129.082326 
L 144.962415 129.878958 
L 145.417226 129.878848 
L 145.235255 129.98281 
L 144.258913 130.101178 
L 143.359873 130.289885 
L 143.016553 130.455434 
L 142.758009 130.757642 
L 141.862259 130.643207 
L 139.927324 130.061039 
L 139.989632 130.956201 
L 140.585303 130.838673 
L 140.439615 130.930821 
L 140.181221 131.505954 
L 140.302713 131.680546 
L 140.611578 131.685767 
L 140.436483 132.570621 
L 140.42408 133.408435 
L 140.522657 133.849618 
L 140.878435 134.122811 
L 141.071955 134.162534 
L 140.979603 134.231711 
L 139.12062 135.635749 
L 138.746653 136.587041 
L 138.188492 137.130985 
L 138.072039 137.261623 
L 138.178843 137.347074 
L 138.17725 137.501028 
L 138.067502 137.664668 
L 138.056527 137.864327 
L 138.164595 137.757837 
L 138.391973 137.750214 
L 138.966015 137.726247 
L 139.149942 137.524367 
L 139.309783 137.346901 
L 139.93877 137.162936 
L 140.317118 137.049836 
L 140.467822 137.031646 
L 141.018831 137.410411 
L 141.27951 137.44876 
L 141.638775 137.537563 
L 141.559297 137.620196 
L 141.460461 137.827045 
L 141.242739 138.005037 
L 140.75878 138.237321 
L 140.46111 138.599451 
L 139.941714 138.913709 
L 140.000623 138.998846 
L 140.207692 139.542343 
L 140.813497 139.915902 
L 141.209948 140.252911 
L 141.396159 140.372723 
L 141.986232 140.154027 
L 142.349751 140.175153 
L 142.555038 140.282797 
L 142.565 140.254873 
L 143.003671 140.180161 
L 143.317057 139.878189 
L 143.483454 139.786198 
L 143.503182 139.834313 
L 143.960889 140.009227 
L 144.288548 139.874884 
L 144.373238 139.803611 
L 144.708754 139.575141 
L 144.691908 139.55579 
L 144.414185 139.133786 
L 144.565368 139.024603 
L 144.998402 138.80853 
L 145.082463 138.524621 
L 144.991352 138.306161 
L 145.354361 138.193312 
L 146.219259 138.598313 
L 147.008378 138.604938 
L 147.144236 138.849524 
L 147.213131 139.741169 
L 147.516085 139.828371 
L 148.02321 139.995772 
L 147.906075 140.067799 
L 147.395998 140.438603 
L 147.566453 140.466637 
L 148.032772 140.599912 
L 148.331997 141.024083 
L 148.810783 140.960386 
L 149.009844 140.892221 
L 149.544525 140.663665 
L 149.980385 140.587658 
L 149.949541 140.538829 
L 150.037842 140.43522 
L 150.31978 140.402876 
L 151.231003 140.783799 
L 152.496435 140.351676 
L 152.745096 140.358898 
L 152.736303 140.425619 
L 152.659134 140.664576 
L 152.402019 140.737718 
L 152.256418 140.708365 
L 151.687039 140.773358 
L 151.412158 140.837731 
L 151.038395 141.609179 
L 151.149391 141.783748 
L 151.459669 141.88132 
L 151.759192 142.003848 
L 152.006133 141.964597 
L 152.347569 141.836172 
L 152.566555 141.677454 
L 152.789945 141.772985 
L 152.349461 142.315853 
L 152.298606 142.927413 
L 151.519583 143.235178 
L 151.565374 143.322781 
L 151.734526 143.536452 
L 151.515587 143.840371 
L 150.709268 143.927282 
L 150.748881 144.106027 
L 150.750443 144.182113 
L 150.587022 144.325139 
L 150.66938 144.320342 
L 150.961304 144.476502 
L 150.8885 144.522105 
L 150.546593 144.970957 
L 150.53455 145.245963 
L 149.925386 145.42317 
L 149.523847 145.509759 
L 150.159719 146.04148 
L 150.050583 146.058272 
L 149.537593 146.219377 
L 148.38804 146.747095 
L 148.516527 146.987881 
L 149.589555 147.284052 
L 150.089019 147.302979 
L 150.367016 147.248081 
L 150.551201 147.501036 
L 150.517499 147.894653 
L 150.578002 148.221856 
L 150.414565 148.317961 
L 150.021403 148.539616 
L 149.821627 149.093946 
L 149.941283 149.395306 
L 150.887707 149.667329 
L 150.72986 149.76549 
L 150.563157 150.057947 
L 150.396572 150.185257 
L 149.565124 150.27008 
L 149.248229 150.368076 
L 149.123667 150.65255 
L 149.204212 150.772291 
L 149.768998 151.21254 
L 150.08726 151.490694 
L 150.247517 151.595889 
L 150.206656 151.771133 
L 150.695349 152.026395 
L 151.008171 152.264363 
L 150.247847 153.053262 
L 149.509764 154.000385 
L 149.03137 154.222786 
L 148.767245 154.54776 
L 147.601285 155.981888 
L 147.491152 156.260521 
L 147.315994 156.537043 
L 147.314134 156.536297 
L 146.595088 157.694163 
L 146.513059 157.915575 
L 146.52149 158.119857 
L 146.594436 158.457399 
L 146.687345 158.677429 
L 146.807636 158.783661 
L 146.758744 158.834876 
L 146.177636 159.562652 
L 146.087569 159.704077 
L 146.934663 159.773953 
L 146.800029 159.873817 
L 147.410913 159.957549 
L 147.072696 160.223551 
L 147.144574 160.240963 
L 147.639108 160.296599 
L 147.668813 160.225184 
L 148.084789 160.328589 
L 147.860865 160.371931 
L 147.849812 160.419904 
L 147.955485 160.437324 
L 148.222782 160.541452 
L 148.210481 160.56286 
L 148.308979 160.640084 
L 148.464087 160.729837 
L 148.32026 160.756316 
L 147.398588 160.807658 
L 147.375335 160.828335 
L 147.429228 160.909084 
L 147.630551 160.945267 
L 148.085911 160.869008 
L 148.470446 160.838046 
L 148.576967 160.885722 
L 149.264542 161.009593 
L 149.258081 161.047635 
L 149.268278 161.177936 
L 149.334308 161.164645 
L 149.496536 161.309704 
L 149.574215 161.296217 
L 149.596926 161.266488 
L 150.148603 161.349207 
L 149.939234 161.43896 
L 148.974683 162.178653 
L 149.049434 162.186041 
L 148.89475 162.299117 
L 148.590187 162.311113 
L 147.656528 162.381507 
L 147.134439 162.366097 
L 146.161543 162.908573 
L 146.230736 163.079828 
L 146.63401 163.160852 
L 146.718063 163.158026 
L 146.693625 163.251312 
L 146.352802 163.692494 
L 146.258432 163.778943 
L 145.799618 163.970091 
L 145.81473 163.973121 
L 146.021328 164.707319 
L 146.256854 164.897785 
L 146.195158 164.916728 
L 145.651199 164.995961 
L 144.740925 164.698919 
L 143.782184 165.927635 
L 144.198857 166.301964 
L 145.166682 166.53899 
L 145.011103 167.160378 
L 145.038219 167.16154 
L 145.829708 168.106779 
L 146.097209 168.40211 
L 146.483039 168.604531 
L 147.627984 169.067962 
L 147.679498 169.350575 
L 147.899944 169.590906 
L 147.974099 170.019811 
L 148.266807 170.787051 
L 148.436187 170.996334 
L 148.575798 171.178674 
L 149.182427 171.17325 
L 150.024967 171.57153 
L 150.67614 171.819178 
L 151.607169 172.054053 
L 152.280378 173.183611 
L 152.629664 173.775889 
L 153.086076 174.188748 
L 153.674053 174.449985 
L 154.379361 174.952102 
L 154.972464 175.60895 
L 155.290765 175.683709 
L 157.400355 175.896823 
L 158.131781 176.559739 
L 158.494084 176.765756 
L 159.133425 177.122453 
L 159.901788 177.319474 
L 160.537581 177.880076 
L 161.436157 178.002291 
L 162.166917 177.952912 
L 162.255924 177.762085 
L 162.346808 177.278479 
L 163.08866 176.592813 
L 164.164976 176.649186 
L 164.560878 176.714902 
L 164.601975 177.135257 
L 164.917654 177.977986 
L 165.247816 178.133282 
L 165.989252 178.603778 
L 166.861577 178.798514 
L 168.8857 179.08937 
L 168.836336 179.258404 
L 169.064162 179.603459 
L 169.229499 180.147647 
L 169.169373 180.502899 
L 169.220094 180.501973 
L 172.479393 180.664829 
L 174.321113 180.759308 
L 175.118537 180.706491 
L 175.073021 180.578922 
L 175.034491 180.469206 
L 175.165325 180.458553 
L 175.021153 179.970747 
L 175.176418 179.947407 
L 176.441065 179.836223 
L 177.44139 179.656285 
L 177.601977 179.151836 
L 177.686439 179.083946 
L 177.791752 178.64825 
L 178.289779 178.31103 
L 179.28537 178.293995 
L 179.67697 178.453334 
L 180.386517 179.052309 
L 181.011548 179.103179 
L 181.771526 179.129274 
L 182.690451 179.339436 
L 182.601993 179.49156 
L 182.98374 179.686924 
L 184.542085 180.242723 
L 184.680157 180.152153 
L 185.391212 180.227352 
L 186.040422 180.367222 
L 186.254548 180.466277 
L 186.562683 180.770267 
L 187.024748 180.934403 
L 187.548124 181.003093 
L 187.798739 181.218248 
L 187.750059 182.071976 
L 189.326247 182.283943 
L 191.004797 182.232437 
L 191.753431 182.064863 
L 193.039745 181.867277 
L 193.10718 181.870496 
L 193.438081 182.523128 
L 193.575007 182.612348 
L 193.901331 184.424966 
L 196.156764 184.488248 
L 196.597256 184.435485 
L 196.600703 184.473889 
L 196.736922 184.947949 
L 198.055792 184.845345 
L 198.647976 184.716591 
L 198.807079 184.082219 
L 199.564467 184.178692 
L 200.678615 184.311073 
L 201.582828 184.404469 
L 202.235617 184.427266 
L 202.219861 184.513157 
L 201.893773 185.385756 
L 201.949047 185.390019 
L 203.483213 185.608259 
L 203.475998 185.643845 
L 203.211213 187.091201 
L 204.278455 186.854301 
L 205.312513 186.911938 
L 206.613947 187.108268 
L 207.046243 187.433666 
L 207.046431 187.244676 
L 207.105741 186.912896 
L 208.91503 187.254112 
L 209.111439 187.81875 
L 208.264109 187.889168 
L 208.315608 188.654327 
L 208.268984 188.720875 
L 207.438086 188.657302 
L 207.503864 188.864419 
L 207.804549 188.984482 
L 208.487193 189.471472 
L 210.142937 189.611365 
L 211.69793 189.617229 
L 212.039405 189.233551 
L 213.291672 189.232247 
L 213.93362 189.1592 
L 214.247784 189.142557 
L 214.254072 189.010616 
L 214.664693 188.902328 
L 214.741525 188.495035 
L 215.71614 188.545458 
L 215.700055 188.771093 
L 216.219294 188.772224 
L 216.317415 189.03737 
L 216.568054 189.156554 
L 216.687081 189.316521 
L 217.061881 189.338149 
L 217.202403 189.99597 
L 217.106385 190.348624 
L 215.011703 190.632651 
L 215.170194 191.070057 
L 215.757323 191.963264 
L 215.829688 192.105481 
L 215.985109 192.454642 
L 216.520159 192.968252 
L 216.469767 192.99799 
L 216.321395 193.091056 
L 216.717274 193.474358 
L 217.027638 193.455658 
L 217.076671 193.510289 
L 216.897298 193.622447 
L 216.962731 193.681419 
L 217.471505 193.986476 
L 218.059796 194.902174 
L 217.881381 195.065164 
L 217.907138 195.090261 
L 217.96001 195.235603 
L 217.940157 195.252418 
L 217.751866 195.213104 
L 217.777968 195.230642 
L 218.161819 195.615883 
L 217.968857 195.801858 
L 217.885942 195.963183 
L 218.712766 196.031834 
L 218.625439 196.370452 
L 217.844327 196.368623 
L 217.836869 196.497094 
L 217.978537 196.585222 
L 217.868616 196.994211 
L 217.591435 197.203085 
L 217.003208 197.55614 
L 216.890516 197.646929 
L 217.005319 197.668463 
L 217.540581 197.821937 
L 217.385034 197.850403 
L 217.059966 198.212611 
L 217.175319 198.250363 
L 218.177183 198.68737 
L 218.14834 198.845735 
L 218.013652 198.91379 
L 217.742147 198.89586 
L 217.737546 198.938958 
L 217.613597 199.055081 
L 217.584323 199.178072 
L 217.659004 199.197345 
L 217.734367 199.326892 
L 217.581787 199.250798 
L 217.490535 199.375525 
L 217.313603 199.403857 
L 217.530603 199.454994 
L 218.417404 199.73442 
L 218.505807 200.043984 
L 218.443561 200.066828 
L 218.635872 200.114833 
L 218.789582 200.162155 
L 219.222914 200.323786 
L 219.416402 200.544201 
L 219.921832 201.173957 
L 219.779521 201.164694 
L 219.803307 201.346728 
L 219.99656 201.638409 
L 219.983065 201.638409 
L 219.130641 201.501671 
L 219.0709 201.445768 
L 218.69409 201.480436 
L 218.473785 201.45303 
L 218.709131 201.833003 
L 218.762482 202.023932 
L 218.517111 202.196939 
L 217.80743 201.945656 
L 217.43004 202.048096 
L 217.630522 202.525107 
L 217.966722 203.245065 
L 217.968449 203.257617 
L 217.605974 203.282189 
L 217.62363 203.303149 
L 218.071901 203.520581 
L 217.887214 203.610373 
L 217.482512 203.744607 
L 217.439696 203.937749 
L 209.320353 206.984618 
L 209.452882 207.116904 
L 211.406886 209.070358 
L 211.306534 209.126943 
L 211.31002 209.171471 
L 211.745056 209.402994 
L 212.156556 210.095004 
L 212.874582 210.177244 
L 213.057433 210.112023 
L 212.96052 210.03819 
L 212.917594 209.987446 
L 213.327862 209.88452 
L 213.47596 209.993349 
L 213.578791 209.965912 
L 213.435852 209.786759 
L 213.134924 209.852003 
L 213.118768 209.616798 
L 212.956344 209.449115 
L 213.496708 209.431067 
L 213.713904 209.809007 
L 214.09858 209.7208 
L 214.042677 209.625685 
L 214.015452 209.559718 
L 214.34242 209.488484 
L 214.403009 209.32504 
L 214.697374 209.266287 
L 214.639368 209.167075 
L 214.788156 209.133624 
L 214.777778 209.203147 
L 215.107321 209.593781 
L 215.596673 210.023707 
L 216.821848 210.88121 
L 217.460845 210.720992 
L 218.014939 211.34479 
L 217.439594 211.594565 
L 217.4502 211.928716 
L 217.238671 212.230923 
L 216.675345 212.712182 
L 216.42692 212.966424 
L 216.489872 212.990682 
L 216.518997 213.233776 
L 216.861705 213.572794 
L 217.720009 213.528832 
L 218.166051 213.974568 
L 219.893233 214.019009 
L 220.299223 215.524144 
L 221.418591 216.639532 
L 221.657674 216.665666 
L 221.566092 217.341402 
L 221.670831 217.652857 
L 221.629389 217.914423 
L 221.580128 218.190223 
L 221.186989 218.251636 
L 221.339585 218.673734 
L 221.148648 218.726874 
L 221.187107 218.80471 
L 221.232231 218.855219 
L 221.173503 218.885388 
L 220.760707 219.045661 
L 220.84509 219.133601 
L 221.148232 219.211971 
L 220.691639 219.492465 
L 220.37008 219.465569 
L 220.108804 219.224084 
L 219.719725 219.199199 
L 219.634242 219.205251 
L 219.742632 219.263823 
L 219.988246 219.553525 
L 219.979854 219.849688 
L 219.624861 220.679456 
L 219.745819 220.956778 
L 220.409795 221.442504 
L 221.322667 221.950116 
L 221.283902 222.370299 
L 221.026222 222.702731 
L 220.382916 223.275902 
L 220.389196 223.505266 
L 220.243046 223.436661 
L 219.992886 223.390274 
L 219.367706 223.66517 
L 219.047309 223.915259 
L 219.023452 224.26409 
L 219.133028 224.333322 
L 219.987603 224.471167 
L 220.183171 224.296732 
L 220.073745 223.840367 
L 220.273662 223.714612 
L 220.476563 223.58855 
L 221.205132 223.97482 
L 221.333155 224.300963 
L 221.2666 224.548297 
L 221.137885 224.986771 
L 221.343384 225.352088 
L 222.433125 226.817971 
L 225.472763 227.060359 
L 225.979991 227.395687 
L 226.024142 227.617256 
L 226.418497 227.631607 
L 226.545689 227.134938 
L 226.042056 227.134608 
L 226.025052 226.846382 
L 225.674055 226.712918 
L 225.753194 226.308859 
L 225.869749 226.36119 
L 226.888436 226.440282 
L 227.813169 226.476661 
L 227.809998 226.433578 
L 227.74809 225.575352 
L 229.19565 225.140411 
L 229.699903 224.93448 
L 229.760162 224.868733 
L 229.768507 224.667669 
L 231.126385 224.304362 
L 230.963286 223.938347 
L 230.742636 223.676105 
L 230.51284 223.486676 
L 230.667924 223.497572 
L 231.490108 223.495186 
L 231.488193 223.595066 
L 231.714527 224.003654 
L 231.861321 224.137377 
L 232.643672 223.857355 
L 232.757306 223.868149 
L 233.403698 223.775852 
L 233.419909 223.756964 
L 234.610715 224.257511 
L 235.054347 224.43522 
L 235.370513 224.281557 
L 235.350322 224.26146 
L 234.888124 223.660405 
L 234.740113 223.553318 
L 234.686346 223.420293 
L 234.730221 223.408997 
L 234.807343 223.403392 
L 234.983937 223.539721 
L 235.40456 223.478606 
L 235.618749 223.261763 
L 235.877544 222.887458 
L 235.791842 222.666462 
L 236.765334 222.278136 
L 236.893272 222.1713 
L 236.905346 222.176819 
L 237.464771 222.521348 
L 237.172666 222.81346 
L 237.654137 223.177639 
L 237.626017 223.217032 
L 237.674792 223.317728 
L 237.856025 223.315617 
L 238.364807 223.469633 
L 238.527867 223.776622 
L 238.863086 223.82089 
L 238.996911 223.927097 
L 238.927898 223.996816 
L 238.863463 224.040135 
L 238.985591 224.088187 
L 239.044547 224.256758 
L 238.890727 224.321704 
L 238.541998 224.462539 
L 238.466948 224.616367 
L 238.445807 224.728266 
L 239.057186 224.621486 
L 239.221424 224.385943 
L 239.456228 224.251773 
L 239.482943 224.337365 
L 240.192176 224.327615 
L 240.309264 224.37847 
L 240.199697 224.211194 
L 240.206841 224.066912 
L 240.332619 223.998826 
L 240.393295 224.087944 
L 240.56711 224.194866 
L 240.677172 224.404863 
L 240.785625 224.660777 
L 241.282309 224.663352 
L 241.6761 224.580695 
L 241.788729 224.287202 
L 242.681221 224.967608 
L 242.430528 224.886192 
L 241.872178 224.70079 
L 241.872728 224.80111 
L 241.836388 225.114614 
L 241.654291 225.198762 
L 241.671413 225.462582 
L 241.955863 225.53205 
L 242.45013 225.63299 
L 242.911119 225.621921 
L 244.025628 225.881572 
L 244.274932 226.177099 
L 245.361179 226.116337 
L 246.235357 226.2215 
L 246.504789 227.783024 
L 246.407711 227.918404 
L 247.568098 227.936436 
L 247.643932 228.363284 
L 247.916842 228.823237 
L 248.195491 228.837258 
L 248.581085 228.049081 
L 249.105498 228.013919 
L 250.098852 227.547294 
L 251.233284 227.639159 
L 251.644816 227.659169 
L 251.459579 227.836179 
L 251.799775 228.194666 
L 251.73329 228.392629 
L 252.07701 228.433914 
L 251.97757 228.818456 
L 252.067833 228.832195 
L 253.752114 228.785163 
L 253.779982 228.700779 
L 255.009169 228.887901 
L 257.205301 228.859153 
L 257.503176 228.710632 
L 257.845546 228.322557 
L 258.477414 228.708818 
L 258.928512 228.954739 
L 259.580539 228.463596 
L 260.278107 228.884321 
L 261.167114 229.233537 
L 261.795363 229.287374 
L 262.642583 229.250336 
L 263.687796 229.422416 
L 263.981839 229.246757 
L 264.332492 229.01678 
L 264.515499 228.739411 
L 264.736385 228.643684 
L 265.711738 228.801892 
L 265.709697 228.807003 
L 265.572708 228.960407 
L 265.35278 229.040944 
L 265.352623 229.129017 
L 265.155375 229.167327 
L 265.172096 229.234125 
L 265.132381 229.329028 
L 265.21134 229.318273 
L 265.284341 229.392216 
L 265.24965 229.635075 
L 265.373898 229.445512 
L 265.655843 229.421255 
L 266.289494 229.460004 
L 266.581253 228.857104 
L 267.437908 228.71816 
L 268.13696 228.613907 
L 268.796445 228.56602 
L 269.718596 228.787228 
L 270.602893 228.29183 
L 270.958734 228.136872 
L 271.008419 228.000291 
L 270.818142 227.696984 
L 270.846404 227.696984 
L 271.539175 227.818257 
L 273.095596 227.856857 
L 273.134063 228.043437 
L 273.168126 227.994301 
L 273.223855 228.128213 
L 273.421269 228.146426 
L 274.684683 228.411172 
L 275.586313 228.158727 
L 276.171707 228.209346 
L 276.729939 228.059028 
L 276.726563 228.050314 
L 276.635664 227.769695 
L 279.20187 227.214242 
L 279.705385 226.862655 
L 280.33803 226.631172 
L 280.934964 226.716803 
L 281.142889 226.82999 
L 281.660628 226.936896 
L 281.644315 227.71643 
L 281.510584 228.329159 
L 282.467638 228.461806 
L 283.876104 228.577419 
L 283.802475 228.425844 
L 283.722872 227.953307 
L 283.538412 227.691842 
L 283.654574 227.569071 
L 284.368918 227.210034 
L 284.470722 227.050373 
L 284.397329 227.053985 
L 284.126373 226.771874 
L 285.022194 226.570371 
L 286.037019 226.714715 
L 285.850596 226.291235 
L 285.1287 226.231353 
L 285.07783 226.069023 
L 285.353731 225.867841 
L 285.443916 225.789974 
L 285.985112 225.761469 
L 286.957788 225.06058 
L 287.3511 224.924117 
L 287.245112 224.49124 
L 287.014083 224.374121 
L 286.841807 224.190744 
L 287.478849 224.213542 
L 287.238196 223.808353 
L 286.724303 223.71016 
L 286.786313 223.660703 
L 287.63142 223.230385 
L 288.742624 222.855719 
L 287.951024 222.380834 
L 288.108856 221.928159 
L 288.18601 221.672574 
L 287.869522 221.475475 
L 286.84574 220.876571 
L 286.581136 220.751373 
L 286.399824 220.533439 
L 286.86126 220.138095 
L 289.612657 220.747809 
L 289.824664 220.660364 
L 290.634719 220.333765 
L 290.812004 220.226435 
L 290.31718 219.873058 
L 290.132641 219.638835 
L 289.617799 219.203116 
L 289.623372 219.182156 
L 290.102802 219.104044 
L 290.757185 218.983314 
L 291.445937 218.571287 
L 291.452052 218.231955 
L 291.66099 217.972924 
L 292.018346 217.140087 
L 292.474382 216.85146 
L 293.546891 216.799326 
L 294.433229 216.908894 
L 294.728426 216.719331 
L 295.000253 216.768152 
L 294.772302 216.620817 
L 294.066962 216.074031 
L 294.043874 215.707772 
L 294.28963 215.429822 
L 294.811671 215.113326 
L 295.129407 215.141187 
L 295.548876 215.330122 
L 295.929242 215.371713 
L 298.478036 215.425928 
L 298.528584 215.411256 
L 299.019405 215.539429 
L 301.125972 215.567038 
L 301.62597 215.818533 
L 301.5591 215.851182 
L 301.953605 215.994671 
L 303.061755 216.126141 
L 303.046454 216.182735 
L 302.86011 216.191998 
L 302.863564 216.304871 
L 303.716349 216.229711 
L 303.727481 216.065395 
L 304.727147 216.049836 
L 305.804586 216.209756 
L 309.280854 217.20446 
L 309.453585 217.614767 
L 309.721244 218.004326 
L 309.973617 218.166467 
L 310.204402 218.081935 
L 310.383767 218.093938 
L 310.687741 217.737264 
L 310.600869 217.57641 
L 310.673399 217.547372 
L 310.762477 217.176638 
L 310.488381 217.174833 
L 310.515693 217.067063 
L 310.662079 216.915488 
L 311.885731 216.799334 
L 312.052716 216.68077 
L 312.399333 216.560039 
L 312.524994 216.4244 
L 313.934229 215.884311 
L 314.170211 215.916592 
L 314.134225 215.83779 
L 314.27079 215.307403 
L 315.647775 215.511945 
L 315.975324 215.652372 
L 316.303736 215.489492 
L 318.555818 215.090702 
L 318.993719 215.251038 
L 318.935627 214.724922 
L 318.983498 214.342813 
L 319.419437 214.17122 
L 320.270958 214.087417 
L 320.209223 214.19335 
L 320.37956 214.219774 
L 320.605925 214.064604 
L 321.500655 214.068137 
L 321.981569 214.0182 
L 323.261869 213.955931 
L 323.260974 213.964912 
L 323.606477 214.097057 
L 323.765619 213.995222 
L 324.380727 214.315525 
L 325.87535 213.899958 
L 326.626183 213.712656 
L 326.825221 213.57164 
L 326.570838 212.792107 
L 327.128716 212.923121 
L 327.760309 212.841038 
L 327.945248 212.674398 
L 328.4682 212.212051 
L 328.884097 212.21775 
L 329.427397 212.272483 
L 329.567527 212.503402 
L 329.695425 212.738756 
L 330.76948 212.925861 
L 330.851862 213.108147 
L 331.259288 213.914646 
L 331.436243 214.12915 
L 331.369256 214.163636 
L 331.21776 214.245115 
L 331.368542 214.29283 
L 331.704899 214.541176 
L 331.683844 214.634682 
L 332.15558 214.623707 
L 332.325878 214.614514 
L 333.836728 214.407249 
L 334.101749 214.319623 
L 335.035432 214.312817 
L 335.978983 214.281093 
L 335.943036 214.411943 
L 337.008567 214.491609 
L 337.545469 214.182155 
L 338.103182 213.638533 
L 338.297408 213.075065 
L 338.500521 212.669931 
L 338.441941 212.651185 
L 338.215608 212.579448 
L 338.578389 212.580767 
L 338.791879 212.600825 
L 339.225651 212.541405 
L 339.312924 212.542952 
L 339.219607 212.513599 
L 339.217338 212.469182 
L 339.105313 212.079058 
L 338.790796 211.794207 
L 338.517132 210.976309 
L 338.547953 210.979536 
L 339.500854 210.982063 
L 339.922575 211.27372 
L 340.405404 211.725383 
L 340.462979 211.831685 
L 341.128721 212.15147 
L 341.198833 211.944448 
L 342.425154 211.149386 
L 342.87834 211.05665 
L 342.979445 210.868539 
L 343.020589 210.744912 
L 343.677272 210.407268 
L 343.731047 210.26494 
L 343.90845 210.081823 
L 343.82595 209.611083 
L 343.812534 209.416394 
L 343.750595 209.209537 
L 343.465234 208.96207 
L 343.182385 208.719282 
L 342.973801 208.494761 
L 343.166527 208.031825 
L 343.056622 207.826774 
L 343.088181 207.658854 
L 343.048615 207.382914 
L 343.140935 207.082088 
L 342.783484 206.647672 
L 342.827517 206.517019 
L 343.149822 206.253702 
L 343.293138 205.878195 
L 342.931621 205.49545 
L 342.758512 205.248674 
L 342.599009 205.107988 
L 342.434182 204.735402 
L 341.665011 204.454068 
L 341.728811 204.323304 
L 341.874145 204.134299 
L 341.750086 203.861805 
L 341.445248 203.744246 
L 341.007496 203.755228 
L 340.364873 203.396027 
L 339.877962 203.070747 
L 337.466533 201.692246 
L 337.157457 201.379849 
L 336.952507 201.03919 
L 336.385287 200.873901 
L 336.240047 200.721925 
L 335.963573 200.293821 
L 335.639243 199.858087 
L 335.343276 199.637499 
L 335.426569 199.482769 
L 335.641017 199.024095 
L 335.433658 198.683963 
L 335.726084 198.567675 
L 335.967121 198.410793 
L 335.816473 198.271473 
L 334.887853 197.921009 
L 335.037246 197.713759 
L 335.225811 197.499209 
L 335.244338 197.190375 
L 335.221808 196.883348 
L 335.152646 196.372367 
L 335.105881 196.210344 
L 334.738924 195.960843 
L 334.37206 195.296553 
L 333.68619 195.070769 
L 333.454015 194.896506 
L 332.121258 194.813214 
L 331.983021 194.704714 
L 331.380443 194.666365 
L 330.988772 194.283919 
L 330.990539 194.025328 
L 330.563424 193.573932 
L 330.15486 193.343029 
L 330.206429 193.158616 
L 330.131991 192.892441 
L 330.378336 192.582478 
L 330.272003 192.295531 
L 330.270228 192.155355 
L 330.178065 192.000946 
L 330.711529 191.709674 
L 331.282203 191.89035 
L 331.3974 191.672447 
L 331.184725 191.327549 
L 331.322963 191.244343 
L 331.587033 191.292513 
L 331.742996 191.507111 
L 331.923767 191.382298 
L 331.689826 191.070269 
L 331.489563 190.880879 
L 331.888322 190.49994 
L 332.911131 190.427528 
L 334.004428 189.835579 
L 334.376614 189.744751 
L 334.890577 189.268736 
L 335.080211 189.146184 
L 335.087299 188.803727 
L 335.175914 188.675719 
L 335.236166 188.441606 
L 335.436437 188.309241 
L 335.794437 188.184538 
L 335.96103 187.890298 
L 336.233963 187.915451 
L 336.811727 187.972326 
L 336.769193 187.795136 
L 336.717797 187.65076 
L 337.027949 187.562176 
L 337.377086 187.488901 
L 337.777628 187.232987 
L 338.348302 186.966169 
L 338.272091 186.787934 
L 338.077143 186.55941 
L 338.334125 186.303566 
L 338.685036 186.127553 
L 338.819725 185.900167 
L 339.023544 185.465108 
L 339.214951 185.312089 
L 339.119247 184.654173 
L 339.535733 184.330722 
L 339.848884 184.239548 
L 340.317308 183.797533 
L 340.273 183.586688 
L 340.377135 182.958957 
L 340.1454 182.759793 
L 339.840563 182.654944 
L 339.351414 181.759484 
L 339.191989 181.060056 
L 339.39226 180.912139 
L 339.886723 180.824262 
L 340.110921 180.559014 
L 340.160544 180.199381 
L 340.367903 179.997477 
L 340.457021 179.623439 
L 340.083045 179.221539 
L 339.878747 179.080327 
L 339.97091 178.919952 
L 340.82072 178.50703 
L 340.921472 178.200081 
L 341.252318 178.028079 
L 341.707223 177.66792 
L 342.040573 177.469738 
L 342.013002 177.310886 
L 341.939068 177.061825 
L 342.139574 176.960053 
L 342.583206 176.812788 
L 342.575685 176.287009 
L 342.695992 175.940903 
L 342.529321 175.769788 
L 342.383948 175.624117 
L 342.421771 175.258258 
L 342.395237 175.001473 
L 342.821904 174.78072 
L 343.307999 174.509569 
L 343.386895 174.060057 
L 343.109973 173.798004 
L 342.794106 173.598707 
L 342.169758 172.768554 
L 341.816531 172.522398 
L 340.520067 171.923179 
L 339.962455 171.806939 
L 338.78406 171.601016 
L 338.013484 171.062198 
L 337.462451 170.493824 
L 337.346431 169.981093 
L 337.49233 169.327071 
L 337.336665 168.855398 
L 337.244588 168.005132 
L 337.475742 167.726248 
L 339.150696 166.240715 
L 339.214025 165.838651 
L 339.106169 165.481043 
L 338.723589 165.018005 
L 337.668225 164.096922 
L 337.861713 163.780866 
L 339.440673 162.702265 
L 339.766714 161.872795 
L 339.866335 161.2331 
L 340.055647 160.880219 
L 339.928236 160.722442 
L 339.127899 160.115891 
L 338.781752 159.587499 
L 338.420117 159.360364 
L 337.589509 159.114514 
L 336.332572 158.895371 
L 335.353804 158.712497 
L 334.132923 158.6053 
L 332.023427 157.99371 
L 330.560441 157.85457 
L 330.296731 157.701982 
L 329.712287 156.923752 
L 328.984315 156.613278 
L 328.885769 156.297253 
L 329.014343 156.009671 
L 329.722304 155.530924 
L 329.740564 155.269868 
L 329.457825 154.951159 
L 329.188864 154.668012 
L 329.073801 154.105627 
L 328.665174 153.845254 
L 327.904395 153.585289 
L 327.881362 153.301978 
L 328.035645 152.858714 
L 327.840336 152.421936 
L 327.187515 151.50152 
L 327.227207 150.159853 
L 327.080994 149.766479 
L 326.652222 149.262375 
L 325.848423 148.469151 
L 325.759722 148.220875 
L 325.870224 147.860583 
L 326.172173 147.512607 
L 326.733921 146.921459 
L 326.723943 146.55732 
L 326.528799 146.107235 
L 326.595668 145.748434 
L 326.858373 145.379192 
L 327.597987 144.901858 
L 328.087772 144.784739 
L 329.376676 144.574828 
L 330.024379 143.984857 
L 330.663445 143.594097 
L 331.009741 143.221558 
L 331.754144 142.727739 
L 332.053957 141.7982 
L 333.1591 141.20461 
L 333.688192 140.553022 
L 333.684188 140.270597 
L 333.368478 139.882758 
L 332.820914 139.600106 
L 332.113228 139.402143 
L 331.820048 139.105046 
L 331.606612 138.315393 
L 331.232809 137.631391 
L 331.314987 137.313953 
L 331.628389 136.970775 
L 332.049169 136.4509 
L 332.258404 135.685175 
L 332.8565 135.338613 
L 334.010787 134.692669 
L 334.036135 134.421078 
L 333.836085 134.153945 
L 333.458521 133.962703 
L 332.100384 133.330544 
L 331.832035 133.038197 
L 331.517502 132.217284 
L 330.634077 131.381549 
L 329.338013 130.908 
L 328.739054 130.503533 
L 327.251409 130.088351 
L 325.314952 129.383192 
L 324.081039 129.02611 
L 320.158156 127.201944 
L 319.540953 126.313235 
L 318.907577 126.052996 
L 317.79825 125.808386 
L 317.124021 124.726802 
L 316.178005 124.104927 
L 315.839042 123.712276 
L 314.513845 122.736059 
L 314.087193 122.441568 
L 313.743559 122.088592 
L 313.354103 121.699748 
L 313.018547 121.460257 
L 311.995039 120.979704 
L 311.211408 120.29611 
L 307.09313 118.982736 
L 305.833114 118.536364 
L 303.364983 117.125065 
L 302.383247 116.390098 
L 301.96684 116.166865 
L 301.024192 115.299344 
L 300.466282 115.107544 
L 298.819786 114.956527 
L 294.516608 114.493928 
L 294.357269 114.398028 
L 294.114527 114.342149 
L 293.777535 114.023542 
L 293.494843 113.214389 
L 293.685489 112.815379 
L 294.294269 112.230558 
L 294.843921 111.766758 
L 295.038484 111.570986 
L 295.404186 111.364034 
L 296.19909 110.595774 
L 296.279949 110.208641 
L 296.433573 109.44345 
L 296.099508 108.984447 
L 295.915417 108.874307 
L 295.748526 108.328777 
L 295.730023 107.884556 
L 295.019133 105.494167 
L 295.158477 105.250256 
L 295.009399 104.92149 
L 294.751828 104.548519 
L 295.065301 104.131343 
L 295.191841 103.782787 
L 295.562072 103.668956 
L 296.709953 103.449782 
L 296.978506 103.125248 
L 297.075701 102.885097 
L 297.594775 102.669299 
L 298.47981 102.477279 
L 299.20622 102.187514 
L 299.464167 102.003344 
L 300.816165 101.695225 
L 301.105773 101.671117 
L 302.202768 101.373203 
L 302.798383 101.162107 
L 303.925075 100.630166 
L 304.192961 100.562943 
L 304.834995 100.103242 
L 305.236636 99.869152 
L 305.63574 99.700125 
L 306.722168 99.244883 
L 308.078162 98.305751 
L 308.892857 97.805604 
L 311.193242 96.520107 
L 311.207538 96.354464 
L 311.635697 96.025526 
L 311.987236 95.33376 
L 312.05577 95.096443 
L 312.668098 94.369028 
L 312.718097 94.110516 
L 312.761989 93.970858 
L 312.878104 93.851367 
L 312.906278 93.605572 
L 312.977952 93.240302 
L 312.902667 92.747056 
L 312.913878 92.568507 
L 313.584236 91.952442 
L 313.89778 90.355057 
L 313.947323 90.212487 
L 313.965136 90.022744 
L 314.077946 89.841094 
L 314.231821 89.637298 
L 313.166754 88.699886 
L 312.843782 88.207582 
L 312.830672 87.841676 
L 312.581894 87.313896 
L 312.708771 87.062457 
L 313.303656 85.66422 
L 313.46601 84.961149 
L 314.115392 84.722569 
L 315.51786 84.407306 
L 315.779505 84.157978 
L 315.850637 83.744343 
L 315.898289 83.293488 
L 316.615027 82.645213 
L 317.21441 82.272862 
L 317.804985 81.896759 
L 317.91701 81.630082 
L 318.054776 81.221934 
L 318.787145 80.620289 
L 319.17668 80.360827 
L 319.165768 80.077044 
L 318.905842 79.682948 
L 318.740553 79.341567 
L 318.782827 79.271432 
L 318.68297 79.261328 
L 316.834759 78.966767 
L 316.158442 76.932658 
L 315.764809 76.579266 
L 316.44392 75.35081 
L 316.094014 74.934678 
L 315.021654 74.962491 
L 313.74385 75.406924 
L 313.585319 75.818966 
L 313.293466 76.054925 
L 312.784904 76.004714 
L 312.33226 75.889156 
L 312.22807 75.885655 
L 312.226641 75.930284 
L 312.274269 76.079755 
L 312.155383 76.090746 
L 311.305675 76.198681 
L 311.321156 76.254379 
L 311.134145 76.48485 
L 309.728976 76.356583 
L 308.641332 76.45348 
L 308.57334 76.777889 
L 308.404353 77.045013 
L 308.350507 77.165422 
L 307.69446 77.857973 
L 307.725288 77.869953 
L 307.661001 77.921765 
L 307.444378 78.172577 
L 307.54217 78.347239 
L 307.483293 78.366073 
L 307.058517 78.484087 
L 304.395759 79.109149 
L 304.686254 79.928397 
L 304.66604 80.009704 
L 304.603464 80.475066 
L 303.522139 80.620721 
L 302.991517 80.631861 
L 302.553459 80.65301 
L 301.035512 80.740643 
L 300.359894 80.777956 
L 299.906975 80.502573 
L 299.700032 80.393194 
L 299.544791 80.260091 
L 299.032044 80.319934 
L 298.726052 80.308449 
L 298.421576 80.335753 
L 298.155174 80.253984 
L 297.610052 80.198411 
L 297.241211 80.031614 
L 296.689565 79.834209 
L 296.250502 79.825385 
L 295.735581 79.875894 
L 293.403983 80.387243 
L 293.017517 80.325626 
L 293.004289 80.274292 
L 291.603376 80.289255 
L 292.335611 78.742702 
L 293.167656 78.170685 
L 295.354312 76.76806 
L 297.103335 75.832296 
L 300.02477 73.919916 
L 301.676259 72.344457 
L 302.123495 71.6455 
L 302.935426 69.762833 
L 302.812969 68.964356 
L 302.638785 68.621939 
L 302.477664 68.243763 
L 302.834863 67.647999 
L 302.73211 67.600771 
L 302.322776 67.144626 
L 302.12906 67.21122 
L 301.478163 66.722064 
L 300.73142 67.061176 
L 300.388791 67.420998 
L 299.844274 67.56955 
L 298.096178 67.65884 
L 297.336977 67.508427 
L 295.994423 66.888052 
L 295.519649 66.647603 
L 294.54819 66.202472 
L 294.362387 66.352932 
L 293.333918 66.21351 
L 292.218436 67.428471 
L 292.062198 67.645895 
L 291.199655 67.682949 
L 290.272676 68.300357 
L 290.394632 68.448854 
L 290.367846 68.473858 
L 290.259699 68.562614 
L 290.222646 68.521046 
L 289.772341 68.323869 
L 289.134451 68.260398 
L 288.056871 68.42024 
L 287.738499 68.207487 
L 287.286051 67.115415 
L 284.359074 67.019075 
L 283.814392 66.684076 
L 281.091642 67.003249 
L 280.591236 67.012944 
L 279.851056 67.013729 
L 278.684813 67.245275 
L 278.473913 67.333875 
L 277.803382 67.530016 
L 277.404183 67.693837 
L 276.446588 67.243493 
L 276.293294 66.86352 
L 276.907491 66.414345 
L 276.843314 66.362117 
L 276.39852 65.893796 
L 276.447962 65.895303 
L 277.433292 65.541926 
L 277.281372 64.99317 
L 274.058153 63.660476 
L 274.433079 63.192814 
L 274.56133 63.079306 
L 274.630005 62.934325 
L 274.783079 62.717553 
L 274.722349 62.686882 
L 274.316218 62.612814 
L 274.076342 62.607899 
L 274.067369 62.573805 
L 273.968792 62.415016 
L 273.887345 62.327374 
L 273.94302 62.268237 
L 274.027914 61.967042 
L 274.170515 61.845676 
L 274.217256 61.500048 
L 274.388481 61.248812 
L 271.55818 60.338774 
L 270.61342 60.231201 
L 269.843857 60.14502 
L 269.939113 60.096041 
L 269.972469 59.860185 
L 268.631878 58.456272 
L 268.452536 58.325336 
L 268.040008 57.881437 
L 268.143907 57.236718 
L 268.289107 57.207899 
L 268.249895 57.131704 
L 268.20357 56.982657 
L 268.067853 56.950305 
L 268.057231 56.967019 
L 267.862338 57.026831 
L 267.433716 56.982154 
L 266.836672 57.635713 
L 266.312794 59.199129 
L 266.265205 59.378259 
L 266.581464 59.784578 
L 266.573214 59.926583 
L 266.449194 60.486071 
L 266.992023 60.551763 
L 267.468517 60.682212 
L 267.571113 60.825607 
L 267.651556 61.007822 
L 267.775489 61.120004 
L 268.348354 61.704055 
L 268.82557 61.434521 
L 269.282328 61.477148 
L 269.408413 61.596435 
L 270.263035 61.697422 
L 269.114008 62.75887 
L 269.027175 62.823776 
L 267.735327 63.405496 
L 266.744163 63.586259 
L 266.407602 63.492015 
L 265.454843 63.377824 
L 264.159964 63.146254 
L 263.595507 62.675169 
L 263.523896 62.653581 
L 263.293119 63.032274 
L 262.098042 62.979795 
L 261.794413 62.956542 
L 261.635734 62.940401 
L 261.151186 63.062443 
L 260.748085 63.503995 
L 259.002682 64.262623 
L 258.486803 64.437168 
L 258.126903 64.728055 
L 257.559816 64.858638 
L 257.323316 64.963048 
L 256.985656 65.235527 
L 256.753615 65.377422 
L 256.675284 65.471768 
L 256.728855 65.467748 
L 256.910622 65.643196 
L 256.881992 65.666669 
L 256.492174 65.814012 
L 256.445449 66.020571 
L 255.614275 65.715639 
L 255.089926 66.289195 
L 255.494447 66.429018 
L 255.428245 66.481246 
L 255.358 66.801314 
L 255.390611 66.859108 
L 254.698263 66.901421 
L 254.825447 67.039313 
L 255.268121 67.576828 
L 255.22036 67.609705 
L 254.372128 68.709502 
L 254.090566 68.694288 
L 253.672974 68.351196 
L 253.146403 68.38558 
L 252.95487 68.480813 
L 252.903434 68.553664 
L 252.637597 68.576156 
L 251.236338 68.75169 
L 250.191266 68.83269 
L 250.049897 68.954292 
L 249.997888 69.092474 
L 250.082028 69.149947 
L 249.965332 69.19785 
L 249.73662 69.230641 
L 249.566864 69.388386 
L 248.804413 69.409229 
L 248.429612 69.672907 
L 248.288746 69.772693 
L 248.17866 69.854282 
L 248.21357 69.889514 
L 248.330776 69.993681 
L 249.016027 70.117167 
L 248.944392 70.189116 
L 248.88725 70.267297 
L 248.932397 70.310796 
L 248.702546 70.874884 
L 248.5199 70.906741 
L 248.606104 70.98318 
L 249.041211 71.057735 
L 249.038298 71.087755 
L 248.929854 71.304896 
L 248.222041 71.709362 
L 248.251009 71.735748 
L 248.095524 72.03352 
L 247.954956 72.24745 
L 247.042885 72.119489 
L 246.629335 71.984957 
L 246.266326 72.619597 
L 245.861428 73.171736 
L 246.031059 73.17636 
L 246.553069 73.264881 
L 246.57275 73.596999 
L 246.522672 73.744326 
L 246.463622 73.938733 
L 246.164837 74.066553 
L 246.129447 74.318133 
L 246.388258 74.57064 
L 246.321616 74.59281 
L 246.235474 74.72439 
L 246.390307 75.356234 
L 246.355695 75.747889 
L 245.873761 75.846034 
L 245.390037 75.868714 
L 245.39923 75.739505 
L 244.869432 75.127271 
L 244.765203 75.128613 
L 244.767896 75.165612 
L 244.732561 75.322227 
L 244.844625 75.483709 
L 245.06964 75.687426 
L 245.061727 75.70041 
L 245.002488 75.779 
L 245.018652 75.798296 
L 245.155115 75.985174 
L 244.296905 76.870146 
L 244.304591 77.150475 
L 243.488969 77.845782 
L 243.47224 77.890521 
L 243.394592 77.893269 
L 242.963277 77.954415 
L 242.303705 78.037809 
L 241.367337 77.98993 
L 241.168691 77.774759 
L 241.03642 77.407103 
L 240.16744 77.390437 
L 239.923207 77.373708 
L 239.675088 77.312789 
L 239.65127 77.400195 
L 239.683692 77.424288 
L 239.693278 77.483895 
L 239.633128 77.51335 
L 239.531073 77.79941 
L 239.768798 77.899329 
L 239.571071 77.957869 
L 239.411481 78.036059 
L 239.452782 78.076559 
L 239.580696 78.137509 
L 239.658924 78.128819 
L 239.681345 78.193247 
L 240.068823 78.315092 
L 240.021627 78.348708 
L 239.630059 78.4977 
L 239.273071 78.54616 
L 239.211297 78.49149 
L 238.899747 78.734663 
L 238.97033 78.777235 
L 238.997704 78.829558 
L 238.936345 78.860332 
L 238.836237 79.021382 
L 238.759178 79.182895 
L 238.216726 79.712387 
L 237.893173 79.941735 
L 237.668519 80.159324 
L 237.396943 80.192217 
L 237.4345 80.254486 
L 237.317427 80.44543 
L 237.32461 80.693384 
L 237.030276 81.271446 
L 237.053843 81.27311 
L 237.180085 81.42569 
L 237.112807 81.468945 
L 236.693056 81.518897 
L 236.408174 81.523019 
L 236.408512 81.570443 
L 236.073403 81.72274 
L 235.751805 81.682334 
L 235.567416 81.473318 
L 235.618796 81.269012 
L 235.612477 81.167892 
L 235.452698 81.161015 
L 235.334487 81.160716 
L 234.392137 80.053171 
L 234.247534 79.533673 
L 233.604463 78.997886 
L 232.643154 78.992854 
L 232.05046 79.130494 
L 232.102555 79.363854 
L 232.018077 79.359371 
L 230.804771 79.180933 
L 228.720499 78.782699 
L 228.722933 78.808433 
L 227.976779 79.240564 
L 227.978545 79.204107 
L 227.9633 79.17992 
L 227.90443 79.178939 
L 227.774977 79.148267 
L 227.579535 79.354339 
L 227.6019 79.416318 
L 227.099579 79.753648 
L 226.864005 80.033577 
L 226.34753 80.113077 
L 226.141458 80.099261 
L 225.415456 80.316888 
L 225.143362 80.239555 
L 225.252663 80.377572 
L 225.187795 80.470473 
L 224.735567 80.747646 
L 224.604693 81.153635 
L 224.651144 81.206406 
L 224.577178 81.229227 
L 224.466927 81.321704 
L 224.478177 81.351535 
L 224.74235 81.414338 
L 224.939347 81.372252 
L 224.997879 81.4793 
L 224.6092 81.675559 
L 224.779623 81.750609 
L 224.816143 81.765273 
L 224.368178 81.998578 
L 224.26237 82.007528 
L 224.156029 82.180613 
L 224.398347 82.18873 
L 224.27172 82.265381 
L 224.235224 82.463367 
L 224.147543 82.739441 
L 223.740902 83.353434 
L 223.191588 83.773358 
L 221.545421 83.518652 
L 221.501467 83.534824 
L 221.159238 83.266844 
L 220.308047 82.132765 
L 220.277509 81.927956 
L 219.773413 81.233843 
L 219.492347 81.155943 
L 219.507105 81.20146 
L 219.343708 81.366514 
L 218.960586 81.425855 
L 218.730461 81.172492 
L 218.26192 81.213816 
L 217.817628 81.310423 
L 217.62374 81.397162 
L 217.278669 81.505921 
L 217.204216 81.419684 
L 217.271847 81.164281 
L 217.26789 81.108582 
L 217.178608 81.138029 
L 216.0905 81.684485 
L 215.722946 82.094298 
L 215.576568 82.192694 
L 215.400461 82.107361 
L 215.38151 82.054151 
L 215.311846 82.041779 
L 214.389342 81.959797 
L 214.262912 81.98601 
L 213.98789 82.072858 
L 213.800541 82.152194 
L 213.587411 82.489517 
L 213.757803 83.207252 
L 213.57171 83.659386 
L 213.684575 83.92914 
L 212.884175 84.114644 
L 212.530768 83.814195 
L 212.158495 83.92107 
L 212.232728 84.055327 
L 212.119746 84.06138 
L 211.92238 84.113726 
L 212.03687 84.321651 
L 211.920339 84.321502 
L 211.742081 84.406992 
L 211.706456 84.549343 
L 211.543231 84.877253 
L 211.622315 85.050651 
L 211.486119 85.145955 
L 211.466242 85.103422 
L 210.904125 84.998062 
L 210.801144 84.84319 
L 210.638178 84.878666 
L 210.51108 84.973961 
L 209.062656 85.294641 
L 208.362247 85.64417 
L 208.368943 85.676946 
L 208.285392 85.69216 
L 207.661452 85.924413 
L 207.555543 86.221565 
L 207.10863 86.295382 
L 206.778404 86.284862 
L 206.774487 86.379765 
L 206.96558 86.760697 
L 206.951214 86.765595 
L 206.890578 86.85991 
L 206.799082 87.055462 
L 205.749731 87.483974 
L 205.796441 87.553984 
L 205.879796 87.642968 
L 205.816106 87.671418 
L 205.581788 87.714665 
L 205.448599 87.709657 
L 205.498206 87.625414 
L 205.501738 87.552783 
L 204.405717 87.630988 
L 204.081701 87.747825 
L 204.196921 87.905618 
L 204.112278 87.930864 
L 203.43889 87.988282 
L 203.269934 87.796497 
L 202.832355 87.746232 
L 202.640358 87.406664 
L 202.529362 86.961054 
L 201.941699 86.94277 
L 201.461979 87.199226 
L 200.915397 87.248675 
L 200.790577 87.096669 
L 200.849596 87.081455 
L 201.058753 86.885635 
L 201.220172 86.796314 
L 201.971586 86.68688 
L 202.340278 86.592008 
L 202.228936 86.493737 
L 202.263721 86.341589 
L 203.783709 85.736522 
L 203.679919 85.710326 
L 203.446866 85.410489 
L 203.443592 85.287615 
L 203.384565 85.270579 
L 201.619693 85.137908 
L 200.33805 85.578659 
L 200.496643 85.643833 
L 200.922965 85.992279 
L 200.817409 86.229502 
L 200.626661 86.227162 
L 200.390224 86.133162 
L 200.289456 86.0617 
L 200.068084 86.041666 
L 199.563855 86.12495 
L 199.404979 86.109744 
L 198.997058 86.047978 
L 199.126487 86.00681 
L 199.892565 85.666144 
L 199.77247 85.545279 
L 199.322001 85.437086 
L 197.630051 85.662242 
L 197.706898 85.727879 
L 197.554868 85.944879 
L 196.581815 86.200392 
L 196.509599 86.592102 
L 196.322164 86.63166 
L 196.093757 86.678056 
L 195.830181 86.73198 
L 195.186467 86.417534 
L 194.63859 86.133939 
L 194.240522 86.046816 
L 193.90586 85.687073 
L 193.833033 85.429463 
L 193.021611 85.079478 
L 192.809486 85.176351 
L 192.410138 85.333139 
L 192.073483 85.415003 
L 192.018782 85.4336 
L 191.477687 85.386702 
L 191.187177 85.617424 
L 190.845364 85.464907 
L 190.84136 85.552455 
L 190.77413 85.754766 
L 190.767692 85.754217 
L 190.520045 85.629333 
L 190.399793 85.44722 
L 190.527495 85.351383 
L 190.603635 85.344239 
L 190.095089 85.458925 
L 189.968407 85.62478 
L 189.571399 85.739231 
L 189.625401 85.819767 
L 189.578856 85.848186 
L 188.438065 86.025824 
L 188.280461 86.068608 
L 188.151966 86.107852 
L 186.645159 85.788311 
L 186.057802 85.414916 
L 185.037561 85.192625 
L 184.853949 85.133237 
L 184.934886 85.086724 
L 185.811073 84.423925 
L 186.154589 83.813599 
L 186.342912 83.304267 
L 186.217479 83.191944 
L 185.465084 83.130789 
L 185.323856 83.247603 
L 184.532822 83.348245 
L 183.416994 83.308694 
L 182.702454 83.154819 
L 181.156293 83.037331 
L 180.788605 83.00454 
L 180.705564 82.991916 
L 180.254113 82.945513 
L 179.598168 82.795171 
L 179.298912 82.707058 
L 178.939648 82.423464 
L 179.026457 82.355801 
L 179.387417 82.205349 
L 179.389882 82.16846 
L 179.323099 82.154008 
L 179.125332 82.141604 
L 178.991539 82.037901 
L 179.202274 81.774811 
L 179.374974 81.733479 
L 179.471306 81.693631 
L 179.650106 81.463615 
L 179.837031 81.428924 
L 179.724253 81.349534 
L 179.396147 81.324789 
L 179.184909 81.240618 
L 179.069045 80.958515 
L 179.104058 80.940851 
L 178.967791 80.903091 
L 177.588223 80.800667 
L 176.877639 80.880035 
L 176.074633 80.818974 
L 176.073016 80.916138 
L 175.703884 81.066936 
L 175.39235 81.076521 
L 175.280262 81.052813 
L 174.909474 81.358868 
L 174.745276 81.384617 
L 174.60046 81.516095 
L 174.155022 81.603854 
L 173.988147 81.488234 
L 173.696781 81.313665 
L 173.472535 81.279838 
L 172.574744 81.028893 
L 171.256863 80.726701 
L 169.462152 80.187397 
L 168.403287 80.032289 
L 166.159456 80.267941 
L 166.073753 80.681766 
L 165.87572 80.770702 
L 164.350158 80.733586 
L 163.190133 80.74741 
L 162.492189 80.944988 
L 161.815652 81.205471 
L 161.712059 81.032198 
L 161.376039 80.775209 
L 161.310654 80.72309 
L 160.990641 80.601504 
L 160.769991 80.060362 
L 160.515388 79.297 
L 160.154986 79.179253 
L 158.001175 78.735872 
L 157.588528 78.307281 
L 158.102162 77.650551 
L 157.798612 77.127348 
L 157.547282 77.088896 
L 156.612068 77.011814 
L 155.762156 76.76236 
L 155.20186 76.700099 
L 154.300944 76.20796 
L 152.688628 75.763503 
L 152.325745 75.588731 
L 151.204359 75.397676 
L 151.104895 75.123385 
L 148.744212 75.119067 
L 148.341409 75.299233 
L 148.012243 75.339584 
L 147.593583 75.314934 
L 147.373695 75.377815 
L 147.058031 75.323019 
L 146.99672 75.261394 
L 147.01878 75.214135 
L 147.164482 75.063172 
L 147.083867 75.017036 
L 146.401741 74.748608 
L 146.054362 74.588147 
L 145.759267 74.224439 
L 145.271759 73.818811 
L 144.690047 72.714029 
L 144.104567 72.837751 
L 143.472063 73.106076 
L 141.68006 73.076637 
L 141.566151 73.167466 
L 141.31541 73.576548 
L 141.54676 73.623808 
L 141.519677 73.698465 
L 141.482623 73.852567 
L 139.972448 74.107704 
L 139.114953 73.238983 
L 138.904641 72.666613 
L 138.737899 72.439894 
L 137.874124 72.529938 
L 137.784001 72.444761 
L 137.77568 72.563302 
L 137.723868 73.042253 
L 137.405771 73.336641 
L 137.398313 73.448745 
L 137.297593 73.441915 
L 135.332882 73.362547 
L 135.334609 73.394027 
L 135.377629 73.815906 
L 133.25332 73.638095 
L 133.04607 72.2182 
L 133.076215 72.015974 
L 132.980598 72.010086 
L 132.831096 71.834913 
L 131.750367 71.70926 
L 131.452909 71.726241 
L 130.682474 71.731508 
L 130.356959 71.709849 
L 130.500039 71.80498 
L 130.828255 72.027695 
L 130.758387 72.070715 
L 130.55434 72.313315 
L 130.506626 72.489846 
L 130.574531 72.499737 
L 130.883208 72.629818 
L 131.121066 73.003064 
L 130.959608 73.070176 
L 131.230814 73.398322 
L 129.42859 73.996253 
L 129.438772 74.004456 
L 129.365277 74.038181 
L 127.950154 74.569102 
L 127.92307 74.577345 
L 128.043424 74.65354 
L 128.20365 74.917077 
L 128.507773 75.681703 
L 128.315675 76.088116 
L 128.398143 76.295601 
L 128.658108 76.946946 
L 128.236072 77.30665 
L 126.988649 77.317012 
L 126.454824 77.724446 
L 125.583434 77.433904 
L 125.368647 77.42103 
L 125.15708 77.456435 
L 124.731276 77.513664 
L 124.732925 77.525754 
L 124.768173 77.548912 
L 124.697991 77.580471 
L 124.703407 77.635423 
L 123.43942 78.916053 
L 123.29568 78.946277 
L 123.293874 78.969593 
L 123.317582 79.076279 
L 123.326139 78.993615 
L 123.331635 79.082167 
L 123.396165 79.155254 
L 123.309104 79.209971 
L 123.189778 79.33911 
L 123.080815 79.335813 
L 122.558923 79.337226 
L 122.5612 79.334478 
L 122.440539 79.278034 
L 119.276135 79.144028 
L 118.388023 78.916603 
L 118.276548 79.531522 
L 118.060506 79.735239 
L 117.874296 79.887536 
L 117.709752 80.042817 
L 117.430357 80.171406 
L 117.091064 80.296462 
L 116.243696 80.838687 
L 116.255 80.847087 
L 116.217162 81.016733 
L 116.038958 81.204671 
L 115.66481 81.264019 
L 113.732756 81.07302 
L 113.536811 81.055357 
L 111.636599 80.892611 
L 111.291811 80.883504 
L 111.067855 80.828073 
L 110.80322 80.929712 
L 111.043519 81.168567 
L 111.210622 81.207473 
L 111.437521 81.446297 
L 112.59399 81.670464 
L 113.637586 82.508522 
L 113.760892 82.593824 
L 113.744045 82.617266 
L 113.38011 82.683664 
L 113.371428 82.880496 
L 112.517975 82.863147 
L 112.411767 83.013254 
L 111.28776 82.98544 
L 110.536872 83.021599 
L 110.167921 82.889265 
L 108.718539 82.94527 
L 107.101481 83.539676 
L 106.080691 83.695356 
L 105.508038 83.784246 
L 105.523369 83.720823 
L 105.438813 83.597525 
L 105.322149 82.629512 
L 104.433668 82.709963 
L 104.429963 82.577927 
L 103.840463 82.433897 
L 103.934675 82.160916 
L 103.441028 81.949561 
L 103.225324 81.666994 
L 102.703047 81.738668 
L 102.555382 81.855725 
L 100.294704 81.685294 
L 100.190121 81.819166 
L 100.006297 81.933844 
L 99.467377 82.054261 
L 98.291832 82.019123 
L 97.656353 81.832472 
L 97.068133 82.102478 
L 96.855655 82.377994 
L 96.776774 82.680359 
L 96.544184 82.766768 
L 95.766456 82.940905 
L 94.728959 83.697115 
L 94.610984 83.83817 
L 93.469486 84.183712 
L 93.322393 84.137952 
L 92.534499 84.099022 
L 91.757831 84.384352 
L 91.675575 84.465517 
L 91.557914 84.496996 
L 91.634368 84.567642 
L 91.957835 84.701553 
L 92.206024 84.979111 
L 92.186092 84.986875 
L 92.132639 85.115064 
L 92.039871 85.60024 
L 92.221819 86.043731 
L 92.166969 86.04629 
L 92.002755 86.28246 
L 92.831078 86.495056 
L 92.510768 87.076014 
L 92.802919 87.292818 
L 92.961237 87.489603 
L 93.005513 87.775875 
L 93.021026 87.82311 
L 92.194437 88.443925 
L 91.932557 88.793706 
L 92.019146 89.006019 
L 91.698859 89.043889 
L 91.622954 88.8763 
L 91.509061 88.941222 
L 91.902647 89.79144 
L 91.954546 89.920987 
L 91.473632 90.210603 
L 91.246474 90.239571 
L 91.388149 90.554504 
L 90.42969 90.667612 
L 90.289546 90.985544 
L 89.793238 90.914961 
L 89.506966 90.99224 
L 88.311866 90.967629 
L 87.903513 91.274916 
L 87.669776 91.275466 
L 87.58672 90.984633 
L 87.60582 90.884949 
L 87.52029 90.886048 
L 86.247612 90.698401 
L 85.58833 90.795855 
L 85.488277 90.86311 
L 85.453398 90.595318 
L 85.532389 90.303575 
L 85.50083 90.253709 
L 84.213551 89.812691 
L 83.264803 89.92956 
L 83.275777 89.962241 
L 83.186676 90.042307 
L 82.497759 90.00424 
L 82.068611 89.87489 
L 81.233151 89.79155 
L 81.274209 89.819976 
L 81.304527 89.853702 
L 81.155401 89.872268 
L 80.958734 90.058423 
L 80.733962 90.076464 
L 79.657449 89.903418 
L 79.360015 89.811058 
L 79.056237 90.624364 
L 79.189819 90.967417 
L 79.802893 91.717371 
L 79.828415 91.742641 
L 79.755556 91.757706 
L 79.441902 91.921402 
L 79.188304 92.061091 
L 79.31902 92.090412 
L 79.344291 92.139807 
L 79.23488 92.161042 
L 78.881135 92.048805 
L 78.637177 91.991772 
L 78.507677 92.08414 
L 77.936296 92.130049 
L 77.663449 92.055981 
L 77.425253 92.01822 
L 77.292731 91.998649 
L 76.939339 91.825651 
L 76.575466 91.684917 
L 74.616086 91.830683 
L 74.244685 91.764834 
L 74.337994 91.678558 
L 74.386557 91.642494 
L 74.239661 91.612231 
L 73.663664 91.460836 
L 73.330604 91.428273 
L 73.184383 91.406944 
L 73.173856 91.50187 
L 72.194405 91.651137 
L 71.951836 91.671485 
L 71.409517 91.651294 
L 70.74036 91.418649 
L 70.744607 91.390858 
L 70.570855 91.364748 
L 70.442203 91.289345 
L 69.218182 91.234314 
M 149.136683 160.774199 
L 149.160579 160.712495 
L 149.258913 160.745443 
L 149.340196 160.82726 
L 149.136683 160.774199 
M 212.261053 146.376565 
L 213.025937 146.027875 
L 213.174097 145.920051 
L 213.600678 145.932972 
L 213.805596 145.824794 
L 214.179556 145.625811 
L 214.12385 145.381319 
L 214.269608 145.329821 
L 214.527689 145.078743 
L 214.991104 144.807866 
L 214.669561 144.520338 
L 214.603429 144.431142 
L 214.021411 144.037509 
L 213.954023 143.870893 
L 214.140729 143.52375 
L 214.115529 143.268252 
L 214.000513 143.207804 
L 214.073208 142.914931 
L 214.004737 142.763434 
L 214.799704 141.817182 
L 215.515076 141.563074 
L 218.578847 139.343061 
L 218.450627 139.298337 
L 216.114923 138.587864 
L 214.540399 138.72815 
L 215.065831 137.001799 
L 215.104416 136.901746 
L 215.570476 135.670283 
L 215.62159 135.69308 
L 216.200649 135.942753 
L 216.788979 135.876952 
L 216.869806 135.624649 
L 216.876558 135.243207 
L 217.090409 134.826541 
L 217.390921 134.196848 
L 217.07054 133.523381 
L 215.693774 133.804636 
L 215.429916 133.42204 
L 215.640219 133.244551 
L 216.038892 133.17053 
L 216.451445 133.054298 
L 217.044736 132.855008 
L 217.859204 132.371724 
L 218.383302 132.381639 
L 218.826047 132.508265 
L 219.325887 132.618838 
L 221.5776 133.19927 
L 221.602439 133.129583 
L 222.452782 133.076624 
L 222.506612 132.816212 
L 222.228804 132.612872 
L 221.594753 132.227324 
L 221.179853 131.655323 
L 221.209795 131.635956 
L 221.707445 131.337368 
L 222.616384 130.166972 
L 222.638954 129.99395 
L 226.068999 130.108094 
L 226.065804 129.332627 
L 225.905405 129.022962 
L 225.946148 129.028708 
L 226.854993 129.055478 
L 227.60749 128.989072 
L 227.709513 128.085754 
L 227.456205 128.07576 
L 227.523954 127.448657 
L 227.611384 127.46855 
L 229.588836 127.6781 
L 229.669655 127.711315 
L 229.540093 127.762782 
L 228.910666 128.01671 
L 228.97215 128.091532 
L 229.578835 128.962522 
L 229.420493 129.224748 
L 229.638026 129.903326 
L 229.081655 130.082439 
L 229.640743 130.017682 
L 230.238289 130.081686 
L 231.899097 130.402868 
L 231.901138 130.39194 
L 232.061623 130.400262 
L 232.805343 130.348072 
L 234.338229 130.167168 
L 234.336541 130.156194 
L 234.839365 129.98672 
L 234.923183 129.914088 
L 234.829481 129.937702 
L 234.912546 129.893795 
L 234.861903 129.74748 
L 234.835856 129.743312 
L 234.82894 129.735752 
L 234.9141 129.68832 
L 234.90541 129.669581 
L 235.381346 129.452291 
L 235.299224 129.359672 
L 235.473133 129.376417 
L 235.89133 129.214173 
L 235.973374 129.010064 
L 235.942161 128.991105 
L 235.917291 128.980735 
L 236.299674 128.483736 
L 237.159376 128.742264 
L 237.517305 128.835079 
L 237.859322 128.879693 
L 237.885221 128.937259 
L 237.846455 128.979636 
L 238.638777 129.432673 
L 238.640559 129.424069 
L 239.101917 129.277502 
L 239.416521 129.237465 
L 239.402123 129.179624 
L 239.396714 128.740757 
L 239.883359 128.536867 
L 239.988444 128.340027 
L 240.033827 128.364842 
L 240.891573 128.399674 
L 241.625716 128.366263 
L 241.850409 128.221691 
L 242.199774 128.151461 
L 242.541445 127.951057 
L 242.497852 127.779252 
L 241.429582 127.60057 
L 240.713684 127.297381 
L 240.84042 127.212094 
L 241.401941 126.802038 
L 241.902559 126.947843 
L 242.730129 126.378119 
L 242.793395 126.415353 
L 243.01392 126.34039 
L 242.869551 126.480197 
L 242.582519 126.873689 
L 242.625122 126.879435 
L 242.848214 126.904015 
L 243.668813 126.65979 
L 243.623822 126.826194 
L 243.42816 127.551701 
L 244.116967 128.017785 
L 245.854528 128.578113 
L 246.13579 128.621329 
L 246.178167 128.693741 
L 246.384788 128.681526 
L 246.376012 128.776421 
L 246.180318 129.412521 
L 245.868062 129.928525 
L 245.035891 130.214145 
L 244.939669 130.679169 
L 244.754825 130.856603 
L 244.352219 131.690461 
L 244.3154 131.822402 
L 244.406292 131.816986 
L 244.496893 131.811695 
L 245.357309 132.828176 
L 246.937643 132.867027 
L 248.703787 133.358743 
L 249.551124 133.858952 
L 249.940934 134.281585 
L 250.0432 134.310348 
L 250.672297 134.452636 
L 250.783506 134.484234 
L 251.033657 134.587443 
L 251.110018 134.928635 
L 251.161791 135.090973 
L 251.219876 135.397483 
L 251.414439 135.991967 
L 251.358796 136.159133 
L 251.407837 136.173955 
L 252.00032 136.27933 
L 255.383553 136.85495 
L 255.297262 136.938957 
L 255.002033 137.100525 
L 254.37672 137.076456 
L 254.382317 137.101208 
L 254.547191 137.697719 
L 255.741436 137.695646 
L 256.366866 137.731224 
L 256.919375 137.798392 
L 256.89529 138.106542 
L 256.122587 138.444398 
L 255.206009 138.979974 
L 254.821129 139.43316 
L 254.599702 139.910281 
L 254.456715 140.56961 
L 254.760564 140.614075 
L 254.701294 140.663367 
L 253.567858 141.689127 
L 253.491717 141.981436 
L 253.589933 141.997631 
L 253.722007 142.043391 
L 253.653081 142.099929 
L 253.320218 142.371348 
L 253.424416 142.391295 
L 253.695065 142.383484 
L 253.815262 142.337465 
L 254.080094 142.47531 
L 254.176795 142.69574 
L 254.26278 142.680605 
L 254.219838 142.590271 
L 254.20252 142.574774 
L 254.376532 142.403448 
L 254.519401 142.138019 
L 254.738873 142.100486 
L 255.134665 141.96977 
L 255.780052 141.731064 
L 255.945898 141.717601 
L 256.828193 141.920729 
L 257.436416 142.13513 
L 257.968569 142.199731 
L 259.31464 142.809728 
L 259.958134 142.933073 
L 260.170345 143.467463 
L 260.296163 143.60099 
L 260.689584 143.551658 
L 260.690762 143.217947 
L 260.511263 143.116143 
L 260.354311 142.753346 
L 260.205656 142.557543 
L 260.333335 142.560777 
L 260.536604 142.677096 
L 261.238019 142.958108 
L 261.586017 143.063075 
L 262.033975 143.560655 
L 262.768259 143.95676 
L 264.558441 144.233415 
L 264.643617 144.383412 
L 264.547388 144.520103 
L 264.650015 144.532514 
L 264.758923 144.545177 
L 264.715707 144.650748 
L 264.621189 144.901733 
L 265.079564 144.957439 
L 265.011415 145.044633 
L 264.912477 145.071403 
L 264.552412 145.038235 
L 264.568183 144.995552 
L 264.698122 144.65129 
L 264.620247 144.653057 
L 264.025746 144.777077 
L 263.727927 144.971703 
L 263.575481 145.327167 
L 262.364585 145.138555 
L 262.068674 145.001833 
L 262.959502 145.319348 
L 263.425916 145.368594 
L 263.406407 145.451957 
L 263.335205 145.652463 
L 263.459649 145.682789 
L 263.5539 145.704252 
L 263.54371 145.715015 
L 263.478623 145.843753 
L 263.194047 145.860953 
L 262.691985 146.489194 
L 262.697857 146.490741 
L 262.636601 146.583626 
L 262.687102 146.746553 
L 263.342545 147.34194 
L 263.259284 147.390487 
L 263.004908 147.549928 
L 262.735939 147.911618 
L 262.493716 147.925882 
L 262.302662 147.954504 
L 262.173523 148.021013 
L 261.861534 147.998145 
L 261.450222 147.981101 
L 261.099515 148.201241 
L 260.555688 148.444705 
L 260.319251 148.576693 
L 260.152164 148.643994 
L 260.200475 148.552914 
L 260.081644 148.659271 
L 259.971888 148.775982 
L 259.373667 149.05051 
L 259.338199 149.011109 
L 259.30434 149.082084 
L 259.188979 149.174443 
L 259.329595 149.255852 
L 259.60106 149.289027 
L 259.982054 149.397574 
L 260.186784 149.369949 
L 260.160925 149.435146 
L 260.059357 149.688721 
L 260.326999 149.708151 
L 260.317453 149.73335 
L 260.119302 150.004918 
L 259.705619 150.373862 
L 259.735247 150.431695 
L 259.651703 150.434922 
L 259.669233 150.488179 
L 259.232627 150.450505 
L 258.789222 150.314803 
L 258.471573 150.398857 
L 258.102606 150.516471 
L 257.955835 150.642815 
L 256.972868 151.682219 
L 256.888453 151.79769 
L 256.772723 152.07411 
L 256.49438 152.365939 
L 256.443643 152.423734 
L 256.407469 152.717777 
L 256.000341 152.723508 
L 255.920793 152.634673 
L 255.789095 152.632616 
L 255.279065 152.092668 
L 255.447549 151.123595 
L 255.496057 150.982398 
L 255.939029 150.681007 
L 256.132941 150.503777 
L 256.104052 150.261005 
L 255.732902 150.209538 
L 255.758055 150.15698 
L 255.788836 149.871446 
L 255.77816 149.683697 
L 255.678013 149.697584 
L 254.972296 149.712979 
L 254.586191 149.409326 
L 252.884632 149.988636 
L 252.945379 149.884603 
L 252.938769 149.742896 
L 252.857494 149.647028 
L 252.924363 149.597358 
L 252.853875 149.458203 
L 252.29149 149.054906 
L 252.027789 148.894758 
L 252.036581 148.785874 
L 251.98155 148.787719 
L 251.821183 148.41087 
L 249.406763 148.847562 
L 247.363541 148.782051 
L 247.337053 148.426751 
L 247.594483 147.868064 
L 247.483306 147.918762 
L 246.857467 148.104517 
L 246.084685 147.839724 
L 245.500617 147.853478 
L 242.988594 148.236089 
L 242.716304 147.503681 
L 242.066671 146.345211 
L 241.396077 146.302795 
L 240.525691 146.5575 
L 239.043464 146.964228 
L 238.179523 147.192885 
L 238.207305 147.439615 
L 238.849214 149.08261 
L 238.257713 149.787502 
L 235.81869 149.655734 
L 235.596164 148.822873 
L 234.399666 148.82628 
L 234.524942 148.40477 
L 232.783487 147.640435 
L 232.256728 147.314409 
L 232.279392 146.997694 
L 232.18978 147.027957 
L 229.733714 147.892722 
L 228.557141 146.77921 
L 228.637788 146.736143 
L 228.621741 146.641994 
L 228.55214 146.670671 
L 228.10525 146.911348 
L 226.678462 147.578927 
L 226.057694 147.537352 
L 225.3065 147.429762 
L 224.905653 147.396697 
L 224.633708 146.255505 
L 222.023061 146.532026 
L 221.381804 146.674761 
L 220.421956 146.828566 
L 217.831398 147.809014 
L 217.738481 148.090088 
L 217.713171 148.203824 
L 218.79145 148.18335 
L 218.809647 148.259813 
L 218.338037 148.366672 
L 217.273566 148.316163 
L 216.562198 148.178939 
L 216.572207 148.165059 
L 216.458918 148.14548 
L 215.560452 148.674077 
L 215.594616 148.695728 
L 215.780827 148.914424 
L 215.72651 148.904571 
L 215.274549 148.735514 
L 215.31855 148.576567 
L 215.759914 148.497098 
L 216.233746 148.232407 
L 215.976953 148.213252 
L 215.933603 148.12386 
L 216.047896 148.110318 
L 216.167206 148.086084 
L 215.912328 148.023831 
L 215.729195 148.022732 
L 215.121436 148.163552 
L 214.458551 147.735401 
L 214.047623 147.501892 
L 213.720294 147.173134 
L 213.843773 147.192179 
L 214.10216 147.095078 
L 214.094718 147.070765 
L 213.93154 146.901865 
L 213.733875 146.883024 
L 213.758321 146.968805 
L 213.640323 147.16818 
L 213.235071 146.870149 
L 213.243455 146.837539 
L 213.165046 146.840773 
L 212.897348 146.890262 
L 212.949373 146.94859 
L 213.069146 147.112278 
L 213.017616 147.142149 
L 212.971259 147.178394 
L 212.405727 146.91839 
L 212.407352 146.853962 
L 212.261053 146.376565 
M 244.847388 130.726067 
L 245.005424 130.65565 
L 244.847388 130.726067 
" style="fill:none;stroke:#ffc0cb;"/>
    <path clip-path="url(#p17484cc456)" d="M 143.944262 111.706554 
L 143.956909 111.709945 
L 143.982831 111.716893 
L 143.996373 111.718196 
L 144.011571 111.716955 
L 144.028779 111.712041 
L 144.076117 111.68261 
L 144.080725 111.685091 
L 144.170659 111.634707 
L 144.263623 111.585179 
L 144.193441 111.55399 
L 144.15141 111.58503 
L 144.136832 111.574566 
L 144.085168 111.614752 
L 144.030145 111.657795 
L 144.008415 111.647543 
L 144.001798 111.647048 
L 143.992832 111.653454 
L 143.995996 111.656759 
L 143.974408 111.677036 
L 143.944262 111.706554 
" style="fill:none;stroke:#ffc0cb;"/>
    <path clip-path="url(#p17484cc456)" d="M 147.236093 161.272164 
L 147.262981 161.277847 
L 147.310366 161.287653 
L 147.36951 161.218758 
L 147.331318 161.209251 
L 147.296871 161.201149 
L 147.236093 161.272164 
" style="fill:none;stroke:#ffc0cb;"/>
    <path clip-path="url(#p17484cc456)" d="M 147.436969 161.025545 
L 147.440007 161.038278 
L 147.45471 161.044582 
L 147.473928 161.042902 
L 147.481574 161.050524 
L 147.495941 161.069381 
L 147.505597 161.092767 
L 147.511084 161.100421 
L 147.520497 161.106215 
L 147.535891 161.106819 
L 147.573589 161.116303 
L 147.605131 161.115478 
L 147.61697 161.201236 
L 147.628251 161.240166 
L 147.650381 161.295024 
L 147.72357 161.289262 
L 147.849113 161.296296 
L 147.892792 161.294718 
L 147.93728 161.28178 
L 147.979861 161.275249 
L 148.022245 161.283358 
L 148.065124 161.285203 
L 148.070328 161.312742 
L 148.074442 161.33554 
L 147.75786 161.663693 
L 148.079113 161.336403 
L 148.075533 161.31381 
L 148.177761 161.334723 
L 148.242801 161.347072 
L 148.285727 161.304083 
L 148.340459 161.322328 
L 148.342571 161.317068 
L 148.366138 161.300307 
L 148.392719 161.269338 
L 148.392146 161.235306 
L 148.407392 161.219794 
L 148.377168 161.205899 
L 148.338128 161.192522 
L 148.292541 161.187042 
L 148.17298 161.16452 
L 148.117454 161.173752 
L 148.065861 161.183902 
L 148.05502 161.177708 
L 147.999691 161.170902 
L 147.945759 161.164936 
L 147.88787 161.173281 
L 147.821896 161.166152 
L 147.790149 161.160068 
L 147.753464 161.160304 
L 147.728979 161.155939 
L 147.713867 161.155413 
L 147.704517 161.151103 
L 147.688047 161.141251 
L 147.676106 161.132733 
L 147.66094 161.127356 
L 147.653435 161.123957 
L 147.640866 161.123266 
L 147.625644 161.115431 
L 147.615988 161.111781 
L 147.604974 161.11328 
L 147.589124 161.112252 
L 147.574955 161.114081 
L 147.537116 161.103664 
L 147.520544 161.101952 
L 147.51599 161.098412 
L 147.512944 161.095915 
L 147.499371 161.068329 
L 147.485248 161.048154 
L 147.475153 161.04017 
L 147.454812 161.041214 
L 147.442754 161.035781 
L 147.440792 161.025819 
L 147.44898 161.017828 
L 147.444568 161.0157 
L 147.436969 161.025545 
" style="fill:none;stroke:#ffc0cb;"/>
    <path clip-path="url(#p17484cc456)" d="M 148.523451 161.414844 
L 148.526278 161.4161 
L 148.526136 161.435326 
L 148.596687 161.444872 
L 148.678669 161.425843 
L 148.761922 161.4367 
L 148.868106 161.451443 
L 148.950449 161.446693 
L 148.980688 161.416815 
L 148.92112 161.384079 
L 148.934426 161.341545 
L 148.876898 161.324848 
L 148.806732 161.329448 
L 148.72099 161.308566 
L 148.750406 161.304178 
L 148.767684 161.30742 
L 148.781454 161.306415 
L 148.800522 161.297363 
L 148.825973 161.278821 
L 148.834216 161.274009 
L 148.8441 161.266237 
L 148.848307 161.256322 
L 148.872353 161.244075 
L 148.900136 161.241163 
L 148.92006 161.231821 
L 148.930799 161.228869 
L 148.955229 161.227629 
L 148.955386 161.225627 
L 148.930485 161.226773 
L 148.916637 161.230109 
L 148.898267 161.238117 
L 148.871419 161.241304 
L 148.850019 161.251078 
L 148.844414 161.256039 
L 148.840214 161.264667 
L 148.833439 161.272478 
L 148.822778 161.277533 
L 148.797257 161.296217 
L 148.78037 161.30413 
L 148.769553 161.304892 
L 148.753514 161.300935 
L 148.722231 161.304939 
L 148.713501 161.307836 
L 148.678496 161.320577 
L 148.646231 161.332863 
L 148.571543 161.34138 
L 148.555316 161.355205 
L 148.546665 161.366619 
L 148.523451 161.414844 
" style="fill:none;stroke:#ffc0cb;"/>
    <path clip-path="url(#p17484cc456)" d="M 149.013644 161.476014 
L 149.058839 161.487013 
L 149.073534 161.48713 
L 149.101568 161.496394 
L 149.143568 161.486848 
L 149.190992 161.495829 
L 149.245732 161.496245 
L 149.287669 161.471461 
L 149.29252 161.462998 
L 149.296132 161.448632 
L 149.298047 161.441339 
L 149.269487 161.426439 
L 149.213938 161.420575 
L 149.162526 161.418283 
L 149.128377 161.409592 
L 149.082562 161.408894 
L 149.053901 161.406177 
L 149.017632 161.435663 
L 149.013644 161.476014 
" style="fill:none;stroke:#ffc0cb;"/>
    <path clip-path="url(#p17484cc456)" d="M 149.291924 161.560979 
L 149.292183 161.562753 
L 149.306557 161.564849 
L 149.317296 161.569434 
L 149.30724 161.569912 
L 149.294554 161.569622 
L 149.294978 161.571428 
L 149.307923 161.571687 
L 149.319502 161.571106 
L 149.315027 161.574591 
L 149.30461 161.577912 
L 149.306777 161.579137 
L 149.318819 161.576295 
L 149.322925 161.571137 
L 149.337927 161.572173 
L 149.354091 161.577849 
L 149.359672 161.60538 
L 149.362554 161.61181 
L 149.373991 161.619503 
L 149.388939 161.625116 
L 149.40347 161.628406 
L 149.421808 161.628704 
L 149.43495 161.633116 
L 149.449057 161.63518 
L 149.466422 161.631891 
L 149.484917 161.634686 
L 149.499166 161.640338 
L 149.512519 161.650025 
L 149.525276 161.656588 
L 149.538417 161.666951 
L 149.547492 161.677423 
L 149.551174 161.685156 
L 149.565281 161.690769 
L 149.566757 161.688963 
L 149.600396 161.687974 
L 149.620454 161.674197 
L 149.625549 161.649476 
L 149.608631 161.63098 
L 149.577811 161.619056 
L 149.527505 161.599744 
L 149.497164 161.601094 
L 149.46548 161.588549 
L 149.442038 161.579977 
L 149.415151 161.572621 
L 149.356666 161.567275 
L 149.357773 161.576687 
L 149.35541 161.575102 
L 149.339301 161.570266 
L 149.323569 161.569135 
L 149.306557 161.563271 
L 149.291924 161.560979 
" style="fill:none;stroke:#ffc0cb;"/>
   </g>
   <g id="matplotlib.axis_1">
    <g id="xtick_1">
     <g id="line2d_1">
      <defs>
       <path d="M 0 0 
L 0 3.5 
" id="mc4b23ec93b" style="stroke:#000000;stroke-width:0.8;"/>
      </defs>
      <g>
       <use style="stroke:#000000;stroke-width:0.8;" x="87.570155" xlink:href="#mc4b23ec93b" y="238.270582"/>
      </g>
     </g>
     <g id="text_1">
      <!-- 11.5 -->
      <defs>
       <path d="M 12.40625 8.296875 
L 28.515625 8.296875 
L 28.515625 63.921875 
L 10.984375 60.40625 
L 10.984375 69.390625 
L 28.421875 72.90625 
L 38.28125 72.90625 
L 38.28125 8.296875 
L 54.390625 8.296875 
L 54.390625 0 
L 12.40625 0 
z
" id="DejaVuSans-49"/>
       <path d="M 10.6875 12.40625 
L 21 12.40625 
L 21 0 
L 10.6875 0 
z
" id="DejaVuSans-46"/>
       <path d="M 10.796875 72.90625 
L 49.515625 72.90625 
L 49.515625 64.59375 
L 19.828125 64.59375 
L 19.828125 46.734375 
Q 21.96875 47.46875 24.109375 47.828125 
Q 26.265625 48.1875 28.421875 48.1875 
Q 40.625 48.1875 47.75 41.5 
Q 54.890625 34.8125 54.890625 23.390625 
Q 54.890625 11.625 47.5625 5.09375 
Q 40.234375 -1.421875 26.90625 -1.421875 
Q 22.3125 -1.421875 17.546875 -0.640625 
Q 12.796875 0.140625 7.71875 1.703125 
L 7.71875 11.625 
Q 12.109375 9.234375 16.796875 8.0625 
Q 21.484375 6.890625 26.703125 6.890625 
Q 35.15625 6.890625 40.078125 11.328125 
Q 45.015625 15.765625 45.015625 23.390625 
Q 45.015625 31 40.078125 35.4375 
Q 35.15625 39.890625 26.703125 39.890625 
Q 22.75 39.890625 18.8125 39.015625 
Q 14.890625 38.140625 10.796875 36.28125 
z
" id="DejaVuSans-53"/>
      </defs>
      <g transform="translate(76.437343 252.86902)scale(0.1 -0.1)">
       <use xlink:href="#DejaVuSans-49"/>
       <use x="63.623047" xlink:href="#DejaVuSans-49"/>
       <use x="127.246094" xlink:href="#DejaVuSans-46"/>
       <use x="159.033203" xlink:href="#DejaVuSans-53"/>
      </g>
     </g>
    </g>
    <g id="xtick_2">
     <g id="line2d_2">
      <g>
       <use style="stroke:#000000;stroke-width:0.8;" x="126.821986" xlink:href="#mc4b23ec93b" y="238.270582"/>
      </g>
     </g>
     <g id="text_2">
      <!-- 12.0 -->
      <defs>
       <path d="M 19.1875 8.296875 
L 53.609375 8.296875 
L 53.609375 0 
L 7.328125 0 
L 7.328125 8.296875 
Q 12.9375 14.109375 22.625 23.890625 
Q 32.328125 33.6875 34.8125 36.53125 
Q 39.546875 41.84375 41.421875 45.53125 
Q 43.3125 49.21875 43.3125 52.78125 
Q 43.3125 58.59375 39.234375 62.25 
Q 35.15625 65.921875 28.609375 65.921875 
Q 23.96875 65.921875 18.8125 64.3125 
Q 13.671875 62.703125 7.8125 59.421875 
L 7.8125 69.390625 
Q 13.765625 71.78125 18.9375 73 
Q 24.125 74.21875 28.421875 74.21875 
Q 39.75 74.21875 46.484375 68.546875 
Q 53.21875 62.890625 53.21875 53.421875 
Q 53.21875 48.921875 51.53125 44.890625 
Q 49.859375 40.875 45.40625 35.40625 
Q 44.1875 33.984375 37.640625 27.21875 
Q 31.109375 20.453125 19.1875 8.296875 
z
" id="DejaVuSans-50"/>
       <path d="M 31.78125 66.40625 
Q 24.171875 66.40625 20.328125 58.90625 
Q 16.5 51.421875 16.5 36.375 
Q 16.5 21.390625 20.328125 13.890625 
Q 24.171875 6.390625 31.78125 6.390625 
Q 39.453125 6.390625 43.28125 13.890625 
Q 47.125 21.390625 47.125 36.375 
Q 47.125 51.421875 43.28125 58.90625 
Q 39.453125 66.40625 31.78125 66.40625 
z
M 31.78125 74.21875 
Q 44.046875 74.21875 50.515625 64.515625 
Q 56.984375 54.828125 56.984375 36.375 
Q 56.984375 17.96875 50.515625 8.265625 
Q 44.046875 -1.421875 31.78125 -1.421875 
Q 19.53125 -1.421875 13.0625 8.265625 
Q 6.59375 17.96875 6.59375 36.375 
Q 6.59375 54.828125 13.0625 64.515625 
Q 19.53125 74.21875 31.78125 74.21875 
z
" id="DejaVuSans-48"/>
      </defs>
      <g transform="translate(115.689173 252.86902)scale(0.1 -0.1)">
       <use xlink:href="#DejaVuSans-49"/>
       <use x="63.623047" xlink:href="#DejaVuSans-50"/>
       <use x="127.246094" xlink:href="#DejaVuSans-46"/>
       <use x="159.033203" xlink:href="#DejaVuSans-48"/>
      </g>
     </g>
    </g>
    <g id="xtick_3">
     <g id="line2d_3">
      <g>
       <use style="stroke:#000000;stroke-width:0.8;" x="166.073816" xlink:href="#mc4b23ec93b" y="238.270582"/>
      </g>
     </g>
     <g id="text_3">
      <!-- 12.5 -->
      <g transform="translate(154.941004 252.86902)scale(0.1 -0.1)">
       <use xlink:href="#DejaVuSans-49"/>
       <use x="63.623047" xlink:href="#DejaVuSans-50"/>
       <use x="127.246094" xlink:href="#DejaVuSans-46"/>
       <use x="159.033203" xlink:href="#DejaVuSans-53"/>
      </g>
     </g>
    </g>
    <g id="xtick_4">
     <g id="line2d_4">
      <g>
       <use style="stroke:#000000;stroke-width:0.8;" x="205.325647" xlink:href="#mc4b23ec93b" y="238.270582"/>
      </g>
     </g>
     <g id="text_4">
      <!-- 13.0 -->
      <defs>
       <path d="M 40.578125 39.3125 
Q 47.65625 37.796875 51.625 33 
Q 55.609375 28.21875 55.609375 21.1875 
Q 55.609375 10.40625 48.1875 4.484375 
Q 40.765625 -1.421875 27.09375 -1.421875 
Q 22.515625 -1.421875 17.65625 -0.515625 
Q 12.796875 0.390625 7.625 2.203125 
L 7.625 11.71875 
Q 11.71875 9.328125 16.59375 8.109375 
Q 21.484375 6.890625 26.8125 6.890625 
Q 36.078125 6.890625 40.9375 10.546875 
Q 45.796875 14.203125 45.796875 21.1875 
Q 45.796875 27.640625 41.28125 31.265625 
Q 36.765625 34.90625 28.71875 34.90625 
L 20.21875 34.90625 
L 20.21875 43.015625 
L 29.109375 43.015625 
Q 36.375 43.015625 40.234375 45.921875 
Q 44.09375 48.828125 44.09375 54.296875 
Q 44.09375 59.90625 40.109375 62.90625 
Q 36.140625 65.921875 28.71875 65.921875 
Q 24.65625 65.921875 20.015625 65.03125 
Q 15.375 64.15625 9.8125 62.3125 
L 9.8125 71.09375 
Q 15.4375 72.65625 20.34375 73.4375 
Q 25.25 74.21875 29.59375 74.21875 
Q 40.828125 74.21875 47.359375 69.109375 
Q 53.90625 64.015625 53.90625 55.328125 
Q 53.90625 49.265625 50.4375 45.09375 
Q 46.96875 40.921875 40.578125 39.3125 
z
" id="DejaVuSans-51"/>
      </defs>
      <g transform="translate(194.192834 252.86902)scale(0.1 -0.1)">
       <use xlink:href="#DejaVuSans-49"/>
       <use x="63.623047" xlink:href="#DejaVuSans-51"/>
       <use x="127.246094" xlink:href="#DejaVuSans-46"/>
       <use x="159.033203" xlink:href="#DejaVuSans-48"/>
      </g>
     </g>
    </g>
    <g id="xtick_5">
     <g id="line2d_5">
      <g>
       <use style="stroke:#000000;stroke-width:0.8;" x="244.577477" xlink:href="#mc4b23ec93b" y="238.270582"/>
      </g>
     </g>
     <g id="text_5">
      <!-- 13.5 -->
      <g transform="translate(233.444665 252.86902)scale(0.1 -0.1)">
       <use xlink:href="#DejaVuSans-49"/>
       <use x="63.623047" xlink:href="#DejaVuSans-51"/>
       <use x="127.246094" xlink:href="#DejaVuSans-46"/>
       <use x="159.033203" xlink:href="#DejaVuSans-53"/>
      </g>
     </g>
    </g>
    <g id="xtick_6">
     <g id="line2d_6">
      <g>
       <use style="stroke:#000000;stroke-width:0.8;" x="283.829308" xlink:href="#mc4b23ec93b" y="238.270582"/>
      </g>
     </g>
     <g id="text_6">
      <!-- 14.0 -->
      <defs>
       <path d="M 37.796875 64.3125 
L 12.890625 25.390625 
L 37.796875 25.390625 
z
M 35.203125 72.90625 
L 47.609375 72.90625 
L 47.609375 25.390625 
L 58.015625 25.390625 
L 58.015625 17.1875 
L 47.609375 17.1875 
L 47.609375 0 
L 37.796875 0 
L 37.796875 17.1875 
L 4.890625 17.1875 
L 4.890625 26.703125 
z
" id="DejaVuSans-52"/>
      </defs>
      <g transform="translate(272.696495 252.86902)scale(0.1 -0.1)">
       <use xlink:href="#DejaVuSans-49"/>
       <use x="63.623047" xlink:href="#DejaVuSans-52"/>
       <use x="127.246094" xlink:href="#DejaVuSans-46"/>
       <use x="159.033203" xlink:href="#DejaVuSans-48"/>
      </g>
     </g>
    </g>
    <g id="xtick_7">
     <g id="line2d_7">
      <g>
       <use style="stroke:#000000;stroke-width:0.8;" x="323.081138" xlink:href="#mc4b23ec93b" y="238.270582"/>
      </g>
     </g>
     <g id="text_7">
      <!-- 14.5 -->
      <g transform="translate(311.948325 252.86902)scale(0.1 -0.1)">
       <use xlink:href="#DejaVuSans-49"/>
       <use x="63.623047" xlink:href="#DejaVuSans-52"/>
       <use x="127.246094" xlink:href="#DejaVuSans-46"/>
       <use x="159.033203" xlink:href="#DejaVuSans-53"/>
      </g>
     </g>
    </g>
    <g id="xtick_8">
     <g id="line2d_8">
      <g>
       <use style="stroke:#000000;stroke-width:0.8;" x="362.332968" xlink:href="#mc4b23ec93b" y="238.270582"/>
      </g>
     </g>
     <g id="text_8">
      <!-- 15.0 -->
      <g transform="translate(351.200156 252.86902)scale(0.1 -0.1)">
       <use xlink:href="#DejaVuSans-49"/>
       <use x="63.623047" xlink:href="#DejaVuSans-53"/>
       <use x="127.246094" xlink:href="#DejaVuSans-46"/>
       <use x="159.033203" xlink:href="#DejaVuSans-48"/>
      </g>
     </g>
    </g>
   </g>
   <g id="matplotlib.axis_2">
    <g id="ytick_1">
     <g id="line2d_9">
      <defs>
       <path d="M 0 0 
L -3.5 0 
" id="md05f0536bd" style="stroke:#000000;stroke-width:0.8;"/>
      </defs>
      <g>
       <use style="stroke:#000000;stroke-width:0.8;" x="54" xlink:href="#md05f0536bd" y="218.571083"/>
      </g>
     </g>
     <g id="text_9">
      <!-- 51.5 -->
      <g transform="translate(24.734375 222.370302)scale(0.1 -0.1)">
       <use xlink:href="#DejaVuSans-53"/>
       <use x="63.623047" xlink:href="#DejaVuSans-49"/>
       <use x="127.246094" xlink:href="#DejaVuSans-46"/>
       <use x="159.033203" xlink:href="#DejaVuSans-53"/>
      </g>
     </g>
    </g>
    <g id="ytick_2">
     <g id="line2d_10">
      <g>
       <use style="stroke:#000000;stroke-width:0.8;" x="54" xlink:href="#md05f0536bd" y="179.319253"/>
      </g>
     </g>
     <g id="text_10">
      <!-- 52.0 -->
      <g transform="translate(24.734375 183.118471)scale(0.1 -0.1)">
       <use xlink:href="#DejaVuSans-53"/>
       <use x="63.623047" xlink:href="#DejaVuSans-50"/>
       <use x="127.246094" xlink:href="#DejaVuSans-46"/>
       <use x="159.033203" xlink:href="#DejaVuSans-48"/>
      </g>
     </g>
    </g>
    <g id="ytick_3">
     <g id="line2d_11">
      <g>
       <use style="stroke:#000000;stroke-width:0.8;" x="54" xlink:href="#md05f0536bd" y="140.067422"/>
      </g>
     </g>
     <g id="text_11">
      <!-- 52.5 -->
      <g transform="translate(24.734375 143.866641)scale(0.1 -0.1)">
       <use xlink:href="#DejaVuSans-53"/>
       <use x="63.623047" xlink:href="#DejaVuSans-50"/>
       <use x="127.246094" xlink:href="#DejaVuSans-46"/>
       <use x="159.033203" xlink:href="#DejaVuSans-53"/>
      </g>
     </g>
    </g>
    <g id="ytick_4">
     <g id="line2d_12">
      <g>
       <use style="stroke:#000000;stroke-width:0.8;" x="54" xlink:href="#md05f0536bd" y="100.815592"/>
      </g>
     </g>
     <g id="text_12">
      <!-- 53.0 -->
      <g transform="translate(24.734375 104.61481)scale(0.1 -0.1)">
       <use xlink:href="#DejaVuSans-53"/>
       <use x="63.623047" xlink:href="#DejaVuSans-51"/>
       <use x="127.246094" xlink:href="#DejaVuSans-46"/>
       <use x="159.033203" xlink:href="#DejaVuSans-48"/>
      </g>
     </g>
    </g>
    <g id="ytick_5">
     <g id="line2d_13">
      <g>
       <use style="stroke:#000000;stroke-width:0.8;" x="54" xlink:href="#md05f0536bd" y="61.563761"/>
      </g>
     </g>
     <g id="text_13">
      <!-- 53.5 -->
      <g transform="translate(24.734375 65.36298)scale(0.1 -0.1)">
       <use xlink:href="#DejaVuSans-53"/>
       <use x="63.623047" xlink:href="#DejaVuSans-51"/>
       <use x="127.246094" xlink:href="#DejaVuSans-46"/>
       <use x="159.033203" xlink:href="#DejaVuSans-53"/>
      </g>
     </g>
    </g>
   </g>
   <g id="patch_3">
    <path d="M 54 238.270582 
L 54 48.289418 
" style="fill:none;stroke:#000000;stroke-linecap:square;stroke-linejoin:miter;stroke-width:0.8;"/>
   </g>
   <g id="patch_4">
    <path d="M 388.8 238.270582 
L 388.8 48.289418 
" style="fill:none;stroke:#000000;stroke-linecap:square;stroke-linejoin:miter;stroke-width:0.8;"/>
   </g>
   <g id="patch_5">
    <path d="M 54 238.270582 
L 388.8 238.270582 
" style="fill:none;stroke:#000000;stroke-linecap:square;stroke-linejoin:miter;stroke-width:0.8;"/>
   </g>
   <g id="patch_6">
    <path d="M 54 48.289418 
L 388.8 48.289418 
" style="fill:none;stroke:#000000;stroke-linecap:square;stroke-linejoin:miter;stroke-width:0.8;"/>
   </g>
  </g>
 </g>
 <defs>
  <clipPath id="p17484cc456">
   <rect height="189.981165" width="334.8" x="54" y="48.289418"/>
  </clipPath>
 </defs>
</svg>
