<?xml version="1.0" encoding="utf-8" standalone="no"?>
<!DOCTYPE svg PUBLIC "-//W3C//DTD SVG 1.1//EN"
  "http://www.w3.org/Graphics/SVG/1.1/DTD/svg11.dtd">
<!-- Created with matplotlib (https://matplotlib.org/) -->
<svg height="288pt" version="1.1" viewBox="0 0 432 288" width="432pt" xmlns="http://www.w3.org/2000/svg" xmlns:xlink="http://www.w3.org/1999/xlink">
 <defs>
  <style type="text/css">
*{stroke-linecap:butt;stroke-linejoin:round;}
  </style>
 </defs>
 <g id="figure_1">
  <g id="patch_1">
   <path d="M 0 288 
L 432 288 
L 432 0 
L 0 0 
z
" style="fill:#ffffff;"/>
  </g>
  <g id="axes_1">
   <g id="patch_2">
    <path d="M 96.109989 252 
L 346.690011 252 
L 346.690011 34.56 
L 96.109989 34.56 
z
" style="fill:#ffffff;"/>
   </g>
   <g id="PatchCollection_1">
    <path clip-path="url(#p0943704ed6)" d="M 194.654268 194.19575 
L 278.689891 192.700713 
L 277.161391 140.052037 
L 191.271617 141.60066 
L 194.654268 194.19575 
" style="fill:none;stroke:#0000ff;stroke-opacity:0.2;"/>
    <path clip-path="url(#p0943704ed6)" d="M 194.980172 98.613407 
L 198.924375 46.04743 
L 117.515682 44.443636 
L 114.270515 51.548157 
L 110.748745 59.30114 
L 108.682386 63.885371 
L 107.49999 96.911489 
L 194.980172 98.613407 
" style="fill:none;stroke:#0000ff;stroke-opacity:0.2;"/>
    <path clip-path="url(#p0943704ed6)" d="M 264.688114 196.816413 
L 269.909616 144.315089 
L 184.220542 141.599883 
L 180.838564 194.195 
L 264.688114 196.816413 
" style="fill:none;stroke:#0000ff;stroke-opacity:0.2;"/>
    <path clip-path="url(#p0943704ed6)" d="M 197.57304 242.116364 
L 264.386912 240.942618 
L 265.689158 238.326085 
L 266.663982 236.334752 
L 269.43742 230.658784 
L 273.312497 222.96985 
L 276.865993 216.038062 
L 277.271698 215.244568 
L 279.203811 211.467753 
L 278.557261 188.010856 
L 194.360739 189.510572 
L 197.57304 242.116364 
" style="fill:none;stroke:#0000ff;stroke-opacity:0.2;"/>
    <path clip-path="url(#p0943704ed6)" d="M 271.153876 192.788597 
L 288.82151 192.690835 
L 289.0455 192.255789 
L 289.544604 191.291525 
L 293.043 184.526109 
L 297.035941 176.847553 
L 301.063039 169.171914 
L 304.747904 162.173248 
L 305.079036 161.543634 
L 305.222834 161.272575 
L 309.172887 153.816197 
L 313.264941 146.140074 
L 316.619754 139.878602 
L 269.458821 140.143072 
L 271.153876 192.788597 
" style="fill:none;stroke:#0000ff;stroke-opacity:0.2;"/>
    <path clip-path="url(#p0943704ed6)" d="M 272.143645 225.289087 
L 273.312497 222.96985 
L 276.865993 216.038062 
L 277.271698 215.244568 
L 281.199618 207.566432 
L 285.114511 199.881227 
L 288.643119 193.037316 
L 289.0455 192.255789 
L 289.544604 191.291525 
L 291.253453 187.986847 
L 271.006794 188.099015 
L 272.143645 225.289087 
" style="fill:none;stroke:#0000ff;stroke-opacity:0.2;"/>
   </g>
   <g id="PatchCollection_2">
    <path clip-path="url(#p0943704ed6)" d="M 148.619732 98.497748 
L 148.786329 98.790839 
L 148.715782 99.283936 
L 148.754904 99.579288 
L 149.011145 99.85111 
L 149.987374 100.484804 
L 151.231152 101.062621 
L 152.031662 101.827876 
L 152.583661 102.088998 
L 153.27033 102.09748 
L 155.918856 101.141618 
L 158.550051 100.84769 
L 159.131506 101.027158 
L 160.603419 101.968058 
L 161.219909 102.346204 
L 161.87253 102.506587 
L 162.703856 102.455804 
L 163.655131 102.213304 
L 163.918941 102.315559 
L 164.648899 102.850423 
L 165.727761 103.125169 
L 166.306036 103.09806 
L 167.649727 102.784277 
L 168.341011 102.877644 
L 168.628031 103.058106 
L 168.62491 103.273112 
L 168.271179 103.547943 
L 167.800486 103.963601 
L 167.777874 104.24231 
L 168.038201 104.50851 
L 168.565485 104.702222 
L 169.137365 104.718507 
L 170.55412 104.600607 
L 170.882316 104.921058 
L 170.911229 105.19686 
L 170.920526 105.726603 
L 171.159276 106.033729 
L 171.574576 106.173062 
L 171.986762 106.190446 
L 173.733473 105.623016 
L 174.677632 105.775829 
L 175.441031 106.233665 
L 176.267583 107.013761 
L 176.538466 107.148122 
L 177.699237 107.259402 
L 178.951476 107.329192 
L 179.555665 107.605217 
L 179.714789 107.891368 
L 179.585255 108.2085 
L 179.18807 108.470236 
L 178.656849 108.771178 
L 178.335294 109.20908 
L 178.476804 109.526122 
L 178.82167 109.76811 
L 179.477117 109.860554 
L 181.115557 109.92901 
L 181.623041 110.390543 
L 182.093669 110.632397 
L 182.8689 110.769783 
L 184.99539 111.012667 
L 185.877564 111.413058 
L 187.098922 111.577697 
L 187.127967 111.439324 
L 187.435562 111.297046 
L 188.134372 111.204784 
L 188.231234 111.01934 
L 188.256188 111.023181 
L 189.118571 110.902064 
L 189.555086 110.979162 
L 190.297083 110.972382 
L 190.422979 111.0475 
L 190.805159 110.960764 
L 191.371965 111.083032 
L 191.305964 111.206144 
L 191.38823 111.20728 
L 192.052719 111.245821 
L 192.117334 111.301975 
L 192.201505 111.581149 
L 193.77883 111.632401 
L 194.08085 110.996056 
L 194.453459 110.645007 
L 194.45259 110.647749 
L 194.628517 110.68549 
L 194.189254 111.415688 
L 194.247233 111.693373 
L 194.871507 112.169415 
L 194.37361 112.805707 
L 194.631701 112.770549 
L 195.389467 112.587943 
L 197.068022 112.159115 
L 197.895145 111.67291 
L 198.197608 111.525325 
L 198.298582 111.59434 
L 198.470001 111.938705 
L 198.799941 112.106566 
L 198.88464 112.160048 
L 198.869645 112.189627 
L 199.087068 112.392893 
L 199.327066 112.228435 
L 199.496714 112.176366 
L 199.969001 112.347679 
L 200.254533 112.579488 
L 200.208002 112.671372 
L 200.13483 112.970912 
L 200.298627 113.174386 
L 200.507061 113.293187 
L 200.451984 113.379219 
L 200.965554 114.863454 
L 201.518827 115.414802 
L 201.229241 115.481631 
L 201.4091 115.755064 
L 200.984256 115.906058 
L 200.971475 116.216661 
L 200.653473 116.405481 
L 200.560634 116.332892 
L 199.499482 116.222993 
L 199.547705 116.256637 
L 199.684712 116.373166 
L 199.57187 117.062609 
L 199.108336 117.23676 
L 199.130415 117.365995 
L 199.113532 117.531371 
L 199.23955 117.613061 
L 199.015806 117.594119 
L 198.768436 117.696047 
L 198.742357 117.784539 
L 198.983283 118.206593 
L 199.475729 118.328307 
L 199.48357 118.459142 
L 199.538109 118.596891 
L 199.512269 118.662413 
L 199.378665 118.687644 
L 199.455042 118.746845 
L 199.601134 118.903766 
L 199.569933 118.92083 
L 198.49145 119.504205 
L 198.535405 119.500525 
L 198.757986 119.597204 
L 198.581702 119.644408 
L 198.726893 119.718609 
L 198.302865 120.053249 
L 198.339133 120.081574 
L 198.435776 120.068051 
L 198.798672 119.986308 
L 198.996603 120.168828 
L 198.965562 120.188405 
L 198.707886 120.363004 
L 199.054368 120.529222 
L 199.359237 120.625075 
L 199.399933 120.674946 
L 199.71243 120.858901 
L 199.662137 120.899975 
L 199.355887 121.063777 
L 199.490323 121.422214 
L 199.676391 121.639071 
L 200.16953 121.634585 
L 200.104942 121.735713 
L 199.873314 121.945919 
L 199.901474 121.96955 
L 200.312213 122.303064 
L 200.513244 122.616847 
L 200.435896 123.005438 
L 200.450101 123.019003 
L 200.227403 123.163345 
L 200.265287 123.218695 
L 200.304847 123.438224 
L 200.192159 123.554503 
L 200.363695 123.809885 
L 200.426496 123.997323 
L 200.385139 124.142124 
L 200.094321 124.312583 
L 200.088192 124.756913 
L 200.397238 124.756838 
L 199.872007 124.863168 
L 198.674077 125.249972 
L 198.467942 125.347852 
L 197.981625 125.276223 
L 196.666831 124.880638 
L 196.709169 125.488903 
L 197.113929 125.409043 
L 197.014934 125.471657 
L 196.839354 125.862462 
L 196.921909 125.981098 
L 197.131783 125.984646 
L 197.012806 126.585907 
L 197.185468 127.597044 
L 197.444611 127.667617 
L 197.315296 127.760467 
L 196.138442 128.63274 
L 195.393927 130.112536 
L 195.395618 130.182998 
L 195.4984 130.100582 
L 196.113365 129.972723 
L 196.439081 129.808062 
L 197.114655 129.689608 
L 197.472333 129.87447 
L 197.829767 129.960961 
L 197.755902 130.034623 
L 197.56066 130.278611 
L 197.231808 130.436449 
L 197.02954 130.682517 
L 196.676608 130.896056 
L 196.716637 130.953907 
L 196.895861 131.356048 
L 197.69851 131.868162 
L 197.725214 131.814546 
L 197.881868 131.737075 
L 198.885835 131.667441 
L 199.083232 131.488916 
L 199.088444 131.512105 
L 199.327215 131.629087 
L 199.591591 131.667697 
L 199.687844 131.500748 
L 199.915829 131.345502 
L 199.882676 131.302758 
L 199.694778 131.06371 
L 199.715668 131.0456 
L 199.948885 130.934144 
L 200.15062 130.77637 
L 200.138255 130.589939 
L 200.107854 130.483226 
L 200.143509 130.463446 
L 200.441225 130.442797 
L 200.942221 130.681744 
L 201.522097 130.709301 
L 201.536633 130.971554 
L 201.516496 131.097353 
L 201.608861 131.35001 
L 201.655392 131.484131 
L 202.168012 131.631322 
L 202.088419 131.680265 
L 201.741819 131.932227 
L 201.857644 131.951276 
L 202.208367 132.108858 
L 202.262868 132.346738 
L 202.301467 132.340161 
L 202.873101 132.220725 
L 203.057585 132.076863 
L 203.497919 132.033511 
L 203.476961 132.000331 
L 203.536961 131.929928 
L 203.764701 131.92038 
L 204.347719 132.166789 
L 205.344388 131.859136 
L 205.379536 131.954552 
L 205.218631 132.151106 
L 204.470814 132.203436 
L 204.219353 132.789884 
L 204.292263 132.846257 
L 204.567472 132.952454 
L 204.744973 132.973626 
L 205.406064 132.814886 
L 205.220728 132.987863 
L 205.107181 133.294343 
L 205.022919 133.643327 
L 204.543809 133.832509 
L 204.641769 134.214406 
L 204.33091 134.236453 
L 203.980513 134.369705 
L 204.021176 134.475955 
L 203.910131 134.573141 
L 204.012225 134.590702 
L 204.174859 134.632331 
L 204.114986 134.70698 
L 203.909603 135.074261 
L 203.814817 135.224364 
L 203.1877 135.378095 
L 203.296446 135.476065 
L 203.619777 135.739401 
L 203.456295 135.762056 
L 203.016403 135.936895 
L 202.423074 136.334528 
L 202.659599 136.443151 
L 203.88579 136.731174 
L 203.8703 136.774174 
L 203.921024 137.074327 
L 203.904002 137.220974 
L 203.729649 137.307529 
L 203.461459 137.539221 
L 203.397708 137.840527 
L 203.471349 138.018337 
L 204.114447 138.203177 
L 203.998484 138.292303 
L 203.689988 138.552374 
L 203.068509 138.637665 
L 202.914533 138.811282 
L 203.015113 138.997654 
L 203.679436 139.51364 
L 203.651671 139.632719 
L 204.196303 139.967871 
L 204.157954 140.000736 
L 203.627603 140.569804 
L 203.17813 141.147504 
L 202.85306 141.298626 
L 202.589943 141.650922 
L 202.155797 142.262095 
L 201.805143 142.654895 
L 201.724776 142.814259 
L 201.151221 143.861125 
L 201.180037 144.564224 
L 201.177632 144.563909 
L 200.861059 145.001145 
L 200.852738 145.023181 
L 201.751954 145.195416 
L 201.522135 145.376166 
L 201.633062 145.405616 
L 202.450498 145.68863 
L 202.32807 145.735695 
L 201.858519 145.758857 
L 201.876634 145.710048 
L 201.734922 145.77789 
L 201.764399 145.841988 
L 201.821248 145.844959 
L 202.090606 145.805447 
L 203.011501 145.910283 
L 203.007111 145.936134 
L 203.01404 146.024673 
L 203.058908 146.015642 
L 203.612224 146.141053 
L 203.439076 146.223404 
L 202.553275 146.794671 
L 201.759567 146.817752 
L 201.564089 146.832032 
L 200.85932 147.268019 
L 200.842768 147.285799 
L 200.95002 147.317015 
L 201.264555 147.433539 
L 201.253246 147.45613 
L 200.96884 147.792066 
L 200.672933 148.002949 
L 200.807726 148.422901 
L 200.967768 148.552323 
L 200.857597 148.586425 
L 200.489837 148.600716 
L 199.937689 148.417193 
L 199.286221 149.25211 
L 199.569352 149.506467 
L 200.226992 149.667527 
L 200.121276 150.089763 
L 200.139701 150.090552 
L 201.307731 151.129641 
L 201.899455 151.385972 
L 201.934459 151.578009 
L 202.084252 151.741315 
L 202.150868 152.227231 
L 202.543497 152.820208 
L 203.057627 152.851884 
L 204.811647 153.648062 
L 205.060772 154.182569 
L 205.298113 154.585025 
L 205.696045 154.892481 
L 206.377497 155.237448 
L 206.952156 155.867136 
L 208.793126 156.264641 
L 209.385212 156.693202 
L 210.414165 157.222594 
L 210.811521 157.382795 
L 211.530752 157.467649 
L 211.778708 157.423326 
L 211.863396 157.068415 
L 211.900945 156.965046 
L 212.471197 156.497229 
L 213.405413 156.582093 
L 213.469281 156.972381 
L 213.647843 157.440364 
L 214.289725 157.806348 
L 214.531803 157.920684 
L 215.552505 158.07035 
L 216.344144 158.195553 
L 216.368292 158.373624 
L 216.577756 158.914655 
L 216.5369 159.156051 
L 216.571366 159.155421 
L 220.579377 159.294392 
L 220.548449 159.207708 
L 220.578759 158.96068 
L 220.513205 158.794451 
L 220.618708 158.778592 
L 221.900691 158.66297 
L 222.161604 158.545145 
L 222.395836 157.89581 
L 222.734247 157.666668 
L 223.531775 157.6856 
L 223.744631 157.834172 
L 223.954037 158.083659 
L 225.37666 158.297097 
L 225.724518 158.365473 
L 225.664411 158.468842 
L 226.010802 158.636832 
L 226.98271 158.979259 
L 227.1456 158.91713 
L 227.675114 159.014786 
L 228.203214 159.230971 
L 228.463883 159.405618 
L 229.195617 159.642132 
L 229.162539 160.222243 
L 230.503861 160.371605 
L 231.882844 160.21741 
L 232.80272 160.085337 
L 233.027569 160.528803 
L 233.12061 160.589428 
L 233.414656 161.825573 
L 235.20161 161.982381 
L 235.3322 162.173383 
L 236.165319 162.106757 
L 236.56771 162.019268 
L 236.675821 161.58821 
L 237.345517 161.68753 
L 238.305198 161.799872 
L 239.005524 161.822671 
L 238.994818 161.881034 
L 238.77324 162.473968 
L 238.810799 162.476865 
L 239.853269 162.62516 
L 239.848367 162.64934 
L 239.668445 163.632824 
L 239.727491 163.613716 
L 240.476508 163.468307 
L 241.18786 163.517708 
L 241.951653 163.630599 
L 242.27436 163.865529 
L 242.275358 163.682753 
L 242.314789 163.511665 
L 243.544208 163.743522 
L 243.677668 164.127195 
L 243.101905 164.175044 
L 243.12584 164.293451 
L 243.109394 164.740555 
L 243.105217 164.740192 
L 242.540619 164.696995 
L 242.636109 164.848517 
L 242.947305 165.040687 
L 243.339289 165.265354 
L 244.662239 165.345459 
L 245.537307 165.2034 
L 245.633171 165.085069 
L 246.51815 165.087672 
L 247.451123 164.86349 
L 247.50333 164.586734 
L 248.165584 164.620996 
L 248.154654 164.774316 
L 248.546201 164.882811 
L 248.574153 164.955252 
L 248.748271 165.07026 
L 248.825342 165.144936 
L 249.113098 165.253415 
L 249.166351 165.751526 
L 249.11026 165.846254 
L 247.686917 166.03925 
L 247.693788 166.077423 
L 247.894445 166.564257 
L 248.249451 167.078883 
L 248.36654 167.292679 
L 248.544867 167.463714 
L 248.538834 167.493303 
L 248.646737 167.493805 
L 248.70821 167.572268 
L 248.634671 167.694969 
L 248.576857 167.709745 
L 248.845858 167.9702 
L 249.09007 167.994615 
L 248.968185 168.070827 
L 249.012647 168.110899 
L 249.358361 168.318186 
L 249.758107 168.940406 
L 249.673429 168.986393 
L 249.566603 169.163601 
L 249.827432 169.425373 
L 249.721998 169.474732 
L 249.639972 169.661365 
L 250.201802 169.708014 
L 250.142463 169.938105 
L 249.608526 169.954423 
L 249.606627 170.024159 
L 249.689608 170.044232 
L 249.680513 170.261314 
L 249.549886 170.439097 
L 248.963576 170.805476 
L 249.09166 170.825597 
L 249.405298 170.924395 
L 249.299603 170.943737 
L 249.078718 171.189859 
L 249.157101 171.215512 
L 249.847958 171.5554 
L 249.788566 171.651819 
L 249.420357 171.831688 
L 249.435021 171.845893 
L 249.541985 171.940839 
L 249.386377 171.91476 
L 249.384606 171.934955 
L 249.284518 171.99581 
L 249.251066 171.999314 
L 249.473466 172.052957 
L 249.444143 172.088707 
L 250.070844 172.305207 
L 250.023837 172.349248 
L 250.178032 172.506696 
L 250.548449 172.624409 
L 250.772092 172.900323 
L 251.074144 173.5177 
L 250.977608 173.514024 
L 250.039414 173.391734 
L 250.1007 173.529211 
L 250.208646 173.81526 
L 250.167273 173.935982 
L 250.120613 173.921062 
L 249.474725 173.7204 
L 249.352056 173.889264 
L 249.668564 174.407544 
L 249.696036 174.617957 
L 249.449733 174.634654 
L 249.640783 174.714232 
L 249.729216 174.847313 
L 249.640836 174.857656 
L 249.36584 174.948868 
L 249.336746 175.080109 
L 243.819625 177.150467 
L 243.936309 177.26723 
L 245.56742 179.029646 
L 245.789692 179.273469 
L 246.358984 179.275549 
L 246.293132 179.22538 
L 246.263963 179.190898 
L 246.713249 179.176266 
L 246.411639 179.098865 
L 246.290294 178.825101 
L 246.657473 178.812837 
L 246.805058 179.069648 
L 247.066447 179.009712 
L 247.032414 178.936274 
L 247.009961 178.900256 
L 247.47333 178.700869 
L 247.433914 178.633453 
L 247.632235 178.782143 
L 247.974988 179.083523 
L 248.554816 179.55158 
L 248.795203 179.723112 
L 248.773391 179.764026 
L 248.775471 179.828508 
L 249.436563 179.796395 
L 249.475503 179.868611 
L 249.727626 180.113218 
L 249.336677 180.282941 
L 249.343884 180.509998 
L 249.048979 180.825199 
L 248.674753 181.327615 
L 248.777856 181.446448 
L 248.943999 181.627155 
L 249.52722 181.597282 
L 249.830307 181.900161 
L 251.032947 182.060827 
L 251.279805 182.953103 
L 252.040419 183.711013 
L 252.202877 183.728771 
L 252.170406 184.235886 
L 252.183657 184.577306 
L 252.150184 184.764713 
L 251.883045 184.806443 
L 251.986734 185.093261 
L 251.87388 185.23708 
L 251.593384 185.345986 
L 251.709428 185.42103 
L 251.856709 185.458994 
L 251.447575 185.651132 
L 251.327952 185.631315 
L 251.150415 185.467225 
L 250.827948 185.454428 
L 250.901599 185.494228 
L 251.077617 185.743779 
L 251.033459 185.943209 
L 250.821573 186.456155 
L 250.903765 186.644596 
L 251.417073 187.002755 
L 251.975238 187.319573 
L 251.905326 187.696461 
L 251.669265 187.902772 
L 251.336674 188.220449 
L 251.340942 188.376302 
L 251.241632 188.329685 
L 250.991595 188.320729 
L 250.429125 188.654894 
L 250.45233 188.927341 
L 251.068058 189.032635 
L 251.188465 188.880772 
L 251.09299 188.637765 
L 251.400308 188.432894 
L 251.931054 188.738089 
L 251.973195 189.000827 
L 251.883018 189.475957 
L 252.729798 190.627297 
L 254.8611 190.824769 
L 255.153524 191.067813 
L 255.169906 191.170413 
L 255.437872 191.180165 
L 255.524299 190.842676 
L 255.437744 190.850672 
L 255.182079 190.842452 
L 255.170525 190.646602 
L 254.930495 190.504025 
L 254.985796 190.281353 
L 255.030519 190.303181 
L 255.23658 190.32884 
L 256.385556 190.395375 
L 256.358511 190.288613 
L 256.341335 189.782933 
L 258.636897 188.919291 
L 258.219991 188.363671 
L 258.325371 188.371075 
L 258.884049 188.369453 
L 258.882747 188.437322 
L 259.036542 188.714959 
L 259.258563 188.779094 
L 260.374551 188.608496 
L 261.501705 188.935086 
L 261.472398 188.835664 
L 261.055902 188.318563 
L 261.258117 188.399715 
L 261.543931 188.358187 
L 261.940919 187.761604 
L 262.468582 187.542463 
L 262.555516 187.469868 
L 262.581233 187.483684 
L 262.943852 187.707727 
L 262.846959 187.771942 
L 262.745366 187.906218 
L 262.798171 187.938453 
L 263.20971 188.247435 
L 263.560284 188.380783 
L 263.591111 188.481762 
L 263.797545 188.550997 
L 263.948352 188.629897 
L 263.971525 188.680712 
L 263.906867 188.724699 
L 263.915989 188.762515 
L 263.964542 188.75925 
L 263.987122 188.781494 
L 263.947878 188.824932 
L 264.001291 188.912634 
L 263.610469 189.207335 
L 263.775994 189.199616 
L 264.025903 189.134777 
L 264.180599 188.913301 
L 264.297054 188.883556 
L 264.315206 188.941717 
L 264.797133 188.935091 
L 264.876695 188.969647 
L 264.771293 188.822147 
L 264.898213 188.712052 
L 264.933794 188.772234 
L 265.109518 188.949873 
L 265.26439 189.171894 
L 265.805464 189.10706 
L 265.881996 188.90763 
L 265.923438 188.940548 
L 266.488447 189.369969 
L 266.419314 189.345703 
L 265.9387 189.188665 
L 265.9395 189.310326 
L 265.8291 189.531093 
L 265.790645 189.527039 
L 265.863667 189.710199 
L 266.644664 189.814576 
L 267.401976 189.99101 
L 267.571379 190.191822 
L 268.472207 190.152443 
L 268.755429 190.173642 
L 268.903494 190.221993 
L 269.192541 191.362162 
L 269.809096 191.387297 
L 269.860626 191.677342 
L 270.046069 191.989882 
L 270.269979 191.913622 
L 270.341976 191.739194 
L 270.536835 191.46535 
L 270.965263 191.386535 
L 271.966307 191.169405 
L 272.57924 191.198894 
L 272.453371 191.319172 
L 272.684535 191.562766 
L 272.639358 191.697282 
L 272.742674 191.704158 
L 272.872917 191.725335 
L 272.805347 191.986633 
L 272.866681 191.995968 
L 274.011156 191.96401 
L 274.030093 191.906671 
L 275.182942 192.033229 
L 276.357608 192.014286 
L 276.617135 191.819972 
L 276.823324 191.663905 
L 277.528535 192.079237 
L 277.97159 191.745504 
L 278.688111 192.158383 
L 279.384729 192.310172 
L 280.360451 192.361046 
L 280.758964 192.402488 
L 280.962288 192.277664 
L 281.225117 192.070121 
L 281.425326 191.86366 
L 282.13776 191.975378 
L 282.113265 192.009219 
L 281.893741 192.19766 
L 281.736564 192.292867 
L 281.839133 192.539128 
L 281.877428 192.496191 
L 282.015668 192.365137 
L 282.524277 192.440234 
L 282.728598 192.012894 
L 283.421744 191.918689 
L 284.460721 191.885078 
L 284.860434 191.965413 
L 285.539988 191.619272 
L 285.759539 191.495382 
L 285.607579 191.224589 
L 285.749137 191.263044 
L 286.243183 191.307362 
L 287.242483 191.481769 
L 287.234695 191.500914 
L 287.314966 191.544223 
L 287.33801 191.532226 
L 287.563568 191.611804 
L 288.322694 191.680975 
L 288.690439 191.578827 
L 288.690337 191.595524 
L 289.245344 191.572741 
L 289.624665 191.470599 
L 289.622371 191.464678 
L 289.560605 191.273996 
L 289.637088 191.259753 
L 290.137162 191.182037 
L 290.418661 191.11995 
L 291.569265 190.765296 
L 291.715666 190.619364 
L 292.267739 190.510336 
L 292.822277 190.650341 
L 292.982446 190.768166 
L 292.979299 190.782777 
L 292.873129 191.654154 
L 294.059211 191.7909 
L 294.480508 191.822847 
L 294.442106 191.775003 
L 294.329978 191.137671 
L 294.815377 190.893705 
L 294.884553 190.785215 
L 294.834682 190.787668 
L 294.650567 190.595973 
L 294.704166 190.581517 
L 295.25928 190.459051 
L 295.948857 190.557134 
L 295.910508 190.485072 
L 295.822182 190.269378 
L 295.297197 190.199988 
L 295.342901 190.080142 
L 296.842328 189.270345 
L 296.822239 189.260956 
L 296.739109 189.039378 
L 296.612775 188.966692 
L 296.495713 188.842087 
L 296.928585 188.857578 
L 296.88368 188.774527 
L 296.76506 188.582251 
L 296.415868 188.515529 
L 296.458004 188.481922 
L 297.156852 188.151491 
L 297.787324 187.934933 
L 297.260733 187.523494 
L 297.370701 187.092687 
L 296.195384 186.356936 
L 296.508931 186.088298 
L 298.442409 186.486497 
L 299.073009 186.221257 
L 299.193475 186.148326 
L 298.509003 185.615387 
L 298.385796 185.438734 
L 299.62728 185.058641 
L 299.692712 184.744639 
L 300.283224 183.848671 
L 300.583287 183.826694 
L 300.884635 183.819167 
L 301.421937 183.848874 
L 301.778165 183.806359 
L 301.854697 183.765237 
L 302.039404 183.798411 
L 301.835179 183.666562 
L 301.418086 183.367449 
L 301.389542 183.077879 
L 301.556533 182.889011 
L 301.976864 182.680241 
L 302.127165 182.692883 
L 302.469529 182.81353 
L 306.312042 183.067482 
L 306.92194 183.263867 
L 307.517222 183.362163 
L 307.506825 183.400618 
L 307.382551 183.48361 
L 307.493969 183.484623 
L 307.766304 183.497474 
L 308.335367 183.288261 
L 308.934126 183.290144 
L 309.633497 183.462171 
L 310.732026 183.735386 
L 311.11404 183.855782 
L 311.715078 184.037411 
L 312.176296 184.762184 
L 312.699105 184.456926 
L 312.70221 184.289646 
L 312.749888 184.075979 
L 312.563639 184.074752 
L 312.582198 184.001522 
L 312.692923 183.898153 
L 313.558554 183.775841 
L 314.840676 183.19269 
L 315.077276 183.097333 
L 315.063374 183.092607 
L 315.104897 183.039818 
L 315.109799 182.993628 
L 315.133798 182.805827 
L 316.183124 183.00338 
L 316.35577 182.991591 
L 316.515192 182.929557 
L 318.045489 182.658578 
L 318.343045 182.767527 
L 318.315525 182.681094 
L 318.373861 182.125954 
L 318.632321 182.033787 
L 319.210933 181.976843 
L 319.168984 182.048824 
L 319.284728 182.06678 
L 319.438544 181.961341 
L 320.249712 181.925707 
L 321.869936 182.083167 
L 322.054526 182.113893 
L 323.664576 181.62637 
L 323.60201 181.500192 
L 323.491722 181.096675 
L 323.663349 181.147831 
L 324.299972 181.129924 
L 324.50128 180.951922 
L 324.671632 180.752631 
L 324.839872 180.691147 
L 325.527982 180.900499 
L 325.649349 181.063714 
L 326.202612 181.099817 
L 326.4194 181.362213 
L 326.95284 182.260379 
L 327.21872 182.376871 
L 327.625881 182.335252 
L 328.242334 182.268744 
L 328.609001 182.134627 
L 329.597643 182.157096 
L 329.998141 182.18397 
L 330.584194 182.251492 
L 331.109169 181.922448 
L 331.322575 181.569981 
L 331.459966 181.288946 
L 331.597982 181.013656 
L 331.483512 180.978668 
L 331.404382 180.952173 
L 331.687407 180.925229 
L 331.816434 180.960259 
L 332.150012 180.927373 
L 332.085061 180.877246 
L 331.926114 180.568932 
L 331.714137 180.170845 
L 331.609269 179.862834 
L 331.658884 179.862626 
L 332.220879 179.843199 
L 332.691609 180.147833 
L 332.840843 180.294154 
L 332.897664 180.422941 
L 333.383853 180.66136 
L 333.383591 180.644765 
L 333.486118 180.47908 
L 334.165058 180.02231 
L 334.641426 179.789604 
L 334.702189 179.69253 
L 335.115601 179.476169 
L 335.152142 179.379457 
L 335.275952 179.189287 
L 335.277712 179.026483 
L 334.727954 178.063313 
L 334.768549 177.862048 
L 334.712538 177.664197 
L 334.751159 177.216698 
L 334.509305 176.882672 
L 334.802961 176.572373 
L 334.854581 176.398649 
L 334.60432 176.107116 
L 334.56476 176.006739 
L 334.361239 175.791642 
L 334.203481 175.607186 
L 333.798844 175.501891 
L 333.791616 175.342095 
L 333.890371 175.213666 
L 333.722973 174.964301 
L 333.454421 174.981472 
L 333.30148 174.956086 
L 332.533957 174.490979 
L 330.756109 173.441701 
L 330.450963 173.078448 
L 330.061982 172.894946 
L 329.874117 172.604048 
L 329.580275 172.272172 
L 329.461052 172.105132 
L 329.654939 171.741265 
L 329.554984 171.473619 
L 329.876528 171.324524 
L 329.841604 171.268615 
L 329.571846 171.189603 
L 329.140655 171.016252 
L 329.244675 170.850887 
L 329.372806 170.7051 
L 329.323089 169.939407 
L 329.236726 169.79762 
L 329.041964 169.659775 
L 328.671051 169.183807 
L 328.326628 169.054966 
L 328.168864 168.936555 
L 327.228328 168.830806 
L 327.001927 168.820383 
L 326.759865 168.780173 
L 326.503357 168.453289 
L 326.434715 168.260458 
L 326.078247 168.000638 
L 325.927077 167.880961 
L 325.923578 167.683452 
L 325.947662 167.53385 
L 326.07893 167.364164 
L 326.024738 167.124535 
L 325.978975 166.94074 
L 326.36675 166.797133 
L 326.622057 166.912462 
L 326.774999 166.80011 
L 326.66541 166.61113 
L 326.654576 166.478705 
L 326.900244 166.487629 
L 327.078475 166.624519 
L 327.101359 166.480935 
L 326.860503 166.178914 
L 326.944802 166.124611 
L 327.206131 165.941637 
L 327.799973 165.899869 
L 329.258213 164.925107 
L 329.346123 164.624762 
L 329.515926 164.460485 
L 329.779662 164.312569 
L 329.872389 164.175813 
L 330.466097 164.195134 
L 330.374575 164.049463 
L 330.497409 163.961025 
L 330.915292 163.83395 
L 331.106773 163.729167 
L 331.486115 163.496595 
L 331.408532 163.161561 
L 331.814882 162.823512 
L 332.050921 162.475158 
L 332.062966 162.343703 
L 332.018409 161.976855 
L 332.301412 161.757069 
L 332.569964 161.637531 
L 332.832494 161.394765 
L 332.802387 161.251495 
L 332.873147 160.82495 
L 332.661486 160.680714 
L 332.508545 160.618372 
L 332.149671 159.930518 
L 332.048121 159.631576 
L 332.129256 159.463058 
L 332.347229 159.441918 
L 332.539911 159.374417 
L 332.689843 159.154504 
L 332.725973 158.949809 
L 332.944548 158.646508 
L 332.842187 158.4211 
L 332.597116 158.080432 
L 332.656728 158.055964 
L 333.16252 157.880645 
L 333.243026 157.591278 
L 333.96088 157.147929 
L 333.984725 156.987066 
L 333.986432 156.775917 
L 334.368776 156.598315 
L 334.367069 156.291339 
L 334.424979 155.995405 
L 334.236783 155.840901 
L 334.231332 155.540129 
L 334.273206 155.393435 
L 334.761667 155.174678 
L 334.903833 155.001147 
L 334.895778 154.747658 
L 333.851222 153.733273 
L 332.903655 153.30413 
L 331.636554 153.017611 
L 330.89261 152.35485 
L 330.822357 151.977754 
L 330.912912 151.562038 
L 330.729582 150.994906 
L 330.744571 150.663776 
L 330.901641 150.474273 
L 332.086133 149.341284 
L 332.009521 148.948649 
L 331.749557 148.634013 
L 331.032434 148.008134 
L 331.16391 147.793373 
L 332.236818 147.06046 
L 332.458364 146.496832 
L 332.526057 146.062158 
L 332.654695 145.822373 
L 332.568119 145.715163 
L 332.024287 145.30301 
L 331.725451 144.890628 
L 331.227719 144.655378 
L 328.248639 144.156589 
L 327.196775 143.860981 
L 326.137992 143.744479 
L 325.929413 143.510658 
L 325.828343 143.260978 
L 325.471001 143.091607 
L 325.131688 142.922973 
L 325.094422 142.603685 
L 325.152092 142.51282 
L 325.656407 142.105099 
L 325.614351 141.951422 
L 325.279551 141.449695 
L 325.194068 141.220622 
L 324.914831 141.042092 
L 324.397879 140.865445 
L 324.396049 140.637412 
L 324.487064 140.371734 
L 324.312887 140.024202 
L 323.913066 139.407471 
L 323.954066 139.069027 
L 323.640241 138.030173 
L 322.95283 137.136248 
L 323.137841 136.812485 
L 323.619448 136.265506 
L 323.518047 135.965801 
L 323.479528 135.608656 
L 323.687103 135.289374 
L 324.292232 134.92923 
L 325.482405 134.658587 
L 325.838415 134.341919 
L 326.296822 134.039167 
L 326.72883 133.713164 
L 327.013796 133.487702 
L 327.21752 132.856078 
L 328.173644 132.253942 
L 328.34047 131.894764 
L 328.178322 131.611702 
L 327.73867 131.362465 
L 327.178483 131.173389 
L 327.045829 130.9498 
L 327.014409 130.675268 
L 326.677679 129.912173 
L 326.854214 129.624043 
L 327.183764 129.294359 
L 327.563063 128.566887 
L 328.573592 127.936692 
L 328.491822 127.711663 
L 328.08105 127.497041 
L 327.249068 127.102277 
L 327.066723 126.903626 
L 326.739141 126.229338 
L 326.13118 125.742413 
L 325.031829 125.238616 
L 324.711501 125.082015 
L 321.799896 124.1774 
L 319.134284 122.937873 
L 318.633852 122.288187 
L 318.189736 122.13995 
L 317.469993 121.88875 
L 317.122487 121.292077 
L 314.699998 119.40871 
L 314.207809 119.008655 
L 313.646939 118.768604 
L 313.054938 118.245336 
L 308.875672 116.769849 
L 307.464614 115.840755 
L 306.93622 115.544133 
L 306.664254 115.32104 
L 306.056687 114.807961 
L 305.650572 114.703914 
L 301.710766 114.302734 
L 301.531755 114.237153 
L 301.210633 114.009499 
L 301.141654 113.896091 
L 301.017108 113.591132 
L 301.146018 113.162154 
L 301.63729 112.71369 
L 302.908962 111.390867 
L 302.982219 110.808489 
L 302.560757 109.952876 
L 302.373206 109.329509 
L 302.252271 109.13656 
L 301.877752 107.624699 
L 301.925062 107.489851 
L 302.283003 106.980149 
L 303.319083 106.685378 
L 303.665399 106.310853 
L 308.533575 104.68153 
L 308.774314 104.477219 
L 311.007812 103.240183 
L 311.245404 103.04063 
L 313.042115 102.06924 
L 313.052308 101.976907 
L 313.343244 101.753393 
L 313.574067 101.215904 
L 313.679367 101.052939 
L 314.079384 100.550556 
L 314.230933 99.71445 
L 314.194761 99.428582 
L 314.531902 99.119136 
L 314.679291 98.906349 
L 314.787733 98.436019 
L 314.757172 98.310977 
L 314.987019 97.320175 
L 314.244962 96.617801 
L 313.99404 95.796844 
L 314.197428 95.367322 
L 314.218499 95.258187 
L 314.462118 94.87342 
L 314.753971 94.153491 
L 315.453358 94.039021 
L 315.981187 93.858774 
L 316.186927 93.602346 
L 316.239689 93.101931 
L 316.91736 92.51089 
L 317.611417 91.971641 
L 317.70503 91.694302 
L 318.459952 90.916346 
L 318.13189 90.362064 
L 316.876024 90.161909 
L 316.416464 88.779726 
L 316.148989 88.539594 
L 316.610448 87.704854 
L 316.312989 87.418805 
L 315.758163 87.415802 
L 314.775741 87.742984 
L 314.618511 88.075431 
L 314.439826 88.183473 
L 314.035947 88.102274 
L 313.745763 88.068283 
L 313.696373 88.207643 
L 313.118993 88.280985 
L 313.129512 88.318832 
L 313.002438 88.475438 
L 311.561272 88.359576 
L 311.312115 88.358483 
L 311.308563 88.454122 
L 311.217756 88.710432 
L 310.524115 89.693766 
L 310.561679 89.740938 
L 310.446927 89.76913 
L 308.423682 90.258658 
L 308.502951 90.449393 
L 308.601562 90.909646 
L 308.564819 91.186803 
L 307.607681 91.306901 
L 307.171833 91.307717 
L 305.869446 91.393936 
L 305.610421 91.333231 
L 305.373538 91.205495 
L 305.225825 91.107236 
L 305.120125 91.042968 
L 304.924674 91.055269 
L 304.77902 91.081391 
L 302.352093 90.816775 
L 301.992766 90.878237 
L 300.954733 91.127128 
L 299.731215 91.060544 
L 300.228771 90.009656 
L 301.090034 89.420765 
L 302.279989 88.66788 
L 303.766 87.83953 
L 305.45358 86.732557 
L 306.575773 85.662027 
L 307.072886 84.771842 
L 307.451529 83.958177 
L 307.351601 83.44177 
L 307.229812 83.132564 
L 307.163885 82.791139 
L 307.363048 82.470768 
L 307.293227 82.438677 
L 307.015083 82.128725 
L 306.883453 82.173976 
L 306.441166 81.841593 
L 305.769726 82.244464 
L 305.788497 82.255031 
L 305.432291 82.44287 
L 305.043918 82.447201 
L 304.017248 82.469237 
L 303.4237 82.283783 
L 301.732226 81.488528 
L 301.50805 81.575494 
L 300.838386 81.564004 
L 299.794944 82.484888 
L 299.19259 82.637083 
L 298.827 82.914048 
L 298.909869 83.014952 
L 298.858243 83.062577 
L 298.752484 83.041768 
L 298.222063 82.869362 
L 297.778059 82.95253 
L 297.167745 82.940863 
L 296.946898 82.380186 
L 296.797578 82.108875 
L 294.778356 82.022406 
L 294.438574 81.81578 
L 292.33061 82.052747 
L 291.546647 82.034664 
L 289.981901 82.466501 
L 289.410885 82.156773 
L 289.44128 81.873881 
L 289.744666 81.687014 
L 289.701703 81.597007 
L 289.399464 81.278781 
L 289.43306 81.279805 
L 290.102596 81.039685 
L 290.097699 81.021404 
L 289.991983 80.75602 
L 290.047193 80.729509 
L 290.081893 80.71509 
L 289.999365 80.666803 
L 287.809177 79.761233 
L 288.260581 79.176285 
L 288.301767 79.120514 
L 288.260501 79.099673 
L 287.912077 79.070318 
L 287.806692 78.977233 
L 287.730656 78.760285 
L 287.744333 78.63536 
L 287.87751 78.45611 
L 287.917289 78.293215 
L 288.033636 78.1225 
L 286.110438 77.504126 
L 284.945549 77.372469 
L 285.045131 77.204479 
L 284.821296 76.947668 
L 283.691721 75.728422 
L 283.862447 75.324911 
L 283.831369 75.307131 
L 283.778772 75.184404 
L 283.731531 75.213007 
L 283.5991 75.253649 
L 283.194303 75.333952 
L 282.838689 75.831114 
L 282.513843 76.851452 
L 282.729265 77.175423 
L 282.709773 77.626304 
L 282.756156 77.623818 
L 283.399729 77.84673 
L 283.346044 77.880667 
L 283.42703 77.944839 
L 283.639759 78.153919 
L 283.92935 78.431839 
L 284.336974 78.260126 
L 284.584189 78.330251 
L 284.860861 78.350068 
L 285.049937 78.406543 
L 285.086402 78.426371 
L 285.142536 78.388534 
L 285.230382 78.427331 
L 283.779839 79.510791 
L 282.732621 79.714547 
L 281.295195 79.504251 
L 280.964054 79.336139 
L 280.888397 79.123218 
L 280.651114 79.077044 
L 280.494301 79.334368 
L 279.297246 79.276741 
L 278.994681 79.425372 
L 278.764942 79.654904 
L 277.4916 80.171552 
L 277.228393 80.288998 
L 276.889582 80.524718 
L 276.237889 80.812335 
L 275.99746 80.992012 
L 276.078499 81.022957 
L 275.950416 81.148794 
L 275.828286 81.303581 
L 275.841286 81.364926 
L 275.69489 81.239008 
L 275.276501 81.157724 
L 274.920204 81.547456 
L 275.195077 81.642467 
L 275.150093 81.677956 
L 274.874622 81.954574 
L 274.654067 81.963466 
L 274.740489 82.057164 
L 274.992356 82.489252 
L 274.978273 82.499211 
L 274.248748 83.194346 
L 274.216523 83.157913 
L 273.95738 82.948593 
L 273.509433 82.983693 
L 273.12369 83.114246 
L 272.900949 83.147644 
L 272.900373 83.175687 
L 272.73751 83.223947 
L 271.588315 83.286636 
L 271.597186 83.299886 
L 271.522697 83.344375 
L 271.460147 83.452294 
L 271.51732 83.491347 
L 271.37636 83.510247 
L 270.944523 83.669738 
L 270.945035 83.659667 
L 270.816445 83.625933 
L 270.223975 83.969945 
L 270.267701 84.042657 
L 270.409061 84.065078 
L 270.750705 84.08163 
L 270.792969 84.148576 
L 270.744293 84.197466 
L 270.714613 84.312703 
L 270.762179 84.408487 
L 270.693473 84.449348 
L 270.463413 84.709494 
L 270.483294 84.723171 
L 270.773168 84.949027 
L 270.734414 84.955642 
L 270.265354 85.279208 
L 270.071968 85.596111 
L 269.23416 85.428025 
L 269.171204 85.417746 
L 268.843024 85.989946 
L 268.649408 86.224166 
L 268.764673 86.227308 
L 269.129569 86.34963 
L 269.078994 86.719066 
L 268.883704 87.055002 
L 269.007391 87.174726 
L 268.913805 87.217742 
L 268.964946 87.534555 
L 269.03737 87.903799 
L 268.955099 87.98575 
L 268.497518 88.041521 
L 268.329097 88.056772 
L 268.335343 87.968974 
L 267.912703 87.542108 
L 267.90452 87.553871 
L 267.958487 87.795159 
L 268.111386 87.933586 
L 268.069917 87.973876 
L 268.153517 88.096987 
L 268.155762 88.147824 
L 268.08465 88.170916 
L 267.835989 88.381106 
L 267.245872 89.198371 
L 267.047274 89.367331 
L 266.798032 89.4794 
L 266.186795 89.541695 
L 265.609565 89.50788 
L 265.472782 89.288809 
L 265.3708 89.102112 
L 264.424753 89.055538 
L 264.422982 89.07367 
L 264.371281 89.232628 
L 264.347911 89.368686 
L 264.509446 89.436581 
L 264.346754 89.485081 
L 264.266648 89.52949 
L 264.348386 89.604421 
L 264.502581 89.67659 
L 264.65805 89.685509 
L 264.713314 89.719094 
L 264.621291 89.77759 
L 264.305983 89.927203 
L 263.918923 90.004194 
L 263.966884 90.033122 
L 263.985485 90.068675 
L 263.920299 90.099918 
L 263.797305 90.341725 
L 263.403582 90.686804 
L 263.193446 90.922273 
L 262.851114 91.183426 
L 262.898334 91.233463 
L 262.648611 91.727946 
L 262.688374 91.733873 
L 262.750407 91.832755 
L 262.747281 91.841818 
L 262.391597 91.892601 
L 262.236479 91.866698 
L 262.22612 91.931115 
L 261.940866 92.047767 
L 261.734848 91.979749 
L 261.641113 91.807828 
L 261.657911 91.631933 
L 261.513286 91.661213 
L 261.420431 91.575213 
L 260.832719 90.699505 
L 260.589632 90.384879 
L 260.46109 90.251377 
L 260.161481 90.173116 
L 259.469995 90.22375 
L 259.264809 90.273162 
L 259.300208 90.431731 
L 259.215077 90.427128 
L 258.64883 90.352932 
L 256.953323 90.108507 
L 256.713752 90.238099 
L 255.950748 90.61017 
L 255.740596 90.88681 
L 255.282802 90.936345 
L 255.052902 90.988792 
L 254.37225 91.283995 
L 254.196878 91.634632 
L 254.230548 91.690056 
L 254.130887 91.719427 
L 254.189794 91.830008 
L 254.325991 91.803806 
L 254.333773 91.765692 
L 254.323414 91.754597 
L 254.472557 91.869184 
L 254.368095 91.947929 
L 253.900517 92.345728 
L 254.028195 92.332333 
L 254.065173 92.351244 
L 253.97913 92.403328 
L 253.959654 92.60079 
L 253.894751 92.725454 
L 253.543409 93.238261 
L 253.245177 93.428003 
L 251.791171 93.008729 
L 251.66455 92.815007 
L 251.277586 92.349072 
L 251.232542 92.120309 
L 250.763989 91.621467 
L 250.731529 91.649462 
L 250.663879 91.786229 
L 250.32016 91.746216 
L 250.213825 91.660707 
L 249.227328 91.887272 
L 249.234081 91.748339 
L 249.196111 91.619894 
L 249.159336 91.637289 
L 248.351449 92.060847 
L 248.116071 92.346352 
L 247.95108 92.295953 
L 247.951256 92.272466 
L 247.746641 92.225145 
L 247.290292 92.180027 
L 246.96558 92.272434 
L 246.670003 92.423369 
L 246.656145 92.433046 
L 246.858247 93.009305 
L 246.708437 93.350559 
L 246.785129 93.533858 
L 246.183852 93.594211 
L 246.001113 93.455753 
L 245.748153 93.528375 
L 245.798595 93.619603 
L 245.721823 93.623715 
L 245.587712 93.659285 
L 245.628834 93.726012 
L 245.665508 93.80057 
L 245.586325 93.800469 
L 245.465198 93.85856 
L 245.478822 93.895719 
L 245.14247 94.337137 
L 244.904072 94.281526 
L 244.765912 94.153422 
L 244.746511 94.165419 
L 244.129903 94.321912 
L 243.779703 94.405699 
L 242.649834 94.997663 
L 242.670089 95.024052 
L 242.620432 95.091568 
L 242.240781 95.139434 
L 242.06511 95.16834 
L 242.089701 95.199066 
L 242.21955 95.45791 
L 242.16913 95.463655 
L 242.106414 95.658204 
L 241.393376 95.94938 
L 241.473146 96.02412 
L 241.412703 96.09033 
L 241.188756 96.102732 
L 241.222464 96.045489 
L 241.224864 95.996136 
L 240.364162 96.076551 
L 240.259944 96.128667 
L 240.290964 96.193202 
L 240.338237 96.235888 
L 240.219137 96.267937 
L 239.823152 96.292059 
L 239.669373 96.16174 
L 239.351969 96.046791 
L 239.280547 95.896847 
L 239.149327 95.584073 
L 238.929275 95.554798 
L 238.479834 95.755892 
L 238.07747 95.761397 
L 238.023614 95.686204 
L 238.087914 95.66691 
L 238.509168 95.474516 
L 239.076641 95.343286 
L 239.025698 95.291841 
L 238.990193 95.210813 
L 239.024621 95.173125 
L 240.057458 94.76198 
L 239.917404 94.688686 
L 239.83398 94.524922 
L 239.870457 94.476091 
L 239.786238 94.445371 
L 238.455483 94.374984 
L 238.125447 94.537762 
L 237.716121 94.654712 
L 237.912974 94.750805 
L 238.11274 94.957836 
L 238.041847 95.096962 
L 237.837323 95.08752 
L 236.804913 94.973615 
L 237.089372 94.899745 
L 237.406638 94.726587 
L 237.352553 94.645195 
L 237.025712 94.558512 
L 235.876026 94.711507 
L 235.928244 94.756107 
L 235.774919 94.913332 
L 235.641741 94.921285 
L 235.163746 95.077182 
L 235.043585 95.396048 
L 234.423877 95.324845 
L 233.691738 95.020616 
L 233.421078 94.846514 
L 233.346248 94.679938 
L 233.377753 94.671382 
L 233.271876 94.539634 
L 233.016025 94.31478 
L 232.744576 94.315517 
L 232.522032 94.437876 
L 232.329078 94.48788 
L 231.682987 94.540317 
L 231.460331 94.661764 
L 231.454527 94.578447 
L 231.251214 94.614021 
L 231.217405 94.774377 
L 231.213031 94.774004 
L 231.020487 94.672662 
L 230.990295 94.514941 
L 231.101554 94.495423 
L 230.669914 94.686051 
L 230.400145 94.763821 
L 230.440681 94.804303 
L 230.32564 94.842977 
L 228.769584 94.97217 
L 228.371273 94.761383 
L 228.076646 94.55257 
L 227.194622 94.352046 
L 227.230048 94.325444 
L 227.433964 94.186297 
L 227.880033 93.824516 
L 228.1572 93.040025 
L 228.121145 93.032931 
L 227.513926 93.070751 
L 226.716451 93.15018 
L 224.835842 92.903423 
L 224.110968 92.890968 
L 223.715559 92.780024 
L 223.221225 92.572827 
L 223.191305 92.486741 
L 223.254773 92.462369 
L 223.481771 92.33747 
L 223.302008 92.319221 
L 223.211095 92.248755 
L 223.265671 92.192659 
L 223.257136 92.139833 
L 223.314437 92.091631 
L 223.78561 91.834953 
L 223.708977 91.781007 
L 223.480176 91.764881 
L 223.315446 91.675264 
L 223.239228 91.486823 
L 222.377437 91.40725 
L 221.227949 91.486513 
L 220.913654 91.611118 
L 220.619246 91.670751 
L 220.437318 91.787349 
L 220.263184 91.884424 
L 219.832078 91.920858 
L 219.641236 91.756421 
L 219.232689 91.665267 
L 215.919727 90.894433 
L 214.491652 91.046061 
L 214.433417 91.327256 
L 214.234958 91.39057 
L 213.194813 91.356974 
L 212.374251 91.391594 
L 211.540023 91.683116 
L 211.535675 91.604237 
L 210.829493 90.905011 
L 210.656489 90.386304 
L 210.411594 90.306294 
L 208.809572 89.904553 
L 208.667678 89.713786 
L 209.016694 89.267536 
L 208.81043 88.912017 
L 208.442835 88.890573 
L 207.919477 88.802786 
L 207.426652 88.664007 
L 206.988985 88.585443 
L 206.092712 88.175845 
L 204.324706 87.603661 
L 204.216686 87.548237 
L 202.605819 87.583071 
L 202.223079 87.716376 
L 201.831218 87.716163 
L 201.468748 87.653378 
L 201.473069 87.637428 
L 201.494567 87.45766 
L 201.005727 87.28152 
L 200.782538 87.118342 
L 200.260732 86.533697 
L 200.153511 86.30384 
L 200.034235 86.100068 
L 199.791682 85.920407 
L 199.436841 86.035789 
L 199.075492 86.17955 
L 197.827308 86.193366 
L 197.654795 86.397832 
L 197.723661 86.686793 
L 196.697492 86.86016 
L 196.105113 86.21449 
L 195.971914 85.880933 
L 195.858613 85.726877 
L 195.25247 85.765764 
L 195.253697 85.760323 
L 195.210436 85.730184 
L 195.204781 85.810733 
L 195.169575 86.136182 
L 194.953427 86.33622 
L 194.844606 86.40578 
L 193.544892 86.353823 
L 193.556467 86.448561 
L 193.575297 86.661882 
L 193.478372 86.655481 
L 192.094695 86.378308 
L 191.990995 85.576235 
L 191.933651 85.393053 
L 191.801194 85.315007 
L 190.163735 85.230809 
L 190.45123 85.425982 
L 190.483983 85.446786 
L 190.40002 85.49853 
L 190.289807 85.67452 
L 190.265435 85.760819 
L 190.344916 85.772448 
L 190.542607 85.894712 
L 190.682949 86.109553 
L 190.573237 86.155156 
L 190.757523 86.378132 
L 189.374918 86.864048 
L 188.5099 87.179282 
L 188.625021 87.257996 
L 188.86496 87.983147 
L 188.774009 88.196734 
L 188.98685 88.689042 
L 188.968019 88.829388 
L 188.616539 89.026706 
L 187.831376 89.088424 
L 187.458718 89.306546 
L 186.341812 89.17068 
L 186.340959 89.176334 
L 186.274066 89.368264 
L 186.075559 89.604763 
L 185.671231 89.897325 
L 185.495144 90.100937 
L 185.497278 90.102964 
L 185.065409 90.482183 
L 184.870438 90.417424 
L 184.626178 90.371709 
L 182.526098 90.240857 
L 182.030804 90.127822 
L 181.917396 90.58647 
L 181.515346 90.898583 
L 181.376812 90.982972 
L 180.57794 91.46285 
L 180.484749 91.632643 
L 180.408361 91.735115 
L 180.101476 91.733782 
L 178.864067 91.594929 
L 178.864867 91.599516 
L 178.680725 91.571831 
L 177.806692 91.480934 
L 177.758614 91.49922 
L 176.876904 91.495737 
L 177.307914 91.846758 
L 178.093739 91.99908 
L 178.886653 92.626507 
L 178.875205 92.642435 
L 178.62791 92.687553 
L 178.62201 92.821301 
L 178.042086 92.809512 
L 177.859689 92.898559 
L 177.457169 92.904005 
L 177.080586 92.912961 
L 174.838825 93.054818 
L 174.464647 93.224258 
L 173.945097 93.364135 
L 173.231772 93.308525 
L 173.152498 92.650757 
L 172.548773 92.705423 
L 172.546255 92.615705 
L 172.145688 92.517835 
L 172.209705 92.332344 
L 171.874271 92.188727 
L 171.670813 91.992647 
L 171.37281 92.045425 
L 171.272471 92.124966 
L 169.708919 92.01998 
L 169.476571 92.204506 
L 168.375375 92.235995 
L 167.896633 92.122896 
L 167.435755 92.37664 
L 167.399333 92.539856 
L 167.28123 92.727625 
L 166.346716 93.03371 
L 166.082442 93.261198 
L 165.646326 93.567891 
L 165.322478 93.651742 
L 164.954733 93.670839 
L 164.606726 93.640023 
L 164.219398 93.745141 
L 164.043552 93.814482 
L 163.799654 93.919718 
L 163.939553 93.982173 
L 164.247089 94.219258 
L 164.194988 94.786556 
L 164.25078 94.970729 
L 164.213509 94.972468 
L 164.101925 95.132947 
L 164.664774 95.277407 
L 164.489898 95.728549 
L 164.753218 95.953205 
L 164.58071 96.222733 
L 164.232174 96.60167 
L 164.054226 96.839347 
L 164.113064 96.983614 
L 163.895427 97.009347 
L 163.84385 96.89547 
L 163.766459 96.939585 
L 163.975955 97.673298 
L 163.58803 97.821817 
L 163.684299 98.035815 
L 163.033023 98.112672 
L 162.937794 98.328708 
L 162.406029 98.333258 
L 161.593954 98.316535 
L 161.226449 98.551215 
L 161.13225 98.481303 
L 161.056076 98.261101 
L 160.019195 98.141211 
L 159.641054 98.11144 
L 159.683846 97.831424 
L 158.809135 97.531751 
L 158.11137 97.687775 
L 157.643249 97.661909 
L 157.254348 97.553414 
L 156.783944 97.517386 
L 156.812413 97.574463 
L 156.561059 97.685807 
L 156.444743 97.710985 
L 155.566309 97.550197 
L 155.511141 97.530641 
L 155.363556 98.163194 
L 155.395493 98.316391 
L 155.829421 98.843158 
L 155.673578 98.883112 
L 155.223625 99.099943 
L 155.109161 99.016946 
L 154.931975 99.075208 
L 154.482823 99.077992 
L 154.067325 98.942158 
L 153.906446 98.897296 
L 153.765945 98.864917 
L 152.035258 98.858238 
L 152.075553 98.771395 
L 151.561525 98.675521 
L 151.414137 98.629544 
L 151.264476 98.691167 
L 151.067772 98.738637 
L 150.860532 98.800014 
L 150.477259 98.794808 
L 149.909311 98.771667 
L 149.777505 98.641525 
L 148.619732 98.497748 
M 202.924621 145.750333 
L 202.940858 145.708405 
L 203.039154 145.74757 
L 203.062908 145.786388 
L 202.924621 145.750333 
M 245.817841 135.967092 
L 246.354237 135.686697 
L 246.524957 135.700177 
L 246.80851 135.646332 
L 247.67292 134.901156 
L 247.054525 134.410902 
L 246.96822 134.26448 
L 246.993713 134.238389 
L 247.113773 133.945619 
L 247.077964 133.854983 
L 247.044517 133.714343 
L 247.071957 133.416521 
L 247.30405 133.190696 
L 247.622153 132.853859 
L 248.028961 132.696309 
L 250.110803 131.187803 
L 249.964658 131.136748 
L 248.351551 130.682186 
L 247.366664 130.769968 
L 247.878772 129.10754 
L 248.094115 128.7031 
L 248.166016 128.746217 
L 248.596216 128.880056 
L 248.941663 128.784401 
L 248.938868 128.553146 
L 248.894411 128.433272 
L 248.954092 128.401938 
L 249.149521 128.02041 
L 249.302505 127.638145 
L 249.138218 127.274139 
L 248.886906 127.286408 
L 248.12259 127.387297 
L 247.984489 127.022865 
L 248.050853 127.034536 
L 248.384896 126.993547 
L 248.778229 126.887356 
L 249.325827 126.567189 
L 249.712781 126.436679 
L 249.97793 126.457493 
L 250.462609 126.609175 
L 251.064873 126.766533 
L 252.148466 127.013076 
L 252.165344 126.965723 
L 252.743155 126.929738 
L 252.740366 126.708938 
L 251.864764 126.05356 
L 251.960702 125.933164 
L 252.190997 125.800552 
L 252.872316 124.852025 
L 252.86966 124.835051 
L 252.969289 124.839798 
L 255.209193 124.842577 
L 255.175928 124.350884 
L 255.089224 124.175261 
L 255.116909 124.179166 
L 255.958462 124.184745 
L 256.257457 124.040147 
L 256.315122 123.538425 
L 256.142998 123.531634 
L 256.15276 123.442385 
L 256.189034 123.105516 
L 256.290007 123.122244 
L 257.647045 123.283992 
L 257.464215 123.357217 
L 257.131309 123.491509 
L 257.173088 123.542351 
L 257.567403 124.150008 
L 257.438898 124.400157 
L 257.641646 124.762749 
L 257.625553 124.773471 
L 257.247497 124.895179 
L 257.748152 124.842599 
L 258.153536 124.92351 
L 258.861308 125.054954 
L 259.281986 125.108377 
L 259.744511 125.077459 
L 260.854605 124.914826 
L 260.886302 124.885119 
L 260.958823 124.889818 
L 261.182396 124.831845 
L 261.17656 124.811969 
L 261.216834 124.780784 
L 261.17065 124.684377 
L 261.406385 124.504358 
L 261.941447 124.216474 
L 261.933542 124.205416 
L 261.968706 124.040611 
L 261.978676 124.042398 
L 262.13845 123.832145 
L 262.325286 123.769466 
L 262.511828 123.878372 
L 262.979549 124.047594 
L 263.22861 124.084609 
L 263.341944 124.250945 
L 263.862176 124.376803 
L 264.056298 124.348222 
L 264.270072 124.321017 
L 264.252837 124.252305 
L 264.256614 123.983502 
L 264.297758 123.975217 
L 264.58729 123.844958 
L 264.73063 123.712501 
L 265.886631 123.647624 
L 266.110669 123.585922 
L 266.260105 123.518789 
L 266.403882 123.371577 
L 266.363847 123.330156 
L 265.516427 123.145683 
L 265.151499 123.002723 
L 265.268983 122.923833 
L 265.760335 122.707205 
L 265.959344 122.765211 
L 266.542281 122.390275 
L 266.56467 122.403382 
L 266.714517 122.352444 
L 266.489829 122.589193 
L 266.48777 122.795702 
L 267.159519 122.569477 
L 266.995995 123.175534 
L 267.587254 123.540516 
L 268.693273 123.861612 
L 268.840677 123.918327 
L 268.972643 123.94535 
L 269.005034 123.943254 
L 268.993506 124.047332 
L 268.793868 124.586891 
L 268.653916 124.790594 
L 268.08497 125.034369 
L 267.953804 125.332089 
L 267.598878 126.07749 
L 267.722202 126.070214 
L 268.306858 126.760916 
L 269.471368 126.806984 
L 270.736035 127.191169 
L 271.672059 127.758008 
L 271.890165 127.80663 
L 271.993976 127.886213 
L 272.180871 127.988313 
L 272.237148 128.248048 
L 272.457644 128.795955 
L 272.440654 129.042215 
L 275.119724 129.497123 
L 275.027963 129.587508 
L 274.811479 129.655335 
L 274.435578 129.647637 
L 274.446492 129.695812 
L 274.537555 130.072886 
L 274.551413 130.069787 
L 275.510497 130.090762 
L 276.204134 130.250429 
L 276.146955 130.347584 
L 274.668705 131.353098 
L 274.391858 131.98946 
L 274.696401 132.051461 
L 274.602922 132.128974 
L 273.862141 132.873169 
L 273.834215 132.980587 
L 273.935557 132.997598 
L 273.990698 133.022686 
L 273.915505 133.084399 
L 273.717681 133.245534 
L 273.855926 133.275833 
L 274.024678 133.215832 
L 274.285411 133.385443 
L 274.325349 133.469464 
L 274.332748 133.345126 
L 274.380495 133.345979 
L 274.456014 133.347201 
L 274.438458 133.248361 
L 274.572324 133.08912 
L 274.8083 133.003391 
L 275.865146 132.870737 
L 278.289891 133.721118 
L 278.537826 134.087678 
L 278.733682 133.992049 
L 278.72599 133.820801 
L 278.664005 133.813802 
L 278.60402 133.751625 
L 278.447649 133.440355 
L 278.396359 133.372054 
L 278.576996 133.429275 
L 279.182162 133.651515 
L 279.334319 133.715564 
L 279.791159 134.160951 
L 280.19076 134.327884 
L 280.459707 134.366152 
L 281.456697 134.551137 
L 281.433573 134.582562 
L 281.34658 134.70562 
L 281.461328 134.719148 
L 281.49032 134.722658 
L 281.460954 134.794394 
L 281.396729 134.964939 
L 281.708196 135.002791 
L 281.349994 135.057692 
L 281.384065 134.96679 
L 281.449005 134.794762 
L 281.396088 134.795962 
L 280.939431 134.907872 
L 280.771623 135.085906 
L 280.686166 135.254023 
L 279.74786 135.066937 
L 279.662286 135.032957 
L 280.669283 135.517983 
L 280.664578 135.517567 
L 280.552301 135.604869 
L 280.363273 135.677426 
L 280.04207 136.124706 
L 280.111177 136.247146 
L 280.527886 136.623068 
L 280.47131 136.656056 
L 280.273368 136.823197 
L 280.083796 137.020232 
L 279.821282 137.039307 
L 279.482113 137.073634 
L 278.465717 137.471155 
L 278.360011 137.507818 
L 278.353317 137.453424 
L 277.708378 137.875205 
L 277.897347 137.907569 
L 278.356016 138.001837 
L 278.383536 138.001107 
L 278.344606 138.086013 
L 278.296948 138.217713 
L 278.414854 138.21375 
L 278.478812 138.230916 
L 278.44344 138.316383 
L 277.806066 138.756456 
L 277.632689 138.678025 
L 277.293685 138.657893 
L 276.619978 139.179934 
L 276.643028 139.250102 
L 276.534362 139.266484 
L 276.142308 139.650765 
L 276.020093 139.867382 
L 275.840059 140.076163 
L 275.784118 140.283451 
L 275.524404 140.260567 
L 275.069325 139.780379 
L 275.127507 139.77688 
L 275.256588 139.046212 
L 275.497172 138.891975 
L 275.628936 138.771547 
L 275.609306 138.606582 
L 275.357108 138.57161 
L 275.396486 138.476851 
L 275.387861 138.214299 
L 275.31981 138.223736 
L 274.805691 138.196728 
L 274.540926 138.040714 
L 273.421699 138.421507 
L 273.472194 138.326134 
L 273.400799 138.061075 
L 272.95959 137.775336 
L 272.839471 137.678213 
L 272.857773 137.645951 
L 272.769106 137.386995 
L 272.610254 137.368751 
L 271.553541 137.582606 
L 270.906372 137.641913 
L 269.634561 137.506799 
L 269.713665 137.130482 
L 269.815135 137.015772 
L 269.827025 136.980571 
L 269.698824 137.035296 
L 269.255263 137.106163 
L 268.630722 136.918943 
L 267.645788 137.077789 
L 266.661851 137.06942 
L 266.486991 136.681554 
L 265.832541 135.889894 
L 264.998153 136.098947 
L 264.511889 136.244137 
L 263.442725 136.482129 
L 263.471552 136.742152 
L 263.862347 137.837934 
L 263.482658 138.284835 
L 261.809075 138.128326 
L 261.674127 137.629366 
L 260.861103 137.631682 
L 260.852386 137.310271 
L 259.609888 136.730534 
L 259.414054 136.481004 
L 259.420369 136.389151 
L 259.359478 136.409715 
L 257.690573 136.997326 
L 256.734668 136.244462 
L 255.556828 136.789452 
L 255.048144 136.70215 
L 254.618009 136.692329 
L 254.424169 136.728357 
L 254.406673 136.641968 
L 254.173023 135.888341 
L 252.451159 136.072728 
L 251.838834 136.186259 
L 251.363202 136.274228 
L 249.602909 136.940446 
L 249.522574 137.208721 
L 249.710594 137.193875 
L 250.255268 137.194809 
L 250.267633 137.246765 
L 249.823836 137.325527 
L 248.994116 137.265329 
L 248.382575 137.307396 
L 248.059794 137.528259 
L 248.126121 137.570443 
L 248.209539 137.691576 
L 248.116908 137.682822 
L 248.013379 137.651088 
L 247.895421 137.462001 
L 248.279537 137.351143 
L 248.517299 137.228143 
L 248.337932 137.205142 
L 248.313351 137.154385 
L 248.427005 137.141695 
L 248.472085 137.128716 
L 247.674984 137.127511 
L 246.780035 136.550804 
L 246.809401 136.508363 
L 247.068879 136.455324 
L 247.063822 136.438804 
L 246.915768 136.31622 
L 246.818629 136.311233 
L 246.827287 136.406616 
L 246.75506 136.504997 
L 246.712892 136.486375 
L 246.493052 136.452177 
L 246.491329 136.444559 
L 246.485387 136.280325 
L 246.432107 136.282523 
L 246.250206 136.316151 
L 246.31783 136.394374 
L 246.384429 136.43684 
L 246.331928 136.487309 
L 246.300429 136.511937 
L 245.917252 136.291485 
L 245.817841 135.967092 
M 267.960365 125.332527 
L 268.067751 125.284678 
L 267.960365 125.332527 
" style="fill:none;stroke:#ffc0cb;"/>
    <path clip-path="url(#p0943704ed6)" d="M 199.396353 112.408704 
L 199.404947 112.411008 
L 199.422561 112.415729 
L 199.431763 112.416614 
L 199.44209 112.415772 
L 199.453783 112.412432 
L 199.485949 112.392434 
L 199.489081 112.39412 
L 199.550191 112.359884 
L 199.61336 112.326229 
L 199.565671 112.305036 
L 199.537111 112.326128 
L 199.527205 112.319017 
L 199.4921 112.346324 
L 199.454711 112.375572 
L 199.439946 112.368605 
L 199.435449 112.368269 
L 199.429357 112.372622 
L 199.431507 112.374868 
L 199.416837 112.388646 
L 199.396353 112.408704 
" style="fill:none;stroke:#ffc0cb;"/>
    <path clip-path="url(#p0943704ed6)" d="M 201.633164 146.088701 
L 201.651434 146.092563 
L 201.683632 146.099226 
L 201.723821 146.052412 
L 201.697869 146.045952 
L 201.674462 146.040447 
L 201.633164 146.088701 
" style="fill:none;stroke:#ffc0cb;"/>
    <path clip-path="url(#p0943704ed6)" d="M 201.769659 145.921123 
L 201.771724 145.929775 
L 201.781715 145.934059 
L 201.794773 145.932917 
L 201.799969 145.938097 
L 201.809731 145.95091 
L 201.816292 145.966801 
L 201.820021 145.972002 
L 201.826417 145.975939 
L 201.836877 145.976349 
L 201.862493 145.982793 
L 201.883926 145.982233 
L 201.89197 146.040505 
L 201.899636 146.066959 
L 201.914673 146.104235 
L 201.964406 146.10032 
L 202.049713 146.105099 
L 202.079393 146.104027 
L 202.109623 146.095236 
L 202.138556 146.090798 
L 202.167356 146.096308 
L 202.196493 146.097562 
L 202.200029 146.116275 
L 202.202824 146.131766 
L 201.987706 146.354747 
L 202.205998 146.132352 
L 202.203566 146.117 
L 202.27303 146.131211 
L 202.317225 146.139602 
L 202.346393 146.110391 
L 202.383584 146.122788 
L 202.385019 146.119214 
L 202.401033 146.107825 
L 202.419095 146.086781 
L 202.418706 146.063657 
L 202.429065 146.053116 
L 202.408528 146.043674 
L 202.382 146.034584 
L 202.351023 146.030861 
L 202.269781 146.015557 
L 202.232051 146.02183 
L 202.196994 146.028727 
L 202.189627 146.024518 
L 202.152031 146.019894 
L 202.115384 146.015839 
L 202.076048 146.02151 
L 202.031218 146.016666 
L 202.009646 146.012532 
L 201.984719 146.012692 
L 201.968081 146.009726 
L 201.957812 146.009369 
L 201.951459 146.00644 
L 201.940268 145.999746 
L 201.932154 145.993958 
L 201.921848 145.990304 
L 201.916749 145.987994 
L 201.908208 145.987525 
L 201.897865 145.982201 
L 201.891304 145.979721 
L 201.88382 145.980739 
L 201.87305 145.980041 
L 201.863421 145.981284 
L 201.837709 145.974205 
L 201.826449 145.973042 
L 201.823355 145.970636 
L 201.821285 145.96894 
L 201.812062 145.950195 
L 201.802465 145.936486 
L 201.795605 145.931061 
L 201.781784 145.93177 
L 201.773591 145.928079 
L 201.772257 145.921309 
L 201.777821 145.915879 
L 201.774823 145.914433 
L 201.769659 145.921123 
" style="fill:none;stroke:#ffc0cb;"/>
    <path clip-path="url(#p0943704ed6)" d="M 202.507928 146.185653 
L 202.509848 146.186507 
L 202.509752 146.19957 
L 202.557692 146.206057 
L 202.613399 146.193127 
L 202.669969 146.200504 
L 202.742122 146.210522 
L 202.798074 146.207295 
L 202.818622 146.186992 
L 202.778145 146.164748 
L 202.787186 146.135846 
L 202.748096 146.1245 
L 202.700418 146.127626 
L 202.642156 146.113437 
L 202.662144 146.110455 
L 202.673885 146.112658 
L 202.683241 146.111975 
L 202.696198 146.105825 
L 202.713492 146.093225 
L 202.719093 146.089955 
L 202.725809 146.084674 
L 202.728669 146.077937 
L 202.745008 146.069615 
L 202.763886 146.067636 
L 202.777425 146.061288 
L 202.784722 146.059282 
L 202.801322 146.05844 
L 202.801429 146.057079 
L 202.784509 146.057858 
L 202.775099 146.060125 
L 202.762616 146.065566 
L 202.744373 146.067732 
L 202.729831 146.074373 
L 202.726023 146.077745 
L 202.723169 146.083607 
L 202.718565 146.088915 
L 202.711321 146.09235 
L 202.693979 146.105046 
L 202.682505 146.110423 
L 202.675154 146.11094 
L 202.664256 146.108252 
L 202.642999 146.110972 
L 202.637067 146.112941 
L 202.613281 146.121598 
L 202.591357 146.129947 
L 202.540606 146.135734 
L 202.52958 146.145128 
L 202.523702 146.152884 
L 202.507928 146.185653 
" style="fill:none;stroke:#ffc0cb;"/>
    <path clip-path="url(#p0943704ed6)" d="M 202.841015 146.227218 
L 202.871725 146.234692 
L 202.881711 146.234772 
L 202.90076 146.241066 
L 202.929299 146.23458 
L 202.961524 146.240682 
L 202.99872 146.240965 
L 203.027216 146.224124 
L 203.030513 146.218374 
L 203.032967 146.208612 
L 203.034268 146.203657 
L 203.014862 146.193532 
L 202.977116 146.189547 
L 202.942181 146.18799 
L 202.918977 146.182084 
L 202.887846 146.18161 
L 202.86837 146.179764 
L 202.843725 146.1998 
L 202.841015 146.227218 
" style="fill:none;stroke:#ffc0cb;"/>
    <path clip-path="url(#p0943704ed6)" d="M 203.030107 146.284952 
L 203.030283 146.286158 
L 203.040051 146.287582 
L 203.047348 146.290697 
L 203.040515 146.291023 
L 203.031894 146.290825 
L 203.032182 146.292052 
L 203.040979 146.292228 
L 203.048847 146.291833 
L 203.045806 146.294202 
L 203.038728 146.296458 
L 203.0402 146.29729 
L 203.048383 146.295359 
L 203.051173 146.291855 
L 203.061367 146.292559 
L 203.07235 146.296416 
L 203.076143 146.315123 
L 203.078101 146.319492 
L 203.085873 146.32472 
L 203.096029 146.328534 
L 203.105903 146.330769 
L 203.118364 146.330972 
L 203.127294 146.333969 
L 203.13688 146.335372 
L 203.148679 146.333137 
L 203.161247 146.335036 
L 203.170929 146.338877 
L 203.180003 146.34546 
L 203.188671 146.349919 
L 203.197601 146.35696 
L 203.203767 146.364076 
L 203.206269 146.369331 
L 203.215855 146.373145 
L 203.216858 146.371918 
L 203.239715 146.371246 
L 203.253345 146.361884 
L 203.256807 146.345086 
L 203.245311 146.332518 
L 203.224368 146.324416 
L 203.190186 146.311293 
L 203.169569 146.312211 
L 203.148039 146.303686 
L 203.132111 146.297861 
L 203.113841 146.292863 
L 203.0741 146.28923 
L 203.074852 146.295626 
L 203.073246 146.294549 
L 203.0623 146.291263 
L 203.05161 146.290494 
L 203.040051 146.28651 
L 203.030107 146.284952 
" style="fill:none;stroke:#ffc0cb;"/>
   </g>
   <g id="matplotlib.axis_1">
    <g id="xtick_1">
     <g id="line2d_1">
      <defs>
       <path d="M 0 0 
L 0 3.5 
" id="m3c6b585287" style="stroke:#000000;stroke-width:0.8;"/>
      </defs>
      <g>
       <use style="stroke:#000000;stroke-width:0.8;" x="134.418209" xlink:href="#m3c6b585287" y="252"/>
      </g>
     </g>
     <g id="text_1">
      <!-- 11 -->
      <defs>
       <path d="M 12.40625 8.296875 
L 28.515625 8.296875 
L 28.515625 63.921875 
L 10.984375 60.40625 
L 10.984375 69.390625 
L 28.421875 72.90625 
L 38.28125 72.90625 
L 38.28125 8.296875 
L 54.390625 8.296875 
L 54.390625 0 
L 12.40625 0 
z
" id="DejaVuSans-49"/>
      </defs>
      <g transform="translate(128.055709 266.598437)scale(0.1 -0.1)">
       <use xlink:href="#DejaVuSans-49"/>
       <use x="63.623047" xlink:href="#DejaVuSans-49"/>
      </g>
     </g>
    </g>
    <g id="xtick_2">
     <g id="line2d_2">
      <g>
       <use style="stroke:#000000;stroke-width:0.8;" x="187.761709" xlink:href="#m3c6b585287" y="252"/>
      </g>
     </g>
     <g id="text_2">
      <!-- 12 -->
      <defs>
       <path d="M 19.1875 8.296875 
L 53.609375 8.296875 
L 53.609375 0 
L 7.328125 0 
L 7.328125 8.296875 
Q 12.9375 14.109375 22.625 23.890625 
Q 32.328125 33.6875 34.8125 36.53125 
Q 39.546875 41.84375 41.421875 45.53125 
Q 43.3125 49.21875 43.3125 52.78125 
Q 43.3125 58.59375 39.234375 62.25 
Q 35.15625 65.921875 28.609375 65.921875 
Q 23.96875 65.921875 18.8125 64.3125 
Q 13.671875 62.703125 7.8125 59.421875 
L 7.8125 69.390625 
Q 13.765625 71.78125 18.9375 73 
Q 24.125 74.21875 28.421875 74.21875 
Q 39.75 74.21875 46.484375 68.546875 
Q 53.21875 62.890625 53.21875 53.421875 
Q 53.21875 48.921875 51.53125 44.890625 
Q 49.859375 40.875 45.40625 35.40625 
Q 44.1875 33.984375 37.640625 27.21875 
Q 31.109375 20.453125 19.1875 8.296875 
z
" id="DejaVuSans-50"/>
      </defs>
      <g transform="translate(181.399209 266.598437)scale(0.1 -0.1)">
       <use xlink:href="#DejaVuSans-49"/>
       <use x="63.623047" xlink:href="#DejaVuSans-50"/>
      </g>
     </g>
    </g>
    <g id="xtick_3">
     <g id="line2d_3">
      <g>
       <use style="stroke:#000000;stroke-width:0.8;" x="241.105209" xlink:href="#m3c6b585287" y="252"/>
      </g>
     </g>
     <g id="text_3">
      <!-- 13 -->
      <defs>
       <path d="M 40.578125 39.3125 
Q 47.65625 37.796875 51.625 33 
Q 55.609375 28.21875 55.609375 21.1875 
Q 55.609375 10.40625 48.1875 4.484375 
Q 40.765625 -1.421875 27.09375 -1.421875 
Q 22.515625 -1.421875 17.65625 -0.515625 
Q 12.796875 0.390625 7.625 2.203125 
L 7.625 11.71875 
Q 11.71875 9.328125 16.59375 8.109375 
Q 21.484375 6.890625 26.8125 6.890625 
Q 36.078125 6.890625 40.9375 10.546875 
Q 45.796875 14.203125 45.796875 21.1875 
Q 45.796875 27.640625 41.28125 31.265625 
Q 36.765625 34.90625 28.71875 34.90625 
L 20.21875 34.90625 
L 20.21875 43.015625 
L 29.109375 43.015625 
Q 36.375 43.015625 40.234375 45.921875 
Q 44.09375 48.828125 44.09375 54.296875 
Q 44.09375 59.90625 40.109375 62.90625 
Q 36.140625 65.921875 28.71875 65.921875 
Q 24.65625 65.921875 20.015625 65.03125 
Q 15.375 64.15625 9.8125 62.3125 
L 9.8125 71.09375 
Q 15.4375 72.65625 20.34375 73.4375 
Q 25.25 74.21875 29.59375 74.21875 
Q 40.828125 74.21875 47.359375 69.109375 
Q 53.90625 64.015625 53.90625 55.328125 
Q 53.90625 49.265625 50.4375 45.09375 
Q 46.96875 40.921875 40.578125 39.3125 
z
" id="DejaVuSans-51"/>
      </defs>
      <g transform="translate(234.742709 266.598437)scale(0.1 -0.1)">
       <use xlink:href="#DejaVuSans-49"/>
       <use x="63.623047" xlink:href="#DejaVuSans-51"/>
      </g>
     </g>
    </g>
    <g id="xtick_4">
     <g id="line2d_4">
      <g>
       <use style="stroke:#000000;stroke-width:0.8;" x="294.448709" xlink:href="#m3c6b585287" y="252"/>
      </g>
     </g>
     <g id="text_4">
      <!-- 14 -->
      <defs>
       <path d="M 37.796875 64.3125 
L 12.890625 25.390625 
L 37.796875 25.390625 
z
M 35.203125 72.90625 
L 47.609375 72.90625 
L 47.609375 25.390625 
L 58.015625 25.390625 
L 58.015625 17.1875 
L 47.609375 17.1875 
L 47.609375 0 
L 37.796875 0 
L 37.796875 17.1875 
L 4.890625 17.1875 
L 4.890625 26.703125 
z
" id="DejaVuSans-52"/>
      </defs>
      <g transform="translate(288.086209 266.598437)scale(0.1 -0.1)">
       <use xlink:href="#DejaVuSans-49"/>
       <use x="63.623047" xlink:href="#DejaVuSans-52"/>
      </g>
     </g>
    </g>
   </g>
   <g id="matplotlib.axis_2">
    <g id="ytick_1">
     <g id="line2d_5">
      <defs>
       <path d="M 0 0 
L -3.5 0 
" id="m150319d411" style="stroke:#000000;stroke-width:0.8;"/>
      </defs>
      <g>
       <use style="stroke:#000000;stroke-width:0.8;" x="96.109989" xlink:href="#m150319d411" y="238.367009"/>
      </g>
     </g>
     <g id="text_5">
      <!-- 50.5 -->
      <defs>
       <path d="M 10.796875 72.90625 
L 49.515625 72.90625 
L 49.515625 64.59375 
L 19.828125 64.59375 
L 19.828125 46.734375 
Q 21.96875 47.46875 24.109375 47.828125 
Q 26.265625 48.1875 28.421875 48.1875 
Q 40.625 48.1875 47.75 41.5 
Q 54.890625 34.8125 54.890625 23.390625 
Q 54.890625 11.625 47.5625 5.09375 
Q 40.234375 -1.421875 26.90625 -1.421875 
Q 22.3125 -1.421875 17.546875 -0.640625 
Q 12.796875 0.140625 7.71875 1.703125 
L 7.71875 11.625 
Q 12.109375 9.234375 16.796875 8.0625 
Q 21.484375 6.890625 26.703125 6.890625 
Q 35.15625 6.890625 40.078125 11.328125 
Q 45.015625 15.765625 45.015625 23.390625 
Q 45.015625 31 40.078125 35.4375 
Q 35.15625 39.890625 26.703125 39.890625 
Q 22.75 39.890625 18.8125 39.015625 
Q 14.890625 38.140625 10.796875 36.28125 
z
" id="DejaVuSans-53"/>
       <path d="M 31.78125 66.40625 
Q 24.171875 66.40625 20.328125 58.90625 
Q 16.5 51.421875 16.5 36.375 
Q 16.5 21.390625 20.328125 13.890625 
Q 24.171875 6.390625 31.78125 6.390625 
Q 39.453125 6.390625 43.28125 13.890625 
Q 47.125 21.390625 47.125 36.375 
Q 47.125 51.421875 43.28125 58.90625 
Q 39.453125 66.40625 31.78125 66.40625 
z
M 31.78125 74.21875 
Q 44.046875 74.21875 50.515625 64.515625 
Q 56.984375 54.828125 56.984375 36.375 
Q 56.984375 17.96875 50.515625 8.265625 
Q 44.046875 -1.421875 31.78125 -1.421875 
Q 19.53125 -1.421875 13.0625 8.265625 
Q 6.59375 17.96875 6.59375 36.375 
Q 6.59375 54.828125 13.0625 64.515625 
Q 19.53125 74.21875 31.78125 74.21875 
z
" id="DejaVuSans-48"/>
       <path d="M 10.6875 12.40625 
L 21 12.40625 
L 21 0 
L 10.6875 0 
z
" id="DejaVuSans-46"/>
      </defs>
      <g transform="translate(66.844364 242.166227)scale(0.1 -0.1)">
       <use xlink:href="#DejaVuSans-53"/>
       <use x="63.623047" xlink:href="#DejaVuSans-48"/>
       <use x="127.246094" xlink:href="#DejaVuSans-46"/>
       <use x="159.033203" xlink:href="#DejaVuSans-53"/>
      </g>
     </g>
    </g>
    <g id="ytick_2">
     <g id="line2d_6">
      <g>
       <use style="stroke:#000000;stroke-width:0.8;" x="96.109989" xlink:href="#m150319d411" y="211.695259"/>
      </g>
     </g>
     <g id="text_6">
      <!-- 51.0 -->
      <g transform="translate(66.844364 215.494477)scale(0.1 -0.1)">
       <use xlink:href="#DejaVuSans-53"/>
       <use x="63.623047" xlink:href="#DejaVuSans-49"/>
       <use x="127.246094" xlink:href="#DejaVuSans-46"/>
       <use x="159.033203" xlink:href="#DejaVuSans-48"/>
      </g>
     </g>
    </g>
    <g id="ytick_3">
     <g id="line2d_7">
      <g>
       <use style="stroke:#000000;stroke-width:0.8;" x="96.109989" xlink:href="#m150319d411" y="185.023509"/>
      </g>
     </g>
     <g id="text_7">
      <!-- 51.5 -->
      <g transform="translate(66.844364 188.822727)scale(0.1 -0.1)">
       <use xlink:href="#DejaVuSans-53"/>
       <use x="63.623047" xlink:href="#DejaVuSans-49"/>
       <use x="127.246094" xlink:href="#DejaVuSans-46"/>
       <use x="159.033203" xlink:href="#DejaVuSans-53"/>
      </g>
     </g>
    </g>
    <g id="ytick_4">
     <g id="line2d_8">
      <g>
       <use style="stroke:#000000;stroke-width:0.8;" x="96.109989" xlink:href="#m150319d411" y="158.351759"/>
      </g>
     </g>
     <g id="text_8">
      <!-- 52.0 -->
      <g transform="translate(66.844364 162.150977)scale(0.1 -0.1)">
       <use xlink:href="#DejaVuSans-53"/>
       <use x="63.623047" xlink:href="#DejaVuSans-50"/>
       <use x="127.246094" xlink:href="#DejaVuSans-46"/>
       <use x="159.033203" xlink:href="#DejaVuSans-48"/>
      </g>
     </g>
    </g>
    <g id="ytick_5">
     <g id="line2d_9">
      <g>
       <use style="stroke:#000000;stroke-width:0.8;" x="96.109989" xlink:href="#m150319d411" y="131.680009"/>
      </g>
     </g>
     <g id="text_9">
      <!-- 52.5 -->
      <g transform="translate(66.844364 135.479227)scale(0.1 -0.1)">
       <use xlink:href="#DejaVuSans-53"/>
       <use x="63.623047" xlink:href="#DejaVuSans-50"/>
       <use x="127.246094" xlink:href="#DejaVuSans-46"/>
       <use x="159.033203" xlink:href="#DejaVuSans-53"/>
      </g>
     </g>
    </g>
    <g id="ytick_6">
     <g id="line2d_10">
      <g>
       <use style="stroke:#000000;stroke-width:0.8;" x="96.109989" xlink:href="#m150319d411" y="105.008259"/>
      </g>
     </g>
     <g id="text_10">
      <!-- 53.0 -->
      <g transform="translate(66.844364 108.807477)scale(0.1 -0.1)">
       <use xlink:href="#DejaVuSans-53"/>
       <use x="63.623047" xlink:href="#DejaVuSans-51"/>
       <use x="127.246094" xlink:href="#DejaVuSans-46"/>
       <use x="159.033203" xlink:href="#DejaVuSans-48"/>
      </g>
     </g>
    </g>
    <g id="ytick_7">
     <g id="line2d_11">
      <g>
       <use style="stroke:#000000;stroke-width:0.8;" x="96.109989" xlink:href="#m150319d411" y="78.336508"/>
      </g>
     </g>
     <g id="text_11">
      <!-- 53.5 -->
      <g transform="translate(66.844364 82.135727)scale(0.1 -0.1)">
       <use xlink:href="#DejaVuSans-53"/>
       <use x="63.623047" xlink:href="#DejaVuSans-51"/>
       <use x="127.246094" xlink:href="#DejaVuSans-46"/>
       <use x="159.033203" xlink:href="#DejaVuSans-53"/>
      </g>
     </g>
    </g>
    <g id="ytick_8">
     <g id="line2d_12">
      <g>
       <use style="stroke:#000000;stroke-width:0.8;" x="96.109989" xlink:href="#m150319d411" y="51.664758"/>
      </g>
     </g>
     <g id="text_12">
      <!-- 54.0 -->
      <g transform="translate(66.844364 55.463977)scale(0.1 -0.1)">
       <use xlink:href="#DejaVuSans-53"/>
       <use x="63.623047" xlink:href="#DejaVuSans-52"/>
       <use x="127.246094" xlink:href="#DejaVuSans-46"/>
       <use x="159.033203" xlink:href="#DejaVuSans-48"/>
      </g>
     </g>
    </g>
   </g>
   <g id="patch_3">
    <path d="M 96.109989 252 
L 96.109989 34.56 
" style="fill:none;stroke:#000000;stroke-linecap:square;stroke-linejoin:miter;stroke-width:0.8;"/>
   </g>
   <g id="patch_4">
    <path d="M 346.690011 252 
L 346.690011 34.56 
" style="fill:none;stroke:#000000;stroke-linecap:square;stroke-linejoin:miter;stroke-width:0.8;"/>
   </g>
   <g id="patch_5">
    <path d="M 96.109989 252 
L 346.690011 252 
" style="fill:none;stroke:#000000;stroke-linecap:square;stroke-linejoin:miter;stroke-width:0.8;"/>
   </g>
   <g id="patch_6">
    <path d="M 96.109989 34.56 
L 346.690011 34.56 
" style="fill:none;stroke:#000000;stroke-linecap:square;stroke-linejoin:miter;stroke-width:0.8;"/>
   </g>
  </g>
 </g>
 <defs>
  <clipPath id="p0943704ed6">
   <rect height="217.44" width="250.580022" x="96.109989" y="34.56"/>
  </clipPath>
 </defs>
</svg>
