<?xml version="1.0" encoding="utf-8" standalone="no"?>
<!DOCTYPE svg PUBLIC "-//W3C//DTD SVG 1.1//EN"
  "http://www.w3.org/Graphics/SVG/1.1/DTD/svg11.dtd">
<!-- Created with matplotlib (https://matplotlib.org/) -->
<svg height="288pt" version="1.1" viewBox="0 0 432 288" width="432pt" xmlns="http://www.w3.org/2000/svg" xmlns:xlink="http://www.w3.org/1999/xlink">
 <defs>
  <style type="text/css">
*{stroke-linecap:butt;stroke-linejoin:round;}
  </style>
 </defs>
 <g id="figure_1">
  <g id="patch_1">
   <path d="M 0 288 
L 432 288 
L 432 0 
L 0 0 
z
" style="fill:#ffffff;"/>
  </g>
  <g id="axes_1">
   <g id="patch_2">
    <path d="M 131.73841 252 
L 311.06159 252 
L 311.06159 34.56 
L 131.73841 34.56 
z
" style="fill:#ffffff;"/>
   </g>
   <g id="PatchCollection_1">
    <path clip-path="url(#pb9a0926e0a)" d="M 233.834636 113.081579 
L 302.765717 112.440411 
L 302.910536 44.443636 
L 232.3512 45.108211 
L 233.834636 113.081579 
" style="fill:none;stroke:#0000ff;stroke-opacity:0.2;"/>
    <path clip-path="url(#pb9a0926e0a)" d="M 231.234857 242.116364 
L 235.34416 174.30665 
L 186.48984 171.766092 
L 184.039887 181.251318 
L 181.441905 191.290536 
L 178.856333 201.333402 
L 176.284594 211.383567 
L 173.723309 221.433207 
L 171.17315 231.480947 
L 169.29264 238.938243 
L 231.234857 242.116364 
" style="fill:none;stroke:#0000ff;stroke-opacity:0.2;"/>
    <path clip-path="url(#pb9a0926e0a)" d="M 201.677655 114.106933 
L 240.00999 112.960519 
L 238.672301 44.982732 
L 220.4662 45.534098 
L 218.969993 50.898756 
L 216.188773 60.912846 
L 213.426426 70.93439 
L 210.674734 80.959867 
L 207.939675 90.992167 
L 205.207618 101.01904 
L 202.498137 111.049502 
L 201.677655 114.106933 
" style="fill:none;stroke:#0000ff;stroke-opacity:0.2;"/>
   </g>
   <g id="PatchCollection_2">
    <path clip-path="url(#pb9a0926e0a)" d="M 139.889464 115.129844 
L 140.025033 115.62173 
L 139.995844 116.52674 
L 140.463866 117.193502 
L 141.163709 117.837224 
L 141.944642 118.442585 
L 142.701486 119.568521 
L 143.089833 119.786947 
L 143.606461 119.742832 
L 146.008618 118.461628 
L 146.752511 118.344888 
L 147.289366 118.143915 
L 147.857711 118.212233 
L 148.286166 118.510235 
L 149.479879 119.830972 
L 149.805757 120.100437 
L 150.319367 120.307584 
L 150.873308 120.287059 
L 151.813657 119.955718 
L 151.929885 120.060855 
L 152.50436 120.751676 
L 153.35342 121.106533 
L 153.808521 121.071519 
L 154.866 120.666243 
L 155.327155 120.743471 
L 155.635922 121.019915 
L 155.633466 121.297613 
L 155.263956 121.748595 
L 154.984647 122.189435 
L 154.998539 122.639646 
L 155.288116 122.995673 
L 155.768158 123.177115 
L 156.143247 123.137002 
L 156.96991 122.898376 
L 157.237406 123.108224 
L 157.449318 123.670041 
L 157.440107 124.466496 
L 157.628002 124.863173 
L 157.954842 125.043133 
L 158.279231 125.065587 
L 159.653886 124.332704 
L 160.137664 124.452523 
L 160.564058 124.656143 
L 160.997728 125.121408 
L 161.698578 126.211062 
L 162.027521 126.339618 
L 162.774928 126.44623 
L 163.646595 126.498392 
L 164.078623 126.74118 
L 164.325522 127.034786 
L 164.316039 127.536236 
L 164.07259 127.883713 
L 163.344255 128.738923 
L 163.284865 129.075859 
L 163.528645 129.576027 
L 163.826933 129.760273 
L 164.359955 129.79929 
L 165.365983 129.834028 
L 165.640195 130.12246 
L 166.118827 130.728303 
L 166.609448 130.941575 
L 167.522798 131.008309 
L 168.230222 131.151657 
L 168.60919 131.382064 
L 169.078568 131.823476 
L 169.053304 131.700859 
L 169.414031 131.866558 
L 170.172446 132.023658 
L 170.152467 131.967444 
L 170.518568 131.666631 
L 170.943018 131.623205 
L 171.063571 131.302494 
L 171.08321 131.307455 
L 171.761902 131.151023 
L 171.900306 131.250428 
L 172.728148 131.331369 
L 172.735701 131.376793 
L 172.788467 131.338865 
L 173.089241 131.226838 
L 173.535316 131.384758 
L 173.483372 131.543766 
L 173.590135 131.538137 
L 174.003729 131.484073 
L 174.130738 131.901454 
L 174.18816 132.028115 
L 174.710422 131.981747 
L 175.108765 132.013447 
L 175.429509 132.094312 
L 175.667198 131.27242 
L 175.96044 130.819013 
L 175.959756 130.822554 
L 176.09821 130.871299 
L 175.749439 131.876121 
L 175.798141 132.173062 
L 176.289442 132.787909 
L 175.897599 133.609732 
L 176.06415 133.589132 
L 176.603814 133.350554 
L 177.942193 132.858874 
L 177.940267 132.85372 
L 178.687527 132.117689 
L 178.934779 131.953609 
L 178.986537 132.045154 
L 179.202698 132.631994 
L 179.447763 132.775811 
L 179.446143 132.841009 
L 179.480013 132.882602 
L 179.511541 133.037856 
L 179.529559 133.031786 
L 179.73721 132.987044 
L 179.929463 132.796887 
L 180.252819 132.981952 
L 180.525864 133.317552 
L 180.489244 133.436228 
L 180.431658 133.823107 
L 180.560566 134.08591 
L 180.681257 134.350469 
L 181.125271 136.346242 
L 181.520859 136.979589 
L 181.292956 137.065904 
L 181.434504 137.419065 
L 181.100153 137.614086 
L 181.067807 138.054458 
L 180.766764 138.165376 
L 179.931642 138.023434 
L 180.077417 138.217394 
L 179.98861 139.107866 
L 179.61659 139.243167 
L 179.727076 139.818819 
L 179.550991 139.794353 
L 179.356311 139.926002 
L 179.335787 140.040296 
L 179.525395 140.585413 
L 179.871684 140.668765 
L 179.919119 140.911601 
L 179.896667 141.283192 
L 179.987086 141.507908 
L 179.138324 142.261385 
L 179.172917 142.256631 
L 179.348087 142.381501 
L 179.233441 142.518517 
L 179.349792 142.490386 
L 179.127367 142.698608 
L 179.125541 142.691243 
L 178.99982 142.806302 
L 179.055978 143.022047 
L 179.380106 142.884059 
L 179.535877 143.119799 
L 179.358784 143.435129 
L 179.581339 143.585277 
L 179.814384 143.662855 
L 179.940773 143.806348 
L 180.099525 144.03258 
L 179.96084 144.105673 
L 179.822537 144.348509 
L 179.998585 144.964314 
L 180.195027 145.017152 
L 180.458463 144.981945 
L 180.450319 145.059724 
L 180.276672 145.281546 
L 180.248008 145.445577 
L 180.472321 145.497856 
L 180.570754 145.635293 
L 180.671744 146.037316 
L 180.729468 146.281613 
L 180.563341 147.205135 
L 180.628651 148.251632 
L 180.398644 148.346532 
L 180.394954 149.045682 
L 180.638172 149.045586 
L 180.440907 149.148009 
L 179.537968 149.406326 
L 179.354372 149.551617 
L 179.090231 149.809755 
L 178.737094 149.716413 
L 177.702355 149.205483 
L 177.735676 149.991107 
L 177.831959 149.952256 
L 178.05422 149.887961 
L 177.976312 149.968832 
L 177.838131 150.473589 
L 177.903101 150.626817 
L 178.068271 150.631398 
L 177.974636 151.407976 
L 178.166192 152.751111 
L 178.314465 152.805092 
L 178.265079 152.865805 
L 177.268942 154.131775 
L 177.212838 154.402693 
L 176.903156 155.257029 
L 176.709778 155.485961 
L 176.701915 156.05391 
L 176.824122 155.945645 
L 177.239958 155.876493 
L 177.372115 155.5998 
L 177.708476 155.438346 
L 177.984401 155.318265 
L 178.233639 155.584946 
L 178.250171 155.66032 
L 178.336283 155.655421 
L 178.617582 155.767132 
L 178.57508 155.839653 
L 177.752141 157.124639 
L 177.916921 157.60608 
L 178.38826 158.150212 
L 178.446845 158.282192 
L 178.514283 158.230436 
L 178.658585 158.061127 
L 179.448703 157.971189 
L 179.604055 157.74061 
L 179.614605 157.782837 
L 179.966931 157.966242 
L 180.004131 157.971519 
L 180.079882 157.755891 
L 180.250296 157.538396 
L 180.135334 157.111348 
L 180.463854 156.711723 
L 180.572799 156.340124 
L 180.883808 156.475501 
L 181.033164 156.636025 
L 181.067072 156.698081 
L 181.501724 156.721664 
L 181.530351 156.852315 
L 181.534872 157.072394 
L 181.519024 157.234875 
L 181.577836 157.616973 
L 181.672428 157.751254 
L 181.887812 157.90546 
L 182.020099 157.943258 
L 181.969125 157.987752 
L 181.696353 158.313182 
L 181.787506 158.337785 
L 182.063524 158.541315 
L 182.106416 158.848556 
L 182.136794 158.840061 
L 182.586668 158.6858 
L 182.731855 158.49999 
L 183.078397 158.443997 
L 183.109123 158.310212 
L 183.288353 158.29788 
L 183.747186 158.616138 
L 184.423897 158.236892 
L 184.556872 158.24323 
L 184.552762 158.327072 
L 184.513715 158.506467 
L 184.401655 158.593815 
L 184.373406 158.575695 
L 184.295544 158.549934 
L 183.674907 158.95253 
L 183.750007 159.498686 
L 183.869469 159.579359 
L 184.059824 159.658232 
L 184.367751 159.486347 
L 184.486285 159.405951 
L 184.508447 159.430134 
L 184.580856 159.48428 
L 184.536112 159.550208 
L 184.3453 159.96072 
L 184.278567 160.523205 
L 183.901509 160.76755 
L 183.958754 161.274084 
L 183.609362 161.302711 
L 183.462436 161.399801 
L 183.516575 161.756904 
L 183.611146 161.800585 
L 183.549774 161.920962 
L 183.38101 162.258794 
L 183.288366 162.587394 
L 182.834256 162.763799 
L 182.919839 162.890336 
L 183.174299 163.230455 
L 183.045639 163.259716 
L 182.708119 163.467056 
L 182.539913 163.580296 
L 182.222041 163.772444 
L 182.351557 164.096448 
L 182.919738 164.335549 
L 183.136491 164.337589 
L 183.259672 164.248739 
L 183.308928 164.324622 
L 183.356602 164.784602 
L 183.229983 165.277274 
L 183.06349 165.528144 
L 182.989355 165.883641 
L 183.153573 166.230105 
L 183.563602 166.412622 
L 183.479191 166.498771 
L 183.30096 166.867172 
L 182.838072 166.943401 
L 182.62639 167.091103 
L 182.69843 167.438753 
L 183.22125 168.105191 
L 183.295141 168.369275 
L 183.628023 168.691866 
L 183.180457 169.469312 
L 182.826724 170.215458 
L 182.570895 170.410644 
L 182.363823 170.865664 
L 181.995011 171.689023 
L 181.747847 172.180902 
L 181.65357 172.441713 
L 181.652575 172.441059 
L 181.2188 173.673648 
L 181.254233 174.628429 
L 181.252339 174.628023 
L 181.003198 175.192747 
L 180.996649 175.221209 
L 181.574406 175.408762 
L 181.704329 175.443665 
L 181.523462 175.677117 
L 181.610762 175.715155 
L 181.82636 175.741226 
L 181.842246 175.67855 
L 182.064695 175.769302 
L 181.944948 175.80734 
L 182.043377 175.873123 
L 182.227095 176.148121 
L 182.080241 176.173496 
L 181.685303 176.207896 
L 182.280697 176.248918 
L 182.692133 176.400361 
L 182.770558 176.592165 
L 183.168354 176.665031 
L 183.004825 176.806546 
L 182.618141 177.301898 
L 182.334966 177.509231 
L 181.749157 177.551121 
L 181.55648 177.557487 
L 181.033907 178.064614 
L 181.097987 178.201465 
L 181.109712 178.197482 
L 181.273712 178.48258 
L 180.946343 178.894442 
L 180.855143 179.069821 
L 180.961225 179.612223 
L 181.087177 179.779382 
L 181.000473 179.823428 
L 180.763293 179.865545 
L 180.276509 179.604851 
L 179.763806 180.683213 
L 179.986629 181.011737 
L 180.504189 181.219759 
L 180.420991 181.765109 
L 180.435491 181.766129 
L 181.354727 183.108196 
L 181.820411 183.439269 
L 181.935666 183.804295 
L 182.016148 184.397089 
L 182.146462 184.92897 
L 182.547201 185.256701 
L 182.731889 185.332613 
L 184.112296 186.360942 
L 184.351866 187.222986 
L 184.739217 187.933443 
L 185.21818 188.28143 
L 185.344615 188.413762 
L 185.796869 189.227055 
L 186.947832 189.435277 
L 187.046349 189.432507 
L 187.538818 190.081879 
L 187.973138 190.508162 
L 188.40569 190.721027 
L 188.521458 190.977739 
L 188.834175 191.184652 
L 189.314662 191.285566 
L 189.595348 191.237 
L 189.661997 190.778605 
L 189.691548 190.645095 
L 190.140334 190.040872 
L 190.875558 190.15048 
L 190.951045 190.768828 
L 191.06635 191.259006 
L 191.24291 191.395299 
L 191.762024 191.879379 
L 192.463877 192.051575 
L 193.188329 192.234394 
L 193.207334 192.464388 
L 193.367525 193.204994 
L 193.335028 193.427753 
L 193.439485 193.477201 
L 194.229524 193.551906 
L 196.400067 193.667158 
L 196.521442 193.653633 
L 196.469365 193.00792 
L 197.561311 192.838101 
L 197.763627 192.731937 
L 197.923621 191.876548 
L 198.217317 191.551297 
L 198.844968 191.575748 
L 199.012486 191.767641 
L 199.208727 192.093616 
L 199.416143 192.225486 
L 200.397792 192.402022 
L 200.570649 192.45386 
L 200.519819 192.553479 
L 200.625678 192.697454 
L 201.560842 193.246615 
L 201.589666 193.195321 
L 201.816469 193.171606 
L 202.173133 193.316408 
L 202.489456 193.474094 
L 202.64139 193.709606 
L 202.888487 193.853656 
L 203.168371 193.913942 
L 203.302392 194.102769 
L 203.276359 194.852029 
L 204.227412 195.044301 
L 205.244275 194.948396 
L 205.669918 194.745961 
L 206.139784 194.669692 
L 206.141169 194.675203 
L 206.479222 196.415381 
L 206.565854 196.917092 
L 207.771985 196.97263 
L 208.007545 196.926324 
L 208.009388 196.960029 
L 208.13186 197.372084 
L 208.479989 197.395537 
L 209.104202 197.173032 
L 209.296509 196.613475 
L 209.594311 196.700954 
L 210.357247 196.861271 
L 211.014327 196.994491 
L 210.988206 197.098093 
L 210.839946 197.760314 
L 210.92458 197.772688 
L 211.686067 197.986821 
L 211.544469 199.25707 
L 211.590938 199.232391 
L 212.115194 199.049158 
L 212.740243 199.108389 
L 213.301795 199.2195 
L 213.595315 199.557628 
L 213.595416 199.391765 
L 213.627132 199.100583 
L 213.704558 199.129754 
L 214.59468 199.400046 
L 214.699713 199.895591 
L 214.246589 199.957392 
L 214.252484 200.687794 
L 214.249196 200.687326 
L 213.80486 200.631533 
L 213.910522 200.839961 
L 214.12492 201.075439 
L 214.43341 201.365614 
L 215.372666 201.470132 
L 215.989285 201.572417 
L 216.082882 201.473997 
L 216.265492 201.137268 
L 216.935162 201.136124 
L 217.37214 201.067909 
L 217.446459 201.057409 
L 217.524829 200.935109 
L 217.669408 200.846576 
L 217.662099 200.48793 
L 217.775831 200.490355 
L 218.231687 200.533375 
L 218.223085 200.7314 
L 218.500757 200.732392 
L 218.553229 200.965093 
L 218.687262 201.069693 
L 218.750914 201.210085 
L 218.951344 201.229067 
L 219.019287 201.993546 
L 218.975144 202.115894 
L 217.860385 202.414468 
L 218.018301 203.043254 
L 218.29769 203.707935 
L 218.439578 204.019627 
L 218.511793 204.089344 
L 218.76706 204.859142 
L 218.959254 204.890677 
L 218.898322 205.040866 
L 219.170398 205.308595 
L 219.418355 206.171639 
L 219.334284 206.400516 
L 219.455273 206.811731 
L 219.392025 207.043419 
L 219.834183 207.10367 
L 219.787483 207.400852 
L 219.692542 207.382705 
L 219.36977 207.399247 
L 219.367277 207.421928 
L 219.441541 207.589342 
L 219.357092 208.00119 
L 218.859704 208.521132 
L 219.029421 208.580514 
L 219.182203 208.71988 
L 219.124156 208.699707 
L 218.95032 209.017593 
L 219.043166 209.067261 
L 219.54777 209.434257 
L 219.484971 209.623794 
L 219.223231 209.815708 
L 219.312617 209.971857 
L 219.303717 210.002082 
L 219.229373 209.928741 
L 219.204289 209.936134 
L 219.085957 210.06307 
L 219.202001 210.10795 
L 219.704348 210.421013 
L 219.723508 210.624867 
L 219.692677 210.656601 
L 219.787038 210.668458 
L 219.793062 210.687047 
L 219.958086 210.783152 
L 220.092539 210.838821 
L 220.520713 212.024188 
L 220.513496 212.024188 
L 220.045902 211.885897 
L 220.025701 211.855121 
L 219.804208 211.874074 
L 219.706384 211.861494 
L 219.807008 212.564434 
L 219.729553 212.514373 
L 219.261975 212.285991 
L 219.165436 212.504093 
L 219.414527 213.173494 
L 219.436147 213.44526 
L 219.33679 213.451054 
L 219.242307 213.466825 
L 219.356101 213.547772 
L 219.49147 213.676046 
L 219.323868 213.808522 
L 217.807833 214.870066 
L 214.811433 216.716201 
L 215.927241 218.546717 
L 215.875441 218.635457 
L 216.108084 218.838649 
L 216.381519 219.460848 
L 216.562618 219.534878 
L 216.635724 219.599421 
L 216.954516 219.261252 
L 217.088704 219.332685 
L 217.032017 219.166821 
L 217.012265 219.175454 
L 216.851339 219.232715 
L 216.924801 218.817132 
L 217.160958 219.19498 
L 217.339886 219.022715 
L 217.322216 218.976196 
L 217.497067 218.913678 
L 217.529468 218.770234 
L 217.735432 218.602241 
L 217.771964 218.786742 
L 218.081688 219.2129 
L 218.538011 219.817434 
L 218.710028 220.091825 
L 218.711666 220.175108 
L 219.189802 220.046897 
L 219.461008 220.542834 
L 219.153332 220.762045 
L 219.159004 221.055307 
L 218.926916 221.462415 
L 218.632401 222.111326 
L 218.784184 222.335009 
L 218.844297 222.498206 
L 219.303289 222.459623 
L 219.541818 222.850816 
L 220.465457 222.889819 
L 220.759753 224.348977 
L 221.281168 225.189678 
L 221.409021 225.212614 
L 221.383467 225.867594 
L 221.368064 226.419325 
L 221.367552 226.550616 
L 221.157315 226.604515 
L 221.181509 227.13424 
L 220.952136 227.363317 
L 221.020679 227.398303 
L 221.136589 227.447337 
L 220.814602 227.695499 
L 220.720459 227.669904 
L 220.508186 227.417753 
L 220.326957 227.44144 
L 220.384921 227.492844 
L 220.523446 227.81516 
L 220.488694 228.07274 
L 220.32194 228.735251 
L 220.458153 229.091685 
L 220.839501 229.471193 
L 221.169762 229.694049 
L 221.228448 229.998128 
L 221.110502 230.462035 
L 220.719682 231.094651 
L 220.730681 231.215277 
L 220.652525 231.155067 
L 220.455747 231.143499 
L 220.013085 231.575101 
L 220.058924 231.942007 
L 220.515923 232.062984 
L 220.610683 231.86684 
L 220.561989 231.509372 
L 220.777402 231.28837 
L 221.195098 231.682553 
L 221.228263 232.021901 
L 221.157294 232.63557 
L 221.893047 234.128674 
L 222.779391 234.159182 
L 223.05828 234.204303 
L 222.98234 234.173747 
L 223.206255 234.203091 
L 223.211628 234.298121 
L 223.501034 234.37767 
L 223.73117 234.69158 
L 223.744063 234.824098 
L 223.954951 234.836692 
L 224.022968 234.400799 
L 223.95485 234.411126 
L 223.753643 234.400509 
L 223.74455 234.147552 
L 223.560639 234.008235 
L 223.599169 233.675805 
L 223.634366 233.703997 
L 223.796535 233.737137 
L 224.700775 233.823073 
L 224.699079 233.785262 
L 224.665973 233.032054 
L 225.588705 232.59778 
L 225.741962 232.411902 
L 225.746424 232.235441 
L 226.472572 231.916591 
L 226.420398 231.806569 
L 226.219867 231.277078 
L 226.144469 231.198962 
L 226.227402 231.208525 
L 226.667079 231.20643 
L 226.666055 231.294089 
L 226.865591 231.770039 
L 227.840099 231.515174 
L 228.443326 232.008824 
L 228.573115 232.031436 
L 228.74219 231.896576 
L 228.731393 231.878938 
L 228.422239 231.098544 
L 228.620613 231.279861 
L 228.734264 231.227299 
L 229.013334 230.673068 
L 229.072825 230.421344 
L 229.488094 230.138306 
L 229.556511 230.044544 
L 229.57675 230.062388 
L 229.785875 230.434696 
L 229.727748 230.632232 
L 229.948359 230.962313 
L 229.97945 231.055958 
L 230.306886 231.108734 
L 230.339455 231.269203 
L 230.471649 231.451623 
L 230.606052 231.437223 
L 230.609902 231.492279 
L 230.644561 231.646678 
L 230.620019 231.66526 
L 230.627198 231.714101 
L 230.68318 231.738615 
L 230.69433 231.907992 
L 230.386755 232.288623 
L 230.517023 232.278654 
L 230.7137 232.194909 
L 230.859257 231.877664 
L 230.927094 231.870436 
L 230.941381 231.945555 
L 231.320655 231.936998 
L 231.38327 231.98163 
L 231.300319 231.791122 
L 231.400205 231.648924 
L 231.428206 231.726654 
L 231.521157 231.820493 
L 231.688385 232.242848 
L 232.114208 232.15911 
L 232.174438 231.90153 
L 232.207053 231.944046 
L 232.651713 232.498678 
L 232.597306 232.467336 
L 232.219064 232.264509 
L 232.219358 232.352553 
L 232.13281 232.706783 
L 232.102545 232.701546 
L 232.205764 232.9583 
L 232.528133 233.082639 
L 232.774655 233.072924 
L 233.370657 233.300803 
L 233.503977 233.560167 
L 234.084865 233.50684 
L 234.552346 233.599136 
L 234.722479 235.08114 
L 234.779825 235.071757 
L 235.265052 235.104221 
L 235.305606 235.478837 
L 235.451549 235.882507 
L 235.600561 235.894812 
L 235.83778 235.205032 
L 236.087202 235.172223 
L 236.618415 234.762696 
L 237.336557 234.842769 
L 237.445145 234.860882 
L 237.346086 235.016232 
L 237.528012 235.330852 
L 237.492458 235.504591 
L 237.573767 235.513472 
L 237.676268 235.540824 
L 237.67136 235.890368 
L 237.719509 235.893262 
L 237.984158 235.902488 
L 238.773328 235.820775 
L 239.723617 235.92151 
L 240.024097 235.887509 
L 240.541943 235.83308 
L 240.761088 235.443093 
L 240.863678 235.550835 
L 241.340222 235.997917 
L 241.688905 235.566874 
L 242.252804 236.100141 
L 242.692704 236.284138 
L 243.155474 236.229709 
L 243.270738 236.232871 
L 243.894145 236.394532 
L 244.230011 236.072299 
L 244.327957 235.808939 
L 244.515449 235.731422 
L 244.966574 235.868259 
L 244.948388 235.907483 
L 244.697299 236.153488 
L 244.651926 236.273838 
L 244.720556 236.595003 
L 244.784023 236.490155 
L 244.832457 236.34824 
L 244.871579 236.36718 
L 245.256828 236.473613 
L 245.281131 236.350369 
L 245.284401 236.257296 
L 245.688906 235.811302 
L 246.861057 235.787649 
L 247.157784 235.796227 
L 247.583292 235.416127 
L 247.797887 235.26201 
L 247.800154 235.160262 
L 247.6984 234.89407 
L 247.809806 234.943738 
L 248.198618 235.000978 
L 248.985106 235.216799 
L 249.042108 235.306904 
L 249.090466 235.288515 
L 249.796026 235.501925 
L 250.380563 235.333753 
L 250.446633 235.404986 
L 250.476519 235.383697 
L 250.796491 235.242533 
L 250.862603 235.251972 
L 250.858027 235.204164 
L 250.86961 234.939487 
L 251.216445 234.829396 
L 251.442396 234.774423 
L 252.374986 234.322421 
L 252.731939 233.977072 
L 253.027398 233.980993 
L 253.499917 234.323434 
L 253.416362 235.448887 
L 254.006487 235.58425 
L 254.681363 235.666769 
L 254.651141 235.604975 
L 254.562896 234.781808 
L 254.944904 234.466706 
L 254.999345 234.326582 
L 254.960097 234.329752 
L 254.815199 234.082162 
L 254.857381 234.063491 
L 255.294254 233.905316 
L 255.836948 234.031998 
L 255.806768 233.938924 
L 255.737256 233.660337 
L 255.35121 233.607782 
L 255.335971 233.437481 
L 255.628323 233.214343 
L 255.80919 233.195396 
L 256.329345 232.580273 
L 256.539675 232.460509 
L 256.458874 232.071693 
L 256.35945 231.977813 
L 256.267322 231.816876 
L 256.607991 231.836883 
L 256.572651 231.729617 
L 256.479297 231.481276 
L 256.204485 231.395099 
L 256.237646 231.351694 
L 256.787636 230.924915 
L 257.283816 230.645212 
L 256.86939 230.113806 
L 256.865268 229.470931 
L 256.127924 228.798368 
L 256.094259 228.54189 
L 256.277725 228.260134 
L 257.74908 228.79524 
L 257.862454 228.718495 
L 258.295645 228.431861 
L 258.390451 228.337665 
L 257.851774 227.649331 
L 257.75481 227.42117 
L 257.842245 227.386997 
L 258.204277 227.346003 
L 258.361136 227.24666 
L 258.729457 226.885051 
L 258.783348 226.52469 
L 259.279435 225.375674 
L 259.956322 225.355955 
L 260.397813 225.334941 
L 260.484823 225.259712 
L 260.630187 225.30256 
L 260.508286 225.173253 
L 260.107963 224.595065 
L 260.16496 224.244419 
L 260.52934 223.850229 
L 260.807591 223.99634 
L 261.002022 224.032842 
L 261.423576 224.074173 
L 261.680715 224.063074 
L 262.179379 224.183486 
L 262.612389 224.18713 
L 262.988486 224.232596 
L 263.671292 224.163209 
L 263.671586 224.17878 
L 263.992738 224.358506 
L 264.457826 224.62476 
L 264.588156 224.634743 
L 264.76462 224.683929 
L 264.909476 224.659195 
L 264.835224 224.895968 
L 264.92291 224.897277 
L 265.033224 224.966443 
L 265.28336 224.783452 
L 265.360445 224.673126 
L 265.667109 224.662096 
L 266.407984 224.812492 
L 268.319411 225.798511 
L 268.392231 226.377374 
L 268.544186 226.477247 
L 268.637443 226.529768 
L 269.019333 226.153085 
L 269.034244 225.854504 
L 269.059299 225.661061 
L 268.912722 225.659476 
L 268.927327 225.564893 
L 269.054551 225.429248 
L 269.610175 225.383287 
L 270.481742 224.574837 
L 270.844257 224.554512 
L 270.831713 224.560176 
L 270.857133 224.56907 
L 270.87306 224.430559 
L 270.921746 224.234463 
L 270.908224 224.021039 
L 270.935428 224.020557 
L 271.671794 224.200069 
L 271.846956 224.323313 
L 271.897115 224.260486 
L 272.02258 224.180365 
L 273.226918 223.830373 
L 273.45192 223.988527 
L 273.439435 223.859454 
L 273.485345 223.142445 
L 273.688752 223.023404 
L 274.144118 222.949856 
L 274.180771 223.075498 
L 274.250397 222.939797 
L 275.743557 222.83446 
L 275.743078 222.842342 
L 275.927842 222.958317 
L 276.012946 222.868943 
L 276.341885 223.150052 
L 277.201999 222.776131 
L 277.551349 222.610557 
L 277.649119 222.497193 
L 277.513083 221.813048 
L 277.54752 221.836949 
L 277.983603 221.910642 
L 278.334528 221.604434 
L 278.750137 221.308974 
L 279.066045 221.384203 
L 279.120096 221.681895 
L 279.211128 221.770477 
L 279.633433 221.80733 
L 279.802012 222.040651 
L 279.904052 222.462365 
L 280.247348 223.430154 
L 280.590687 223.412454 
L 281.398639 223.230551 
L 281.540363 223.153648 
L 282.109006 223.140096 
L 282.806884 223.266495 
L 282.995858 223.355841 
L 283.347979 223.074354 
L 283.681712 222.502691 
L 283.748277 222.149805 
L 283.861354 221.689371 
L 283.740318 221.626412 
L 283.943036 221.621086 
L 284.072934 221.637794 
L 284.215515 221.679332 
L 284.245489 221.611193 
L 284.325841 221.583014 
L 284.267387 221.490553 
L 284.150918 221.131425 
L 283.984094 220.617264 
L 284.034895 220.190658 
L 284.427625 220.224494 
L 284.75336 220.587542 
L 284.870807 220.776528 
L 284.906969 220.901032 
L 284.942137 220.97015 
L 285.298154 221.250804 
L 285.297948 221.22937 
L 285.428719 220.942619 
L 286.158205 220.34184 
L 286.260156 220.244205 
L 286.446552 219.949393 
L 286.661034 219.720033 
L 286.749026 219.528567 
L 286.806163 219.259247 
L 286.700244 218.668865 
L 286.459356 218.359378 
L 286.355957 217.895215 
L 286.387904 217.635265 
L 286.347687 217.335217 
L 286.378971 216.074724 
L 286.427169 215.713116 
L 286.260521 215.474476 
L 286.169712 215.192678 
L 286.067353 214.961169 
L 285.943198 214.722929 
L 285.62475 214.586932 
L 285.619062 214.380543 
L 285.696782 214.214665 
L 285.521443 213.869448 
L 285.233327 213.88198 
L 284.889673 213.566733 
L 284.390358 213.07949 
L 283.850951 212.630169 
L 283.561478 212.405094 
L 283.428792 212.170898 
L 283.174454 211.797267 
L 283.039749 211.478265 
L 282.683854 211.219852 
L 282.461131 210.633176 
L 282.301909 210.016757 
L 282.331288 209.664299 
L 282.252624 209.431267 
L 282.477244 209.291653 
L 282.510417 209.119313 
L 282.298119 209.017262 
L 281.962089 208.825197 
L 282.040636 208.579784 
L 282.141474 208.391487 
L 281.881103 207.041366 
L 281.589196 206.426615 
L 281.331402 206.340045 
L 281.193977 206.107268 
L 280.481263 206.034168 
L 280.344786 205.936065 
L 280.0851 205.905288 
L 279.883229 205.483092 
L 279.769498 205.128256 
L 279.548669 204.898455 
L 279.429698 204.743884 
L 279.426944 204.488784 
L 279.445899 204.295561 
L 279.549206 204.076398 
L 279.506557 203.766897 
L 279.534714 203.474441 
L 279.77572 203.344032 
L 279.976645 203.492989 
L 280.09701 203.347877 
L 280.11502 202.89336 
L 280.161459 202.912576 
L 280.335845 203.121087 
L 280.375651 203.02308 
L 280.195577 202.696389 
L 280.164301 202.545552 
L 280.43631 202.239089 
L 280.90366 202.185143 
L 281.617218 201.63778 
L 281.748955 201.426485 
L 281.854155 201.20272 
L 282.063612 201.060592 
L 282.114791 200.647696 
L 282.188716 200.373105 
L 282.461669 200.135016 
L 282.534645 199.958384 
L 282.839826 200.034219 
L 283.00189 199.983339 
L 283.026533 199.680968 
L 283.291905 199.606104 
L 283.506101 199.381506 
L 283.811278 199.147337 
L 283.859611 198.53703 
L 284.042532 198.303881 
L 284.446277 196.834381 
L 284.657627 196.679988 
L 284.864237 196.366436 
L 284.903901 195.859936 
L 284.926113 195.699268 
L 284.729654 195.444182 
L 284.60929 195.363661 
L 284.326857 194.475242 
L 284.369552 193.834117 
L 284.416466 193.835075 
L 284.633974 193.756993 
L 284.751971 193.472957 
L 284.811206 193.16739 
L 284.952061 192.775494 
L 284.80315 192.408402 
L 284.645821 192.135016 
L 284.790829 192.033041 
L 285.101695 191.870753 
L 285.143092 191.556815 
L 285.187324 191.453924 
L 285.752272 190.881303 
L 285.771038 190.673536 
L 285.772381 190.400819 
L 286.073285 190.171432 
L 286.071942 189.774948 
L 286.117517 189.392726 
L 285.969407 189.193171 
L 285.953278 188.770595 
L 286.019734 188.589326 
L 286.52397 187.931424 
L 286.403677 187.665515 
L 285.665972 186.470998 
L 284.92024 185.916725 
L 283.923036 185.546663 
L 283.409334 184.841518 
L 283.264054 184.358396 
L 283.24447 183.101093 
L 283.221049 182.506494 
L 283.440438 182.128661 
L 284.276853 180.798389 
L 284.163332 180.137993 
L 283.639227 179.504625 
L 283.451231 179.191363 
L 283.48032 178.900257 
L 283.650348 178.697092 
L 284.235028 178.141365 
L 284.466822 177.610717 
L 284.724309 176.253431 
L 284.656174 176.11496 
L 284.228181 175.582631 
L 283.992998 175.050006 
L 283.601285 174.746161 
L 281.557034 174.256886 
L 280.428946 173.720133 
L 279.595688 173.569661 
L 279.431537 173.267663 
L 279.276459 172.847995 
L 278.758487 172.320957 
L 278.819788 171.978874 
L 279.216682 171.45227 
L 279.113072 171.118614 
L 278.909216 170.694467 
L 278.892306 170.370904 
L 278.633064 170.079309 
L 278.226225 169.851156 
L 278.224785 169.556633 
L 278.275238 169.052972 
L 278.110664 168.668372 
L 277.852106 168.185084 
L 277.870145 167.128941 
L 277.785897 166.499639 
L 277.374839 165.80312 
L 277.079325 165.143165 
L 277.23458 164.616431 
L 277.613603 163.909963 
L 277.533801 163.52287 
L 277.503486 163.061587 
L 277.666847 162.649208 
L 278.143081 162.184054 
L 278.663862 162.122529 
L 278.956088 162.013195 
L 280.284942 160.322204 
L 280.522627 159.438553 
L 281.036266 158.985456 
L 281.32563 158.348361 
L 281.24587 157.987517 
L 280.979789 157.660089 
L 280.320186 157.142807 
L 280.206047 156.449781 
L 280.020419 155.704118 
L 280.217693 155.269699 
L 280.442712 154.813439 
L 280.628058 154.047796 
L 281.51195 153.096894 
L 281.379067 152.772469 
L 280.326596 151.818336 
L 280.06879 150.947438 
L 279.590327 150.318535 
L 278.798268 149.717935 
L 278.255906 149.421242 
L 276.181622 148.297194 
L 274.083795 146.696245 
L 273.689957 145.857122 
L 273.340439 145.665663 
L 272.799226 145.403233 
L 272.25225 144.340124 
L 271.955343 143.978199 
L 271.73338 143.577615 
L 269.299372 140.635453 
L 266.862841 139.379397 
L 266.42324 139.091041 
L 265.054 137.780915 
L 264.578366 137.207405 
L 264.355686 137.011489 
L 263.791774 136.195805 
L 263.472163 136.06142 
L 260.43641 135.582569 
L 259.996045 135.205776 
L 259.830866 134.564113 
L 259.879799 134.185742 
L 260.252651 133.556853 
L 260.957808 132.650893 
L 261.301915 131.946155 
L 261.288237 130.80965 
L 261.030339 130.132519 
L 260.997421 129.542963 
L 260.569633 126.645833 
L 260.930629 126.042904 
L 261.544477 125.850549 
L 262.082718 125.151578 
L 262.342111 125.078064 
L 262.954662 124.635405 
L 263.446597 124.353332 
L 264.045378 124.199904 
L 265.741076 123.116698 
L 265.930537 122.852814 
L 267.688291 121.255082 
L 267.875275 120.997344 
L 269.289658 119.768833 
L 269.378784 119.552771 
L 269.526268 119.334773 
L 270.183067 117.345297 
L 270.224876 116.701312 
L 270.209796 116.300777 
L 270.577731 115.657585 
L 270.663075 115.050116 
L 270.654553 114.796773 
L 270.819912 113.608912 
L 270.235917 112.701739 
L 270.038442 111.641408 
L 270.198507 111.086645 
L 270.21509 110.945688 
L 270.406818 110.448731 
L 270.636505 109.518884 
L 271.120795 109.360626 
L 271.308955 109.34272 
L 271.602319 109.138232 
L 271.764236 108.807035 
L 271.886279 108.017477 
L 272.659156 107.148887 
L 272.875271 106.790827 
L 273.03875 106.223794 
L 273.553099 105.337849 
L 273.343751 104.630058 
L 272.306553 104.363432 
L 271.944881 102.57823 
L 271.734379 102.268082 
L 272.061605 101.097045 
L 271.863446 100.820491 
L 271.543634 100.798092 
L 271.171958 100.923134 
L 270.653638 101.239195 
L 270.50612 101.714256 
L 270.302528 101.816163 
L 270.140825 101.763835 
L 269.855929 101.656872 
L 269.849308 101.755285 
L 269.867755 101.829694 
L 269.804179 101.83934 
L 269.353184 101.959345 
L 269.358062 101.982949 
L 269.196623 102.169434 
L 267.927777 102.034161 
L 267.932324 102.0683 
L 267.693845 102.922559 
L 267.28489 103.666424 
L 267.337186 103.819714 
L 267.294307 103.836773 
L 265.654591 104.488392 
L 265.793183 105.3876 
L 265.765664 105.687166 
L 265.130691 105.807847 
L 264.22905 105.906866 
L 264.118878 105.850308 
L 263.496344 105.952993 
L 263.054703 105.501391 
L 262.967004 105.593203 
L 262.900884 105.517278 
L 262.786254 105.551018 
L 261.547513 105.139197 
L 261.380843 105.090231 
L 259.776555 105.61009 
L 258.81365 105.524092 
L 259.205225 104.166785 
L 259.883036 103.406185 
L 260.819526 102.433773 
L 261.989011 101.363892 
L 263.317131 99.934146 
L 264.200292 98.551471 
L 264.671501 97.1881 
L 264.889509 96.35081 
L 264.628857 94.952564 
L 264.737047 94.3265 
L 264.442436 94.04637 
L 264.094357 93.61707 
L 263.565936 94.137411 
L 263.548464 94.19709 
L 263.511798 94.230477 
L 263.220608 94.360852 
L 262.186743 94.427724 
L 261.719623 94.188195 
L 260.388439 93.161058 
L 260.212013 93.273382 
L 259.739087 93.170745 
L 258.863805 94.447938 
L 258.389754 94.64451 
L 258.102036 95.002232 
L 258.126625 95.19407 
L 258.095097 95.232398 
L 258.043393 95.167193 
L 257.625954 94.944517 
L 257.493352 94.967163 
L 256.917098 95.107445 
L 256.746843 94.920726 
L 256.561056 93.938201 
L 256.504889 93.962287 
L 254.915769 93.850604 
L 254.648361 93.58373 
L 253.10322 93.901995 
L 252.327879 93.890964 
L 251.140976 94.424189 
L 250.691589 94.02415 
L 250.715509 93.658773 
L 250.935306 93.463394 
L 250.920461 93.301168 
L 250.6826 92.890153 
L 250.70904 92.891476 
L 251.235962 92.581341 
L 251.049322 92.034151 
L 249.451113 90.872057 
L 249.678596 90.024109 
L 249.40655 89.883627 
L 249.358398 89.570681 
L 249.414879 89.443903 
L 249.484828 89.244445 
L 249.545768 88.982393 
L 249.607698 88.81356 
L 248.094148 88.01488 
L 247.289445 87.865049 
L 247.177385 87.844834 
L 247.242573 87.743796 
L 247.246163 87.594854 
L 246.212747 85.858238 
L 246.303888 85.28187 
L 246.335327 85.284681 
L 246.301386 85.149166 
L 246.259136 85.018771 
L 246.221957 85.055714 
L 246.117735 85.108207 
L 245.888522 85.068997 
L 245.519294 85.854049 
L 245.263641 87.171899 
L 245.433178 87.590334 
L 245.441368 88.17466 
L 245.454341 88.169472 
L 245.961998 88.442141 
L 246.048588 88.630706 
L 246.071291 88.700513 
L 246.345298 89.239298 
L 246.416552 89.145026 
L 246.78395 88.966871 
L 247.401548 89.207274 
L 246.259975 90.606651 
L 245.519772 90.864982 
L 245.339791 90.78227 
L 244.64643 90.653639 
L 244.137829 90.478818 
L 243.797681 90.046432 
L 243.674269 90.378786 
L 243.035182 90.332728 
L 242.872811 90.312321 
L 242.732191 90.304356 
L 242.494074 90.496325 
L 242.31327 90.792784 
L 241.353493 91.464169 
L 241.199136 91.512404 
L 240.135271 92.519767 
L 240.163919 92.51624 
L 240.245812 92.690819 
L 240.178151 92.699287 
L 240.074693 92.767082 
L 240.012363 93.001416 
L 239.89715 92.838783 
L 239.567879 92.733797 
L 239.287475 93.237169 
L 239.490873 93.386931 
L 239.468397 93.40572 
L 239.298239 93.791904 
L 239.251602 93.762994 
L 239.078027 93.77448 
L 239.337458 94.46147 
L 239.208231 94.744494 
L 238.759041 95.364261 
L 238.753051 95.34796 
L 238.454787 95.029708 
L 238.145718 95.160607 
L 238.118212 95.224544 
L 238.058926 95.21053 
L 237.809982 95.242519 
L 237.689085 95.36065 
L 237.226705 95.398337 
L 236.665291 95.48346 
L 236.592235 95.576148 
L 236.333925 95.957123 
L 235.908098 95.987238 
L 235.720056 96.230309 
L 235.748754 96.291221 
L 235.65043 96.294404 
L 235.59156 96.366009 
L 235.610229 96.39693 
L 235.713734 96.50173 
L 235.737222 96.488881 
L 236.006095 96.51026 
L 236.001048 96.65987 
L 235.97769 96.80871 
L 235.961053 96.985197 
L 235.892095 97.222749 
L 235.820143 97.356768 
L 235.9785 97.366531 
L 236.04643 97.388936 
L 236.051266 97.448546 
L 235.862951 97.738963 
L 235.63025 98.017247 
L 235.471931 98.466334 
L 234.984185 98.354031 
L 234.763033 98.235962 
L 234.461356 99.064908 
L 234.352382 99.277519 
L 234.443095 99.281577 
L 234.730267 99.439566 
L 234.674415 99.950661 
L 234.486944 100.253706 
L 234.625436 101.082522 
L 234.550579 101.577564 
L 234.100298 101.644477 
L 234.105214 101.531079 
L 233.772597 100.979747 
L 233.767597 101.027411 
L 233.75261 101.207708 
L 233.936748 101.781397 
L 233.848104 101.899969 
L 233.536491 102.388163 
L 233.526176 102.564113 
L 233.519837 102.769393 
L 232.77455 103.473318 
L 232.625336 103.499217 
L 231.990834 103.600669 
L 231.979075 103.526108 
L 231.856015 103.382195 
L 231.842774 103.08052 
L 231.772129 102.994619 
L 231.75571 102.990905 
L 231.489957 102.982273 
L 231.275844 102.994219 
L 231.148704 102.919783 
L 231.08965 102.870528 
L 231.044134 102.911846 
L 230.953626 103.217764 
L 231.016984 103.411772 
L 231.047904 103.411566 
L 231.085443 103.393025 
L 230.908526 103.557876 
L 230.925251 103.582156 
L 231.062903 103.722293 
L 231.235475 103.748977 
L 231.249749 103.803213 
L 231.208842 103.848493 
L 230.829148 103.994293 
L 230.796113 103.946313 
L 230.733746 104.022817 
L 230.595544 104.411364 
L 230.533794 104.595679 
L 230.174662 105.130123 
L 230.091225 105.219097 
L 229.932423 105.410322 
L 229.825858 105.438928 
L 229.845942 105.493578 
L 229.789145 105.682805 
L 229.787176 105.87877 
L 229.637627 106.390719 
L 229.68782 106.408687 
L 229.707429 106.533171 
L 229.449442 106.603268 
L 229.271963 106.679558 
L 229.072783 106.799171 
L 228.946093 106.746705 
L 228.836879 106.48927 
L 228.850098 106.262088 
L 228.722925 106.288916 
L 228.214076 105.239456 
L 228.08579 104.768928 
L 227.672414 104.377908 
L 227.128217 104.443305 
L 226.966736 104.507125 
L 226.994595 104.711929 
L 226.927597 104.705983 
L 226.56504 104.626641 
L 225.32901 104.228049 
L 225.167219 104.247457 
L 224.959064 104.461838 
L 224.358582 104.942398 
L 224.193194 105.2997 
L 223.890879 105.350416 
L 223.273051 105.480473 
L 223.321304 105.550749 
L 223.248593 105.717625 
L 223.075416 105.88991 
L 222.978293 106.265574 
L 222.926358 106.375093 
L 222.994598 106.53054 
L 223.204983 106.499777 
L 223.159379 106.614009 
L 222.987399 106.740759 
L 223.078536 106.806625 
L 223.098065 106.819495 
L 222.774605 107.345417 
L 222.732233 107.702692 
L 222.640168 107.895178 
L 222.64008 108.077363 
L 222.314235 108.611794 
L 221.101006 108.077115 
L 220.276622 106.24857 
L 220.253369 106.353418 
L 220.036376 106.531676 
L 220.031452 106.528576 
L 219.966709 106.52161 
L 219.843645 106.299251 
L 219.782525 106.328491 
L 219.355493 106.420304 
L 219.251808 106.496428 
L 219.067275 106.591879 
L 219.02746 106.516195 
L 219.061511 106.243161 
L 219.042708 106.246537 
L 218.350473 106.897005 
L 218.157049 107.194615 
L 218.062872 107.119723 
L 218.067616 107.108072 
L 218.033364 107.061374 
L 218.015484 107.062166 
L 217.506631 107.022715 
L 217.505103 107.03296 
L 217.414461 106.99486 
L 217.330356 107.015026 
L 217.328643 107.062235 
L 217.093314 107.455116 
L 217.160173 108.168315 
L 217.084918 108.481832 
L 217.145274 108.718578 
L 216.672071 108.796528 
L 216.528256 108.617698 
L 216.329177 108.711495 
L 216.368875 108.829324 
L 216.308455 108.834636 
L 216.202911 108.880576 
L 216.264136 109.063058 
L 216.154473 109.054322 
L 216.107215 109.217912 
L 216.028978 109.592466 
L 216.016636 109.787115 
L 215.969613 109.786495 
L 215.958983 109.749167 
L 215.657878 109.616463 
L 215.587442 109.508721 
L 215.540889 109.534289 
L 215.08976 109.746466 
L 214.862797 109.789906 
L 213.885191 110.566166 
L 213.81271 110.764991 
L 213.53558 110.782311 
L 213.489485 110.757653 
L 213.452084 110.786039 
L 213.469296 110.909558 
L 213.524367 111.127874 
L 213.583795 111.158815 
L 213.512499 111.211067 
L 213.463142 111.462343 
L 212.926963 111.899863 
L 212.971538 111.977958 
L 212.917194 112.020468 
L 212.740948 112.036486 
L 212.7618 112.001039 
L 212.769365 111.898808 
L 212.18325 111.967444 
L 212.009977 112.069984 
L 211.977861 112.249862 
L 211.687663 112.308445 
L 211.399248 112.113775 
L 211.295403 111.964233 
L 211.227986 111.524013 
L 211.097861 111.340085 
L 210.921943 111.354822 
L 210.64059 111.552936 
L 210.392347 111.67042 
L 210.292377 111.595625 
L 210.323456 111.444127 
L 210.542514 111.234327 
L 210.975986 111.083662 
L 211.078722 111.0556 
L 211.015599 110.951034 
L 211.109225 110.778529 
L 211.492177 110.532372 
L 211.850621 110.304797 
L 211.795118 110.281806 
L 211.688943 109.980745 
L 211.703452 109.935548 
L 211.637172 109.89587 
L 210.693377 109.779433 
L 210.007997 110.166251 
L 210.092807 110.22345 
L 210.320135 110.557761 
L 210.250594 110.750371 
L 209.434594 110.63372 
L 209.321106 110.703224 
L 209.296719 110.635711 
L 209.360094 110.542011 
L 209.769767 110.24303 
L 209.655469 110.098711 
L 209.394384 110.066956 
L 209.116137 110.109535 
L 208.94938 110.155634 
L 208.754125 110.212406 
L 208.559849 110.239606 
L 208.519644 110.487658 
L 207.999288 110.711905 
L 207.892211 111.124022 
L 207.888978 111.120853 
L 207.76314 111.109554 
L 207.597339 111.178444 
L 207.230941 110.878024 
L 206.991379 110.647762 
L 206.787347 110.617557 
L 206.568277 110.261399 
L 206.467513 109.941563 
L 206.18781 109.676749 
L 205.881961 109.956045 
L 205.738708 109.946902 
L 205.176761 110.179431 
L 205.156598 110.207865 
L 205.080146 110.067748 
L 204.931625 110.066419 
L 204.814997 110.312128 
L 204.802109 110.275068 
L 204.724116 109.9734 
L 204.802357 109.960516 
L 204.515042 110.098504 
L 204.484652 110.203628 
L 204.462658 110.206728 
L 204.250351 110.307174 
L 204.263029 110.328739 
L 204.27923 110.377856 
L 204.191716 110.409411 
L 203.295372 110.539813 
L 203.126835 110.567537 
L 202.746654 110.491681 
L 202.278824 110.012727 
L 202.050061 109.898653 
L 201.732973 109.75935 
L 201.770899 109.734512 
L 202.267032 109.093986 
L 202.456786 108.071589 
L 202.054431 108.017918 
L 201.910108 108.145999 
L 201.299194 108.206815 
L 200.395869 107.998255 
L 199.467725 107.905223 
L 199.300791 107.888233 
L 199.062141 107.790226 
L 198.564677 107.381644 
L 198.57702 107.366142 
L 198.805615 107.173346 
L 198.603207 107.011609 
L 198.627141 106.994171 
L 198.903532 106.585251 
L 199.01579 106.455834 
L 198.933326 106.397781 
L 198.884187 106.357111 
L 198.848978 106.375059 
L 198.728492 106.439436 
L 198.705994 106.405546 
L 198.579895 106.062815 
L 197.842148 105.972925 
L 197.253153 106.031756 
L 197.032731 105.988992 
L 197.031866 106.074266 
L 196.784517 106.235204 
L 196.552819 106.312224 
L 196.343577 106.460202 
L 196.107051 106.695466 
L 195.916948 106.576356 
L 195.748545 106.426318 
L 194.700179 106.034416 
L 193.130147 105.339868 
L 192.687943 105.332447 
L 191.730425 105.505387 
L 191.632923 105.939324 
L 190.888963 105.928514 
L 190.104835 105.935899 
L 189.643328 106.213942 
L 189.438137 106.320313 
L 189.407503 106.328195 
L 189.404082 106.226316 
L 188.848319 105.323208 
L 188.634962 104.585316 
L 187.367648 104.160791 
L 187.146978 103.784645 
L 187.421652 103.208277 
L 187.180278 102.710755 
L 186.6248 102.6477 
L 186.056883 102.436143 
L 185.825853 102.327299 
L 185.12049 101.79827 
L 183.731048 101.142821 
L 183.644064 100.987664 
L 182.410952 100.994485 
L 182.075102 101.204829 
L 181.790764 101.176787 
L 181.684426 101.213647 
L 181.486485 101.147781 
L 181.537828 100.986493 
L 181.501766 100.870676 
L 181.164657 100.661434 
L 180.962182 100.468246 
L 180.343716 99.09698 
L 180.144411 98.88696 
L 179.908162 99.011203 
L 179.55997 99.214726 
L 178.60238 99.249106 
L 178.47988 99.501821 
L 178.534077 99.875039 
L 177.726486 100.098956 
L 177.260285 99.265021 
L 177.155459 98.834205 
L 177.066291 98.635229 
L 176.615959 98.780947 
L 176.598579 98.705505 
L 176.556178 98.639501 
L 176.548621 98.822424 
L 176.433971 99.251379 
L 176.353913 99.422245 
L 176.349924 99.52063 
L 176.240102 99.508918 
L 175.245401 99.444981 
L 175.257239 99.600827 
L 175.179112 99.870354 
L 175.172983 99.8687 
L 174.104101 99.476605 
L 174.033321 98.307208 
L 173.949023 98.097209 
L 173.947722 98.097209 
L 173.477029 98.067445 
L 173.088645 98.03589 
L 172.584443 97.994517 
L 172.700441 98.118981 
L 172.770398 98.3403 
L 172.683661 98.567606 
L 172.727032 98.694088 
L 172.865863 98.801913 
L 173.051752 99.476378 
L 172.054124 100.03794 
L 171.282881 100.511128 
L 171.37348 100.612793 
L 171.549591 101.571087 
L 171.508827 101.917504 
L 171.643419 102.642374 
L 171.366805 102.897226 
L 170.765383 102.94945 
L 170.472397 103.264449 
L 169.970596 102.977973 
L 169.878154 103.045424 
L 169.746795 103.02882 
L 169.576603 103.08318 
L 169.593102 103.117008 
L 169.564723 103.138298 
L 169.554269 103.207609 
L 168.853982 104.324505 
L 168.803437 104.372182 
L 168.814478 104.430469 
L 168.741263 104.70351 
L 168.686225 104.689593 
L 168.460409 104.818775 
L 168.446765 104.730449 
L 168.226406 104.634406 
L 166.62852 104.499987 
L 166.183855 104.319407 
L 166.065637 104.969523 
L 165.84935 105.311737 
L 165.722735 105.336815 
L 165.723994 105.394069 
L 165.475424 105.542888 
L 165.024756 106.074294 
L 164.952003 106.299175 
L 164.899484 106.400041 
L 164.871987 106.422984 
L 164.813003 106.36449 
L 164.793608 106.364834 
L 164.350161 106.314195 
L 164.149407 106.207541 
L 163.613014 106.199136 
L 162.127755 106.086179 
L 162.466959 106.539551 
L 163.0854 106.736288 
L 163.700411 107.567233 
L 163.50579 107.625506 
L 163.501147 107.798253 
L 163.044749 107.783026 
L 162.901203 107.898037 
L 162.615207 107.929054 
L 162.386871 107.890355 
L 161.953231 107.888873 
L 161.788019 107.805948 
L 160.947678 107.893889 
L 159.461012 108.541815 
L 159.296068 108.591414 
L 159.304267 108.535752 
L 159.25905 108.427541 
L 159.196661 107.577981 
L 158.721531 107.648587 
L 158.71955 107.532708 
L 158.404305 107.406302 
L 158.454687 107.166725 
L 158.190701 106.981232 
L 158.030581 106.727979 
L 157.817942 106.768015 
L 157.717086 106.898879 
L 156.486577 106.763282 
L 156.30372 107.001612 
L 155.437082 107.042282 
L 155.060314 106.896206 
L 154.782689 107.115438 
L 154.668941 107.434743 
L 154.521054 107.696877 
L 154.10191 107.834238 
L 153.034464 108.870834 
L 152.74505 108.8955 
L 152.471169 108.855698 
L 152.166344 108.991467 
L 151.97444 109.114986 
L 151.836007 109.216948 
L 151.98695 109.32841 
L 152.182595 109.640068 
L 152.147297 109.662659 
L 152.073893 110.783931 
L 152.516853 110.970512 
L 152.379226 111.553198 
L 152.586458 111.84336 
L 152.450695 112.191478 
L 152.082659 113.174217 
L 151.91138 113.207454 
L 151.870789 113.060371 
L 151.809882 113.117349 
L 151.974755 114.064999 
L 151.66946 114.256824 
L 151.745223 114.53322 
L 151.232671 114.632487 
L 151.157726 114.911515 
L 150.739229 114.917392 
L 150.100129 114.895792 
L 149.810904 115.1989 
L 149.73677 115.108603 
L 149.676821 114.824194 
L 148.996235 114.659509 
L 148.643673 114.745038 
L 148.590168 114.804062 
L 148.381807 114.14335 
L 148.074917 113.921066 
L 147.908487 113.88218 
L 147.401128 113.984748 
L 147.406997 114.01343 
L 147.359348 114.083698 
L 146.990939 114.05029 
L 146.684875 113.910159 
L 146.314669 113.863626 
L 146.35081 113.922602 
L 146.068827 114.111147 
L 145.660422 114.064972 
L 145.356395 113.906005 
L 145.312978 113.880747 
L 145.196828 114.69774 
L 145.363166 115.251896 
L 145.489277 115.500326 
L 145.563462 115.575969 
L 145.440814 115.627573 
L 145.106523 115.925465 
L 145.086704 115.907627 
L 144.952439 115.78468 
L 144.187913 115.774566 
L 144.217597 115.739159 
L 144.165033 115.670785 
L 143.823894 115.525308 
L 142.776083 115.653237 
L 142.57747 115.595446 
L 142.627369 115.519728 
L 142.653338 115.488076 
L 142.555808 115.447241 
L 142.266759 115.328648 
L 141.251239 115.485686 
L 140.89 115.447199 
L 140.890113 115.412537 
L 140.800626 115.315543 
L 139.889464 115.129844 
M 182.627213 176.160385 
L 182.639992 176.106231 
L 182.733228 176.196824 
L 182.718337 176.222006 
L 182.627213 176.160385 
M 216.384021 163.524537 
L 216.793056 163.218515 
L 216.872287 163.123884 
L 216.913164 163.14352 
L 217.065073 163.224826 
L 217.209992 163.040284 
L 217.409973 162.86565 
L 217.45813 162.605879 
L 217.596143 162.385524 
L 217.843962 162.147793 
L 217.38944 161.557728 
L 217.309428 161.291777 
L 217.405267 160.902472 
L 217.371006 160.230267 
L 217.553662 159.938597 
L 217.804008 159.503544 
L 218.074211 159.363296 
L 219.762567 157.351697 
L 219.59738 157.257969 
L 218.378042 156.698653 
L 217.60294 156.81203 
L 218.049241 154.510421 
L 218.153791 154.128344 
L 218.239772 154.206783 
L 218.45985 154.365289 
L 218.815284 154.288158 
L 218.844515 154.013926 
L 218.91556 153.467149 
L 219.09348 153.02564 
L 218.955975 152.24415 
L 218.203047 152.45982 
L 218.089165 151.972343 
L 218.141394 151.987417 
L 218.382408 151.95578 
L 218.639609 151.828216 
L 218.976949 151.614117 
L 219.404384 151.22661 
L 219.657996 151.242119 
L 220.010503 151.434639 
L 220.451574 151.587364 
L 220.687739 151.753952 
L 221.353077 152.020929 
L 221.3662 151.9597 
L 221.379483 151.89854 
L 221.834219 151.852062 
L 221.832023 151.566881 
L 221.142928 150.720407 
L 221.218431 150.564906 
L 221.399672 150.393626 
L 222.157772 149.150193 
L 222.159707 149.178337 
L 223.40852 149.202831 
L 223.783034 149.051732 
L 223.726451 148.481646 
L 223.680566 148.294431 
L 223.702354 148.299475 
L 224.297429 148.322659 
L 224.597766 148.148796 
L 224.645343 147.471906 
L 224.509882 147.463135 
L 224.546112 146.912769 
L 224.625578 146.934375 
L 225.506918 146.997706 
L 225.640519 147.086576 
L 225.370441 147.356468 
L 225.320559 147.476977 
L 225.611959 148.288596 
L 225.565989 148.51068 
L 225.512392 148.524046 
L 225.547388 148.619731 
L 225.676648 149.067068 
L 225.379119 149.224265 
L 225.731668 149.160397 
L 226.062328 149.252368 
L 227.230021 149.471021 
L 228.080979 149.343126 
L 228.078758 149.320755 
L 228.122901 149.335451 
L 228.203576 149.257838 
L 228.502129 149.037931 
L 228.48828 149.011964 
L 228.507872 148.814304 
L 229.044538 148.400609 
L 229.033926 148.389937 
L 229.033434 148.237019 
L 229.04236 148.383206 
L 229.057254 148.246685 
L 229.050483 148.236468 
L 229.104059 148.111633 
L 229.14044 148.118777 
L 229.188278 147.917507 
L 229.343683 147.788986 
L 229.381076 147.770625 
L 229.437851 147.833404 
L 229.890223 148.129539 
L 230.086233 148.177347 
L 230.197294 148.408457 
L 230.489949 148.654007 
L 230.490902 148.646456 
L 230.737621 148.517824 
L 230.90586 148.482687 
L 230.898161 148.431923 
L 230.94769 148.029652 
L 231.164808 147.808332 
L 231.285689 147.684599 
L 232.185021 147.605436 
L 232.553423 147.385777 
L 232.579443 147.243173 
L 232.414558 147.182151 
L 231.93253 147.004092 
L 231.59954 146.780003 
L 231.691999 146.678111 
L 232.078692 146.398318 
L 232.235311 146.473238 
L 232.638116 145.9287 
L 232.694081 145.988978 
L 232.7117 146.005906 
L 232.804621 145.895319 
L 232.652801 146.245897 
L 232.65118 146.512619 
L 232.672553 146.494926 
L 233.085357 146.275674 
L 233.179844 146.220432 
L 233.160819 146.336097 
L 233.137267 147.124422 
L 233.51647 147.474607 
L 234.361416 147.899305 
L 234.474551 147.863147 
L 234.502909 147.96258 
L 234.583685 148.404888 
L 234.355929 149.089184 
L 233.908171 149.404039 
L 233.786501 149.836529 
L 233.525618 150.751315 
L 233.622674 150.741917 
L 234.129701 151.630673 
L 234.964555 151.681148 
L 235.921607 152.137056 
L 236.420314 152.683282 
L 236.689107 152.934075 
L 236.902845 152.984639 
L 237.036412 153.087923 
L 237.125941 153.196712 
L 237.321947 154.410665 
L 237.335276 154.580201 
L 237.336078 154.580497 
L 239.444497 155.168048 
L 239.387696 155.259054 
L 239.149013 155.395134 
L 238.930581 155.539804 
L 238.986331 155.911692 
L 239.075474 155.896425 
L 239.667119 155.91697 
L 240.028417 155.932982 
L 240.275241 156.047393 
L 240.214926 156.304187 
L 239.100772 157.530955 
L 238.871668 158.387102 
L 239.111343 158.467181 
L 239.037775 158.567296 
L 238.454783 159.528485 
L 238.527927 159.700666 
L 238.540572 159.746483 
L 238.496781 159.801305 
L 238.341094 160.009423 
L 238.449892 160.048557 
L 238.54155 160.020075 
L 238.605827 159.979687 
L 238.74745 160.100664 
L 238.819326 160.298648 
L 238.838638 160.13851 
L 238.922159 160.140735 
L 238.905975 160.037595 
L 239.013695 159.807402 
L 239.099744 159.771706 
L 239.447637 159.587874 
L 239.84993 159.446641 
L 240.157727 159.581474 
L 241.179367 160.128113 
L 241.470675 160.378851 
L 241.947324 160.659485 
L 242.134531 161.097121 
L 242.281985 161.045303 
L 242.202809 160.740239 
L 242.023197 160.172834 
L 242.165358 160.246741 
L 242.641621 160.533781 
L 242.761368 160.616506 
L 243.160071 161.236576 
L 243.435384 161.407366 
L 243.62212 161.446762 
L 244.091347 161.518574 
L 244.350921 161.643636 
L 244.373498 161.828419 
L 244.34501 161.895243 
L 244.452515 161.916091 
L 244.458132 161.917249 
L 244.435022 162.009902 
L 244.384476 162.230174 
L 244.6296 162.279064 
L 244.593156 162.355588 
L 244.474446 162.369271 
L 244.347697 162.349973 
L 244.356131 162.312514 
L 244.425618 162.010378 
L 244.383973 162.011928 
L 244.055861 162.129756 
L 243.89252 162.386413 
L 243.755452 162.594166 
L 243.17772 162.438017 
L 243.019476 162.318025 
L 243.571994 162.609096 
L 243.734852 162.71307 
L 243.796468 162.929008 
L 243.794851 163.03316 
L 243.318365 163.728108 
L 243.391291 163.908551 
L 243.656175 164.414389 
L 243.513427 164.579998 
L 243.323235 164.900963 
L 243.316115 164.898221 
L 243.113426 164.920999 
L 243.008016 164.996228 
L 242.969569 164.976323 
L 242.667847 164.943252 
L 242.200097 165.341404 
L 242.101089 165.427478 
L 241.667612 165.8764 
L 241.481758 165.989019 
L 241.630476 166.030819 
L 241.903622 166.175876 
L 242.013105 166.151631 
L 241.982467 166.261295 
L 241.944961 166.431396 
L 242.037752 166.426277 
L 242.088087 166.448448 
L 242.067869 166.53107 
L 241.855944 166.895737 
L 241.525481 167.130064 
L 241.502853 167.099963 
L 241.227339 166.983995 
L 241.036077 167.098489 
L 240.641522 167.597699 
L 240.420285 168.06213 
L 240.249267 168.282299 
L 240.129449 168.589719 
L 240.011398 168.831735 
L 239.967372 169.099464 
L 239.774334 169.094827 
L 239.579105 168.881286 
L 239.38862 168.541181 
L 239.700464 167.339072 
L 239.84828 167.080079 
L 239.692165 166.912273 
L 239.644768 166.842356 
L 239.655519 166.426987 
L 239.648215 166.428716 
L 239.22457 166.452685 
L 239.060865 166.1618 
L 238.988985 166.202787 
L 238.108157 166.694612 
L 238.147897 166.57143 
L 238.067654 166.189986 
L 237.605685 165.508411 
L 237.557193 165.303483 
L 237.53946 165.309911 
L 236.248309 165.693167 
L 235.155662 165.635672 
L 235.162425 165.219828 
L 235.279162 164.833526 
L 235.13837 164.92764 
L 234.829187 164.995739 
L 234.370665 164.76538 
L 234.182283 164.813946 
L 232.816086 165.156518 
L 232.602725 164.332601 
L 232.135517 163.424828 
L 231.547496 163.656565 
L 230.641245 164.057734 
L 230.240753 164.273211 
L 230.314216 164.662185 
L 230.568055 165.980697 
L 230.230094 166.515003 
L 228.974501 166.344007 
L 228.798831 165.676776 
L 228.223014 165.674489 
L 228.216154 165.259361 
L 227.313866 164.588127 
L 227.084191 164.188295 
L 227.089162 164.06966 
L 227.04124 164.09622 
L 225.775992 164.938747 
L 225.727818 164.855167 
L 225.133172 163.757486 
L 224.975525 163.882783 
L 224.048569 164.586681 
L 223.688643 164.499394 
L 223.403776 164.443133 
L 223.15717 164.507772 
L 223.143401 164.396193 
L 222.959519 163.422824 
L 221.670572 163.633202 
L 221.048126 163.81556 
L 220.870701 163.855265 
L 219.362856 164.781702 
L 219.299633 165.128201 
L 219.46288 165.106374 
L 219.867083 165.044063 
L 219.87626 165.110232 
L 219.784175 165.247242 
L 219.573862 165.275972 
L 218.973233 165.215501 
L 218.428285 165.233118 
L 218.14843 165.54091 
L 218.189492 165.583744 
L 218.266279 165.751847 
L 218.193379 165.740541 
L 218.17819 165.755526 
L 218.096344 165.685492 
L 217.995539 165.594829 
L 218.106856 165.447327 
L 218.295532 165.338655 
L 218.508485 165.153286 
L 218.367324 165.123578 
L 218.347979 165.058022 
L 218.454838 165.039075 
L 218.472902 165.024868 
L 218.336602 164.970233 
L 218.280074 164.920813 
L 218.238668 164.969268 
L 217.913659 165.092856 
L 217.164375 164.223632 
L 217.230407 164.240347 
L 217.368584 164.155128 
L 217.359932 164.108746 
L 217.223825 163.967003 
L 217.171638 163.969022 
L 217.182322 164.064328 
L 217.121609 164.219285 
L 217.057974 164.202446 
L 216.914277 164.037575 
L 216.886418 163.927442 
L 216.791486 163.953582 
L 216.724291 163.975374 
L 216.769564 164.070728 
L 216.816163 164.170223 
L 216.788606 164.196439 
L 216.763816 164.228248 
L 216.461388 164.00006 
L 216.384021 163.524537 
M 233.810107 149.789134 
L 233.894619 149.727333 
L 233.810107 149.789134 
" style="fill:none;stroke:#ffc0cb;"/>
    <path clip-path="url(#pb9a0926e0a)" d="M 179.85048 133.09697 
L 179.857243 133.099946 
L 179.871105 133.106043 
L 179.878347 133.107187 
L 179.886474 133.106098 
L 179.895677 133.101786 
L 179.920991 133.075956 
L 179.923456 133.078133 
L 179.971549 133.033915 
L 180.021263 132.990447 
L 179.983732 132.963074 
L 179.961255 132.990316 
L 179.95346 132.981132 
L 179.925832 133.016401 
L 179.896407 133.054177 
L 179.884787 133.045179 
L 179.881248 133.044745 
L 179.876454 133.050367 
L 179.878145 133.053268 
L 179.866601 133.071064 
L 179.85048 133.09697 
" style="fill:none;stroke:#ffc0cb;"/>
    <path clip-path="url(#pb9a0926e0a)" d="M 181.610841 176.597415 
L 181.62522 176.602403 
L 181.65056 176.611008 
L 181.682188 176.550544 
L 181.661764 176.5422 
L 181.643343 176.53509 
L 181.610841 176.597415 
" style="fill:none;stroke:#ffc0cb;"/>
    <path clip-path="url(#pb9a0926e0a)" d="M 181.718263 176.380973 
L 181.719887 176.392149 
L 181.72775 176.397681 
L 181.738027 176.396207 
L 181.742116 176.402897 
L 181.749799 176.419446 
L 181.754963 176.43997 
L 181.757897 176.446688 
L 181.762931 176.451772 
L 181.771163 176.452303 
L 181.791322 176.460626 
L 181.808191 176.459902 
L 181.814521 176.535166 
L 181.820554 176.569332 
L 181.832388 176.617478 
L 181.871527 176.612421 
L 181.938664 176.618594 
L 181.962022 176.617209 
L 181.985813 176.605855 
L 182.008583 176.600122 
L 182.031249 176.60724 
L 182.054179 176.608859 
L 182.056962 176.633028 
L 182.059162 176.653036 
L 181.889865 176.941034 
L 182.06166 176.653794 
L 182.059746 176.633965 
L 182.114414 176.652319 
L 182.149195 176.663157 
L 182.17215 176.625429 
L 182.201419 176.64144 
L 182.202549 176.636824 
L 182.215151 176.622115 
L 182.229366 176.594935 
L 182.22906 176.565067 
L 182.237213 176.551453 
L 182.22105 176.539258 
L 182.200173 176.527518 
L 182.175794 176.522709 
L 182.111857 176.502943 
L 182.082164 176.511045 
L 182.054574 176.519953 
L 182.048776 176.514517 
L 182.019188 176.508544 
L 181.990347 176.503308 
L 181.95939 176.510632 
L 181.924109 176.504376 
L 181.907132 176.499036 
L 181.887514 176.499243 
L 181.87442 176.495412 
L 181.866339 176.494951 
L 181.861339 176.491168 
L 181.852531 176.482521 
L 181.846146 176.475046 
L 181.838035 176.470327 
L 181.834021 176.467343 
L 181.8273 176.466737 
L 181.81916 176.459861 
L 181.813996 176.456657 
L 181.808107 176.457973 
L 181.799631 176.457071 
L 181.792053 176.458676 
L 181.771818 176.449533 
L 181.762956 176.448031 
L 181.760521 176.444924 
L 181.758892 176.442733 
L 181.751634 176.418523 
L 181.744081 176.400816 
L 181.738682 176.393809 
L 181.727805 176.394725 
L 181.721357 176.389958 
L 181.720307 176.381215 
L 181.724686 176.374201 
L 181.722326 176.372334 
L 181.718263 176.380973 
" style="fill:none;stroke:#ffc0cb;"/>
    <path clip-path="url(#pb9a0926e0a)" d="M 182.299277 176.722636 
L 182.300789 176.723738 
L 182.300713 176.740611 
L 182.338442 176.748989 
L 182.382283 176.732288 
L 182.426804 176.741817 
L 182.483587 176.754756 
L 182.527621 176.750588 
L 182.543792 176.724365 
L 182.511937 176.695635 
L 182.519053 176.658306 
L 182.488289 176.643652 
L 182.450766 176.647689 
L 182.404915 176.629363 
L 182.420645 176.625511 
L 182.429885 176.628357 
L 182.437249 176.627475 
L 182.447446 176.619531 
L 182.461056 176.603257 
L 182.465464 176.599034 
L 182.470749 176.592213 
L 182.473 176.583511 
L 182.485858 176.572763 
L 182.500716 176.570207 
L 182.51137 176.562008 
L 182.517113 176.559418 
L 182.530178 176.558329 
L 182.530262 176.556572 
L 182.516945 176.557578 
L 182.50954 176.560506 
L 182.499716 176.567534 
L 182.485359 176.570331 
L 182.473915 176.578909 
L 182.470917 176.583263 
L 182.468671 176.590835 
L 182.465048 176.59769 
L 182.459347 176.602127 
L 182.445699 176.618525 
L 182.436669 176.62547 
L 182.430884 176.626138 
L 182.422307 176.622666 
L 182.405578 176.62618 
L 182.40091 176.628722 
L 182.38219 176.639904 
L 182.364936 176.650686 
L 182.324995 176.658162 
L 182.316318 176.670295 
L 182.311691 176.680312 
L 182.299277 176.722636 
" style="fill:none;stroke:#ffc0cb;"/>
    <path clip-path="url(#pb9a0926e0a)" d="M 182.561416 176.776321 
L 182.585585 176.785973 
L 182.593444 176.786077 
L 182.608435 176.794207 
L 182.630895 176.785829 
L 182.656256 176.793711 
L 182.685529 176.794076 
L 182.707955 176.772325 
L 182.71055 176.764898 
L 182.712481 176.752289 
L 182.713505 176.745889 
L 182.698233 176.732812 
L 182.668527 176.727665 
L 182.641033 176.725654 
L 182.622772 176.718027 
L 182.598271 176.717414 
L 182.582944 176.71503 
L 182.563549 176.740908 
L 182.561416 176.776321 
" style="fill:none;stroke:#ffc0cb;"/>
    <path clip-path="url(#pb9a0926e0a)" d="M 182.710231 176.850889 
L 182.710369 176.852446 
L 182.718056 176.854285 
L 182.723799 176.858309 
L 182.718421 176.858729 
L 182.711637 176.858474 
L 182.711864 176.860059 
L 182.718787 176.860286 
L 182.724979 176.859776 
L 182.722586 176.862835 
L 182.717015 176.86575 
L 182.718174 176.866825 
L 182.724614 176.86433 
L 182.726809 176.859804 
L 182.734832 176.860713 
L 182.743476 176.865695 
L 182.746461 176.889857 
L 182.748001 176.8955 
L 182.754118 176.902252 
L 182.762111 176.907178 
L 182.769882 176.910065 
L 182.779689 176.910326 
L 182.786716 176.914198 
L 182.79426 176.91601 
L 182.803547 176.913124 
L 182.813437 176.915576 
L 182.821057 176.920537 
L 182.828198 176.929039 
L 182.83502 176.934799 
L 182.842047 176.943893 
L 182.8469 176.953084 
L 182.848869 176.959871 
L 182.856413 176.964797 
L 182.857203 176.963212 
L 182.875192 176.962344 
L 182.885918 176.950252 
L 182.888642 176.928557 
L 182.879595 176.912324 
L 182.863114 176.901859 
L 182.836212 176.88491 
L 182.819986 176.886095 
L 182.803043 176.875085 
L 182.790507 176.867562 
L 182.776129 176.861106 
L 182.744853 176.856414 
L 182.745445 176.864675 
L 182.744181 176.863283 
L 182.735566 176.859039 
L 182.727153 176.858047 
L 182.718056 176.8529 
L 182.710231 176.850889 
" style="fill:none;stroke:#ffc0cb;"/>
   </g>
   <g id="matplotlib.axis_1">
    <g id="xtick_1">
     <g id="line2d_1">
      <defs>
       <path d="M 0 0 
L 0 3.5 
" id="mdc45df01c7" style="stroke:#000000;stroke-width:0.8;"/>
      </defs>
      <g>
       <use style="stroke:#000000;stroke-width:0.8;" x="170.694057" xlink:href="#mdc45df01c7" y="252"/>
      </g>
     </g>
     <g id="text_1">
      <!-- 12 -->
      <defs>
       <path d="M 12.40625 8.296875 
L 28.515625 8.296875 
L 28.515625 63.921875 
L 10.984375 60.40625 
L 10.984375 69.390625 
L 28.421875 72.90625 
L 38.28125 72.90625 
L 38.28125 8.296875 
L 54.390625 8.296875 
L 54.390625 0 
L 12.40625 0 
z
" id="DejaVuSans-49"/>
       <path d="M 19.1875 8.296875 
L 53.609375 8.296875 
L 53.609375 0 
L 7.328125 0 
L 7.328125 8.296875 
Q 12.9375 14.109375 22.625 23.890625 
Q 32.328125 33.6875 34.8125 36.53125 
Q 39.546875 41.84375 41.421875 45.53125 
Q 43.3125 49.21875 43.3125 52.78125 
Q 43.3125 58.59375 39.234375 62.25 
Q 35.15625 65.921875 28.609375 65.921875 
Q 23.96875 65.921875 18.8125 64.3125 
Q 13.671875 62.703125 7.8125 59.421875 
L 7.8125 69.390625 
Q 13.765625 71.78125 18.9375 73 
Q 24.125 74.21875 28.421875 74.21875 
Q 39.75 74.21875 46.484375 68.546875 
Q 53.21875 62.890625 53.21875 53.421875 
Q 53.21875 48.921875 51.53125 44.890625 
Q 49.859375 40.875 45.40625 35.40625 
Q 44.1875 33.984375 37.640625 27.21875 
Q 31.109375 20.453125 19.1875 8.296875 
z
" id="DejaVuSans-50"/>
      </defs>
      <g transform="translate(164.331557 266.598437)scale(0.1 -0.1)">
       <use xlink:href="#DejaVuSans-49"/>
       <use x="63.623047" xlink:href="#DejaVuSans-50"/>
      </g>
     </g>
    </g>
    <g id="xtick_2">
     <g id="line2d_2">
      <g>
       <use style="stroke:#000000;stroke-width:0.8;" x="212.675198" xlink:href="#mdc45df01c7" y="252"/>
      </g>
     </g>
     <g id="text_2">
      <!-- 13 -->
      <defs>
       <path d="M 40.578125 39.3125 
Q 47.65625 37.796875 51.625 33 
Q 55.609375 28.21875 55.609375 21.1875 
Q 55.609375 10.40625 48.1875 4.484375 
Q 40.765625 -1.421875 27.09375 -1.421875 
Q 22.515625 -1.421875 17.65625 -0.515625 
Q 12.796875 0.390625 7.625 2.203125 
L 7.625 11.71875 
Q 11.71875 9.328125 16.59375 8.109375 
Q 21.484375 6.890625 26.8125 6.890625 
Q 36.078125 6.890625 40.9375 10.546875 
Q 45.796875 14.203125 45.796875 21.1875 
Q 45.796875 27.640625 41.28125 31.265625 
Q 36.765625 34.90625 28.71875 34.90625 
L 20.21875 34.90625 
L 20.21875 43.015625 
L 29.109375 43.015625 
Q 36.375 43.015625 40.234375 45.921875 
Q 44.09375 48.828125 44.09375 54.296875 
Q 44.09375 59.90625 40.109375 62.90625 
Q 36.140625 65.921875 28.71875 65.921875 
Q 24.65625 65.921875 20.015625 65.03125 
Q 15.375 64.15625 9.8125 62.3125 
L 9.8125 71.09375 
Q 15.4375 72.65625 20.34375 73.4375 
Q 25.25 74.21875 29.59375 74.21875 
Q 40.828125 74.21875 47.359375 69.109375 
Q 53.90625 64.015625 53.90625 55.328125 
Q 53.90625 49.265625 50.4375 45.09375 
Q 46.96875 40.921875 40.578125 39.3125 
z
" id="DejaVuSans-51"/>
      </defs>
      <g transform="translate(206.312698 266.598437)scale(0.1 -0.1)">
       <use xlink:href="#DejaVuSans-49"/>
       <use x="63.623047" xlink:href="#DejaVuSans-51"/>
      </g>
     </g>
    </g>
    <g id="xtick_3">
     <g id="line2d_3">
      <g>
       <use style="stroke:#000000;stroke-width:0.8;" x="254.656338" xlink:href="#mdc45df01c7" y="252"/>
      </g>
     </g>
     <g id="text_3">
      <!-- 14 -->
      <defs>
       <path d="M 37.796875 64.3125 
L 12.890625 25.390625 
L 37.796875 25.390625 
z
M 35.203125 72.90625 
L 47.609375 72.90625 
L 47.609375 25.390625 
L 58.015625 25.390625 
L 58.015625 17.1875 
L 47.609375 17.1875 
L 47.609375 0 
L 37.796875 0 
L 37.796875 17.1875 
L 4.890625 17.1875 
L 4.890625 26.703125 
z
" id="DejaVuSans-52"/>
      </defs>
      <g transform="translate(248.293838 266.598437)scale(0.1 -0.1)">
       <use xlink:href="#DejaVuSans-49"/>
       <use x="63.623047" xlink:href="#DejaVuSans-52"/>
      </g>
     </g>
    </g>
    <g id="xtick_4">
     <g id="line2d_4">
      <g>
       <use style="stroke:#000000;stroke-width:0.8;" x="296.637478" xlink:href="#mdc45df01c7" y="252"/>
      </g>
     </g>
     <g id="text_4">
      <!-- 15 -->
      <defs>
       <path d="M 10.796875 72.90625 
L 49.515625 72.90625 
L 49.515625 64.59375 
L 19.828125 64.59375 
L 19.828125 46.734375 
Q 21.96875 47.46875 24.109375 47.828125 
Q 26.265625 48.1875 28.421875 48.1875 
Q 40.625 48.1875 47.75 41.5 
Q 54.890625 34.8125 54.890625 23.390625 
Q 54.890625 11.625 47.5625 5.09375 
Q 40.234375 -1.421875 26.90625 -1.421875 
Q 22.3125 -1.421875 17.546875 -0.640625 
Q 12.796875 0.140625 7.71875 1.703125 
L 7.71875 11.625 
Q 12.109375 9.234375 16.796875 8.0625 
Q 21.484375 6.890625 26.703125 6.890625 
Q 35.15625 6.890625 40.078125 11.328125 
Q 45.015625 15.765625 45.015625 23.390625 
Q 45.015625 31 40.078125 35.4375 
Q 35.15625 39.890625 26.703125 39.890625 
Q 22.75 39.890625 18.8125 39.015625 
Q 14.890625 38.140625 10.796875 36.28125 
z
" id="DejaVuSans-53"/>
      </defs>
      <g transform="translate(290.274978 266.598437)scale(0.1 -0.1)">
       <use xlink:href="#DejaVuSans-49"/>
       <use x="63.623047" xlink:href="#DejaVuSans-53"/>
      </g>
     </g>
    </g>
   </g>
   <g id="matplotlib.axis_2">
    <g id="ytick_1">
     <g id="line2d_5">
      <defs>
       <path d="M 0 0 
L -3.5 0 
" id="m9ece0f2472" style="stroke:#000000;stroke-width:0.8;"/>
      </defs>
      <g>
       <use style="stroke:#000000;stroke-width:0.8;" x="131.73841" xlink:href="#m9ece0f2472" y="226.884872"/>
      </g>
     </g>
     <g id="text_5">
      <!-- 51.5 -->
      <defs>
       <path d="M 10.6875 12.40625 
L 21 12.40625 
L 21 0 
L 10.6875 0 
z
" id="DejaVuSans-46"/>
      </defs>
      <g transform="translate(102.472785 230.684091)scale(0.1 -0.1)">
       <use xlink:href="#DejaVuSans-53"/>
       <use x="63.623047" xlink:href="#DejaVuSans-49"/>
       <use x="127.246094" xlink:href="#DejaVuSans-46"/>
       <use x="159.033203" xlink:href="#DejaVuSans-53"/>
      </g>
     </g>
    </g>
    <g id="ytick_2">
     <g id="line2d_6">
      <g>
       <use style="stroke:#000000;stroke-width:0.8;" x="131.73841" xlink:href="#m9ece0f2472" y="192.436147"/>
      </g>
     </g>
     <g id="text_6">
      <!-- 52.0 -->
      <defs>
       <path d="M 31.78125 66.40625 
Q 24.171875 66.40625 20.328125 58.90625 
Q 16.5 51.421875 16.5 36.375 
Q 16.5 21.390625 20.328125 13.890625 
Q 24.171875 6.390625 31.78125 6.390625 
Q 39.453125 6.390625 43.28125 13.890625 
Q 47.125 21.390625 47.125 36.375 
Q 47.125 51.421875 43.28125 58.90625 
Q 39.453125 66.40625 31.78125 66.40625 
z
M 31.78125 74.21875 
Q 44.046875 74.21875 50.515625 64.515625 
Q 56.984375 54.828125 56.984375 36.375 
Q 56.984375 17.96875 50.515625 8.265625 
Q 44.046875 -1.421875 31.78125 -1.421875 
Q 19.53125 -1.421875 13.0625 8.265625 
Q 6.59375 17.96875 6.59375 36.375 
Q 6.59375 54.828125 13.0625 64.515625 
Q 19.53125 74.21875 31.78125 74.21875 
z
" id="DejaVuSans-48"/>
      </defs>
      <g transform="translate(102.472785 196.235365)scale(0.1 -0.1)">
       <use xlink:href="#DejaVuSans-53"/>
       <use x="63.623047" xlink:href="#DejaVuSans-50"/>
       <use x="127.246094" xlink:href="#DejaVuSans-46"/>
       <use x="159.033203" xlink:href="#DejaVuSans-48"/>
      </g>
     </g>
    </g>
    <g id="ytick_3">
     <g id="line2d_7">
      <g>
       <use style="stroke:#000000;stroke-width:0.8;" x="131.73841" xlink:href="#m9ece0f2472" y="157.987421"/>
      </g>
     </g>
     <g id="text_7">
      <!-- 52.5 -->
      <g transform="translate(102.472785 161.78664)scale(0.1 -0.1)">
       <use xlink:href="#DejaVuSans-53"/>
       <use x="63.623047" xlink:href="#DejaVuSans-50"/>
       <use x="127.246094" xlink:href="#DejaVuSans-46"/>
       <use x="159.033203" xlink:href="#DejaVuSans-53"/>
      </g>
     </g>
    </g>
    <g id="ytick_4">
     <g id="line2d_8">
      <g>
       <use style="stroke:#000000;stroke-width:0.8;" x="131.73841" xlink:href="#m9ece0f2472" y="123.538695"/>
      </g>
     </g>
     <g id="text_8">
      <!-- 53.0 -->
      <g transform="translate(102.472785 127.337914)scale(0.1 -0.1)">
       <use xlink:href="#DejaVuSans-53"/>
       <use x="63.623047" xlink:href="#DejaVuSans-51"/>
       <use x="127.246094" xlink:href="#DejaVuSans-46"/>
       <use x="159.033203" xlink:href="#DejaVuSans-48"/>
      </g>
     </g>
    </g>
    <g id="ytick_5">
     <g id="line2d_9">
      <g>
       <use style="stroke:#000000;stroke-width:0.8;" x="131.73841" xlink:href="#m9ece0f2472" y="89.08997"/>
      </g>
     </g>
     <g id="text_9">
      <!-- 53.5 -->
      <g transform="translate(102.472785 92.889188)scale(0.1 -0.1)">
       <use xlink:href="#DejaVuSans-53"/>
       <use x="63.623047" xlink:href="#DejaVuSans-51"/>
       <use x="127.246094" xlink:href="#DejaVuSans-46"/>
       <use x="159.033203" xlink:href="#DejaVuSans-53"/>
      </g>
     </g>
    </g>
    <g id="ytick_6">
     <g id="line2d_10">
      <g>
       <use style="stroke:#000000;stroke-width:0.8;" x="131.73841" xlink:href="#m9ece0f2472" y="54.641244"/>
      </g>
     </g>
     <g id="text_10">
      <!-- 54.0 -->
      <g transform="translate(102.472785 58.440463)scale(0.1 -0.1)">
       <use xlink:href="#DejaVuSans-53"/>
       <use x="63.623047" xlink:href="#DejaVuSans-52"/>
       <use x="127.246094" xlink:href="#DejaVuSans-46"/>
       <use x="159.033203" xlink:href="#DejaVuSans-48"/>
      </g>
     </g>
    </g>
   </g>
   <g id="patch_3">
    <path d="M 131.73841 252 
L 131.73841 34.56 
" style="fill:none;stroke:#000000;stroke-linecap:square;stroke-linejoin:miter;stroke-width:0.8;"/>
   </g>
   <g id="patch_4">
    <path d="M 311.06159 252 
L 311.06159 34.56 
" style="fill:none;stroke:#000000;stroke-linecap:square;stroke-linejoin:miter;stroke-width:0.8;"/>
   </g>
   <g id="patch_5">
    <path d="M 131.73841 252 
L 311.06159 252 
" style="fill:none;stroke:#000000;stroke-linecap:square;stroke-linejoin:miter;stroke-width:0.8;"/>
   </g>
   <g id="patch_6">
    <path d="M 131.73841 34.56 
L 311.06159 34.56 
" style="fill:none;stroke:#000000;stroke-linecap:square;stroke-linejoin:miter;stroke-width:0.8;"/>
   </g>
  </g>
 </g>
 <defs>
  <clipPath id="pb9a0926e0a">
   <rect height="217.44" width="179.32318" x="131.73841" y="34.56"/>
  </clipPath>
 </defs>
</svg>
