<?xml version="1.0" encoding="utf-8" standalone="no"?>
<!DOCTYPE svg PUBLIC "-//W3C//DTD SVG 1.1//EN"
  "http://www.w3.org/Graphics/SVG/1.1/DTD/svg11.dtd">
<!-- Created with matplotlib (https://matplotlib.org/) -->
<svg height="288pt" version="1.1" viewBox="0 0 432 288" width="432pt" xmlns="http://www.w3.org/2000/svg" xmlns:xlink="http://www.w3.org/1999/xlink">
 <defs>
  <style type="text/css">
*{stroke-linecap:butt;stroke-linejoin:round;}
  </style>
 </defs>
 <g id="figure_1">
  <g id="patch_1">
   <path d="M 0 288 
L 432 288 
L 432 0 
L 0 0 
z
" style="fill:#ffffff;"/>
  </g>
  <g id="axes_1">
   <g id="patch_2">
    <path d="M 112.571545 252 
L 330.228455 252 
L 330.228455 34.56 
L 112.571545 34.56 
z
" style="fill:#ffffff;"/>
   </g>
   <g id="PatchCollection_1">
    <path clip-path="url(#p9432212a3a)" d="M 251.259059 113.081579 
L 308.116981 112.552711 
L 308.834194 110.434219 
L 312.199632 100.550745 
L 315.579626 90.665256 
L 318.986089 80.784576 
L 320.265393 77.107121 
L 320.334959 44.443636 
L 249.775623 45.108211 
L 251.259059 113.081579 
" style="fill:none;stroke:#0000ff;stroke-opacity:0.2;"/>
    <path clip-path="url(#p9432212a3a)" d="M 193.542899 238.731565 
L 259.678628 236.800604 
L 258.475704 168.800574 
L 190.880765 170.800746 
L 193.542899 238.731565 
" style="fill:none;stroke:#0000ff;stroke-opacity:0.2;"/>
    <path clip-path="url(#p9432212a3a)" d="M 191.124125 176.850794 
L 258.585674 174.85691 
L 257.317737 106.868024 
L 188.318349 108.933963 
L 191.124125 176.850794 
" style="fill:none;stroke:#0000ff;stroke-opacity:0.2;"/>
    <path clip-path="url(#p9432212a3a)" d="M 252.392956 180.345697 
L 256.723347 112.554928 
L 187.8935 108.932927 
L 185.088283 176.849794 
L 252.392956 180.345697 
" style="fill:none;stroke:#0000ff;stroke-opacity:0.2;"/>
    <path clip-path="url(#p9432212a3a)" d="M 248.65928 242.116364 
L 252.768583 174.30665 
L 185.331594 170.799742 
L 182.66999 238.730596 
L 248.65928 242.116364 
" style="fill:none;stroke:#0000ff;stroke-opacity:0.2;"/>
    <path clip-path="url(#p9432212a3a)" d="M 256.32491 118.629302 
L 260.892383 50.858026 
L 190.594642 47.116127 
L 187.635374 115.018834 
L 256.32491 118.629302 
" style="fill:none;stroke:#0000ff;stroke-opacity:0.2;"/>
    <path clip-path="url(#p9432212a3a)" d="M 252.535763 174.97412 
L 287.506684 174.652648 
L 289.08976 169.788106 
L 292.339187 159.890906 
L 295.600546 149.99336 
L 298.873059 140.096234 
L 302.167458 130.201238 
L 305.488547 120.316536 
L 308.834194 110.434219 
L 310.194459 106.439449 
L 251.12967 106.989471 
L 252.535763 174.97412 
" style="fill:none;stroke:#0000ff;stroke-opacity:0.2;"/>
    <path clip-path="url(#p9432212a3a)" d="M 191.127625 177.101914 
L 194.070142 109.194151 
L 125.082137 106.988952 
L 123.676606 174.973619 
L 191.127625 177.101914 
" style="fill:none;stroke:#0000ff;stroke-opacity:0.2;"/>
    <path clip-path="url(#p9432212a3a)" d="M 193.799384 115.279226 
L 196.903457 47.386009 
L 132.752578 45.311911 
L 132.12963 47.536009 
L 129.352322 57.547871 
L 126.585281 67.562076 
L 125.890353 70.103697 
L 124.952799 113.081061 
L 193.799384 115.279226 
" style="fill:none;stroke:#0000ff;stroke-opacity:0.2;"/>
    <path clip-path="url(#p9432212a3a)" d="M 188.590941 238.974766 
L 191.382846 171.052657 
L 123.79851 168.91765 
L 122.465041 236.913627 
L 188.590941 238.974766 
" style="fill:none;stroke:#0000ff;stroke-opacity:0.2;"/>
    <path clip-path="url(#p9432212a3a)" d="M 188.576527 115.019867 
L 257.434413 112.960519 
L 256.096724 44.982732 
L 185.616669 47.117198 
L 188.576527 115.019867 
" style="fill:none;stroke:#0000ff;stroke-opacity:0.2;"/>
    <path clip-path="url(#p9432212a3a)" d="M 253.747812 236.914112 
L 267.599452 236.788324 
L 269.965017 229.275464 
L 273.098436 219.354064 
L 276.264895 209.438844 
L 279.449845 199.525454 
L 282.65147 189.609686 
L 285.864996 179.697295 
L 289.08976 169.788106 
L 289.487403 168.576954 
L 252.41381 168.918153 
L 253.747812 236.914112 
" style="fill:none;stroke:#0000ff;stroke-opacity:0.2;"/>
   </g>
   <g id="PatchCollection_2">
    <path clip-path="url(#p9432212a3a)" d="M 157.313886 115.129844 
L 157.449456 115.62173 
L 157.420267 116.52674 
L 157.888289 117.193502 
L 158.588132 117.837224 
L 159.369065 118.442585 
L 160.125909 119.568521 
L 160.514256 119.786947 
L 161.030884 119.742832 
L 163.433041 118.461628 
L 164.176934 118.344888 
L 164.713789 118.143915 
L 165.282134 118.212233 
L 165.710589 118.510235 
L 166.904302 119.830972 
L 167.23018 120.100437 
L 167.74379 120.307584 
L 168.297731 120.287059 
L 169.238079 119.955718 
L 169.354308 120.060855 
L 169.928783 120.751676 
L 170.777843 121.106533 
L 171.232943 121.071519 
L 172.290423 120.666243 
L 172.751578 120.743471 
L 173.060345 121.019915 
L 173.057889 121.297613 
L 172.688379 121.748595 
L 172.40907 122.189435 
L 172.422962 122.639646 
L 172.712539 122.995673 
L 173.192581 123.177115 
L 173.56767 123.137002 
L 174.394333 122.898376 
L 174.661829 123.108224 
L 174.873741 123.670041 
L 174.86453 124.466496 
L 175.052425 124.863173 
L 175.379265 125.043133 
L 175.703654 125.065587 
L 177.078309 124.332704 
L 177.562087 124.452523 
L 177.988481 124.656143 
L 178.422151 125.121408 
L 179.123001 126.211062 
L 179.451944 126.339618 
L 180.199351 126.44623 
L 181.071018 126.498392 
L 181.503046 126.74118 
L 181.749945 127.034786 
L 181.740462 127.536236 
L 181.497013 127.883713 
L 180.768678 128.738923 
L 180.709287 129.075859 
L 180.953068 129.576027 
L 181.251356 129.760273 
L 181.784378 129.79929 
L 182.790406 129.834028 
L 183.064618 130.12246 
L 183.54325 130.728303 
L 184.033871 130.941575 
L 184.947221 131.008309 
L 185.654645 131.151657 
L 186.033613 131.382064 
L 186.502991 131.823476 
L 186.477727 131.700859 
L 186.838454 131.866558 
L 187.596869 132.023658 
L 187.57689 131.967444 
L 187.942991 131.666631 
L 188.367441 131.623205 
L 188.487994 131.302494 
L 188.507633 131.307455 
L 189.186325 131.151023 
L 189.324728 131.250428 
L 190.152571 131.331369 
L 190.160124 131.376793 
L 190.21289 131.338865 
L 190.513664 131.226838 
L 190.959739 131.384758 
L 190.907795 131.543766 
L 191.014557 131.538137 
L 191.428151 131.484073 
L 191.555161 131.901454 
L 191.612583 132.028115 
L 192.134845 131.981747 
L 192.533187 132.013447 
L 192.853932 132.094312 
L 193.091621 131.27242 
L 193.384863 130.819013 
L 193.384179 130.822554 
L 193.522633 130.871299 
L 193.173862 131.876121 
L 193.222564 132.173062 
L 193.713865 132.787909 
L 193.322021 133.609732 
L 193.488573 133.589132 
L 194.028237 133.350554 
L 195.366616 132.858874 
L 195.364689 132.85372 
L 196.11195 132.117689 
L 196.359202 131.953609 
L 196.41096 132.045154 
L 196.627121 132.631994 
L 196.872186 132.775811 
L 196.870566 132.841009 
L 196.904436 132.882602 
L 196.935964 133.037856 
L 196.953982 133.031786 
L 197.161633 132.987044 
L 197.353886 132.796887 
L 197.677242 132.981952 
L 197.950287 133.317552 
L 197.913667 133.436228 
L 197.856081 133.823107 
L 197.984988 134.08591 
L 198.10568 134.350469 
L 198.549694 136.346242 
L 198.945282 136.979589 
L 198.717379 137.065904 
L 198.858927 137.419065 
L 198.524576 137.614086 
L 198.49223 138.054458 
L 198.191187 138.165376 
L 197.356065 138.023434 
L 197.50184 138.217394 
L 197.413033 139.107866 
L 197.041013 139.243167 
L 197.151499 139.818819 
L 196.975413 139.794353 
L 196.780734 139.926002 
L 196.76021 140.040296 
L 196.949818 140.585413 
L 197.296107 140.668765 
L 197.343542 140.911601 
L 197.32109 141.283192 
L 197.411509 141.507908 
L 196.562747 142.261385 
L 196.59734 142.256631 
L 196.77251 142.381501 
L 196.657864 142.518517 
L 196.774215 142.490386 
L 196.55179 142.698608 
L 196.549964 142.691243 
L 196.424243 142.806302 
L 196.480401 143.022047 
L 196.804529 142.884059 
L 196.9603 143.119799 
L 196.783207 143.435129 
L 197.005762 143.585277 
L 197.238807 143.662855 
L 197.365196 143.806348 
L 197.523947 144.03258 
L 197.385263 144.105673 
L 197.24696 144.348509 
L 197.423008 144.964314 
L 197.61945 145.017152 
L 197.882886 144.981945 
L 197.874742 145.059724 
L 197.701095 145.281546 
L 197.67243 145.445577 
L 197.896744 145.497856 
L 197.995177 145.635293 
L 198.096167 146.037316 
L 198.153891 146.281613 
L 197.987763 147.205135 
L 198.053073 148.251632 
L 197.823067 148.346532 
L 197.819377 149.045682 
L 198.062595 149.045586 
L 197.86533 149.148009 
L 196.962391 149.406326 
L 196.778795 149.551617 
L 196.514654 149.809755 
L 196.161517 149.716413 
L 195.126778 149.205483 
L 195.160099 149.991107 
L 195.256382 149.952256 
L 195.478643 149.887961 
L 195.400734 149.968832 
L 195.262554 150.473589 
L 195.327524 150.626817 
L 195.492694 150.631398 
L 195.399059 151.407976 
L 195.590615 152.751111 
L 195.738888 152.805092 
L 195.689502 152.865805 
L 194.693365 154.131775 
L 194.637261 154.402693 
L 194.327579 155.257029 
L 194.134201 155.485961 
L 194.126338 156.05391 
L 194.248545 155.945645 
L 194.664381 155.876493 
L 194.796538 155.5998 
L 195.132899 155.438346 
L 195.408824 155.318265 
L 195.658062 155.584946 
L 195.674594 155.66032 
L 195.760706 155.655421 
L 196.042005 155.767132 
L 195.999503 155.839653 
L 195.176564 157.124639 
L 195.341344 157.60608 
L 195.812683 158.150212 
L 195.871267 158.282192 
L 195.938706 158.230436 
L 196.083008 158.061127 
L 196.873126 157.971189 
L 197.028478 157.74061 
L 197.039027 157.782837 
L 197.391354 157.966242 
L 197.428554 157.971519 
L 197.504304 157.755891 
L 197.674718 157.538396 
L 197.559757 157.111348 
L 197.888277 156.711723 
L 197.997222 156.340124 
L 198.308231 156.475501 
L 198.457587 156.636025 
L 198.491495 156.698081 
L 198.926147 156.721664 
L 198.954774 156.852315 
L 198.959295 157.072394 
L 198.943447 157.234875 
L 199.002259 157.616973 
L 199.096851 157.751254 
L 199.312235 157.90546 
L 199.444522 157.943258 
L 199.393548 157.987752 
L 199.120776 158.313182 
L 199.211929 158.337785 
L 199.487947 158.541315 
L 199.530839 158.848556 
L 199.561217 158.840061 
L 200.011091 158.6858 
L 200.156278 158.49999 
L 200.50282 158.443997 
L 200.533546 158.310212 
L 200.712776 158.29788 
L 201.171609 158.616138 
L 201.84832 158.236892 
L 201.981295 158.24323 
L 201.977185 158.327072 
L 201.938138 158.506467 
L 201.826078 158.593815 
L 201.797829 158.575695 
L 201.719967 158.549934 
L 201.09933 158.95253 
L 201.17443 159.498686 
L 201.293892 159.579359 
L 201.484247 159.658232 
L 201.792174 159.486347 
L 201.910708 159.405951 
L 201.93287 159.430134 
L 202.005279 159.48428 
L 201.960535 159.550208 
L 201.769723 159.96072 
L 201.702989 160.523205 
L 201.325932 160.76755 
L 201.383177 161.274084 
L 201.033785 161.302711 
L 200.886859 161.399801 
L 200.940998 161.756904 
L 201.035569 161.800585 
L 200.974197 161.920962 
L 200.805433 162.258794 
L 200.712789 162.587394 
L 200.258679 162.763799 
L 200.344261 162.890336 
L 200.598722 163.230455 
L 200.470062 163.259716 
L 200.132542 163.467056 
L 199.964336 163.580296 
L 199.646463 163.772444 
L 199.775979 164.096448 
L 200.344161 164.335549 
L 200.560913 164.337589 
L 200.684095 164.248739 
L 200.733351 164.324622 
L 200.781025 164.784602 
L 200.654405 165.277274 
L 200.487912 165.528144 
L 200.413778 165.883641 
L 200.577996 166.230105 
L 200.988025 166.412622 
L 200.903614 166.498771 
L 200.725383 166.867172 
L 200.262495 166.943401 
L 200.050813 167.091103 
L 200.122853 167.438753 
L 200.645673 168.105191 
L 200.719564 168.369275 
L 201.052445 168.691866 
L 200.60488 169.469312 
L 200.251147 170.215458 
L 199.995318 170.410644 
L 199.788246 170.865664 
L 199.419434 171.689023 
L 199.17227 172.180902 
L 199.077993 172.441713 
L 199.076998 172.441059 
L 198.643223 173.673648 
L 198.678655 174.628429 
L 198.676762 174.628023 
L 198.427621 175.192747 
L 198.421072 175.221209 
L 198.998829 175.408762 
L 199.128752 175.443665 
L 198.947885 175.677117 
L 199.035184 175.715155 
L 199.250783 175.741226 
L 199.266668 175.67855 
L 199.489118 175.769302 
L 199.369371 175.80734 
L 199.4678 175.873123 
L 199.651518 176.148121 
L 199.504664 176.173496 
L 199.109726 176.207896 
L 199.70512 176.248918 
L 200.116556 176.400361 
L 200.194981 176.592165 
L 200.592777 176.665031 
L 200.429248 176.806546 
L 200.042564 177.301898 
L 199.759389 177.509231 
L 199.17358 177.551121 
L 198.980903 177.557487 
L 198.45833 178.064614 
L 198.52241 178.201465 
L 198.534135 178.197482 
L 198.698135 178.48258 
L 198.370766 178.894442 
L 198.279566 179.069821 
L 198.385648 179.612223 
L 198.5116 179.779382 
L 198.424896 179.823428 
L 198.187715 179.865545 
L 197.700931 179.604851 
L 197.188228 180.683213 
L 197.411052 181.011737 
L 197.928612 181.219759 
L 197.845414 181.765109 
L 197.859914 181.766129 
L 198.77915 183.108196 
L 199.244834 183.439269 
L 199.360089 183.804295 
L 199.440571 184.397089 
L 199.570885 184.92897 
L 199.971624 185.256701 
L 200.156312 185.332613 
L 201.536719 186.360942 
L 201.776288 187.222986 
L 202.16364 187.933443 
L 202.642603 188.28143 
L 202.769037 188.413762 
L 203.221292 189.227055 
L 204.372255 189.435277 
L 204.470772 189.432507 
L 204.963241 190.081879 
L 205.397561 190.508162 
L 205.830113 190.721027 
L 205.945881 190.977739 
L 206.258598 191.184652 
L 206.739085 191.285566 
L 207.019771 191.237 
L 207.08642 190.778605 
L 207.11597 190.645095 
L 207.564757 190.040872 
L 208.299981 190.15048 
L 208.375468 190.768828 
L 208.490773 191.259006 
L 208.667333 191.395299 
L 209.186447 191.879379 
L 209.8883 192.051575 
L 210.612752 192.234394 
L 210.631757 192.464388 
L 210.791948 193.204994 
L 210.759451 193.427753 
L 210.863908 193.477201 
L 211.653947 193.551906 
L 213.824489 193.667158 
L 213.945865 193.653633 
L 213.893788 193.00792 
L 214.985734 192.838101 
L 215.18805 192.731937 
L 215.348044 191.876548 
L 215.64174 191.551297 
L 216.269391 191.575748 
L 216.436909 191.767641 
L 216.63315 192.093616 
L 216.840566 192.225486 
L 217.822215 192.402022 
L 217.995072 192.45386 
L 217.944242 192.553479 
L 218.050101 192.697454 
L 218.985265 193.246615 
L 219.014089 193.195321 
L 219.240892 193.171606 
L 219.597555 193.316408 
L 219.913879 193.474094 
L 220.065813 193.709606 
L 220.31291 193.853656 
L 220.592794 193.913942 
L 220.726814 194.102769 
L 220.700782 194.852029 
L 221.651835 195.044301 
L 222.668698 194.948396 
L 223.094341 194.745961 
L 223.564206 194.669692 
L 223.565592 194.675203 
L 223.903645 196.415381 
L 223.990277 196.917092 
L 225.196408 196.97263 
L 225.431968 196.926324 
L 225.433811 196.960029 
L 225.556283 197.372084 
L 225.904411 197.395537 
L 226.528625 197.173032 
L 226.720932 196.613475 
L 227.018734 196.700954 
L 227.78167 196.861271 
L 228.43875 196.994491 
L 228.412629 197.098093 
L 228.264369 197.760314 
L 228.349003 197.772688 
L 229.11049 197.986821 
L 228.968892 199.25707 
L 229.015361 199.232391 
L 229.539617 199.049158 
L 230.164666 199.108389 
L 230.726218 199.2195 
L 231.019738 199.557628 
L 231.019839 199.391765 
L 231.051555 199.100583 
L 231.128981 199.129754 
L 232.019103 199.400046 
L 232.124136 199.895591 
L 231.671012 199.957392 
L 231.676906 200.687794 
L 231.673619 200.687326 
L 231.229283 200.631533 
L 231.334945 200.839961 
L 231.549343 201.075439 
L 231.857833 201.365614 
L 232.797089 201.470132 
L 233.413708 201.572417 
L 233.507305 201.473997 
L 233.689915 201.137268 
L 234.359585 201.136124 
L 234.796563 201.067909 
L 234.870882 201.057409 
L 234.949252 200.935109 
L 235.093831 200.846576 
L 235.086522 200.48793 
L 235.200253 200.490355 
L 235.65611 200.533375 
L 235.647508 200.7314 
L 235.92518 200.732392 
L 235.977652 200.965093 
L 236.111685 201.069693 
L 236.175337 201.210085 
L 236.375767 201.229067 
L 236.44371 201.993546 
L 236.399566 202.115894 
L 235.284808 202.414468 
L 235.442724 203.043254 
L 235.722113 203.707935 
L 235.864 204.019627 
L 235.936216 204.089344 
L 236.191483 204.859142 
L 236.383677 204.890677 
L 236.322745 205.040866 
L 236.594821 205.308595 
L 236.842778 206.171639 
L 236.758707 206.400516 
L 236.879696 206.811731 
L 236.816448 207.043419 
L 237.258606 207.10367 
L 237.211906 207.400852 
L 237.116965 207.382705 
L 236.794193 207.399247 
L 236.7917 207.421928 
L 236.865964 207.589342 
L 236.781515 208.00119 
L 236.284127 208.521132 
L 236.453844 208.580514 
L 236.606626 208.71988 
L 236.548578 208.699707 
L 236.374743 209.017593 
L 236.467588 209.067261 
L 236.972193 209.434257 
L 236.909394 209.623794 
L 236.647654 209.815708 
L 236.73704 209.971857 
L 236.72814 210.002082 
L 236.653796 209.928741 
L 236.628712 209.936134 
L 236.51038 210.06307 
L 236.626424 210.10795 
L 237.12877 210.421013 
L 237.147931 210.624867 
L 237.1171 210.656601 
L 237.211461 210.668458 
L 237.217485 210.687047 
L 237.382509 210.783152 
L 237.516962 210.838821 
L 237.945136 212.024188 
L 237.937919 212.024188 
L 237.470325 211.885897 
L 237.450123 211.855121 
L 237.228631 211.874074 
L 237.130807 211.861494 
L 237.231431 212.564434 
L 237.153976 212.514373 
L 236.686398 212.285991 
L 236.589859 212.504093 
L 236.838949 213.173494 
L 236.86057 213.44526 
L 236.761213 213.451054 
L 236.66673 213.466825 
L 236.780524 213.547772 
L 236.915892 213.676046 
L 236.748291 213.808522 
L 235.232256 214.870066 
L 232.235856 216.716201 
L 233.351664 218.546717 
L 233.299864 218.635457 
L 233.532506 218.838649 
L 233.805942 219.460848 
L 233.98704 219.534878 
L 234.060146 219.599421 
L 234.378939 219.261252 
L 234.513127 219.332685 
L 234.45644 219.166821 
L 234.436688 219.175454 
L 234.275762 219.232715 
L 234.349224 218.817132 
L 234.585381 219.19498 
L 234.764309 219.022715 
L 234.746639 218.976196 
L 234.92149 218.913678 
L 234.953891 218.770234 
L 235.159855 218.602241 
L 235.196387 218.786742 
L 235.506111 219.2129 
L 235.962434 219.817434 
L 236.134451 220.091825 
L 236.136089 220.175108 
L 236.614224 220.046897 
L 236.885431 220.542834 
L 236.577755 220.762045 
L 236.583427 221.055307 
L 236.351338 221.462415 
L 236.056824 222.111326 
L 236.208607 222.335009 
L 236.26872 222.498206 
L 236.727712 222.459623 
L 236.96624 222.850816 
L 237.88988 222.889819 
L 238.184176 224.348977 
L 238.70559 225.189678 
L 238.833444 225.212614 
L 238.80789 225.867594 
L 238.792487 226.419325 
L 238.791975 226.550616 
L 238.581738 226.604515 
L 238.605931 227.13424 
L 238.376559 227.363317 
L 238.445102 227.398303 
L 238.561012 227.447337 
L 238.239025 227.695499 
L 238.144882 227.669904 
L 237.932609 227.417753 
L 237.75138 227.44144 
L 237.809343 227.492844 
L 237.947869 227.81516 
L 237.913117 228.07274 
L 237.746363 228.735251 
L 237.882575 229.091685 
L 238.263924 229.471193 
L 238.594185 229.694049 
L 238.652871 229.998128 
L 238.534925 230.462035 
L 238.144105 231.094651 
L 238.155104 231.215277 
L 238.076948 231.155067 
L 237.88017 231.143499 
L 237.437508 231.575101 
L 237.483347 231.942007 
L 237.940346 232.062984 
L 238.035105 231.86684 
L 237.986412 231.509372 
L 238.201825 231.28837 
L 238.619521 231.682553 
L 238.652686 232.021901 
L 238.581717 232.63557 
L 239.31747 234.128674 
L 240.203813 234.159182 
L 240.482703 234.204303 
L 240.406763 234.173747 
L 240.630678 234.203091 
L 240.636051 234.298121 
L 240.925457 234.37767 
L 241.155593 234.69158 
L 241.168485 234.824098 
L 241.379373 234.836692 
L 241.447391 234.400799 
L 241.379273 234.411126 
L 241.178066 234.400509 
L 241.168972 234.147552 
L 240.985061 234.008235 
L 241.023592 233.675805 
L 241.058789 233.703997 
L 241.220958 233.737137 
L 242.125198 233.823073 
L 242.123502 233.785262 
L 242.090395 233.032054 
L 243.013128 232.59778 
L 243.166385 232.411902 
L 243.170847 232.235441 
L 243.896995 231.916591 
L 243.844821 231.806569 
L 243.64429 231.277078 
L 243.568891 231.198962 
L 243.651825 231.208525 
L 244.091502 231.20643 
L 244.090478 231.294089 
L 244.290014 231.770039 
L 245.264522 231.515174 
L 245.867749 232.008824 
L 245.997538 232.031436 
L 246.166613 231.896576 
L 246.155816 231.878938 
L 245.846662 231.098544 
L 246.045036 231.279861 
L 246.158687 231.227299 
L 246.437757 230.673068 
L 246.497248 230.421344 
L 246.912517 230.138306 
L 246.980934 230.044544 
L 247.001173 230.062388 
L 247.210298 230.434696 
L 247.152171 230.632232 
L 247.372782 230.962313 
L 247.403873 231.055958 
L 247.731309 231.108734 
L 247.763878 231.269203 
L 247.896072 231.451623 
L 248.030475 231.437223 
L 248.034325 231.492279 
L 248.068984 231.646678 
L 248.044442 231.66526 
L 248.051621 231.714101 
L 248.107603 231.738615 
L 248.118753 231.907992 
L 247.811178 232.288623 
L 247.941446 232.278654 
L 248.138123 232.194909 
L 248.28368 231.877664 
L 248.351517 231.870436 
L 248.365803 231.945555 
L 248.745078 231.936998 
L 248.807693 231.98163 
L 248.724742 231.791122 
L 248.824628 231.648924 
L 248.852629 231.726654 
L 248.94558 231.820493 
L 249.112807 232.242848 
L 249.538631 232.15911 
L 249.598861 231.90153 
L 249.631476 231.944046 
L 250.076136 232.498678 
L 250.021729 232.467336 
L 249.643487 232.264509 
L 249.643781 232.352553 
L 249.557232 232.706783 
L 249.526968 232.701546 
L 249.630187 232.9583 
L 249.952556 233.082639 
L 250.199078 233.072924 
L 250.79508 233.300803 
L 250.928399 233.560167 
L 251.509288 233.50684 
L 251.976769 233.599136 
L 252.146902 235.08114 
L 252.204248 235.071757 
L 252.689475 235.104221 
L 252.730028 235.478837 
L 252.875972 235.882507 
L 253.024984 235.894812 
L 253.262202 235.205032 
L 253.511625 235.172223 
L 254.042838 234.762696 
L 254.760979 234.842769 
L 254.869568 234.860882 
L 254.770509 235.016232 
L 254.952434 235.330852 
L 254.916881 235.504591 
L 254.99819 235.513472 
L 255.100691 235.540824 
L 255.095783 235.890368 
L 255.143931 235.893262 
L 255.408581 235.902488 
L 256.19775 235.820775 
L 257.14804 235.92151 
L 257.44852 235.887509 
L 257.966366 235.83308 
L 258.185511 235.443093 
L 258.288101 235.550835 
L 258.764645 235.997917 
L 259.113328 235.566874 
L 259.677227 236.100141 
L 260.117126 236.284138 
L 260.579897 236.229709 
L 260.695161 236.232871 
L 261.318568 236.394532 
L 261.654434 236.072299 
L 261.75238 235.808939 
L 261.939872 235.731422 
L 262.390997 235.868259 
L 262.372811 235.907483 
L 262.121722 236.153488 
L 262.076349 236.273838 
L 262.144979 236.595003 
L 262.208446 236.490155 
L 262.25688 236.34824 
L 262.296002 236.36718 
L 262.681251 236.473613 
L 262.705553 236.350369 
L 262.708824 236.257296 
L 263.113329 235.811302 
L 264.28548 235.787649 
L 264.582207 235.796227 
L 265.007715 235.416127 
L 265.22231 235.26201 
L 265.224577 235.160262 
L 265.122823 234.89407 
L 265.234229 234.943738 
L 265.623041 235.000978 
L 266.409528 235.216799 
L 266.46653 235.306904 
L 266.514889 235.288515 
L 267.220449 235.501925 
L 267.804986 235.333753 
L 267.871056 235.404986 
L 267.900942 235.383697 
L 268.220914 235.242533 
L 268.287026 235.251972 
L 268.28245 235.204164 
L 268.294032 234.939487 
L 268.640868 234.829396 
L 268.866819 234.774423 
L 269.799409 234.322421 
L 270.156362 233.977072 
L 270.451821 233.980993 
L 270.92434 234.323434 
L 270.840785 235.448887 
L 271.430909 235.58425 
L 272.105786 235.666769 
L 272.075563 235.604975 
L 271.987319 234.781808 
L 272.369326 234.466706 
L 272.423768 234.326582 
L 272.384519 234.329752 
L 272.239622 234.082162 
L 272.281804 234.063491 
L 272.718677 233.905316 
L 273.261371 234.031998 
L 273.231191 233.938924 
L 273.161679 233.660337 
L 272.775633 233.607782 
L 272.760393 233.437481 
L 273.052746 233.214343 
L 273.233613 233.195396 
L 273.753768 232.580273 
L 273.964098 232.460509 
L 273.883297 232.071693 
L 273.783873 231.977813 
L 273.691745 231.816876 
L 274.032414 231.836883 
L 273.997074 231.729617 
L 273.90372 231.481276 
L 273.628908 231.395099 
L 273.662069 231.351694 
L 274.212059 230.924915 
L 274.708239 230.645212 
L 274.293813 230.113806 
L 274.289691 229.470931 
L 273.552347 228.798368 
L 273.518682 228.54189 
L 273.702148 228.260134 
L 275.173503 228.79524 
L 275.286877 228.718495 
L 275.720068 228.431861 
L 275.814874 228.337665 
L 275.276197 227.649331 
L 275.179233 227.42117 
L 275.266667 227.386997 
L 275.6287 227.346003 
L 275.785559 227.24666 
L 276.15388 226.885051 
L 276.207771 226.52469 
L 276.703858 225.375674 
L 277.380745 225.355955 
L 277.822236 225.334941 
L 277.909246 225.259712 
L 278.05461 225.30256 
L 277.932709 225.173253 
L 277.532385 224.595065 
L 277.589383 224.244419 
L 277.953763 223.850229 
L 278.232014 223.99634 
L 278.426445 224.032842 
L 278.847999 224.074173 
L 279.105137 224.063074 
L 279.603802 224.183486 
L 280.036812 224.18713 
L 280.412909 224.232596 
L 281.095715 224.163209 
L 281.096009 224.17878 
L 281.417161 224.358506 
L 281.882249 224.62476 
L 282.012579 224.634743 
L 282.189043 224.683929 
L 282.333899 224.659195 
L 282.259647 224.895968 
L 282.347333 224.897277 
L 282.457646 224.966443 
L 282.707783 224.783452 
L 282.784868 224.673126 
L 283.091532 224.662096 
L 283.832407 224.812492 
L 285.743833 225.798511 
L 285.816654 226.377374 
L 285.968609 226.477247 
L 286.061866 226.529768 
L 286.443756 226.153085 
L 286.458667 225.854504 
L 286.483722 225.661061 
L 286.337145 225.659476 
L 286.35175 225.564893 
L 286.478974 225.429248 
L 287.034598 225.383287 
L 287.906164 224.574837 
L 288.26868 224.554512 
L 288.256136 224.560176 
L 288.281556 224.56907 
L 288.297483 224.430559 
L 288.346169 224.234463 
L 288.332647 224.021039 
L 288.35985 224.020557 
L 289.096216 224.200069 
L 289.271379 224.323313 
L 289.321538 224.260486 
L 289.447002 224.180365 
L 290.651341 223.830373 
L 290.876343 223.988527 
L 290.863858 223.859454 
L 290.909768 223.142445 
L 291.113175 223.023404 
L 291.56854 222.949856 
L 291.605194 223.075498 
L 291.67482 222.939797 
L 293.16798 222.83446 
L 293.167501 222.842342 
L 293.352264 222.958317 
L 293.437369 222.868943 
L 293.766308 223.150052 
L 294.626421 222.776131 
L 294.975772 222.610557 
L 295.073542 222.497193 
L 294.937506 221.813048 
L 294.971943 221.836949 
L 295.408026 221.910642 
L 295.758951 221.604434 
L 296.17456 221.308974 
L 296.490468 221.384203 
L 296.544519 221.681895 
L 296.635551 221.770477 
L 297.057856 221.80733 
L 297.226435 222.040651 
L 297.328475 222.462365 
L 297.671771 223.430154 
L 298.01511 223.412454 
L 298.823062 223.230551 
L 298.964786 223.153648 
L 299.533429 223.140096 
L 300.231307 223.266495 
L 300.420281 223.355841 
L 300.772402 223.074354 
L 301.106135 222.502691 
L 301.1727 222.149805 
L 301.285776 221.689371 
L 301.164741 221.626412 
L 301.367459 221.621086 
L 301.497357 221.637794 
L 301.639938 221.679332 
L 301.669912 221.611193 
L 301.750264 221.583014 
L 301.69181 221.490553 
L 301.575341 221.131425 
L 301.408517 220.617264 
L 301.459318 220.190658 
L 301.852047 220.224494 
L 302.177783 220.587542 
L 302.29523 220.776528 
L 302.331392 220.901032 
L 302.36656 220.97015 
L 302.722577 221.250804 
L 302.722371 221.22937 
L 302.853142 220.942619 
L 303.582628 220.34184 
L 303.684579 220.244205 
L 303.870975 219.949393 
L 304.085457 219.720033 
L 304.173449 219.528567 
L 304.230585 219.259247 
L 304.124667 218.668865 
L 303.883779 218.359378 
L 303.78038 217.895215 
L 303.812327 217.635265 
L 303.772109 217.335217 
L 303.803394 216.074724 
L 303.851592 215.713116 
L 303.684944 215.474476 
L 303.594135 215.192678 
L 303.491776 214.961169 
L 303.367621 214.722929 
L 303.049173 214.586932 
L 303.043485 214.380543 
L 303.121204 214.214665 
L 302.945866 213.869448 
L 302.657749 213.88198 
L 302.314096 213.566733 
L 301.814781 213.07949 
L 301.275373 212.630169 
L 300.985901 212.405094 
L 300.853215 212.170898 
L 300.598877 211.797267 
L 300.464172 211.478265 
L 300.108277 211.219852 
L 299.885554 210.633176 
L 299.726332 210.016757 
L 299.755711 209.664299 
L 299.677047 209.431267 
L 299.901667 209.291653 
L 299.93484 209.119313 
L 299.722541 209.017262 
L 299.386512 208.825197 
L 299.465059 208.579784 
L 299.565897 208.391487 
L 299.305526 207.041366 
L 299.013619 206.426615 
L 298.755825 206.340045 
L 298.6184 206.107268 
L 297.905686 206.034168 
L 297.769209 205.936065 
L 297.509522 205.905288 
L 297.307652 205.483092 
L 297.193921 205.128256 
L 296.973092 204.898455 
L 296.854121 204.743884 
L 296.851367 204.488784 
L 296.870322 204.295561 
L 296.973629 204.076398 
L 296.93098 203.766897 
L 296.959137 203.474441 
L 297.200142 203.344032 
L 297.401068 203.492989 
L 297.521432 203.347877 
L 297.539442 202.89336 
L 297.585882 202.912576 
L 297.760267 203.121087 
L 297.800074 203.02308 
L 297.62 202.696389 
L 297.588724 202.545552 
L 297.860732 202.239089 
L 298.328083 202.185143 
L 299.041641 201.63778 
L 299.173378 201.426485 
L 299.278578 201.20272 
L 299.488035 201.060592 
L 299.539214 200.647696 
L 299.613139 200.373105 
L 299.886092 200.135016 
L 299.959067 199.958384 
L 300.264249 200.034219 
L 300.426313 199.983339 
L 300.450956 199.680968 
L 300.716327 199.606104 
L 300.930524 199.381506 
L 301.235701 199.147337 
L 301.284034 198.53703 
L 301.466954 198.303881 
L 301.8707 196.834381 
L 302.082049 196.679988 
L 302.28866 196.366436 
L 302.328323 195.859936 
L 302.350536 195.699268 
L 302.154077 195.444182 
L 302.033712 195.363661 
L 301.75128 194.475242 
L 301.793975 193.834117 
L 301.840889 193.835075 
L 302.058397 193.756993 
L 302.176394 193.472957 
L 302.235629 193.16739 
L 302.376484 192.775494 
L 302.227573 192.408402 
L 302.070244 192.135016 
L 302.215251 192.033041 
L 302.526118 191.870753 
L 302.567515 191.556815 
L 302.611747 191.453924 
L 303.176695 190.881303 
L 303.195461 190.673536 
L 303.196804 190.400819 
L 303.497708 190.171432 
L 303.496365 189.774948 
L 303.541939 189.392726 
L 303.39383 189.193171 
L 303.377701 188.770595 
L 303.444157 188.589326 
L 303.948392 187.931424 
L 303.8281 187.665515 
L 303.090394 186.470998 
L 302.344662 185.916725 
L 301.347459 185.546663 
L 300.833757 184.841518 
L 300.688477 184.358396 
L 300.668893 183.101093 
L 300.645472 182.506494 
L 300.864861 182.128661 
L 301.701276 180.798389 
L 301.587755 180.137993 
L 301.06365 179.504625 
L 300.875654 179.191363 
L 300.904743 178.900257 
L 301.074771 178.697092 
L 301.659451 178.141365 
L 301.891245 177.610717 
L 302.148732 176.253431 
L 302.080597 176.11496 
L 301.652603 175.582631 
L 301.417421 175.050006 
L 301.025707 174.746161 
L 298.981457 174.256886 
L 297.853369 173.720133 
L 297.020111 173.569661 
L 296.85596 173.267663 
L 296.700882 172.847995 
L 296.18291 172.320957 
L 296.244211 171.978874 
L 296.641105 171.45227 
L 296.537495 171.118614 
L 296.333639 170.694467 
L 296.316729 170.370904 
L 296.057487 170.079309 
L 295.650648 169.851156 
L 295.649208 169.556633 
L 295.699661 169.052972 
L 295.535086 168.668372 
L 295.276529 168.185084 
L 295.294568 167.128941 
L 295.21032 166.499639 
L 294.799262 165.80312 
L 294.503748 165.143165 
L 294.659003 164.616431 
L 295.038026 163.909963 
L 294.958224 163.52287 
L 294.927909 163.061587 
L 295.09127 162.649208 
L 295.567504 162.184054 
L 296.088285 162.122529 
L 296.380511 162.013195 
L 297.709365 160.322204 
L 297.94705 159.438553 
L 298.460689 158.985456 
L 298.750053 158.348361 
L 298.670293 157.987517 
L 298.404212 157.660089 
L 297.744608 157.142807 
L 297.63047 156.449781 
L 297.444842 155.704118 
L 297.642116 155.269699 
L 297.867135 154.813439 
L 298.052481 154.047796 
L 298.936373 153.096894 
L 298.80349 152.772469 
L 297.751019 151.818336 
L 297.493213 150.947438 
L 297.01475 150.318535 
L 296.222691 149.717935 
L 295.680329 149.421242 
L 293.606045 148.297194 
L 291.508218 146.696245 
L 291.11438 145.857122 
L 290.764862 145.665663 
L 290.223649 145.403233 
L 289.676673 144.340124 
L 289.379765 143.978199 
L 289.157803 143.577615 
L 286.723795 140.635453 
L 284.287264 139.379397 
L 283.847663 139.091041 
L 282.478423 137.780915 
L 282.002789 137.207405 
L 281.780109 137.011489 
L 281.216197 136.195805 
L 280.896586 136.06142 
L 277.860833 135.582569 
L 277.420468 135.205776 
L 277.255289 134.564113 
L 277.304222 134.185742 
L 277.677073 133.556853 
L 278.382231 132.650893 
L 278.726337 131.946155 
L 278.71266 130.80965 
L 278.454761 130.132519 
L 278.421844 129.542963 
L 277.994056 126.645833 
L 278.355052 126.042904 
L 278.9689 125.850549 
L 279.50714 125.151578 
L 279.766534 125.078064 
L 280.379085 124.635405 
L 280.87102 124.353332 
L 281.469801 124.199904 
L 283.165499 123.116698 
L 283.35496 122.852814 
L 285.112714 121.255082 
L 285.299698 120.997344 
L 286.714081 119.768833 
L 286.803207 119.552771 
L 286.950691 119.334773 
L 287.60749 117.345297 
L 287.649299 116.701312 
L 287.634219 116.300777 
L 288.002154 115.657585 
L 288.087498 115.050116 
L 288.078976 114.796773 
L 288.244335 113.608912 
L 287.66034 112.701739 
L 287.462865 111.641408 
L 287.62293 111.086645 
L 287.639513 110.945688 
L 287.831241 110.448731 
L 288.060928 109.518884 
L 288.545218 109.360626 
L 288.733378 109.34272 
L 289.026742 109.138232 
L 289.188659 108.807035 
L 289.310702 108.017477 
L 290.083579 107.148887 
L 290.299694 106.790827 
L 290.463173 106.223794 
L 290.977521 105.337849 
L 290.768174 104.630058 
L 289.730975 104.363432 
L 289.369304 102.57823 
L 289.158802 102.268082 
L 289.486028 101.097045 
L 289.287869 100.820491 
L 288.968056 100.798092 
L 288.596381 100.923134 
L 288.07806 101.239195 
L 287.930543 101.714256 
L 287.726951 101.816163 
L 287.565248 101.763835 
L 287.280352 101.656872 
L 287.273731 101.755285 
L 287.292178 101.829694 
L 287.228601 101.83934 
L 286.777606 101.959345 
L 286.782485 101.982949 
L 286.621046 102.169434 
L 285.3522 102.034161 
L 285.356746 102.0683 
L 285.118268 102.922559 
L 284.709313 103.666424 
L 284.761609 103.819714 
L 284.71873 103.836773 
L 283.079013 104.488392 
L 283.217606 105.3876 
L 283.190087 105.687166 
L 282.555114 105.807847 
L 281.653472 105.906866 
L 281.543301 105.850308 
L 280.920767 105.952993 
L 280.479126 105.501391 
L 280.391427 105.593203 
L 280.325307 105.517278 
L 280.210677 105.551018 
L 278.971936 105.139197 
L 278.805266 105.090231 
L 277.200978 105.61009 
L 276.238073 105.524092 
L 276.629648 104.166785 
L 277.307459 103.406185 
L 278.243949 102.433773 
L 279.413434 101.363892 
L 280.741554 99.934146 
L 281.624715 98.551471 
L 282.095924 97.1881 
L 282.313932 96.35081 
L 282.05328 94.952564 
L 282.161469 94.3265 
L 281.866858 94.04637 
L 281.51878 93.61707 
L 280.990359 94.137411 
L 280.972887 94.19709 
L 280.93622 94.230477 
L 280.645031 94.360852 
L 279.611166 94.427724 
L 279.144046 94.188195 
L 277.812861 93.161058 
L 277.636436 93.273382 
L 277.16351 93.170745 
L 276.288228 94.447938 
L 275.814177 94.64451 
L 275.526459 95.002232 
L 275.551048 95.19407 
L 275.51952 95.232398 
L 275.467816 95.167193 
L 275.050376 94.944517 
L 274.917775 94.967163 
L 274.341521 95.107445 
L 274.171266 94.920726 
L 273.985479 93.938201 
L 273.929312 93.962287 
L 272.340192 93.850604 
L 272.072784 93.58373 
L 270.527643 93.901995 
L 269.752302 93.890964 
L 268.565399 94.424189 
L 268.116011 94.02415 
L 268.139932 93.658773 
L 268.359729 93.463394 
L 268.344884 93.301168 
L 268.107023 92.890153 
L 268.133463 92.891476 
L 268.660385 92.581341 
L 268.473745 92.034151 
L 266.875536 90.872057 
L 267.103019 90.024109 
L 266.830973 89.883627 
L 266.782821 89.570681 
L 266.839302 89.443903 
L 266.909251 89.244445 
L 266.970191 88.982393 
L 267.032121 88.81356 
L 265.518571 88.01488 
L 264.713868 87.865049 
L 264.601808 87.844834 
L 264.666996 87.743796 
L 264.670586 87.594854 
L 263.63717 85.858238 
L 263.728311 85.28187 
L 263.75975 85.284681 
L 263.725809 85.149166 
L 263.683559 85.018771 
L 263.64638 85.055714 
L 263.542158 85.108207 
L 263.312945 85.068997 
L 262.943717 85.854049 
L 262.688064 87.171899 
L 262.857601 87.590334 
L 262.865791 88.17466 
L 262.878763 88.169472 
L 263.38642 88.442141 
L 263.473011 88.630706 
L 263.495714 88.700513 
L 263.769721 89.239298 
L 263.840975 89.145026 
L 264.208373 88.966871 
L 264.82597 89.207274 
L 263.684398 90.606651 
L 262.944195 90.864982 
L 262.764214 90.78227 
L 262.070853 90.653639 
L 261.562252 90.478818 
L 261.222104 90.046432 
L 261.098692 90.378786 
L 260.459604 90.332728 
L 260.297234 90.312321 
L 260.156614 90.304356 
L 259.918497 90.496325 
L 259.737693 90.792784 
L 258.777916 91.464169 
L 258.623559 91.512404 
L 257.559694 92.519767 
L 257.588342 92.51624 
L 257.670235 92.690819 
L 257.602574 92.699287 
L 257.499115 92.767082 
L 257.436786 93.001416 
L 257.321573 92.838783 
L 256.992302 92.733797 
L 256.711898 93.237169 
L 256.915296 93.386931 
L 256.89282 93.40572 
L 256.722662 93.791904 
L 256.676025 93.762994 
L 256.50245 93.77448 
L 256.76188 94.46147 
L 256.632654 94.744494 
L 256.183464 95.364261 
L 256.177474 95.34796 
L 255.87921 95.029708 
L 255.570141 95.160607 
L 255.542635 95.224544 
L 255.483349 95.21053 
L 255.234405 95.242519 
L 255.113508 95.36065 
L 254.651127 95.398337 
L 254.089714 95.48346 
L 254.016658 95.576148 
L 253.758348 95.957123 
L 253.332521 95.987238 
L 253.144479 96.230309 
L 253.173177 96.291221 
L 253.074853 96.294404 
L 253.015983 96.366009 
L 253.034652 96.39693 
L 253.138157 96.50173 
L 253.161645 96.488881 
L 253.430517 96.51026 
L 253.425471 96.65987 
L 253.402113 96.80871 
L 253.385476 96.985197 
L 253.316518 97.222749 
L 253.244566 97.356768 
L 253.402923 97.366531 
L 253.470853 97.388936 
L 253.475689 97.448546 
L 253.287374 97.738963 
L 253.054673 98.017247 
L 252.896354 98.466334 
L 252.408608 98.354031 
L 252.187456 98.235962 
L 251.885779 99.064908 
L 251.776805 99.277519 
L 251.867518 99.281577 
L 252.15469 99.439566 
L 252.098838 99.950661 
L 251.911367 100.253706 
L 252.049858 101.082522 
L 251.975002 101.577564 
L 251.524721 101.644477 
L 251.529637 101.531079 
L 251.19702 100.979747 
L 251.19202 101.027411 
L 251.177033 101.207708 
L 251.36117 101.781397 
L 251.272527 101.899969 
L 250.960914 102.388163 
L 250.950599 102.564113 
L 250.94426 102.769393 
L 250.198973 103.473318 
L 250.049759 103.499217 
L 249.415256 103.600669 
L 249.403498 103.526108 
L 249.280438 103.382195 
L 249.267197 103.08052 
L 249.196551 102.994619 
L 249.180133 102.990905 
L 248.914379 102.982273 
L 248.700267 102.994219 
L 248.573127 102.919783 
L 248.514072 102.870528 
L 248.468557 102.911846 
L 248.378049 103.217764 
L 248.441407 103.411772 
L 248.472326 103.411566 
L 248.509866 103.393025 
L 248.332949 103.557876 
L 248.349674 103.582156 
L 248.487326 103.722293 
L 248.659898 103.748977 
L 248.674172 103.803213 
L 248.633265 103.848493 
L 248.253571 103.994293 
L 248.220536 103.946313 
L 248.158169 104.022817 
L 248.019967 104.411364 
L 247.958217 104.595679 
L 247.599085 105.130123 
L 247.515648 105.219097 
L 247.356846 105.410322 
L 247.250281 105.438928 
L 247.270364 105.493578 
L 247.213568 105.682805 
L 247.211599 105.87877 
L 247.06205 106.390719 
L 247.112242 106.408687 
L 247.131852 106.533171 
L 246.873865 106.603268 
L 246.696386 106.679558 
L 246.497206 106.799171 
L 246.370515 106.746705 
L 246.261302 106.48927 
L 246.274521 106.262088 
L 246.147348 106.288916 
L 245.638499 105.239456 
L 245.510213 104.768928 
L 245.096837 104.377908 
L 244.55264 104.443305 
L 244.391159 104.507125 
L 244.419018 104.711929 
L 244.35202 104.705983 
L 243.989463 104.626641 
L 242.753433 104.228049 
L 242.591642 104.247457 
L 242.383487 104.461838 
L 241.783005 104.942398 
L 241.617616 105.2997 
L 241.315302 105.350416 
L 240.697474 105.480473 
L 240.745727 105.550749 
L 240.673016 105.717625 
L 240.499839 105.88991 
L 240.402716 106.265574 
L 240.350781 106.375093 
L 240.419021 106.53054 
L 240.629406 106.499777 
L 240.583801 106.614009 
L 240.411822 106.740759 
L 240.502958 106.806625 
L 240.522488 106.819495 
L 240.199028 107.345417 
L 240.156656 107.702692 
L 240.064591 107.895178 
L 240.064503 108.077363 
L 239.738658 108.611794 
L 238.525428 108.077115 
L 237.701045 106.24857 
L 237.677791 106.353418 
L 237.460799 106.531676 
L 237.455875 106.528576 
L 237.391132 106.52161 
L 237.268068 106.299251 
L 237.206948 106.328491 
L 236.779916 106.420304 
L 236.676231 106.496428 
L 236.491698 106.591879 
L 236.451883 106.516195 
L 236.485934 106.243161 
L 236.467131 106.246537 
L 235.774895 106.897005 
L 235.581472 107.194615 
L 235.487295 107.119723 
L 235.492039 107.108072 
L 235.457787 107.061374 
L 235.439907 107.062166 
L 234.931054 107.022715 
L 234.929525 107.03296 
L 234.838884 106.99486 
L 234.754779 107.015026 
L 234.753066 107.062235 
L 234.517737 107.455116 
L 234.584596 108.168315 
L 234.50934 108.481832 
L 234.569697 108.718578 
L 234.096494 108.796528 
L 233.952679 108.617698 
L 233.7536 108.711495 
L 233.793297 108.829324 
L 233.732878 108.834636 
L 233.627333 108.880576 
L 233.688559 109.063058 
L 233.578896 109.054322 
L 233.531637 109.217912 
L 233.453401 109.592466 
L 233.441059 109.787115 
L 233.394036 109.786495 
L 233.383406 109.749167 
L 233.082301 109.616463 
L 233.011865 109.508721 
L 232.965312 109.534289 
L 232.514182 109.746466 
L 232.28722 109.789906 
L 231.309613 110.566166 
L 231.237133 110.764991 
L 230.960003 110.782311 
L 230.913908 110.757653 
L 230.876507 110.786039 
L 230.893719 110.909558 
L 230.94879 111.127874 
L 231.008218 111.158815 
L 230.936922 111.211067 
L 230.887564 111.462343 
L 230.351386 111.899863 
L 230.395961 111.977958 
L 230.341617 112.020468 
L 230.165371 112.036486 
L 230.186223 112.001039 
L 230.193788 111.898808 
L 229.607673 111.967444 
L 229.4344 112.069984 
L 229.402284 112.249862 
L 229.112085 112.308445 
L 228.823671 112.113775 
L 228.719826 111.964233 
L 228.652409 111.524013 
L 228.522284 111.340085 
L 228.346366 111.354822 
L 228.065013 111.552936 
L 227.81677 111.67042 
L 227.7168 111.595625 
L 227.747879 111.444127 
L 227.966937 111.234327 
L 228.400409 111.083662 
L 228.503145 111.0556 
L 228.440022 110.951034 
L 228.533648 110.778529 
L 228.9166 110.532372 
L 229.275044 110.304797 
L 229.21954 110.281806 
L 229.113366 109.980745 
L 229.127875 109.935548 
L 229.061595 109.89587 
L 228.1178 109.779433 
L 227.43242 110.166251 
L 227.51723 110.22345 
L 227.744558 110.557761 
L 227.675016 110.750371 
L 226.859016 110.63372 
L 226.745529 110.703224 
L 226.721142 110.635711 
L 226.784517 110.542011 
L 227.19419 110.24303 
L 227.079892 110.098711 
L 226.818807 110.066956 
L 226.54056 110.109535 
L 226.373803 110.155634 
L 226.178548 110.212406 
L 225.984272 110.239606 
L 225.944067 110.487658 
L 225.423711 110.711905 
L 225.316634 111.124022 
L 225.313401 111.120853 
L 225.187563 111.109554 
L 225.021762 111.178444 
L 224.655363 110.878024 
L 224.415802 110.647762 
L 224.21177 110.617557 
L 223.9927 110.261399 
L 223.891936 109.941563 
L 223.612233 109.676749 
L 223.306383 109.956045 
L 223.163131 109.946902 
L 222.601184 110.179431 
L 222.581021 110.207865 
L 222.504569 110.067748 
L 222.356048 110.066419 
L 222.23942 110.312128 
L 222.226532 110.275068 
L 222.148539 109.9734 
L 222.22678 109.960516 
L 221.939465 110.098504 
L 221.909075 110.203628 
L 221.887081 110.206728 
L 221.674774 110.307174 
L 221.687452 110.328739 
L 221.703653 110.377856 
L 221.616139 110.409411 
L 220.719795 110.539813 
L 220.551258 110.567537 
L 220.171077 110.491681 
L 219.703247 110.012727 
L 219.474483 109.898653 
L 219.157396 109.75935 
L 219.195321 109.734512 
L 219.691455 109.093986 
L 219.881209 108.071589 
L 219.478854 108.017918 
L 219.334531 108.145999 
L 218.723617 108.206815 
L 217.820292 107.998255 
L 216.892148 107.905223 
L 216.725214 107.888233 
L 216.486564 107.790226 
L 215.9891 107.381644 
L 216.001443 107.366142 
L 216.230038 107.173346 
L 216.02763 107.011609 
L 216.051564 106.994171 
L 216.327955 106.585251 
L 216.440213 106.455834 
L 216.357749 106.397781 
L 216.30861 106.357111 
L 216.273401 106.375059 
L 216.152915 106.439436 
L 216.130417 106.405546 
L 216.004318 106.062815 
L 215.266571 105.972925 
L 214.677576 106.031756 
L 214.457154 105.988992 
L 214.456289 106.074266 
L 214.20894 106.235204 
L 213.977242 106.312224 
L 213.768 106.460202 
L 213.531474 106.695466 
L 213.341371 106.576356 
L 213.172967 106.426318 
L 212.124602 106.034416 
L 210.55457 105.339868 
L 210.112366 105.332447 
L 209.154847 105.505387 
L 209.057346 105.939324 
L 208.313386 105.928514 
L 207.529258 105.935899 
L 207.067751 106.213942 
L 206.86256 106.320313 
L 206.831926 106.328195 
L 206.828505 106.226316 
L 206.272741 105.323208 
L 206.059385 104.585316 
L 204.792071 104.160791 
L 204.571401 103.784645 
L 204.846075 103.208277 
L 204.604701 102.710755 
L 204.049223 102.6477 
L 203.481306 102.436143 
L 203.250276 102.327299 
L 202.544913 101.79827 
L 201.155471 101.142821 
L 201.068486 100.987664 
L 199.835374 100.994485 
L 199.499525 101.204829 
L 199.215187 101.176787 
L 199.108849 101.213647 
L 198.910908 101.147781 
L 198.962251 100.986493 
L 198.926189 100.870676 
L 198.58908 100.661434 
L 198.386605 100.468246 
L 197.768139 99.09698 
L 197.568834 98.88696 
L 197.332585 99.011203 
L 196.984393 99.214726 
L 196.026803 99.249106 
L 195.904302 99.501821 
L 195.9585 99.875039 
L 195.150909 100.098956 
L 194.684708 99.265021 
L 194.579881 98.834205 
L 194.490713 98.635229 
L 194.040382 98.780947 
L 194.023002 98.705505 
L 193.980601 98.639501 
L 193.973044 98.822424 
L 193.858394 99.251379 
L 193.778335 99.422245 
L 193.774347 99.52063 
L 193.664525 99.508918 
L 192.669823 99.444981 
L 192.681662 99.600827 
L 192.603535 99.870354 
L 192.597406 99.8687 
L 191.528524 99.476605 
L 191.457744 98.307208 
L 191.373446 98.097209 
L 191.372144 98.097209 
L 190.901452 98.067445 
L 190.513068 98.03589 
L 190.008866 97.994517 
L 190.124864 98.118981 
L 190.194821 98.3403 
L 190.108084 98.567606 
L 190.151455 98.694088 
L 190.290286 98.801913 
L 190.476175 99.476378 
L 189.478547 100.03794 
L 188.707303 100.511128 
L 188.797903 100.612793 
L 188.974014 101.571087 
L 188.93325 101.917504 
L 189.067842 102.642374 
L 188.791228 102.897226 
L 188.189806 102.94945 
L 187.89682 103.264449 
L 187.395019 102.977973 
L 187.302577 103.045424 
L 187.171218 103.02882 
L 187.001026 103.08318 
L 187.017525 103.117008 
L 186.989145 103.138298 
L 186.978692 103.207609 
L 186.278405 104.324505 
L 186.227859 104.372182 
L 186.238901 104.430469 
L 186.165685 104.70351 
L 186.110648 104.689593 
L 185.884832 104.818775 
L 185.871188 104.730449 
L 185.650829 104.634406 
L 184.052943 104.499987 
L 183.608278 104.319407 
L 183.490059 104.969523 
L 183.273773 105.311737 
L 183.147157 105.336815 
L 183.148417 105.394069 
L 182.899847 105.542888 
L 182.449179 106.074294 
L 182.376426 106.299175 
L 182.323907 106.400041 
L 182.29641 106.422984 
L 182.237426 106.36449 
L 182.218031 106.364834 
L 181.774584 106.314195 
L 181.57383 106.207541 
L 181.037437 106.199136 
L 179.552178 106.086179 
L 179.891381 106.539551 
L 180.509822 106.736288 
L 181.124834 107.567233 
L 180.930213 107.625506 
L 180.92557 107.798253 
L 180.469172 107.783026 
L 180.325626 107.898037 
L 180.039629 107.929054 
L 179.811294 107.890355 
L 179.377654 107.888873 
L 179.212441 107.805948 
L 178.372101 107.893889 
L 176.885435 108.541815 
L 176.720491 108.591414 
L 176.72869 108.535752 
L 176.683472 108.427541 
L 176.621084 107.577981 
L 176.145954 107.648587 
L 176.143973 107.532708 
L 175.828728 107.406302 
L 175.87911 107.166725 
L 175.615124 106.981232 
L 175.455003 106.727979 
L 175.242365 106.768015 
L 175.141509 106.898879 
L 173.911 106.763282 
L 173.728143 107.001612 
L 172.861505 107.042282 
L 172.484737 106.896206 
L 172.207112 107.115438 
L 172.093364 107.434743 
L 171.945477 107.696877 
L 171.526333 107.834238 
L 170.458887 108.870834 
L 170.169473 108.8955 
L 169.895592 108.855698 
L 169.590767 108.991467 
L 169.398863 109.114986 
L 169.26043 109.216948 
L 169.411373 109.32841 
L 169.607018 109.640068 
L 169.57172 109.662659 
L 169.498316 110.783931 
L 169.941276 110.970512 
L 169.803649 111.553198 
L 170.010881 111.84336 
L 169.875118 112.191478 
L 169.507082 113.174217 
L 169.335803 113.207454 
L 169.295212 113.060371 
L 169.234305 113.117349 
L 169.399178 114.064999 
L 169.093883 114.256824 
L 169.169646 114.53322 
L 168.657094 114.632487 
L 168.582149 114.911515 
L 168.163652 114.917392 
L 167.524552 114.895792 
L 167.235327 115.1989 
L 167.161193 115.108603 
L 167.101244 114.824194 
L 166.420658 114.659509 
L 166.068096 114.745038 
L 166.014591 114.804062 
L 165.80623 114.14335 
L 165.49934 113.921066 
L 165.33291 113.88218 
L 164.825551 113.984748 
L 164.83142 114.01343 
L 164.783771 114.083698 
L 164.415362 114.05029 
L 164.109298 113.910159 
L 163.739092 113.863626 
L 163.775233 113.922602 
L 163.49325 114.111147 
L 163.084845 114.064972 
L 162.780817 113.906005 
L 162.737401 113.880747 
L 162.621251 114.69774 
L 162.787589 115.251896 
L 162.9137 115.500326 
L 162.987885 115.575969 
L 162.865237 115.627573 
L 162.530946 115.925465 
L 162.511126 115.907627 
L 162.376862 115.78468 
L 161.612335 115.774566 
L 161.64202 115.739159 
L 161.589456 115.670785 
L 161.248317 115.525308 
L 160.200505 115.653237 
L 160.001893 115.595446 
L 160.051791 115.519728 
L 160.077761 115.488076 
L 159.98023 115.447241 
L 159.691182 115.328648 
L 158.675662 115.485686 
L 158.314423 115.447199 
L 158.314536 115.412537 
L 158.225049 115.315543 
L 157.313886 115.129844 
M 200.051636 176.160385 
L 200.064415 176.106231 
L 200.157651 176.196824 
L 200.14276 176.222006 
L 200.051636 176.160385 
M 233.808444 163.524537 
L 234.217479 163.218515 
L 234.29671 163.123884 
L 234.337587 163.14352 
L 234.489496 163.224826 
L 234.634415 163.040284 
L 234.834396 162.86565 
L 234.882553 162.605879 
L 235.020566 162.385524 
L 235.268385 162.147793 
L 234.813863 161.557728 
L 234.733851 161.291777 
L 234.82969 160.902472 
L 234.795429 160.230267 
L 234.978085 159.938597 
L 235.228431 159.503544 
L 235.498634 159.363296 
L 237.18699 157.351697 
L 237.021802 157.257969 
L 235.802464 156.698653 
L 235.027362 156.81203 
L 235.473664 154.510421 
L 235.578214 154.128344 
L 235.664195 154.206783 
L 235.884273 154.365289 
L 236.239706 154.288158 
L 236.268938 154.013926 
L 236.339983 153.467149 
L 236.517903 153.02564 
L 236.380398 152.24415 
L 235.62747 152.45982 
L 235.513588 151.972343 
L 235.565817 151.987417 
L 235.806831 151.95578 
L 236.064032 151.828216 
L 236.401372 151.614117 
L 236.828807 151.22661 
L 237.082419 151.242119 
L 237.434926 151.434639 
L 237.875997 151.587364 
L 238.112162 151.753952 
L 238.7775 152.020929 
L 238.790623 151.9597 
L 238.803906 151.89854 
L 239.258642 151.852062 
L 239.256446 151.566881 
L 238.567351 150.720407 
L 238.642854 150.564906 
L 238.824095 150.393626 
L 239.582194 149.150193 
L 239.58413 149.178337 
L 240.832943 149.202831 
L 241.207457 149.051732 
L 241.150874 148.481646 
L 241.104989 148.294431 
L 241.126777 148.299475 
L 241.721851 148.322659 
L 242.022189 148.148796 
L 242.069766 147.471906 
L 241.934305 147.463135 
L 241.970535 146.912769 
L 242.050001 146.934375 
L 242.931341 146.997706 
L 243.064941 147.086576 
L 242.794864 147.356468 
L 242.744982 147.476977 
L 243.036382 148.288596 
L 242.990412 148.51068 
L 242.936815 148.524046 
L 242.97181 148.619731 
L 243.10107 149.067068 
L 242.803542 149.224265 
L 243.156091 149.160397 
L 243.486751 149.252368 
L 244.654444 149.471021 
L 245.505402 149.343126 
L 245.503181 149.320755 
L 245.547324 149.335451 
L 245.627999 149.257838 
L 245.926552 149.037931 
L 245.912703 149.011964 
L 245.932295 148.814304 
L 246.468961 148.400609 
L 246.458348 148.389937 
L 246.457857 148.237019 
L 246.466782 148.383206 
L 246.481677 148.246685 
L 246.474906 148.236468 
L 246.528482 148.111633 
L 246.564863 148.118777 
L 246.6127 147.917507 
L 246.768106 147.788986 
L 246.805499 147.770625 
L 246.862274 147.833404 
L 247.314646 148.129539 
L 247.510656 148.177347 
L 247.621717 148.408457 
L 247.914372 148.654007 
L 247.915325 148.646456 
L 248.162044 148.517824 
L 248.330283 148.482687 
L 248.322584 148.431923 
L 248.372113 148.029652 
L 248.589231 147.808332 
L 248.710112 147.684599 
L 249.609444 147.605436 
L 249.977846 147.385777 
L 250.003866 147.243173 
L 249.83898 147.182151 
L 249.356953 147.004092 
L 249.023963 146.780003 
L 249.116422 146.678111 
L 249.503115 146.398318 
L 249.659734 146.473238 
L 250.062538 145.9287 
L 250.118503 145.988978 
L 250.136123 146.005906 
L 250.229044 145.895319 
L 250.077223 146.245897 
L 250.075603 146.512619 
L 250.096976 146.494926 
L 250.50978 146.275674 
L 250.604267 146.220432 
L 250.585241 146.336097 
L 250.56169 147.124422 
L 250.940893 147.474607 
L 251.785839 147.899305 
L 251.898974 147.863147 
L 251.927332 147.96258 
L 252.008108 148.404888 
L 251.780352 149.089184 
L 251.332594 149.404039 
L 251.210924 149.836529 
L 250.950041 150.751315 
L 251.047097 150.741917 
L 251.554124 151.630673 
L 252.388978 151.681148 
L 253.34603 152.137056 
L 253.844737 152.683282 
L 254.11353 152.934075 
L 254.327268 152.984639 
L 254.460835 153.087923 
L 254.550364 153.196712 
L 254.74637 154.410665 
L 254.759699 154.580201 
L 254.760501 154.580497 
L 256.86892 155.168048 
L 256.812119 155.259054 
L 256.573435 155.395134 
L 256.355003 155.539804 
L 256.410754 155.911692 
L 256.499897 155.896425 
L 257.091542 155.91697 
L 257.45284 155.932982 
L 257.699664 156.047393 
L 257.639349 156.304187 
L 256.525195 157.530955 
L 256.296091 158.387102 
L 256.535766 158.467181 
L 256.462198 158.567296 
L 255.879206 159.528485 
L 255.95235 159.700666 
L 255.964994 159.746483 
L 255.921204 159.801305 
L 255.765517 160.009423 
L 255.874315 160.048557 
L 255.965973 160.020075 
L 256.03025 159.979687 
L 256.171873 160.100664 
L 256.243749 160.298648 
L 256.263061 160.13851 
L 256.346582 160.140735 
L 256.330398 160.037595 
L 256.438118 159.807402 
L 256.524166 159.771706 
L 256.87206 159.587874 
L 257.274353 159.446641 
L 257.58215 159.581474 
L 258.60379 160.128113 
L 258.895097 160.378851 
L 259.371747 160.659485 
L 259.558954 161.097121 
L 259.706408 161.045303 
L 259.627232 160.740239 
L 259.44762 160.172834 
L 259.58978 160.246741 
L 260.066044 160.533781 
L 260.185791 160.616506 
L 260.584494 161.236576 
L 260.859806 161.407366 
L 261.046543 161.446762 
L 261.51577 161.518574 
L 261.775344 161.643636 
L 261.797921 161.828419 
L 261.769433 161.895243 
L 261.876938 161.916091 
L 261.882555 161.917249 
L 261.859445 162.009902 
L 261.808899 162.230174 
L 262.054023 162.279064 
L 262.017579 162.355588 
L 261.898869 162.369271 
L 261.77212 162.349973 
L 261.780554 162.312514 
L 261.850041 162.010378 
L 261.808396 162.011928 
L 261.480284 162.129756 
L 261.316943 162.386413 
L 261.179875 162.594166 
L 260.602143 162.438017 
L 260.443899 162.318025 
L 260.996417 162.609096 
L 261.159275 162.71307 
L 261.22089 162.929008 
L 261.219274 163.03316 
L 260.742788 163.728108 
L 260.815714 163.908551 
L 261.080598 164.414389 
L 260.937849 164.579998 
L 260.747658 164.900963 
L 260.740538 164.898221 
L 260.537849 164.920999 
L 260.432438 164.996228 
L 260.393992 164.976323 
L 260.092269 164.943252 
L 259.62452 165.341404 
L 259.525511 165.427478 
L 259.092035 165.8764 
L 258.90618 165.989019 
L 259.054899 166.030819 
L 259.328045 166.175876 
L 259.437527 166.151631 
L 259.40689 166.261295 
L 259.369384 166.431396 
L 259.462175 166.426277 
L 259.51251 166.448448 
L 259.492292 166.53107 
L 259.280367 166.895737 
L 258.949904 167.130064 
L 258.927276 167.099963 
L 258.651762 166.983995 
L 258.4605 167.098489 
L 258.065945 167.597699 
L 257.844708 168.06213 
L 257.67369 168.282299 
L 257.553871 168.589719 
L 257.43582 168.831735 
L 257.391795 169.099464 
L 257.198757 169.094827 
L 257.003528 168.881286 
L 256.813043 168.541181 
L 257.124887 167.339072 
L 257.272703 167.080079 
L 257.116587 166.912273 
L 257.069191 166.842356 
L 257.079942 166.426987 
L 257.072637 166.428716 
L 256.648993 166.452685 
L 256.485288 166.1618 
L 256.413408 166.202787 
L 255.53258 166.694612 
L 255.57232 166.57143 
L 255.492077 166.189986 
L 255.030108 165.508411 
L 254.981616 165.303483 
L 254.963883 165.309911 
L 253.672732 165.693167 
L 252.580084 165.635672 
L 252.586848 165.219828 
L 252.703585 164.833526 
L 252.562792 164.92764 
L 252.25361 164.995739 
L 251.795088 164.76538 
L 251.606706 164.813946 
L 250.240509 165.156518 
L 250.027148 164.332601 
L 249.55994 163.424828 
L 248.971919 163.656565 
L 248.065668 164.057734 
L 247.665176 164.273211 
L 247.738639 164.662185 
L 247.992478 165.980697 
L 247.654517 166.515003 
L 246.398924 166.344007 
L 246.223254 165.676776 
L 245.647436 165.674489 
L 245.640577 165.259361 
L 244.738289 164.588127 
L 244.508614 164.188295 
L 244.513585 164.06966 
L 244.465663 164.09622 
L 243.200415 164.938747 
L 243.152241 164.855167 
L 242.557595 163.757486 
L 242.399948 163.882783 
L 241.472991 164.586681 
L 241.113066 164.499394 
L 240.828199 164.443133 
L 240.581593 164.507772 
L 240.567823 164.396193 
L 240.383942 163.422824 
L 239.094995 163.633202 
L 238.472549 163.81556 
L 238.295124 163.855265 
L 236.787279 164.781702 
L 236.724055 165.128201 
L 236.887303 165.106374 
L 237.291506 165.044063 
L 237.300683 165.110232 
L 237.208598 165.247242 
L 236.998285 165.275972 
L 236.397656 165.215501 
L 235.852707 165.233118 
L 235.572853 165.54091 
L 235.613915 165.583744 
L 235.690702 165.751847 
L 235.617802 165.740541 
L 235.602613 165.755526 
L 235.520767 165.685492 
L 235.419962 165.594829 
L 235.531279 165.447327 
L 235.719955 165.338655 
L 235.932908 165.153286 
L 235.791747 165.123578 
L 235.772402 165.058022 
L 235.879261 165.039075 
L 235.897325 165.024868 
L 235.761025 164.970233 
L 235.704497 164.920813 
L 235.663091 164.969268 
L 235.338082 165.092856 
L 234.588798 164.223632 
L 234.65483 164.240347 
L 234.793007 164.155128 
L 234.784355 164.108746 
L 234.648248 163.967003 
L 234.596061 163.969022 
L 234.606745 164.064328 
L 234.546032 164.219285 
L 234.482397 164.202446 
L 234.3387 164.037575 
L 234.310841 163.927442 
L 234.215909 163.953582 
L 234.148714 163.975374 
L 234.193986 164.070728 
L 234.240586 164.170223 
L 234.213029 164.196439 
L 234.188239 164.228248 
L 233.885811 164.00006 
L 233.808444 163.524537 
M 251.23453 149.789134 
L 251.319042 149.727333 
L 251.23453 149.789134 
" style="fill:none;stroke:#ffc0cb;"/>
    <path clip-path="url(#p9432212a3a)" d="M 197.274903 133.09697 
L 197.281666 133.099946 
L 197.295528 133.106043 
L 197.30277 133.107187 
L 197.310897 133.106098 
L 197.3201 133.101786 
L 197.345414 133.075956 
L 197.347878 133.078133 
L 197.395972 133.033915 
L 197.445686 132.990447 
L 197.408155 132.963074 
L 197.385678 132.990316 
L 197.377882 132.981132 
L 197.350255 133.016401 
L 197.32083 133.054177 
L 197.30921 133.045179 
L 197.305671 133.044745 
L 197.300876 133.050367 
L 197.302568 133.053268 
L 197.291023 133.071064 
L 197.274903 133.09697 
" style="fill:none;stroke:#ffc0cb;"/>
    <path clip-path="url(#p9432212a3a)" d="M 199.035264 176.597415 
L 199.049643 176.602403 
L 199.074983 176.611008 
L 199.106611 176.550544 
L 199.086187 176.5422 
L 199.067766 176.53509 
L 199.035264 176.597415 
" style="fill:none;stroke:#ffc0cb;"/>
    <path clip-path="url(#p9432212a3a)" d="M 199.142686 176.380973 
L 199.14431 176.392149 
L 199.152173 176.397681 
L 199.16245 176.396207 
L 199.166539 176.402897 
L 199.174222 176.419446 
L 199.179385 176.43997 
L 199.18232 176.446688 
L 199.187354 176.451772 
L 199.195586 176.452303 
L 199.215745 176.460626 
L 199.232613 176.459902 
L 199.238944 176.535166 
L 199.244977 176.569332 
L 199.256811 176.617478 
L 199.29595 176.612421 
L 199.363087 176.618594 
L 199.386445 176.617209 
L 199.410236 176.605855 
L 199.433006 176.600122 
L 199.455672 176.60724 
L 199.478602 176.608859 
L 199.481385 176.633028 
L 199.483585 176.653036 
L 199.314288 176.941034 
L 199.486083 176.653794 
L 199.484169 176.633965 
L 199.538836 176.652319 
L 199.573618 176.663157 
L 199.596573 176.625429 
L 199.625842 176.64144 
L 199.626972 176.636824 
L 199.639574 176.622115 
L 199.653789 176.594935 
L 199.653483 176.565067 
L 199.661635 176.551453 
L 199.645473 176.539258 
L 199.624595 176.527518 
L 199.600217 176.522709 
L 199.53628 176.502943 
L 199.506587 176.511045 
L 199.478997 176.519953 
L 199.473199 176.514517 
L 199.443611 176.508544 
L 199.41477 176.503308 
L 199.383813 176.510632 
L 199.348532 176.504376 
L 199.331555 176.499036 
L 199.311937 176.499243 
L 199.298843 176.495412 
L 199.290761 176.494951 
L 199.285762 176.491168 
L 199.276954 176.482521 
L 199.270569 176.475046 
L 199.262458 176.470327 
L 199.258444 176.467343 
L 199.251723 176.466737 
L 199.243583 176.459861 
L 199.238419 176.456657 
L 199.232529 176.457973 
L 199.224053 176.457071 
L 199.216476 176.458676 
L 199.196241 176.449533 
L 199.187379 176.448031 
L 199.184944 176.444924 
L 199.183315 176.442733 
L 199.176056 176.418523 
L 199.168504 176.400816 
L 199.163105 176.393809 
L 199.152228 176.394725 
L 199.14578 176.389958 
L 199.14473 176.381215 
L 199.149109 176.374201 
L 199.146749 176.372334 
L 199.142686 176.380973 
" style="fill:none;stroke:#ffc0cb;"/>
    <path clip-path="url(#p9432212a3a)" d="M 199.7237 176.722636 
L 199.725212 176.723738 
L 199.725136 176.740611 
L 199.762865 176.748989 
L 199.806705 176.732288 
L 199.851226 176.741817 
L 199.90801 176.754756 
L 199.952044 176.750588 
L 199.968215 176.724365 
L 199.93636 176.695635 
L 199.943476 176.658306 
L 199.912712 176.643652 
L 199.875189 176.647689 
L 199.829338 176.629363 
L 199.845068 176.625511 
L 199.854308 176.628357 
L 199.861671 176.627475 
L 199.871869 176.619531 
L 199.885479 176.603257 
L 199.889887 176.599034 
L 199.895172 176.592213 
L 199.897423 176.583511 
L 199.910281 176.572763 
L 199.925138 176.570207 
L 199.935793 176.562008 
L 199.941536 176.559418 
L 199.954601 176.558329 
L 199.954685 176.556572 
L 199.941368 176.557578 
L 199.933963 176.560506 
L 199.924139 176.567534 
L 199.909782 176.570331 
L 199.898338 176.578909 
L 199.89534 176.583263 
L 199.893094 176.590835 
L 199.889471 176.59769 
L 199.88377 176.602127 
L 199.870122 176.618525 
L 199.861092 176.62547 
L 199.855307 176.626138 
L 199.84673 176.622666 
L 199.830001 176.62618 
L 199.825333 176.628722 
L 199.806613 176.639904 
L 199.789359 176.650686 
L 199.749418 176.658162 
L 199.740741 176.670295 
L 199.736114 176.680312 
L 199.7237 176.722636 
" style="fill:none;stroke:#ffc0cb;"/>
    <path clip-path="url(#p9432212a3a)" d="M 199.985839 176.776321 
L 200.010008 176.785973 
L 200.017866 176.786077 
L 200.032858 176.794207 
L 200.055318 176.785829 
L 200.080679 176.793711 
L 200.109952 176.794076 
L 200.132378 176.772325 
L 200.134973 176.764898 
L 200.136904 176.752289 
L 200.137928 176.745889 
L 200.122656 176.732812 
L 200.09295 176.727665 
L 200.065456 176.725654 
L 200.047194 176.718027 
L 200.022694 176.717414 
L 200.007367 176.71503 
L 199.987972 176.740908 
L 199.985839 176.776321 
" style="fill:none;stroke:#ffc0cb;"/>
    <path clip-path="url(#p9432212a3a)" d="M 200.134654 176.850889 
L 200.134792 176.852446 
L 200.142479 176.854285 
L 200.148222 176.858309 
L 200.142844 176.858729 
L 200.13606 176.858474 
L 200.136287 176.860059 
L 200.14321 176.860286 
L 200.149402 176.859776 
L 200.147009 176.862835 
L 200.141438 176.86575 
L 200.142597 176.866825 
L 200.149036 176.86433 
L 200.151232 176.859804 
L 200.159255 176.860713 
L 200.167899 176.865695 
L 200.170883 176.889857 
L 200.172424 176.8955 
L 200.178541 176.902252 
L 200.186534 176.907178 
L 200.194305 176.910065 
L 200.204112 176.910326 
L 200.211139 176.914198 
L 200.218683 176.91601 
L 200.227969 176.913124 
L 200.23786 176.915576 
L 200.24548 176.920537 
L 200.252621 176.929039 
L 200.259443 176.934799 
L 200.26647 176.943893 
L 200.271323 176.953084 
L 200.273292 176.959871 
L 200.280836 176.964797 
L 200.281626 176.963212 
L 200.299614 176.962344 
L 200.310341 176.950252 
L 200.313065 176.928557 
L 200.304018 176.912324 
L 200.287536 176.901859 
L 200.260635 176.88491 
L 200.244409 176.886095 
L 200.227466 176.875085 
L 200.21493 176.867562 
L 200.200552 176.861106 
L 200.169276 176.856414 
L 200.169868 176.864675 
L 200.168604 176.863283 
L 200.159989 176.859039 
L 200.151576 176.858047 
L 200.142479 176.8529 
L 200.134654 176.850889 
" style="fill:none;stroke:#ffc0cb;"/>
   </g>
   <g id="matplotlib.axis_1">
    <g id="xtick_1">
     <g id="line2d_1">
      <defs>
       <path d="M 0 0 
L 0 3.5 
" id="m28d96a1687" style="stroke:#000000;stroke-width:0.8;"/>
      </defs>
      <g>
       <use style="stroke:#000000;stroke-width:0.8;" x="146.13734" xlink:href="#m28d96a1687" y="252"/>
      </g>
     </g>
     <g id="text_1">
      <!-- 11 -->
      <defs>
       <path d="M 12.40625 8.296875 
L 28.515625 8.296875 
L 28.515625 63.921875 
L 10.984375 60.40625 
L 10.984375 69.390625 
L 28.421875 72.90625 
L 38.28125 72.90625 
L 38.28125 8.296875 
L 54.390625 8.296875 
L 54.390625 0 
L 12.40625 0 
z
" id="DejaVuSans-49"/>
      </defs>
      <g transform="translate(139.77484 266.598437)scale(0.1 -0.1)">
       <use xlink:href="#DejaVuSans-49"/>
       <use x="63.623047" xlink:href="#DejaVuSans-49"/>
      </g>
     </g>
    </g>
    <g id="xtick_2">
     <g id="line2d_2">
      <g>
       <use style="stroke:#000000;stroke-width:0.8;" x="188.11848" xlink:href="#m28d96a1687" y="252"/>
      </g>
     </g>
     <g id="text_2">
      <!-- 12 -->
      <defs>
       <path d="M 19.1875 8.296875 
L 53.609375 8.296875 
L 53.609375 0 
L 7.328125 0 
L 7.328125 8.296875 
Q 12.9375 14.109375 22.625 23.890625 
Q 32.328125 33.6875 34.8125 36.53125 
Q 39.546875 41.84375 41.421875 45.53125 
Q 43.3125 49.21875 43.3125 52.78125 
Q 43.3125 58.59375 39.234375 62.25 
Q 35.15625 65.921875 28.609375 65.921875 
Q 23.96875 65.921875 18.8125 64.3125 
Q 13.671875 62.703125 7.8125 59.421875 
L 7.8125 69.390625 
Q 13.765625 71.78125 18.9375 73 
Q 24.125 74.21875 28.421875 74.21875 
Q 39.75 74.21875 46.484375 68.546875 
Q 53.21875 62.890625 53.21875 53.421875 
Q 53.21875 48.921875 51.53125 44.890625 
Q 49.859375 40.875 45.40625 35.40625 
Q 44.1875 33.984375 37.640625 27.21875 
Q 31.109375 20.453125 19.1875 8.296875 
z
" id="DejaVuSans-50"/>
      </defs>
      <g transform="translate(181.75598 266.598437)scale(0.1 -0.1)">
       <use xlink:href="#DejaVuSans-49"/>
       <use x="63.623047" xlink:href="#DejaVuSans-50"/>
      </g>
     </g>
    </g>
    <g id="xtick_3">
     <g id="line2d_3">
      <g>
       <use style="stroke:#000000;stroke-width:0.8;" x="230.09962" xlink:href="#m28d96a1687" y="252"/>
      </g>
     </g>
     <g id="text_3">
      <!-- 13 -->
      <defs>
       <path d="M 40.578125 39.3125 
Q 47.65625 37.796875 51.625 33 
Q 55.609375 28.21875 55.609375 21.1875 
Q 55.609375 10.40625 48.1875 4.484375 
Q 40.765625 -1.421875 27.09375 -1.421875 
Q 22.515625 -1.421875 17.65625 -0.515625 
Q 12.796875 0.390625 7.625 2.203125 
L 7.625 11.71875 
Q 11.71875 9.328125 16.59375 8.109375 
Q 21.484375 6.890625 26.8125 6.890625 
Q 36.078125 6.890625 40.9375 10.546875 
Q 45.796875 14.203125 45.796875 21.1875 
Q 45.796875 27.640625 41.28125 31.265625 
Q 36.765625 34.90625 28.71875 34.90625 
L 20.21875 34.90625 
L 20.21875 43.015625 
L 29.109375 43.015625 
Q 36.375 43.015625 40.234375 45.921875 
Q 44.09375 48.828125 44.09375 54.296875 
Q 44.09375 59.90625 40.109375 62.90625 
Q 36.140625 65.921875 28.71875 65.921875 
Q 24.65625 65.921875 20.015625 65.03125 
Q 15.375 64.15625 9.8125 62.3125 
L 9.8125 71.09375 
Q 15.4375 72.65625 20.34375 73.4375 
Q 25.25 74.21875 29.59375 74.21875 
Q 40.828125 74.21875 47.359375 69.109375 
Q 53.90625 64.015625 53.90625 55.328125 
Q 53.90625 49.265625 50.4375 45.09375 
Q 46.96875 40.921875 40.578125 39.3125 
z
" id="DejaVuSans-51"/>
      </defs>
      <g transform="translate(223.73712 266.598437)scale(0.1 -0.1)">
       <use xlink:href="#DejaVuSans-49"/>
       <use x="63.623047" xlink:href="#DejaVuSans-51"/>
      </g>
     </g>
    </g>
    <g id="xtick_4">
     <g id="line2d_4">
      <g>
       <use style="stroke:#000000;stroke-width:0.8;" x="272.080761" xlink:href="#m28d96a1687" y="252"/>
      </g>
     </g>
     <g id="text_4">
      <!-- 14 -->
      <defs>
       <path d="M 37.796875 64.3125 
L 12.890625 25.390625 
L 37.796875 25.390625 
z
M 35.203125 72.90625 
L 47.609375 72.90625 
L 47.609375 25.390625 
L 58.015625 25.390625 
L 58.015625 17.1875 
L 47.609375 17.1875 
L 47.609375 0 
L 37.796875 0 
L 37.796875 17.1875 
L 4.890625 17.1875 
L 4.890625 26.703125 
z
" id="DejaVuSans-52"/>
      </defs>
      <g transform="translate(265.718261 266.598437)scale(0.1 -0.1)">
       <use xlink:href="#DejaVuSans-49"/>
       <use x="63.623047" xlink:href="#DejaVuSans-52"/>
      </g>
     </g>
    </g>
    <g id="xtick_5">
     <g id="line2d_5">
      <g>
       <use style="stroke:#000000;stroke-width:0.8;" x="314.061901" xlink:href="#m28d96a1687" y="252"/>
      </g>
     </g>
     <g id="text_5">
      <!-- 15 -->
      <defs>
       <path d="M 10.796875 72.90625 
L 49.515625 72.90625 
L 49.515625 64.59375 
L 19.828125 64.59375 
L 19.828125 46.734375 
Q 21.96875 47.46875 24.109375 47.828125 
Q 26.265625 48.1875 28.421875 48.1875 
Q 40.625 48.1875 47.75 41.5 
Q 54.890625 34.8125 54.890625 23.390625 
Q 54.890625 11.625 47.5625 5.09375 
Q 40.234375 -1.421875 26.90625 -1.421875 
Q 22.3125 -1.421875 17.546875 -0.640625 
Q 12.796875 0.140625 7.71875 1.703125 
L 7.71875 11.625 
Q 12.109375 9.234375 16.796875 8.0625 
Q 21.484375 6.890625 26.703125 6.890625 
Q 35.15625 6.890625 40.078125 11.328125 
Q 45.015625 15.765625 45.015625 23.390625 
Q 45.015625 31 40.078125 35.4375 
Q 35.15625 39.890625 26.703125 39.890625 
Q 22.75 39.890625 18.8125 39.015625 
Q 14.890625 38.140625 10.796875 36.28125 
z
" id="DejaVuSans-53"/>
      </defs>
      <g transform="translate(307.699401 266.598437)scale(0.1 -0.1)">
       <use xlink:href="#DejaVuSans-49"/>
       <use x="63.623047" xlink:href="#DejaVuSans-53"/>
      </g>
     </g>
    </g>
   </g>
   <g id="matplotlib.axis_2">
    <g id="ytick_1">
     <g id="line2d_6">
      <defs>
       <path d="M 0 0 
L -3.5 0 
" id="mb9fb50242a" style="stroke:#000000;stroke-width:0.8;"/>
      </defs>
      <g>
       <use style="stroke:#000000;stroke-width:0.8;" x="112.571545" xlink:href="#mb9fb50242a" y="226.884872"/>
      </g>
     </g>
     <g id="text_6">
      <!-- 51.5 -->
      <defs>
       <path d="M 10.6875 12.40625 
L 21 12.40625 
L 21 0 
L 10.6875 0 
z
" id="DejaVuSans-46"/>
      </defs>
      <g transform="translate(83.30592 230.684091)scale(0.1 -0.1)">
       <use xlink:href="#DejaVuSans-53"/>
       <use x="63.623047" xlink:href="#DejaVuSans-49"/>
       <use x="127.246094" xlink:href="#DejaVuSans-46"/>
       <use x="159.033203" xlink:href="#DejaVuSans-53"/>
      </g>
     </g>
    </g>
    <g id="ytick_2">
     <g id="line2d_7">
      <g>
       <use style="stroke:#000000;stroke-width:0.8;" x="112.571545" xlink:href="#mb9fb50242a" y="192.436147"/>
      </g>
     </g>
     <g id="text_7">
      <!-- 52.0 -->
      <defs>
       <path d="M 31.78125 66.40625 
Q 24.171875 66.40625 20.328125 58.90625 
Q 16.5 51.421875 16.5 36.375 
Q 16.5 21.390625 20.328125 13.890625 
Q 24.171875 6.390625 31.78125 6.390625 
Q 39.453125 6.390625 43.28125 13.890625 
Q 47.125 21.390625 47.125 36.375 
Q 47.125 51.421875 43.28125 58.90625 
Q 39.453125 66.40625 31.78125 66.40625 
z
M 31.78125 74.21875 
Q 44.046875 74.21875 50.515625 64.515625 
Q 56.984375 54.828125 56.984375 36.375 
Q 56.984375 17.96875 50.515625 8.265625 
Q 44.046875 -1.421875 31.78125 -1.421875 
Q 19.53125 -1.421875 13.0625 8.265625 
Q 6.59375 17.96875 6.59375 36.375 
Q 6.59375 54.828125 13.0625 64.515625 
Q 19.53125 74.21875 31.78125 74.21875 
z
" id="DejaVuSans-48"/>
      </defs>
      <g transform="translate(83.30592 196.235365)scale(0.1 -0.1)">
       <use xlink:href="#DejaVuSans-53"/>
       <use x="63.623047" xlink:href="#DejaVuSans-50"/>
       <use x="127.246094" xlink:href="#DejaVuSans-46"/>
       <use x="159.033203" xlink:href="#DejaVuSans-48"/>
      </g>
     </g>
    </g>
    <g id="ytick_3">
     <g id="line2d_8">
      <g>
       <use style="stroke:#000000;stroke-width:0.8;" x="112.571545" xlink:href="#mb9fb50242a" y="157.987421"/>
      </g>
     </g>
     <g id="text_8">
      <!-- 52.5 -->
      <g transform="translate(83.30592 161.78664)scale(0.1 -0.1)">
       <use xlink:href="#DejaVuSans-53"/>
       <use x="63.623047" xlink:href="#DejaVuSans-50"/>
       <use x="127.246094" xlink:href="#DejaVuSans-46"/>
       <use x="159.033203" xlink:href="#DejaVuSans-53"/>
      </g>
     </g>
    </g>
    <g id="ytick_4">
     <g id="line2d_9">
      <g>
       <use style="stroke:#000000;stroke-width:0.8;" x="112.571545" xlink:href="#mb9fb50242a" y="123.538695"/>
      </g>
     </g>
     <g id="text_9">
      <!-- 53.0 -->
      <g transform="translate(83.30592 127.337914)scale(0.1 -0.1)">
       <use xlink:href="#DejaVuSans-53"/>
       <use x="63.623047" xlink:href="#DejaVuSans-51"/>
       <use x="127.246094" xlink:href="#DejaVuSans-46"/>
       <use x="159.033203" xlink:href="#DejaVuSans-48"/>
      </g>
     </g>
    </g>
    <g id="ytick_5">
     <g id="line2d_10">
      <g>
       <use style="stroke:#000000;stroke-width:0.8;" x="112.571545" xlink:href="#mb9fb50242a" y="89.08997"/>
      </g>
     </g>
     <g id="text_10">
      <!-- 53.5 -->
      <g transform="translate(83.30592 92.889188)scale(0.1 -0.1)">
       <use xlink:href="#DejaVuSans-53"/>
       <use x="63.623047" xlink:href="#DejaVuSans-51"/>
       <use x="127.246094" xlink:href="#DejaVuSans-46"/>
       <use x="159.033203" xlink:href="#DejaVuSans-53"/>
      </g>
     </g>
    </g>
    <g id="ytick_6">
     <g id="line2d_11">
      <g>
       <use style="stroke:#000000;stroke-width:0.8;" x="112.571545" xlink:href="#mb9fb50242a" y="54.641244"/>
      </g>
     </g>
     <g id="text_11">
      <!-- 54.0 -->
      <g transform="translate(83.30592 58.440463)scale(0.1 -0.1)">
       <use xlink:href="#DejaVuSans-53"/>
       <use x="63.623047" xlink:href="#DejaVuSans-52"/>
       <use x="127.246094" xlink:href="#DejaVuSans-46"/>
       <use x="159.033203" xlink:href="#DejaVuSans-48"/>
      </g>
     </g>
    </g>
   </g>
   <g id="patch_3">
    <path d="M 112.571545 252 
L 112.571545 34.56 
" style="fill:none;stroke:#000000;stroke-linecap:square;stroke-linejoin:miter;stroke-width:0.8;"/>
   </g>
   <g id="patch_4">
    <path d="M 330.228455 252 
L 330.228455 34.56 
" style="fill:none;stroke:#000000;stroke-linecap:square;stroke-linejoin:miter;stroke-width:0.8;"/>
   </g>
   <g id="patch_5">
    <path d="M 112.571545 252 
L 330.228455 252 
" style="fill:none;stroke:#000000;stroke-linecap:square;stroke-linejoin:miter;stroke-width:0.8;"/>
   </g>
   <g id="patch_6">
    <path d="M 112.571545 34.56 
L 330.228455 34.56 
" style="fill:none;stroke:#000000;stroke-linecap:square;stroke-linejoin:miter;stroke-width:0.8;"/>
   </g>
  </g>
 </g>
 <defs>
  <clipPath id="p9432212a3a">
   <rect height="217.44" width="217.656911" x="112.571545" y="34.56"/>
  </clipPath>
 </defs>
</svg>
