<?xml version="1.0" encoding="utf-8" standalone="no"?>
<!DOCTYPE svg PUBLIC "-//W3C//DTD SVG 1.1//EN"
  "http://www.w3.org/Graphics/SVG/1.1/DTD/svg11.dtd">
<!-- Created with matplotlib (https://matplotlib.org/) -->
<svg height="288pt" version="1.1" viewBox="0 0 432 288" width="432pt" xmlns="http://www.w3.org/2000/svg" xmlns:xlink="http://www.w3.org/1999/xlink">
 <defs>
  <style type="text/css">
*{stroke-linecap:butt;stroke-linejoin:round;}
  </style>
 </defs>
 <g id="figure_1">
  <g id="patch_1">
   <path d="M 0 288 
L 432 288 
L 432 0 
L 0 0 
z
" style="fill:#ffffff;"/>
  </g>
  <g id="axes_1">
   <g id="patch_2">
    <path d="M 129.162035 252 
L 313.637965 252 
L 313.637965 34.56 
L 129.162035 34.56 
z
" style="fill:#ffffff;"/>
   </g>
   <g id="PatchCollection_1">
    <path clip-path="url(#p0d975227d3)" d="M 234.191939 115.053851 
L 305.103714 114.39426 
L 305.252695 44.443636 
L 232.665876 45.127308 
L 234.191939 115.053851 
" style="fill:none;stroke:#0000ff;stroke-opacity:0.2;"/>
    <path clip-path="url(#p0d975227d3)" d="M 201.362564 116.101143 
L 240.544737 114.929312 
L 239.168611 44.998223 
L 220.69878 45.557576 
L 220.230336 47.232167 
L 217.361137 57.536217 
L 214.509981 67.846642 
L 211.672074 78.160716 
L 208.849582 88.476012 
L 206.032378 98.786779 
L 203.238986 109.097379 
L 201.362564 116.101143 
" style="fill:none;stroke:#0000ff;stroke-opacity:0.2;"/>
    <path clip-path="url(#p0d975227d3)" d="M 235.358418 184.250765 
L 239.813239 114.512067 
L 202.316942 112.538917 
L 200.476315 119.409074 
L 197.723852 129.718424 
L 194.996495 140.03085 
L 192.283509 150.343424 
L 189.578066 160.657281 
L 186.883603 170.980368 
L 184.198896 181.30517 
L 184.125222 181.589638 
L 235.358418 184.250765 
" style="fill:none;stroke:#0000ff;stroke-opacity:0.2;"/>
    <path clip-path="url(#p0d975227d3)" d="M 184.461081 180.296866 
L 241.729079 178.604262 
L 240.424708 108.661753 
L 203.055933 109.780627 
L 200.476315 119.409074 
L 197.723852 129.718424 
L 194.996495 140.03085 
L 192.283509 150.343424 
L 189.578066 160.657281 
L 186.883603 170.980368 
L 184.461081 180.296866 
" style="fill:none;stroke:#0000ff;stroke-opacity:0.2;"/>
    <path clip-path="url(#p0d975227d3)" d="M 239.403353 120.760985 
L 244.10207 51.042339 
L 219.533532 49.734574 
L 217.361137 57.536217 
L 214.509981 67.846642 
L 211.672074 78.160716 
L 208.849582 88.476012 
L 206.032378 98.786779 
L 203.238986 109.097379 
L 200.659714 118.724537 
L 239.403353 120.760985 
" style="fill:none;stroke:#0000ff;stroke-opacity:0.2;"/>
   </g>
   <g id="PatchCollection_2">
    <path clip-path="url(#p0d975227d3)" d="M 137.547305 117.160972 
L 137.682183 117.5504 
L 137.75758 118.799596 
L 138.28613 119.446832 
L 139.013216 120.046006 
L 139.554912 120.437858 
L 139.89437 120.99328 
L 140.531272 121.811911 
L 140.907409 121.956862 
L 141.371108 121.906511 
L 143.842289 120.588493 
L 144.607558 120.468399 
L 145.159839 120.26165 
L 145.586993 120.283324 
L 146.057745 120.521784 
L 146.810269 121.331917 
L 147.99183 122.410086 
L 148.547397 122.513567 
L 149.036884 122.367603 
L 149.614753 122.08123 
L 149.933701 122.233673 
L 150.524683 122.944344 
L 151.39814 123.309397 
L 151.866318 123.273377 
L 152.954184 122.856457 
L 153.428589 122.935903 
L 153.746228 123.22029 
L 153.743702 123.505968 
L 153.363575 123.969909 
L 153.07624 124.423416 
L 153.090531 124.886563 
L 153.388429 125.252821 
L 153.882265 125.439476 
L 154.268131 125.398212 
L 155.118548 125.152728 
L 155.30561 125.269803 
L 155.571321 125.695584 
L 155.585517 126.14637 
L 155.696025 127.038628 
L 155.937758 127.288449 
L 156.406566 127.407218 
L 156.973497 127.048268 
L 157.122044 126.936431 
L 157.797353 126.619652 
L 158.605485 126.815798 
L 158.937597 127.056015 
L 159.340605 127.589854 
L 159.686044 128.237537 
L 160.193907 128.664792 
L 161.09037 128.802528 
L 161.987084 128.856189 
L 162.431526 129.105953 
L 162.68552 129.407996 
L 162.675764 129.923854 
L 162.42532 130.281316 
L 161.676056 131.1611 
L 161.614959 131.507718 
L 161.865744 132.022258 
L 162.172604 132.211798 
L 162.720942 132.251936 
L 163.755877 132.287672 
L 164.037969 132.584392 
L 164.530354 133.207644 
L 165.035072 133.427044 
L 165.858532 133.48904 
L 166.702419 133.643163 
L 167.092276 133.88019 
L 167.575142 134.334286 
L 167.549152 134.208146 
L 167.920244 134.378605 
L 168.700451 134.54022 
L 168.679898 134.482391 
L 169.056519 134.172934 
L 169.493165 134.12826 
L 169.617182 133.798334 
L 169.637385 133.803437 
L 170.33558 133.642511 
L 170.47796 133.744772 
L 171.32959 133.828039 
L 171.33736 133.874768 
L 171.391642 133.83575 
L 171.701059 133.720504 
L 172.109215 133.838663 
L 172.106515 134.046539 
L 172.134505 134.048871 
L 172.433505 133.949636 
L 172.580312 133.895762 
L 172.763409 134.17387 
L 172.831555 134.544805 
L 173.368824 134.497105 
L 173.778612 134.529716 
L 174.108573 134.612904 
L 174.353092 133.767396 
L 174.65476 133.30096 
L 174.654056 133.304604 
L 174.796488 133.354749 
L 174.440857 134.324959 
L 174.487798 134.693917 
L 174.993216 135.326432 
L 174.590113 136.171869 
L 174.761451 136.150677 
L 175.316621 135.905243 
L 176.693458 135.399435 
L 176.771537 135.312745 
L 177.427502 134.694278 
L 177.645845 134.485878 
L 177.747314 134.465742 
L 177.751995 134.486388 
L 177.990183 135.166037 
L 178.242289 135.313986 
L 178.240622 135.381057 
L 178.275466 135.423845 
L 178.3079 135.58356 
L 178.326436 135.577316 
L 178.540054 135.531288 
L 178.737831 135.335667 
L 179.070478 135.52605 
L 179.351369 135.871293 
L 179.313697 135.993379 
L 179.254456 136.391376 
L 179.387068 136.66173 
L 179.515879 136.8932 
L 179.540806 137.425934 
L 179.967999 138.987011 
L 180.374955 139.638557 
L 180.140503 139.727352 
L 180.286118 140.090661 
L 179.94216 140.291286 
L 179.908884 140.744312 
L 179.599191 140.858417 
L 178.740072 140.712396 
L 178.890036 140.911929 
L 178.798678 141.827989 
L 178.415968 141.967177 
L 178.529628 142.55937 
L 178.402048 142.539886 
L 178.209139 142.589344 
L 178.127096 142.787212 
L 178.322152 143.347992 
L 178.678392 143.433739 
L 178.727189 143.683553 
L 178.704093 144.065822 
L 178.79711 144.296995 
L 178.716924 144.49224 
L 178.589802 144.538736 
L 177.923959 145.072122 
L 177.928615 145.071321 
L 178.078069 145.11328 
L 178.139749 145.195689 
L 178.021809 145.336643 
L 178.141503 145.307704 
L 177.912687 145.521909 
L 177.910809 145.514332 
L 177.781475 145.632697 
L 177.839247 145.854642 
L 178.172689 145.712689 
L 178.332936 145.955202 
L 178.150754 146.279593 
L 178.379703 146.434055 
L 178.619445 146.513863 
L 178.749466 146.661479 
L 178.912779 146.894211 
L 178.770109 146.969405 
L 178.627832 147.219219 
L 178.808939 147.852719 
L 179.011026 147.907075 
L 179.282031 147.870856 
L 179.273653 147.95087 
L 179.095017 148.179066 
L 179.065529 148.34781 
L 179.296288 148.401592 
L 179.397549 148.542978 
L 179.501441 148.956553 
L 179.560824 149.207869 
L 179.389141 150.115409 
L 179.457109 151.234496 
L 179.220494 151.332122 
L 179.216698 152.051363 
L 179.466904 152.051263 
L 179.26397 152.156629 
L 178.41117 152.395868 
L 178.146215 152.571835 
L 177.874484 152.837391 
L 177.511199 152.741366 
L 176.446728 152.215755 
L 176.481006 153.023953 
L 176.580057 152.983986 
L 176.808704 152.917843 
L 176.728557 153.001039 
L 176.586405 153.520299 
L 176.653242 153.67793 
L 176.823159 153.682643 
L 176.726833 154.481536 
L 176.923893 155.863265 
L 177.076427 155.918797 
L 177.025621 155.981254 
L 176.000861 157.283601 
L 175.951161 157.529545 
L 175.624565 158.441188 
L 175.42563 158.676699 
L 175.417541 159.260968 
L 175.531331 159.149528 
L 175.971044 159.078452 
L 176.082783 158.805207 
L 176.744074 158.509181 
L 177.098872 158.851029 
L 177.388253 158.965949 
L 177.34453 159.040554 
L 176.497944 160.362463 
L 176.667459 160.857739 
L 177.152342 161.417506 
L 177.21261 161.553278 
L 177.281986 161.500035 
L 177.430435 161.325861 
L 177.843043 161.435572 
L 178.015167 161.421985 
L 178.243257 161.233338 
L 178.403072 160.996134 
L 178.413925 161.039574 
L 178.776376 161.228249 
L 178.814644 161.233679 
L 178.892571 161.011854 
L 179.067882 160.788109 
L 178.949618 160.348791 
L 179.287577 159.937682 
L 179.399652 159.555406 
L 179.654312 159.678336 
L 179.853462 159.827603 
L 179.908129 159.923649 
L 180.35527 159.94791 
L 180.384719 160.082314 
L 180.389371 160.308717 
L 180.373067 160.475867 
L 180.433068 160.8554 
L 180.530878 161.007084 
L 180.736097 161.141184 
L 180.87047 161.179238 
L 180.900541 161.185347 
L 180.836101 161.250377 
L 180.555491 161.585158 
L 180.649264 161.610469 
L 180.933213 161.819847 
L 180.977337 162.135917 
L 181.008588 162.127178 
L 181.471389 161.968484 
L 181.620748 161.777335 
L 181.977248 161.719733 
L 182.008856 161.582104 
L 182.193237 161.569417 
L 182.665254 161.89682 
L 183.36141 161.506676 
L 183.498206 161.513197 
L 183.493369 161.573435 
L 183.392504 161.869248 
L 182.983839 161.927077 
L 182.796047 161.919004 
L 182.605927 162.204256 
L 182.636284 162.410552 
L 182.620356 162.799625 
L 182.668156 162.804728 
L 182.79105 162.887718 
L 182.986875 162.968858 
L 183.303651 162.792034 
L 183.42559 162.709327 
L 183.448389 162.734205 
L 183.522879 162.789908 
L 183.47685 162.85773 
L 183.285909 163.235179 
L 183.111251 163.899228 
L 182.845082 164.062231 
L 182.849202 164.189144 
L 182.931729 164.431955 
L 182.882901 164.631141 
L 182.523469 164.66059 
L 182.372322 164.76047 
L 182.428017 165.127834 
L 182.525305 165.17277 
L 182.462169 165.296607 
L 182.288556 165.644146 
L 182.19325 165.982187 
L 181.726091 166.163661 
L 181.814133 166.293834 
L 182.075905 166.643727 
L 182.015866 166.658887 
L 181.733653 166.804341 
L 181.113473 167.386647 
L 181.171931 167.498186 
L 181.846964 167.794134 
L 182.128244 167.715574 
L 182.163731 167.69127 
L 182.214403 167.769334 
L 182.265671 168.138448 
L 182.164858 168.727289 
L 181.999813 168.899173 
L 181.903855 169.480968 
L 182.054583 169.72957 
L 182.476395 169.917331 
L 182.389558 170.005956 
L 182.206206 170.384943 
L 181.730017 170.463362 
L 181.512253 170.615308 
L 181.586362 170.972947 
L 182.124206 171.658535 
L 182.185683 171.919817 
L 182.542666 172.262069 
L 182.082241 173.061854 
L 181.718343 173.829439 
L 181.455163 174.030234 
L 181.242141 174.498329 
L 180.862731 175.345346 
L 180.608465 175.85136 
L 180.511479 176.119665 
L 180.510455 176.118992 
L 180.069758 177.364276 
L 180.067728 177.663945 
L 180.188726 178.10232 
L 180.186446 178.224753 
L 179.835682 178.979028 
L 180.298582 179.146426 
L 180.563697 179.207876 
L 180.377632 179.448037 
L 180.46744 179.487168 
L 180.689234 179.513988 
L 180.705576 179.449511 
L 180.934418 179.54287 
L 180.81123 179.582002 
L 180.912487 179.649675 
L 181.101484 179.932574 
L 180.95041 179.958678 
L 180.649972 179.956517 
L 180.641443 179.892996 
L 180.544124 179.994067 
L 180.559637 180.003692 
L 180.736472 180.101687 
L 180.900157 180.026394 
L 181.579884 180.192063 
L 181.660563 180.389378 
L 182.06979 180.464337 
L 181.901562 180.609919 
L 181.559526 181.073045 
L 181.423978 181.213204 
L 181.465101 181.219874 
L 181.315154 181.306287 
L 180.646068 181.381318 
L 180.334877 181.439799 
L 179.856329 181.94499 
L 179.939932 182.04492 
L 180.024605 182.105959 
L 180.182537 182.097433 
L 180.169093 182.181656 
L 179.935034 182.659928 
L 179.929679 182.658029 
L 179.69011 182.938227 
L 179.79924 183.496215 
L 179.928811 183.668177 
L 179.839616 183.713489 
L 179.59562 183.756816 
L 179.094848 183.488631 
L 178.567413 184.59798 
L 178.796639 184.935943 
L 179.329071 185.149943 
L 179.243482 185.710964 
L 179.258399 185.712013 
L 180.204049 187.092644 
L 180.683114 187.43323 
L 180.801681 187.808744 
L 180.884476 188.418571 
L 181.018534 188.965736 
L 181.430788 189.302885 
L 181.620783 189.380977 
L 183.040855 190.438855 
L 183.287309 191.32567 
L 183.68579 192.056541 
L 184.178516 192.414528 
L 184.308584 192.550661 
L 184.773833 193.387324 
L 185.957869 193.601529 
L 186.059217 193.59868 
L 186.565836 194.266711 
L 187.012636 194.705243 
L 187.457618 194.924225 
L 187.576711 195.188313 
L 187.898415 195.401172 
L 188.392708 195.504985 
L 188.681459 195.455024 
L 188.750024 194.983457 
L 188.780423 194.846111 
L 189.242106 194.224525 
L 189.926782 194.314291 
L 189.998456 194.337284 
L 190.076111 194.973399 
L 190.19473 195.477662 
L 190.376363 195.617871 
L 190.910393 196.115862 
L 191.632414 196.293005 
L 192.377683 196.481078 
L 192.397233 196.71768 
L 192.562028 197.479567 
L 192.528597 197.708727 
L 192.636056 197.759596 
L 193.448796 197.836448 
L 195.681708 197.955011 
L 195.806571 197.941098 
L 195.752997 197.27683 
L 196.87632 197.102132 
L 197.084449 196.992917 
L 197.249041 196.112949 
L 197.551176 195.778352 
L 198.196862 195.803506 
L 198.369193 196.000913 
L 198.571073 196.336254 
L 198.784449 196.471913 
L 199.794306 196.653522 
L 199.97213 196.70685 
L 199.919839 196.809331 
L 200.02874 196.957443 
L 200.990775 197.522384 
L 201.020427 197.469616 
L 201.253748 197.44522 
L 201.620659 197.594182 
L 201.946072 197.756399 
L 202.102372 197.998678 
L 202.356569 198.146868 
L 202.644496 198.208886 
L 202.782367 198.403139 
L 202.755587 199.173928 
L 203.733968 199.371725 
L 204.78005 199.273064 
L 205.217923 199.064813 
L 205.70129 198.986352 
L 205.702715 198.992022 
L 206.050482 200.782203 
L 206.139604 201.29833 
L 207.380392 201.355464 
L 207.622721 201.307828 
L 207.624617 201.342501 
L 207.750608 201.766396 
L 208.108739 201.790523 
L 208.750889 201.561625 
L 208.948722 200.985989 
L 209.255081 201.075981 
L 210.039939 201.240905 
L 210.715901 201.377954 
L 210.689029 201.484532 
L 210.536509 202.165782 
L 210.623575 202.178511 
L 211.406943 202.398798 
L 211.261276 203.705546 
L 211.30908 203.680158 
L 211.848401 203.49166 
L 212.49141 203.552593 
L 213.069098 203.666897 
L 213.371052 204.014741 
L 213.371155 203.844111 
L 213.403784 203.544563 
L 213.483434 203.574572 
L 214.399133 203.85263 
L 214.507184 204.362414 
L 214.04104 204.425991 
L 214.047104 205.177382 
L 214.043722 205.1769 
L 213.586618 205.119503 
L 213.695316 205.333921 
L 213.915874 205.576165 
L 214.233229 205.874678 
L 215.199474 205.982199 
L 215.797551 206.052871 
L 215.896667 206.089465 
L 215.902488 206.042154 
L 216.117955 205.63977 
L 216.806868 205.638593 
L 217.256402 205.568418 
L 217.332856 205.557616 
L 217.413479 205.431802 
L 217.562212 205.340725 
L 217.554693 204.971774 
L 217.671692 204.974269 
L 218.140647 205.018524 
L 218.131798 205.22224 
L 218.417449 205.22326 
L 218.471429 205.462648 
L 218.609313 205.570254 
L 218.674794 205.71468 
L 218.880984 205.734207 
L 218.950878 206.520653 
L 218.905467 206.646517 
L 217.753113 206.90295 
L 217.92113 207.600523 
L 218.208547 208.284304 
L 218.354511 208.604952 
L 218.428803 208.676673 
L 218.691404 209.468591 
L 218.88912 209.501031 
L 218.826438 209.655536 
L 219.106331 209.930958 
L 219.361414 210.818801 
L 219.274927 211.054255 
L 219.400736 211.467653 
L 219.334327 211.715631 
L 219.78919 211.777613 
L 219.741148 212.083335 
L 219.64348 212.064666 
L 219.311433 212.081684 
L 219.308868 212.105016 
L 219.385266 212.277241 
L 219.29839 212.700923 
L 218.78671 213.235805 
L 218.961304 213.296894 
L 219.118476 213.440264 
L 219.05876 213.419512 
L 218.87993 213.746532 
L 218.975443 213.797627 
L 219.494548 214.175169 
L 219.429944 214.370152 
L 219.160683 214.56758 
L 219.249053 214.715125 
L 219.243482 214.75931 
L 219.167001 214.683861 
L 219.141197 214.691466 
L 219.019464 214.822051 
L 219.138843 214.86822 
L 219.655624 215.190279 
L 219.675335 215.39999 
L 219.643618 215.432636 
L 219.74069 215.444834 
L 219.746888 215.463957 
L 219.916653 215.562823 
L 220.05497 215.620092 
L 220.495447 216.83952 
L 220.060675 216.745388 
L 219.986211 216.665594 
L 219.758354 216.685093 
L 219.657719 216.67215 
L 219.761235 217.395289 
L 219.681554 217.34379 
L 219.200541 217.108846 
L 219.101227 217.333215 
L 219.357475 218.02185 
L 219.379717 218.301425 
L 219.277505 218.307386 
L 219.180307 218.32361 
L 219.297371 218.406884 
L 219.436629 218.538843 
L 219.264212 218.675125 
L 217.776465 219.723654 
L 214.622114 221.666355 
L 214.649975 221.70801 
L 216.394657 224.545414 
L 216.577413 224.548824 
L 216.678005 224.489939 
L 216.62469 224.423279 
L 216.601075 224.377464 
L 216.826777 224.284537 
L 216.964822 224.358022 
L 216.906506 224.187393 
L 216.886186 224.196273 
L 216.720635 224.25518 
L 216.796209 223.827655 
L 216.822726 223.910376 
L 216.919665 223.875136 
L 217.039151 224.21636 
L 217.223221 224.039146 
L 217.205043 223.99129 
L 217.384919 223.926976 
L 217.418251 223.779409 
L 217.630133 223.60659 
L 217.667715 223.796392 
L 217.986339 224.234795 
L 218.455773 224.8567 
L 218.632734 225.138975 
L 218.634418 225.224652 
L 219.126293 225.092756 
L 219.405292 225.602945 
L 219.088776 225.828454 
L 219.09461 226.130143 
L 218.855853 226.548949 
L 218.552876 227.216506 
L 218.70902 227.446616 
L 218.77086 227.614503 
L 219.243041 227.574811 
L 219.488424 227.977245 
L 220.438604 228.017369 
L 220.741356 229.518455 
L 221.277753 230.383313 
L 221.40928 230.406908 
L 221.382992 231.080709 
L 221.367147 231.648293 
L 221.36662 231.783357 
L 221.150341 231.838804 
L 221.234289 232.219896 
L 221.150406 232.338148 
L 221.168126 232.367115 
L 221.109836 232.434484 
L 220.939267 232.61941 
L 220.981137 232.642261 
L 221.12902 232.705844 
L 220.797781 232.961137 
L 220.700933 232.934806 
L 220.48256 232.67541 
L 220.296124 232.699777 
L 220.355753 232.752659 
L 220.498258 233.084236 
L 220.462508 233.349218 
L 220.290963 234.030766 
L 220.431089 234.397442 
L 220.823395 234.787855 
L 221.163146 235.017114 
L 221.229344 235.251264 
L 221.102183 235.807168 
L 220.700134 236.457962 
L 220.711449 236.582054 
L 220.631047 236.520114 
L 220.428614 236.508214 
L 219.973233 236.952217 
L 220.020389 237.329666 
L 220.490519 237.454119 
L 220.598108 237.29663 
L 220.567877 236.820251 
L 220.605484 236.832434 
L 220.759512 236.657247 
L 221.18921 237.062757 
L 221.223328 237.411855 
L 221.15032 238.043158 
L 221.907214 239.579166 
L 222.819027 239.610551 
L 223.105929 239.656968 
L 223.027808 239.625534 
L 223.258156 239.655721 
L 223.263684 239.753481 
L 223.561406 239.835316 
L 223.798155 240.158247 
L 223.811418 240.294572 
L 224.028366 240.307528 
L 224.098338 239.85911 
L 224.028262 239.869734 
L 223.821273 239.858812 
L 223.811919 239.598586 
L 223.622723 239.455266 
L 223.662361 239.113283 
L 223.698569 239.142286 
L 223.865398 239.176378 
L 224.795621 239.264783 
L 224.793876 239.225886 
L 224.759818 238.451035 
L 225.690339 238.005239 
L 225.779599 237.972614 
L 226.073455 237.566509 
L 226.615199 237.338575 
L 226.551488 237.116659 
L 226.318747 236.581515 
L 226.280798 236.56527 
L 226.459633 236.574179 
L 226.818426 236.572953 
L 226.817372 236.66313 
L 227.022642 237.152757 
L 228.025152 236.890568 
L 228.645712 237.398403 
L 228.779231 237.421665 
L 228.953164 237.28293 
L 228.942056 237.264785 
L 228.624019 236.461966 
L 228.828093 236.648494 
L 228.94501 236.594422 
L 229.232099 236.024264 
L 229.293299 235.765308 
L 229.720501 235.474137 
L 229.790884 235.37768 
L 229.811704 235.396037 
L 230.026838 235.779044 
L 229.967041 235.982256 
L 230.193991 236.321821 
L 230.225976 236.418157 
L 230.56282 236.472449 
L 230.596325 236.637529 
L 230.732318 236.825191 
L 230.870583 236.810377 
L 230.874543 236.867015 
L 230.910199 237.025851 
L 230.884951 237.044967 
L 230.892336 237.095212 
L 230.949927 237.12043 
L 230.961397 237.294674 
L 230.644984 237.686242 
L 230.778995 237.675986 
L 230.981324 237.589835 
L 231.131063 237.263474 
L 231.20085 237.256039 
L 231.215547 237.333316 
L 231.605719 237.324513 
L 231.670133 237.370428 
L 231.584799 237.174445 
L 231.687555 237.028162 
L 231.716361 237.108125 
L 231.811983 237.20466 
L 231.984015 237.639151 
L 232.422074 237.553007 
L 232.484035 237.288026 
L 232.517588 237.331764 
L 232.975025 237.902333 
L 232.919054 237.87009 
L 232.529944 237.661435 
L 232.530246 237.752009 
L 232.441211 238.116417 
L 232.410077 238.11103 
L 232.516262 238.375161 
L 232.847894 238.503073 
L 233.101499 238.49308 
L 233.714627 238.727506 
L 233.851777 238.994323 
L 234.449358 238.939464 
L 234.930272 239.034411 
L 235.105293 240.559001 
L 235.164287 240.549347 
L 235.663456 240.582744 
L 235.705175 240.968125 
L 235.855312 241.383394 
L 236.008606 241.396053 
L 236.252641 240.686452 
L 236.50923 240.6527 
L 237.055707 240.231406 
L 237.679796 240.314347 
L 237.906193 240.332413 
L 237.804288 240.492227 
L 237.991441 240.815888 
L 237.954865 240.994619 
L 238.038511 241.003755 
L 238.143957 241.031893 
L 238.138909 241.391481 
L 238.18844 241.394458 
L 238.460694 241.403949 
L 239.27254 241.319888 
L 240.250136 241.423518 
L 240.55925 241.38854 
L 241.091975 241.332547 
L 241.317418 240.931354 
L 241.422955 241.042192 
L 241.913193 241.502121 
L 242.271895 241.058692 
L 242.851998 241.607281 
L 243.304537 241.796566 
L 243.780605 241.740573 
L 243.899181 241.743826 
L 244.540502 241.910132 
L 244.886018 241.57864 
L 244.986779 241.307712 
L 245.179658 241.227968 
L 245.643746 241.368737 
L 245.625038 241.409087 
L 245.447308 241.659468 
L 245.338796 241.694056 
L 245.341775 241.77329 
L 245.326146 241.840049 
L 245.397435 241.830339 
L 245.400329 241.846279 
L 245.390659 242.116364 
L 245.505775 241.86251 
L 245.957797 241.981775 
L 245.962712 241.9583 
L 246.188375 241.382289 
L 246.594492 241.288525 
L 246.979063 241.1944 
L 247.375895 241.167396 
L 247.827347 241.378405 
L 248.335654 240.903613 
L 248.549117 240.751801 
L 248.558748 240.640396 
L 248.45407 240.366555 
L 248.568677 240.41765 
L 248.968661 240.476535 
L 249.777748 240.698558 
L 249.836388 240.791251 
L 249.886135 240.772334 
L 250.61197 240.991876 
L 251.213303 240.818872 
L 251.281271 240.892152 
L 251.312016 240.870251 
L 251.641182 240.72503 
L 251.709194 240.734741 
L 251.704487 240.685559 
L 251.716402 240.413277 
L 252.073204 240.300022 
L 252.305647 240.24347 
L 253.265035 239.77848 
L 253.632245 239.423208 
L 253.936194 239.427241 
L 254.42229 239.779522 
L 254.336334 240.937315 
L 254.943415 241.076567 
L 255.637684 241.161457 
L 255.606593 241.097887 
L 255.515813 240.251068 
L 255.908797 239.926911 
L 255.964803 239.782761 
L 255.924427 239.786021 
L 255.775365 239.531317 
L 255.81876 239.512109 
L 256.268186 239.349389 
L 256.826474 239.479711 
L 256.795427 239.383963 
L 256.723917 239.097371 
L 256.326778 239.043306 
L 256.311101 238.868112 
L 256.611854 238.638562 
L 256.797919 238.619071 
L 257.33302 237.986272 
L 257.549393 237.863067 
L 257.46627 237.463078 
L 257.36399 237.366501 
L 257.269215 237.200939 
L 257.619672 237.221522 
L 257.487281 236.855696 
L 257.204572 236.767043 
L 257.238686 236.72239 
L 257.80448 236.283349 
L 258.314917 235.995609 
L 257.888583 235.448933 
L 257.977614 234.876522 
L 257.026065 233.898934 
L 257.279917 233.541997 
L 258.79355 234.092479 
L 258.910182 234.013528 
L 259.35582 233.718658 
L 259.453351 233.621755 
L 258.899195 232.913642 
L 258.799445 232.678925 
L 258.889392 232.64377 
L 259.261827 232.601598 
L 259.423193 232.499401 
L 259.802098 232.127402 
L 259.857538 231.756686 
L 260.335623 230.566218 
L 260.578556 230.537017 
L 260.777879 230.511643 
L 261.445505 230.626506 
L 261.607903 230.455359 
L 261.757444 230.499438 
L 261.632041 230.366416 
L 261.220214 229.771614 
L 261.278849 229.410892 
L 261.631937 229.008848 
L 261.828496 229.03053 
L 262.105677 229.190832 
L 265.181638 229.484179 
L 265.526874 229.798902 
L 266.198819 229.932477 
L 266.08331 230.081163 
L 266.552455 230.013305 
L 266.623624 229.851918 
L 266.9391 229.840571 
L 267.701263 229.995288 
L 269.667613 231.00964 
L 269.742526 231.605136 
L 269.898847 231.70788 
L 269.994784 231.761909 
L 270.387647 231.374402 
L 270.402987 231.067242 
L 270.428762 230.86824 
L 270.277973 230.86661 
L 270.292998 230.76931 
L 270.423877 230.629767 
L 270.995467 230.582485 
L 271.892078 229.750805 
L 272.24548 229.724325 
L 272.303468 229.730605 
L 272.286521 229.636239 
L 272.477591 229.200295 
L 273.024262 229.278174 
L 273.29652 229.492053 
L 273.477191 229.344997 
L 274.716135 228.984948 
L 274.947602 229.147647 
L 274.934758 229.014866 
L 274.981988 228.277254 
L 275.19124 228.154792 
L 275.65969 228.079131 
L 275.697397 228.208383 
L 275.769023 228.068783 
L 277.305088 227.960419 
L 277.304596 227.968527 
L 277.494668 228.087835 
L 277.582218 227.995893 
L 277.920609 228.285079 
L 278.805437 227.900414 
L 279.155908 227.740777 
L 279.229326 227.484578 
L 279.125461 226.909658 
L 279.497607 227.030943 
L 279.823568 226.924691 
L 280.068536 226.500562 
L 280.130013 226.378348 
L 280.169262 226.385953 
L 280.398061 226.391099 
L 280.723046 226.46849 
L 280.77865 226.774736 
L 280.872298 226.865862 
L 281.306737 226.903775 
L 281.480161 227.1438 
L 281.585132 227.577632 
L 281.938293 228.57323 
L 282.214412 228.537579 
L 282.734761 228.541675 
L 283.15351 228.324175 
L 283.268462 228.288779 
L 283.842307 228.276184 
L 284.301191 228.253992 
L 284.281415 228.37213 
L 284.393124 228.35434 
L 284.856413 228.452207 
L 285.292623 228.006858 
L 285.465399 227.538537 
L 285.610047 227.057011 
L 285.656145 226.782426 
L 285.531631 226.717658 
L 285.740175 226.71218 
L 285.811145 226.678974 
L 285.865233 226.728403 
L 286.135301 226.684708 
L 286.083964 226.658207 
L 286.021088 226.26588 
L 285.848061 226.008702 
L 285.69751 225.270261 
L 285.737679 225.269985 
L 286.192676 225.244171 
L 286.505949 225.57796 
L 286.731806 225.971435 
L 286.767984 226.042539 
L 287.134231 226.331257 
L 287.134019 226.309207 
L 287.268548 226.014216 
L 288.018995 225.396175 
L 288.123876 225.295734 
L 288.315628 224.992451 
L 288.536272 224.756501 
L 288.626793 224.559533 
L 288.685571 224.282474 
L 288.57661 223.675128 
L 288.358124 223.398778 
L 288.165033 222.979893 
L 288.255295 222.611828 
L 288.209948 222.348945 
L 288.174059 221.655199 
L 288.068794 221.244182 
L 288.283155 220.898245 
L 288.295688 220.634447 
L 288.125206 220.435715 
L 288.030833 220.099055 
L 287.925533 219.860894 
L 287.79781 219.615807 
L 287.470212 219.475903 
L 287.46436 219.263583 
L 287.544313 219.092939 
L 287.363936 218.737802 
L 287.067541 218.750695 
L 286.714013 218.426389 
L 286.20035 217.925146 
L 285.645443 217.462913 
L 285.347653 217.231371 
L 285.211155 216.990446 
L 284.949508 216.606079 
L 284.810932 216.27791 
L 284.444811 216.012071 
L 284.215688 215.408538 
L 284.051891 214.774407 
L 284.082114 214.41182 
L 284.001189 214.172093 
L 284.232264 214.028467 
L 284.26639 213.851175 
L 284.047991 213.746192 
L 283.702306 213.548607 
L 283.78311 213.296143 
L 283.886846 213.102435 
L 283.618993 211.713519 
L 283.318698 211.081103 
L 283.053497 210.992046 
L 282.912123 210.752581 
L 282.178929 210.67738 
L 282.038531 210.576458 
L 281.771383 210.544797 
L 281.563711 210.110469 
L 281.446712 209.745437 
L 281.219538 209.509033 
L 281.097149 209.35002 
L 281.094316 209.08759 
L 281.113815 208.888815 
L 281.22009 208.663355 
L 281.176216 208.344961 
L 281.205182 208.044101 
L 281.453113 207.909945 
L 281.659812 208.063181 
L 281.783635 207.9139 
L 281.802162 207.446323 
L 281.849936 207.466091 
L 282.029332 207.680593 
L 282.070283 207.579771 
L 281.885035 207.243692 
L 281.85286 207.088521 
L 282.132684 206.773252 
L 282.613464 206.717755 
L 283.347526 206.154664 
L 283.483048 205.937298 
L 283.591271 205.707103 
L 283.806746 205.560891 
L 283.852568 205.205279 
L 284.002718 204.805255 
L 284.216241 204.60872 
L 284.291314 204.427012 
L 284.441464 204.449721 
L 284.75931 204.501071 
L 284.771986 204.452684 
L 284.797337 204.141625 
L 285.070333 204.06461 
L 285.290684 203.833557 
L 285.604631 203.59266 
L 285.462281 203.282671 
L 285.534991 203.079382 
L 285.863976 202.630219 
L 286.257876 201.213242 
L 286.475299 201.054413 
L 286.687846 200.731851 
L 286.728649 200.210798 
L 286.751499 200.045512 
L 286.549395 199.783097 
L 286.425572 199.700262 
L 286.135025 198.786315 
L 286.178946 198.126768 
L 286.227208 198.127753 
L 286.450967 198.047428 
L 286.572354 197.755229 
L 286.633291 197.440882 
L 286.778194 197.037726 
L 286.625003 196.660085 
L 286.463154 196.378844 
L 286.612328 196.273939 
L 286.932127 196.106988 
L 286.974714 195.784029 
L 287.020216 195.678181 
L 287.353895 195.284061 
L 287.642076 194.948472 
L 287.622085 194.594816 
L 287.931635 194.358838 
L 287.930253 193.950961 
L 287.977138 193.557755 
L 287.824772 193.352467 
L 287.80818 192.917749 
L 287.876545 192.731271 
L 288.39527 192.054464 
L 288.291745 191.808521 
L 287.9162 191.119587 
L 287.621394 190.650792 
L 286.79939 190.011068 
L 286.338904 189.874509 
L 285.844356 189.720203 
L 285.420437 189.23373 
L 285.086377 188.611081 
L 285.080625 188.145184 
L 285.152083 187.73662 
L 284.962403 186.615725 
L 285.124607 186.221861 
L 286.083584 184.716465 
L 285.966801 184.037093 
L 285.427636 183.385526 
L 285.234238 183.063262 
L 285.264163 182.763792 
L 285.439076 182.554789 
L 286.040556 181.983094 
L 286.279012 181.437198 
L 286.543897 180.04091 
L 286.473804 179.898461 
L 286.033513 179.350836 
L 285.791572 178.802905 
L 285.388603 178.49033 
L 283.285612 177.986996 
L 282.125109 177.43482 
L 281.320272 177.309197 
L 281.175197 177.171433 
L 280.853675 176.468806 
L 280.453194 176.188494 
L 280.423023 175.764259 
L 280.653847 175.455674 
L 280.878011 175.101791 
L 280.771425 174.758547 
L 280.560886 174.328868 
L 280.502423 173.924457 
L 280.277624 173.689379 
L 279.859094 173.454669 
L 279.857613 173.151683 
L 279.909516 172.63355 
L 279.740212 172.237899 
L 279.474225 171.740724 
L 279.492783 170.654234 
L 279.406114 170.006849 
L 278.983244 169.290316 
L 278.679239 168.611398 
L 278.838955 168.069527 
L 279.228869 167.34276 
L 279.146774 166.944544 
L 279.115588 166.470007 
L 279.283643 166.045778 
L 279.773562 165.567258 
L 280.309306 165.503965 
L 280.60993 165.39149 
L 281.976968 163.651909 
L 282.221482 162.742866 
L 282.74988 162.27675 
L 283.047559 161.621348 
L 282.965507 161.250136 
L 282.69178 160.913299 
L 282.013224 160.381154 
L 281.895806 159.668214 
L 281.704844 158.901125 
L 281.907786 158.454223 
L 282.13927 157.984853 
L 282.329943 157.197209 
L 283.239233 156.218983 
L 283.102532 155.885237 
L 282.019818 154.903687 
L 281.754604 154.007764 
L 281.262393 153.36079 
L 280.47601 152.816666 
L 280.318268 152.615261 
L 279.499865 152.240413 
L 278.434556 151.603759 
L 277.755741 151.281367 
L 275.597634 149.634415 
L 275.192479 148.771181 
L 274.832918 148.57422 
L 274.276154 148.304249 
L 273.71346 147.210593 
L 273.408022 146.838268 
L 273.179681 146.426174 
L 270.675733 143.39947 
L 268.16919 142.107323 
L 267.716957 141.81068 
L 266.308373 140.462908 
L 265.819072 139.872919 
L 265.589993 139.671373 
L 265.009878 138.832251 
L 264.681083 138.694005 
L 261.558099 138.201395 
L 261.10508 137.813774 
L 260.929783 137.215458 
L 261.034149 136.645477 
L 261.524189 135.908 
L 262.438506 134.56682 
L 262.477016 133.401833 
L 262.179537 132.381329 
L 262.027694 131.553065 
L 261.929784 131.296696 
L 261.744816 128.904881 
L 262.066519 128.387613 
L 262.698006 128.189731 
L 263.251712 127.470675 
L 263.518559 127.395049 
L 264.148711 126.93967 
L 264.545388 126.694357 
L 265.042177 126.610438 
L 265.966907 126.173346 
L 266.945534 125.447698 
L 268.005873 124.505535 
L 268.206055 124.393329 
L 269.018359 123.462216 
L 269.210716 123.197071 
L 270.66574 121.93326 
L 270.757427 121.710989 
L 270.909149 121.486727 
L 271.58482 119.440084 
L 271.627831 118.777595 
L 271.612318 118.365551 
L 271.990826 117.703877 
L 272.078621 117.078953 
L 272.069854 116.81833 
L 272.239965 115.596337 
L 271.692482 114.762481 
L 271.582652 114.333171 
L 271.500475 113.940086 
L 271.456934 113.523399 
L 271.826748 112.132002 
L 271.985639 111.433727 
L 272.475216 111.231437 
L 272.956756 111.086287 
L 273.188794 110.772089 
L 273.491585 109.643363 
L 273.881788 109.129645 
L 274.217393 108.862367 
L 274.364706 108.489773 
L 274.440495 108.121275 
L 275.051688 107.087609 
L 274.836325 106.359481 
L 273.769323 106.085193 
L 273.397259 104.248695 
L 273.180709 103.929634 
L 273.523526 102.740655 
L 273.313484 102.440448 
L 272.984482 102.417406 
L 272.602127 102.546041 
L 272.068913 102.871183 
L 271.917156 103.359895 
L 271.707715 103.464729 
L 271.541365 103.410898 
L 271.248282 103.300861 
L 271.241472 103.402102 
L 271.260448 103.47865 
L 271.195045 103.488573 
L 270.731091 103.612026 
L 270.736109 103.636309 
L 270.570032 103.828152 
L 269.264726 103.688992 
L 269.269403 103.724112 
L 269.024073 104.602918 
L 268.603367 105.368157 
L 268.657165 105.525852 
L 268.613054 105.543401 
L 266.926221 106.213743 
L 267.069625 107.104145 
L 266.94962 107.48012 
L 266.220538 107.588477 
L 265.912711 107.607621 
L 265.077639 107.686741 
L 264.705959 107.720429 
L 264.251627 107.255851 
L 264.161408 107.350302 
L 264.093388 107.272195 
L 264.074157 107.248543 
L 264.024487 107.296718 
L 263.586389 107.275016 
L 262.278647 106.898417 
L 261.719685 107.036975 
L 260.879284 107.367674 
L 259.88871 107.279205 
L 260.291537 105.882896 
L 260.861218 105.237715 
L 262.494714 103.630199 
L 263.82129 102.294902 
L 265.110332 100.661261 
L 265.676173 99.475173 
L 266.118953 97.544089 
L 265.995057 96.043853 
L 266.067521 95.866022 
L 266.029529 95.844639 
L 265.321155 95.03004 
L 264.777551 95.565333 
L 264.759576 95.626727 
L 264.721856 95.661074 
L 264.422299 95.795195 
L 263.358727 95.863988 
L 262.878184 95.617577 
L 261.508749 94.560925 
L 261.327254 94.676476 
L 260.840739 94.570891 
L 259.940306 95.884784 
L 259.452634 96.087003 
L 259.156649 96.455005 
L 259.209005 96.61165 
L 259.14951 96.691784 
L 259.09632 96.624706 
L 258.666886 96.395631 
L 258.530474 96.418928 
L 257.937661 96.563241 
L 257.762515 96.371157 
L 257.571389 95.360399 
L 257.513608 95.385177 
L 255.878825 95.270285 
L 255.603734 94.995743 
L 254.014194 95.323153 
L 253.216574 95.311805 
L 251.995566 95.860352 
L 251.533266 95.448818 
L 251.557874 95.072942 
L 251.783986 94.871949 
L 251.768715 94.705061 
L 251.524019 94.282236 
L 251.551219 94.283597 
L 252.093282 93.964551 
L 251.901279 93.401637 
L 250.257146 92.206152 
L 250.491166 91.333838 
L 250.211302 91.189319 
L 250.161766 90.867381 
L 250.219871 90.73696 
L 250.29183 90.53177 
L 250.354521 90.262189 
L 250.418231 90.088504 
L 248.861189 89.266875 
L 248.033364 89.112738 
L 247.918084 89.091943 
L 247.982165 88.997449 
L 247.988838 88.834779 
L 246.925727 87.048263 
L 247.019487 86.455333 
L 247.062765 86.440158 
L 247.016032 86.347742 
L 246.973449 86.184674 
L 246.935202 86.222679 
L 246.827985 86.27668 
L 246.592186 86.236344 
L 246.212348 87.043954 
L 245.949349 88.399671 
L 246.123758 88.83013 
L 246.132183 89.431246 
L 246.145528 89.425909 
L 246.667773 89.706413 
L 246.756851 89.900396 
L 246.780207 89.972209 
L 247.062087 90.526476 
L 247.135389 90.429495 
L 247.513344 90.24622 
L 248.148687 90.493532 
L 246.974313 91.933119 
L 246.21284 92.198872 
L 246.027687 92.113784 
L 245.314403 91.981457 
L 244.791187 91.801613 
L 244.441265 91.356802 
L 244.314307 91.698706 
L 243.656856 91.651325 
L 243.48982 91.630331 
L 243.345159 91.622138 
L 243.1002 91.819623 
L 242.914201 92.1246 
L 241.926845 92.815277 
L 241.768053 92.864898 
L 240.673619 93.901208 
L 240.70309 93.897579 
L 240.787336 94.077174 
L 240.71773 94.085885 
L 240.611299 94.155628 
L 240.547179 94.396696 
L 240.428655 94.22939 
L 240.089923 94.121388 
L 239.801461 94.639223 
L 240.010704 94.793289 
L 239.987582 94.812617 
L 239.812534 95.209898 
L 239.764558 95.180158 
L 239.585995 95.191973 
L 239.859877 95.890581 
L 239.719941 96.18986 
L 239.257844 96.827436 
L 239.251681 96.810666 
L 238.944847 96.48327 
L 238.626897 96.61793 
L 238.5986 96.683704 
L 238.537611 96.669288 
L 238.281514 96.702196 
L 238.157142 96.823722 
L 237.681476 96.862492 
L 237.10393 96.95006 
L 237.028775 97.045412 
L 236.763043 97.437334 
L 236.343594 97.456152 
L 236.131535 97.718369 
L 236.161058 97.781032 
L 236.059908 97.784306 
L 235.999347 97.857969 
L 236.018552 97.889779 
L 236.125031 97.99759 
L 236.149194 97.984371 
L 236.425792 98.006364 
L 236.420601 98.160274 
L 236.396572 98.31339 
L 236.379457 98.494949 
L 236.308517 98.739327 
L 236.247657 98.787771 
L 236.208758 98.774141 
L 236.209294 98.858776 
L 236.234498 98.877197 
L 236.472262 98.971612 
L 236.462605 99.002302 
L 236.412603 99.167659 
L 236.032847 99.597578 
L 235.87628 100.018645 
L 235.374519 99.903116 
L 235.147012 99.781653 
L 234.836667 100.634419 
L 234.724561 100.853139 
L 234.817881 100.857314 
L 235.105055 100.937235 
L 235.055848 101.545623 
L 234.85985 101.85345 
L 235.014388 102.116142 
L 234.977726 102.136158 
L 234.932884 102.312904 
L 234.943068 102.321977 
L 235.028251 102.954244 
L 234.972051 103.193745 
L 234.731346 103.267634 
L 234.465234 103.288111 
L 234.470291 103.171454 
L 234.128117 102.60428 
L 234.124882 102.643497 
L 234.165184 102.940508 
L 234.284619 103.136157 
L 234.262952 103.157335 
L 234.319446 103.297622 
L 234.248493 103.454587 
L 233.944535 103.933171 
L 233.902397 104.305815 
L 233.868094 104.445351 
L 233.130193 105.17119 
L 232.738682 105.24914 
L 232.59732 105.270106 
L 232.396063 105.320081 
L 232.311096 105.339126 
L 232.305369 105.255108 
L 232.138324 104.852342 
L 232.037754 104.66714 
L 231.779886 104.664347 
L 231.577203 104.670506 
L 231.445857 104.632672 
L 231.4381 104.605058 
L 231.304236 104.615165 
L 231.305731 104.656536 
L 231.237162 104.873094 
L 231.288434 105.095826 
L 231.329402 105.187924 
L 231.226309 105.19784 
L 231.21695 105.335788 
L 231.242409 105.344463 
L 231.334178 105.38935 
L 231.340561 105.425632 
L 231.509848 105.454011 
L 231.535859 105.470462 
L 231.474244 105.567287 
L 231.100089 105.705448 
L 231.066105 105.656089 
L 231.001946 105.734791 
L 230.859773 106.134503 
L 230.796248 106.324113 
L 230.477486 106.782618 
L 230.329504 107.028037 
L 230.26883 107.136671 
L 230.034374 107.380474 
L 229.925965 108.189218 
L 229.946138 108.317279 
L 229.680738 108.389389 
L 229.532588 108.350336 
L 229.524201 108.435927 
L 229.293256 108.590922 
L 229.162925 108.536949 
L 229.050573 108.272116 
L 229.064173 108.038406 
L 228.933345 108.066005 
L 228.409874 106.98639 
L 228.277902 106.502341 
L 227.852648 106.100085 
L 227.292814 106.167361 
L 227.126693 106.233015 
L 227.155353 106.443704 
L 227.08643 106.437588 
L 226.713454 106.355966 
L 225.496791 105.971251 
L 225.299545 105.904414 
L 225.275468 105.965886 
L 225.161181 106.10197 
L 224.885628 106.332392 
L 224.823399 106.245496 
L 224.70418 106.311767 
L 224.273454 107.048365 
L 223.962453 107.100537 
L 223.326872 107.234332 
L 223.376512 107.306627 
L 223.301711 107.478299 
L 223.123558 107.655534 
L 223.023644 108.041992 
L 222.970217 108.154658 
L 223.040418 108.314571 
L 223.134476 108.21613 
L 223.129337 108.200565 
L 223.214636 108.256991 
L 223.246837 108.353639 
L 222.783708 108.98682 
L 222.887077 108.969023 
L 222.917015 108.994149 
L 222.847353 109.063353 
L 222.831585 109.325719 
L 222.770514 109.520405 
L 222.675804 109.718422 
L 222.675713 109.905842 
L 222.340505 110.455629 
L 221.092414 109.905587 
L 220.244342 108.024499 
L 220.220421 108.13236 
L 219.997193 108.315741 
L 219.992128 108.312551 
L 219.925524 108.305386 
L 219.798924 108.076637 
L 219.429261 108.14857 
L 219.26343 108.261229 
L 218.959287 108.299815 
L 218.994316 108.018936 
L 218.974973 108.022409 
L 218.262846 108.691567 
L 218.063864 108.997728 
L 217.966982 108.920685 
L 217.971862 108.908699 
L 217.936625 108.860659 
L 217.918232 108.861474 
L 217.394757 108.82089 
L 217.393185 108.831429 
L 217.299939 108.792234 
L 217.213417 108.81298 
L 217.211655 108.861545 
L 216.969564 109.265715 
L 217.038344 109.999407 
L 216.960926 110.321934 
L 217.023017 110.565482 
L 216.536216 110.645672 
L 216.388269 110.461703 
L 216.18347 110.558196 
L 216.224308 110.67941 
L 216.162153 110.684874 
L 216.053575 110.732135 
L 216.11656 110.919861 
L 216.003745 110.910873 
L 215.955129 111.079164 
L 215.874645 111.464481 
L 215.868992 111.630879 
L 215.840359 111.677616 
L 215.802639 111.625684 
L 215.492881 111.489167 
L 215.420421 111.37833 
L 215.372531 111.404632 
L 214.908438 111.622906 
L 214.674954 111.667594 
L 213.664057 112.436207 
L 213.594694 112.670697 
L 213.3096 112.688516 
L 213.262181 112.663149 
L 213.223705 112.69235 
L 213.241412 112.819419 
L 213.298065 113.044007 
L 213.359201 113.075838 
L 213.285856 113.129591 
L 213.23508 113.388088 
L 212.683495 113.838179 
L 212.729351 113.918518 
L 212.673445 113.962249 
L 212.492135 113.978728 
L 212.513587 113.942262 
L 212.521369 113.837094 
L 211.918412 113.907702 
L 211.74016 114.013189 
L 211.707122 114.198235 
L 211.408584 114.258502 
L 211.111882 114.058238 
L 211.005054 113.904399 
L 210.935699 113.45153 
L 210.801835 113.262316 
L 210.620862 113.277477 
L 210.331424 113.481284 
L 210.076048 113.602144 
L 209.973206 113.525199 
L 210.005178 113.369348 
L 210.23053 113.15352 
L 210.676458 112.998525 
L 210.782146 112.969657 
L 210.717209 112.862087 
L 210.813526 112.684624 
L 211.130263 112.498848 
L 211.576225 112.19728 
L 211.519127 112.173628 
L 211.409901 111.863916 
L 211.424827 111.817421 
L 211.356643 111.776603 
L 210.385728 111.65682 
L 209.680654 112.054753 
L 209.767902 112.113595 
L 210.001762 112.457513 
L 209.930222 112.655657 
L 209.090774 112.535655 
L 208.974026 112.607156 
L 208.948938 112.537703 
L 209.014134 112.44131 
L 209.435579 112.133739 
L 209.317997 111.985272 
L 209.049409 111.952605 
L 208.763167 111.996407 
L 208.591618 112.043831 
L 208.390753 112.102234 
L 208.190895 112.130216 
L 208.149534 112.385395 
L 207.614226 112.616086 
L 207.504072 113.040045 
L 207.500747 113.036785 
L 207.371292 113.025161 
L 207.200728 113.096031 
L 206.823801 112.786978 
L 206.577356 112.5501 
L 206.367461 112.519027 
L 206.142095 112.152634 
L 206.038437 111.823608 
L 205.750696 111.551185 
L 205.448592 111.805386 
L 205.362942 111.844134 
L 205.179408 111.891374 
L 204.905898 111.870742 
L 204.806278 111.881444 
L 204.796167 111.902757 
L 204.615903 112.064123 
L 204.611204 111.95342 
L 204.458416 111.952052 
L 204.338437 112.204821 
L 204.325178 112.166697 
L 204.244944 111.856361 
L 204.325433 111.843107 
L 204.029862 111.98506 
L 203.998599 112.093204 
L 203.975973 112.096393 
L 203.757566 112.199725 
L 203.770608 112.22191 
L 203.787274 112.272438 
L 203.697246 112.3049 
L 202.775146 112.439049 
L 202.601766 112.46757 
L 202.21066 112.389534 
L 201.729388 111.896817 
L 201.494051 111.779466 
L 201.167852 111.63616 
L 201.206868 111.610608 
L 201.717257 110.951677 
L 201.912464 109.899903 
L 201.498547 109.844689 
L 201.350077 109.97645 
L 200.775209 110.055691 
L 200.516775 110.075706 
L 200.387524 110.064437 
L 200.371825 110.005311 
L 199.978733 109.866385 
L 199.047305 109.77036 
L 198.420275 109.610454 
L 197.908517 109.190131 
L 197.921214 109.174184 
L 198.156379 108.975848 
L 197.948155 108.809464 
L 197.968954 108.800059 
L 198.130855 108.568283 
L 198.180883 108.593771 
L 198.242196 108.40944 
L 198.395235 108.309964 
L 198.40237 108.308157 
L 198.324715 108.225302 
L 198.237208 108.136159 
L 198.200987 108.154623 
L 198.077039 108.22085 
L 198.053895 108.185986 
L 197.924173 107.833407 
L 197.165227 107.740934 
L 196.774311 107.812591 
L 196.332551 107.757463 
L 196.331662 107.845187 
L 196.077205 108.010749 
L 195.83885 108.089983 
L 195.691559 108.244906 
L 195.601228 108.268154 
L 195.473328 108.413084 
L 195.27651 108.466093 
L 195.184707 108.361705 
L 195.011465 108.207355 
L 193.932975 107.804192 
L 192.317829 107.089686 
L 191.862918 107.082053 
L 190.877886 107.259961 
L 190.777583 107.706367 
L 190.080387 107.700917 
L 189.163617 107.719068 
L 188.488217 108.106412 
L 188.488636 108.075311 
L 188.391378 107.92267 
L 188.275307 107.863254 
L 188.135479 107.633335 
L 187.995725 107.455008 
L 187.865661 106.542231 
L 187.693477 106.313453 
L 186.389748 105.87673 
L 186.162737 105.489776 
L 186.445304 104.896845 
L 186.196993 104.385027 
L 185.674654 104.354741 
L 185.15799 104.094941 
L 184.849753 104.038728 
L 184.266903 103.56344 
L 183.688157 103.325101 
L 183.418555 103.142089 
L 183.267507 103.035327 
L 182.650596 102.862833 
L 182.559168 102.612424 
L 181.290623 102.619441 
L 180.945124 102.835829 
L 180.652615 102.806982 
L 180.543221 102.844901 
L 180.339593 102.777143 
L 180.392411 102.611219 
L 180.355313 102.492075 
L 180.008518 102.276821 
L 179.800225 102.078081 
L 179.176339 100.696543 
L 178.958955 100.451358 
L 178.715918 100.579171 
L 178.357721 100.788542 
L 177.386262 100.812215 
L 177.251906 101.06794 
L 177.21036 101.218625 
L 177.276998 101.240951 
L 177.322734 101.328697 
L 177.1876 101.510213 
L 176.471552 101.69818 
L 175.991956 100.840282 
L 175.884117 100.397087 
L 175.792387 100.192394 
L 175.329115 100.342299 
L 175.311235 100.264689 
L 175.267616 100.196788 
L 175.259842 100.384967 
L 175.141897 100.826248 
L 175.059539 101.002024 
L 175.055436 101.103236 
L 174.957617 101.093314 
L 173.920038 101.006276 
L 173.920125 101.053835 
L 173.850981 101.463009 
L 172.745081 101.057946 
L 172.672267 99.854948 
L 172.587835 99.646781 
L 172.473172 99.645144 
L 172.006662 99.57796 
L 171.841768 99.537014 
L 171.619482 99.571651 
L 171.181756 99.533271 
L 171.301087 99.661311 
L 171.373054 99.88899 
L 171.283825 100.122828 
L 171.328442 100.252944 
L 171.471263 100.363867 
L 171.662492 101.057712 
L 170.655871 101.619038 
L 169.933099 102.08059 
L 169.842794 102.122195 
L 169.913841 102.198431 
L 169.99715 102.428923 
L 170.122177 103.201272 
L 170.075233 103.568983 
L 170.213692 104.314681 
L 169.92913 104.576856 
L 169.310426 104.630581 
L 169.009021 104.954632 
L 168.492802 104.659924 
L 168.426077 104.701033 
L 168.262569 104.712232 
L 168.087487 104.768154 
L 168.10256 104.798489 
L 168.051944 104.958388 
L 167.906273 105.272374 
L 167.76993 105.535116 
L 167.645205 105.652063 
L 167.522898 105.836415 
L 167.524496 105.838966 
L 167.410956 105.995321 
L 167.303463 106.154157 
L 167.228144 106.435043 
L 167.17891 106.418387 
L 166.8918 106.419663 
L 166.888043 106.397833 
L 166.76945 106.3653 
L 165.054692 106.225672 
L 164.597251 106.039903 
L 164.478831 106.702463 
L 164.172286 107.065283 
L 164.067773 107.176135 
L 163.419486 107.778945 
L 163.423805 107.782844 
L 163.377076 107.97485 
L 162.990592 108.157855 
L 162.640989 107.99101 
L 162.472947 107.982221 
L 162.317688 107.98782 
L 161.408722 107.854359 
L 160.825899 107.846343 
L 160.424601 107.857442 
L 160.773551 108.323842 
L 161.409763 108.526232 
L 162.042446 109.381053 
L 161.842233 109.441001 
L 161.837457 109.618712 
L 161.367944 109.603048 
L 161.220273 109.721363 
L 160.926059 109.753272 
L 160.726356 109.720038 
L 160.414344 109.757482 
L 160.245062 109.711936 
L 160.075102 109.626628 
L 159.210615 109.717096 
L 157.681231 110.383639 
L 157.511547 110.434664 
L 157.519982 110.377402 
L 157.473465 110.266082 
L 157.409284 109.39211 
L 156.920501 109.464745 
L 156.918463 109.345537 
L 156.59416 109.215498 
L 156.645989 108.969037 
L 156.374418 108.778214 
L 156.209696 108.517684 
L 155.990948 108.558871 
L 155.887194 108.693495 
L 154.621327 108.554002 
L 154.433215 108.79918 
L 153.541675 108.841019 
L 153.154081 108.690745 
L 152.868478 108.916276 
L 152.751462 109.244756 
L 152.599325 109.514423 
L 152.168138 109.655731 
L 151.070019 110.722113 
L 150.772289 110.747487 
L 150.490539 110.706542 
L 150.176955 110.846212 
L 149.979536 110.973281 
L 149.837126 111.078172 
L 149.992406 111.192837 
L 150.193672 111.51345 
L 150.182707 111.52046 
L 150.153301 111.636195 
L 150.102266 112.074237 
L 150.202362 112.474644 
L 150.172187 112.476954 
L 150.081847 112.690181 
L 150.537535 112.882124 
L 150.395954 113.481553 
L 150.60914 113.780053 
L 150.469476 114.138174 
L 150.090865 115.149152 
L 149.914664 115.183343 
L 149.872906 115.032034 
L 149.81025 115.09065 
L 149.97986 116.06553 
L 149.665792 116.262866 
L 149.743733 116.547204 
L 149.216453 116.649324 
L 149.139355 116.936369 
L 148.708832 116.942415 
L 148.051368 116.920195 
L 147.753832 117.232012 
L 147.677568 117.139121 
L 147.615896 116.84654 
L 146.915754 116.677122 
L 146.553062 116.765109 
L 146.498019 116.825829 
L 146.283671 116.146131 
L 145.967962 115.91746 
L 145.79675 115.877457 
L 145.274813 115.982972 
L 145.28085 116.012478 
L 145.231832 116.084766 
L 144.852837 116.050397 
L 144.537979 115.90624 
L 144.157134 115.85837 
L 144.1964 115.914483 
L 144.006168 116.099317 
L 143.882514 116.115604 
L 143.290289 115.95937 
L 143.12666 115.875983 
L 143.007174 116.716452 
L 143.178291 117.286531 
L 143.308026 117.5421 
L 143.384343 117.619916 
L 143.25817 117.673003 
L 142.914273 117.979455 
L 142.893884 117.961104 
L 142.755762 117.834624 
L 141.989379 117.851053 
L 141.713731 117.648827 
L 140.312549 117.639953 
L 140.363882 117.562059 
L 140.390598 117.529498 
L 140.290264 117.487489 
L 139.99291 117.365488 
L 138.94821 117.527038 
L 138.576591 117.487446 
L 138.576708 117.451788 
L 138.484649 117.352007 
L 137.547305 117.160972 
M 181.513099 179.94519 
L 181.526245 179.889481 
L 181.619556 179.976738 
L 181.606842 180.008583 
L 181.513099 179.94519 
M 216.23989 166.946259 
L 216.660678 166.631444 
L 216.742186 166.534094 
L 216.784238 166.554294 
L 216.940511 166.637936 
L 217.089594 166.448091 
L 217.295322 166.268439 
L 217.344862 166.001204 
L 217.486841 165.774517 
L 217.741781 165.529956 
L 217.274199 164.922935 
L 217.191888 164.649342 
L 217.290481 164.24885 
L 217.255236 163.55733 
L 217.44314 163.257279 
L 217.700679 162.809725 
L 217.978647 162.665447 
L 219.715516 160.596046 
L 219.597196 160.52821 
L 218.291207 159.924237 
L 217.493833 160.040872 
L 217.952959 157.673128 
L 218.060513 157.280071 
L 218.148965 157.360765 
L 218.375367 157.523825 
L 218.741013 157.444478 
L 218.771085 157.162366 
L 218.844171 156.599877 
L 219.027203 156.145682 
L 218.885747 155.341736 
L 218.111185 155.563603 
L 217.99403 155.062119 
L 218.04776 155.077627 
L 218.295699 155.04508 
L 218.560291 154.913851 
L 218.907324 154.6936 
L 219.347041 154.294958 
L 219.607941 154.310913 
L 219.970577 154.508965 
L 220.424322 154.666079 
L 220.667273 154.837452 
L 221.351729 155.112102 
L 221.365229 155.049113 
L 221.378894 154.986195 
L 221.846696 154.938382 
L 221.844437 154.645007 
L 221.135541 153.77421 
L 221.213214 153.61424 
L 221.399663 153.438039 
L 221.948657 152.166687 
L 221.949115 152.155184 
L 222.055438 152.163554 
L 222.275448 152.209986 
L 222.852095 152.166687 
L 223.005268 152.208037 
L 223.247265 152.22297 
L 223.836095 152.258239 
L 223.843225 152.165184 
L 223.793301 151.471119 
L 223.746097 151.278525 
L 223.768511 151.283713 
L 224.364148 151.312525 
L 224.691911 151.099 
L 224.738596 150.432365 
L 224.599243 150.423342 
L 224.636514 149.857161 
L 224.718263 149.879388 
L 225.624928 149.944538 
L 225.762367 150.035963 
L 225.48453 150.31361 
L 225.433214 150.437581 
L 225.732987 151.272522 
L 225.685697 151.500987 
L 225.630559 151.514737 
L 225.66656 151.613172 
L 225.799535 152.073363 
L 225.493457 152.235076 
L 225.836965 152.172371 
L 226.129759 152.234396 
L 227.087492 152.512008 
L 227.358364 152.486719 
L 228.079978 152.418684 
L 228.20549 152.356758 
L 228.209217 152.358388 
L 228.355476 152.342257 
L 228.673361 151.932658 
L 228.659031 151.928894 
L 228.712113 151.813336 
L 229.2642 151.387754 
L 229.255117 151.379263 
L 229.252777 151.219463 
L 229.280218 151.227912 
L 229.436349 150.852985 
L 229.604487 150.739348 
L 229.705053 150.838243 
L 230.134185 151.108895 
L 230.335827 151.158076 
L 230.45008 151.395827 
L 230.751144 151.648433 
L 230.752124 151.640665 
L 231.005932 151.508337 
L 231.179006 151.47219 
L 231.171085 151.419967 
L 231.20142 151.012728 
L 231.435829 150.839653 
L 231.569749 150.65117 
L 232.491589 150.572028 
L 232.900678 150.19706 
L 232.881438 150.170353 
L 232.731055 150.134284 
L 232.235176 149.951109 
L 231.892618 149.720581 
L 231.987734 149.61576 
L 232.385538 149.327928 
L 232.546657 149.405 
L 232.961036 148.844815 
L 233.01861 148.906826 
L 233.036735 148.92424 
L 233.132326 148.810475 
L 232.980298 149.159949 
L 232.974476 149.445513 
L 232.996463 149.427312 
L 233.42113 149.20176 
L 233.518332 149.14493 
L 233.498759 149.263919 
L 233.474531 150.074896 
L 233.86463 150.435143 
L 234.733855 150.872044 
L 234.850241 150.834848 
L 234.875497 150.91591 
L 234.986255 150.973044 
L 235.012479 150.970259 
L 235.007651 151.055935 
L 234.841517 151.825456 
L 234.651747 152.13246 
L 234.270406 152.353987 
L 234.14242 152.864933 
L 233.874041 153.806005 
L 233.973886 153.796338 
L 234.447229 154.714069 
L 235.316622 154.749147 
L 236.322821 155.218757 
L 236.834566 155.76746 
L 237.12843 156.051486 
L 237.348311 156.103503 
L 237.485716 156.209755 
L 237.577817 156.32167 
L 237.779455 157.570505 
L 237.793167 157.744912 
L 237.793992 157.745217 
L 239.962995 158.349651 
L 239.907789 158.438722 
L 239.702229 158.556598 
L 239.430386 158.565394 
L 239.409103 158.549638 
L 239.426849 158.67828 
L 239.491665 159.114663 
L 239.583369 159.098957 
L 240.192014 159.120093 
L 240.563694 159.136565 
L 240.81761 159.254263 
L 240.755563 159.518437 
L 239.609394 160.780454 
L 239.373707 161.661203 
L 239.620268 161.743583 
L 239.544587 161.846575 
L 238.944843 162.835382 
L 239.020088 163.012511 
L 239.033096 163.059645 
L 238.988047 163.116042 
L 238.827887 163.33014 
L 238.919785 163.359937 
L 239.034102 163.341098 
L 239.100227 163.29955 
L 239.24592 163.424003 
L 239.319861 163.627676 
L 239.339727 163.462936 
L 239.425648 163.465225 
L 239.409 163.359122 
L 239.519814 163.122314 
L 239.608336 163.085593 
L 239.966226 162.896478 
L 240.380078 162.751187 
L 240.69672 162.889894 
L 241.747716 163.452241 
L 242.047394 163.710184 
L 242.53774 163.998881 
L 242.730326 164.449093 
L 242.882017 164.395786 
L 242.800566 164.081956 
L 242.615793 163.498247 
L 242.762038 163.574277 
L 243.251987 163.869565 
L 243.375175 163.954668 
L 243.745036 164.54645 
L 244.068558 164.768253 
L 244.231107 164.800055 
L 245.093474 165.064888 
L 245.057261 165.146737 
L 245.004322 165.270148 
L 245.114916 165.291596 
L 245.120695 165.292786 
L 245.09692 165.388102 
L 245.044922 165.614703 
L 245.297089 165.664998 
L 245.259598 165.743721 
L 245.137477 165.757797 
L 245.007086 165.737945 
L 245.015762 165.699409 
L 245.087246 165.388591 
L 245.044404 165.390186 
L 244.706864 165.5114 
L 244.53883 165.775432 
L 244.397823 165.989155 
L 243.81484 165.83628 
L 243.6407 165.705079 
L 244.23102 166.008107 
L 244.376631 166.111474 
L 244.440017 166.333618 
L 244.438355 166.440763 
L 244.290705 166.447468 
L 244.235292 166.518997 
L 243.942995 167.179204 
L 244.085621 167.439061 
L 244.295694 167.86168 
L 244.148843 168.032048 
L 243.953187 168.362236 
L 243.73373 168.390452 
L 243.62891 168.460238 
L 243.620613 168.456092 
L 243.300469 168.394917 
L 243.061163 168.627395 
L 242.899966 168.742209 
L 242.662241 168.965415 
L 242.343159 169.265608 
L 242.058795 169.481557 
L 242.211787 169.524558 
L 242.492782 169.673783 
L 242.60541 169.648841 
L 242.573892 169.761656 
L 242.535308 169.936645 
L 242.630766 169.931379 
L 242.682547 169.954187 
L 242.661748 170.039183 
L 242.460383 170.384851 
L 242.211005 170.619235 
L 241.569378 170.639676 
L 241.262592 170.924489 
L 241.18834 171.27195 
L 241.086495 171.355018 
L 240.79089 171.840732 
L 240.667629 172.156986 
L 240.546185 172.405956 
L 240.500895 172.681378 
L 240.30231 172.676608 
L 240.101471 172.456931 
L 239.905513 172.107053 
L 240.226318 170.870402 
L 240.378381 170.603968 
L 240.21778 170.431339 
L 240.169021 170.359413 
L 240.180081 169.932109 
L 240.172567 169.933888 
L 239.736749 169.958546 
L 239.56834 169.659303 
L 239.494394 169.701467 
L 238.588257 170.207424 
L 238.629138 170.080703 
L 238.54659 169.688298 
L 238.071346 168.987139 
L 238.02146 168.776322 
L 238.003218 168.782935 
L 236.674967 169.177203 
L 235.550923 169.118056 
L 235.55788 168.690263 
L 235.677971 168.292861 
L 235.533134 168.38968 
L 235.215067 168.459735 
L 234.758506 168.227966 
L 234.549574 168.272718 
L 233.144121 168.625134 
L 232.924629 167.777542 
L 232.443996 166.843685 
L 231.839078 167.082081 
L 230.906787 167.494777 
L 230.494787 167.716446 
L 230.570361 168.116597 
L 230.831494 169.472995 
L 230.483822 170.022654 
L 229.19215 169.846744 
L 229.011432 169.160341 
L 228.419069 169.157988 
L 228.412012 168.730932 
L 227.483797 168.040411 
L 227.245921 167.677562 
L 227.252637 167.507046 
L 227.203338 167.534369 
L 225.901733 168.401105 
L 225.852176 168.315124 
L 225.240443 167.185902 
L 225.078265 167.314799 
L 224.124674 168.038923 
L 223.754406 167.949128 
L 223.461353 167.89125 
L 223.207662 167.957747 
L 223.193496 167.842961 
L 223.004331 166.841623 
L 221.678347 167.058046 
L 221.076094 167.237947 
L 220.611531 167.419612 
L 219.30432 168.239548 
L 219.23928 168.596003 
L 219.407218 168.573549 
L 219.823036 168.509448 
L 219.832477 168.577518 
L 219.842487 168.646553 
L 219.521389 168.74802 
L 218.9477 168.691425 
L 218.609818 168.541683 
L 218.609054 168.532901 
L 218.512318 168.574414 
L 218.054998 169.020572 
L 218.108697 169.076621 
L 218.176234 169.237569 
L 218.101239 169.225938 
L 218.085613 169.241354 
L 218.007656 169.17502 
L 217.897714 169.07604 
L 218.012229 168.924299 
L 218.206327 168.812505 
L 218.425399 168.621809 
L 218.280182 168.591247 
L 218.260281 168.523808 
L 218.37021 168.504316 
L 218.388794 168.489702 
L 218.248577 168.433496 
L 218.190425 168.382656 
L 218.147829 168.432504 
L 217.813481 168.559643 
L 217.042667 167.665442 
L 217.110596 167.682637 
L 217.252744 167.594969 
L 217.246248 167.560147 
L 217.103825 167.401439 
L 217.050138 167.403516 
L 217.06113 167.50156 
L 216.998672 167.66097 
L 216.933208 167.643648 
L 216.785382 167.474039 
L 216.756723 167.360741 
L 216.659063 167.387632 
L 216.589937 167.410051 
L 216.637754 167.503672 
L 216.684449 167.610498 
L 216.6561 167.637467 
L 216.630598 167.670191 
L 216.31948 167.435446 
L 216.23989 166.946259 
M 234.166705 152.816177 
L 234.253645 152.7526 
L 234.166705 152.816177 
" style="fill:none;stroke:#ffc0cb;"/>
    <path clip-path="url(#p0d975227d3)" d="M 178.656578 135.644373 
L 178.663535 135.647435 
L 178.677796 135.653707 
L 178.685246 135.654884 
L 178.693607 135.653764 
L 178.703074 135.649327 
L 178.729116 135.622755 
L 178.731651 135.624995 
L 178.781126 135.579506 
L 178.832269 135.534789 
L 178.793659 135.50663 
L 178.770537 135.534655 
L 178.762517 135.525207 
L 178.734095 135.561489 
L 178.703825 135.600351 
L 178.691871 135.591094 
L 178.68823 135.590648 
L 178.683298 135.596431 
L 178.685038 135.599415 
L 178.673162 135.617723 
L 178.656578 135.644373 
" style="fill:none;stroke:#ffc0cb;"/>
    <path clip-path="url(#p0d975227d3)" d="M 180.467523 180.394778 
L 180.482314 180.39991 
L 180.508382 180.408763 
L 180.54092 180.346561 
L 180.519909 180.337978 
L 180.500958 180.330663 
L 180.467523 180.394778 
" style="fill:none;stroke:#ffc0cb;"/>
    <path clip-path="url(#p0d975227d3)" d="M 180.578031 180.172118 
L 180.579702 180.183614 
L 180.587791 180.189306 
L 180.598363 180.187789 
L 180.60257 180.194671 
L 180.610473 180.211696 
L 180.615785 180.23281 
L 180.618804 180.23972 
L 180.623982 180.244951 
L 180.632451 180.245497 
L 180.65319 180.254059 
L 180.670542 180.253315 
L 180.677055 180.330741 
L 180.683261 180.365889 
L 180.695436 180.415418 
L 180.735699 180.410216 
L 180.804765 180.416566 
L 180.828794 180.415141 
L 180.853268 180.403461 
L 180.876693 180.397564 
L 180.90001 180.404886 
L 180.923599 180.406551 
L 180.926463 180.431415 
L 180.928726 180.451998 
L 180.754564 180.748271 
L 180.931295 180.452777 
L 180.929326 180.432379 
L 180.985565 180.451261 
L 181.021345 180.462409 
L 181.04496 180.423597 
L 181.075071 180.440069 
L 181.076232 180.43532 
L 181.089197 180.420188 
L 181.10382 180.392227 
L 181.103505 180.361502 
L 181.111892 180.347496 
L 181.095265 180.334951 
L 181.073788 180.322874 
L 181.048709 180.317926 
L 180.982934 180.297592 
L 180.952388 180.305927 
L 180.924005 180.315091 
L 180.918041 180.309499 
L 180.887602 180.303354 
L 180.857933 180.297967 
L 180.826086 180.305502 
L 180.789792 180.299066 
L 180.772327 180.293573 
L 180.752145 180.293786 
L 180.738675 180.289845 
L 180.730361 180.28937 
L 180.725218 180.285479 
L 180.716157 180.276584 
L 180.709588 180.268894 
L 180.701244 180.264038 
L 180.697116 180.260969 
L 180.690201 180.260346 
L 180.681827 180.253272 
L 180.676515 180.249976 
L 180.670456 180.25133 
L 180.661736 180.250402 
L 180.653941 180.252053 
L 180.633125 180.242648 
L 180.624008 180.241103 
L 180.621503 180.237906 
L 180.619827 180.235652 
L 180.61236 180.210746 
L 180.604591 180.19253 
L 180.599037 180.185322 
L 180.587847 180.186265 
L 180.581213 180.18136 
L 180.580134 180.172366 
L 180.584638 180.165151 
L 180.582211 180.16323 
L 180.578031 180.172118 
" style="fill:none;stroke:#ffc0cb;"/>
    <path clip-path="url(#p0d975227d3)" d="M 181.17574 180.523598 
L 181.177295 180.524732 
L 181.177217 180.54209 
L 181.21603 180.550708 
L 181.261131 180.533528 
L 181.306931 180.54333 
L 181.365346 180.556641 
L 181.410646 180.552353 
L 181.427281 180.525377 
L 181.394511 180.495821 
L 181.401831 180.45742 
L 181.370183 180.442344 
L 181.331582 180.446498 
L 181.284413 180.427644 
L 181.300595 180.423682 
L 181.310101 180.426609 
L 181.317676 180.425702 
L 181.328166 180.41753 
L 181.342168 180.400789 
L 181.346702 180.396444 
L 181.35214 180.389427 
L 181.354454 180.380475 
L 181.367683 180.369419 
L 181.382967 180.366789 
L 181.393928 180.358355 
L 181.399836 180.35569 
L 181.413276 180.35457 
L 181.413362 180.352762 
L 181.399663 180.353797 
L 181.392045 180.35681 
L 181.381939 180.364039 
L 181.367169 180.366917 
L 181.355396 180.375741 
L 181.352312 180.38022 
L 181.350002 180.38801 
L 181.346275 180.395062 
L 181.34041 180.399626 
L 181.32637 180.416495 
L 181.31708 180.42364 
L 181.311129 180.424327 
L 181.302306 180.420755 
L 181.285095 180.42437 
L 181.280293 180.426985 
L 181.261036 180.438488 
L 181.243286 180.449581 
L 181.202197 180.457271 
L 181.19327 180.469752 
L 181.188511 180.480058 
L 181.17574 180.523598 
" style="fill:none;stroke:#ffc0cb;"/>
    <path clip-path="url(#p0d975227d3)" d="M 181.445411 180.578825 
L 181.470275 180.588755 
L 181.478359 180.588861 
L 181.493781 180.597225 
L 181.516887 180.588606 
L 181.542976 180.596715 
L 181.573091 180.59709 
L 181.596162 180.574714 
L 181.598831 180.567074 
L 181.600817 180.554103 
L 181.601871 180.547519 
L 181.586159 180.534066 
L 181.5556 180.528772 
L 181.527316 180.526702 
L 181.50853 180.518856 
L 181.483326 180.518225 
L 181.467558 180.515773 
L 181.447605 180.542394 
L 181.445411 180.578825 
" style="fill:none;stroke:#ffc0cb;"/>
    <path clip-path="url(#p0d975227d3)" d="M 181.598502 180.655536 
L 181.598645 180.657137 
L 181.606552 180.65903 
L 181.612461 180.663169 
L 181.606928 180.663601 
L 181.599949 180.663339 
L 181.600182 180.664969 
L 181.607304 180.665203 
L 181.613674 180.664679 
L 181.611212 180.667826 
L 181.605481 180.670824 
L 181.606673 180.67193 
L 181.613298 180.669364 
L 181.615557 180.664707 
L 181.62381 180.665643 
L 181.632702 180.670767 
L 181.635773 180.695624 
L 181.637358 180.701429 
L 181.643651 180.708375 
L 181.651873 180.713442 
L 181.659867 180.716412 
L 181.669956 180.716681 
L 181.677186 180.720665 
L 181.684946 180.722529 
L 181.694499 180.719559 
L 181.704674 180.722082 
L 181.712513 180.727185 
L 181.719859 180.735932 
L 181.726877 180.741857 
L 181.734107 180.751213 
L 181.739099 180.760668 
L 181.741125 180.767649 
L 181.748885 180.772717 
L 181.749697 180.771087 
L 181.768203 180.770194 
L 181.779237 180.757755 
L 181.78204 180.735435 
L 181.772733 180.718737 
L 181.755778 180.707971 
L 181.728104 180.690535 
L 181.711412 180.691754 
L 181.693981 180.680428 
L 181.681085 180.672688 
L 181.666294 180.666047 
L 181.634119 180.66122 
L 181.634728 180.669718 
L 181.633428 180.668286 
L 181.624566 180.66392 
L 181.615911 180.6629 
L 181.606552 180.657605 
L 181.598502 180.655536 
" style="fill:none;stroke:#ffc0cb;"/>
   </g>
   <g id="matplotlib.axis_1">
    <g id="xtick_1">
     <g id="line2d_1">
      <defs>
       <path d="M 0 0 
L 0 3.5 
" id="m86f740db4d" style="stroke:#000000;stroke-width:0.8;"/>
      </defs>
      <g>
       <use style="stroke:#000000;stroke-width:0.8;" x="169.237051" xlink:href="#m86f740db4d" y="252"/>
      </g>
     </g>
     <g id="text_1">
      <!-- 12 -->
      <defs>
       <path d="M 12.40625 8.296875 
L 28.515625 8.296875 
L 28.515625 63.921875 
L 10.984375 60.40625 
L 10.984375 69.390625 
L 28.421875 72.90625 
L 38.28125 72.90625 
L 38.28125 8.296875 
L 54.390625 8.296875 
L 54.390625 0 
L 12.40625 0 
z
" id="DejaVuSans-49"/>
       <path d="M 19.1875 8.296875 
L 53.609375 8.296875 
L 53.609375 0 
L 7.328125 0 
L 7.328125 8.296875 
Q 12.9375 14.109375 22.625 23.890625 
Q 32.328125 33.6875 34.8125 36.53125 
Q 39.546875 41.84375 41.421875 45.53125 
Q 43.3125 49.21875 43.3125 52.78125 
Q 43.3125 58.59375 39.234375 62.25 
Q 35.15625 65.921875 28.609375 65.921875 
Q 23.96875 65.921875 18.8125 64.3125 
Q 13.671875 62.703125 7.8125 59.421875 
L 7.8125 69.390625 
Q 13.765625 71.78125 18.9375 73 
Q 24.125 74.21875 28.421875 74.21875 
Q 39.75 74.21875 46.484375 68.546875 
Q 53.21875 62.890625 53.21875 53.421875 
Q 53.21875 48.921875 51.53125 44.890625 
Q 49.859375 40.875 45.40625 35.40625 
Q 44.1875 33.984375 37.640625 27.21875 
Q 31.109375 20.453125 19.1875 8.296875 
z
" id="DejaVuSans-50"/>
      </defs>
      <g transform="translate(162.874551 266.598437)scale(0.1 -0.1)">
       <use xlink:href="#DejaVuSans-49"/>
       <use x="63.623047" xlink:href="#DejaVuSans-50"/>
      </g>
     </g>
    </g>
    <g id="xtick_2">
     <g id="line2d_2">
      <g>
       <use style="stroke:#000000;stroke-width:0.8;" x="212.424495" xlink:href="#m86f740db4d" y="252"/>
      </g>
     </g>
     <g id="text_2">
      <!-- 13 -->
      <defs>
       <path d="M 40.578125 39.3125 
Q 47.65625 37.796875 51.625 33 
Q 55.609375 28.21875 55.609375 21.1875 
Q 55.609375 10.40625 48.1875 4.484375 
Q 40.765625 -1.421875 27.09375 -1.421875 
Q 22.515625 -1.421875 17.65625 -0.515625 
Q 12.796875 0.390625 7.625 2.203125 
L 7.625 11.71875 
Q 11.71875 9.328125 16.59375 8.109375 
Q 21.484375 6.890625 26.8125 6.890625 
Q 36.078125 6.890625 40.9375 10.546875 
Q 45.796875 14.203125 45.796875 21.1875 
Q 45.796875 27.640625 41.28125 31.265625 
Q 36.765625 34.90625 28.71875 34.90625 
L 20.21875 34.90625 
L 20.21875 43.015625 
L 29.109375 43.015625 
Q 36.375 43.015625 40.234375 45.921875 
Q 44.09375 48.828125 44.09375 54.296875 
Q 44.09375 59.90625 40.109375 62.90625 
Q 36.140625 65.921875 28.71875 65.921875 
Q 24.65625 65.921875 20.015625 65.03125 
Q 15.375 64.15625 9.8125 62.3125 
L 9.8125 71.09375 
Q 15.4375 72.65625 20.34375 73.4375 
Q 25.25 74.21875 29.59375 74.21875 
Q 40.828125 74.21875 47.359375 69.109375 
Q 53.90625 64.015625 53.90625 55.328125 
Q 53.90625 49.265625 50.4375 45.09375 
Q 46.96875 40.921875 40.578125 39.3125 
z
" id="DejaVuSans-51"/>
      </defs>
      <g transform="translate(206.061995 266.598437)scale(0.1 -0.1)">
       <use xlink:href="#DejaVuSans-49"/>
       <use x="63.623047" xlink:href="#DejaVuSans-51"/>
      </g>
     </g>
    </g>
    <g id="xtick_3">
     <g id="line2d_3">
      <g>
       <use style="stroke:#000000;stroke-width:0.8;" x="255.61194" xlink:href="#m86f740db4d" y="252"/>
      </g>
     </g>
     <g id="text_3">
      <!-- 14 -->
      <defs>
       <path d="M 37.796875 64.3125 
L 12.890625 25.390625 
L 37.796875 25.390625 
z
M 35.203125 72.90625 
L 47.609375 72.90625 
L 47.609375 25.390625 
L 58.015625 25.390625 
L 58.015625 17.1875 
L 47.609375 17.1875 
L 47.609375 0 
L 37.796875 0 
L 37.796875 17.1875 
L 4.890625 17.1875 
L 4.890625 26.703125 
z
" id="DejaVuSans-52"/>
      </defs>
      <g transform="translate(249.24944 266.598437)scale(0.1 -0.1)">
       <use xlink:href="#DejaVuSans-49"/>
       <use x="63.623047" xlink:href="#DejaVuSans-52"/>
      </g>
     </g>
    </g>
    <g id="xtick_4">
     <g id="line2d_4">
      <g>
       <use style="stroke:#000000;stroke-width:0.8;" x="298.799384" xlink:href="#m86f740db4d" y="252"/>
      </g>
     </g>
     <g id="text_4">
      <!-- 15 -->
      <defs>
       <path d="M 10.796875 72.90625 
L 49.515625 72.90625 
L 49.515625 64.59375 
L 19.828125 64.59375 
L 19.828125 46.734375 
Q 21.96875 47.46875 24.109375 47.828125 
Q 26.265625 48.1875 28.421875 48.1875 
Q 40.625 48.1875 47.75 41.5 
Q 54.890625 34.8125 54.890625 23.390625 
Q 54.890625 11.625 47.5625 5.09375 
Q 40.234375 -1.421875 26.90625 -1.421875 
Q 22.3125 -1.421875 17.546875 -0.640625 
Q 12.796875 0.140625 7.71875 1.703125 
L 7.71875 11.625 
Q 12.109375 9.234375 16.796875 8.0625 
Q 21.484375 6.890625 26.703125 6.890625 
Q 35.15625 6.890625 40.078125 11.328125 
Q 45.015625 15.765625 45.015625 23.390625 
Q 45.015625 31 40.078125 35.4375 
Q 35.15625 39.890625 26.703125 39.890625 
Q 22.75 39.890625 18.8125 39.015625 
Q 14.890625 38.140625 10.796875 36.28125 
z
" id="DejaVuSans-53"/>
      </defs>
      <g transform="translate(292.436884 266.598437)scale(0.1 -0.1)">
       <use xlink:href="#DejaVuSans-49"/>
       <use x="63.623047" xlink:href="#DejaVuSans-53"/>
      </g>
     </g>
    </g>
   </g>
   <g id="matplotlib.axis_2">
    <g id="ytick_1">
     <g id="line2d_5">
      <defs>
       <path d="M 0 0 
L -3.5 0 
" id="m942549ca1e" style="stroke:#000000;stroke-width:0.8;"/>
      </defs>
      <g>
       <use style="stroke:#000000;stroke-width:0.8;" x="129.162035" xlink:href="#m942549ca1e" y="232.127217"/>
      </g>
     </g>
     <g id="text_5">
      <!-- 51.5 -->
      <defs>
       <path d="M 10.6875 12.40625 
L 21 12.40625 
L 21 0 
L 10.6875 0 
z
" id="DejaVuSans-46"/>
      </defs>
      <g transform="translate(99.89641 235.926436)scale(0.1 -0.1)">
       <use xlink:href="#DejaVuSans-53"/>
       <use x="63.623047" xlink:href="#DejaVuSans-49"/>
       <use x="127.246094" xlink:href="#DejaVuSans-46"/>
       <use x="159.033203" xlink:href="#DejaVuSans-53"/>
      </g>
     </g>
    </g>
    <g id="ytick_2">
     <g id="line2d_6">
      <g>
       <use style="stroke:#000000;stroke-width:0.8;" x="129.162035" xlink:href="#m942549ca1e" y="196.688627"/>
      </g>
     </g>
     <g id="text_6">
      <!-- 52.0 -->
      <defs>
       <path d="M 31.78125 66.40625 
Q 24.171875 66.40625 20.328125 58.90625 
Q 16.5 51.421875 16.5 36.375 
Q 16.5 21.390625 20.328125 13.890625 
Q 24.171875 6.390625 31.78125 6.390625 
Q 39.453125 6.390625 43.28125 13.890625 
Q 47.125 21.390625 47.125 36.375 
Q 47.125 51.421875 43.28125 58.90625 
Q 39.453125 66.40625 31.78125 66.40625 
z
M 31.78125 74.21875 
Q 44.046875 74.21875 50.515625 64.515625 
Q 56.984375 54.828125 56.984375 36.375 
Q 56.984375 17.96875 50.515625 8.265625 
Q 44.046875 -1.421875 31.78125 -1.421875 
Q 19.53125 -1.421875 13.0625 8.265625 
Q 6.59375 17.96875 6.59375 36.375 
Q 6.59375 54.828125 13.0625 64.515625 
Q 19.53125 74.21875 31.78125 74.21875 
z
" id="DejaVuSans-48"/>
      </defs>
      <g transform="translate(99.89641 200.487846)scale(0.1 -0.1)">
       <use xlink:href="#DejaVuSans-53"/>
       <use x="63.623047" xlink:href="#DejaVuSans-50"/>
       <use x="127.246094" xlink:href="#DejaVuSans-46"/>
       <use x="159.033203" xlink:href="#DejaVuSans-48"/>
      </g>
     </g>
    </g>
    <g id="ytick_3">
     <g id="line2d_7">
      <g>
       <use style="stroke:#000000;stroke-width:0.8;" x="129.162035" xlink:href="#m942549ca1e" y="161.250037"/>
      </g>
     </g>
     <g id="text_7">
      <!-- 52.5 -->
      <g transform="translate(99.89641 165.049256)scale(0.1 -0.1)">
       <use xlink:href="#DejaVuSans-53"/>
       <use x="63.623047" xlink:href="#DejaVuSans-50"/>
       <use x="127.246094" xlink:href="#DejaVuSans-46"/>
       <use x="159.033203" xlink:href="#DejaVuSans-53"/>
      </g>
     </g>
    </g>
    <g id="ytick_4">
     <g id="line2d_8">
      <g>
       <use style="stroke:#000000;stroke-width:0.8;" x="129.162035" xlink:href="#m942549ca1e" y="125.811447"/>
      </g>
     </g>
     <g id="text_8">
      <!-- 53.0 -->
      <g transform="translate(99.89641 129.610666)scale(0.1 -0.1)">
       <use xlink:href="#DejaVuSans-53"/>
       <use x="63.623047" xlink:href="#DejaVuSans-51"/>
       <use x="127.246094" xlink:href="#DejaVuSans-46"/>
       <use x="159.033203" xlink:href="#DejaVuSans-48"/>
      </g>
     </g>
    </g>
    <g id="ytick_5">
     <g id="line2d_9">
      <g>
       <use style="stroke:#000000;stroke-width:0.8;" x="129.162035" xlink:href="#m942549ca1e" y="90.372857"/>
      </g>
     </g>
     <g id="text_9">
      <!-- 53.5 -->
      <g transform="translate(99.89641 94.172075)scale(0.1 -0.1)">
       <use xlink:href="#DejaVuSans-53"/>
       <use x="63.623047" xlink:href="#DejaVuSans-51"/>
       <use x="127.246094" xlink:href="#DejaVuSans-46"/>
       <use x="159.033203" xlink:href="#DejaVuSans-53"/>
      </g>
     </g>
    </g>
    <g id="ytick_6">
     <g id="line2d_10">
      <g>
       <use style="stroke:#000000;stroke-width:0.8;" x="129.162035" xlink:href="#m942549ca1e" y="54.934266"/>
      </g>
     </g>
     <g id="text_10">
      <!-- 54.0 -->
      <g transform="translate(99.89641 58.733485)scale(0.1 -0.1)">
       <use xlink:href="#DejaVuSans-53"/>
       <use x="63.623047" xlink:href="#DejaVuSans-52"/>
       <use x="127.246094" xlink:href="#DejaVuSans-46"/>
       <use x="159.033203" xlink:href="#DejaVuSans-48"/>
      </g>
     </g>
    </g>
   </g>
   <g id="patch_3">
    <path d="M 129.162035 252 
L 129.162035 34.56 
" style="fill:none;stroke:#000000;stroke-linecap:square;stroke-linejoin:miter;stroke-width:0.8;"/>
   </g>
   <g id="patch_4">
    <path d="M 313.637965 252 
L 313.637965 34.56 
" style="fill:none;stroke:#000000;stroke-linecap:square;stroke-linejoin:miter;stroke-width:0.8;"/>
   </g>
   <g id="patch_5">
    <path d="M 129.162035 252 
L 313.637965 252 
" style="fill:none;stroke:#000000;stroke-linecap:square;stroke-linejoin:miter;stroke-width:0.8;"/>
   </g>
   <g id="patch_6">
    <path d="M 129.162035 34.56 
L 313.637965 34.56 
" style="fill:none;stroke:#000000;stroke-linecap:square;stroke-linejoin:miter;stroke-width:0.8;"/>
   </g>
  </g>
 </g>
 <defs>
  <clipPath id="p0d975227d3">
   <rect height="217.44" width="184.47593" x="129.162035" y="34.56"/>
  </clipPath>
 </defs>
</svg>
