<?xml version="1.0" encoding="utf-8" standalone="no"?>
<!DOCTYPE svg PUBLIC "-//W3C//DTD SVG 1.1//EN"
  "http://www.w3.org/Graphics/SVG/1.1/DTD/svg11.dtd">
<!-- Created with matplotlib (https://matplotlib.org/) -->
<svg height="288pt" version="1.1" viewBox="0 0 432 288" width="432pt" xmlns="http://www.w3.org/2000/svg" xmlns:xlink="http://www.w3.org/1999/xlink">
 <defs>
  <style type="text/css">
*{stroke-linecap:butt;stroke-linejoin:round;}
  </style>
 </defs>
 <g id="figure_1">
  <g id="patch_1">
   <path d="M 0 288 
L 432 288 
L 432 0 
L 0 0 
z
" style="fill:#ffffff;"/>
  </g>
  <g id="axes_1">
   <g id="patch_2">
    <path d="M 104.655771 252 
L 338.144229 252 
L 338.144229 34.56 
L 104.655771 34.56 
z
" style="fill:#ffffff;"/>
   </g>
   <g id="PatchCollection_1">
    <path clip-path="url(#pf8e588c90a)" d="M 292.858426 242.061856 
L 327.36129 241.748531 
L 327.531117 153.045909 
L 315.569717 153.155993 
L 312.838365 163.665354 
L 309.451736 176.751381 
L 306.091509 189.843931 
L 302.751926 202.939654 
L 299.424404 216.034801 
L 296.1161 229.136504 
L 292.858426 242.061856 
" style="fill:none;stroke:#0000ff;stroke-opacity:0.2;"/>
   </g>
   <g id="PatchCollection_2">
    <path clip-path="url(#pf8e588c90a)" d="M 115.268883 83.711916 
L 115.439867 84.205589 
L 115.367462 85.036146 
L 115.407615 85.533628 
L 115.670603 85.991477 
L 116.672539 87.058852 
L 117.94907 88.032109 
L 118.77066 89.321081 
L 119.220115 89.712316 
L 119.528446 89.791609 
L 120.116272 89.727779 
L 123.248959 88.056944 
L 124.219081 87.904702 
L 124.919201 87.642609 
L 125.460699 87.670085 
L 125.93103 87.86966 
L 126.486062 88.382776 
L 127.475657 89.482605 
L 127.77588 89.842724 
L 128.122896 90.147784 
L 128.870669 90.464281 
L 129.593072 90.437514 
L 130.819393 90.005407 
L 130.970969 90.142518 
L 131.547478 90.91532 
L 132.211229 91.288827 
L 132.962331 91.518187 
L 133.420924 91.460539 
L 134.643944 90.948474 
L 135.279346 90.972527 
L 135.784502 91.3343 
L 135.821933 91.706333 
L 135.539263 92.110902 
L 134.996462 92.828463 
L 134.914493 93.138302 
L 135.022604 93.603124 
L 135.350486 93.969856 
L 135.866488 94.194437 
L 136.465674 94.154166 
L 137.434777 93.819151 
L 137.780873 93.991384 
L 138.117712 94.531141 
L 138.147385 94.995693 
L 138.156928 95.887977 
L 138.401964 96.405289 
L 138.828201 96.639978 
L 139.176542 96.700959 
L 139.841979 96.339052 
L 140.083545 96.104148 
L 140.939626 95.702571 
L 141.67485 95.869756 
L 142.230917 96.135299 
L 142.715378 96.625503 
L 143.047629 97.279244 
L 143.558435 97.969086 
L 143.977708 98.295171 
L 145.114144 98.469776 
L 146.250897 98.537802 
L 146.631134 98.711303 
L 147.136296 99.237321 
L 147.158381 99.7845 
L 146.88746 100.274524 
L 146.037527 101.122144 
L 145.856611 101.459711 
L 145.779159 101.899114 
L 145.980611 102.412545 
L 146.380212 102.751513 
L 146.938841 102.851076 
L 148.493175 102.887852 
L 148.74274 103.099045 
L 149.474969 104.054089 
L 150.022638 104.311294 
L 150.916824 104.406248 
L 151.766428 104.502801 
L 152.602428 104.79166 
L 153.137329 105.396567 
L 153.22792 105.545089 
L 153.305022 105.377222 
L 153.301863 105.322414 
L 153.416692 105.409757 
L 153.871168 105.566923 
L 154.536238 105.806436 
L 154.749658 105.655551 
L 154.915994 105.344732 
L 155.322882 105.28854 
L 155.71656 105.285045 
L 155.824852 105.094077 
L 155.767279 104.814742 
L 156.107731 104.775226 
L 156.609821 104.544868 
L 156.732807 104.543053 
L 157.014679 104.735 
L 157.810104 104.657505 
L 157.990713 104.6749 
L 158.253121 104.787104 
L 158.50153 104.647073 
L 158.565186 104.704236 
L 159.0826 104.854025 
L 159.079179 105.117546 
L 159.310566 105.080232 
L 159.679805 104.926408 
L 159.911915 105.278962 
L 159.998302 105.749193 
L 160.564382 105.696469 
L 161.198876 105.730064 
L 161.617163 105.835521 
L 161.927136 104.76368 
L 162.309558 104.172386 
L 162.308666 104.177004 
L 162.489225 104.240573 
L 162.281801 104.499332 
L 162.14418 104.766924 
L 162.032182 105.850292 
L 162.738614 106.740051 
L 162.227605 107.811802 
L 162.391883 107.842315 
L 162.713665 107.635336 
L 163.94925 107.199105 
L 164.733995 106.904001 
L 165.138639 106.624387 
L 166.229951 105.648965 
L 166.235886 105.675138 
L 166.507875 106.453861 
L 166.724678 106.616912 
L 166.857426 106.724274 
L 166.855312 106.809299 
L 166.886798 106.832058 
L 167.065184 107.11647 
L 167.234898 106.999745 
L 167.364126 106.722153 
L 167.82066 106.928683 
L 168.26486 107.387395 
L 168.16086 107.716695 
L 168.109052 107.915309 
L 168.308647 108.432792 
L 168.471939 108.726225 
L 168.50354 109.401565 
L 168.969403 111.133984 
L 169.216039 111.667074 
L 169.56098 112.20648 
L 169.263768 112.319045 
L 169.448363 112.779608 
L 169.012331 113.033937 
L 168.999214 113.557108 
L 168.712875 113.876947 
L 168.632302 113.810521 
L 168.410156 113.729836 
L 168.302581 113.746871 
L 167.923981 113.564458 
L 167.548036 113.563101 
L 167.488459 113.567773 
L 167.537951 113.624442 
L 167.678567 113.820719 
L 167.562752 114.981997 
L 167.488415 115.003192 
L 167.233491 114.94319 
L 167.084488 115.053598 
L 167.092345 115.771564 
L 167.221682 115.90916 
L 167.05995 115.88446 
L 166.815401 115.947158 
L 166.711396 116.197992 
L 166.958666 116.908887 
L 167.410268 117.017588 
L 167.472128 117.334273 
L 167.528102 117.566293 
L 167.501582 117.676656 
L 167.36446 117.719156 
L 167.560765 118.111926 
L 167.425997 118.311466 
L 167.455227 118.371746 
L 167.342024 118.385134 
L 167.055795 118.490699 
L 166.932464 118.49618 
L 166.754576 118.884153 
L 166.595696 118.921377 
L 166.453882 119.094546 
L 166.547042 119.095696 
L 166.682363 119.198826 
L 166.727437 119.25119 
L 166.577925 119.429875 
L 166.72966 119.39319 
L 166.624943 119.528109 
L 166.297554 120.067048 
L 166.396741 120.044271 
L 166.720309 119.887446 
L 166.925368 120.053651 
L 166.940479 120.246991 
L 166.676017 120.541079 
L 167.031623 120.821052 
L 167.310527 120.874154 
L 167.591183 121.212853 
L 167.695571 121.428736 
L 167.655397 121.445538 
L 167.343163 121.657018 
L 167.350061 121.846943 
L 167.670026 122.690447 
L 167.94876 122.642467 
L 168.154361 122.582457 
L 168.145498 122.796363 
L 167.93804 123.278894 
L 168.323194 123.579227 
L 168.322592 123.808857 
L 168.528916 124.337383 
L 168.479215 124.658202 
L 168.464877 124.807245 
L 168.411119 124.73151 
L 168.334209 124.728824 
L 168.380877 124.915901 
L 168.46411 125.014763 
L 168.27443 125.351117 
L 168.315031 125.720886 
L 168.180898 125.797205 
L 168.375429 126.346899 
L 168.446974 126.625192 
L 168.397438 126.906513 
L 168.097483 127.030273 
L 168.092671 127.942045 
L 168.409855 127.941919 
L 168.40582 128.040188 
L 167.105676 128.368078 
L 166.786981 128.53644 
L 166.391163 128.938483 
L 166.292463 128.939831 
L 165.136629 128.478783 
L 164.581214 128.150443 
L 164.624668 129.174987 
L 165.040086 129.040472 
L 164.938485 129.145938 
L 164.758281 129.804198 
L 164.843009 130.004025 
L 165.058411 130.01 
L 164.9363 131.022746 
L 165.113509 132.725874 
L 165.379476 132.844745 
L 165.31507 132.923921 
L 164.013738 134.555573 
L 163.95299 134.886671 
L 163.575649 136.015611 
L 163.286781 136.340904 
L 163.276526 137.081575 
L 163.399064 136.941678 
L 163.98222 136.801162 
L 164.150543 136.489364 
L 164.552482 136.33368 
L 164.761194 136.17363 
L 164.958156 136.128544 
L 165.342428 136.562053 
L 165.524225 136.605944 
L 165.774774 136.707583 
L 165.719347 136.802159 
L 164.64614 138.477927 
L 164.861032 139.105782 
L 165.475712 139.815392 
L 165.552114 139.987509 
L 165.640061 139.920013 
L 165.775262 139.720492 
L 166.089916 139.689314 
L 166.270607 139.726395 
L 166.413774 139.849598 
L 166.420721 139.817638 
L 166.726649 139.732128 
L 166.945203 139.38651 
L 167.061248 139.281224 
L 167.075006 139.336293 
L 167.39421 139.536488 
L 167.582993 139.582356 
L 167.68178 139.301152 
L 167.90402 139.017513 
L 167.754097 138.460595 
L 168.171957 138.0282 
L 168.101042 137.698064 
L 168.149445 137.553953 
L 168.366012 137.45811 
L 168.96919 137.921647 
L 169.519519 137.92923 
L 169.614266 138.209168 
L 169.70114 139.273164 
L 170.22726 139.521088 
L 170.187868 139.564539 
L 169.902773 139.900489 
L 169.789843 140.027923 
L 169.908718 140.060009 
L 170.233928 140.212547 
L 170.442606 140.698026 
L 170.767657 140.674979 
L 170.842159 140.568803 
L 170.950916 140.51386 
L 171.140257 140.271543 
L 171.584856 140.231398 
L 171.715568 139.965468 
L 171.931084 140.044977 
L 172.464364 140.423012 
L 173.346873 139.928432 
L 173.520288 139.936698 
L 173.386291 140.388061 
L 172.868231 140.461369 
L 172.745891 140.403784 
L 172.537223 140.607097 
L 172.373225 140.986858 
L 172.420851 141.122963 
L 172.407448 141.567488 
L 172.623835 141.679162 
L 172.87208 141.782023 
L 173.273652 141.557865 
L 173.428234 141.453019 
L 173.457136 141.484556 
L 173.551565 141.555169 
L 173.519652 141.602062 
L 173.244373 142.176501 
L 173.157345 142.910047 
L 172.69233 143.168078 
L 172.697553 143.328964 
L 172.815519 143.573518 
L 172.662832 143.921364 
L 172.100508 144.020837 
L 172.015254 144.476197 
L 172.07269 144.470708 
L 172.276277 144.649438 
L 172.225503 144.701632 
L 171.998342 145.271955 
L 171.97866 145.530113 
L 171.553831 145.732932 
L 171.273799 145.832036 
L 171.717254 146.440609 
L 171.641143 146.459828 
L 171.283385 146.644219 
L 170.481691 147.248209 
L 170.571297 147.523798 
L 171.226458 147.823861 
L 171.617519 147.899893 
L 171.892826 147.867528 
L 171.957818 148.33545 
L 171.871294 149.059508 
L 171.620793 149.299812 
L 171.489337 149.979681 
L 171.564917 150.279178 
L 172.224951 150.590518 
L 172.114868 150.702867 
L 171.904641 151.183772 
L 171.302586 151.280388 
L 171.081584 151.392548 
L 170.997003 151.770915 
L 171.096667 151.92871 
L 171.778484 152.797822 
L 171.749988 152.998394 
L 172.17381 153.348711 
L 172.293227 153.524197 
L 172.269603 153.61827 
L 171.725286 154.576792 
L 171.263977 155.549851 
L 170.930347 155.804396 
L 170.671903 156.345115 
L 170.613191 156.497393 
L 169.993857 157.734863 
L 169.854835 158.088855 
L 169.772351 158.357282 
L 169.175952 160.088757 
L 169.171512 160.410807 
L 169.295631 160.902889 
L 169.345425 161.083093 
L 168.88589 162.040805 
L 168.87735 162.077923 
L 169.46811 162.157898 
L 169.398832 162.248845 
L 169.374217 162.272197 
L 169.464163 162.290131 
L 169.800246 162.368031 
L 169.564374 162.672479 
L 169.678223 162.722085 
L 169.959388 162.756085 
L 169.980104 162.674348 
L 170.270204 162.792699 
L 170.11404 162.842305 
L 170.196212 162.920331 
L 170.209576 162.918704 
L 170.366441 163.036327 
L 170.439409 163.15625 
L 170.534726 163.251941 
L 170.470763 163.285554 
L 169.805178 163.32197 
L 169.80531 163.330604 
L 169.832919 163.474194 
L 170.41036 163.375053 
L 170.856136 163.478641 
L 171.088454 163.615672 
L 171.095566 163.764805 
L 171.141615 163.749594 
L 171.254752 163.915619 
L 171.267087 163.94031 
L 171.311411 163.862104 
L 171.36161 163.882024 
L 171.709502 163.960831 
L 171.563488 164.063557 
L 170.890813 164.910161 
L 170.942945 164.918616 
L 170.835069 165.048036 
L 170.622668 165.061765 
L 169.971536 165.142334 
L 169.607433 165.124696 
L 168.928939 165.745579 
L 169.009506 165.964517 
L 169.116846 166.041896 
L 169.317054 166.031087 
L 169.300011 166.137855 
L 169.003298 166.744155 
L 168.996509 166.741747 
L 168.676533 166.960523 
L 168.687072 166.963992 
L 168.831153 167.804306 
L 168.995409 168.022301 
L 168.952382 168.043981 
L 168.573026 168.134667 
L 167.938204 167.794692 
L 167.269581 169.201 
L 167.560168 169.629432 
L 168.235126 169.900717 
L 168.126626 170.611917 
L 168.145536 170.613247 
L 168.697518 171.695105 
L 168.884073 172.033121 
L 169.153149 172.2648 
L 169.95163 172.795212 
L 169.987556 173.118673 
L 170.141294 173.39374 
L 170.209664 174.212203 
L 170.612632 175.210995 
L 171.035694 175.204787 
L 171.623279 175.660633 
L 172.126333 175.957111 
L 172.305726 175.98279 
L 172.861919 176.382821 
L 172.955368 176.693074 
L 173.063447 177.203701 
L 173.196195 177.505714 
L 173.439786 178.183598 
L 173.848196 178.701467 
L 174.547594 179.282519 
L 175.137385 180.343146 
L 175.960722 180.460104 
L 176.766851 180.611079 
L 177.348819 181.401698 
L 178.107196 182.045034 
L 178.458953 182.171165 
L 179.206655 182.992027 
L 179.581406 183.02086 
L 180.091036 182.964345 
L 180.172868 182.444211 
L 180.216491 182.192433 
L 180.733856 181.407664 
L 181.484476 181.472185 
L 181.760577 181.547399 
L 181.826127 182.204787 
L 182.009391 182.993043 
L 182.239645 183.170784 
L 182.75672 183.709283 
L 183.26653 183.897816 
L 183.964208 184.054173 
L 184.776694 184.26506 
L 184.742268 184.458526 
L 184.974143 185.091062 
L 184.947546 185.624439 
L 184.927831 185.656911 
L 185.009899 185.881833 
L 187.282924 186.068227 
L 188.462901 186.195715 
L 189.123455 186.11591 
L 189.091712 185.969904 
L 189.131163 185.624619 
L 189.16382 185.247113 
L 189.854704 185.163903 
L 190.747346 184.853902 
L 190.987746 183.760183 
L 191.335068 183.374223 
L 192.029391 183.354725 
L 192.302491 183.537094 
L 192.797327 184.222642 
L 193.233222 184.280865 
L 193.763228 184.310731 
L 194.342393 184.72538 
L 194.608622 184.948982 
L 195.695407 185.585112 
L 195.862586 185.480463 
L 196.287586 185.567519 
L 196.701476 185.71871 
L 196.889673 185.840978 
L 197.104566 186.188905 
L 197.426808 186.376763 
L 197.791809 186.455382 
L 197.966587 186.701635 
L 197.932638 187.678755 
L 199.031867 187.921359 
L 200.116231 187.876946 
L 200.724577 187.670614 
L 201.427933 187.459835 
L 201.668677 187.448154 
L 201.899446 188.195115 
L 201.994938 188.297229 
L 202.296727 190.379354 
L 203.795448 190.444262 
L 204.102645 190.383873 
L 204.105049 190.427828 
L 204.264766 190.965195 
L 204.718765 190.99578 
L 205.532811 190.705609 
L 205.643769 189.979548 
L 206.120352 190.07115 
L 206.675931 190.267068 
L 206.709388 190.172132 
L 207.579567 190.348374 
L 208.031853 190.431278 
L 208.023832 190.472771 
L 207.796419 191.471491 
L 207.834967 191.47637 
L 208.904889 191.726154 
L 208.715198 193.423432 
L 208.775799 193.391248 
L 209.410736 193.158832 
L 209.967968 193.190621 
L 211.088253 193.442965 
L 211.389735 193.815394 
L 211.389867 193.599089 
L 211.431229 193.219355 
L 212.686622 193.526993 
L 212.829996 194.256136 
L 212.239072 194.336732 
L 212.246758 195.28926 
L 211.663005 195.215889 
L 211.76101 195.471108 
L 211.976724 195.679632 
L 212.603465 196.190879 
L 212.927202 196.199721 
L 213.840495 196.308143 
L 214.434288 196.367938 
L 214.591427 196.445497 
L 214.598807 196.385522 
L 214.743457 196.00905 
L 214.825344 196.015968 
L 214.836994 195.869548 
L 214.871951 195.875425 
L 215.745278 195.873933 
L 216.19297 195.790328 
L 216.412067 195.771279 
L 216.514271 195.611786 
L 216.697251 195.617582 
L 216.756401 195.030168 
L 217.436094 195.087879 
L 217.424876 195.346126 
L 217.786992 195.34742 
L 217.855422 195.650889 
L 218.022469 195.673828 
L 218.113225 195.970387 
L 218.37461 195.995141 
L 218.472609 196.74804 
L 218.405646 197.151665 
L 216.944822 197.476743 
L 217.116545 198.163674 
L 217.350769 198.749282 
L 217.642342 199.587979 
L 217.828797 199.838104 
L 217.819173 199.925905 
L 217.929917 199.92675 
L 217.994214 199.985413 
L 217.917533 200.265584 
L 217.858197 200.290472 
L 218.134281 200.729175 
L 218.350729 200.707772 
L 218.384924 200.770299 
L 218.305463 200.966163 
L 218.66028 201.315312 
L 219.070552 202.36336 
L 218.964089 202.578632 
L 218.987116 202.764227 
L 218.855803 202.71923 
L 218.874006 202.739302 
L 219.141703 203.180224 
L 219.024323 203.366816 
L 218.949307 203.577721 
L 219.525932 203.656295 
L 219.46503 204.043854 
L 218.920285 204.041761 
L 219.00025 204.222611 
L 218.990916 204.588256 
L 218.856848 204.887709 
L 218.2551 205.504827 
L 218.335164 205.529473 
L 218.708453 205.70513 
L 218.599975 205.737709 
L 218.373274 206.152269 
L 218.453721 206.195478 
L 219.15349 206.673184 
L 219.038371 206.954793 
L 218.849025 206.934271 
L 218.845817 206.983599 
L 218.834144 207.436156 
L 218.704479 207.350151 
L 218.55016 207.515691 
L 218.66864 207.561425 
L 218.967719 207.778296 
L 219.133152 207.803966 
L 219.242632 207.729714 
L 219.264033 207.746929 
L 219.381599 208.248338 
L 219.341392 208.289723 
L 219.464449 208.305186 
L 219.472306 208.329428 
L 219.687515 208.45476 
L 219.862857 208.527359 
L 220.267261 209.620062 
L 220.380025 209.977271 
L 220.421245 210.073213 
L 220.322168 210.067022 
L 219.802038 209.892866 
L 219.775693 209.852729 
L 219.512907 209.892407 
L 219.359267 209.861041 
L 219.490493 210.777755 
L 219.426142 210.740808 
L 218.894553 210.424868 
L 218.631362 210.542114 
L 218.834298 211.243044 
L 218.978652 211.572039 
L 219.006847 211.926453 
L 218.754059 211.954576 
L 218.766371 211.978566 
L 219.078995 212.227424 
L 218.911 212.346997 
L 218.251831 212.901228 
L 213.036227 216.288938 
L 214.819535 219.55173 
L 214.97952 219.762563 
L 215.475057 219.830175 
L 215.58192 219.771557 
L 215.514334 219.687053 
L 215.484397 219.628974 
L 215.770517 219.511171 
L 215.945514 219.604328 
L 215.871587 219.388023 
L 215.845828 219.399281 
L 215.635962 219.473955 
L 215.511421 219.012835 
L 215.888269 218.992179 
L 216.039741 219.424744 
L 216.308013 219.323789 
L 216.25004 219.139425 
L 216.478066 219.057895 
L 216.520321 218.870827 
L 216.72561 218.803583 
L 216.788921 218.651746 
L 216.8887 218.940479 
L 217.154234 219.338012 
L 218.072055 220.556955 
L 218.062041 220.702944 
L 218.685585 220.535741 
L 219.039269 221.182501 
L 218.638025 221.468377 
L 218.645422 221.850824 
L 218.342752 222.38174 
L 217.957686 223.167354 
L 218.064488 223.428153 
L 218.235007 223.732529 
L 218.833586 223.682213 
L 219.144654 224.192373 
L 220.349186 224.243237 
L 220.632322 225.965916 
L 221.412965 227.242516 
L 221.579701 227.272427 
L 221.546376 228.126597 
L 221.559975 228.701673 
L 221.525621 229.017335 
L 221.251447 229.087625 
L 221.357867 229.570731 
L 221.251529 229.720637 
L 221.200099 229.842761 
L 220.983871 230.077189 
L 221.013008 230.097064 
L 221.224418 230.186762 
L 220.80451 230.510393 
L 220.681737 230.477014 
L 220.499524 230.200626 
L 220.228181 230.172143 
L 220.168566 230.17907 
L 220.244157 230.246108 
L 220.424809 230.666445 
L 220.379489 231.002358 
L 220.162024 231.866348 
L 220.24638 232.183753 
L 220.709434 232.739683 
L 221.346068 233.320663 
L 221.274315 233.955481 
L 221.032038 234.302986 
L 220.70541 234.777341 
L 220.695069 235.100585 
L 220.593144 235.022065 
L 220.418683 234.968973 
L 219.982685 235.283601 
L 219.759241 235.569837 
L 219.783057 236.028737 
L 220.319895 236.284774 
L 220.551387 236.006446 
L 220.513064 235.402545 
L 220.614496 235.340189 
L 220.755998 235.195907 
L 221.264099 235.638006 
L 221.353383 236.011289 
L 221.228475 236.541881 
L 221.25142 236.95281 
L 222.120498 238.892091 
L 222.875361 238.855064 
L 223.366819 238.939775 
L 223.679026 239.022518 
L 223.631488 238.958769 
L 223.923499 238.997036 
L 223.930507 239.120966 
L 224.307924 239.224707 
L 224.594071 239.553307 
L 224.624862 239.8069 
L 224.899884 239.823325 
L 224.988587 239.25487 
L 224.899752 239.268339 
L 224.637355 239.254493 
L 224.625497 238.924608 
L 224.380712 238.771854 
L 224.435904 238.309395 
L 224.517188 238.369289 
L 225.004617 238.410171 
L 225.227618 238.459813 
L 225.872524 238.50145 
L 225.870312 238.45214 
L 225.827138 237.469871 
L 226.836662 236.972065 
L 227.188326 236.73637 
L 227.492419 236.348568 
L 227.994597 236.150727 
L 227.985263 236.139981 
L 228.18315 236.015179 
L 227.755266 235.079309 
L 227.863421 235.09178 
L 228.436809 235.089049 
L 228.508289 235.529296 
L 228.695692 235.824059 
L 229.174985 235.552981 
L 229.304596 235.465853 
L 229.32055 235.515918 
L 229.758415 235.522369 
L 229.782646 235.388663 
L 230.613111 235.961557 
L 230.922498 236.16495 
L 231.142991 235.989078 
L 231.12891 235.966076 
L 230.716787 235.168404 
L 230.665855 235.003332 
L 230.688663 235.003619 
L 230.725739 234.948352 
L 230.750239 234.983987 
L 230.873395 235.140021 
L 231.166736 235.070072 
L 231.361606 234.754483 
L 231.496594 234.393483 
L 231.555639 234.070121 
L 231.793367 233.906567 
L 231.973062 233.779932 
L 232.231353 233.597087 
L 232.60352 233.974458 
L 232.399807 234.30879 
L 232.715973 234.770692 
L 232.756519 234.892816 
L 232.963451 234.920589 
L 233.226007 235.170911 
L 233.398404 235.408807 
L 233.57368 235.390029 
L 233.578701 235.461828 
L 233.623901 235.663182 
L 233.601257 235.75111 
L 233.664135 235.767759 
L 233.688805 236.003966 
L 233.438923 236.175418 
L 233.352251 236.298117 
L 233.306049 236.440656 
L 233.287692 236.500352 
L 233.714066 236.378138 
L 233.872835 236.005089 
L 233.992356 235.954988 
L 233.957098 236.039735 
L 234.158287 236.009312 
L 234.291632 235.960065 
L 234.587261 236.099998 
L 234.537577 235.965348 
L 234.520539 235.710964 
L 234.609346 235.666111 
L 234.621282 235.729653 
L 234.843838 236.130205 
L 234.919473 236.423108 
L 235.26586 236.426055 
L 235.540487 236.331452 
L 235.619035 235.995538 
L 235.661569 236.050984 
L 236.241456 236.774287 
L 235.677232 236.468904 
L 235.573369 237.016469 
L 235.537219 237.340801 
L 235.735594 237.42031 
L 236.080294 237.535839 
L 236.401786 237.52317 
L 237.179041 237.820349 
L 237.352905 238.15859 
L 238.055379 238.085273 
L 238.720099 238.20941 
L 238.941972 240.142113 
L 239.016758 240.129876 
L 239.649548 240.172213 
L 239.702435 240.660755 
L 239.892762 241.187187 
L 240.08709 241.203235 
L 240.396451 240.303682 
L 240.721726 240.260895 
L 241.414488 239.726826 
L 242.205638 239.831969 
L 242.492639 239.854871 
L 242.363455 240.057465 
L 242.600706 240.467766 
L 242.55434 240.694341 
L 242.660376 240.705923 
L 242.79405 240.741593 
L 242.78765 241.197439 
L 243.541916 241.177933 
L 243.757974 241.136781 
L 246.531217 241.122729 
L 246.817008 240.614141 
L 246.90328 240.700532 
L 247.572265 241.337695 
L 248.026987 240.775566 
L 248.513469 241.2571 
L 249.133459 241.656789 
L 249.571598 241.718408 
L 250.089877 241.644102 
L 250.887761 241.882169 
L 251.07644 241.700232 
L 251.713123 240.990155 
L 252.152428 241.065099 
L 252.218022 240.987999 
L 252.264224 241.087436 
L 252.205906 241.344182 
L 252.052529 241.43636 
L 252.05242 241.537163 
L 251.91486 241.581009 
L 251.980607 242.116364 
L 252.067257 241.899402 
L 252.263885 241.871639 
L 252.69956 241.945747 
L 252.70579 241.915989 
L 252.909262 241.225949 
L 253.283023 241.090194 
L 254.686997 241.010659 
L 255.097236 241.145973 
L 255.713941 240.578974 
L 255.92948 240.426588 
L 255.996754 240.245297 
L 255.864056 239.898152 
L 256.009341 239.962925 
L 256.366901 240.036953 
L 257.452345 240.081132 
L 257.534018 240.363585 
L 257.616403 240.436534 
L 257.593031 240.343647 
L 257.640054 240.416327 
L 257.730373 240.456751 
L 257.730214 240.513347 
L 257.871552 240.550365 
L 258.560569 240.715564 
L 259.189363 240.426633 
L 259.550373 240.496249 
L 259.98457 240.30255 
L 259.999675 239.957381 
L 260.235875 239.833307 
L 260.908024 239.678055 
L 261.710841 239.345637 
L 262.06199 238.943234 
L 262.503195 238.678293 
L 262.919495 238.776301 
L 263.135115 238.92229 
L 263.425571 239.028205 
L 263.414194 239.920408 
L 263.320931 240.621697 
L 263.411249 240.6261 
L 264.275164 240.814929 
L 264.937957 240.904402 
L 264.970636 240.90584 
L 264.931223 240.825253 
L 264.816142 239.75175 
L 265.314324 239.340821 
L 265.385321 239.158083 
L 265.334137 239.162217 
L 265.145174 238.839331 
L 265.769916 238.608704 
L 266.477652 238.773911 
L 266.347641 238.289223 
L 265.868222 238.262547 
L 265.82432 237.998594 
L 266.205581 237.707597 
L 266.441452 237.682888 
L 267.119794 236.880697 
L 267.394088 236.72451 
L 267.288714 236.21745 
L 267.159054 236.09502 
L 267.038909 235.885139 
L 267.483179 235.911231 
L 267.315349 235.447479 
L 266.956961 235.335094 
L 267.000207 235.278489 
L 267.589582 234.785975 
L 268.364532 234.357156 
L 267.812473 233.813635 
L 267.818698 232.825759 
L 267.258914 232.278725 
L 267.041651 232.091953 
L 266.857117 231.94866 
L 266.730671 231.699227 
L 267.052475 231.246742 
L 268.97129 231.944581 
L 269.119143 231.844497 
L 269.684074 231.470693 
L 269.807711 231.34785 
L 269.462623 230.943399 
L 269.333926 230.675322 
L 268.974876 230.176627 
L 269.092787 230.108071 
L 269.313116 230.063236 
L 269.757436 229.941228 
L 270.147347 229.580606 
L 270.25294 229.512418 
L 270.320094 228.983524 
L 270.451846 228.288435 
L 270.484739 228.106416 
L 270.926157 227.474383 
L 271.183052 227.4583 
L 271.543405 227.424687 
L 272.094856 227.474725 
L 272.333142 227.55081 
L 272.539012 227.333849 
L 272.728583 227.389727 
L 272.077709 226.59528 
L 272.061607 226.176085 
L 272.232997 225.857961 
L 272.597067 225.495721 
L 272.818655 225.527609 
L 273.111191 225.743851 
L 273.376457 225.791454 
L 275.153978 225.853505 
L 275.18923 225.836712 
L 275.531527 225.98341 
L 276.929369 226.008811 
L 277.069393 226.102695 
L 277.507044 226.501666 
L 278.309264 226.550706 
L 278.287042 226.631921 
L 278.358861 226.670997 
L 278.339978 226.719696 
L 278.210022 226.730298 
L 278.212431 226.859485 
L 278.807161 226.773462 
L 278.814924 226.585397 
L 279.297305 226.554489 
L 280.220584 226.72595 
L 280.468572 226.811514 
L 280.745357 226.954385 
L 281.041036 227.211374 
L 281.955046 227.455452 
L 282.659048 227.792291 
L 283.132411 229.013076 
L 283.331908 228.893396 
L 283.456997 228.907134 
L 283.668988 228.498909 
L 283.672174 228.217148 
L 283.721108 227.857253 
L 283.529955 227.855186 
L 283.547304 227.752047 
L 283.662642 227.557728 
L 284.504462 227.425415 
L 284.722787 227.259165 
L 284.950282 226.996291 
L 285.933078 226.37814 
L 286.097651 226.415086 
L 286.072554 226.324894 
L 286.167794 225.717849 
L 286.712347 225.706159 
L 286.839232 225.731856 
L 287.421944 226.030743 
L 287.585565 225.926256 
L 289.156159 225.469826 
L 289.449588 225.676078 
L 289.46155 225.653336 
L 289.416328 224.873653 
L 289.454422 224.613842 
L 289.758444 224.417448 
L 290.352293 224.321533 
L 290.400093 224.485383 
L 290.411043 224.486381 
L 290.585898 224.295422 
L 291.209879 224.299465 
L 291.545267 224.242312 
L 292.438144 224.171043 
L 292.43752 224.181321 
L 292.678473 224.332566 
L 292.789458 224.216013 
L 293.218432 224.58261 
L 294.260778 224.106979 
L 294.776051 223.910765 
L 294.859 223.518677 
L 294.745809 222.839005 
L 294.921955 222.925171 
L 295.437224 222.937139 
L 295.671891 222.79081 
L 295.859113 222.520675 
L 296.261753 222.193288 
L 296.737964 222.244278 
L 296.83569 222.508572 
L 296.960253 222.783487 
L 297.451914 222.813712 
L 297.731381 223.200724 
L 298.037829 224.157044 
L 298.086172 224.42318 
L 297.986557 224.502024 
L 298.057878 224.545691 
L 298.230909 224.702353 
L 298.570951 224.995328 
L 298.859747 224.939189 
L 299.760936 224.710988 
L 300.542411 224.577534 
L 301.493574 224.702937 
L 301.895973 224.850984 
L 302.180839 224.668696 
L 302.763086 223.893145 
L 302.782872 223.636228 
L 302.923882 223.162861 
L 302.970582 222.653285 
L 302.866834 222.59561 
L 303.099322 222.605107 
L 303.343696 222.651829 
L 303.486545 222.664624 
L 303.58386 222.550406 
L 303.600772 222.570802 
L 303.630424 222.539013 
L 303.569045 222.534072 
L 303.565438 222.469407 
L 303.402304 221.950091 
L 303.173041 221.367188 
L 303.129226 220.983312 
L 303.077116 220.760762 
L 303.128038 220.760412 
L 303.603553 220.722792 
L 303.763161 220.767348 
L 304.057268 221.101159 
L 304.390597 221.633701 
L 304.434144 221.739769 
L 304.89843 222.105774 
L 304.898162 222.077822 
L 305.003388 221.798747 
L 305.381863 221.438718 
L 305.936188 220.957516 
L 306.118609 220.852715 
L 306.515205 220.330057 
L 306.674468 220.043884 
L 306.779469 219.198214 
L 306.775423 218.926328 
L 306.560422 218.487841 
L 306.182008 217.963853 
L 306.316195 217.649198 
L 306.31959 217.390699 
L 306.262104 217.057445 
L 306.301742 216.303692 
L 306.053519 215.741068 
L 306.190521 215.555662 
L 306.307939 215.355575 
L 306.370796 214.883996 
L 306.154677 214.632066 
L 306.035041 214.205286 
L 305.923804 214.044266 
L 305.808855 213.617828 
L 305.32435 213.415324 
L 305.316931 213.146169 
L 305.418287 212.929845 
L 305.246481 212.509823 
L 305.038838 212.518628 
L 304.813888 212.495986 
L 304.365725 212.084868 
L 303.781841 211.503942 
L 302.593411 210.425632 
L 301.888308 209.333351 
L 301.518747 209.159958 
L 301.296272 208.534286 
L 300.994692 207.975284 
L 300.87233 207.693927 
L 301.033005 207.274443 
L 301.029298 206.995647 
L 300.926711 206.691747 
L 301.130648 206.558652 
L 301.298747 206.379096 
L 301.108404 206.180716 
L 300.557456 205.942244 
L 300.595616 205.659935 
L 300.764514 205.200621 
L 300.730242 204.45172 
L 300.685403 204.223321 
L 300.698121 203.860605 
L 300.380406 203.393106 
L 300.061525 202.773337 
L 299.725333 202.660441 
L 299.649939 202.414575 
L 299.413865 202.354366 
L 298.931834 202.384466 
L 298.785985 202.325515 
L 298.616654 202.261542 
L 298.520248 202.13736 
L 298.100012 202.093468 
L 297.83675 201.542876 
L 297.7663 201.218076 
L 297.400445 200.780443 
L 297.245294 200.578864 
L 297.241702 200.246185 
L 297.266421 199.9942 
L 297.401146 199.708387 
L 297.326989 199.379967 
L 297.276314 199.148091 
L 297.298558 198.995184 
L 297.696545 198.753298 
L 297.958575 198.947554 
L 298.0933 198.833507 
L 298.069813 198.587875 
L 297.99195 198.216946 
L 298.199593 198.190629 
L 298.271281 198.389872 
L 298.352856 198.477593 
L 298.470274 198.409927 
L 298.450499 198.220702 
L 298.2033 197.711989 
L 298.55803 197.312326 
L 299.167509 197.241973 
L 299.929971 196.564467 
L 300.189532 196.460511 
L 300.547968 195.915695 
L 300.680218 195.77543 
L 300.685162 195.383477 
L 300.746962 195.236967 
L 300.843368 194.87887 
L 301.19933 194.568374 
L 301.294499 194.338026 
L 301.484842 194.366814 
L 301.887772 194.43191 
L 301.858109 194.229109 
L 301.871709 194.010046 
L 302.943306 193.342899 
L 302.906225 193.076332 
L 302.770269 192.814778 
L 303.022407 192.484417 
L 303.194212 192.320503 
L 303.288143 192.060252 
L 303.430286 191.562312 
L 303.563773 191.387176 
L 303.49703 190.634169 
L 303.787485 190.263968 
L 304.005876 190.159616 
L 304.332553 189.653715 
L 304.301653 189.412396 
L 304.374277 188.693936 
L 304.157041 188.45099 
L 304.000073 188.345982 
L 303.631749 187.187382 
L 303.597049 186.827236 
L 303.547759 186.520577 
L 303.748609 186.352531 
L 303.935858 186.332539 
L 304.176258 186.036447 
L 304.367838 185.30442 
L 304.429988 184.87632 
L 304.169179 184.416332 
L 304.026702 184.254709 
L 304.090977 184.071155 
L 304.683631 183.598552 
L 304.753895 183.247238 
L 304.984626 183.050376 
L 305.301875 182.638162 
L 305.534353 182.411335 
L 305.515125 182.229523 
L 305.516877 181.873869 
L 305.90929 181.574722 
L 305.907538 181.057661 
L 305.966973 180.5592 
L 305.773821 180.298958 
L 305.783337 179.82622 
L 305.781694 179.58632 
L 306.079251 179.333662 
L 306.418252 179.023319 
L 306.463802 178.48305 
L 306.196384 178.153839 
L 306.059864 177.980806 
L 305.567021 176.933369 
L 304.952445 176.378077 
L 304.241255 175.971209 
L 303.160755 175.601439 
L 302.574074 174.856591 
L 302.265989 174.13787 
L 302.295099 173.697748 
L 302.391762 173.239108 
L 302.174264 172.136512 
L 302.167656 171.645149 
L 302.350854 171.259575 
L 303.518962 169.559331 
L 303.557433 168.966392 
L 303.261662 168.228444 
L 302.485091 167.105685 
L 302.620029 166.743949 
L 303.721191 165.509453 
L 303.948571 164.560096 
L 304.018046 163.827943 
L 304.150072 163.424058 
L 304.061215 163.243477 
L 303.503063 162.549259 
L 303.196358 161.854654 
L 302.685519 161.458406 
L 301.553611 161.152331 
L 300.871021 160.943025 
L 300.019583 160.820335 
L 298.548427 160.120348 
L 297.528145 159.961098 
L 297.344235 159.786456 
L 296.936645 158.895745 
L 296.433997 158.557189 
L 296.360235 158.178696 
L 296.449901 157.849548 
L 296.967496 157.162796 
L 296.924333 156.903947 
L 296.580716 156.058852 
L 296.4971 155.679442 
L 296.206392 155.372298 
L 295.675827 155.074759 
L 295.673949 154.690668 
L 295.767361 154.243169 
L 295.588597 153.657796 
L 295.178248 152.618993 
L 295.220328 152.04893 
L 294.898238 150.299116 
L 294.180139 148.935002 
L 294.311009 148.395147 
L 294.852584 147.031006 
L 294.714137 146.42369 
L 294.816713 145.955086 
L 295.140762 145.419364 
L 295.567398 145.075983 
L 296.064819 144.980302 
L 296.493431 144.942915 
L 296.702591 144.761975 
L 297.154297 144.086733 
L 297.545298 143.746767 
L 297.942206 143.121203 
L 298.313059 142.772621 
L 298.402386 142.235416 
L 298.488812 141.684742 
L 298.795571 141.415039 
L 299.227354 141.057193 
L 299.644295 140.368294 
L 299.706636 139.835635 
L 299.425318 139.316005 
L 299.05193 139.054487 
L 298.611054 138.841659 
L 298.406591 138.501621 
L 298.257742 137.597836 
L 297.997053 136.814972 
L 298.133239 136.241521 
L 298.581429 135.338707 
L 298.712299 134.587461 
L 299.12941 134.190808 
L 299.934405 133.451503 
L 299.952083 133.140658 
L 299.787494 132.802201 
L 298.447154 131.619468 
L 298.358653 131.284174 
L 298.195597 130.618339 
L 297.579499 129.661813 
L 296.675628 129.119819 
L 296.257916 128.656893 
L 295.220437 128.181702 
L 293.869958 127.374623 
L 293.009431 126.965931 
L 290.273625 124.87811 
L 289.843189 123.860952 
L 289.401475 123.563099 
L 288.627834 123.283135 
L 288.157629 122.045225 
L 287.49788 121.333468 
L 287.208415 120.811061 
L 285.528499 118.580657 
L 285.294484 118.306551 
L 284.580693 117.756542 
L 284.034191 116.974145 
L 281.162117 115.470943 
L 280.447855 115.091623 
L 279.024566 113.816056 
L 278.296656 112.923943 
L 277.87746 112.503579 
L 277.587059 112.248081 
L 276.929659 111.255174 
L 276.540574 111.035652 
L 275.622951 110.89793 
L 272.39129 110.333347 
L 272.207566 110.222886 
L 271.901589 109.893225 
L 271.679366 109.134746 
L 271.811671 108.41219 
L 272.31588 107.65681 
L 273.604592 105.642307 
L 273.640776 104.30026 
L 273.417616 103.969872 
L 273.277297 103.604991 
L 272.832588 100.870312 
L 272.749858 100.537417 
L 272.665212 99.258032 
L 272.61123 98.857938 
L 272.978596 97.999411 
L 273.560728 97.856639 
L 273.81926 97.798506 
L 274.041959 97.502908 
L 274.270867 96.956709 
L 274.734754 96.772866 
L 275.313339 96.497566 
L 275.759964 96.108254 
L 276.262826 95.797274 
L 276.784582 95.68479 
L 276.986553 95.657197 
L 277.751594 95.316225 
L 278.166974 95.074618 
L 278.952725 94.465793 
L 279.139548 94.388854 
L 279.587301 93.86271 
L 279.867404 93.594786 
L 280.0722 93.480577 
L 280.397355 93.264227 
L 281.219788 92.559622 
L 281.550024 92.120165 
L 281.827827 91.878828 
L 282.037727 91.486623 
L 282.944521 90.833511 
L 283.54034 90.392158 
L 284.02103 89.727626 
L 284.031492 89.572105 
L 284.330089 89.195624 
L 284.56699 88.290294 
L 284.675063 88.015801 
L 285.050082 87.299705 
L 285.261903 86.18169 
L 285.401954 84.961354 
L 285.701318 84.40015 
L 285.812615 83.607942 
L 285.78125 83.397324 
L 286.017149 81.728447 
L 285.397843 80.811176 
L 285.172603 80.247717 
L 285.16346 79.828925 
L 284.998022 79.162597 
L 285.206766 78.439123 
L 285.228392 78.255299 
L 285.445693 77.802625 
L 285.777965 76.394583 
L 286.315373 76.195116 
L 286.800213 76.09673 
L 287.157894 75.743978 
L 287.253588 75.296893 
L 287.407814 74.436578 
L 288.220666 73.455225 
L 288.632531 73.024762 
L 288.718042 72.624471 
L 288.806734 72.252401 
L 289.441764 71.479061 
L 289.589146 71.266835 
L 289.581536 70.942036 
L 289.308523 70.018996 
L 287.998164 69.867149 
L 287.701417 67.984789 
L 287.653836 67.548746 
L 287.209718 66.938708 
L 287.683329 65.532697 
L 287.439305 65.05642 
L 286.691444 65.088254 
L 285.800308 65.596922 
L 285.669596 66.110506 
L 285.455547 66.338869 
L 285.131542 66.281113 
L 284.815869 66.148854 
L 284.743208 66.144846 
L 284.742211 66.195926 
L 284.692516 66.37958 
L 284.104367 66.536081 
L 284.110729 66.566864 
L 283.980308 66.830646 
L 283.000348 66.683839 
L 282.241828 66.794742 
L 282.14863 67.226462 
L 281.407077 68.762307 
L 281.475276 68.962215 
L 281.419357 68.984462 
L 279.280979 69.834246 
L 279.469472 70.864962 
L 279.310642 71.439617 
L 278.443491 71.599874 
L 278.15644 71.595399 
L 276.42418 71.690649 
L 276.150515 71.429068 
L 276.015128 71.343792 
L 275.897929 71.151539 
L 275.890428 71.155313 
L 275.776059 71.275047 
L 275.718963 71.216519 
L 275.665452 71.146049 
L 275.602486 71.207121 
L 275.088526 71.203886 
L 274.85093 71.155043 
L 274.548649 71.080944 
L 274.29142 70.890039 
L 273.92488 70.682971 
L 273.758194 70.621253 
L 273.327725 70.710734 
L 272.753964 70.82656 
L 272.128515 71.143165 
L 271.799467 71.218361 
L 271.679021 71.291077 
L 271.345829 71.226546 
L 271.336604 71.167793 
L 270.359612 71.184919 
L 270.87027 69.414835 
L 271.592448 68.596947 
L 273.386437 66.818174 
L 275.344895 64.866378 
L 276.673558 63.217196 
L 277.384408 62.091823 
L 277.696309 61.291842 
L 278.262548 59.137065 
L 278.161871 58.1275 
L 277.943305 57.398438 
L 278.084397 56.581978 
L 277.700191 56.216656 
L 277.246257 55.6568 
L 276.725481 56.044926 
L 276.486532 56.456754 
L 276.106788 56.626777 
L 274.887671 56.728973 
L 274.358207 56.55682 
L 273.421914 55.846779 
L 273.090808 55.571577 
L 272.413315 55.062109 
L 272.283737 55.234316 
L 271.566487 55.074742 
L 270.753514 56.581816 
L 270.679593 56.714157 
L 270.078058 56.756566 
L 269.431586 57.463211 
L 269.497957 57.661788 
L 269.422536 57.763373 
L 269.355108 57.678339 
L 269.082654 57.490121 
L 268.637792 57.417477 
L 267.88629 57.600421 
L 267.664259 57.356918 
L 267.421971 56.075592 
L 267.348723 56.107003 
L 265.307458 55.996739 
L 264.927599 55.613322 
L 263.170083 55.963135 
L 262.034353 55.976029 
L 261.901425 56.01399 
L 260.874819 56.438946 
L 260.755846 56.549273 
L 260.559552 56.707661 
L 260.353567 56.709377 
L 259.789316 56.253594 
L 259.734452 55.758969 
L 260.110748 55.304606 
L 259.755793 54.708818 
L 259.790274 54.710543 
L 260.470033 54.333056 
L 260.451813 53.995426 
L 260.363914 53.828296 
L 260.433987 53.722102 
L 258.149793 52.076991 
L 258.586919 51.167438 
L 258.62919 51.073499 
L 258.586837 51.038395 
L 258.303603 50.953621 
L 258.136314 50.947996 
L 258.10254 50.214514 
L 258.20199 50.075605 
L 258.273234 49.612653 
L 258.353998 49.392475 
L 256.380156 48.350905 
L 255.721283 48.227783 
L 255.184592 48.129146 
L 255.251024 48.073088 
L 255.274286 47.803142 
L 253.926593 45.538398 
L 254.045452 44.786747 
L 254.100315 44.76751 
L 254.072968 44.680302 
L 253.998083 44.467635 
L 253.98709 44.443636 
L 253.938605 44.491814 
L 253.802687 44.560271 
L 253.503767 44.509137 
L 253.087391 45.257158 
L 252.688851 47.251561 
L 252.90941 47.716608 
L 252.903656 47.879138 
L 252.817165 48.519491 
L 253.195732 48.594677 
L 253.446348 48.728725 
L 253.596834 48.865719 
L 253.712511 49.154012 
L 253.742119 49.245049 
L 254.099455 49.947686 
L 254.184862 49.859956 
L 254.323835 49.710185 
L 254.52942 49.598375 
L 254.753861 49.644702 
L 254.813717 49.742405 
L 255.029638 49.7822 
L 255.213718 49.790223 
L 255.209377 49.843208 
L 255.354826 49.901799 
L 255.377322 49.881287 
L 255.386766 49.840575 
L 255.476926 49.905923 
L 253.988185 51.73087 
L 253.022876 52.067763 
L 252.815999 52.000178 
L 252.644368 51.900579 
L 252.123708 51.829202 
L 251.261193 51.611432 
L 251.098252 51.436691 
L 251.020602 51.078055 
L 250.777071 51.00028 
L 250.616128 51.433708 
L 249.823571 51.359079 
L 249.570936 51.34703 
L 249.460273 51.328557 
L 249.122351 51.468238 
L 248.77021 52.032137 
L 247.699527 52.809404 
L 246.009855 54.141397 
L 246.076998 54.342957 
L 246.145028 54.448864 
L 246.056791 54.459906 
L 245.921869 54.548319 
L 245.840585 54.853917 
L 245.738014 54.715979 
L 245.595061 54.640164 
L 245.390166 54.610837 
L 245.260927 54.504912 
L 244.895247 55.161366 
L 245.160502 55.356674 
L 245.13119 55.381176 
L 245.082202 55.747504 
L 245.104944 55.813652 
L 244.622103 55.862081 
L 244.710801 56.019903 
L 244.9693 56.747698 
L 244.86069 57.006098 
L 244.20611 57.935337 
L 243.954356 57.544839 
L 243.729565 57.513347 
L 243.417019 57.612811 
L 243.370395 57.75313 
L 243.29308 57.734854 
L 243.020061 57.791909 
L 242.843142 57.814839 
L 242.655077 57.985195 
L 241.990143 58.035574 
L 241.843473 58.034082 
L 241.46132 58.128326 
L 241.344076 58.369816 
L 241.402755 58.435596 
L 241.321372 58.490422 
L 241.161869 58.527953 
L 241.043481 58.708498 
L 240.613604 58.711004 
L 240.283198 58.931452 
L 240.271619 59.150812 
L 240.103635 59.168476 
L 240.140727 59.40772 
L 240.181438 59.401278 
L 240.426108 59.389607 
L 240.660446 59.51183 
L 240.530518 60.080186 
L 240.3415 60.510442 
L 240.53965 60.546302 
L 240.676893 60.619125 
L 240.674862 60.653484 
L 240.599232 60.902009 
L 240.125808 61.395134 
L 240.017374 61.735945 
L 239.821896 61.968836 
L 239.283266 61.834339 
L 238.994858 61.680363 
L 238.658036 62.644159 
L 238.459322 63.038673 
L 238.577622 63.043965 
L 238.94167 63.14528 
L 238.916371 63.819803 
L 238.826546 63.961389 
L 238.670919 64.062821 
L 238.699787 64.438107 
L 238.730682 64.712222 
L 238.783169 65.245851 
L 238.857501 65.867793 
L 238.773062 66.00583 
L 238.467923 66.099499 
L 238.130576 66.125457 
L 238.138503 65.989181 
L 237.993869 65.621424 
L 237.703217 65.258574 
L 237.662128 65.423395 
L 237.952677 66.278822 
L 237.923305 66.286765 
L 237.743112 66.522217 
L 237.624483 66.671755 
L 237.430138 67.468959 
L 237.373589 67.592476 
L 236.506749 68.515668 
L 236.010408 68.602104 
L 235.379593 68.676554 
L 235.392541 68.618996 
L 235.191501 68.156412 
L 234.994122 67.849232 
L 234.66075 67.882539 
L 234.144989 67.77825 
L 234.150989 67.905864 
L 234.101305 68.037917 
L 234.025024 68.226522 
L 234.149905 68.429942 
L 234.166466 68.421056 
L 234.19528 68.402951 
L 234.012766 68.721272 
L 234.098069 68.70129 
L 234.161375 68.789172 
L 234.253905 68.876767 
L 234.273937 68.868366 
L 234.417043 68.891997 
L 234.386664 68.963895 
L 234.001521 69.275953 
L 233.864623 69.189886 
L 233.821542 69.127314 
L 233.670995 69.481593 
L 233.567587 69.6399 
L 233.444852 70.049851 
L 232.984781 70.670185 
L 232.513629 71.313297 
L 232.310743 72.315099 
L 232.341315 72.319052 
L 232.404932 72.463918 
L 232.296558 72.574218 
L 232.036723 72.58641 
L 231.892439 72.495716 
L 231.877521 72.542779 
L 231.719287 72.789508 
L 231.490276 72.870274 
L 231.280311 72.540119 
L 231.283716 72.147349 
L 231.117867 72.182336 
L 230.460675 70.914712 
L 230.359829 70.320129 
L 229.868366 69.701403 
L 229.038186 69.775448 
L 228.827597 69.858677 
L 228.863928 70.125765 
L 228.776555 70.118011 
L 228.628735 70.111362 
L 226.48082 69.52004 
L 226.33594 69.692553 
L 225.986625 69.984655 
L 225.936169 69.914123 
L 225.845889 69.879019 
L 225.709588 70.114875 
L 225.666567 70.227251 
L 225.426266 70.426323 
L 225.21058 70.892286 
L 224.850391 70.983277 
L 224.706677 70.967463 
L 224.200366 71.216546 
L 224.010609 71.128035 
L 224.086835 71.286 
L 223.978712 71.437308 
L 223.806201 71.561292 
L 223.671214 72.053374 
L 223.558482 72.294721 
L 223.61894 72.48098 
L 223.758723 72.436846 
L 223.796374 72.343752 
L 223.868329 72.424446 
L 223.909149 72.546966 
L 223.682552 73.00805 
L 223.531951 73.208335 
L 223.484561 73.165279 
L 223.434964 73.125484 
L 223.396208 73.151541 
L 223.322046 73.349642 
L 223.491037 73.358933 
L 223.435178 73.417731 
L 223.360578 73.560134 
L 223.316128 73.989241 
L 222.955534 74.852997 
L 222.649448 75.172594 
L 221.558623 74.864273 
L 221.470763 74.899584 
L 221.232094 74.592872 
L 220.644202 73.234212 
L 220.583815 72.969954 
L 220.102923 72.12972 
L 219.710871 72.504143 
L 219.458564 72.233946 
L 218.901665 72.35368 
L 218.766448 72.452956 
L 218.525797 72.577434 
L 218.473874 72.478734 
L 218.51828 72.122667 
L 218.364739 72.215374 
L 217.591004 72.975354 
L 217.385277 73.350694 
L 217.24545 73.278517 
L 216.978629 73.130965 
L 216.779039 73.072311 
L 216.672844 73.010629 
L 216.537753 73.070541 
L 216.370338 73.102968 
L 216.260656 73.129267 
L 216.258422 73.190832 
L 215.951525 73.703194 
L 216.070356 74.524667 
L 215.940576 75.04215 
L 216.019287 75.350893 
L 215.461091 75.563209 
L 215.214625 75.219334 
L 214.955004 75.341656 
L 215.006774 75.495318 
L 214.92798 75.502245 
L 214.790338 75.562157 
L 214.870183 75.800134 
L 214.788914 75.799964 
L 214.68134 75.8555 
L 214.52592 76.43604 
L 214.581074 76.634501 
L 214.520046 76.760731 
L 214.472229 76.694898 
L 214.08021 76.57431 
L 213.987696 76.38133 
L 213.716583 76.573115 
L 213.591588 76.660486 
L 213.068463 76.722851 
L 212.653537 76.980801 
L 212.472447 77.038728 
L 212.37609 77.259597 
L 212.312182 77.351316 
L 211.863422 77.580147 
L 211.791691 77.838583 
L 211.74492 77.974652 
L 211.433244 78.059138 
L 211.202945 78.047098 
L 211.225392 78.208181 
L 211.297211 78.49289 
L 211.374712 78.533241 
L 211.281733 78.601384 
L 211.217366 78.929076 
L 210.518127 79.499651 
L 210.576259 79.601497 
L 210.531842 79.634058 
L 210.368429 79.683557 
L 210.275544 79.677824 
L 210.310139 79.581406 
L 210.312603 79.498277 
L 209.548241 79.587785 
L 209.322273 79.721509 
L 209.280391 79.95609 
L 208.943481 80.044629 
L 208.873979 79.99672 
L 208.716151 79.777217 
L 208.450983 79.719685 
L 208.317085 79.331039 
L 208.18241 78.804211 
L 208.024287 78.714918 
L 207.114103 79.150215 
L 207.027053 78.976238 
L 207.093047 78.94374 
L 207.408533 78.631717 
L 207.897703 78.481101 
L 208.10781 78.398637 
L 208.030161 78.286162 
L 208.089689 78.088339 
L 209.114455 77.419504 
L 209.042072 77.389521 
L 208.885093 77.02021 
L 208.922529 76.937961 
L 208.877258 76.905714 
L 208.526941 76.847787 
L 207.605277 76.734369 
L 206.711463 77.238824 
L 206.822065 77.313418 
L 207.119381 77.712226 
L 207.027836 78.000583 
L 207.007355 77.994877 
L 206.747849 77.873472 
L 206.63371 77.759856 
L 205.894198 77.922188 
L 205.815678 77.939098 
L 205.790609 77.886715 
L 205.866523 77.728858 
L 206.397734 77.348378 
L 206.338321 77.222795 
L 206.066759 77.075728 
L 205.812558 77.158732 
L 205.684863 77.199452 
L 205.330905 77.224978 
L 205.121914 77.296418 
L 204.822913 77.334487 
L 204.876506 77.409611 
L 204.719143 77.674436 
L 204.702653 77.653599 
L 204.103565 77.910041 
L 203.952236 78.487867 
L 203.836952 78.436473 
L 203.46894 78.507364 
L 203.089864 78.167057 
L 202.821357 77.887389 
L 202.303318 77.561889 
L 202.226517 77.281314 
L 202.262377 77.159307 
L 202.043193 76.860339 
L 201.768915 76.601463 
L 201.505297 76.698618 
L 201.182562 76.957818 
L 201.005288 77.03171 
L 200.679963 77.037883 
L 200.579998 76.984036 
L 200.573089 76.992266 
L 200.421403 77.215625 
L 200.351151 77.291359 
L 200.299512 77.258438 
L 200.091294 77.108631 
L 200.088501 77.208832 
L 200.041615 77.440385 
L 200.037126 77.439756 
L 199.92239 77.380733 
L 199.788438 77.052097 
L 199.914555 76.966389 
L 199.763089 76.955428 
L 199.548022 77.150474 
L 199.50839 77.287568 
L 199.479707 77.291611 
L 199.202834 77.422604 
L 199.208035 77.547307 
L 198.44081 77.722146 
L 198.212927 77.844504 
L 197.170734 77.514808 
L 196.986693 77.146018 
L 196.567185 77.032834 
L 196.333404 76.889846 
L 195.919886 76.708178 
L 195.969345 76.675787 
L 196.580395 75.917191 
L 196.858084 75.104586 
L 196.900826 74.519096 
L 196.339104 74.437153 
L 196.15089 74.604184 
L 195.422137 74.704637 
L 195.155431 74.712867 
L 194.930673 74.715724 
L 194.795774 74.573365 
L 194.412454 74.464656 
L 193.334166 74.330186 
L 193.085763 74.298307 
L 192.921387 74.307346 
L 192.769247 74.294839 
L 192.522568 74.158977 
L 192.285492 74.062621 
L 192.038835 73.952177 
L 191.788285 73.627594 
L 191.897765 73.5214 
L 192.102277 73.335734 
L 192.055703 73.319192 
L 191.895789 72.960277 
L 192.376368 72.400016 
L 192.304911 72.361533 
L 192.158826 72.294676 
L 192.001699 72.378632 
L 191.905408 72.103726 
L 191.807912 71.887475 
L 190.968863 71.7689 
L 189.790233 71.7912 
L 189.800597 71.873494 
L 189.725553 71.976876 
L 189.314411 72.085972 
L 189.236241 72.058837 
L 188.977655 72.409127 
L 188.863143 72.438598 
L 188.762149 72.589079 
L 188.451502 72.689522 
L 188.335124 72.557191 
L 188.115507 72.361524 
L 186.748319 71.850439 
L 185.030796 71.015219 
L 183.81975 70.977536 
L 182.87542 71.160524 
L 182.815651 71.63416 
L 182.611966 71.740804 
L 182.311716 71.682859 
L 181.900513 71.719877 
L 180.600117 71.815846 
L 179.846065 72.23356 
L 179.846596 72.194133 
L 179.773819 72.035242 
L 179.53948 71.741109 
L 179.398903 71.633846 
L 179.221738 71.407783 
L 179.175509 71.188665 
L 179.078238 71.069416 
L 179.089631 70.726126 
L 179.056858 70.250666 
L 178.838583 69.960647 
L 177.18586 69.407018 
L 176.898082 68.916481 
L 177.256289 68.16483 
L 177.044594 67.566006 
L 176.869317 67.521998 
L 176.279345 67.477612 
L 175.624376 67.148266 
L 175.233627 67.077006 
L 174.605331 66.513735 
L 173.480907 66.00504 
L 173.227834 65.805006 
L 172.445783 65.586338 
L 172.329881 65.268897 
L 170.735832 65.258654 
L 170.47753 65.457762 
L 170.185722 65.503766 
L 169.927639 65.491636 
L 169.77429 65.563606 
L 169.554147 65.50089 
L 169.526773 65.376268 
L 169.53608 65.116332 
L 169.207974 64.886585 
L 168.854191 64.659803 
L 168.615927 64.212709 
L 168.357078 63.893022 
L 168.23581 63.373059 
L 167.979424 62.506544 
L 167.49441 62.656414 
L 167.053304 62.963522 
L 166.326248 62.933961 
L 166.174431 62.957403 
L 165.803567 62.929828 
L 165.800172 62.951303 
L 165.654706 63.178983 
L 165.549261 63.501994 
L 165.691716 63.641531 
L 165.559937 63.857172 
L 164.612684 64.10992 
L 164.014669 63.115638 
L 163.867999 62.460541 
L 163.751713 62.201054 
L 163.164429 62.391087 
L 163.165086 62.319386 
L 163.086468 62.206625 
L 163.080665 62.342298 
L 163.044531 62.890474 
L 162.822691 63.227412 
L 162.81749 63.355718 
L 162.711005 63.344577 
L 161.37816 63.232803 
L 161.382102 63.333974 
L 161.408271 63.775947 
L 161.308794 63.765165 
L 159.964178 63.573784 
L 159.926785 63.572437 
L 159.793692 61.796459 
L 159.723395 61.638772 
L 159.58745 61.507312 
L 158.915585 61.401477 
L 158.786976 61.34427 
L 158.461772 61.414146 
L 157.906872 61.365492 
L 158.006656 61.474373 
L 158.186827 61.778516 
L 158.044525 62.056179 
L 158.092824 62.277813 
L 158.273876 62.418428 
L 158.516296 63.298007 
L 157.336751 63.93243 
L 156.209486 64.64744 
L 156.299552 64.744083 
L 156.405161 65.036275 
L 156.589991 65.966853 
L 156.496043 66.452224 
L 156.679669 67.426828 
L 156.427772 67.771224 
L 155.557823 67.783084 
L 155.185536 68.249406 
L 154.614731 67.952542 
L 154.428039 67.902136 
L 154.280493 67.942658 
L 153.984305 68.00169 
L 153.81037 68.551572 
L 153.024898 69.615937 
L 152.976008 69.682696 
L 152.999166 69.730317 
L 152.738127 70.147311 
L 152.645274 70.224672 
L 152.52866 70.265105 
L 152.545851 70.176063 
L 152.463783 70.067614 
L 152.385986 70.027541 
L 150.321267 69.963568 
L 149.559774 69.613871 
L 149.44338 70.386402 
L 149.061949 70.905826 
L 148.891901 71.050036 
L 148.612028 71.229916 
L 148.32033 71.434594 
L 148.055513 71.976211 
L 147.941527 72.202454 
L 147.877526 72.333545 
L 147.848948 72.357176 
L 147.776844 72.286284 
L 147.746733 72.281342 
L 147.668826 72.304793 
L 147.456184 72.31827 
L 147.135469 72.170916 
L 146.925072 72.074237 
L 146.708488 72.088254 
L 146.352679 72.062377 
L 146.160842 72.058244 
L 145.229137 71.885822 
L 145.175084 71.92381 
L 144.454712 71.801614 
L 144.270156 71.917943 
L 144.554277 72.235851 
L 144.712516 72.509193 
L 145.519034 72.76576 
L 146.332828 73.822578 
L 146.321079 73.849407 
L 146.067271 73.925402 
L 146.061216 74.150683 
L 145.557303 74.117097 
L 145.400351 74.246248 
L 145.391952 74.302629 
L 144.950403 74.32519 
L 144.770106 74.255215 
L 144.581498 74.277228 
L 144.171648 74.359899 
L 143.782695 74.159857 
L 143.552681 74.256886 
L 142.731201 74.275404 
L 140.976679 75.083319 
L 140.577313 75.185056 
L 140.588006 75.112466 
L 140.529036 74.971348 
L 140.447675 73.863423 
L 139.828051 73.955502 
L 139.825467 73.804383 
L 139.414352 73.639535 
L 139.480055 73.327099 
L 139.135788 73.085195 
L 138.926972 72.754924 
L 138.649667 72.807136 
L 138.51814 72.977798 
L 136.941551 72.782733 
L 136.868615 72.935954 
L 136.740417 73.067207 
L 136.364576 73.205029 
L 135.544754 73.164812 
L 135.101573 72.951184 
L 134.69135 73.260214 
L 134.543169 73.575553 
L 134.447644 73.988693 
L 133.803537 74.197612 
L 132.448415 75.561762 
L 132.300617 75.593919 
L 132.128406 75.613866 
L 131.529609 75.545328 
L 130.987963 75.871898 
L 130.90186 76.08168 
L 130.992124 76.10602 
L 131.229972 76.376173 
L 131.254499 76.582082 
L 131.158772 78.044349 
L 131.736442 78.287672 
L 131.556961 79.047561 
L 131.827214 79.425965 
L 131.79926 79.875935 
L 131.650164 79.879951 
L 131.29245 80.51822 
L 131.109816 80.918556 
L 131.170203 81.161556 
L 130.946836 81.204899 
L 130.8939 81.013087 
L 130.814471 81.087393 
L 131.029484 82.323237 
L 130.631344 82.573398 
L 130.730148 82.93385 
L 130.061722 83.063306 
L 129.963985 83.42719 
L 129.617862 83.346406 
L 129.418217 83.434854 
L 128.584757 83.406686 
L 128.207575 83.801973 
L 128.110895 83.684215 
L 128.032715 83.313314 
L 127.145153 83.098545 
L 126.685373 83.210085 
L 126.615596 83.28706 
L 126.655387 82.836929 
L 126.62435 82.58958 
L 125.726606 82.08482 
L 125.064952 82.21858 
L 125.072605 82.255984 
L 125.010466 82.347623 
L 124.530018 82.304054 
L 124.230731 82.156008 
L 123.648085 82.060623 
L 123.648085 82.065107 
L 123.597163 82.217124 
L 123.299952 82.386716 
L 122.602208 82.213611 
L 122.341765 82.082951 
L 122.129911 83.013808 
L 122.668426 84.293714 
L 122.617614 84.310956 
L 122.508479 84.361012 
L 122.072524 84.749497 
L 121.83766 84.578853 
L 121.806557 84.654283 
L 121.619357 84.739434 
L 121.0977 84.59083 
L 121.036995 84.540119 
L 120.992468 84.609124 
L 120.900048 84.586724 
L 120.653593 84.388722 
L 120.39983 84.227647 
L 119.033364 84.394481 
L 118.77435 84.319115 
L 118.82606 84.230199 
L 118.873291 84.179092 
L 118.770846 84.144455 
L 118.369148 83.971179 
L 118.136873 83.933909 
L 118.034899 83.909497 
L 118.042947 83.982221 
L 117.896277 84.046033 
L 117.390934 84.241188 
L 117.175325 84.212274 
L 116.797113 84.189164 
L 116.330445 83.922893 
L 116.333407 83.891086 
L 116.231176 83.903072 
L 116.122511 83.774901 
L 115.268883 83.711916 
M 171.003792 163.302715 
L 171.020457 163.232093 
L 171.115982 163.291124 
L 171.122628 163.383077 
L 171.003792 163.302715 
M 215.026527 146.824126 
L 215.558072 146.430196 
L 215.663282 146.301629 
L 215.690146 146.314532 
L 215.914696 146.433269 
L 216.103687 146.192605 
L 216.364486 145.964862 
L 216.427287 145.626091 
L 216.607272 145.338723 
L 216.930456 145.028695 
L 216.706213 144.69961 
L 216.614263 144.560782 
L 216.254195 144.146996 
L 216.207199 143.956298 
L 216.345127 143.511126 
L 216.319833 143.266554 
L 216.239621 143.197369 
L 216.267258 142.778425 
L 216.242567 142.688773 
L 216.838397 141.592529 
L 217.230728 141.397392 
L 219.432537 138.774037 
L 219.282543 138.688042 
L 218.118465 137.929994 
L 218.000926 137.827251 
L 216.616136 138.07025 
L 217.138395 135.279361 
L 217.334509 134.570416 
L 217.462888 134.695829 
L 217.704973 134.875745 
L 218.174932 134.847047 
L 218.197565 134.271943 
L 218.262299 133.862873 
L 218.345484 133.681699 
L 218.558695 133.169886 
L 218.490391 132.315744 
L 218.380648 132.113212 
L 217.420496 132.435118 
L 217.261431 131.914293 
L 217.383147 131.794083 
L 217.66118 131.709363 
L 217.948893 131.576331 
L 218.362653 131.348237 
L 218.93066 130.795102 
L 219.296164 130.80645 
L 219.697748 131.037661 
L 220.630761 131.464845 
L 220.823026 131.535413 
L 221.40996 131.781755 
L 221.506743 131.822107 
L 221.523858 131.742257 
L 221.54118 131.662497 
L 222.134207 131.601884 
L 222.131344 131.229976 
L 221.244259 130.175378 
L 221.284455 129.941795 
L 221.544684 129.743163 
L 222.266665 128.139877 
L 222.366296 128.081654 
L 224.328882 128.12843 
L 224.666837 128.06407 
L 224.631043 127.258142 
L 224.542055 126.962328 
L 224.570469 126.968905 
L 225.07988 127.035888 
L 225.741052 126.734746 
L 225.800235 125.889661 
L 225.623578 125.878223 
L 225.670826 125.160482 
L 225.774459 125.188659 
L 226.825033 125.284035 
L 227.044606 125.333156 
L 227.167231 125.461103 
L 227.113441 125.495668 
L 226.680794 125.896274 
L 227.085492 126.919793 
L 227.001197 127.223846 
L 227.099524 127.62562 
L 227.171956 127.866921 
L 227.149493 127.868134 
L 227.043851 128.01609 
L 226.757162 128.174937 
L 227.147068 128.100819 
L 227.516164 128.162771 
L 228.507495 128.506448 
L 228.7204 128.552047 
L 228.727249 128.523995 
L 228.925552 128.5329 
L 229.410386 128.473958 
L 229.484351 128.568947 
L 229.528374 128.522189 
L 229.775595 128.548776 
L 229.77814 128.534301 
L 230.106055 128.365131 
L 230.109444 128.379112 
L 230.117234 128.40038 
L 230.801368 127.875071 
L 230.867263 127.617964 
L 231.025567 127.516649 
L 231.14136 127.406259 
L 231.094156 127.352709 
L 231.173842 127.326535 
L 231.153317 127.352511 
L 231.203362 127.340956 
L 231.204085 127.354425 
L 231.51546 127.157024 
L 231.976171 126.279224 
L 231.976653 126.296826 
L 232.640158 126.74729 
L 232.835417 126.802619 
L 232.895777 126.809637 
L 232.88272 126.889729 
L 232.940441 127.001889 
L 233.276896 127.300668 
L 233.422269 127.431256 
L 233.423511 127.421408 
L 233.745261 127.253658 
L 233.964664 127.207834 
L 233.977131 126.630134 
L 234.267384 126.550733 
L 234.43735 126.182869 
L 235.525016 126.159589 
L 235.761314 125.976789 
L 236.007101 125.856587 
L 236.142838 125.585509 
L 236.113575 125.538859 
L 235.368567 125.334351 
L 234.869302 124.987341 
L 234.957687 124.889728 
L 235.34929 124.420404 
L 235.69842 124.587283 
L 236.223723 123.877143 
L 236.275564 123.935213 
L 236.319686 123.977829 
L 236.440866 123.833611 
L 236.299615 124.167764 
L 236.172621 124.50241 
L 236.2117 124.516894 
L 236.240761 124.638641 
L 236.302517 124.587561 
L 236.676387 124.391104 
L 236.930199 124.257596 
L 236.905388 124.408436 
L 236.762369 125.278419 
L 237.304288 125.85134 
L 238.4096 126.469176 
L 238.618645 126.399884 
L 238.643862 126.478934 
L 238.757382 126.580285 
L 238.824312 126.571543 
L 238.818191 126.680153 
L 238.64465 127.524583 
L 238.463949 127.998776 
L 237.883596 128.325678 
L 237.756569 128.89593 
L 237.624724 129.237019 
L 237.381128 130.166384 
L 237.444515 130.160185 
L 237.5077 130.154129 
L 238.107751 131.317526 
L 239.180838 131.351633 
L 240.416686 131.906413 
L 241.032504 132.497286 
L 241.314091 133.00838 
L 241.350099 133.036521 
L 241.411033 133.017168 
L 241.802872 133.137576 
L 241.891964 133.212942 
L 242.064163 133.316998 
L 242.350403 135.160076 
L 245.100022 135.926309 
L 245.050913 136.006132 
L 244.801469 136.198007 
L 244.39786 136.17983 
L 244.502522 136.896106 
L 244.516746 136.890886 
L 245.320712 136.87846 
L 245.785782 136.929234 
L 246.154566 136.922154 
L 246.154303 137.358799 
L 245.583082 137.769836 
L 244.965971 138.372219 
L 244.666033 138.973109 
L 244.535683 139.526577 
L 244.509486 140.19553 
L 244.665551 140.228756 
L 244.624216 140.285173 
L 243.81858 141.554783 
L 243.884672 141.822401 
L 243.9212 141.897112 
L 243.893197 141.929368 
L 243.661059 142.240016 
L 243.733726 142.262847 
L 243.922476 142.253907 
L 244.006301 142.201237 
L 244.190994 142.359005 
L 244.284728 142.617198 
L 244.292497 142.610711 
L 244.294512 142.484885 
L 244.282374 142.476295 
L 244.292322 142.407766 
L 244.341327 142.409204 
L 244.418834 142.411261 
L 244.393436 142.343559 
L 244.426039 141.966171 
L 244.516215 141.974545 
L 244.650424 141.930006 
L 244.987274 141.757862 
L 245.376539 141.507189 
L 245.4922 141.49178 
L 246.075006 141.701301 
L 246.576729 141.959468 
L 246.841968 142.003521 
L 247.354455 142.382527 
L 247.680831 142.697776 
L 248.363995 143.08777 
L 248.595043 143.658435 
L 248.800431 143.590922 
L 248.737635 143.19719 
L 248.676071 143.09246 
L 248.52179 142.581914 
L 248.462942 142.453123 
L 248.604553 142.496251 
L 248.826311 142.697982 
L 249.319953 142.924791 
L 249.425601 143.031722 
L 249.869385 143.752859 
L 250.250093 144.054576 
L 251.479491 144.34782 
L 251.557962 144.542893 
L 251.490851 144.69934 
L 251.562423 144.713546 
L 251.638376 144.728038 
L 251.61894 144.803926 
L 251.54232 145.136129 
L 251.861989 145.199887 
L 251.824744 145.279098 
L 251.745463 145.330322 
L 251.494355 145.29236 
L 251.505354 145.243509 
L 251.595973 144.849489 
L 251.541663 144.851511 
L 251.152004 144.971604 
L 250.900753 145.339882 
L 250.813046 145.623054 
L 249.968572 145.40718 
L 249.762204 145.250697 
L 250.383465 145.614105 
L 250.695135 145.76588 
L 250.732266 146.030075 
L 250.795719 146.067659 
L 250.79089 146.066958 
L 250.675656 146.214007 
L 250.515961 146.282491 
L 250.1656 147.035804 
L 250.207581 147.270897 
L 250.592532 147.984594 
L 250.539776 148.007668 
L 250.415131 148.16708 
L 250.194813 148.598001 
L 250.058627 148.597372 
L 249.925386 148.630132 
L 249.835326 148.706253 
L 249.651082 148.695992 
L 249.330898 148.660573 
L 249.095502 148.903007 
L 248.693639 149.193528 
L 248.589788 149.262641 
L 248.442285 149.433194 
L 248.44626 149.315922 
L 248.3757 149.466789 
L 248.203566 149.664855 
L 247.903984 149.932887 
L 247.857979 149.839452 
L 247.792561 149.908609 
L 247.818878 150.086378 
L 248.041298 150.157539 
L 248.307002 150.281775 
L 248.44978 150.250157 
L 248.431746 150.324777 
L 248.360913 150.615002 
L 248.547566 150.63724 
L 248.540908 150.666082 
L 248.351896 151.054783 
L 247.813863 151.526146 
L 247.536224 151.316004 
L 247.167703 151.492119 
L 246.787701 151.803998 
L 246.639783 152.235737 
L 246.551912 152.381519 
L 246.430239 152.675078 
L 246.445498 152.683209 
L 246.372562 152.741665 
L 246.158157 152.96001 
L 246.008361 153.415101 
L 245.859528 153.709397 
L 245.839325 153.745319 
L 245.781911 154.094467 
L 245.552078 154.1017 
L 245.275567 153.809939 
L 245.054871 153.50913 
L 245.048296 153.247109 
L 245.10801 153.241214 
L 245.24049 152.010501 
L 245.487409 151.750708 
L 245.608836 151.636661 
L 245.602496 151.270001 
L 245.343657 151.211095 
L 245.361198 151.15094 
L 245.375219 150.609252 
L 244.813213 150.642766 
L 244.599722 150.263419 
L 244.505982 150.316871 
L 243.357283 150.958266 
L 243.399647 150.839196 
L 243.351611 150.592863 
L 242.883005 149.869875 
L 242.759723 149.706285 
L 242.712661 149.528858 
L 242.70965 149.339768 
L 242.652909 149.164057 
L 242.615636 149.152457 
L 240.931828 149.652267 
L 239.506891 149.577287 
L 239.500119 149.126599 
L 239.667949 148.531198 
L 239.48434 148.653933 
L 239.08113 148.742741 
L 238.615021 148.498762 
L 238.237494 148.505662 
L 236.455817 148.952415 
L 236.239961 148.027543 
L 235.568278 146.694095 
L 234.934392 146.926833 
L 233.50675 147.555775 
L 233.097289 147.800482 
L 233.165144 148.204413 
L 233.546202 149.975314 
L 233.156515 150.728061 
L 231.455549 150.577247 
L 231.30036 149.624009 
L 230.465926 149.627909 
L 230.45698 149.086534 
L 229.338808 148.270668 
L 228.971448 147.89752 
L 228.987253 147.535029 
L 228.924758 147.569666 
L 227.27473 148.668417 
L 227.211906 148.55942 
L 226.455094 147.199007 
L 226.43642 147.127918 
L 226.349354 147.190175 
L 224.97507 148.211726 
L 224.499893 148.062234 
L 224.181089 148.02208 
L 223.859487 148.106377 
L 223.84153 147.960865 
L 223.601727 146.69148 
L 221.985615 146.926124 
L 221.38731 147.165421 
L 220.717915 147.341456 
L 218.911268 148.463612 
L 218.828817 148.915487 
L 219.021788 148.890481 
L 219.568838 148.805762 
L 219.580806 148.892054 
L 219.593496 148.979568 
L 219.264596 149.101872 
L 218.582177 149.051735 
L 218.026132 148.887004 
L 218.033112 148.871119 
L 218.029888 148.835493 
L 217.922537 148.875054 
L 217.327517 149.453707 
L 217.351344 149.478488 
L 217.481207 149.728792 
L 217.443326 149.717516 
L 217.12813 149.524024 
L 217.158816 149.342104 
L 217.466622 149.251149 
L 217.797071 148.948201 
L 217.614387 148.914211 
L 217.587752 148.823965 
L 217.690197 148.804764 
L 217.750666 148.780729 
L 217.578379 148.714285 
L 217.499197 148.645029 
L 217.445199 148.70822 
L 217.021349 148.869394 
L 216.559055 148.37936 
L 216.272476 148.112101 
L 216.044198 147.735826 
L 216.130311 147.757624 
L 216.310509 147.646488 
L 216.305319 147.618662 
L 216.166669 147.416777 
L 216.053669 147.403785 
L 216.070608 147.498496 
L 215.988426 147.730157 
L 215.705804 147.389049 
L 215.695758 147.34859 
L 215.615924 147.365617 
L 215.470278 147.412069 
L 215.506559 147.478828 
L 215.521823 147.741846 
L 215.127423 147.444262 
L 215.128556 147.370522 
L 215.026527 146.824126 
M 237.752134 128.911591 
L 237.862348 128.830995 
L 237.752134 128.911591 
" style="fill:none;stroke:#ffc0cb;"/>
    <path clip-path="url(#pf8e588c90a)" d="M 167.382614 107.143101 
L 167.391434 107.146983 
L 167.409512 107.154934 
L 167.418956 107.156426 
L 167.429555 107.155006 
L 167.441556 107.149382 
L 167.474569 107.115697 
L 167.477783 107.118536 
L 167.540503 107.06087 
L 167.605335 107.004184 
L 167.556391 106.968486 
L 167.527078 107.004013 
L 167.516912 106.992036 
L 167.480882 107.03803 
L 167.442509 107.087295 
L 167.427354 107.075561 
L 167.422739 107.074995 
L 167.416487 107.082326 
L 167.418693 107.086109 
L 167.403638 107.109317 
L 167.382614 107.143101 
" style="fill:none;stroke:#ffc0cb;"/>
    <path clip-path="url(#pf8e588c90a)" d="M 169.678327 163.872652 
L 169.697078 163.879158 
L 169.730124 163.89038 
L 169.771371 163.811527 
L 169.744736 163.800646 
L 169.720713 163.791374 
L 169.678327 163.872652 
" style="fill:none;stroke:#ffc0cb;"/>
    <path clip-path="url(#pf8e588c90a)" d="M 169.818417 163.590388 
L 169.820535 163.604962 
L 169.83079 163.612177 
L 169.844192 163.610254 
L 169.849525 163.618978 
L 169.859543 163.64056 
L 169.866277 163.667327 
L 169.870104 163.676087 
L 169.876669 163.682718 
L 169.887405 163.68341 
L 169.913695 163.694264 
L 169.935693 163.69332 
L 169.943949 163.791473 
L 169.951816 163.836029 
L 169.96725 163.898817 
L 170.018291 163.892222 
L 170.105845 163.900272 
L 170.136307 163.898466 
L 170.167332 163.883659 
L 170.197028 163.876183 
L 170.226586 163.885465 
L 170.25649 163.887576 
L 170.26012 163.919096 
L 170.262988 163.945188 
L 170.042205 164.320771 
L 170.266246 163.946177 
L 170.263749 163.920318 
L 170.335043 163.944254 
L 170.380401 163.958387 
L 170.410338 163.909185 
L 170.448508 163.930067 
L 170.449981 163.924047 
L 170.466416 163.904864 
L 170.484954 163.869418 
L 170.484554 163.830468 
L 170.495187 163.812713 
L 170.474108 163.79681 
L 170.446882 163.781499 
L 170.41509 163.775228 
L 170.331708 163.74945 
L 170.292985 163.760016 
L 170.257004 163.771634 
L 170.249444 163.764545 
L 170.210857 163.756755 
L 170.173245 163.749926 
L 170.132874 163.759477 
L 170.086863 163.751319 
L 170.064723 163.744355 
L 170.039139 163.744625 
L 170.022063 163.739629 
L 170.011524 163.739027 
L 170.005004 163.734094 
L 169.993518 163.722818 
L 169.985191 163.71307 
L 169.974613 163.706915 
L 169.969379 163.703024 
L 169.960614 163.702234 
L 169.949998 163.693267 
L 169.943264 163.689089 
L 169.935583 163.690805 
L 169.92453 163.689628 
L 169.914647 163.691721 
L 169.888259 163.679798 
L 169.876702 163.677839 
L 169.873526 163.673787 
L 169.871402 163.67093 
L 169.861936 163.639356 
L 169.852087 163.616265 
L 169.845046 163.607127 
L 169.830861 163.608322 
L 169.822452 163.602105 
L 169.821083 163.590703 
L 169.826793 163.581556 
L 169.823716 163.579121 
L 169.818417 163.590388 
" style="fill:none;stroke:#ffc0cb;"/>
    <path clip-path="url(#pf8e588c90a)" d="M 170.576126 164.035955 
L 170.578097 164.037393 
L 170.577999 164.059397 
L 170.627201 164.070323 
L 170.684374 164.048543 
L 170.742435 164.060969 
L 170.816487 164.077843 
L 170.873913 164.072407 
L 170.895002 164.03821 
L 170.853459 164.000743 
L 170.862739 163.952062 
L 170.822619 163.932951 
L 170.773685 163.938216 
L 170.713889 163.914316 
L 170.734403 163.909293 
L 170.746453 163.913004 
L 170.756056 163.911854 
L 170.769355 163.901494 
L 170.787104 163.880272 
L 170.792852 163.874764 
L 170.799745 163.865869 
L 170.80268 163.854521 
L 170.819449 163.840504 
L 170.838825 163.837171 
L 170.85272 163.826478 
L 170.860209 163.8231 
L 170.877247 163.82168 
L 170.877356 163.819389 
L 170.85999 163.820701 
L 170.850333 163.82452 
L 170.837522 163.833684 
L 170.818798 163.837332 
L 170.803873 163.848519 
L 170.799964 163.854197 
L 170.797035 163.864072 
L 170.79231 163.873012 
L 170.784876 163.878798 
L 170.767077 163.900182 
L 170.755301 163.909239 
L 170.747756 163.910111 
L 170.736571 163.905582 
L 170.714754 163.910165 
L 170.708666 163.91348 
L 170.684254 163.928063 
L 170.661752 163.942125 
L 170.609665 163.951873 
L 170.598349 163.967696 
L 170.592315 163.98076 
L 170.576126 164.035955 
" style="fill:none;stroke:#ffc0cb;"/>
    <path clip-path="url(#pf8e588c90a)" d="M 170.917985 164.105966 
L 170.949504 164.118554 
L 170.959752 164.118689 
L 170.979303 164.129291 
L 171.008593 164.118366 
L 171.041667 164.128644 
L 171.079843 164.129121 
L 171.109089 164.100755 
L 171.112473 164.091069 
L 171.114991 164.074627 
L 171.116327 164.066279 
L 171.096409 164.049226 
L 171.05767 164.042514 
L 171.021815 164.03989 
L 170.997999 164.029944 
L 170.966048 164.029144 
L 170.94606 164.026036 
L 170.920766 164.059783 
L 170.917985 164.105966 
" style="fill:none;stroke:#ffc0cb;"/>
    <path clip-path="url(#pf8e588c90a)" d="M 171.112056 164.203211 
L 171.112237 164.205242 
L 171.122261 164.207641 
L 171.129751 164.212888 
L 171.122738 164.213436 
L 171.11389 164.213104 
L 171.114186 164.21517 
L 171.123214 164.215467 
L 171.131289 164.214802 
L 171.128169 164.218791 
L 171.120904 164.222592 
L 171.122415 164.223993 
L 171.130813 164.220741 
L 171.133676 164.214838 
L 171.144139 164.216024 
L 171.155412 164.22252 
L 171.159304 164.25403 
L 171.161313 164.261389 
L 171.16929 164.270194 
L 171.179714 164.276619 
L 171.189848 164.280383 
L 171.202637 164.280725 
L 171.211802 164.285774 
L 171.22164 164.288137 
L 171.233751 164.284373 
L 171.246649 164.287571 
L 171.256586 164.294041 
L 171.265899 164.305128 
L 171.274795 164.31264 
L 171.28396 164.3245 
L 171.290289 164.336486 
L 171.292857 164.345336 
L 171.302695 164.35176 
L 171.303724 164.349694 
L 171.327184 164.348562 
L 171.341172 164.332793 
L 171.344725 164.304499 
L 171.332927 164.28333 
L 171.311433 164.269682 
L 171.27635 164.247579 
L 171.25519 164.249124 
L 171.233094 164.234766 
L 171.216746 164.224955 
L 171.197995 164.216536 
L 171.157207 164.210417 
L 171.157979 164.22119 
L 171.156331 164.219375 
L 171.145097 164.21384 
L 171.134125 164.212547 
L 171.122261 164.205835 
L 171.112056 164.203211 
" style="fill:none;stroke:#ffc0cb;"/>
   </g>
   <g id="matplotlib.axis_1">
    <g id="xtick_1">
     <g id="line2d_1">
      <defs>
       <path d="M 0 0 
L 0 3.5 
" id="mdede4dd0b1" style="stroke:#000000;stroke-width:0.8;"/>
      </defs>
      <g>
       <use style="stroke:#000000;stroke-width:0.8;" x="155.441593" xlink:href="#mdede4dd0b1" y="252"/>
      </g>
     </g>
     <g id="text_1">
      <!-- 12 -->
      <defs>
       <path d="M 12.40625 8.296875 
L 28.515625 8.296875 
L 28.515625 63.921875 
L 10.984375 60.40625 
L 10.984375 69.390625 
L 28.421875 72.90625 
L 38.28125 72.90625 
L 38.28125 8.296875 
L 54.390625 8.296875 
L 54.390625 0 
L 12.40625 0 
z
" id="DejaVuSans-49"/>
       <path d="M 19.1875 8.296875 
L 53.609375 8.296875 
L 53.609375 0 
L 7.328125 0 
L 7.328125 8.296875 
Q 12.9375 14.109375 22.625 23.890625 
Q 32.328125 33.6875 34.8125 36.53125 
Q 39.546875 41.84375 41.421875 45.53125 
Q 43.3125 49.21875 43.3125 52.78125 
Q 43.3125 58.59375 39.234375 62.25 
Q 35.15625 65.921875 28.609375 65.921875 
Q 23.96875 65.921875 18.8125 64.3125 
Q 13.671875 62.703125 7.8125 59.421875 
L 7.8125 69.390625 
Q 13.765625 71.78125 18.9375 73 
Q 24.125 74.21875 28.421875 74.21875 
Q 39.75 74.21875 46.484375 68.546875 
Q 53.21875 62.890625 53.21875 53.421875 
Q 53.21875 48.921875 51.53125 44.890625 
Q 49.859375 40.875 45.40625 35.40625 
Q 44.1875 33.984375 37.640625 27.21875 
Q 31.109375 20.453125 19.1875 8.296875 
z
" id="DejaVuSans-50"/>
      </defs>
      <g transform="translate(149.079093 266.598437)scale(0.1 -0.1)">
       <use xlink:href="#DejaVuSans-49"/>
       <use x="63.623047" xlink:href="#DejaVuSans-50"/>
      </g>
     </g>
    </g>
    <g id="xtick_2">
     <g id="line2d_2">
      <g>
       <use style="stroke:#000000;stroke-width:0.8;" x="210.189797" xlink:href="#mdede4dd0b1" y="252"/>
      </g>
     </g>
     <g id="text_2">
      <!-- 13 -->
      <defs>
       <path d="M 40.578125 39.3125 
Q 47.65625 37.796875 51.625 33 
Q 55.609375 28.21875 55.609375 21.1875 
Q 55.609375 10.40625 48.1875 4.484375 
Q 40.765625 -1.421875 27.09375 -1.421875 
Q 22.515625 -1.421875 17.65625 -0.515625 
Q 12.796875 0.390625 7.625 2.203125 
L 7.625 11.71875 
Q 11.71875 9.328125 16.59375 8.109375 
Q 21.484375 6.890625 26.8125 6.890625 
Q 36.078125 6.890625 40.9375 10.546875 
Q 45.796875 14.203125 45.796875 21.1875 
Q 45.796875 27.640625 41.28125 31.265625 
Q 36.765625 34.90625 28.71875 34.90625 
L 20.21875 34.90625 
L 20.21875 43.015625 
L 29.109375 43.015625 
Q 36.375 43.015625 40.234375 45.921875 
Q 44.09375 48.828125 44.09375 54.296875 
Q 44.09375 59.90625 40.109375 62.90625 
Q 36.140625 65.921875 28.71875 65.921875 
Q 24.65625 65.921875 20.015625 65.03125 
Q 15.375 64.15625 9.8125 62.3125 
L 9.8125 71.09375 
Q 15.4375 72.65625 20.34375 73.4375 
Q 25.25 74.21875 29.59375 74.21875 
Q 40.828125 74.21875 47.359375 69.109375 
Q 53.90625 64.015625 53.90625 55.328125 
Q 53.90625 49.265625 50.4375 45.09375 
Q 46.96875 40.921875 40.578125 39.3125 
z
" id="DejaVuSans-51"/>
      </defs>
      <g transform="translate(203.827297 266.598437)scale(0.1 -0.1)">
       <use xlink:href="#DejaVuSans-49"/>
       <use x="63.623047" xlink:href="#DejaVuSans-51"/>
      </g>
     </g>
    </g>
    <g id="xtick_3">
     <g id="line2d_3">
      <g>
       <use style="stroke:#000000;stroke-width:0.8;" x="264.938001" xlink:href="#mdede4dd0b1" y="252"/>
      </g>
     </g>
     <g id="text_3">
      <!-- 14 -->
      <defs>
       <path d="M 37.796875 64.3125 
L 12.890625 25.390625 
L 37.796875 25.390625 
z
M 35.203125 72.90625 
L 47.609375 72.90625 
L 47.609375 25.390625 
L 58.015625 25.390625 
L 58.015625 17.1875 
L 47.609375 17.1875 
L 47.609375 0 
L 37.796875 0 
L 37.796875 17.1875 
L 4.890625 17.1875 
L 4.890625 26.703125 
z
" id="DejaVuSans-52"/>
      </defs>
      <g transform="translate(258.575501 266.598437)scale(0.1 -0.1)">
       <use xlink:href="#DejaVuSans-49"/>
       <use x="63.623047" xlink:href="#DejaVuSans-52"/>
      </g>
     </g>
    </g>
    <g id="xtick_4">
     <g id="line2d_4">
      <g>
       <use style="stroke:#000000;stroke-width:0.8;" x="319.686205" xlink:href="#mdede4dd0b1" y="252"/>
      </g>
     </g>
     <g id="text_4">
      <!-- 15 -->
      <defs>
       <path d="M 10.796875 72.90625 
L 49.515625 72.90625 
L 49.515625 64.59375 
L 19.828125 64.59375 
L 19.828125 46.734375 
Q 21.96875 47.46875 24.109375 47.828125 
Q 26.265625 48.1875 28.421875 48.1875 
Q 40.625 48.1875 47.75 41.5 
Q 54.890625 34.8125 54.890625 23.390625 
Q 54.890625 11.625 47.5625 5.09375 
Q 40.234375 -1.421875 26.90625 -1.421875 
Q 22.3125 -1.421875 17.546875 -0.640625 
Q 12.796875 0.140625 7.71875 1.703125 
L 7.71875 11.625 
Q 12.109375 9.234375 16.796875 8.0625 
Q 21.484375 6.890625 26.703125 6.890625 
Q 35.15625 6.890625 40.078125 11.328125 
Q 45.015625 15.765625 45.015625 23.390625 
Q 45.015625 31 40.078125 35.4375 
Q 35.15625 39.890625 26.703125 39.890625 
Q 22.75 39.890625 18.8125 39.015625 
Q 14.890625 38.140625 10.796875 36.28125 
z
" id="DejaVuSans-53"/>
      </defs>
      <g transform="translate(313.323705 266.598437)scale(0.1 -0.1)">
       <use xlink:href="#DejaVuSans-49"/>
       <use x="63.623047" xlink:href="#DejaVuSans-53"/>
      </g>
     </g>
    </g>
   </g>
   <g id="matplotlib.axis_2">
    <g id="ytick_1">
     <g id="line2d_5">
      <defs>
       <path d="M 0 0 
L -3.5 0 
" id="m9a73292ae1" style="stroke:#000000;stroke-width:0.8;"/>
      </defs>
      <g>
       <use style="stroke:#000000;stroke-width:0.8;" x="104.655771" xlink:href="#m9a73292ae1" y="229.453243"/>
      </g>
     </g>
     <g id="text_5">
      <!-- 51.5 -->
      <defs>
       <path d="M 10.6875 12.40625 
L 21 12.40625 
L 21 0 
L 10.6875 0 
z
" id="DejaVuSans-46"/>
      </defs>
      <g transform="translate(75.390146 233.252462)scale(0.1 -0.1)">
       <use xlink:href="#DejaVuSans-53"/>
       <use x="63.623047" xlink:href="#DejaVuSans-49"/>
       <use x="127.246094" xlink:href="#DejaVuSans-46"/>
       <use x="159.033203" xlink:href="#DejaVuSans-53"/>
      </g>
     </g>
    </g>
    <g id="ytick_2">
     <g id="line2d_6">
      <g>
       <use style="stroke:#000000;stroke-width:0.8;" x="104.655771" xlink:href="#m9a73292ae1" y="184.528168"/>
      </g>
     </g>
     <g id="text_6">
      <!-- 52.0 -->
      <defs>
       <path d="M 31.78125 66.40625 
Q 24.171875 66.40625 20.328125 58.90625 
Q 16.5 51.421875 16.5 36.375 
Q 16.5 21.390625 20.328125 13.890625 
Q 24.171875 6.390625 31.78125 6.390625 
Q 39.453125 6.390625 43.28125 13.890625 
Q 47.125 21.390625 47.125 36.375 
Q 47.125 51.421875 43.28125 58.90625 
Q 39.453125 66.40625 31.78125 66.40625 
z
M 31.78125 74.21875 
Q 44.046875 74.21875 50.515625 64.515625 
Q 56.984375 54.828125 56.984375 36.375 
Q 56.984375 17.96875 50.515625 8.265625 
Q 44.046875 -1.421875 31.78125 -1.421875 
Q 19.53125 -1.421875 13.0625 8.265625 
Q 6.59375 17.96875 6.59375 36.375 
Q 6.59375 54.828125 13.0625 64.515625 
Q 19.53125 74.21875 31.78125 74.21875 
z
" id="DejaVuSans-48"/>
      </defs>
      <g transform="translate(75.390146 188.327387)scale(0.1 -0.1)">
       <use xlink:href="#DejaVuSans-53"/>
       <use x="63.623047" xlink:href="#DejaVuSans-50"/>
       <use x="127.246094" xlink:href="#DejaVuSans-46"/>
       <use x="159.033203" xlink:href="#DejaVuSans-48"/>
      </g>
     </g>
    </g>
    <g id="ytick_3">
     <g id="line2d_7">
      <g>
       <use style="stroke:#000000;stroke-width:0.8;" x="104.655771" xlink:href="#m9a73292ae1" y="139.603094"/>
      </g>
     </g>
     <g id="text_7">
      <!-- 52.5 -->
      <g transform="translate(75.390146 143.402313)scale(0.1 -0.1)">
       <use xlink:href="#DejaVuSans-53"/>
       <use x="63.623047" xlink:href="#DejaVuSans-50"/>
       <use x="127.246094" xlink:href="#DejaVuSans-46"/>
       <use x="159.033203" xlink:href="#DejaVuSans-53"/>
      </g>
     </g>
    </g>
    <g id="ytick_4">
     <g id="line2d_8">
      <g>
       <use style="stroke:#000000;stroke-width:0.8;" x="104.655771" xlink:href="#m9a73292ae1" y="94.678019"/>
      </g>
     </g>
     <g id="text_8">
      <!-- 53.0 -->
      <g transform="translate(75.390146 98.477238)scale(0.1 -0.1)">
       <use xlink:href="#DejaVuSans-53"/>
       <use x="63.623047" xlink:href="#DejaVuSans-51"/>
       <use x="127.246094" xlink:href="#DejaVuSans-46"/>
       <use x="159.033203" xlink:href="#DejaVuSans-48"/>
      </g>
     </g>
    </g>
    <g id="ytick_5">
     <g id="line2d_9">
      <g>
       <use style="stroke:#000000;stroke-width:0.8;" x="104.655771" xlink:href="#m9a73292ae1" y="49.752945"/>
      </g>
     </g>
     <g id="text_9">
      <!-- 53.5 -->
      <g transform="translate(75.390146 53.552163)scale(0.1 -0.1)">
       <use xlink:href="#DejaVuSans-53"/>
       <use x="63.623047" xlink:href="#DejaVuSans-51"/>
       <use x="127.246094" xlink:href="#DejaVuSans-46"/>
       <use x="159.033203" xlink:href="#DejaVuSans-53"/>
      </g>
     </g>
    </g>
   </g>
   <g id="patch_3">
    <path d="M 104.655771 252 
L 104.655771 34.56 
" style="fill:none;stroke:#000000;stroke-linecap:square;stroke-linejoin:miter;stroke-width:0.8;"/>
   </g>
   <g id="patch_4">
    <path d="M 338.144229 252 
L 338.144229 34.56 
" style="fill:none;stroke:#000000;stroke-linecap:square;stroke-linejoin:miter;stroke-width:0.8;"/>
   </g>
   <g id="patch_5">
    <path d="M 104.655771 252 
L 338.144229 252 
" style="fill:none;stroke:#000000;stroke-linecap:square;stroke-linejoin:miter;stroke-width:0.8;"/>
   </g>
   <g id="patch_6">
    <path d="M 104.655771 34.56 
L 338.144229 34.56 
" style="fill:none;stroke:#000000;stroke-linecap:square;stroke-linejoin:miter;stroke-width:0.8;"/>
   </g>
  </g>
 </g>
 <defs>
  <clipPath id="pf8e588c90a">
   <rect height="217.44" width="233.488458" x="104.655771" y="34.56"/>
  </clipPath>
 </defs>
</svg>
