<?xml version="1.0" encoding="utf-8" standalone="no"?>
<!DOCTYPE svg PUBLIC "-//W3C//DTD SVG 1.1//EN"
  "http://www.w3.org/Graphics/SVG/1.1/DTD/svg11.dtd">
<!-- Created with matplotlib (https://matplotlib.org/) -->
<svg height="288pt" version="1.1" viewBox="0 0 432 288" width="432pt" xmlns="http://www.w3.org/2000/svg" xmlns:xlink="http://www.w3.org/1999/xlink">
 <defs>
  <style type="text/css">
*{stroke-linecap:butt;stroke-linejoin:round;}
  </style>
 </defs>
 <g id="figure_1">
  <g id="patch_1">
   <path d="M 0 288 
L 432 288 
L 432 0 
L 0 0 
z
" style="fill:#ffffff;"/>
  </g>
  <g id="axes_1">
   <g id="patch_2">
    <path d="M 111.035289 252 
L 331.764711 252 
L 331.764711 34.56 
L 111.035289 34.56 
z
" style="fill:#ffffff;"/>
   </g>
   <g id="PatchCollection_1">
    <path clip-path="url(#pdc8cfd4071)" d="M 250.788615 114.936782 
L 309.186426 114.39359 
L 312.168404 105.63782 
L 315.640708 95.486417 
L 319.130896 85.341365 
L 321.562401 78.318143 
L 321.66001 78.035918 
L 321.731555 44.443636 
L 249.265083 45.126174 
L 250.788615 114.936782 
" style="fill:none;stroke:#0000ff;stroke-opacity:0.2;"/>
    <path clip-path="url(#pdc8cfd4071)" d="M 252.099826 178.502205 
L 287.993612 178.172251 
L 288.154629 177.677417 
L 288.426053 176.841251 
L 291.747927 166.671425 
L 291.767885 166.610869 
L 291.771423 166.600037 
L 295.120023 156.435671 
L 298.481738 146.270046 
L 301.866519 136.106145 
L 305.276922 125.945838 
L 308.710798 115.790143 
L 311.324726 108.115051 
L 250.655728 108.680012 
L 252.099826 178.502205 
" style="fill:none;stroke:#0000ff;stroke-opacity:0.2;"/>
    <path clip-path="url(#pdc8cfd4071)" d="M 191.775871 117.193829 
L 194.963844 47.465538 
L 129.056565 45.334653 
L 127.4032 51.227732 
L 124.539718 61.511536 
L 122.035772 70.594105 
L 121.068445 114.93625 
L 191.775871 117.193829 
" style="fill:none;stroke:#0000ff;stroke-opacity:0.2;"/>
    <path clip-path="url(#pdc8cfd4071)" d="M 255.991389 120.634454 
L 260.682316 51.031399 
L 188.48451 47.188361 
L 185.445255 116.926399 
L 255.991389 120.634454 
" style="fill:none;stroke:#0000ff;stroke-opacity:0.2;"/>
    <path clip-path="url(#pdc8cfd4071)" d="M 186.411847 116.92746 
L 257.130881 114.81245 
L 255.757036 44.997304 
L 183.371988 47.189461 
L 186.411847 116.92746 
" style="fill:none;stroke:#0000ff;stroke-opacity:0.2;"/>
    <path clip-path="url(#pdc8cfd4071)" d="M 253.344635 242.116364 
L 267.55995 241.987273 
L 268.860062 237.852203 
L 272.086182 227.66166 
L 275.332952 217.475035 
L 278.584716 207.291406 
L 281.851067 197.115039 
L 285.139584 186.943173 
L 288.154629 177.677417 
L 288.426053 176.841251 
L 290.029506 171.932322 
L 251.974577 172.282553 
L 253.344635 242.116364 
" style="fill:none;stroke:#0000ff;stroke-opacity:0.2;"/>
   </g>
   <g id="PatchCollection_2">
    <path clip-path="url(#pdc8cfd4071)" d="M 154.304214 117.040409 
L 154.438869 117.429191 
L 154.514141 118.676316 
L 155.041814 119.322479 
L 155.767695 119.92066 
L 156.308493 120.311862 
L 156.647388 120.866363 
L 157.283234 121.683638 
L 157.658747 121.828348 
L 158.121678 121.77808 
L 160.588762 120.462248 
L 161.352762 120.342353 
L 161.904127 120.135947 
L 162.330573 120.157585 
L 162.800544 120.395649 
L 163.55182 121.204439 
L 164.731422 122.280821 
L 165.286069 122.38413 
L 165.774744 122.238407 
L 166.351655 121.95251 
L 166.670074 122.1047 
L 167.260076 122.814193 
L 168.132085 123.178641 
L 168.599487 123.142681 
L 169.685549 122.726451 
L 170.159168 122.805766 
L 170.476281 123.089682 
L 170.473758 123.374886 
L 170.094261 123.838057 
L 169.807403 124.290813 
L 169.82167 124.753192 
L 170.119074 125.118843 
L 170.612091 125.305188 
L 170.997318 125.263992 
L 171.846325 125.018916 
L 172.033077 125.135797 
L 172.298347 125.560871 
L 172.31252 126.01091 
L 172.422844 126.901689 
L 172.664177 127.151096 
L 173.132208 127.269668 
L 173.698198 126.911312 
L 173.846499 126.799661 
L 174.520689 126.483407 
L 175.327481 126.679228 
L 175.659042 126.919046 
L 176.061382 127.452001 
L 176.406248 128.09861 
L 176.913269 128.525156 
L 177.808246 128.662664 
L 178.703473 128.716236 
L 179.147178 128.965586 
L 179.400751 129.267128 
L 179.391011 129.782131 
L 179.140982 130.139 
L 178.392961 131.017326 
L 178.331965 131.363369 
L 178.582335 131.877056 
L 178.888686 132.066282 
L 179.436115 132.106353 
L 180.469334 132.14203 
L 180.750958 132.438258 
L 181.242526 133.060476 
L 181.746408 133.279513 
L 182.568502 133.341406 
L 183.41099 133.495273 
L 183.800201 133.731908 
L 184.282266 134.185251 
L 184.256319 134.05932 
L 184.626796 134.229497 
L 185.40571 134.390843 
L 185.385191 134.33311 
L 185.761187 134.024166 
L 186.19711 133.979566 
L 186.320921 133.650187 
L 186.341091 133.655282 
L 187.038127 133.494622 
L 187.180272 133.596714 
L 188.03049 133.679843 
L 188.038247 133.726494 
L 188.092439 133.687541 
L 188.401342 133.572486 
L 188.808822 133.690449 
L 188.806127 133.89798 
L 188.83407 133.900308 
L 189.132574 133.801238 
L 189.279138 133.747453 
L 189.461932 134.0251 
L 189.529964 134.395421 
L 190.066343 134.3478 
L 190.475451 134.380356 
L 190.804865 134.463407 
L 191.048978 133.619301 
L 191.350147 133.153638 
L 191.349444 133.157275 
L 191.49164 133.207338 
L 191.133442 134.239318 
L 191.183461 134.544285 
L 191.688041 135.175751 
L 191.285607 136.019787 
L 191.45666 135.99863 
L 192.01091 135.753603 
L 193.385465 135.248634 
L 193.463414 135.162088 
L 194.118292 134.544646 
L 194.336272 134.336591 
L 194.437573 134.316489 
L 194.442247 134.337101 
L 194.680039 135.015622 
L 194.931728 135.163326 
L 194.930064 135.230286 
L 194.96485 135.273004 
L 194.99723 135.432453 
L 195.015735 135.426219 
L 195.228999 135.380268 
L 195.426448 135.184971 
L 195.758543 135.375039 
L 196.038969 135.719709 
L 196.001359 135.841593 
L 195.942217 136.23893 
L 196.074608 136.508835 
L 196.203206 136.739922 
L 196.228092 137.271773 
L 196.654577 138.830262 
L 197.060857 139.480727 
L 196.826794 139.569375 
L 196.972168 139.932082 
L 196.628781 140.132374 
L 196.59556 140.584649 
L 196.28638 140.698565 
L 195.428686 140.552786 
L 195.578401 140.751988 
L 195.487194 141.666529 
L 195.105118 141.805487 
L 195.218591 142.396698 
L 195.091222 142.377246 
L 194.898632 142.426622 
L 194.816725 142.624162 
L 195.011458 143.184012 
L 195.367108 143.269617 
L 195.415824 143.519017 
L 195.392766 143.900652 
L 195.485629 144.131442 
L 195.405575 144.326364 
L 195.278664 144.372782 
L 194.613926 144.905284 
L 194.618573 144.904484 
L 194.76778 144.946374 
L 194.829358 145.028646 
L 194.711613 145.169366 
L 194.831109 145.140475 
L 194.602672 145.354325 
L 194.600797 145.34676 
L 194.471678 145.464929 
L 194.529354 145.686506 
L 194.862243 145.544788 
L 195.022224 145.7869 
L 194.840344 146.110753 
L 195.068914 146.264959 
L 195.308259 146.344634 
L 195.438063 146.492006 
L 195.601106 146.724352 
L 195.458673 146.799421 
L 195.316632 147.048821 
L 195.497438 147.68127 
L 195.69919 147.735536 
L 195.969746 147.699378 
L 195.961382 147.779258 
L 195.783042 148.007076 
L 195.753602 148.175541 
L 195.983979 148.229233 
L 196.085073 148.370385 
L 196.188792 148.783274 
L 196.248076 149.034174 
L 196.076678 149.940209 
L 196.144534 151.057441 
L 195.90831 151.154905 
L 195.904521 151.872953 
L 196.154312 151.872854 
L 195.951715 151.978045 
L 195.100328 152.216887 
L 194.835813 152.392562 
L 194.564532 152.657678 
L 194.20185 152.561812 
L 193.139144 152.037073 
L 193.173365 152.843931 
L 193.272251 152.80403 
L 193.500519 152.737997 
L 193.420505 152.821055 
L 193.278589 153.339454 
L 193.345315 153.496824 
L 193.51495 153.501529 
L 193.418785 154.299097 
L 193.615518 155.678535 
L 193.767799 155.733975 
L 193.717077 155.796329 
L 192.694016 157.096517 
L 192.644398 157.342053 
L 192.318343 158.252185 
L 192.119739 158.487305 
L 192.111663 159.070605 
L 192.225265 158.95935 
L 192.664249 158.888392 
L 192.775802 158.615599 
L 193.435996 158.320064 
L 193.790206 158.661345 
L 194.079108 158.776075 
L 194.035458 158.850557 
L 193.190275 160.170274 
L 193.359509 160.664729 
L 193.843588 161.223567 
L 193.903756 161.359114 
L 193.973017 161.30596 
L 194.121219 161.132075 
L 194.932694 161.039705 
L 195.092244 160.802894 
L 195.103079 160.846262 
L 195.464929 161.034625 
L 195.503134 161.040045 
L 195.580932 160.818588 
L 195.755952 160.595214 
L 195.637884 160.156625 
L 195.975282 159.746197 
L 196.087172 159.364555 
L 196.341409 159.487281 
L 196.540229 159.6363 
L 196.594805 159.732187 
L 197.041205 159.756408 
L 197.070606 159.890589 
L 197.075249 160.116617 
L 197.058973 160.28349 
L 197.118874 160.662393 
L 197.216523 160.813826 
L 197.421401 160.947704 
L 197.555551 160.985694 
L 197.585573 160.991794 
L 197.52124 161.056716 
L 197.241094 161.390942 
L 197.334712 161.41621 
L 197.61819 161.625242 
L 197.662241 161.940787 
L 197.69344 161.932063 
L 198.155474 161.773632 
L 198.304585 161.5828 
L 198.660494 161.525293 
L 198.69205 161.387892 
L 198.876125 161.375226 
L 199.347359 161.702087 
L 200.042361 161.31259 
L 200.17893 161.3191 
L 200.174101 161.379238 
L 200.073404 161.674561 
L 199.665416 161.732294 
L 199.477936 161.724234 
L 199.288131 162.009014 
L 199.318437 162.214967 
L 199.302536 162.603395 
L 199.350257 162.60849 
L 199.472947 162.691342 
L 199.668447 162.772348 
L 199.984698 162.595817 
L 200.106435 162.513247 
L 200.129196 162.538084 
L 200.203562 162.593694 
L 200.157609 162.661404 
L 199.966986 163.038227 
L 199.792617 163.701175 
L 199.526889 163.863908 
L 199.531003 163.99061 
L 199.613393 164.233018 
L 199.564646 164.431874 
L 199.20581 164.461275 
L 199.054913 164.560989 
L 199.110515 164.927744 
L 199.207642 164.972605 
L 199.144611 165.096237 
L 198.971286 165.4432 
L 198.876138 165.780681 
L 198.409754 165.961854 
L 198.49765 166.091811 
L 198.758988 166.441123 
L 198.699048 166.456259 
L 198.417303 166.601472 
L 197.798151 167.182812 
L 197.856513 167.294167 
L 198.530426 167.589624 
L 198.81124 167.511194 
L 198.846668 167.48693 
L 198.897256 167.564865 
L 198.948439 167.933367 
L 198.847793 168.521231 
L 198.683022 168.69283 
L 198.587223 169.273661 
L 198.737701 169.521851 
L 199.158814 169.7093 
L 199.072121 169.797778 
L 198.889072 170.176137 
L 198.413673 170.254426 
L 198.19627 170.40612 
L 198.270257 170.763166 
L 198.807208 171.447618 
L 198.868584 171.708466 
L 199.224975 172.05015 
L 198.765313 172.848609 
L 198.402019 173.614923 
L 198.139275 173.815385 
L 197.926606 174.282703 
L 197.547825 175.128316 
L 197.29398 175.633491 
L 197.197155 175.901351 
L 197.196133 175.900679 
L 196.756166 177.143898 
L 196.75414 177.44307 
L 196.874937 177.880719 
L 196.872661 178.002949 
L 196.522478 178.755973 
L 196.984611 178.923094 
L 197.249286 178.984442 
L 197.06353 179.224204 
L 197.15319 179.263271 
L 197.374616 179.290046 
L 197.390931 179.225676 
L 197.619393 179.318881 
L 197.496409 179.357947 
L 197.597499 179.425508 
L 197.786182 179.707939 
L 197.635359 179.733999 
L 197.335419 179.731841 
L 197.326904 179.668426 
L 197.229746 179.76933 
L 197.245234 179.778939 
L 197.421776 179.876771 
L 197.585189 179.801603 
L 198.263789 179.966997 
L 198.344334 180.163985 
L 198.752882 180.23882 
L 198.584933 180.38416 
L 198.243464 180.846518 
L 198.108141 180.986445 
L 198.149196 180.993104 
L 197.999498 181.079374 
L 197.331521 181.15428 
L 197.020846 181.212664 
L 196.543092 181.717018 
L 196.626556 181.816782 
L 196.711089 181.87772 
L 196.868759 181.869208 
L 196.855337 181.953291 
L 196.621666 182.430771 
L 196.61632 182.428874 
L 196.377148 182.708608 
L 196.486097 183.265671 
L 196.615453 183.437348 
L 196.526406 183.482585 
L 196.282815 183.52584 
L 195.782874 183.2581 
L 195.256313 184.365609 
L 195.485159 184.703012 
L 196.016708 184.916657 
L 195.931261 185.476748 
L 195.946153 185.477795 
L 196.890235 186.856137 
L 197.368506 187.196158 
L 197.486876 187.57105 
L 197.569534 188.179866 
L 197.70337 188.726124 
L 198.11494 189.062713 
L 198.30462 189.140676 
L 199.722338 190.1968 
L 199.968383 191.082145 
L 200.366204 191.811804 
L 200.858113 192.169197 
L 200.987965 192.305105 
L 201.452443 193.140381 
L 202.634515 193.354231 
L 202.735695 193.351386 
L 203.241474 194.01831 
L 203.687534 194.456114 
L 204.131778 194.674734 
L 204.250674 194.938384 
L 204.571844 195.150889 
L 205.065318 195.254531 
L 205.35359 195.204653 
L 205.422041 194.733867 
L 205.45239 194.596749 
L 205.913307 193.976194 
L 206.596848 194.065811 
L 206.668403 194.088766 
L 206.74593 194.723827 
L 206.864352 195.227253 
L 207.045684 195.36723 
L 207.578829 195.864395 
L 208.299652 196.041244 
L 209.043685 196.229005 
L 209.063204 196.465215 
L 209.227725 197.225839 
L 209.194349 197.454619 
L 209.30163 197.505403 
L 210.113023 197.582128 
L 212.342232 197.700495 
L 212.466889 197.686605 
L 212.413404 197.023438 
L 213.534864 196.84903 
L 213.742648 196.739996 
L 213.906967 195.861486 
L 214.208601 195.527444 
L 214.853217 195.552557 
L 215.025262 195.749637 
L 215.226807 196.084422 
L 215.43983 196.219856 
L 216.448012 196.401163 
L 216.625541 196.454403 
L 216.573337 196.556714 
L 216.682057 196.704581 
L 217.642497 197.268585 
L 217.672101 197.215904 
L 217.905034 197.191549 
L 218.271338 197.340264 
L 218.596211 197.502212 
L 218.752252 197.74409 
L 219.006027 197.892034 
L 219.293476 197.953949 
L 219.431119 198.14788 
L 219.404383 198.917391 
L 220.381142 199.11486 
L 221.42549 199.016363 
L 221.862637 198.808457 
L 222.345202 198.730126 
L 222.346625 198.735787 
L 222.693816 200.522999 
L 222.782789 201.038271 
L 224.021521 201.09531 
L 224.263448 201.047753 
L 224.265341 201.082368 
L 224.391122 201.505561 
L 224.748661 201.529647 
L 225.389746 201.301129 
L 225.587251 200.726447 
L 225.893102 200.816291 
L 226.676659 200.980941 
L 227.351499 201.117762 
L 227.324673 201.224164 
L 227.172405 201.904284 
L 227.259326 201.916993 
L 228.041396 202.136914 
L 227.89597 203.441496 
L 227.943695 203.416149 
L 228.482122 203.227964 
L 229.124065 203.288796 
L 229.700795 203.40291 
L 230.002248 203.750178 
L 230.002352 203.579831 
L 230.034926 203.280779 
L 230.114444 203.310739 
L 231.028625 203.588336 
L 231.136497 204.097275 
L 230.671126 204.160746 
L 230.677179 204.910891 
L 230.673803 204.91041 
L 230.217457 204.853109 
L 230.325975 205.067171 
L 230.546167 205.309013 
L 230.862996 205.607032 
L 231.827639 205.714374 
L 232.424725 205.784928 
L 232.523676 205.821462 
L 232.529488 205.77423 
L 232.744597 205.372513 
L 233.432368 205.371338 
L 233.881156 205.301279 
L 233.957484 205.290495 
L 234.037973 205.16489 
L 234.18646 205.073964 
L 234.178953 204.705624 
L 234.295758 204.708115 
L 234.763936 204.752297 
L 234.755101 204.955675 
L 235.040278 204.956694 
L 235.094169 205.195684 
L 235.231825 205.303112 
L 235.297197 205.447299 
L 235.503045 205.466793 
L 235.572824 206.251935 
L 235.527487 206.37759 
L 234.377044 206.633599 
L 234.544782 207.330015 
L 234.831723 208.012662 
L 234.977446 208.332779 
L 235.051613 208.404381 
L 235.313779 209.194985 
L 235.511168 209.227372 
L 235.44859 209.381621 
L 235.728019 209.656586 
L 235.982678 210.542957 
L 235.896335 210.778021 
L 236.021935 211.190734 
L 235.955636 211.4383 
L 236.409745 211.50018 
L 236.361783 211.805395 
L 236.264277 211.786756 
L 235.93278 211.803746 
L 235.930219 211.82704 
L 236.006491 211.998979 
L 235.919759 212.421959 
L 235.408927 212.955954 
L 235.583232 213.016942 
L 235.740143 213.160074 
L 235.680527 213.139356 
L 235.501993 213.465834 
L 235.597348 213.516844 
L 236.115592 213.89376 
L 236.051095 214.08842 
L 235.78228 214.285521 
L 235.870504 214.432821 
L 235.864942 214.476933 
L 235.788588 214.401609 
L 235.762826 214.409202 
L 235.641296 214.539569 
L 235.760477 214.585662 
L 236.276401 214.907187 
L 236.296079 215.116551 
L 236.264415 215.149143 
L 236.361326 215.16132 
L 236.367513 215.180411 
L 236.536997 215.279114 
L 236.675084 215.336288 
L 237.114831 216.553694 
L 236.68078 216.459718 
L 236.60644 216.380057 
L 236.37896 216.399523 
L 236.278492 216.386602 
L 236.381836 217.108542 
L 236.302288 217.057128 
L 235.822072 216.822573 
L 235.722923 217.04657 
L 235.978746 217.734064 
L 236.000951 218.013176 
L 235.898909 218.019127 
L 235.801872 218.035323 
L 235.918742 218.118459 
L 236.057769 218.250199 
L 235.885638 218.386256 
L 234.400357 219.433046 
L 231.251237 221.372526 
L 231.279051 221.414112 
L 233.02084 224.246812 
L 233.203293 224.250216 
L 233.303719 224.191429 
L 233.250492 224.124879 
L 233.226916 224.07914 
L 233.452244 223.986367 
L 233.59006 224.059731 
L 233.53184 223.889384 
L 233.511554 223.89825 
L 233.346278 223.957059 
L 233.421727 223.530243 
L 233.4482 223.612827 
L 233.544978 223.577645 
L 233.664266 223.918304 
L 233.84803 223.741383 
L 233.829883 223.693606 
L 234.00946 223.629399 
L 234.042737 223.482077 
L 234.254268 223.309544 
L 234.291787 223.499031 
L 234.609883 223.936708 
L 235.078539 224.557582 
L 235.255206 224.839389 
L 235.256888 224.924923 
L 235.747947 224.793247 
L 236.026484 225.302589 
L 235.710492 225.527725 
L 235.716317 225.828914 
L 235.477956 226.247025 
L 235.175481 226.913475 
L 235.331366 227.143204 
L 235.393104 227.310812 
L 235.864502 227.271187 
L 236.109478 227.672953 
L 237.058082 227.71301 
L 237.360333 229.211608 
L 237.89584 230.075032 
L 238.02715 230.098587 
L 238.000905 230.771271 
L 237.985086 231.337915 
L 237.98456 231.472754 
L 237.76864 231.52811 
L 237.852449 231.90857 
L 237.768705 232.026626 
L 237.786395 232.055545 
L 237.728202 232.122802 
L 237.557916 232.307421 
L 237.599716 232.330234 
L 237.747354 232.393713 
L 237.416664 232.648582 
L 237.319977 232.622295 
L 237.101966 232.363328 
L 236.915839 232.387656 
L 236.975369 232.440449 
L 237.117638 232.771477 
L 237.081947 233.036019 
L 236.910687 233.716437 
L 237.05058 234.082505 
L 237.442236 234.472271 
L 237.781424 234.70115 
L 237.847512 234.934912 
L 237.720562 235.489894 
L 237.319179 236.139609 
L 237.330475 236.263495 
L 237.250207 236.201658 
L 237.04811 236.189778 
L 236.593483 236.633045 
L 236.640561 237.009868 
L 237.109912 237.134115 
L 237.217322 236.976887 
L 237.187141 236.501297 
L 237.224686 236.513461 
L 237.378459 236.338564 
L 237.807444 236.743401 
L 237.841506 237.091921 
L 237.768618 237.722177 
L 238.524258 239.255639 
L 239.434559 239.286971 
L 239.720986 239.333311 
L 239.642993 239.30193 
L 239.87296 239.332066 
L 239.878479 239.429665 
L 240.175707 239.511364 
L 240.412064 239.833759 
L 240.425305 239.969858 
L 240.641893 239.982793 
L 240.711749 239.535118 
L 240.641789 239.545725 
L 240.435144 239.534821 
L 240.425805 239.275027 
L 240.236923 239.131944 
L 240.276495 238.790528 
L 240.312643 238.819483 
L 240.479195 238.853518 
L 241.407876 238.941777 
L 241.406134 238.902944 
L 241.372133 238.129378 
L 242.301111 237.684321 
L 242.390223 237.65175 
L 242.683592 237.246319 
L 243.224437 237.018763 
L 243.160832 236.797214 
L 242.928477 236.262957 
L 242.890591 236.246739 
L 243.069129 236.255634 
L 243.427327 236.25441 
L 243.426275 236.344437 
L 243.631204 236.833252 
L 244.632052 236.571498 
L 245.251584 237.078491 
L 245.384881 237.101714 
L 245.558526 236.963209 
L 245.547436 236.945095 
L 245.229927 236.143607 
L 245.433662 236.329825 
L 245.550385 236.275843 
L 245.836998 235.706631 
L 245.898097 235.448103 
L 246.324591 235.157415 
L 246.394857 235.061119 
L 246.415643 235.079445 
L 246.63042 235.461816 
L 246.570722 235.664692 
L 246.797296 236.003694 
L 246.829227 236.099871 
L 247.165513 236.154072 
L 247.198963 236.318879 
L 247.33473 236.506229 
L 247.472766 236.49144 
L 247.476719 236.547984 
L 247.512316 236.706557 
L 247.48711 236.725641 
L 247.494483 236.775802 
L 247.551978 236.800979 
L 247.56343 236.974934 
L 247.247541 237.365853 
L 247.38133 237.355614 
L 247.583323 237.269606 
L 247.732814 236.943786 
L 247.802485 236.936363 
L 247.817158 237.013512 
L 248.206683 237.004724 
L 248.270991 237.050562 
L 248.185798 236.854905 
L 248.288384 236.708864 
L 248.317142 236.788695 
L 248.412605 236.885069 
L 248.584352 237.31884 
L 249.021685 237.232839 
L 249.083543 236.968297 
L 249.11704 237.011963 
L 249.573719 237.581585 
L 249.51784 237.549397 
L 249.129375 237.341087 
L 249.129677 237.431511 
L 249.04079 237.795315 
L 249.009707 237.789937 
L 249.115716 238.05363 
L 249.446798 238.18133 
L 249.699983 238.171353 
L 250.312095 238.40539 
L 250.449018 238.671765 
L 251.045607 238.616997 
L 251.525724 238.711787 
L 251.700455 240.233849 
L 251.759351 240.224211 
L 252.257693 240.257553 
L 252.299343 240.642295 
L 252.44923 241.056875 
L 252.60227 241.069513 
L 252.845901 240.361089 
L 253.102065 240.327393 
L 253.647635 239.906797 
L 254.270689 239.9896 
L 254.496711 240.007637 
L 254.394975 240.167186 
L 254.581818 240.49031 
L 254.545303 240.668745 
L 254.62881 240.677865 
L 254.734081 240.705957 
L 254.729041 241.064949 
L 254.77849 241.067921 
L 255.050293 241.077396 
L 255.860793 240.993475 
L 256.836767 241.096933 
L 257.145369 241.062013 
L 257.677212 241.006112 
L 257.902281 240.605584 
L 258.007643 240.716238 
L 258.497068 241.175405 
L 258.855175 240.732711 
L 259.434316 241.280391 
L 259.886105 241.469362 
L 260.361384 241.413462 
L 260.479763 241.41671 
L 261.12002 241.58274 
L 261.464964 241.251797 
L 261.565558 240.981318 
L 261.758117 240.901707 
L 262.221436 241.042242 
L 262.202758 241.082526 
L 262.025323 241.332491 
L 261.916991 241.367022 
L 261.919966 241.446124 
L 261.904362 241.512773 
L 261.975533 241.503079 
L 261.978422 241.518993 
L 261.968768 241.78863 
L 262.083694 241.535197 
L 262.534966 241.654264 
L 262.539872 241.630828 
L 262.765161 241.055772 
L 263.170605 240.962164 
L 263.554539 240.868195 
L 263.950713 240.841235 
L 264.401416 241.051894 
L 264.908881 240.577889 
L 265.121989 240.426329 
L 265.131604 240.315109 
L 265.0271 240.041722 
L 265.141517 240.092733 
L 265.540838 240.15152 
L 266.348583 240.373174 
L 266.407126 240.465714 
L 266.456791 240.446828 
L 267.181422 240.666006 
L 267.781758 240.493289 
L 267.849614 240.566447 
L 267.880308 240.544583 
L 268.208928 240.399603 
L 268.276827 240.409297 
L 268.272128 240.360197 
L 268.284023 240.088367 
L 268.640233 239.9753 
L 268.872292 239.918841 
L 269.830088 239.454622 
L 270.196689 239.099939 
L 270.500134 239.103965 
L 270.985425 239.455662 
L 270.899611 240.611535 
L 271.505686 240.750557 
L 272.198804 240.835306 
L 272.167765 240.771841 
L 272.077135 239.926426 
L 272.469468 239.602807 
L 272.52538 239.458896 
L 272.485071 239.462151 
L 272.336257 239.207869 
L 272.37958 239.188693 
L 272.828261 239.026243 
L 273.385623 239.156349 
L 273.354627 239.060759 
L 273.283236 238.774643 
L 272.886756 238.720667 
L 272.871105 238.545763 
L 273.171359 238.316594 
L 273.357115 238.297135 
L 273.891329 237.665386 
L 274.107344 237.542384 
L 274.024359 237.143059 
L 273.922247 237.046642 
L 273.82763 236.881354 
L 274.177506 236.901903 
L 274.045334 236.536684 
L 273.763094 236.448178 
L 273.797151 236.403599 
L 274.362007 235.965286 
L 274.871598 235.678023 
L 274.445971 235.132253 
L 274.534854 234.560791 
L 273.584883 233.584824 
L 273.838314 233.228479 
L 275.349438 233.778048 
L 275.465876 233.699229 
L 275.910776 233.404847 
L 276.008144 233.308104 
L 275.454908 232.601166 
L 275.355323 232.366838 
L 275.44512 232.331741 
L 275.816939 232.289639 
L 275.978037 232.187611 
L 276.356313 231.816229 
L 276.411661 231.446127 
L 276.888954 230.257634 
L 277.131484 230.228481 
L 277.330477 230.203149 
L 277.996996 230.317822 
L 278.159125 230.146959 
L 278.308418 230.190964 
L 278.183222 230.058162 
L 277.772078 229.464347 
L 277.830616 229.104223 
L 278.183119 228.702846 
L 278.379352 228.724491 
L 278.656074 228.884528 
L 281.726935 229.177389 
L 282.071598 229.49159 
L 282.742429 229.624943 
L 282.627112 229.773383 
L 283.095479 229.705638 
L 283.16653 229.544518 
L 283.481482 229.533189 
L 284.242382 229.687651 
L 286.205472 230.700321 
L 286.280261 231.294829 
L 286.436323 231.397402 
L 286.5321 231.451342 
L 286.924312 231.064478 
L 286.939627 230.757827 
L 286.965358 230.559155 
L 286.81482 230.557528 
L 286.82982 230.460389 
L 286.960482 230.321077 
L 287.531125 230.273873 
L 288.426248 229.443572 
L 288.798562 229.422698 
L 288.789284 229.437381 
L 288.828144 229.295394 
L 288.878145 229.093998 
L 288.864258 228.874806 
L 288.892197 228.874311 
L 289.648466 229.058675 
L 289.828362 229.18525 
L 289.879877 229.120724 
L 290.008733 229.038438 
L 291.245623 228.678986 
L 291.476707 228.841415 
L 291.463884 228.708853 
L 291.511036 227.972465 
L 291.719941 227.850206 
L 292.187614 227.77467 
L 292.225258 227.903707 
L 292.296766 227.764339 
L 293.830284 227.656155 
L 293.829793 227.66425 
L 294.01955 227.783359 
L 294.106954 227.69157 
L 294.444784 227.980276 
L 295.328146 227.59625 
L 295.678035 227.436878 
L 295.751332 227.181103 
L 295.647639 226.607136 
L 296.019168 226.728219 
L 296.344589 226.622144 
L 296.589151 226.198718 
L 296.650526 226.076707 
L 296.68971 226.084299 
L 296.918129 226.089437 
L 297.242575 226.166699 
L 297.298087 226.472437 
L 297.39158 226.563413 
L 297.825299 226.601262 
L 297.998435 226.84089 
L 298.103232 227.274003 
L 298.455808 228.26795 
L 298.731469 228.232358 
L 299.250954 228.236448 
L 299.66901 228.019307 
L 299.783771 227.98397 
L 300.367784 227.970052 
L 301.084525 228.099867 
L 301.278606 228.191628 
L 301.640245 227.902533 
L 301.982998 227.315419 
L 302.051363 226.952995 
L 302.167495 226.480115 
L 302.043188 226.415455 
L 302.251386 226.409985 
L 302.322238 226.376834 
L 302.376236 226.426182 
L 302.645857 226.382558 
L 302.594605 226.356101 
L 302.531833 225.964425 
L 302.359094 225.707674 
L 302.208792 224.970457 
L 302.248894 224.970181 
L 302.703136 224.944411 
L 303.01589 225.277646 
L 303.241373 225.670469 
L 303.277491 225.741455 
L 303.643131 226.029694 
L 303.642919 226.007681 
L 303.777225 225.713179 
L 304.526428 225.096162 
L 304.631135 224.995888 
L 304.822569 224.693108 
L 305.042848 224.457549 
L 305.133219 224.260908 
L 305.191899 223.984308 
L 305.083118 223.377969 
L 304.864995 223.102077 
L 304.672224 222.683887 
L 304.762336 222.316432 
L 304.717064 222.053984 
L 304.681235 221.361389 
L 304.576145 220.951053 
L 304.79015 220.60569 
L 304.802662 220.342329 
L 304.632463 220.143926 
L 304.538246 219.807825 
L 304.433121 219.570058 
L 304.30561 219.325378 
L 303.978555 219.185706 
L 303.972713 218.973738 
L 304.052533 218.803377 
L 303.872455 218.448829 
L 303.576551 218.4617 
L 303.223609 218.137932 
L 302.710798 217.63752 
L 302.156811 217.176053 
L 301.859515 216.944896 
L 301.723243 216.704369 
L 301.46203 216.32064 
L 301.323684 215.993015 
L 300.958169 215.727617 
L 300.729427 215.125084 
L 300.565901 214.492005 
L 300.596074 214.130019 
L 300.515283 213.890689 
L 300.745975 213.747302 
L 300.780045 213.570303 
L 300.562008 213.465494 
L 300.216896 213.268237 
L 300.297566 213.016192 
L 300.40113 212.822805 
L 300.133721 211.436192 
L 299.833924 210.804825 
L 299.569162 210.715915 
L 299.428023 210.476846 
L 298.696045 210.40177 
L 298.55588 210.301016 
L 298.289174 210.269407 
L 298.081847 209.835799 
L 297.965042 209.471373 
L 297.738244 209.235361 
L 297.616058 209.076612 
L 297.613229 208.814617 
L 297.632696 208.616171 
L 297.738796 208.391085 
L 297.694994 208.073218 
L 297.723912 207.772858 
L 297.971432 207.638924 
L 298.177788 207.791906 
L 298.301406 207.642872 
L 298.319902 207.176071 
L 298.367597 207.195805 
L 298.546696 207.409953 
L 298.587578 207.309297 
L 298.402637 206.973776 
L 298.370516 206.818862 
L 298.649877 206.504116 
L 299.129859 206.448711 
L 299.862704 205.886553 
L 299.998001 205.669548 
L 300.106045 205.439734 
L 300.321163 205.293764 
L 300.366909 204.938742 
L 300.51681 204.539381 
L 300.729979 204.343172 
L 300.804927 204.161765 
L 300.954828 204.184437 
L 301.272148 204.235702 
L 301.284802 204.187394 
L 301.310111 203.876852 
L 301.582655 203.799964 
L 301.80264 203.569295 
L 302.116067 203.328797 
L 301.973953 203.019322 
L 302.046543 202.816369 
L 302.374982 202.367951 
L 302.768228 200.953324 
L 302.985291 200.794758 
L 303.197485 200.472731 
L 303.238221 199.952542 
L 303.261034 199.78753 
L 303.059265 199.525549 
L 302.935647 199.442853 
L 302.645581 198.530421 
L 302.68943 197.871967 
L 302.737612 197.87295 
L 302.960999 197.792758 
L 303.082185 197.501044 
L 303.143021 197.187218 
L 303.287684 196.78473 
L 303.134748 196.407716 
L 302.973167 196.126941 
L 303.122093 196.02221 
L 303.441362 195.855535 
L 303.483878 195.533112 
L 303.529305 195.427439 
L 303.862431 195.033973 
L 304.150134 194.69894 
L 304.130176 194.345871 
L 304.439213 194.110284 
L 304.437833 193.703083 
L 304.48464 193.31053 
L 304.332527 193.105581 
L 304.315962 192.671584 
L 304.384214 192.485415 
L 304.902079 191.809731 
L 304.798726 191.564195 
L 304.423803 190.876404 
L 304.129486 190.408385 
L 303.308845 189.769723 
L 302.849122 189.63339 
L 302.355394 189.479339 
L 301.932178 188.993673 
L 301.598672 188.372057 
L 301.592929 187.906932 
L 301.664269 187.499045 
L 301.474904 186.380009 
L 301.636839 185.986798 
L 302.594226 184.483898 
L 302.477636 183.805652 
L 301.939365 183.155166 
L 301.746288 182.833436 
L 301.776163 182.534462 
L 301.950787 182.325806 
L 302.551269 181.755058 
L 302.789329 181.210067 
L 303.053776 179.816095 
L 302.983799 179.673882 
L 302.544237 179.127164 
L 302.302698 178.580143 
L 301.900397 178.268085 
L 299.800893 177.765586 
L 298.642314 177.214325 
L 297.838812 177.088911 
L 297.693977 176.951375 
L 297.372988 176.249914 
L 296.97317 175.970066 
L 296.94305 175.546534 
L 297.173491 175.238461 
L 297.397284 174.885165 
L 297.290874 174.54249 
L 297.080684 174.113523 
L 297.022318 173.709783 
L 296.797892 173.475094 
L 296.380056 173.240774 
L 296.378577 172.93829 
L 296.430394 172.421016 
L 296.261371 172.026021 
L 295.995825 171.52967 
L 296.014352 170.444981 
L 295.927827 169.79867 
L 295.505658 169.083325 
L 295.202157 168.405532 
L 295.361608 167.86456 
L 295.750875 167.138998 
L 295.668916 166.741442 
L 295.637782 166.267691 
L 295.805559 165.844166 
L 296.294665 165.36644 
L 296.829521 165.303251 
L 297.129646 165.190963 
L 298.494418 163.454266 
L 298.738527 162.546731 
L 299.266049 162.081387 
L 299.563234 161.427072 
L 299.481318 161.056475 
L 299.208046 160.720197 
L 298.530614 160.188933 
L 298.41339 159.477176 
L 298.222745 158.711358 
L 298.425351 158.265197 
L 298.656452 157.796606 
L 298.846808 157.010268 
L 299.754591 156.033664 
L 299.618116 155.700471 
L 298.537198 154.720548 
L 298.272423 153.826111 
L 297.781028 153.18021 
L 296.995949 152.636988 
L 296.838468 152.435917 
L 296.021423 152.06169 
L 294.95788 151.426091 
L 294.280189 151.104234 
L 292.125661 149.460013 
L 291.721178 148.59821 
L 291.362213 148.401576 
L 290.806372 148.132052 
L 290.244611 147.040209 
L 289.939679 146.668501 
L 289.711717 146.257091 
L 287.211921 143.235405 
L 284.709533 141.9454 
L 284.25805 141.649249 
L 282.851801 140.303712 
L 282.363312 139.714701 
L 282.134612 139.513489 
L 281.555459 138.675758 
L 281.227209 138.537741 
L 278.109404 138.045948 
L 277.657136 137.65897 
L 277.482128 137.061645 
L 277.586322 136.49261 
L 278.075549 135.756356 
L 278.98835 134.417399 
L 279.026797 133.254343 
L 278.72981 132.235532 
L 278.578219 131.408641 
L 278.480471 131.152696 
L 278.295811 128.764848 
L 278.61698 128.248437 
L 279.24742 128.050883 
L 279.800208 127.333019 
L 280.066613 127.257518 
L 280.69572 126.802894 
L 281.091739 126.557988 
L 281.587705 126.474209 
L 282.510901 126.037841 
L 283.487906 125.313396 
L 284.546487 124.372795 
L 284.746337 124.260775 
L 285.557294 123.331206 
L 285.749332 123.066501 
L 287.201944 121.804785 
L 287.293479 121.582883 
L 287.444949 121.358992 
L 288.119501 119.315743 
L 288.16244 118.654352 
L 288.146952 118.242991 
L 288.524833 117.582414 
L 288.612483 116.958526 
L 288.60373 116.698336 
L 288.773559 115.478368 
L 288.226984 114.645895 
L 288.117336 114.217297 
L 288.035295 113.824864 
L 287.991826 113.408867 
L 288.361027 112.019777 
L 288.519654 111.32266 
L 289.00842 111.120705 
L 289.489162 110.975796 
L 289.720814 110.662119 
L 290.023104 109.535264 
L 290.41266 109.022398 
L 290.747709 108.755563 
L 290.894777 108.383587 
L 290.970441 108.0157 
L 291.58062 106.983748 
L 291.365615 106.256827 
L 290.300382 105.982994 
L 289.928934 104.14954 
L 289.712743 103.831009 
L 290.054992 102.644001 
L 289.845298 102.344291 
L 289.516842 102.321287 
L 289.13512 102.449709 
L 288.60279 102.774312 
L 288.451286 103.262214 
L 288.242191 103.366875 
L 288.076117 103.313133 
L 287.78352 103.203278 
L 287.776721 103.304351 
L 287.795666 103.380772 
L 287.730371 103.390678 
L 287.267187 103.513927 
L 287.272197 103.53817 
L 287.106395 103.729695 
L 285.803253 103.590765 
L 285.807922 103.625827 
L 285.562999 104.503176 
L 285.14299 105.267147 
L 285.196699 105.42458 
L 285.152661 105.4421 
L 283.468625 106.111331 
L 283.611791 107.000256 
L 283.491985 107.375608 
L 282.764112 107.483785 
L 282.456795 107.502898 
L 281.623107 107.581887 
L 281.252044 107.615519 
L 280.798465 107.15171 
L 280.708396 107.246005 
L 280.640489 107.168027 
L 280.621289 107.144415 
L 280.571702 107.19251 
L 280.13433 107.170844 
L 278.828757 106.794869 
L 278.270721 106.933197 
L 277.431713 107.263348 
L 276.442782 107.175026 
L 276.844941 105.781032 
L 277.541072 104.999873 
L 278.502874 104.001178 
L 279.602061 103.015779 
L 281.655746 100.568054 
L 282.22065 99.383933 
L 282.662695 97.456051 
L 282.539004 95.958302 
L 282.611348 95.780766 
L 282.573419 95.759418 
L 281.86622 94.94617 
L 281.323517 95.480575 
L 281.305572 95.541867 
L 281.267915 95.576157 
L 280.968855 95.710056 
L 279.907045 95.778735 
L 279.4273 95.532732 
L 278.060135 94.477833 
L 277.878941 94.593192 
L 277.393232 94.487782 
L 276.494293 95.799496 
L 276.007429 96.00138 
L 275.711934 96.368772 
L 275.764204 96.525158 
L 275.704807 96.605159 
L 275.651706 96.538192 
L 275.222983 96.309496 
L 275.086798 96.332755 
L 274.494968 96.476829 
L 274.320112 96.285063 
L 274.129303 95.275981 
L 274.071618 95.300718 
L 272.439545 95.186017 
L 272.16491 94.911929 
L 270.578006 95.238796 
L 269.781708 95.227468 
L 268.562724 95.775105 
L 268.101191 95.364253 
L 268.125758 94.989001 
L 268.351495 94.78834 
L 268.33625 94.62173 
L 268.091959 94.199606 
L 268.119114 94.200964 
L 268.660278 93.882447 
L 268.468594 93.320466 
L 266.827186 92.126963 
L 267.060818 91.256096 
L 266.781419 91.111817 
L 266.731965 90.790412 
L 266.789973 90.660207 
L 266.861813 90.455358 
L 266.9244 90.186224 
L 266.988004 90.012827 
L 265.433544 89.19256 
L 264.607091 89.038679 
L 264.492002 89.017918 
L 264.555978 88.923581 
L 264.562639 88.76118 
L 263.501291 86.977626 
L 263.594895 86.385679 
L 263.638102 86.37053 
L 263.591446 86.278266 
L 263.548934 86.115469 
L 263.51075 86.153411 
L 263.403711 86.207322 
L 263.168303 86.167053 
L 262.789095 86.973324 
L 262.526532 88.326794 
L 262.700651 88.756539 
L 262.709063 89.356658 
L 262.722386 89.35133 
L 263.243764 89.631369 
L 263.332695 89.825031 
L 263.356012 89.896724 
L 263.637425 90.450072 
L 263.710605 90.353252 
L 264.087934 90.170281 
L 264.722224 90.417183 
L 263.549796 91.854383 
L 262.789586 92.119696 
L 262.60474 92.034749 
L 261.892639 91.902641 
L 261.37029 91.723095 
L 261.020949 91.279022 
L 260.894201 91.620359 
L 260.23784 91.573056 
L 260.071081 91.552097 
L 259.92666 91.543918 
L 259.682107 91.741075 
L 259.496416 92.045547 
L 258.510697 92.735079 
L 258.352169 92.784618 
L 257.259548 93.819209 
L 257.288971 93.815586 
L 257.373077 93.994884 
L 257.303587 94.00358 
L 257.197332 94.073208 
L 257.133318 94.313876 
L 257.014991 94.146847 
L 256.676821 94.039024 
L 256.388837 94.556001 
L 256.597733 94.709811 
L 256.574649 94.729107 
L 256.399892 95.12573 
L 256.351994 95.096039 
L 256.173728 95.107834 
L 256.447155 95.805284 
L 256.307452 96.104067 
L 255.846121 96.740585 
L 255.839968 96.723844 
L 255.533643 96.396991 
L 255.21622 96.531427 
L 255.18797 96.597092 
L 255.127082 96.582699 
L 254.871409 96.615553 
L 254.747244 96.736878 
L 254.272367 96.775583 
L 253.695778 96.863007 
L 253.620748 96.9582 
L 253.355456 97.349472 
L 252.936702 97.368259 
L 252.724995 97.630042 
L 252.754469 97.6926 
L 252.653487 97.695869 
L 252.593026 97.76941 
L 252.6122 97.801167 
L 252.718502 97.908799 
L 252.742625 97.895603 
L 253.018765 97.917559 
L 253.013582 98.071214 
L 252.989593 98.224076 
L 252.972506 98.405334 
L 252.901684 98.649306 
L 252.840925 98.697671 
L 252.80209 98.684063 
L 252.802625 98.768558 
L 252.827788 98.786948 
L 253.065157 98.881207 
L 253.055517 98.911846 
L 253.005597 99.076928 
L 252.626471 99.506135 
L 252.470163 99.926504 
L 251.969235 99.811166 
L 251.742105 99.689905 
L 251.432274 100.541257 
L 251.320354 100.759614 
L 251.413519 100.763782 
L 251.708453 100.926041 
L 251.651092 101.45095 
L 251.455419 101.758267 
L 251.6097 102.020523 
L 251.573099 102.040506 
L 251.528332 102.216959 
L 251.538499 102.226016 
L 251.623541 102.857235 
L 251.567434 103.096339 
L 251.327128 103.170106 
L 251.061457 103.190549 
L 251.066505 103.074085 
L 250.724899 102.507852 
L 250.721669 102.547004 
L 250.761905 102.843522 
L 250.881142 103.038847 
L 250.859511 103.05999 
L 250.91591 103.200045 
L 250.845075 103.356749 
L 250.541622 103.834539 
L 250.499554 104.206565 
L 250.465307 104.34587 
L 249.728629 105.070506 
L 249.337767 105.148327 
L 249.19664 105.169258 
L 248.995716 105.21915 
L 248.91089 105.238164 
L 248.905173 105.154285 
L 248.738405 104.752186 
L 248.638001 104.567291 
L 248.380561 104.564503 
L 248.178214 104.570652 
L 248.047086 104.532881 
L 248.039342 104.505313 
L 247.9057 104.515403 
L 247.907192 104.556706 
L 247.838737 104.772905 
L 247.889924 104.995267 
L 247.930824 105.087212 
L 247.827902 105.097111 
L 247.818559 105.234831 
L 247.843976 105.243492 
L 247.935593 105.288304 
L 247.941965 105.324526 
L 248.110971 105.352858 
L 248.136939 105.369281 
L 248.075426 105.465946 
L 247.701892 105.603878 
L 247.667964 105.554601 
L 247.603911 105.633172 
L 247.461974 106.032222 
L 247.398555 106.221518 
L 247.080321 106.679262 
L 246.932584 106.924275 
L 246.872011 107.032728 
L 246.637944 107.276127 
L 246.529714 108.08353 
L 246.549854 108.211379 
L 246.284894 108.28337 
L 246.136989 108.244381 
L 246.128616 108.32983 
L 245.898054 108.484568 
L 245.767939 108.430684 
L 245.655773 108.166291 
L 245.669351 107.932968 
L 245.53874 107.960522 
L 245.016137 106.882696 
L 244.884384 106.39945 
L 244.459835 105.997861 
L 243.900929 106.065026 
L 243.735083 106.13057 
L 243.763695 106.340911 
L 243.694887 106.334804 
L 243.32253 106.253317 
L 242.107883 105.869241 
L 241.910964 105.802514 
L 241.886927 105.863884 
L 241.77283 105.999743 
L 241.497733 106.229783 
L 241.435608 106.143031 
L 241.316587 106.209191 
L 240.886575 106.944568 
L 240.576089 106.996655 
L 239.941562 107.130228 
L 239.991119 107.202402 
L 239.916443 107.373789 
L 239.738586 107.550731 
L 239.638837 107.936548 
L 239.585498 108.049028 
L 239.655583 108.208676 
L 239.749485 108.110398 
L 239.744354 108.094859 
L 239.871654 108.177082 
L 239.747437 108.389134 
L 239.648189 108.424578 
L 239.741789 108.492224 
L 239.761847 108.505442 
L 239.54362 108.753794 
L 239.488225 108.703279 
L 239.399298 108.87981 
L 239.532384 108.887126 
L 239.462838 108.956216 
L 239.447097 109.218147 
L 239.386127 109.41251 
L 239.291573 109.610198 
L 239.291483 109.797308 
L 238.956831 110.346184 
L 237.710809 109.797053 
L 236.864143 107.919085 
L 236.840261 108.026767 
L 236.617404 108.209843 
L 236.612346 108.206659 
L 236.545853 108.199505 
L 236.419463 107.971136 
L 236.050413 108.042949 
L 235.884857 108.155422 
L 235.581218 108.193944 
L 235.616189 107.91353 
L 235.596878 107.916997 
L 234.885932 108.585046 
L 234.68728 108.8907 
L 234.590558 108.813784 
L 234.595431 108.801819 
L 234.560252 108.753858 
L 234.541889 108.754671 
L 234.019282 108.714154 
L 234.017713 108.724676 
L 233.924621 108.685546 
L 233.838243 108.706258 
L 233.836484 108.754742 
L 233.594794 109.158242 
L 233.66346 109.890718 
L 233.586171 110.21271 
L 233.648158 110.455854 
L 233.162165 110.535912 
L 233.014463 110.352248 
L 232.810004 110.44858 
L 232.850774 110.569593 
L 232.788722 110.575049 
L 232.680324 110.622231 
L 232.743204 110.809645 
L 232.630577 110.800673 
L 232.582041 110.968685 
L 232.501691 111.353363 
L 232.496047 111.519485 
L 232.467461 111.566144 
L 232.429804 111.514299 
L 232.12056 111.378008 
L 232.04822 111.267354 
L 232.000409 111.293613 
L 231.537086 111.511525 
L 231.303989 111.556139 
L 230.294768 112.323478 
L 230.225519 112.557579 
L 229.940899 112.575368 
L 229.893557 112.550043 
L 229.855146 112.579196 
L 229.872823 112.706054 
L 229.929382 112.93027 
L 229.990417 112.962048 
L 229.917194 113.015713 
L 229.866502 113.27378 
L 229.315831 113.723125 
L 229.361611 113.803331 
L 229.305798 113.84699 
L 229.124789 113.863442 
L 229.146205 113.827036 
L 229.153974 113.722043 
L 228.552017 113.792533 
L 228.37406 113.897845 
L 228.341077 114.082584 
L 228.043034 114.142751 
L 227.746824 113.94282 
L 227.640173 113.789236 
L 227.570933 113.337117 
L 227.437291 113.148217 
L 227.256619 113.163353 
L 226.96766 113.366822 
L 226.712708 113.487481 
L 226.610036 113.410665 
L 226.641955 113.255071 
L 226.866933 113.039601 
L 227.312122 112.884864 
L 227.417635 112.856043 
L 227.352806 112.748651 
L 227.448963 112.571483 
L 227.765174 112.386015 
L 228.210397 112.084947 
L 228.153394 112.061334 
L 228.044349 111.752136 
L 228.05925 111.705718 
L 227.991179 111.664967 
L 227.021874 111.545383 
L 226.317969 111.942656 
L 226.405072 112.001401 
L 226.638544 112.344748 
L 226.567123 112.542564 
L 225.729067 112.422761 
L 225.612512 112.494143 
L 225.587466 112.424806 
L 225.652554 112.328573 
L 226.0733 112.021511 
L 225.955913 111.873291 
L 225.687771 111.840678 
L 225.402004 111.884407 
L 225.230739 111.931752 
L 225.030207 111.990058 
L 224.83068 112.017994 
L 224.789388 112.27275 
L 224.254967 112.503059 
L 224.144996 112.926315 
L 224.141676 112.92306 
L 224.012436 112.911455 
L 223.842154 112.982208 
L 223.465852 112.673667 
L 223.219816 112.437182 
L 223.010269 112.40616 
L 222.785277 112.040375 
L 222.681791 111.711895 
L 222.394527 111.439923 
L 222.092923 111.693703 
L 221.963795 111.721355 
L 221.778897 111.795144 
L 221.673406 111.780475 
L 221.389674 111.859408 
L 221.309034 111.98403 
L 221.284583 111.876241 
L 221.130935 111.824481 
L 221.099413 111.958124 
L 221.065266 112.101392 
L 221.06173 112.100896 
L 220.925717 111.988332 
L 220.865881 111.795604 
L 220.965202 111.728106 
L 220.768883 111.751881 
L 220.683617 111.945954 
L 220.197089 112.272835 
L 219.881576 112.294134 
L 219.53752 112.347557 
L 219.379225 112.307656 
L 219.028486 112.338649 
L 218.797549 112.131627 
L 218.429012 111.786122 
L 218.231813 111.742095 
L 217.914623 111.594703 
L 217.819281 111.524757 
L 217.858232 111.499248 
L 218.367775 110.841409 
L 218.562658 109.791378 
L 218.149428 109.736257 
L 218.001204 109.867799 
L 217.427289 109.946908 
L 217.169284 109.966891 
L 217.040247 109.95564 
L 217.024574 109.896612 
L 216.632134 109.757916 
L 215.70225 109.662051 
L 215.07626 109.50241 
L 214.56535 109.082784 
L 214.578026 109.066863 
L 214.8128 108.868856 
L 214.604922 108.702748 
L 214.625686 108.693358 
L 214.787319 108.461967 
L 214.837264 108.487412 
L 214.898476 108.303388 
L 215.051261 108.204076 
L 215.058384 108.202272 
L 214.980857 108.119554 
L 214.893496 108.030559 
L 214.857335 108.048992 
L 214.733592 108.11511 
L 214.710486 108.080304 
L 214.580979 107.72831 
L 213.823292 107.635989 
L 213.218377 107.696411 
L 212.991997 107.652491 
L 212.991109 107.74007 
L 212.737074 107.905357 
L 212.499114 107.98446 
L 212.352067 108.139126 
L 212.261886 108.162335 
L 212.134199 108.307025 
L 211.937707 108.359946 
L 211.846055 108.255731 
L 211.6731 108.101638 
L 210.596399 107.699142 
L 208.983931 106.985821 
L 208.529775 106.9782 
L 207.546376 107.155814 
L 207.446239 107.60148 
L 206.750198 107.596039 
L 205.834948 107.61416 
L 205.160668 108.000862 
L 205.161086 107.969812 
L 205.06399 107.817424 
L 204.948111 107.758106 
L 204.808515 107.528569 
L 204.668992 107.350538 
L 204.539145 106.439274 
L 204.367246 106.210876 
L 203.065678 105.774876 
L 202.839044 105.388563 
L 203.121142 104.796616 
L 202.873243 104.285646 
L 202.35177 104.255411 
L 201.835963 103.996041 
L 201.528236 103.939922 
L 200.946353 103.465422 
L 200.368567 103.227478 
L 200.099412 103.04477 
L 199.948614 102.938184 
L 199.332726 102.765976 
L 199.24145 102.515983 
L 197.975008 102.522988 
L 197.630081 102.739017 
L 197.338058 102.710218 
L 197.228845 102.748074 
L 197.025554 102.680428 
L 197.078285 102.51478 
L 197.041248 102.395833 
L 196.695028 102.180936 
L 196.48708 101.982525 
L 195.864229 100.603278 
L 195.647205 100.358499 
L 195.404571 100.4861 
L 195.046968 100.695124 
L 194.07712 100.718758 
L 193.942987 100.974059 
L 193.90151 101.124494 
L 193.968037 101.146783 
L 194.013697 101.234383 
L 193.878787 101.415599 
L 193.163927 101.603254 
L 192.685125 100.746779 
L 192.577465 100.304318 
L 192.485887 100.099964 
L 192.023383 100.249621 
L 192.005534 100.172139 
L 191.961987 100.104352 
L 191.954226 100.292218 
L 191.836476 100.732768 
L 191.754254 100.908252 
L 191.750158 101.009297 
L 191.652501 100.999391 
L 190.616643 100.912498 
L 190.616729 100.959977 
L 190.547701 101.368473 
L 189.443633 100.964081 
L 189.37094 99.763078 
L 189.286649 99.555256 
L 189.172176 99.553622 
L 188.706439 99.486549 
L 188.541818 99.445671 
L 188.319901 99.480251 
L 187.8829 99.441935 
L 188.002034 99.569762 
L 188.073882 99.797064 
L 187.9848 100.030514 
L 188.029343 100.160414 
L 188.171927 100.271153 
L 188.36284 100.963848 
L 187.357887 101.524243 
L 186.636313 101.98503 
L 186.546158 102.026566 
L 186.617088 102.102675 
L 186.700259 102.332786 
L 186.825079 103.103854 
L 186.778212 103.470955 
L 186.916441 104.215418 
L 186.632351 104.477158 
L 186.014674 104.530793 
L 185.713768 104.854307 
L 185.198404 104.560088 
L 185.131791 104.601128 
L 184.968554 104.612308 
L 184.793762 104.668138 
L 184.80881 104.698423 
L 184.758278 104.858057 
L 184.612848 105.171522 
L 184.476732 105.433828 
L 184.352213 105.550582 
L 184.230109 105.734628 
L 184.231704 105.737175 
L 184.118353 105.893271 
L 184.011037 106.051843 
L 183.935843 106.332264 
L 183.886691 106.315635 
L 183.600057 106.316909 
L 183.596306 106.295115 
L 183.47791 106.262636 
L 181.765995 106.12324 
L 181.309312 105.937779 
L 181.191089 106.59924 
L 180.885053 106.961459 
L 180.780712 107.072127 
L 180.1335 107.673938 
L 180.137812 107.67783 
L 180.091161 107.869518 
L 179.705317 108.052219 
L 179.356294 107.885651 
L 179.18853 107.876877 
L 179.033529 107.882467 
L 178.12607 107.749226 
L 177.544213 107.741223 
L 177.143581 107.752304 
L 177.491952 108.217931 
L 178.127109 108.419985 
L 178.758743 109.273389 
L 178.558862 109.333238 
L 178.554094 109.510654 
L 178.08536 109.495016 
L 177.937934 109.613135 
L 177.644207 109.644991 
L 177.444835 109.611812 
L 177.133341 109.649194 
L 176.964339 109.603724 
L 176.794661 109.518557 
L 175.931607 109.608875 
L 174.404759 110.274313 
L 174.235357 110.325253 
L 174.243777 110.268086 
L 174.197337 110.156951 
L 174.133263 109.284428 
L 173.645291 109.356942 
L 173.643256 109.237932 
L 173.31949 109.108109 
L 173.371233 108.862056 
L 173.100112 108.67155 
L 172.935664 108.411452 
L 172.717278 108.45257 
L 172.613697 108.586971 
L 171.349928 108.447709 
L 171.162129 108.692481 
L 170.272067 108.73425 
L 169.885115 108.584226 
L 169.599986 108.809383 
L 169.483163 109.137319 
L 169.331279 109.406538 
L 168.900806 109.547611 
L 167.804508 110.612226 
L 167.507272 110.637558 
L 167.225989 110.59668 
L 166.912924 110.736119 
L 166.715833 110.862977 
L 166.573659 110.967694 
L 166.728682 111.082169 
L 166.929615 111.402251 
L 166.918667 111.409249 
L 166.88931 111.524792 
L 166.83836 111.962108 
L 166.93829 112.361851 
L 166.908164 112.364158 
L 166.817975 112.577031 
L 167.272907 112.768655 
L 167.131561 113.367091 
L 167.344393 113.665095 
L 167.204961 114.022623 
L 166.826977 115.031924 
L 166.651069 115.066059 
L 166.60938 114.915001 
L 166.546828 114.973519 
L 166.716157 115.946783 
L 166.40261 116.143792 
L 166.480421 116.427659 
L 165.954015 116.529609 
L 165.877045 116.816179 
L 165.447236 116.822215 
L 164.790862 116.800032 
L 164.49382 117.111332 
L 164.417681 117.018594 
L 164.356112 116.726498 
L 163.657131 116.557361 
L 163.29504 116.645202 
L 163.240089 116.705822 
L 163.026096 116.027251 
L 162.710911 115.798959 
L 162.539982 115.759022 
L 162.01891 115.864362 
L 162.024938 115.89382 
L 161.976001 115.965987 
L 161.597634 115.931676 
L 161.283298 115.787758 
L 160.903085 115.739967 
L 160.942286 115.795987 
L 160.752369 115.980514 
L 160.62892 115.996775 
L 160.037677 115.840799 
L 159.874319 115.757551 
L 159.755031 116.596626 
L 159.925864 117.16576 
L 160.055384 117.420905 
L 160.131574 117.498592 
L 160.005611 117.551591 
L 159.662284 117.857535 
L 159.641929 117.839215 
L 159.504036 117.712945 
L 158.738924 117.729347 
L 158.463733 117.527455 
L 157.064874 117.518596 
L 157.116121 117.440831 
L 157.142793 117.408324 
L 157.042626 117.366385 
L 156.745765 117.244586 
L 155.702797 117.405869 
L 155.331794 117.366342 
L 155.33191 117.330743 
L 155.240005 117.231128 
L 154.304214 117.040409 
M 198.197115 179.720534 
L 198.210239 179.664917 
L 198.303395 179.752029 
L 198.290702 179.783821 
L 198.197115 179.720534 
M 232.86633 166.743154 
L 233.286421 166.428861 
L 233.367793 166.331672 
L 233.409775 166.351839 
L 233.56579 166.435342 
L 233.714626 166.245813 
L 233.920012 166.066458 
L 233.96947 165.799666 
L 234.111214 165.573355 
L 234.365731 165.329199 
L 233.898924 164.723185 
L 233.81675 164.450045 
L 233.915179 164.050218 
L 233.879992 163.359844 
L 234.067585 163.06029 
L 234.324698 162.613478 
L 234.602204 162.46944 
L 236.336194 160.40347 
L 236.218069 160.335746 
L 234.914246 159.732774 
L 234.118194 159.849216 
L 234.576559 157.485398 
L 234.683934 157.092993 
L 234.77224 157.173553 
L 234.998266 157.336342 
L 235.363306 157.257127 
L 235.393328 156.975482 
L 235.466293 156.413926 
L 235.649022 155.960484 
L 235.507801 155.157872 
L 234.734522 155.37937 
L 234.617562 154.878718 
L 234.671202 154.8942 
L 234.91873 154.861707 
L 235.182884 154.730695 
L 235.529341 154.51081 
L 235.968329 154.112829 
L 236.228797 154.128757 
L 236.590832 154.326481 
L 237.043824 154.483334 
L 237.286372 154.654424 
L 237.969694 154.928617 
L 237.983172 154.865733 
L 237.996813 154.80292 
L 238.46384 154.755185 
L 238.461585 154.462297 
L 237.753864 153.592944 
L 237.831408 153.433239 
L 238.017548 153.25733 
L 238.565632 151.988086 
L 238.566089 151.976602 
L 238.672236 151.984958 
L 238.891881 152.031313 
L 239.467572 151.988086 
L 239.620491 152.029367 
L 239.862087 152.044276 
L 240.449941 152.079486 
L 240.457059 151.986586 
L 240.407217 151.293672 
L 240.360092 151.101397 
L 240.382469 151.106576 
L 240.977118 151.13534 
L 241.304337 150.922169 
L 241.350946 150.256639 
L 241.211824 150.247632 
L 241.249033 149.682389 
L 241.330647 149.70458 
L 242.235808 149.769622 
L 242.37302 149.860895 
L 242.095642 150.138082 
L 242.044412 150.261847 
L 242.343688 151.095403 
L 242.296476 151.32349 
L 242.24143 151.337217 
L 242.277371 151.435488 
L 242.410125 151.894917 
L 242.104554 152.056362 
L 242.447494 151.993761 
L 242.739802 152.055683 
L 243.695947 152.332834 
L 243.96637 152.307587 
L 244.687042 152.238809 
L 244.783048 152.192829 
L 244.752958 152.235653 
L 244.794983 152.193473 
L 245.020065 152.082423 
L 245.045684 152.043017 
L 245.123034 152.033896 
L 245.647629 151.401793 
L 245.661745 151.413624 
L 245.885827 151.128943 
L 245.872707 151.116221 
L 245.881252 150.997578 
L 245.879583 151.112308 
L 245.892704 150.999163 
L 245.966596 150.858691 
L 245.878665 150.977645 
L 245.957873 150.847178 
L 246.190707 150.570374 
L 246.27299 150.627908 
L 246.737589 150.932047 
L 246.938897 150.981148 
L 247.05296 151.218504 
L 247.353524 151.470691 
L 247.354503 151.462936 
L 247.607891 151.330828 
L 247.780677 151.29474 
L 247.77277 151.242605 
L 247.803054 150.836041 
L 248.037074 150.663253 
L 248.170772 150.475082 
L 249.091084 150.396071 
L 249.499495 150.021724 
L 249.480287 149.995062 
L 249.330153 149.959053 
L 248.835097 149.776181 
L 248.493106 149.546035 
L 248.588065 149.441389 
L 248.985209 149.154034 
L 249.146061 149.230978 
L 249.559753 148.671722 
L 249.617231 148.733629 
L 249.635327 148.751015 
L 249.730759 148.637439 
L 249.578983 148.986333 
L 249.573171 149.271424 
L 249.595121 149.253253 
L 250.019084 149.028075 
L 250.116124 148.97134 
L 250.096584 149.090131 
L 250.072396 149.899763 
L 250.461849 150.259413 
L 251.329633 150.69559 
L 251.445826 150.658455 
L 251.47104 150.739383 
L 251.581615 150.796422 
L 251.607795 150.793642 
L 251.602974 150.879176 
L 251.437116 151.647421 
L 251.247661 151.953916 
L 250.866952 152.175076 
L 250.739179 152.685175 
L 250.471244 153.624686 
L 250.570923 153.615035 
L 251.043482 154.531245 
L 251.911434 154.566264 
L 252.915964 155.035096 
L 253.426861 155.582889 
L 253.720238 155.866445 
L 253.939754 155.918375 
L 254.076931 156.024451 
L 254.16888 156.136181 
L 254.370183 157.382945 
L 254.383873 157.557063 
L 254.384696 157.557367 
L 256.550103 158.160799 
L 256.494988 158.249722 
L 256.28977 158.367403 
L 256.018377 158.376184 
L 255.99713 158.360454 
L 256.014846 158.488883 
L 256.079554 158.924543 
L 256.171106 158.908863 
L 256.778742 158.929963 
L 257.149806 158.946408 
L 257.403301 159.063911 
L 257.341356 159.327647 
L 256.197088 160.587572 
L 255.961792 161.46686 
L 256.207944 161.549104 
L 256.132388 161.651925 
L 255.533639 162.639093 
L 255.608759 162.815929 
L 255.621746 162.862984 
L 255.576772 162.919287 
L 255.416877 163.133031 
L 255.508623 163.162778 
L 255.62275 163.14397 
L 255.688765 163.102491 
L 255.834216 163.226738 
L 255.908035 163.430073 
L 255.927868 163.265606 
L 256.013647 163.267892 
L 255.997026 163.161965 
L 256.107657 162.92555 
L 256.196032 162.888889 
L 256.553328 162.700088 
L 256.966494 162.555038 
L 257.282611 162.693514 
L 258.331865 163.254929 
L 258.631046 163.512444 
L 259.120579 163.800663 
L 259.312846 164.250128 
L 259.464286 164.19691 
L 259.382969 163.8836 
L 259.198502 163.300859 
L 259.344505 163.376763 
L 259.833642 163.671562 
L 259.956625 163.756523 
L 260.325874 164.347324 
L 260.648859 164.568759 
L 260.811138 164.600509 
L 261.672075 164.864902 
L 261.635923 164.946615 
L 261.583071 165.069822 
L 261.693482 165.091234 
L 261.699251 165.092423 
L 261.675516 165.18758 
L 261.623605 165.413806 
L 261.875354 165.464017 
L 261.837925 165.54261 
L 261.716006 165.556663 
L 261.585831 165.536843 
L 261.594493 165.498371 
L 261.665858 165.188069 
L 261.623087 165.189661 
L 261.286107 165.310674 
L 261.118352 165.574268 
L 260.977578 165.787637 
L 260.395562 165.635015 
L 260.22171 165.504032 
L 260.811052 165.806558 
L 260.956421 165.909754 
L 261.019703 166.131529 
L 261.018043 166.238496 
L 260.870638 166.24519 
L 260.815316 166.3166 
L 260.523504 166.975713 
L 260.665894 167.235139 
L 260.875618 167.657057 
L 260.729011 167.827143 
L 260.533679 168.156783 
L 260.314586 168.184953 
L 260.20994 168.254623 
L 260.201657 168.250483 
L 259.882044 168.189411 
L 259.643134 168.421502 
L 259.482205 168.536126 
L 259.221306 168.771975 
L 258.642429 169.274248 
L 259.195657 168.704817 
L 258.717351 169.338413 
L 258.866446 169.368316 
L 259.075695 169.466156 
L 259.188137 169.441255 
L 259.156671 169.553884 
L 259.118152 169.728582 
L 259.213451 169.723325 
L 259.265146 169.746095 
L 259.244382 169.83095 
L 259.04335 170.176045 
L 258.794386 170.41004 
L 258.153823 170.430447 
L 257.847545 170.714788 
L 257.773416 171.061673 
L 257.67174 171.144603 
L 257.373831 171.674225 
L 257.293127 171.897953 
L 257.132327 172.193799 
L 257.087111 172.468764 
L 256.888856 172.464002 
L 256.68835 172.24469 
L 256.492716 171.895392 
L 256.812989 170.660791 
L 256.9648 170.394799 
L 256.804465 170.222456 
L 256.755787 170.150649 
L 256.766829 169.724054 
L 256.759327 169.72583 
L 256.324232 169.750447 
L 256.156102 169.4517 
L 256.082279 169.493795 
L 255.177644 169.998912 
L 255.218457 169.872401 
L 255.136046 169.480647 
L 254.66159 168.78065 
L 254.611787 168.570183 
L 254.593575 168.576785 
L 253.267526 168.970399 
L 252.145346 168.91135 
L 252.152292 168.484266 
L 252.272184 168.087524 
L 252.127586 168.184182 
L 251.810047 168.25412 
L 251.354243 168.022736 
L 251.145657 168.067414 
L 249.742534 168.419245 
L 249.523407 167.573059 
L 249.043571 166.640751 
L 248.439656 166.878751 
L 247.50891 167.290763 
L 247.097593 167.512064 
L 247.173041 167.911552 
L 247.433741 169.265701 
L 247.086646 169.814449 
L 245.797116 169.638831 
L 245.616698 168.953566 
L 245.025316 168.951216 
L 245.018271 168.524868 
L 244.091595 167.835492 
L 243.854113 167.473245 
L 243.860818 167.303011 
L 243.811601 167.330289 
L 242.512154 168.195588 
L 242.462679 168.10975 
L 241.85196 166.982399 
L 241.690052 167.111083 
L 240.738041 167.834006 
L 240.368387 167.744361 
L 240.07582 167.686578 
L 239.822549 167.752965 
L 239.808407 167.63837 
L 239.619556 166.638691 
L 238.29577 166.854756 
L 237.694515 167.034358 
L 237.230722 167.215722 
L 235.925679 168.034299 
L 235.860747 168.390163 
L 236.028407 168.367746 
L 236.443535 168.303751 
L 236.45296 168.371709 
L 236.462954 168.440629 
L 236.142388 168.541928 
L 235.56965 168.485427 
L 235.232329 168.335933 
L 235.231566 168.327166 
L 235.134991 168.36861 
L 234.678429 168.814028 
L 234.732039 168.869984 
L 234.799463 169.030665 
L 234.724593 169.019054 
L 234.708993 169.034444 
L 234.631165 168.96822 
L 234.521405 168.869404 
L 234.635731 168.717915 
L 234.829506 168.606306 
L 235.048216 168.415927 
L 234.903239 168.385415 
L 234.883371 168.318087 
L 234.993118 168.298628 
L 235.011671 168.284038 
L 234.871687 168.227925 
L 234.813631 168.177169 
L 234.771106 168.226935 
L 234.437312 168.353863 
L 233.667776 167.461145 
L 233.735593 167.478311 
L 233.877504 167.390789 
L 233.87102 167.356025 
L 233.728832 167.19758 
L 233.675235 167.199653 
L 233.686208 167.297535 
L 233.623854 167.45668 
L 233.558499 167.439387 
L 233.410918 167.270059 
L 233.382306 167.156949 
L 233.284808 167.183796 
L 233.215797 167.206177 
L 233.26488 167.300606 
L 233.25639 167.465886 
L 232.945788 167.23153 
L 232.86633 166.743154 
M 250.763423 152.636499 
L 250.850219 152.573028 
L 250.763423 152.636499 
" style="fill:none;stroke:#ffc0cb;"/>
    <path clip-path="url(#pdc8cfd4071)" d="M 195.34533 135.493165 
L 195.352276 135.496222 
L 195.366513 135.502484 
L 195.37395 135.503659 
L 195.382297 135.502541 
L 195.391748 135.498111 
L 195.417747 135.471584 
L 195.420278 135.47382 
L 195.469671 135.428406 
L 195.520729 135.383764 
L 195.482184 135.355651 
L 195.459099 135.383629 
L 195.451093 135.374197 
L 195.422718 135.410419 
L 195.392498 135.449216 
L 195.380564 135.439975 
L 195.376929 135.439529 
L 195.372005 135.445303 
L 195.373743 135.448282 
L 195.361886 135.46656 
L 195.34533 135.493165 
" style="fill:none;stroke:#ffc0cb;"/>
    <path clip-path="url(#pdc8cfd4071)" d="M 197.153272 180.169376 
L 197.168039 180.174499 
L 197.194064 180.183337 
L 197.226547 180.121239 
L 197.205571 180.11267 
L 197.186652 180.105367 
L 197.153272 180.169376 
" style="fill:none;stroke:#ffc0cb;"/>
    <path clip-path="url(#pdc8cfd4071)" d="M 197.263597 179.947085 
L 197.265265 179.958562 
L 197.273341 179.964244 
L 197.283896 179.96273 
L 197.288095 179.969601 
L 197.295985 179.986597 
L 197.301288 180.007676 
L 197.304302 180.014576 
L 197.309472 180.019798 
L 197.317927 180.020342 
L 197.338631 180.02889 
L 197.355955 180.028147 
L 197.362457 180.105445 
L 197.368653 180.140535 
L 197.380807 180.189982 
L 197.421004 180.184788 
L 197.489955 180.191128 
L 197.513944 180.189706 
L 197.538378 180.178045 
L 197.561764 180.172157 
L 197.585042 180.179467 
L 197.608592 180.18113 
L 197.611451 180.205952 
L 197.61371 180.226501 
L 197.439837 180.522283 
L 197.616276 180.227279 
L 197.614309 180.206914 
L 197.670455 180.225765 
L 197.706176 180.236895 
L 197.729752 180.198147 
L 197.759813 180.214592 
L 197.760972 180.209851 
L 197.773916 180.194744 
L 197.788515 180.166829 
L 197.7882 180.136155 
L 197.796573 180.122173 
L 197.779973 180.109648 
L 197.758532 180.097591 
L 197.733495 180.092652 
L 197.667829 180.072351 
L 197.637333 180.080672 
L 197.608998 180.089821 
L 197.603043 180.084238 
L 197.572655 180.078104 
L 197.543035 180.072726 
L 197.511241 180.080248 
L 197.475007 180.073823 
L 197.45757 180.068339 
L 197.437422 180.068551 
L 197.423975 180.064617 
L 197.415675 180.064143 
L 197.41054 180.060258 
L 197.401494 180.051378 
L 197.394936 180.0437 
L 197.386606 180.038853 
L 197.382484 180.035789 
L 197.375581 180.035167 
L 197.367221 180.028105 
L 197.361918 180.024814 
L 197.355869 180.026166 
L 197.347164 180.025239 
L 197.339381 180.026888 
L 197.318599 180.017498 
L 197.309498 180.015955 
L 197.306997 180.012764 
L 197.305324 180.010514 
L 197.297869 179.985649 
L 197.290113 179.967464 
L 197.284568 179.960268 
L 197.273397 179.961209 
L 197.266774 179.956312 
L 197.265696 179.947333 
L 197.270193 179.940129 
L 197.26777 179.938212 
L 197.263597 179.947085 
" style="fill:none;stroke:#ffc0cb;"/>
    <path clip-path="url(#pdc8cfd4071)" d="M 197.860316 180.297982 
L 197.861868 180.299114 
L 197.86179 180.316443 
L 197.900538 180.325048 
L 197.945564 180.307896 
L 197.991289 180.317682 
L 198.049607 180.33097 
L 198.094831 180.326689 
L 198.111439 180.299758 
L 198.078723 180.270251 
L 198.086031 180.231914 
L 198.054436 180.216863 
L 198.015899 180.22101 
L 197.968808 180.202188 
L 197.984963 180.198232 
L 197.994453 180.201155 
L 198.002016 180.200249 
L 198.012489 180.19209 
L 198.026467 180.175377 
L 198.030994 180.171039 
L 198.036422 180.164034 
L 198.038733 180.155097 
L 198.05194 180.144059 
L 198.067198 180.141433 
L 198.078141 180.133013 
L 198.084039 180.130353 
L 198.097457 180.129235 
L 198.097543 180.12743 
L 198.083867 180.128463 
L 198.076261 180.131471 
L 198.066172 180.138688 
L 198.051426 180.141561 
L 198.039673 180.15037 
L 198.036595 180.154842 
L 198.034288 180.162619 
L 198.030567 180.16966 
L 198.024712 180.174216 
L 198.010695 180.191057 
L 198.001421 180.19819 
L 197.995479 180.198876 
L 197.986671 180.19531 
L 197.969489 180.198919 
L 197.964695 180.20153 
L 197.945469 180.213014 
L 197.927749 180.224088 
L 197.886728 180.231765 
L 197.877816 180.244226 
L 197.873065 180.254515 
L 197.860316 180.297982 
" style="fill:none;stroke:#ffc0cb;"/>
    <path clip-path="url(#pdc8cfd4071)" d="M 198.129539 180.353118 
L 198.154361 180.363032 
L 198.162433 180.363138 
L 198.177829 180.371487 
L 198.200896 180.362883 
L 198.226942 180.370978 
L 198.257007 180.371353 
L 198.28004 180.349014 
L 198.282704 180.341386 
L 198.284688 180.328437 
L 198.28574 180.321864 
L 198.270054 180.308433 
L 198.239545 180.303148 
L 198.211309 180.301081 
L 198.192553 180.293248 
L 198.167391 180.292619 
L 198.151649 180.29017 
L 198.13173 180.316748 
L 198.129539 180.353118 
" style="fill:none;stroke:#ffc0cb;"/>
    <path clip-path="url(#pdc8cfd4071)" d="M 198.282376 180.429701 
L 198.282519 180.4313 
L 198.290413 180.43319 
L 198.296312 180.437322 
L 198.290788 180.437754 
L 198.283821 180.437492 
L 198.284054 180.439119 
L 198.291164 180.439353 
L 198.297523 180.438829 
L 198.295065 180.441971 
L 198.289344 180.444964 
L 198.290534 180.446068 
L 198.297148 180.443507 
L 198.299403 180.438858 
L 198.307642 180.439792 
L 198.31652 180.444908 
L 198.319585 180.469723 
L 198.321168 180.475518 
L 198.32745 180.482453 
L 198.335659 180.487512 
L 198.34364 180.490477 
L 198.353712 180.490746 
L 198.360929 180.494722 
L 198.368677 180.496583 
L 198.378214 180.493619 
L 198.388372 180.496138 
L 198.396198 180.501232 
L 198.403532 180.509964 
L 198.410538 180.515879 
L 198.417756 180.52522 
L 198.42274 180.534659 
L 198.424762 180.541629 
L 198.43251 180.546688 
L 198.433321 180.545061 
L 198.451796 180.544169 
L 198.462812 180.531751 
L 198.46561 180.509469 
L 198.456319 180.492798 
L 198.439391 180.482049 
L 198.411763 180.464642 
L 198.395099 180.465859 
L 198.377697 180.454552 
L 198.364823 180.446825 
L 198.350055 180.440195 
L 198.317934 180.435376 
L 198.318542 180.44386 
L 198.317244 180.442431 
L 198.308397 180.438072 
L 198.299756 180.437053 
L 198.290413 180.431767 
L 198.282376 180.429701 
" style="fill:none;stroke:#ffc0cb;"/>
   </g>
   <g id="matplotlib.axis_1">
    <g id="xtick_1">
     <g id="line2d_1">
      <defs>
       <path d="M 0 0 
L 0 3.5 
" id="m331bdcf264" style="stroke:#000000;stroke-width:0.8;"/>
      </defs>
      <g>
       <use style="stroke:#000000;stroke-width:0.8;" x="142.825578" xlink:href="#m331bdcf264" y="252"/>
      </g>
     </g>
     <g id="text_1">
      <!-- 11 -->
      <defs>
       <path d="M 12.40625 8.296875 
L 28.515625 8.296875 
L 28.515625 63.921875 
L 10.984375 60.40625 
L 10.984375 69.390625 
L 28.421875 72.90625 
L 38.28125 72.90625 
L 38.28125 8.296875 
L 54.390625 8.296875 
L 54.390625 0 
L 12.40625 0 
z
" id="DejaVuSans-49"/>
      </defs>
      <g transform="translate(136.463078 266.598437)scale(0.1 -0.1)">
       <use xlink:href="#DejaVuSans-49"/>
       <use x="63.623047" xlink:href="#DejaVuSans-49"/>
      </g>
     </g>
    </g>
    <g id="xtick_2">
     <g id="line2d_2">
      <g>
       <use style="stroke:#000000;stroke-width:0.8;" x="185.94142" xlink:href="#m331bdcf264" y="252"/>
      </g>
     </g>
     <g id="text_2">
      <!-- 12 -->
      <defs>
       <path d="M 19.1875 8.296875 
L 53.609375 8.296875 
L 53.609375 0 
L 7.328125 0 
L 7.328125 8.296875 
Q 12.9375 14.109375 22.625 23.890625 
Q 32.328125 33.6875 34.8125 36.53125 
Q 39.546875 41.84375 41.421875 45.53125 
Q 43.3125 49.21875 43.3125 52.78125 
Q 43.3125 58.59375 39.234375 62.25 
Q 35.15625 65.921875 28.609375 65.921875 
Q 23.96875 65.921875 18.8125 64.3125 
Q 13.671875 62.703125 7.8125 59.421875 
L 7.8125 69.390625 
Q 13.765625 71.78125 18.9375 73 
Q 24.125 74.21875 28.421875 74.21875 
Q 39.75 74.21875 46.484375 68.546875 
Q 53.21875 62.890625 53.21875 53.421875 
Q 53.21875 48.921875 51.53125 44.890625 
Q 49.859375 40.875 45.40625 35.40625 
Q 44.1875 33.984375 37.640625 27.21875 
Q 31.109375 20.453125 19.1875 8.296875 
z
" id="DejaVuSans-50"/>
      </defs>
      <g transform="translate(179.57892 266.598437)scale(0.1 -0.1)">
       <use xlink:href="#DejaVuSans-49"/>
       <use x="63.623047" xlink:href="#DejaVuSans-50"/>
      </g>
     </g>
    </g>
    <g id="xtick_3">
     <g id="line2d_3">
      <g>
       <use style="stroke:#000000;stroke-width:0.8;" x="229.057261" xlink:href="#m331bdcf264" y="252"/>
      </g>
     </g>
     <g id="text_3">
      <!-- 13 -->
      <defs>
       <path d="M 40.578125 39.3125 
Q 47.65625 37.796875 51.625 33 
Q 55.609375 28.21875 55.609375 21.1875 
Q 55.609375 10.40625 48.1875 4.484375 
Q 40.765625 -1.421875 27.09375 -1.421875 
Q 22.515625 -1.421875 17.65625 -0.515625 
Q 12.796875 0.390625 7.625 2.203125 
L 7.625 11.71875 
Q 11.71875 9.328125 16.59375 8.109375 
Q 21.484375 6.890625 26.8125 6.890625 
Q 36.078125 6.890625 40.9375 10.546875 
Q 45.796875 14.203125 45.796875 21.1875 
Q 45.796875 27.640625 41.28125 31.265625 
Q 36.765625 34.90625 28.71875 34.90625 
L 20.21875 34.90625 
L 20.21875 43.015625 
L 29.109375 43.015625 
Q 36.375 43.015625 40.234375 45.921875 
Q 44.09375 48.828125 44.09375 54.296875 
Q 44.09375 59.90625 40.109375 62.90625 
Q 36.140625 65.921875 28.71875 65.921875 
Q 24.65625 65.921875 20.015625 65.03125 
Q 15.375 64.15625 9.8125 62.3125 
L 9.8125 71.09375 
Q 15.4375 72.65625 20.34375 73.4375 
Q 25.25 74.21875 29.59375 74.21875 
Q 40.828125 74.21875 47.359375 69.109375 
Q 53.90625 64.015625 53.90625 55.328125 
Q 53.90625 49.265625 50.4375 45.09375 
Q 46.96875 40.921875 40.578125 39.3125 
z
" id="DejaVuSans-51"/>
      </defs>
      <g transform="translate(222.694761 266.598437)scale(0.1 -0.1)">
       <use xlink:href="#DejaVuSans-49"/>
       <use x="63.623047" xlink:href="#DejaVuSans-51"/>
      </g>
     </g>
    </g>
    <g id="xtick_4">
     <g id="line2d_4">
      <g>
       <use style="stroke:#000000;stroke-width:0.8;" x="272.173102" xlink:href="#m331bdcf264" y="252"/>
      </g>
     </g>
     <g id="text_4">
      <!-- 14 -->
      <defs>
       <path d="M 37.796875 64.3125 
L 12.890625 25.390625 
L 37.796875 25.390625 
z
M 35.203125 72.90625 
L 47.609375 72.90625 
L 47.609375 25.390625 
L 58.015625 25.390625 
L 58.015625 17.1875 
L 47.609375 17.1875 
L 47.609375 0 
L 37.796875 0 
L 37.796875 17.1875 
L 4.890625 17.1875 
L 4.890625 26.703125 
z
" id="DejaVuSans-52"/>
      </defs>
      <g transform="translate(265.810602 266.598437)scale(0.1 -0.1)">
       <use xlink:href="#DejaVuSans-49"/>
       <use x="63.623047" xlink:href="#DejaVuSans-52"/>
      </g>
     </g>
    </g>
    <g id="xtick_5">
     <g id="line2d_5">
      <g>
       <use style="stroke:#000000;stroke-width:0.8;" x="315.288944" xlink:href="#m331bdcf264" y="252"/>
      </g>
     </g>
     <g id="text_5">
      <!-- 15 -->
      <defs>
       <path d="M 10.796875 72.90625 
L 49.515625 72.90625 
L 49.515625 64.59375 
L 19.828125 64.59375 
L 19.828125 46.734375 
Q 21.96875 47.46875 24.109375 47.828125 
Q 26.265625 48.1875 28.421875 48.1875 
Q 40.625 48.1875 47.75 41.5 
Q 54.890625 34.8125 54.890625 23.390625 
Q 54.890625 11.625 47.5625 5.09375 
Q 40.234375 -1.421875 26.90625 -1.421875 
Q 22.3125 -1.421875 17.546875 -0.640625 
Q 12.796875 0.140625 7.71875 1.703125 
L 7.71875 11.625 
Q 12.109375 9.234375 16.796875 8.0625 
Q 21.484375 6.890625 26.703125 6.890625 
Q 35.15625 6.890625 40.078125 11.328125 
Q 45.015625 15.765625 45.015625 23.390625 
Q 45.015625 31 40.078125 35.4375 
Q 35.15625 39.890625 26.703125 39.890625 
Q 22.75 39.890625 18.8125 39.015625 
Q 14.890625 38.140625 10.796875 36.28125 
z
" id="DejaVuSans-53"/>
      </defs>
      <g transform="translate(308.926444 266.598437)scale(0.1 -0.1)">
       <use xlink:href="#DejaVuSans-49"/>
       <use x="63.623047" xlink:href="#DejaVuSans-53"/>
      </g>
     </g>
    </g>
   </g>
   <g id="matplotlib.axis_2">
    <g id="ytick_1">
     <g id="line2d_6">
      <defs>
       <path d="M 0 0 
L -3.5 0 
" id="mbdda0e85ea" style="stroke:#000000;stroke-width:0.8;"/>
      </defs>
      <g>
       <use style="stroke:#000000;stroke-width:0.8;" x="111.035289" xlink:href="#mbdda0e85ea" y="231.816045"/>
      </g>
     </g>
     <g id="text_6">
      <!-- 51.5 -->
      <defs>
       <path d="M 10.6875 12.40625 
L 21 12.40625 
L 21 0 
L 10.6875 0 
z
" id="DejaVuSans-46"/>
      </defs>
      <g transform="translate(81.769664 235.615264)scale(0.1 -0.1)">
       <use xlink:href="#DejaVuSans-53"/>
       <use x="63.623047" xlink:href="#DejaVuSans-49"/>
       <use x="127.246094" xlink:href="#DejaVuSans-46"/>
       <use x="159.033203" xlink:href="#DejaVuSans-53"/>
      </g>
     </g>
    </g>
    <g id="ytick_2">
     <g id="line2d_7">
      <g>
       <use style="stroke:#000000;stroke-width:0.8;" x="111.035289" xlink:href="#mbdda0e85ea" y="196.436211"/>
      </g>
     </g>
     <g id="text_7">
      <!-- 52.0 -->
      <defs>
       <path d="M 31.78125 66.40625 
Q 24.171875 66.40625 20.328125 58.90625 
Q 16.5 51.421875 16.5 36.375 
Q 16.5 21.390625 20.328125 13.890625 
Q 24.171875 6.390625 31.78125 6.390625 
Q 39.453125 6.390625 43.28125 13.890625 
Q 47.125 21.390625 47.125 36.375 
Q 47.125 51.421875 43.28125 58.90625 
Q 39.453125 66.40625 31.78125 66.40625 
z
M 31.78125 74.21875 
Q 44.046875 74.21875 50.515625 64.515625 
Q 56.984375 54.828125 56.984375 36.375 
Q 56.984375 17.96875 50.515625 8.265625 
Q 44.046875 -1.421875 31.78125 -1.421875 
Q 19.53125 -1.421875 13.0625 8.265625 
Q 6.59375 17.96875 6.59375 36.375 
Q 6.59375 54.828125 13.0625 64.515625 
Q 19.53125 74.21875 31.78125 74.21875 
z
" id="DejaVuSans-48"/>
      </defs>
      <g transform="translate(81.769664 200.235429)scale(0.1 -0.1)">
       <use xlink:href="#DejaVuSans-53"/>
       <use x="63.623047" xlink:href="#DejaVuSans-50"/>
       <use x="127.246094" xlink:href="#DejaVuSans-46"/>
       <use x="159.033203" xlink:href="#DejaVuSans-48"/>
      </g>
     </g>
    </g>
    <g id="ytick_3">
     <g id="line2d_8">
      <g>
       <use style="stroke:#000000;stroke-width:0.8;" x="111.035289" xlink:href="#mbdda0e85ea" y="161.056376"/>
      </g>
     </g>
     <g id="text_8">
      <!-- 52.5 -->
      <g transform="translate(81.769664 164.855595)scale(0.1 -0.1)">
       <use xlink:href="#DejaVuSans-53"/>
       <use x="63.623047" xlink:href="#DejaVuSans-50"/>
       <use x="127.246094" xlink:href="#DejaVuSans-46"/>
       <use x="159.033203" xlink:href="#DejaVuSans-53"/>
      </g>
     </g>
    </g>
    <g id="ytick_4">
     <g id="line2d_9">
      <g>
       <use style="stroke:#000000;stroke-width:0.8;" x="111.035289" xlink:href="#mbdda0e85ea" y="125.676542"/>
      </g>
     </g>
     <g id="text_9">
      <!-- 53.0 -->
      <g transform="translate(81.769664 129.475761)scale(0.1 -0.1)">
       <use xlink:href="#DejaVuSans-53"/>
       <use x="63.623047" xlink:href="#DejaVuSans-51"/>
       <use x="127.246094" xlink:href="#DejaVuSans-46"/>
       <use x="159.033203" xlink:href="#DejaVuSans-48"/>
      </g>
     </g>
    </g>
    <g id="ytick_5">
     <g id="line2d_10">
      <g>
       <use style="stroke:#000000;stroke-width:0.8;" x="111.035289" xlink:href="#mbdda0e85ea" y="90.296708"/>
      </g>
     </g>
     <g id="text_10">
      <!-- 53.5 -->
      <g transform="translate(81.769664 94.095926)scale(0.1 -0.1)">
       <use xlink:href="#DejaVuSans-53"/>
       <use x="63.623047" xlink:href="#DejaVuSans-51"/>
       <use x="127.246094" xlink:href="#DejaVuSans-46"/>
       <use x="159.033203" xlink:href="#DejaVuSans-53"/>
      </g>
     </g>
    </g>
    <g id="ytick_6">
     <g id="line2d_11">
      <g>
       <use style="stroke:#000000;stroke-width:0.8;" x="111.035289" xlink:href="#mbdda0e85ea" y="54.916873"/>
      </g>
     </g>
     <g id="text_11">
      <!-- 54.0 -->
      <g transform="translate(81.769664 58.716092)scale(0.1 -0.1)">
       <use xlink:href="#DejaVuSans-53"/>
       <use x="63.623047" xlink:href="#DejaVuSans-52"/>
       <use x="127.246094" xlink:href="#DejaVuSans-46"/>
       <use x="159.033203" xlink:href="#DejaVuSans-48"/>
      </g>
     </g>
    </g>
   </g>
   <g id="patch_3">
    <path d="M 111.035289 252 
L 111.035289 34.56 
" style="fill:none;stroke:#000000;stroke-linecap:square;stroke-linejoin:miter;stroke-width:0.8;"/>
   </g>
   <g id="patch_4">
    <path d="M 331.764711 252 
L 331.764711 34.56 
" style="fill:none;stroke:#000000;stroke-linecap:square;stroke-linejoin:miter;stroke-width:0.8;"/>
   </g>
   <g id="patch_5">
    <path d="M 111.035289 252 
L 331.764711 252 
" style="fill:none;stroke:#000000;stroke-linecap:square;stroke-linejoin:miter;stroke-width:0.8;"/>
   </g>
   <g id="patch_6">
    <path d="M 111.035289 34.56 
L 331.764711 34.56 
" style="fill:none;stroke:#000000;stroke-linecap:square;stroke-linejoin:miter;stroke-width:0.8;"/>
   </g>
  </g>
 </g>
 <defs>
  <clipPath id="pdc8cfd4071">
   <rect height="217.44" width="220.729422" x="111.035289" y="34.56"/>
  </clipPath>
 </defs>
</svg>
