<?xml version="1.0" encoding="utf-8" standalone="no"?>
<!DOCTYPE svg PUBLIC "-//W3C//DTD SVG 1.1//EN"
  "http://www.w3.org/Graphics/SVG/1.1/DTD/svg11.dtd">
<!-- Created with matplotlib (https://matplotlib.org/) -->
<svg height="288pt" version="1.1" viewBox="0 0 432 288" width="432pt" xmlns="http://www.w3.org/2000/svg" xmlns:xlink="http://www.w3.org/1999/xlink">
 <defs>
  <style type="text/css">
*{stroke-linecap:butt;stroke-linejoin:round;}
  </style>
 </defs>
 <g id="figure_1">
  <g id="patch_1">
   <path d="M 0 288 
L 432 288 
L 432 0 
L 0 0 
z
" style="fill:#ffffff;"/>
  </g>
  <g id="axes_1">
   <g id="patch_2">
    <path d="M 116.02211 252 
L 326.77789 252 
L 326.77789 34.56 
L 116.02211 34.56 
z
" style="fill:#ffffff;"/>
   </g>
   <g id="PatchCollection_1">
    <path clip-path="url(#p7cbdfedb59)" d="M 162.66768 143.749006 
L 165.995626 133.669851 
L 170.291515 120.746906 
L 174.600399 107.829915 
L 178.932209 94.922873 
L 183.280547 82.0234 
L 185.098268 76.662726 
L 165.481229 75.630428 
L 162.66768 143.749006 
" style="fill:none;stroke:#0000ff;stroke-opacity:0.2;"/>
    <path clip-path="url(#p7cbdfedb59)" d="M 168.163529 127.148339 
L 170.291515 120.746906 
L 174.600399 107.829915 
L 178.932209 94.922873 
L 183.280547 82.0234 
L 185.646957 75.044578 
L 166.035281 75.63178 
L 168.163529 127.148339 
" style="fill:none;stroke:#0000ff;stroke-opacity:0.2;"/>
   </g>
   <g id="PatchCollection_2">
    <path clip-path="url(#p7cbdfedb59)" d="M 125.601918 83.711916 
L 125.772902 84.205589 
L 125.700498 85.036146 
L 125.74065 85.533628 
L 126.003639 85.991477 
L 127.005575 87.058852 
L 128.282106 88.032109 
L 129.103696 89.321081 
L 129.553151 89.712316 
L 129.861482 89.791609 
L 130.449308 89.727779 
L 133.581995 88.056944 
L 134.552116 87.904702 
L 135.252236 87.642609 
L 135.793735 87.670085 
L 136.264065 87.86966 
L 136.819097 88.382776 
L 137.808693 89.482605 
L 138.108916 89.842724 
L 138.455932 90.147784 
L 139.203704 90.464281 
L 139.926107 90.437514 
L 141.152428 90.005407 
L 141.304004 90.142518 
L 141.880514 90.91532 
L 142.544265 91.288827 
L 143.295366 91.518187 
L 143.753959 91.460539 
L 144.976979 90.948474 
L 145.612381 90.972527 
L 146.117538 91.3343 
L 146.154969 91.706333 
L 145.872299 92.110902 
L 145.329497 92.828463 
L 145.247528 93.138302 
L 145.35564 93.603124 
L 145.683521 93.969856 
L 146.199523 94.194437 
L 146.798709 94.154166 
L 147.767813 93.819151 
L 148.113909 93.991384 
L 148.450747 94.531141 
L 148.480421 94.995693 
L 148.489963 95.887977 
L 148.735 96.405289 
L 149.161237 96.639978 
L 149.509578 96.700959 
L 150.175015 96.339052 
L 150.41658 96.104148 
L 151.272661 95.702571 
L 152.007886 95.869756 
L 152.563953 96.135299 
L 153.048414 96.625503 
L 153.380664 97.279244 
L 153.891471 97.969086 
L 154.310743 98.295171 
L 155.447179 98.469776 
L 156.583932 98.537802 
L 156.96417 98.711303 
L 157.469331 99.237321 
L 157.491417 99.7845 
L 157.220495 100.274524 
L 156.370562 101.122144 
L 156.189647 101.459711 
L 156.112195 101.899114 
L 156.313646 102.412545 
L 156.713248 102.751513 
L 157.271877 102.851076 
L 158.826211 102.887852 
L 159.075775 103.099045 
L 159.808005 104.054089 
L 160.355673 104.311294 
L 161.249859 104.406248 
L 162.099464 104.502801 
L 162.935463 104.79166 
L 163.470364 105.396567 
L 163.560956 105.545089 
L 163.638058 105.377222 
L 163.634899 105.322414 
L 163.749728 105.409757 
L 164.204204 105.566923 
L 164.869274 105.806436 
L 165.082693 105.655551 
L 165.249029 105.344732 
L 165.655918 105.28854 
L 166.049596 105.285045 
L 166.157888 105.094077 
L 166.100315 104.814742 
L 166.440766 104.775226 
L 166.942857 104.544868 
L 167.065843 104.543053 
L 167.347714 104.735 
L 168.14314 104.657505 
L 168.323749 104.6749 
L 168.586157 104.787104 
L 168.834566 104.647073 
L 168.898222 104.704236 
L 169.415636 104.854025 
L 169.412214 105.117546 
L 169.643602 105.080232 
L 170.01284 104.926408 
L 170.244951 105.278962 
L 170.331338 105.749193 
L 170.897418 105.696469 
L 171.531911 105.730064 
L 171.950198 105.835521 
L 172.260172 104.76368 
L 172.642594 104.172386 
L 172.641701 104.177004 
L 172.822261 104.240573 
L 172.614836 104.499332 
L 172.477216 104.766924 
L 172.365217 105.850292 
L 173.07165 106.740051 
L 172.560641 107.811802 
L 172.724918 107.842315 
L 173.046701 107.635336 
L 174.282286 107.199105 
L 175.06703 106.904001 
L 175.471674 106.624387 
L 176.562987 105.648965 
L 176.568921 105.675138 
L 176.84091 106.453861 
L 177.057713 106.616912 
L 177.190461 106.724274 
L 177.188348 106.809299 
L 177.219834 106.832058 
L 177.39822 107.11647 
L 177.567934 106.999745 
L 177.697161 106.722153 
L 178.153696 106.928683 
L 178.597895 107.387395 
L 178.493895 107.716695 
L 178.442087 107.915309 
L 178.641683 108.432792 
L 178.804975 108.726225 
L 178.836575 109.401565 
L 179.302439 111.133984 
L 179.549074 111.667074 
L 179.894015 112.20648 
L 179.596804 112.319045 
L 179.781398 112.779608 
L 179.345367 113.033937 
L 179.332249 113.557108 
L 179.045911 113.876947 
L 178.965338 113.810521 
L 178.743191 113.729836 
L 178.635617 113.746871 
L 178.257016 113.564458 
L 177.881071 113.563101 
L 177.821494 113.567773 
L 177.870987 113.624442 
L 178.011602 113.820719 
L 177.895788 114.981997 
L 177.821451 115.003192 
L 177.566527 114.94319 
L 177.417524 115.053598 
L 177.42538 115.771564 
L 177.554717 115.90916 
L 177.392986 115.88446 
L 177.148436 115.947158 
L 177.044431 116.197992 
L 177.291702 116.908887 
L 177.743303 117.017588 
L 177.805163 117.334273 
L 177.861138 117.566293 
L 177.834618 117.676656 
L 177.697495 117.719156 
L 177.8938 118.111926 
L 177.759032 118.311466 
L 177.788262 118.371746 
L 177.675059 118.385134 
L 177.38883 118.490699 
L 177.265499 118.49618 
L 177.087611 118.884153 
L 176.928732 118.921377 
L 176.786918 119.094546 
L 176.880077 119.095696 
L 177.015398 119.198826 
L 177.060473 119.25119 
L 176.910961 119.429875 
L 177.062695 119.39319 
L 176.957978 119.528109 
L 176.63059 120.067048 
L 176.729777 120.044271 
L 177.053344 119.887446 
L 177.258404 120.053651 
L 177.273514 120.246991 
L 177.009053 120.541079 
L 177.364659 120.821052 
L 177.643563 120.874154 
L 177.924219 121.212853 
L 178.028607 121.428736 
L 177.988433 121.445538 
L 177.676198 121.657018 
L 177.683096 121.846943 
L 178.003061 122.690447 
L 178.281795 122.642467 
L 178.487397 122.582457 
L 178.478533 122.796363 
L 178.271076 123.278894 
L 178.656229 123.579227 
L 178.655627 123.808857 
L 178.861951 124.337383 
L 178.812251 124.658202 
L 178.797912 124.807245 
L 178.744155 124.73151 
L 178.667245 124.728824 
L 178.713912 124.915901 
L 178.797146 125.014763 
L 178.607465 125.351117 
L 178.648066 125.720886 
L 178.513933 125.797205 
L 178.708465 126.346899 
L 178.78001 126.625192 
L 178.730473 126.906513 
L 178.430519 127.030273 
L 178.425707 127.942045 
L 178.74289 127.941919 
L 178.738855 128.040188 
L 177.438711 128.368078 
L 177.120017 128.53644 
L 176.724198 128.938483 
L 176.625498 128.939831 
L 175.469665 128.478783 
L 174.91425 128.150443 
L 174.957703 129.174987 
L 175.373122 129.040472 
L 175.27152 129.145938 
L 175.091316 129.804198 
L 175.176045 130.004025 
L 175.391446 130.01 
L 175.269336 131.022746 
L 175.446545 132.725874 
L 175.712512 132.844745 
L 175.648106 132.923921 
L 174.346774 134.555573 
L 174.286025 134.886671 
L 173.908684 136.015611 
L 173.619816 136.340904 
L 173.609562 137.081575 
L 173.732099 136.941678 
L 174.315255 136.801162 
L 174.483579 136.489364 
L 174.885518 136.33368 
L 175.094229 136.17363 
L 175.291191 136.128544 
L 175.675463 136.562053 
L 175.85726 136.605944 
L 176.10781 136.707583 
L 176.052383 136.802159 
L 174.979176 138.477927 
L 175.194068 139.105782 
L 175.808748 139.815392 
L 175.885149 139.987509 
L 175.973097 139.920013 
L 176.108297 139.720492 
L 176.422952 139.689314 
L 176.603643 139.726395 
L 176.746809 139.849598 
L 176.753757 139.817638 
L 177.059684 139.732128 
L 177.278239 139.38651 
L 177.394283 139.281224 
L 177.408041 139.336293 
L 177.727245 139.536488 
L 177.916028 139.582356 
L 178.014816 139.301152 
L 178.237055 139.017513 
L 178.087133 138.460595 
L 178.504993 138.0282 
L 178.434078 137.698064 
L 178.48248 137.553953 
L 178.699048 137.45811 
L 179.302225 137.921647 
L 179.852554 137.92923 
L 179.947302 138.209168 
L 180.034176 139.273164 
L 180.560295 139.521088 
L 180.520904 139.564539 
L 180.235808 139.900489 
L 180.122879 140.027923 
L 180.241754 140.060009 
L 180.566964 140.212547 
L 180.775642 140.698026 
L 181.100693 140.674979 
L 181.175194 140.568803 
L 181.283952 140.51386 
L 181.473293 140.271543 
L 181.917892 140.231398 
L 182.048603 139.965468 
L 182.26412 140.044977 
L 182.7974 140.423012 
L 183.679908 139.928432 
L 183.853323 139.936698 
L 183.719327 140.388061 
L 183.201266 140.461369 
L 183.078926 140.403784 
L 182.870259 140.607097 
L 182.706261 140.986858 
L 182.753886 141.122963 
L 182.740484 141.567488 
L 182.956871 141.679162 
L 183.205115 141.782023 
L 183.606688 141.557865 
L 183.761269 141.453019 
L 183.790171 141.484556 
L 183.884601 141.555169 
L 183.852688 141.602062 
L 183.577409 142.176501 
L 183.490381 142.910047 
L 183.025366 143.168078 
L 183.030589 143.328964 
L 183.148555 143.573518 
L 182.995868 143.921364 
L 182.433543 144.020837 
L 182.348289 144.476197 
L 182.405726 144.470708 
L 182.609312 144.649438 
L 182.558539 144.701632 
L 182.331378 145.271955 
L 182.311696 145.530113 
L 181.886866 145.732932 
L 181.606835 145.832036 
L 182.05029 146.440609 
L 181.974179 146.459828 
L 181.616421 146.644219 
L 180.814727 147.248209 
L 180.904333 147.523798 
L 181.559494 147.823861 
L 181.950555 147.899893 
L 182.225862 147.867528 
L 182.290853 148.33545 
L 182.204329 149.059508 
L 181.953829 149.299812 
L 181.822373 149.979681 
L 181.897953 150.279178 
L 182.557986 150.590518 
L 182.447904 150.702867 
L 182.237676 151.183772 
L 181.635621 151.280388 
L 181.414619 151.392548 
L 181.330039 151.770915 
L 181.429702 151.92871 
L 182.11152 152.797822 
L 182.083023 152.998394 
L 182.506846 153.348711 
L 182.626263 153.524197 
L 182.602639 153.61827 
L 182.058321 154.576792 
L 181.597013 155.549851 
L 181.263383 155.804396 
L 181.004938 156.345115 
L 180.946226 156.497393 
L 180.326893 157.734863 
L 180.187871 158.088855 
L 180.105387 158.357282 
L 179.508987 160.088757 
L 179.504547 160.410807 
L 179.628667 160.902889 
L 179.67846 161.083093 
L 179.218926 162.040805 
L 179.210385 162.077923 
L 179.801146 162.157898 
L 179.731867 162.248845 
L 179.707253 162.272197 
L 179.797198 162.290131 
L 180.133281 162.368031 
L 179.897409 162.672479 
L 180.011258 162.722085 
L 180.292423 162.756085 
L 180.31314 162.674348 
L 180.60324 162.792699 
L 180.447076 162.842305 
L 180.529248 162.920331 
L 180.542612 162.918704 
L 180.699476 163.036327 
L 180.772445 163.15625 
L 180.867761 163.251941 
L 180.803799 163.285554 
L 180.138214 163.32197 
L 180.138345 163.330604 
L 180.165955 163.474194 
L 180.743395 163.375053 
L 181.189171 163.478641 
L 181.42149 163.615672 
L 181.428602 163.764805 
L 181.47465 163.749594 
L 181.587788 163.915619 
L 181.600122 163.94031 
L 181.644447 163.862104 
L 181.694645 163.882024 
L 182.042537 163.960831 
L 181.896524 164.063557 
L 181.223849 164.910161 
L 181.27598 164.918616 
L 181.168104 165.048036 
L 180.955703 165.061765 
L 180.304572 165.142334 
L 179.940469 165.124696 
L 179.261974 165.745579 
L 179.342542 165.964517 
L 179.449881 166.041896 
L 179.65009 166.031087 
L 179.633047 166.137855 
L 179.336333 166.744155 
L 179.329545 166.741747 
L 179.009569 166.960523 
L 179.020108 166.963992 
L 179.164189 167.804306 
L 179.328444 168.022301 
L 179.285418 168.043981 
L 178.906062 168.134667 
L 178.27124 167.794692 
L 177.602617 169.201 
L 177.893204 169.629432 
L 178.568161 169.900717 
L 178.459661 170.611917 
L 178.478571 170.613247 
L 179.030554 171.695105 
L 179.217108 172.033121 
L 179.486185 172.2648 
L 180.284665 172.795212 
L 180.320591 173.118673 
L 180.47433 173.39374 
L 180.542699 174.212203 
L 180.945668 175.210995 
L 181.368729 175.204787 
L 181.956314 175.660633 
L 182.459368 175.957111 
L 182.638762 175.98279 
L 183.194954 176.382821 
L 183.288404 176.693074 
L 183.396482 177.203701 
L 183.52923 177.505714 
L 183.772821 178.183598 
L 184.181232 178.701467 
L 184.880629 179.282519 
L 185.470421 180.343146 
L 186.293757 180.460104 
L 187.099886 180.611079 
L 187.681854 181.401698 
L 188.440232 182.045034 
L 188.791989 182.171165 
L 189.539691 182.992027 
L 189.914442 183.02086 
L 190.424071 182.964345 
L 190.505903 182.444211 
L 190.549527 182.192433 
L 191.066892 181.407664 
L 191.817511 181.472185 
L 192.093612 181.547399 
L 192.159162 182.204787 
L 192.342426 182.993043 
L 192.572681 183.170784 
L 193.089756 183.709283 
L 193.599566 183.897816 
L 194.297244 184.054173 
L 195.109729 184.26506 
L 195.075303 184.458526 
L 195.307178 185.091062 
L 195.280582 185.624439 
L 195.260867 185.656911 
L 195.342934 185.881833 
L 197.615959 186.068227 
L 198.795937 186.195715 
L 199.45649 186.11591 
L 199.424747 185.969904 
L 199.464199 185.624619 
L 199.496856 185.247113 
L 200.18774 185.163903 
L 201.080382 184.853902 
L 201.320781 183.760183 
L 201.668104 183.374223 
L 202.362426 183.354725 
L 202.635527 183.537094 
L 203.130363 184.222642 
L 203.566257 184.280865 
L 204.096263 184.310731 
L 204.675428 184.72538 
L 204.941658 184.948982 
L 206.028443 185.585112 
L 206.195622 185.480463 
L 206.620621 185.567519 
L 207.034512 185.71871 
L 207.222709 185.840978 
L 207.437601 186.188905 
L 207.759844 186.376763 
L 208.124844 186.455382 
L 208.299623 186.701635 
L 208.265673 187.678755 
L 209.364902 187.921359 
L 210.449267 187.876946 
L 211.057613 187.670614 
L 211.760968 187.459835 
L 212.001713 187.448154 
L 212.232482 188.195115 
L 212.327973 188.297229 
L 212.629762 190.379354 
L 214.128483 190.444262 
L 214.435681 190.383873 
L 214.438084 190.427828 
L 214.597801 190.965195 
L 215.051801 190.99578 
L 215.865846 190.705609 
L 215.976804 189.979548 
L 216.453388 190.07115 
L 217.008967 190.267068 
L 217.042423 190.172132 
L 217.912602 190.348374 
L 218.364888 190.431278 
L 218.356868 190.472771 
L 218.129455 191.471491 
L 218.168003 191.47637 
L 219.237925 191.726154 
L 219.048233 193.423432 
L 219.108834 193.391248 
L 219.743771 193.158832 
L 220.301004 193.190621 
L 221.421289 193.442965 
L 221.722771 193.815394 
L 221.722902 193.599089 
L 221.764264 193.219355 
L 223.019657 193.526993 
L 223.163032 194.256136 
L 222.572107 194.336732 
L 222.579794 195.28926 
L 221.996041 195.215889 
L 222.094046 195.471108 
L 222.309759 195.679632 
L 222.9365 196.190879 
L 223.260237 196.199721 
L 224.17353 196.308143 
L 224.767324 196.367938 
L 224.924462 196.445497 
L 224.931842 196.385522 
L 225.076492 196.00905 
L 225.158379 196.015968 
L 225.17003 195.869548 
L 225.204986 195.875425 
L 226.078313 195.873933 
L 226.526006 195.790328 
L 226.745103 195.771279 
L 226.847307 195.611786 
L 227.030286 195.617582 
L 227.089436 195.030168 
L 227.76913 195.087879 
L 227.757912 195.346126 
L 228.120027 195.34742 
L 228.188457 195.650889 
L 228.355505 195.673828 
L 228.446261 195.970387 
L 228.707645 195.995141 
L 228.805644 196.74804 
L 228.738682 197.151665 
L 227.277858 197.476743 
L 227.449581 198.163674 
L 227.683805 198.749282 
L 227.975377 199.587979 
L 228.161833 199.838104 
L 228.152208 199.925905 
L 228.262953 199.92675 
L 228.327249 199.985413 
L 228.250569 200.265584 
L 228.191233 200.290472 
L 228.467317 200.729175 
L 228.683764 200.707772 
L 228.71796 200.770299 
L 228.638498 200.966163 
L 228.993316 201.315312 
L 229.403588 202.36336 
L 229.297125 202.578632 
L 229.320152 202.764227 
L 229.188838 202.71923 
L 229.207042 202.739302 
L 229.474739 203.180224 
L 229.357359 203.366816 
L 229.282343 203.577721 
L 229.858967 203.656295 
L 229.798065 204.043854 
L 229.253321 204.041761 
L 229.333286 204.222611 
L 229.323951 204.588256 
L 229.189884 204.887709 
L 228.588135 205.504827 
L 228.668199 205.529473 
L 229.041489 205.70513 
L 228.933011 205.737709 
L 228.706309 206.152269 
L 228.786756 206.195478 
L 229.486526 206.673184 
L 229.371407 206.954793 
L 229.18206 206.934271 
L 229.178852 206.983599 
L 229.16718 207.436156 
L 229.037514 207.350151 
L 228.883195 207.515691 
L 229.001676 207.561425 
L 229.300754 207.778296 
L 229.466187 207.803966 
L 229.575667 207.729714 
L 229.597068 207.746929 
L 229.714634 208.248338 
L 229.674427 208.289723 
L 229.797485 208.305186 
L 229.805341 208.329428 
L 230.020551 208.45476 
L 230.195893 208.527359 
L 230.600296 209.620062 
L 230.713061 209.977271 
L 230.754281 210.073213 
L 230.655203 210.067022 
L 230.135073 209.892866 
L 230.108728 209.852729 
L 229.845942 209.892407 
L 229.692303 209.861041 
L 229.823529 210.777755 
L 229.759178 210.740808 
L 229.227589 210.424868 
L 228.964398 210.542114 
L 229.167333 211.243044 
L 229.311688 211.572039 
L 229.339883 211.926453 
L 229.087094 211.954576 
L 229.099407 211.978566 
L 229.41203 212.227424 
L 229.244035 212.346997 
L 228.584867 212.901228 
L 223.369263 216.288938 
L 225.152571 219.55173 
L 225.312556 219.762563 
L 225.808093 219.830175 
L 225.914956 219.771557 
L 225.847369 219.687053 
L 225.817433 219.628974 
L 226.103552 219.511171 
L 226.27855 219.604328 
L 226.204623 219.388023 
L 226.178864 219.399281 
L 225.968998 219.473955 
L 225.844456 219.012835 
L 226.221305 218.992179 
L 226.372777 219.424744 
L 226.641048 219.323789 
L 226.583075 219.139425 
L 226.811102 219.057895 
L 226.853356 218.870827 
L 227.058646 218.803583 
L 227.121957 218.651746 
L 227.221735 218.940479 
L 227.487269 219.338012 
L 228.40509 220.556955 
L 228.395077 220.702944 
L 229.01862 220.535741 
L 229.372305 221.182501 
L 228.971061 221.468377 
L 228.978457 221.850824 
L 228.675787 222.38174 
L 228.290721 223.167354 
L 228.397524 223.428153 
L 228.568043 223.732529 
L 229.166621 223.682213 
L 229.47769 224.192373 
L 230.682221 224.243237 
L 230.965357 225.965916 
L 231.746001 227.242516 
L 231.912736 227.272427 
L 231.879411 228.126597 
L 231.893011 228.701673 
L 231.858656 229.017335 
L 231.584483 229.087625 
L 231.690902 229.570731 
L 231.584565 229.720637 
L 231.533134 229.842761 
L 231.316906 230.077189 
L 231.346043 230.097064 
L 231.557453 230.186762 
L 231.137546 230.510393 
L 231.014773 230.477014 
L 230.83256 230.200626 
L 230.561217 230.172143 
L 230.501601 230.17907 
L 230.577192 230.246108 
L 230.757845 230.666445 
L 230.712524 231.002358 
L 230.495059 231.866348 
L 230.579415 232.183753 
L 231.04247 232.739683 
L 231.679104 233.320663 
L 231.607351 233.955481 
L 231.365074 234.302986 
L 231.038446 234.777341 
L 231.028104 235.100585 
L 230.926179 235.022065 
L 230.751719 234.968973 
L 230.31572 235.283601 
L 230.092277 235.569837 
L 230.116092 236.028737 
L 230.652931 236.284774 
L 230.884423 236.006446 
L 230.846099 235.402545 
L 230.947531 235.340189 
L 231.089033 235.195907 
L 231.597135 235.638006 
L 231.686418 236.011289 
L 231.56151 236.541881 
L 231.584455 236.95281 
L 232.453534 238.892091 
L 233.208396 238.855064 
L 233.699855 238.939775 
L 234.012062 239.022518 
L 233.964524 238.958769 
L 234.256534 238.997036 
L 234.263542 239.120966 
L 234.64096 239.224707 
L 234.927107 239.553307 
L 234.957897 239.8069 
L 235.232919 239.823325 
L 235.321622 239.25487 
L 235.232788 239.268339 
L 234.970391 239.254493 
L 234.958532 238.924608 
L 234.713748 238.771854 
L 234.768939 238.309395 
L 234.850224 238.369289 
L 235.337653 238.410171 
L 235.560653 238.459813 
L 236.20556 238.50145 
L 236.203348 238.45214 
L 236.160173 237.469871 
L 237.169697 236.972065 
L 237.521361 236.73637 
L 237.825455 236.348568 
L 238.327633 236.150727 
L 238.318298 236.139981 
L 238.516186 236.015179 
L 238.088301 235.079309 
L 238.196456 235.09178 
L 238.769845 235.089049 
L 238.841324 235.529296 
L 239.028727 235.824059 
L 239.50802 235.552981 
L 239.637631 235.465853 
L 239.653585 235.515918 
L 240.09145 235.522369 
L 240.115682 235.388663 
L 240.946146 235.961557 
L 241.255534 236.16495 
L 241.476027 235.989078 
L 241.461946 235.966076 
L 241.049823 235.168404 
L 240.998891 235.003332 
L 241.021699 235.003619 
L 241.058774 234.948352 
L 241.083274 234.983987 
L 241.20643 235.140021 
L 241.499771 235.070072 
L 241.694642 234.754483 
L 241.829629 234.393483 
L 241.888675 234.070121 
L 242.126403 233.906567 
L 242.306097 233.779932 
L 242.564388 233.597087 
L 242.936556 233.974458 
L 242.732843 234.30879 
L 243.049008 234.770692 
L 243.089555 234.892816 
L 243.296487 234.920589 
L 243.559043 235.170911 
L 243.731439 235.408807 
L 243.906716 235.390029 
L 243.911736 235.461828 
L 243.956936 235.663182 
L 243.934292 235.75111 
L 243.997171 235.767759 
L 244.02184 236.003966 
L 243.771958 236.175418 
L 243.685287 236.298117 
L 243.639085 236.440656 
L 243.620727 236.500352 
L 244.047101 236.378138 
L 244.205871 236.005089 
L 244.325392 235.954988 
L 244.290134 236.039735 
L 244.491322 236.009312 
L 244.624667 235.960065 
L 244.920297 236.099998 
L 244.870613 235.965348 
L 244.853575 235.710964 
L 244.942382 235.666111 
L 244.954317 235.729653 
L 245.176874 236.130205 
L 245.252509 236.423108 
L 245.598895 236.426055 
L 245.873523 236.331452 
L 245.95207 235.995538 
L 245.994604 236.050984 
L 246.574492 236.774287 
L 246.010268 236.468904 
L 245.906405 237.016469 
L 245.870255 237.340801 
L 246.068629 237.42031 
L 246.413329 237.535839 
L 246.734822 237.52317 
L 247.512077 237.820349 
L 247.68594 238.15859 
L 248.388415 238.085273 
L 249.053134 238.20941 
L 249.275007 240.142113 
L 249.349793 240.129876 
L 249.982584 240.172213 
L 250.035471 240.660755 
L 250.225797 241.187187 
L 250.420126 241.203235 
L 250.729486 240.303682 
L 251.054762 240.260895 
L 251.747524 239.726826 
L 252.538673 239.831969 
L 252.825674 239.854871 
L 252.696491 240.057465 
L 252.933742 240.467766 
L 252.887376 240.694341 
L 252.993412 240.705923 
L 253.127085 240.741593 
L 253.120685 241.197439 
L 253.874951 241.177933 
L 254.091009 241.136781 
L 256.864252 241.122729 
L 257.150043 240.614141 
L 257.236316 240.700532 
L 257.9053 241.337695 
L 258.360023 240.775566 
L 258.846504 241.2571 
L 259.466495 241.656789 
L 259.904634 241.718408 
L 260.422913 241.644102 
L 261.220797 241.882169 
L 261.409476 241.700232 
L 262.046159 240.990155 
L 262.485464 241.065099 
L 262.551058 240.987999 
L 262.59726 241.087436 
L 262.538942 241.344182 
L 262.385565 241.43636 
L 262.385455 241.537163 
L 262.247895 241.581009 
L 262.313642 242.116364 
L 262.400292 241.899402 
L 262.59692 241.871639 
L 263.032596 241.945747 
L 263.038826 241.915989 
L 263.242298 241.225949 
L 263.616058 241.090194 
L 265.020032 241.010659 
L 265.430271 241.145973 
L 266.046977 240.578974 
L 266.262515 240.426588 
L 266.32979 240.245297 
L 266.197091 239.898152 
L 266.342376 239.962925 
L 266.699937 240.036953 
L 267.78538 240.081132 
L 267.867054 240.363585 
L 267.949439 240.436534 
L 267.926067 240.343647 
L 267.97309 240.416327 
L 268.063408 240.456751 
L 268.063249 240.513347 
L 268.204587 240.550365 
L 268.893604 240.715564 
L 269.522398 240.426633 
L 269.883408 240.496249 
L 270.317605 240.30255 
L 270.33271 239.957381 
L 270.56891 239.833307 
L 271.24106 239.678055 
L 272.043876 239.345637 
L 272.395026 238.943234 
L 272.836231 238.678293 
L 273.25253 238.776301 
L 273.468151 238.92229 
L 273.758606 239.028205 
L 273.74723 239.920408 
L 273.653966 240.621697 
L 273.744284 240.6261 
L 274.6082 240.814929 
L 275.270993 240.904402 
L 275.303672 240.90584 
L 275.264259 240.825253 
L 275.149178 239.75175 
L 275.647359 239.340821 
L 275.718357 239.158083 
L 275.667173 239.162217 
L 275.478209 238.839331 
L 276.102952 238.608704 
L 276.810687 238.773911 
L 276.680677 238.289223 
L 276.201258 238.262547 
L 276.157355 237.998594 
L 276.538616 237.707597 
L 276.774488 237.682888 
L 277.452829 236.880697 
L 277.727123 236.72451 
L 277.621749 236.21745 
L 277.492089 236.09502 
L 277.371944 235.885139 
L 277.816215 235.911231 
L 277.648384 235.447479 
L 277.289997 235.335094 
L 277.333243 235.278489 
L 277.922618 234.785975 
L 278.697568 234.357156 
L 278.145509 233.813635 
L 278.151734 232.825759 
L 277.59195 232.278725 
L 277.374687 232.091953 
L 277.190153 231.94866 
L 277.063706 231.699227 
L 277.385511 231.246742 
L 279.304326 231.944581 
L 279.452179 231.844497 
L 280.017109 231.470693 
L 280.140747 231.34785 
L 279.795658 230.943399 
L 279.666961 230.675322 
L 279.307912 230.176627 
L 279.425823 230.108071 
L 279.646152 230.063236 
L 280.090472 229.941228 
L 280.480383 229.580606 
L 280.585976 229.512418 
L 280.65313 228.983524 
L 280.784881 228.288435 
L 280.817774 228.106416 
L 281.259193 227.474383 
L 281.516088 227.4583 
L 281.87644 227.424687 
L 282.427891 227.474725 
L 282.666178 227.55081 
L 282.872047 227.333849 
L 283.061618 227.389727 
L 282.410744 226.59528 
L 282.394643 226.176085 
L 282.566032 225.857961 
L 282.930102 225.495721 
L 283.15169 225.527609 
L 283.444226 225.743851 
L 283.709492 225.791454 
L 285.487013 225.853505 
L 285.522265 225.836712 
L 285.864562 225.98341 
L 287.262404 226.008811 
L 287.402428 226.102695 
L 287.84008 226.501666 
L 288.6423 226.550706 
L 288.620078 226.631921 
L 288.691896 226.670997 
L 288.673014 226.719696 
L 288.543058 226.730298 
L 288.545467 226.859485 
L 289.140196 226.773462 
L 289.14796 226.585397 
L 289.630341 226.554489 
L 290.55362 226.72595 
L 290.801607 226.811514 
L 291.078392 226.954385 
L 291.374071 227.211374 
L 292.288081 227.455452 
L 292.992083 227.792291 
L 293.465447 229.013076 
L 293.664944 228.893396 
L 293.790033 228.907134 
L 294.002023 228.498909 
L 294.005209 228.217148 
L 294.054143 227.857253 
L 293.86299 227.855186 
L 293.88034 227.752047 
L 293.995678 227.557728 
L 294.837497 227.425415 
L 295.055822 227.259165 
L 295.283317 226.996291 
L 296.266113 226.37814 
L 296.430686 226.415086 
L 296.40559 226.324894 
L 296.50083 225.717849 
L 297.045383 225.706159 
L 297.172267 225.731856 
L 297.75498 226.030743 
L 297.9186 225.926256 
L 299.489195 225.469826 
L 299.782623 225.676078 
L 299.794586 225.653336 
L 299.749364 224.873653 
L 299.787457 224.613842 
L 300.09148 224.417448 
L 300.685328 224.321533 
L 300.733129 224.485383 
L 300.744078 224.486381 
L 300.918933 224.295422 
L 301.542915 224.299465 
L 301.878302 224.242312 
L 302.77118 224.171043 
L 302.770556 224.181321 
L 303.011508 224.332566 
L 303.122494 224.216013 
L 303.551468 224.58261 
L 304.593813 224.106979 
L 305.109087 223.910765 
L 305.192036 223.518677 
L 305.078844 222.839005 
L 305.254991 222.925171 
L 305.770259 222.937139 
L 306.004926 222.79081 
L 306.192149 222.520675 
L 306.594789 222.193288 
L 307.071 222.244278 
L 307.168725 222.508572 
L 307.293288 222.783487 
L 307.784949 222.813712 
L 308.064417 223.200724 
L 308.370864 224.157044 
L 308.419207 224.42318 
L 308.319593 224.502024 
L 308.390913 224.545691 
L 308.563945 224.702353 
L 308.903986 224.995328 
L 309.192783 224.939189 
L 310.093971 224.710988 
L 310.875447 224.577534 
L 311.826609 224.702937 
L 312.229009 224.850984 
L 312.513875 224.668696 
L 313.096122 223.893145 
L 313.115908 223.636228 
L 313.256917 223.162861 
L 313.303617 222.653285 
L 313.19987 222.59561 
L 313.432358 222.605107 
L 313.676732 222.651829 
L 313.819581 222.664624 
L 313.916896 222.550406 
L 313.933808 222.570802 
L 313.963459 222.539013 
L 313.902081 222.534072 
L 313.898473 222.469407 
L 313.73534 221.950091 
L 313.506076 221.367188 
L 313.462261 220.983312 
L 313.410152 220.760762 
L 313.461073 220.760412 
L 313.936589 220.722792 
L 314.096196 220.767348 
L 314.390304 221.101159 
L 314.723633 221.633701 
L 314.767179 221.739769 
L 315.231466 222.105774 
L 315.231198 222.077822 
L 315.336424 221.798747 
L 315.714898 221.438718 
L 316.269224 220.957516 
L 316.451645 220.852715 
L 316.848241 220.330057 
L 317.007503 220.043884 
L 317.112505 219.198214 
L 317.108459 218.926328 
L 316.893457 218.487841 
L 316.515043 217.963853 
L 316.649231 217.649198 
L 316.652625 217.390699 
L 316.59514 217.057445 
L 316.634777 216.303692 
L 316.386555 215.741068 
L 316.523556 215.555662 
L 316.640975 215.355575 
L 316.703831 214.883996 
L 316.487713 214.632066 
L 316.368077 214.205286 
L 316.25684 214.044266 
L 316.14189 213.617828 
L 315.657385 213.415324 
L 315.649967 213.146169 
L 315.751322 212.929845 
L 315.579517 212.509823 
L 315.371873 212.518628 
L 315.146924 212.495986 
L 314.69876 212.084868 
L 314.114876 211.503942 
L 312.926446 210.425632 
L 312.221344 209.333351 
L 311.851783 209.159958 
L 311.629308 208.534286 
L 311.327727 207.975284 
L 311.205365 207.693927 
L 311.36604 207.274443 
L 311.362334 206.995647 
L 311.259747 206.691747 
L 311.463684 206.558652 
L 311.631782 206.379096 
L 311.441439 206.180716 
L 310.890492 205.942244 
L 310.928651 205.659935 
L 311.09755 205.200621 
L 311.063277 204.45172 
L 311.018438 204.223321 
L 311.031156 203.860605 
L 310.713442 203.393106 
L 310.394561 202.773337 
L 310.058368 202.660441 
L 309.982975 202.414575 
L 309.7469 202.354366 
L 309.26487 202.384466 
L 309.119021 202.325515 
L 308.94969 202.261542 
L 308.853284 202.13736 
L 308.433047 202.093468 
L 308.169785 201.542876 
L 308.099335 201.218076 
L 307.73348 200.780443 
L 307.578329 200.578864 
L 307.574738 200.246185 
L 307.599457 199.9942 
L 307.734181 199.708387 
L 307.660025 199.379967 
L 307.60935 199.148091 
L 307.631594 198.995184 
L 308.029581 198.753298 
L 308.291611 198.947554 
L 308.426335 198.833507 
L 308.402848 198.587875 
L 308.324985 198.216946 
L 308.532629 198.190629 
L 308.604316 198.389872 
L 308.685891 198.477593 
L 308.80331 198.409927 
L 308.783535 198.220702 
L 308.536335 197.711989 
L 308.891065 197.312326 
L 309.500544 197.241973 
L 310.263006 196.564467 
L 310.522567 196.460511 
L 310.881004 195.915695 
L 311.013254 195.77543 
L 311.018197 195.383477 
L 311.079997 195.236967 
L 311.176403 194.87887 
L 311.532365 194.568374 
L 311.627534 194.338026 
L 311.817877 194.366814 
L 312.220807 194.43191 
L 312.191145 194.229109 
L 312.204744 194.010046 
L 313.276342 193.342899 
L 313.239261 193.076332 
L 313.103305 192.814778 
L 313.355442 192.484417 
L 313.527247 192.320503 
L 313.621179 192.060252 
L 313.763322 191.562312 
L 313.896809 191.387176 
L 313.830065 190.634169 
L 314.120521 190.263968 
L 314.338911 190.159616 
L 314.665589 189.653715 
L 314.634689 189.412396 
L 314.707312 188.693936 
L 314.490077 188.45099 
L 314.333108 188.345982 
L 313.964784 187.187382 
L 313.930085 186.827236 
L 313.880795 186.520577 
L 314.081644 186.352531 
L 314.268894 186.332539 
L 314.509293 186.036447 
L 314.700874 185.30442 
L 314.763024 184.87632 
L 314.502214 184.416332 
L 314.359738 184.254709 
L 314.424012 184.071155 
L 315.016667 183.598552 
L 315.086931 183.247238 
L 315.317662 183.050376 
L 315.634911 182.638162 
L 315.867388 182.411335 
L 315.848161 182.229523 
L 315.849913 181.873869 
L 316.242326 181.574722 
L 316.240574 181.057661 
L 316.300009 180.5592 
L 316.106857 180.298958 
L 316.116372 179.82622 
L 316.11473 179.58632 
L 316.412286 179.333662 
L 316.751287 179.023319 
L 316.796838 178.48305 
L 316.52942 178.153839 
L 316.3929 177.980806 
L 315.900056 176.933369 
L 315.285481 176.378077 
L 314.57429 175.971209 
L 313.493791 175.601439 
L 312.907109 174.856591 
L 312.599024 174.13787 
L 312.628134 173.697748 
L 312.724798 173.239108 
L 312.507299 172.136512 
L 312.500691 171.645149 
L 312.68389 171.259575 
L 313.851997 169.559331 
L 313.890469 168.966392 
L 313.594697 168.228444 
L 312.818127 167.105685 
L 312.953065 166.743949 
L 314.054226 165.509453 
L 314.281607 164.560096 
L 314.351082 163.827943 
L 314.483107 163.424058 
L 314.394251 163.243477 
L 313.836098 162.549259 
L 313.529394 161.854654 
L 313.018554 161.458406 
L 311.886646 161.152331 
L 311.204057 160.943025 
L 310.352618 160.820335 
L 308.881463 160.120348 
L 307.861181 159.961098 
L 307.67727 159.786456 
L 307.269681 158.895745 
L 306.767032 158.557189 
L 306.69327 158.178696 
L 306.782937 157.849548 
L 307.300532 157.162796 
L 307.257368 156.903947 
L 306.913752 156.058852 
L 306.830135 155.679442 
L 306.539428 155.372298 
L 306.008863 155.074759 
L 306.006985 154.690668 
L 306.100396 154.243169 
L 305.921632 153.657796 
L 305.511284 152.618993 
L 305.553363 152.04893 
L 305.231274 150.299116 
L 304.513175 148.935002 
L 304.644045 148.395147 
L 305.185619 147.031006 
L 305.047172 146.42369 
L 305.149748 145.955086 
L 305.473798 145.419364 
L 305.900434 145.075983 
L 306.397854 144.980302 
L 306.826467 144.942915 
L 307.035627 144.761975 
L 307.487332 144.086733 
L 307.878333 143.746767 
L 308.275241 143.121203 
L 308.646095 142.772621 
L 308.735422 142.235416 
L 308.821847 141.684742 
L 309.128607 141.415039 
L 309.56039 141.057193 
L 309.97733 140.368294 
L 310.039672 139.835635 
L 309.758354 139.316005 
L 309.384965 139.054487 
L 308.944089 138.841659 
L 308.739626 138.501621 
L 308.590777 137.597836 
L 308.330088 136.814972 
L 308.466274 136.241521 
L 308.914465 135.338707 
L 309.045335 134.587461 
L 309.462445 134.190808 
L 310.267441 133.451503 
L 310.285119 133.140658 
L 310.120529 132.802201 
L 308.780189 131.619468 
L 308.691689 131.284174 
L 308.528632 130.618339 
L 307.912534 129.661813 
L 307.008663 129.119819 
L 306.590951 128.656893 
L 305.553473 128.181702 
L 304.202993 127.374623 
L 303.342466 126.965931 
L 300.60666 124.87811 
L 300.176224 123.860952 
L 299.73451 123.563099 
L 298.960869 123.283135 
L 298.490664 122.045225 
L 297.830915 121.333468 
L 297.541451 120.811061 
L 295.861535 118.580657 
L 295.627519 118.306551 
L 294.913729 117.756542 
L 294.367227 116.974145 
L 291.495152 115.470943 
L 290.780891 115.091623 
L 289.357602 113.816056 
L 288.629691 112.923943 
L 288.210495 112.503579 
L 287.920094 112.248081 
L 287.262694 111.255174 
L 286.87361 111.035652 
L 285.955986 110.89793 
L 282.724326 110.333347 
L 282.540602 110.222886 
L 282.234625 109.893225 
L 282.012402 109.134746 
L 282.144706 108.41219 
L 282.648915 107.65681 
L 283.937628 105.642307 
L 283.973811 104.30026 
L 283.750652 103.969872 
L 283.610332 103.604991 
L 283.165624 100.870312 
L 283.082894 100.537417 
L 282.998247 99.258032 
L 282.944266 98.857938 
L 283.311632 97.999411 
L 283.893764 97.856639 
L 284.152296 97.798506 
L 284.374995 97.502908 
L 284.603903 96.956709 
L 285.06779 96.772866 
L 285.646374 96.497566 
L 286.092999 96.108254 
L 286.595861 95.797274 
L 287.117617 95.68479 
L 287.319589 95.657197 
L 288.084629 95.316225 
L 288.500009 95.074618 
L 289.285761 94.465793 
L 289.472584 94.388854 
L 289.920336 93.86271 
L 290.200439 93.594786 
L 290.405236 93.480577 
L 290.730391 93.264227 
L 291.552824 92.559622 
L 291.88306 92.120165 
L 292.160863 91.878828 
L 292.370762 91.486623 
L 293.277557 90.833511 
L 293.873376 90.392158 
L 294.354065 89.727626 
L 294.364527 89.572105 
L 294.663124 89.195624 
L 294.900025 88.290294 
L 295.008098 88.015801 
L 295.383118 87.299705 
L 295.594939 86.18169 
L 295.73499 84.961354 
L 296.034353 84.40015 
L 296.145651 83.607942 
L 296.114285 83.397324 
L 296.350185 81.728447 
L 295.730878 80.811176 
L 295.505639 80.247717 
L 295.496496 79.828925 
L 295.331058 79.162597 
L 295.539802 78.439123 
L 295.561427 78.255299 
L 295.778728 77.802625 
L 296.111001 76.394583 
L 296.648409 76.195116 
L 297.133248 76.09673 
L 297.490929 75.743978 
L 297.586623 75.296893 
L 297.740849 74.436578 
L 298.553701 73.455225 
L 298.965566 73.024762 
L 299.051078 72.624471 
L 299.13977 72.252401 
L 299.7748 71.479061 
L 299.922182 71.266835 
L 299.914572 70.942036 
L 299.641559 70.018996 
L 298.331199 69.867149 
L 298.034453 67.984789 
L 297.986871 67.548746 
L 297.542754 66.938708 
L 298.016364 65.532697 
L 297.77234 65.05642 
L 297.02448 65.088254 
L 296.133343 65.596922 
L 296.002632 66.110506 
L 295.788583 66.338869 
L 295.464578 66.281113 
L 295.148905 66.148854 
L 295.076243 66.144846 
L 295.075247 66.195926 
L 295.025552 66.37958 
L 294.437403 66.536081 
L 294.443764 66.566864 
L 294.313343 66.830646 
L 293.333383 66.683839 
L 292.574863 66.794742 
L 292.481666 67.226462 
L 291.740112 68.762307 
L 291.808312 68.962215 
L 291.752392 68.984462 
L 289.614015 69.834246 
L 289.802507 70.864962 
L 289.643677 71.439617 
L 288.776526 71.599874 
L 288.489476 71.595399 
L 286.757215 71.690649 
L 286.483551 71.429068 
L 286.348164 71.343792 
L 286.230965 71.151539 
L 286.223464 71.155313 
L 286.109095 71.275047 
L 286.051998 71.216519 
L 285.998487 71.146049 
L 285.935521 71.207121 
L 285.421562 71.203886 
L 285.183965 71.155043 
L 284.881684 71.080944 
L 284.624455 70.890039 
L 284.257916 70.682971 
L 284.09123 70.621253 
L 283.660761 70.710734 
L 283.087 70.82656 
L 282.461551 71.143165 
L 282.132503 71.218361 
L 282.012057 71.291077 
L 281.678865 71.226546 
L 281.66964 71.167793 
L 280.692647 71.184919 
L 281.203306 69.414835 
L 281.925484 68.596947 
L 283.719473 66.818174 
L 285.677931 64.866378 
L 287.006593 63.217196 
L 287.717444 62.091823 
L 288.029344 61.291842 
L 288.595583 59.137065 
L 288.494907 58.1275 
L 288.276341 57.398438 
L 288.417433 56.581978 
L 288.033226 56.216656 
L 287.579292 55.6568 
L 287.058516 56.044926 
L 286.819568 56.456754 
L 286.439823 56.626777 
L 285.220707 56.728973 
L 284.691242 56.55682 
L 283.75495 55.846779 
L 283.423843 55.571577 
L 282.746351 55.062109 
L 282.616773 55.234316 
L 281.899522 55.074742 
L 281.08655 56.581816 
L 281.012628 56.714157 
L 280.411094 56.756566 
L 279.764621 57.463211 
L 279.830993 57.661788 
L 279.755571 57.763373 
L 279.688144 57.678339 
L 279.415689 57.490121 
L 278.970827 57.417477 
L 278.219326 57.600421 
L 277.997295 57.356918 
L 277.755006 56.075592 
L 277.681759 56.107003 
L 275.640494 55.996739 
L 275.260634 55.613322 
L 273.503118 55.963135 
L 272.367389 55.976029 
L 272.23446 56.01399 
L 271.207855 56.438946 
L 271.088881 56.549273 
L 270.892587 56.707661 
L 270.686603 56.709377 
L 270.122351 56.253594 
L 270.067488 55.758969 
L 270.443783 55.304606 
L 270.088829 54.708818 
L 270.123309 54.710543 
L 270.803068 54.333056 
L 270.784848 53.995426 
L 270.69695 53.828296 
L 270.767022 53.722102 
L 268.482829 52.076991 
L 268.919955 51.167438 
L 268.962226 51.073499 
L 268.919873 51.038395 
L 268.636638 50.953621 
L 268.46935 50.947996 
L 268.435575 50.214514 
L 268.535026 50.075605 
L 268.606269 49.612653 
L 268.687034 49.392475 
L 266.713191 48.350905 
L 266.054319 48.227783 
L 265.517628 48.129146 
L 265.584059 48.073088 
L 265.607322 47.803142 
L 264.259629 45.538398 
L 264.378487 44.786747 
L 264.43335 44.76751 
L 264.406004 44.680302 
L 264.331119 44.467635 
L 264.320126 44.443636 
L 264.271641 44.491814 
L 264.135723 44.560271 
L 263.836803 44.509137 
L 263.420426 45.257158 
L 263.021887 47.251561 
L 263.242445 47.716608 
L 263.236691 47.879138 
L 263.1502 48.519491 
L 263.528768 48.594677 
L 263.779383 48.728725 
L 263.929869 48.865719 
L 264.045547 49.154012 
L 264.075155 49.245049 
L 264.432491 49.947686 
L 264.517898 49.859956 
L 264.656871 49.710185 
L 264.862456 49.598375 
L 265.086896 49.644702 
L 265.146752 49.742405 
L 265.362674 49.7822 
L 265.546754 49.790223 
L 265.542412 49.843208 
L 265.687862 49.901799 
L 265.710358 49.881287 
L 265.719802 49.840575 
L 265.809961 49.905923 
L 264.321221 51.73087 
L 263.355911 52.067763 
L 263.149034 52.000178 
L 262.977404 51.900579 
L 262.456743 51.829202 
L 261.594229 51.611432 
L 261.431287 51.436691 
L 261.353638 51.078055 
L 261.110107 51.00028 
L 260.949164 51.433708 
L 260.156607 51.359079 
L 259.903971 51.34703 
L 259.793309 51.328557 
L 259.455386 51.468238 
L 259.103246 52.032137 
L 258.032563 52.809404 
L 256.342891 54.141397 
L 256.410034 54.342957 
L 256.478064 54.448864 
L 256.389826 54.459906 
L 256.254905 54.548319 
L 256.17362 54.853917 
L 256.071049 54.715979 
L 255.928096 54.640164 
L 255.723201 54.610837 
L 255.593963 54.504912 
L 255.228283 55.161366 
L 255.493538 55.356674 
L 255.464226 55.381176 
L 255.415237 55.747504 
L 255.437979 55.813652 
L 254.955139 55.862081 
L 255.043836 56.019903 
L 255.302335 56.747698 
L 255.193726 57.006098 
L 254.539145 57.935337 
L 254.287391 57.544839 
L 254.062601 57.513347 
L 253.750054 57.612811 
L 253.70343 57.75313 
L 253.626115 57.734854 
L 253.353097 57.791909 
L 253.176178 57.814839 
L 252.988112 57.985195 
L 252.323179 58.035574 
L 252.176509 58.034082 
L 251.794355 58.128326 
L 251.677112 58.369816 
L 251.735791 58.435596 
L 251.654408 58.490422 
L 251.494904 58.527953 
L 251.376517 58.708498 
L 250.946639 58.711004 
L 250.616234 58.931452 
L 250.604655 59.150812 
L 250.436671 59.168476 
L 250.473763 59.40772 
L 250.514474 59.401278 
L 250.759143 59.389607 
L 250.993482 59.51183 
L 250.863554 60.080186 
L 250.674535 60.510442 
L 250.872686 60.546302 
L 251.009928 60.619125 
L 251.007897 60.653484 
L 250.932268 60.902009 
L 250.458844 61.395134 
L 250.35041 61.735945 
L 250.154931 61.968836 
L 249.616302 61.834339 
L 249.327894 61.680363 
L 248.991072 62.644159 
L 248.792358 63.038673 
L 248.910658 63.043965 
L 249.274706 63.14528 
L 249.249407 63.819803 
L 249.159581 63.961389 
L 249.003954 64.062821 
L 249.032823 64.438107 
L 249.063717 64.712222 
L 249.116204 65.245851 
L 249.190536 65.867793 
L 249.106098 66.00583 
L 248.800959 66.099499 
L 248.463611 66.125457 
L 248.471539 65.989181 
L 248.326905 65.621424 
L 248.036252 65.258574 
L 247.995164 65.423395 
L 248.285712 66.278822 
L 248.25634 66.286765 
L 248.076147 66.522217 
L 247.957519 66.671755 
L 247.763174 67.468959 
L 247.706624 67.592476 
L 246.839785 68.515668 
L 246.343443 68.602104 
L 245.712629 68.676554 
L 245.725577 68.618996 
L 245.524536 68.156412 
L 245.327158 67.849232 
L 244.993785 67.882539 
L 244.478024 67.77825 
L 244.484025 67.905864 
L 244.434341 68.037917 
L 244.35806 68.226522 
L 244.482941 68.429942 
L 244.499502 68.421056 
L 244.528316 68.402951 
L 244.345802 68.721272 
L 244.431105 68.70129 
L 244.49441 68.789172 
L 244.58694 68.876767 
L 244.606973 68.868366 
L 244.750079 68.891997 
L 244.719699 68.963895 
L 244.334556 69.275953 
L 244.197659 69.189886 
L 244.154577 69.127314 
L 244.004031 69.481593 
L 243.900622 69.6399 
L 243.777888 70.049851 
L 243.317817 70.670185 
L 242.846665 71.313297 
L 242.643779 72.315099 
L 242.67435 72.319052 
L 242.737967 72.463918 
L 242.629593 72.574218 
L 242.369758 72.58641 
L 242.225475 72.495716 
L 242.210556 72.542779 
L 242.052323 72.789508 
L 241.823311 72.870274 
L 241.613346 72.540119 
L 241.616752 72.147349 
L 241.450903 72.182336 
L 240.793711 70.914712 
L 240.692865 70.320129 
L 240.201401 69.701403 
L 239.371221 69.775448 
L 239.160632 69.858677 
L 239.196963 70.125765 
L 239.10959 70.118011 
L 238.96177 70.111362 
L 236.813856 69.52004 
L 236.668976 69.692553 
L 236.31966 69.984655 
L 236.269204 69.914123 
L 236.178925 69.879019 
L 236.042623 70.114875 
L 235.999602 70.227251 
L 235.759301 70.426323 
L 235.543615 70.892286 
L 235.183427 70.983277 
L 235.039713 70.967463 
L 234.533402 71.216546 
L 234.343644 71.128035 
L 234.41987 71.286 
L 234.311748 71.437308 
L 234.139236 71.561292 
L 234.004249 72.053374 
L 233.891517 72.294721 
L 233.951976 72.48098 
L 234.091759 72.436846 
L 234.129409 72.343752 
L 234.201365 72.424446 
L 234.242185 72.546966 
L 234.015588 73.00805 
L 233.864986 73.208335 
L 233.817596 73.165279 
L 233.768 73.125484 
L 233.729244 73.151541 
L 233.655082 73.349642 
L 233.824073 73.358933 
L 233.768213 73.417731 
L 233.693613 73.560134 
L 233.649163 73.989241 
L 233.28857 74.852997 
L 232.982484 75.172594 
L 231.891658 74.864273 
L 231.803798 74.899584 
L 231.565129 74.592872 
L 230.977237 73.234212 
L 230.91685 72.969954 
L 230.435958 72.12972 
L 230.043907 72.504143 
L 229.791599 72.233946 
L 229.234701 72.35368 
L 229.099484 72.452956 
L 228.858832 72.577434 
L 228.806909 72.478734 
L 228.851315 72.122667 
L 228.697774 72.215374 
L 227.92404 72.975354 
L 227.718312 73.350694 
L 227.578485 73.278517 
L 227.311665 73.130965 
L 227.112074 73.072311 
L 227.005879 73.010629 
L 226.870788 73.070541 
L 226.703374 73.102968 
L 226.593691 73.129267 
L 226.591457 73.190832 
L 226.284561 73.703194 
L 226.403392 74.524667 
L 226.273611 75.04215 
L 226.352323 75.350893 
L 225.794126 75.563209 
L 225.547661 75.219334 
L 225.28804 75.341656 
L 225.339809 75.495318 
L 225.261016 75.502245 
L 225.123373 75.562157 
L 225.203218 75.800134 
L 225.12195 75.799964 
L 225.014375 75.8555 
L 224.858956 76.43604 
L 224.914109 76.634501 
L 224.853081 76.760731 
L 224.805264 76.694898 
L 224.413245 76.57431 
L 224.320732 76.38133 
L 224.049619 76.573115 
L 223.924623 76.660486 
L 223.401499 76.722851 
L 222.986573 76.980801 
L 222.805482 77.038728 
L 222.709125 77.259597 
L 222.645218 77.351316 
L 222.196458 77.580147 
L 222.124727 77.838583 
L 222.077955 77.974652 
L 221.766279 78.059138 
L 221.535981 78.047098 
L 221.558428 78.208181 
L 221.630246 78.49289 
L 221.707748 78.533241 
L 221.614769 78.601384 
L 221.550402 78.929076 
L 220.851163 79.499651 
L 220.909295 79.601497 
L 220.864877 79.634058 
L 220.701465 79.683557 
L 220.608579 79.677824 
L 220.643175 79.581406 
L 220.645638 79.498277 
L 219.881277 79.587785 
L 219.655309 79.721509 
L 219.613426 79.95609 
L 219.276517 80.044629 
L 219.207014 79.99672 
L 219.049186 79.777217 
L 218.784019 79.719685 
L 218.650121 79.331039 
L 218.515446 78.804211 
L 218.357322 78.714918 
L 217.447139 79.150215 
L 217.360089 78.976238 
L 217.426082 78.94374 
L 217.741569 78.631717 
L 218.230739 78.481101 
L 218.440846 78.398637 
L 218.363197 78.286162 
L 218.422724 78.088339 
L 219.44749 77.419504 
L 219.375108 77.389521 
L 219.218128 77.02021 
L 219.255565 76.937961 
L 219.210294 76.905714 
L 218.859976 76.847787 
L 217.938312 76.734369 
L 217.044498 77.238824 
L 217.155101 77.313418 
L 217.452416 77.712226 
L 217.360872 78.000583 
L 217.340391 77.994877 
L 217.080884 77.873472 
L 216.966745 77.759856 
L 216.227234 77.922188 
L 216.148714 77.939098 
L 216.123645 77.886715 
L 216.199558 77.728858 
L 216.730769 77.348378 
L 216.671357 77.222795 
L 216.399795 77.075728 
L 216.145593 77.158732 
L 216.017898 77.199452 
L 215.66394 77.224978 
L 215.45495 77.296418 
L 215.155948 77.334487 
L 215.209541 77.409611 
L 215.052178 77.674436 
L 215.035688 77.653599 
L 214.436601 77.910041 
L 214.285271 78.487867 
L 214.169988 78.436473 
L 213.801976 78.507364 
L 213.422899 78.167057 
L 213.154392 77.887389 
L 212.636354 77.561889 
L 212.559553 77.281314 
L 212.595413 77.159307 
L 212.376229 76.860339 
L 212.101951 76.601463 
L 211.838333 76.698618 
L 211.515598 76.957818 
L 211.338323 77.03171 
L 211.012998 77.037883 
L 210.913034 76.984036 
L 210.906124 76.992266 
L 210.754439 77.215625 
L 210.684186 77.291359 
L 210.632548 77.258438 
L 210.424329 77.108631 
L 210.421537 77.208832 
L 210.374651 77.440385 
L 210.370161 77.439756 
L 210.255425 77.380733 
L 210.121473 77.052097 
L 210.247591 76.966389 
L 210.096125 76.955428 
L 209.881057 77.150474 
L 209.841425 77.287568 
L 209.812742 77.291611 
L 209.53587 77.422604 
L 209.541071 77.547307 
L 208.773846 77.722146 
L 208.545962 77.844504 
L 207.50377 77.514808 
L 207.319728 77.146018 
L 206.90022 77.032834 
L 206.66644 76.889846 
L 206.252921 76.708178 
L 206.302381 76.675787 
L 206.913431 75.917191 
L 207.191119 75.104586 
L 207.233861 74.519096 
L 206.672139 74.437153 
L 206.483926 74.604184 
L 205.755172 74.704637 
L 205.488467 74.712867 
L 205.263709 74.715724 
L 205.128809 74.573365 
L 204.74549 74.464656 
L 203.667202 74.330186 
L 203.418798 74.298307 
L 203.254422 74.307346 
L 203.102282 74.294839 
L 202.855603 74.158977 
L 202.618527 74.062621 
L 202.37187 73.952177 
L 202.121321 73.627594 
L 202.230801 73.5214 
L 202.435312 73.335734 
L 202.388738 73.319192 
L 202.228824 72.960277 
L 202.709404 72.400016 
L 202.637947 72.361533 
L 202.491862 72.294676 
L 202.334735 72.378632 
L 202.238443 72.103726 
L 202.140948 71.887475 
L 201.301899 71.7689 
L 200.123268 71.7912 
L 200.133632 71.873494 
L 200.058589 71.976876 
L 199.647446 72.085972 
L 199.569277 72.058837 
L 199.31069 72.409127 
L 199.196179 72.438598 
L 199.095185 72.589079 
L 198.784538 72.689522 
L 198.66816 72.557191 
L 198.448543 72.361524 
L 197.081354 71.850439 
L 195.363832 71.015219 
L 194.152785 70.977536 
L 193.208455 71.160524 
L 193.148687 71.63416 
L 192.945001 71.740804 
L 192.644751 71.682859 
L 192.233549 71.719877 
L 190.933153 71.815846 
L 190.1791 72.23356 
L 190.179631 72.194133 
L 190.106855 72.035242 
L 189.872516 71.741109 
L 189.731939 71.633846 
L 189.554774 71.407783 
L 189.508544 71.188665 
L 189.411273 71.069416 
L 189.422666 70.726126 
L 189.389894 70.250666 
L 189.171618 69.960647 
L 187.518896 69.407018 
L 187.231118 68.916481 
L 187.589324 68.16483 
L 187.377629 67.566006 
L 187.202353 67.521998 
L 186.612381 67.477612 
L 185.957412 67.148266 
L 185.566663 67.077006 
L 184.938367 66.513735 
L 183.813943 66.00504 
L 183.560869 65.805006 
L 182.778818 65.586338 
L 182.662916 65.268897 
L 181.068868 65.258654 
L 180.810566 65.457762 
L 180.518758 65.503766 
L 180.260675 65.491636 
L 180.107325 65.563606 
L 179.887183 65.50089 
L 179.859808 65.376268 
L 179.869116 65.116332 
L 179.54101 64.886585 
L 179.187227 64.659803 
L 178.948963 64.212709 
L 178.690113 63.893022 
L 178.568846 63.373059 
L 178.31246 62.506544 
L 177.827446 62.656414 
L 177.386339 62.963522 
L 176.659283 62.933961 
L 176.507466 62.957403 
L 176.136602 62.929828 
L 176.133208 62.951303 
L 175.987742 63.178983 
L 175.882297 63.501994 
L 176.024751 63.641531 
L 175.892973 63.857172 
L 174.945719 64.10992 
L 174.347704 63.115638 
L 174.201034 62.460541 
L 174.084749 62.201054 
L 173.497465 62.391087 
L 173.498122 62.319386 
L 173.419503 62.206625 
L 173.4137 62.342298 
L 173.377566 62.890474 
L 173.155727 63.227412 
L 173.150525 63.355718 
L 173.04404 63.344577 
L 171.711195 63.232803 
L 171.715137 63.333974 
L 171.741307 63.775947 
L 171.641829 63.765165 
L 170.297213 63.573784 
L 170.25982 63.572437 
L 170.126727 61.796459 
L 170.056431 61.638772 
L 169.920485 61.507312 
L 169.248621 61.401477 
L 169.120012 61.34427 
L 168.794808 61.414146 
L 168.239907 61.365492 
L 168.339691 61.474373 
L 168.519862 61.778516 
L 168.377561 62.056179 
L 168.42586 62.277813 
L 168.606912 62.418428 
L 168.849331 63.298007 
L 167.669787 63.93243 
L 166.542521 64.64744 
L 166.632588 64.744083 
L 166.738197 65.036275 
L 166.923027 65.966853 
L 166.829079 66.452224 
L 167.012704 67.426828 
L 166.760808 67.771224 
L 165.890859 67.783084 
L 165.518571 68.249406 
L 164.947766 67.952542 
L 164.761075 67.902136 
L 164.613529 67.942658 
L 164.317341 68.00169 
L 164.143406 68.551572 
L 163.357933 69.615937 
L 163.309043 69.682696 
L 163.332202 69.730317 
L 163.071162 70.147311 
L 162.978309 70.224672 
L 162.861696 70.265105 
L 162.878886 70.176063 
L 162.796819 70.067614 
L 162.719022 70.027541 
L 160.654303 69.963568 
L 159.89281 69.613871 
L 159.776415 70.386402 
L 159.394984 70.905826 
L 159.224937 71.050036 
L 158.945064 71.229916 
L 158.653365 71.434594 
L 158.388548 71.976211 
L 158.274562 72.202454 
L 158.210562 72.333545 
L 158.181983 72.357176 
L 158.10988 72.286284 
L 158.079768 72.281342 
L 158.001862 72.304793 
L 157.78922 72.31827 
L 157.468505 72.170916 
L 157.258107 72.074237 
L 157.041523 72.088254 
L 156.685715 72.062377 
L 156.493877 72.058244 
L 155.562172 71.885822 
L 155.508119 71.92381 
L 154.787748 71.801614 
L 154.603192 71.917943 
L 154.887313 72.235851 
L 155.045552 72.509193 
L 155.852069 72.76576 
L 156.665863 73.822578 
L 156.654114 73.849407 
L 156.400307 73.925402 
L 156.394252 74.150683 
L 155.890338 74.117097 
L 155.733386 74.246248 
L 155.724988 74.302629 
L 155.283438 74.32519 
L 155.103141 74.255215 
L 154.914534 74.277228 
L 154.504683 74.359899 
L 154.11573 74.159857 
L 153.885717 74.256886 
L 153.064236 74.275404 
L 151.309715 75.083319 
L 150.910349 75.185056 
L 150.921041 75.112466 
L 150.862072 74.971348 
L 150.78071 73.863423 
L 150.161087 73.955502 
L 150.158503 73.804383 
L 149.747387 73.639535 
L 149.813091 73.327099 
L 149.468823 73.085195 
L 149.260008 72.754924 
L 148.982703 72.807136 
L 148.851176 72.977798 
L 147.274586 72.782733 
L 147.201651 72.935954 
L 147.073452 73.067207 
L 146.697611 73.205029 
L 145.87779 73.164812 
L 145.434609 72.951184 
L 145.024386 73.260214 
L 144.876204 73.575553 
L 144.78068 73.988693 
L 144.136572 74.197612 
L 142.78145 75.561762 
L 142.633652 75.593919 
L 142.461442 75.613866 
L 141.862644 75.545328 
L 141.320998 75.871898 
L 141.234896 76.08168 
L 141.325159 76.10602 
L 141.563007 76.376173 
L 141.587534 76.582082 
L 141.491807 78.044349 
L 142.069477 78.287672 
L 141.889996 79.047561 
L 142.16025 79.425965 
L 142.132295 79.875935 
L 141.9832 79.879951 
L 141.625486 80.51822 
L 141.442851 80.918556 
L 141.503239 81.161556 
L 141.279871 81.204899 
L 141.226935 81.013087 
L 141.147507 81.087393 
L 141.362519 82.323237 
L 140.964379 82.573398 
L 141.063183 82.93385 
L 140.394757 83.063306 
L 140.297021 83.42719 
L 139.950897 83.346406 
L 139.751252 83.434854 
L 138.917793 83.406686 
L 138.540611 83.801973 
L 138.443931 83.684215 
L 138.36575 83.313314 
L 137.478189 83.098545 
L 137.018408 83.210085 
L 136.948631 83.28706 
L 136.988422 82.836929 
L 136.957386 82.58958 
L 136.059641 82.08482 
L 135.397987 82.21858 
L 135.405641 82.255984 
L 135.343502 82.347623 
L 134.863053 82.304054 
L 134.563767 82.156008 
L 133.98112 82.060623 
L 133.98112 82.065107 
L 133.930199 82.217124 
L 133.632987 82.386716 
L 132.935243 82.213611 
L 132.6748 82.082951 
L 132.462947 83.013808 
L 133.001461 84.293714 
L 132.950649 84.310956 
L 132.841514 84.361012 
L 132.40556 84.749497 
L 132.170695 84.578853 
L 132.139593 84.654283 
L 131.952392 84.739434 
L 131.430735 84.59083 
L 131.37003 84.540119 
L 131.325504 84.609124 
L 131.233083 84.586724 
L 130.986629 84.388722 
L 130.732865 84.227647 
L 129.366399 84.394481 
L 129.107386 84.319115 
L 129.159095 84.230199 
L 129.206327 84.179092 
L 129.103882 84.144455 
L 128.702183 83.971179 
L 128.469908 83.933909 
L 128.367934 83.909497 
L 128.375982 83.982221 
L 128.229312 84.046033 
L 127.72397 84.241188 
L 127.50836 84.212274 
L 127.130149 84.189164 
L 126.663481 83.922893 
L 126.666442 83.891086 
L 126.564211 83.903072 
L 126.455547 83.774901 
L 125.601918 83.711916 
M 181.336827 163.302715 
L 181.353493 163.232093 
L 181.449017 163.291124 
L 181.455664 163.383077 
L 181.336827 163.302715 
M 225.359563 146.824126 
L 225.891107 146.430196 
L 225.996317 146.301629 
L 226.023182 146.314532 
L 226.247732 146.433269 
L 226.436723 146.192605 
L 226.697521 145.964862 
L 226.760323 145.626091 
L 226.940307 145.338723 
L 227.263492 145.028695 
L 227.039248 144.69961 
L 226.947299 144.560782 
L 226.587231 144.146996 
L 226.540235 143.956298 
L 226.678162 143.511126 
L 226.652868 143.266554 
L 226.572657 143.197369 
L 226.600294 142.778425 
L 226.575602 142.688773 
L 227.171432 141.592529 
L 227.563764 141.397392 
L 229.765572 138.774037 
L 229.615578 138.688042 
L 228.4515 137.929994 
L 228.333961 137.827251 
L 226.949171 138.07025 
L 227.471431 135.279361 
L 227.667544 134.570416 
L 227.795923 134.695829 
L 228.038009 134.875745 
L 228.507968 134.847047 
L 228.5306 134.271943 
L 228.595335 133.862873 
L 228.678519 133.681699 
L 228.891731 133.169886 
L 228.823427 132.315744 
L 228.713684 132.113212 
L 227.753532 132.435118 
L 227.594466 131.914293 
L 227.716183 131.794083 
L 227.994216 131.709363 
L 228.281929 131.576331 
L 228.695688 131.348237 
L 229.263695 130.795102 
L 229.6292 130.80645 
L 230.030783 131.037661 
L 230.963797 131.464845 
L 231.156062 131.535413 
L 231.742995 131.781755 
L 231.839779 131.822107 
L 231.856893 131.742257 
L 231.874216 131.662497 
L 232.467243 131.601884 
L 232.464379 131.229976 
L 231.577294 130.175378 
L 231.61749 129.941795 
L 231.877719 129.743163 
L 232.5997 128.139877 
L 232.699331 128.081654 
L 234.661918 128.12843 
L 234.999873 128.06407 
L 234.964078 127.258142 
L 234.875091 126.962328 
L 234.903505 126.968905 
L 235.412915 127.035888 
L 236.074087 126.734746 
L 236.13327 125.889661 
L 235.956614 125.878223 
L 236.003862 125.160482 
L 236.107495 125.188659 
L 237.158069 125.284035 
L 237.377642 125.333156 
L 237.500267 125.461103 
L 237.446477 125.495668 
L 237.013829 125.896274 
L 237.418528 126.919793 
L 237.334232 127.223846 
L 237.43256 127.62562 
L 237.504992 127.866921 
L 237.482529 127.868134 
L 237.376886 128.01609 
L 237.090197 128.174937 
L 237.480103 128.100819 
L 237.849199 128.162771 
L 238.84053 128.506448 
L 239.053435 128.552047 
L 239.060284 128.523995 
L 239.258588 128.5329 
L 239.743421 128.473958 
L 239.817386 128.568947 
L 239.861409 128.522189 
L 240.10863 128.548776 
L 240.111176 128.534301 
L 240.43909 128.365131 
L 240.442479 128.379112 
L 240.45027 128.40038 
L 241.134403 127.875071 
L 241.200298 127.617964 
L 241.358603 127.516649 
L 241.474395 127.406259 
L 241.427191 127.352709 
L 241.506877 127.326535 
L 241.486352 127.352511 
L 241.536398 127.340956 
L 241.53712 127.354425 
L 241.848495 127.157024 
L 242.309207 126.279224 
L 242.309689 126.296826 
L 242.973193 126.74729 
L 243.168453 126.802619 
L 243.228812 126.809637 
L 243.215755 126.889729 
L 243.273476 127.001889 
L 243.609931 127.300668 
L 243.755304 127.431256 
L 243.756547 127.421408 
L 244.078297 127.253658 
L 244.2977 127.207834 
L 244.310166 126.630134 
L 244.600419 126.550733 
L 244.770385 126.182869 
L 245.858051 126.159589 
L 246.09435 125.976789 
L 246.340136 125.856587 
L 246.475874 125.585509 
L 246.446611 125.538859 
L 245.701603 125.334351 
L 245.202337 124.987341 
L 245.290723 124.889728 
L 245.682326 124.420404 
L 246.031455 124.587283 
L 246.556759 123.877143 
L 246.6086 123.935213 
L 246.652721 123.977829 
L 246.773901 123.833611 
L 246.632651 124.167764 
L 246.505657 124.50241 
L 246.544736 124.516894 
L 246.573796 124.638641 
L 246.635552 124.587561 
L 247.009422 124.391104 
L 247.263235 124.257596 
L 247.238423 124.408436 
L 247.095404 125.278419 
L 247.637324 125.85134 
L 248.742635 126.469176 
L 248.951681 126.399884 
L 248.976898 126.478934 
L 249.090418 126.580285 
L 249.157348 126.571543 
L 249.151227 126.680153 
L 248.977686 127.524583 
L 248.796984 127.998776 
L 248.216631 128.325678 
L 248.089604 128.89593 
L 247.95776 129.237019 
L 247.714163 130.166384 
L 247.777551 130.160185 
L 247.840735 130.154129 
L 248.440787 131.317526 
L 249.513873 131.351633 
L 250.749721 131.906413 
L 251.36554 132.497286 
L 251.647126 133.00838 
L 251.683134 133.036521 
L 251.744069 133.017168 
L 252.135907 133.137576 
L 252.224999 133.212942 
L 252.397199 133.316998 
L 252.683439 135.160076 
L 255.433058 135.926309 
L 255.383948 136.006132 
L 255.134505 136.198007 
L 254.730895 136.17983 
L 254.835558 136.896106 
L 254.849781 136.890886 
L 255.653748 136.87846 
L 256.118817 136.929234 
L 256.487601 136.922154 
L 256.487338 137.358799 
L 255.916117 137.769836 
L 255.299007 138.372219 
L 254.999069 138.973109 
L 254.868719 139.526577 
L 254.842522 140.19553 
L 254.998587 140.228756 
L 254.957252 140.285173 
L 254.151616 141.554783 
L 254.217708 141.822401 
L 254.254236 141.897112 
L 254.226232 141.929368 
L 253.994094 142.240016 
L 254.066761 142.262847 
L 254.255511 142.253907 
L 254.339336 142.201237 
L 254.524029 142.359005 
L 254.617764 142.617198 
L 254.625533 142.610711 
L 254.627547 142.484885 
L 254.61541 142.476295 
L 254.625357 142.407766 
L 254.674362 142.409204 
L 254.75187 142.411261 
L 254.726472 142.343559 
L 254.759074 141.966171 
L 254.84925 141.974545 
L 254.98346 141.930006 
L 255.320309 141.757862 
L 255.709574 141.507189 
L 255.825235 141.49178 
L 256.408041 141.701301 
L 256.909765 141.959468 
L 257.175003 142.003521 
L 257.68749 142.382527 
L 258.013866 142.697776 
L 258.697031 143.08777 
L 258.928079 143.658435 
L 259.133467 143.590922 
L 259.070671 143.19719 
L 259.009106 143.09246 
L 258.854826 142.581914 
L 258.795977 142.453123 
L 258.937589 142.496251 
L 259.159346 142.697982 
L 259.652989 142.924791 
L 259.758637 143.031722 
L 260.20242 143.752859 
L 260.583128 144.054576 
L 261.812526 144.34782 
L 261.890997 144.542893 
L 261.823887 144.69934 
L 261.895459 144.713546 
L 261.971411 144.728038 
L 261.951976 144.803926 
L 261.875355 145.136129 
L 262.195025 145.199887 
L 262.15778 145.279098 
L 262.078499 145.330322 
L 261.827391 145.29236 
L 261.838389 145.243509 
L 261.929009 144.849489 
L 261.874698 144.851511 
L 261.485039 144.971604 
L 261.233789 145.339882 
L 261.146082 145.623054 
L 260.301607 145.40718 
L 260.095239 145.250697 
L 260.7165 145.614105 
L 261.028171 145.76588 
L 261.065301 146.030075 
L 261.128754 146.067659 
L 261.123925 146.066958 
L 261.008691 146.214007 
L 260.848996 146.282491 
L 260.498635 147.035804 
L 260.540616 147.270897 
L 260.925567 147.984594 
L 260.872812 148.007668 
L 260.748167 148.16708 
L 260.527849 148.598001 
L 260.391663 148.597372 
L 260.258422 148.630132 
L 260.168361 148.706253 
L 259.984117 148.695992 
L 259.663933 148.660573 
L 259.428538 148.903007 
L 259.026675 149.193528 
L 258.922823 149.262641 
L 258.775321 149.433194 
L 258.779295 149.315922 
L 258.708736 149.466789 
L 258.536602 149.664855 
L 258.23702 149.932887 
L 258.191015 149.839452 
L 258.125596 149.908609 
L 258.151914 150.086378 
L 258.374334 150.157539 
L 258.640038 150.281775 
L 258.782816 150.250157 
L 258.764781 150.324777 
L 258.693948 150.615002 
L 258.880601 150.63724 
L 258.873944 150.666082 
L 258.684931 151.054783 
L 258.146899 151.526146 
L 257.86926 151.316004 
L 257.500739 151.492119 
L 257.120737 151.803998 
L 256.972818 152.235737 
L 256.884947 152.381519 
L 256.763275 152.675078 
L 256.778533 152.683209 
L 256.705598 152.741665 
L 256.491193 152.96001 
L 256.341396 153.415101 
L 256.192563 153.709397 
L 256.172361 153.745319 
L 256.114947 154.094467 
L 255.885114 154.1017 
L 255.608602 153.809939 
L 255.387907 153.50913 
L 255.381332 153.247109 
L 255.441045 153.241214 
L 255.573525 152.010501 
L 255.820445 151.750708 
L 255.941871 151.636661 
L 255.935531 151.270001 
L 255.676693 151.211095 
L 255.694234 151.15094 
L 255.708255 150.609252 
L 255.146248 150.642766 
L 254.932758 150.263419 
L 254.839018 150.316871 
L 253.690318 150.958266 
L 253.732682 150.839196 
L 253.684646 150.592863 
L 253.21604 149.869875 
L 253.092758 149.706285 
L 253.045697 149.528858 
L 253.042685 149.339768 
L 252.985944 149.164057 
L 252.948672 149.152457 
L 251.264863 149.652267 
L 249.839926 149.577287 
L 249.833154 149.126599 
L 250.000985 148.531198 
L 249.817376 148.653933 
L 249.414166 148.742741 
L 248.948056 148.498762 
L 248.570529 148.505662 
L 246.788853 148.952415 
L 246.572997 148.027543 
L 245.901313 146.694095 
L 245.267428 146.926833 
L 243.839786 147.555775 
L 243.430324 147.800482 
L 243.498179 148.204413 
L 243.879238 149.975314 
L 243.489551 150.728061 
L 241.788584 150.577247 
L 241.633395 149.624009 
L 240.798961 149.627909 
L 240.790015 149.086534 
L 239.671844 148.270668 
L 239.304483 147.89752 
L 239.320289 147.535029 
L 239.257794 147.569666 
L 237.607765 148.668417 
L 237.544942 148.55942 
L 236.78813 147.199007 
L 236.769455 147.127918 
L 236.682389 147.190175 
L 235.308105 148.211726 
L 234.832929 148.062234 
L 234.514125 148.02208 
L 234.192523 148.106377 
L 234.174565 147.960865 
L 233.934763 146.69148 
L 232.318651 146.926124 
L 231.720346 147.165421 
L 231.05095 147.341456 
L 229.244304 148.463612 
L 229.161853 148.915487 
L 229.354824 148.890481 
L 229.901873 148.805762 
L 229.913841 148.892054 
L 229.926532 148.979568 
L 229.597632 149.101872 
L 228.915212 149.051735 
L 228.359167 148.887004 
L 228.366148 148.871119 
L 228.362923 148.835493 
L 228.255573 148.875054 
L 227.660553 149.453707 
L 227.684379 149.478488 
L 227.814242 149.728792 
L 227.776362 149.717516 
L 227.461165 149.524024 
L 227.491852 149.342104 
L 227.799657 149.251149 
L 228.130106 148.948201 
L 227.947423 148.914211 
L 227.920788 148.823965 
L 228.023232 148.804764 
L 228.083702 148.780729 
L 227.911415 148.714285 
L 227.832232 148.645029 
L 227.778234 148.70822 
L 227.354385 148.869394 
L 226.892091 148.37936 
L 226.605511 148.112101 
L 226.377233 147.735826 
L 226.463347 147.757624 
L 226.643545 147.646488 
L 226.638355 147.618662 
L 226.499705 147.416777 
L 226.386705 147.403785 
L 226.403644 147.498496 
L 226.321461 147.730157 
L 226.03884 147.389049 
L 226.028794 147.34859 
L 225.94896 147.365617 
L 225.803313 147.412069 
L 225.839595 147.478828 
L 225.854859 147.741846 
L 225.460458 147.444262 
L 225.461591 147.370522 
L 225.359563 146.824126 
M 248.08517 128.911591 
L 248.195383 128.830995 
L 248.08517 128.911591 
" style="fill:none;stroke:#ffc0cb;"/>
    <path clip-path="url(#p7cbdfedb59)" d="M 177.71565 107.143101 
L 177.72447 107.146983 
L 177.742548 107.154934 
L 177.751992 107.156426 
L 177.762591 107.155006 
L 177.774592 107.149382 
L 177.807605 107.115697 
L 177.810819 107.118536 
L 177.873538 107.06087 
L 177.938371 107.004184 
L 177.889426 106.968486 
L 177.860114 107.004013 
L 177.849947 106.992036 
L 177.813917 107.03803 
L 177.775544 107.087295 
L 177.76039 107.075561 
L 177.755775 107.074995 
L 177.749522 107.082326 
L 177.751729 107.086109 
L 177.736673 107.109317 
L 177.71565 107.143101 
" style="fill:none;stroke:#ffc0cb;"/>
    <path clip-path="url(#p7cbdfedb59)" d="M 180.011362 163.872652 
L 180.030114 163.879158 
L 180.06316 163.89038 
L 180.104407 163.811527 
L 180.077772 163.800646 
L 180.053748 163.791374 
L 180.011362 163.872652 
" style="fill:none;stroke:#ffc0cb;"/>
    <path clip-path="url(#p7cbdfedb59)" d="M 180.151452 163.590388 
L 180.153571 163.604962 
L 180.163825 163.612177 
L 180.177228 163.610254 
L 180.18256 163.618978 
L 180.192579 163.64056 
L 180.199313 163.667327 
L 180.20314 163.676087 
L 180.209704 163.682718 
L 180.22044 163.68341 
L 180.24673 163.694264 
L 180.268728 163.69332 
L 180.276984 163.791473 
L 180.284852 163.836029 
L 180.300285 163.898817 
L 180.351327 163.892222 
L 180.43888 163.900272 
L 180.469342 163.898466 
L 180.500368 163.883659 
L 180.530063 163.876183 
L 180.559622 163.885465 
L 180.589525 163.887576 
L 180.593155 163.919096 
L 180.596024 163.945188 
L 180.375241 164.320771 
L 180.599281 163.946177 
L 180.596785 163.920318 
L 180.668078 163.944254 
L 180.713437 163.958387 
L 180.743373 163.909185 
L 180.781544 163.930067 
L 180.783016 163.924047 
L 180.799452 163.904864 
L 180.81799 163.869418 
L 180.81759 163.830468 
L 180.828222 163.812713 
L 180.807144 163.79681 
L 180.779918 163.781499 
L 180.748125 163.775228 
L 180.664744 163.74945 
L 180.62602 163.760016 
L 180.59004 163.771634 
L 180.582479 163.764545 
L 180.543893 163.756755 
L 180.506281 163.749926 
L 180.465909 163.759477 
L 180.419899 163.751319 
L 180.397759 163.744355 
L 180.372175 163.744625 
L 180.355099 163.739629 
L 180.34456 163.739027 
L 180.338039 163.734094 
L 180.326553 163.722818 
L 180.318226 163.71307 
L 180.307649 163.706915 
L 180.302415 163.703024 
L 180.29365 163.702234 
L 180.283034 163.693267 
L 180.2763 163.689089 
L 180.268619 163.690805 
L 180.257565 163.689628 
L 180.247683 163.691721 
L 180.221294 163.679798 
L 180.209737 163.677839 
L 180.206562 163.673787 
L 180.204437 163.67093 
L 180.194971 163.639356 
L 180.185122 163.616265 
L 180.178082 163.607127 
L 180.163896 163.608322 
L 180.155487 163.602105 
L 180.154118 163.590703 
L 180.159829 163.581556 
L 180.156752 163.579121 
L 180.151452 163.590388 
" style="fill:none;stroke:#ffc0cb;"/>
    <path clip-path="url(#p7cbdfedb59)" d="M 180.909162 164.035955 
L 180.911133 164.037393 
L 180.911034 164.059397 
L 180.960236 164.070323 
L 181.01741 164.048543 
L 181.07547 164.060969 
L 181.149523 164.077843 
L 181.206948 164.072407 
L 181.228037 164.03821 
L 181.186494 164.000743 
L 181.195774 163.952062 
L 181.155655 163.932951 
L 181.106721 163.938216 
L 181.046925 163.914316 
L 181.067439 163.909293 
L 181.079489 163.913004 
L 181.089092 163.911854 
L 181.10239 163.901494 
L 181.120139 163.880272 
L 181.125888 163.874764 
L 181.132781 163.865869 
L 181.135715 163.854521 
L 181.152485 163.840504 
L 181.17186 163.837171 
L 181.185755 163.826478 
L 181.193245 163.8231 
L 181.210282 163.82168 
L 181.210392 163.819389 
L 181.193026 163.820701 
L 181.183368 163.82452 
L 181.170557 163.833684 
L 181.151833 163.837332 
L 181.136909 163.848519 
L 181.133 163.854197 
L 181.130071 163.864072 
L 181.125346 163.873012 
L 181.117911 163.878798 
L 181.100113 163.900182 
L 181.088336 163.909239 
L 181.080792 163.910111 
L 181.069607 163.905582 
L 181.04779 163.910165 
L 181.041702 163.91348 
L 181.017289 163.928063 
L 180.994788 163.942125 
L 180.942701 163.951873 
L 180.931384 163.967696 
L 180.925351 163.98076 
L 180.909162 164.035955 
" style="fill:none;stroke:#ffc0cb;"/>
    <path clip-path="url(#p7cbdfedb59)" d="M 181.25102 164.105966 
L 181.282539 164.118554 
L 181.292788 164.118689 
L 181.312338 164.129291 
L 181.341629 164.118366 
L 181.374702 164.128644 
L 181.412878 164.129121 
L 181.442125 164.100755 
L 181.445508 164.091069 
L 181.448026 164.074627 
L 181.449362 164.066279 
L 181.429445 164.049226 
L 181.390705 164.042514 
L 181.35485 164.03989 
L 181.331035 164.029944 
L 181.299084 164.029144 
L 181.279095 164.026036 
L 181.253802 164.059783 
L 181.25102 164.105966 
" style="fill:none;stroke:#ffc0cb;"/>
    <path clip-path="url(#p7cbdfedb59)" d="M 181.445092 164.203211 
L 181.445273 164.205242 
L 181.455297 164.207641 
L 181.462787 164.212888 
L 181.455773 164.213436 
L 181.446926 164.213104 
L 181.447222 164.21517 
L 181.45625 164.215467 
L 181.464325 164.214802 
L 181.461204 164.218791 
L 181.453939 164.222592 
L 181.45545 164.223993 
L 181.463849 164.220741 
L 181.466712 164.214838 
L 181.477174 164.216024 
L 181.488447 164.22252 
L 181.49234 164.25403 
L 181.494349 164.261389 
L 181.502326 164.270194 
L 181.51275 164.276619 
L 181.522884 164.280383 
L 181.535673 164.280725 
L 181.544838 164.285774 
L 181.554676 164.288137 
L 181.566786 164.284373 
L 181.579685 164.287571 
L 181.589622 164.294041 
L 181.598934 164.305128 
L 181.607831 164.31264 
L 181.616996 164.3245 
L 181.623325 164.336486 
L 181.625892 164.345336 
L 181.635731 164.35176 
L 181.63676 164.349694 
L 181.66022 164.348562 
L 181.674208 164.332793 
L 181.677761 164.304499 
L 181.665963 164.28333 
L 181.644468 164.269682 
L 181.609386 164.247579 
L 181.588226 164.249124 
L 181.566129 164.234766 
L 181.549781 164.224955 
L 181.53103 164.216536 
L 181.490243 164.210417 
L 181.491015 164.22119 
L 181.489367 164.219375 
L 181.478132 164.21384 
L 181.467161 164.212547 
L 181.455297 164.205835 
L 181.445092 164.203211 
" style="fill:none;stroke:#ffc0cb;"/>
   </g>
   <g id="matplotlib.axis_1">
    <g id="xtick_1">
     <g id="line2d_1">
      <defs>
       <path d="M 0 0 
L 0 3.5 
" id="mb3018dc8ea" style="stroke:#000000;stroke-width:0.8;"/>
      </defs>
      <g>
       <use style="stroke:#000000;stroke-width:0.8;" x="165.774628" xlink:href="#mb3018dc8ea" y="252"/>
      </g>
     </g>
     <g id="text_1">
      <!-- 12 -->
      <defs>
       <path d="M 12.40625 8.296875 
L 28.515625 8.296875 
L 28.515625 63.921875 
L 10.984375 60.40625 
L 10.984375 69.390625 
L 28.421875 72.90625 
L 38.28125 72.90625 
L 38.28125 8.296875 
L 54.390625 8.296875 
L 54.390625 0 
L 12.40625 0 
z
" id="DejaVuSans-49"/>
       <path d="M 19.1875 8.296875 
L 53.609375 8.296875 
L 53.609375 0 
L 7.328125 0 
L 7.328125 8.296875 
Q 12.9375 14.109375 22.625 23.890625 
Q 32.328125 33.6875 34.8125 36.53125 
Q 39.546875 41.84375 41.421875 45.53125 
Q 43.3125 49.21875 43.3125 52.78125 
Q 43.3125 58.59375 39.234375 62.25 
Q 35.15625 65.921875 28.609375 65.921875 
Q 23.96875 65.921875 18.8125 64.3125 
Q 13.671875 62.703125 7.8125 59.421875 
L 7.8125 69.390625 
Q 13.765625 71.78125 18.9375 73 
Q 24.125 74.21875 28.421875 74.21875 
Q 39.75 74.21875 46.484375 68.546875 
Q 53.21875 62.890625 53.21875 53.421875 
Q 53.21875 48.921875 51.53125 44.890625 
Q 49.859375 40.875 45.40625 35.40625 
Q 44.1875 33.984375 37.640625 27.21875 
Q 31.109375 20.453125 19.1875 8.296875 
z
" id="DejaVuSans-50"/>
      </defs>
      <g transform="translate(159.412128 266.598437)scale(0.1 -0.1)">
       <use xlink:href="#DejaVuSans-49"/>
       <use x="63.623047" xlink:href="#DejaVuSans-50"/>
      </g>
     </g>
    </g>
    <g id="xtick_2">
     <g id="line2d_2">
      <g>
       <use style="stroke:#000000;stroke-width:0.8;" x="220.522832" xlink:href="#mb3018dc8ea" y="252"/>
      </g>
     </g>
     <g id="text_2">
      <!-- 13 -->
      <defs>
       <path d="M 40.578125 39.3125 
Q 47.65625 37.796875 51.625 33 
Q 55.609375 28.21875 55.609375 21.1875 
Q 55.609375 10.40625 48.1875 4.484375 
Q 40.765625 -1.421875 27.09375 -1.421875 
Q 22.515625 -1.421875 17.65625 -0.515625 
Q 12.796875 0.390625 7.625 2.203125 
L 7.625 11.71875 
Q 11.71875 9.328125 16.59375 8.109375 
Q 21.484375 6.890625 26.8125 6.890625 
Q 36.078125 6.890625 40.9375 10.546875 
Q 45.796875 14.203125 45.796875 21.1875 
Q 45.796875 27.640625 41.28125 31.265625 
Q 36.765625 34.90625 28.71875 34.90625 
L 20.21875 34.90625 
L 20.21875 43.015625 
L 29.109375 43.015625 
Q 36.375 43.015625 40.234375 45.921875 
Q 44.09375 48.828125 44.09375 54.296875 
Q 44.09375 59.90625 40.109375 62.90625 
Q 36.140625 65.921875 28.71875 65.921875 
Q 24.65625 65.921875 20.015625 65.03125 
Q 15.375 64.15625 9.8125 62.3125 
L 9.8125 71.09375 
Q 15.4375 72.65625 20.34375 73.4375 
Q 25.25 74.21875 29.59375 74.21875 
Q 40.828125 74.21875 47.359375 69.109375 
Q 53.90625 64.015625 53.90625 55.328125 
Q 53.90625 49.265625 50.4375 45.09375 
Q 46.96875 40.921875 40.578125 39.3125 
z
" id="DejaVuSans-51"/>
      </defs>
      <g transform="translate(214.160332 266.598437)scale(0.1 -0.1)">
       <use xlink:href="#DejaVuSans-49"/>
       <use x="63.623047" xlink:href="#DejaVuSans-51"/>
      </g>
     </g>
    </g>
    <g id="xtick_3">
     <g id="line2d_3">
      <g>
       <use style="stroke:#000000;stroke-width:0.8;" x="275.271037" xlink:href="#mb3018dc8ea" y="252"/>
      </g>
     </g>
     <g id="text_3">
      <!-- 14 -->
      <defs>
       <path d="M 37.796875 64.3125 
L 12.890625 25.390625 
L 37.796875 25.390625 
z
M 35.203125 72.90625 
L 47.609375 72.90625 
L 47.609375 25.390625 
L 58.015625 25.390625 
L 58.015625 17.1875 
L 47.609375 17.1875 
L 47.609375 0 
L 37.796875 0 
L 37.796875 17.1875 
L 4.890625 17.1875 
L 4.890625 26.703125 
z
" id="DejaVuSans-52"/>
      </defs>
      <g transform="translate(268.908537 266.598437)scale(0.1 -0.1)">
       <use xlink:href="#DejaVuSans-49"/>
       <use x="63.623047" xlink:href="#DejaVuSans-52"/>
      </g>
     </g>
    </g>
   </g>
   <g id="matplotlib.axis_2">
    <g id="ytick_1">
     <g id="line2d_4">
      <defs>
       <path d="M 0 0 
L -3.5 0 
" id="m3d23a63cf9" style="stroke:#000000;stroke-width:0.8;"/>
      </defs>
      <g>
       <use style="stroke:#000000;stroke-width:0.8;" x="116.02211" xlink:href="#m3d23a63cf9" y="229.453243"/>
      </g>
     </g>
     <g id="text_4">
      <!-- 51.5 -->
      <defs>
       <path d="M 10.796875 72.90625 
L 49.515625 72.90625 
L 49.515625 64.59375 
L 19.828125 64.59375 
L 19.828125 46.734375 
Q 21.96875 47.46875 24.109375 47.828125 
Q 26.265625 48.1875 28.421875 48.1875 
Q 40.625 48.1875 47.75 41.5 
Q 54.890625 34.8125 54.890625 23.390625 
Q 54.890625 11.625 47.5625 5.09375 
Q 40.234375 -1.421875 26.90625 -1.421875 
Q 22.3125 -1.421875 17.546875 -0.640625 
Q 12.796875 0.140625 7.71875 1.703125 
L 7.71875 11.625 
Q 12.109375 9.234375 16.796875 8.0625 
Q 21.484375 6.890625 26.703125 6.890625 
Q 35.15625 6.890625 40.078125 11.328125 
Q 45.015625 15.765625 45.015625 23.390625 
Q 45.015625 31 40.078125 35.4375 
Q 35.15625 39.890625 26.703125 39.890625 
Q 22.75 39.890625 18.8125 39.015625 
Q 14.890625 38.140625 10.796875 36.28125 
z
" id="DejaVuSans-53"/>
       <path d="M 10.6875 12.40625 
L 21 12.40625 
L 21 0 
L 10.6875 0 
z
" id="DejaVuSans-46"/>
      </defs>
      <g transform="translate(86.756485 233.252462)scale(0.1 -0.1)">
       <use xlink:href="#DejaVuSans-53"/>
       <use x="63.623047" xlink:href="#DejaVuSans-49"/>
       <use x="127.246094" xlink:href="#DejaVuSans-46"/>
       <use x="159.033203" xlink:href="#DejaVuSans-53"/>
      </g>
     </g>
    </g>
    <g id="ytick_2">
     <g id="line2d_5">
      <g>
       <use style="stroke:#000000;stroke-width:0.8;" x="116.02211" xlink:href="#m3d23a63cf9" y="184.528168"/>
      </g>
     </g>
     <g id="text_5">
      <!-- 52.0 -->
      <defs>
       <path d="M 31.78125 66.40625 
Q 24.171875 66.40625 20.328125 58.90625 
Q 16.5 51.421875 16.5 36.375 
Q 16.5 21.390625 20.328125 13.890625 
Q 24.171875 6.390625 31.78125 6.390625 
Q 39.453125 6.390625 43.28125 13.890625 
Q 47.125 21.390625 47.125 36.375 
Q 47.125 51.421875 43.28125 58.90625 
Q 39.453125 66.40625 31.78125 66.40625 
z
M 31.78125 74.21875 
Q 44.046875 74.21875 50.515625 64.515625 
Q 56.984375 54.828125 56.984375 36.375 
Q 56.984375 17.96875 50.515625 8.265625 
Q 44.046875 -1.421875 31.78125 -1.421875 
Q 19.53125 -1.421875 13.0625 8.265625 
Q 6.59375 17.96875 6.59375 36.375 
Q 6.59375 54.828125 13.0625 64.515625 
Q 19.53125 74.21875 31.78125 74.21875 
z
" id="DejaVuSans-48"/>
      </defs>
      <g transform="translate(86.756485 188.327387)scale(0.1 -0.1)">
       <use xlink:href="#DejaVuSans-53"/>
       <use x="63.623047" xlink:href="#DejaVuSans-50"/>
       <use x="127.246094" xlink:href="#DejaVuSans-46"/>
       <use x="159.033203" xlink:href="#DejaVuSans-48"/>
      </g>
     </g>
    </g>
    <g id="ytick_3">
     <g id="line2d_6">
      <g>
       <use style="stroke:#000000;stroke-width:0.8;" x="116.02211" xlink:href="#m3d23a63cf9" y="139.603094"/>
      </g>
     </g>
     <g id="text_6">
      <!-- 52.5 -->
      <g transform="translate(86.756485 143.402313)scale(0.1 -0.1)">
       <use xlink:href="#DejaVuSans-53"/>
       <use x="63.623047" xlink:href="#DejaVuSans-50"/>
       <use x="127.246094" xlink:href="#DejaVuSans-46"/>
       <use x="159.033203" xlink:href="#DejaVuSans-53"/>
      </g>
     </g>
    </g>
    <g id="ytick_4">
     <g id="line2d_7">
      <g>
       <use style="stroke:#000000;stroke-width:0.8;" x="116.02211" xlink:href="#m3d23a63cf9" y="94.678019"/>
      </g>
     </g>
     <g id="text_7">
      <!-- 53.0 -->
      <g transform="translate(86.756485 98.477238)scale(0.1 -0.1)">
       <use xlink:href="#DejaVuSans-53"/>
       <use x="63.623047" xlink:href="#DejaVuSans-51"/>
       <use x="127.246094" xlink:href="#DejaVuSans-46"/>
       <use x="159.033203" xlink:href="#DejaVuSans-48"/>
      </g>
     </g>
    </g>
    <g id="ytick_5">
     <g id="line2d_8">
      <g>
       <use style="stroke:#000000;stroke-width:0.8;" x="116.02211" xlink:href="#m3d23a63cf9" y="49.752945"/>
      </g>
     </g>
     <g id="text_8">
      <!-- 53.5 -->
      <g transform="translate(86.756485 53.552163)scale(0.1 -0.1)">
       <use xlink:href="#DejaVuSans-53"/>
       <use x="63.623047" xlink:href="#DejaVuSans-51"/>
       <use x="127.246094" xlink:href="#DejaVuSans-46"/>
       <use x="159.033203" xlink:href="#DejaVuSans-53"/>
      </g>
     </g>
    </g>
   </g>
   <g id="patch_3">
    <path d="M 116.02211 252 
L 116.02211 34.56 
" style="fill:none;stroke:#000000;stroke-linecap:square;stroke-linejoin:miter;stroke-width:0.8;"/>
   </g>
   <g id="patch_4">
    <path d="M 326.77789 252 
L 326.77789 34.56 
" style="fill:none;stroke:#000000;stroke-linecap:square;stroke-linejoin:miter;stroke-width:0.8;"/>
   </g>
   <g id="patch_5">
    <path d="M 116.02211 252 
L 326.77789 252 
" style="fill:none;stroke:#000000;stroke-linecap:square;stroke-linejoin:miter;stroke-width:0.8;"/>
   </g>
   <g id="patch_6">
    <path d="M 116.02211 34.56 
L 326.77789 34.56 
" style="fill:none;stroke:#000000;stroke-linecap:square;stroke-linejoin:miter;stroke-width:0.8;"/>
   </g>
  </g>
 </g>
 <defs>
  <clipPath id="p7cbdfedb59">
   <rect height="217.44" width="210.75578" x="116.02211" y="34.56"/>
  </clipPath>
 </defs>
</svg>
