<?xml version="1.0" encoding="utf-8" standalone="no"?>
<!DOCTYPE svg PUBLIC "-//W3C//DTD SVG 1.1//EN"
  "http://www.w3.org/Graphics/SVG/1.1/DTD/svg11.dtd">
<!-- Created with matplotlib (https://matplotlib.org/) -->
<svg height="288pt" version="1.1" viewBox="0 0 432 288" width="432pt" xmlns="http://www.w3.org/2000/svg" xmlns:xlink="http://www.w3.org/1999/xlink">
 <defs>
  <style type="text/css">
*{stroke-linecap:butt;stroke-linejoin:round;}
  </style>
 </defs>
 <g id="figure_1">
  <g id="patch_1">
   <path d="M 0 288 
L 432 288 
L 432 0 
L 0 0 
z
" style="fill:#ffffff;"/>
  </g>
  <g id="axes_1">
   <g id="patch_2">
    <path d="M 152.21598 252 
L 290.58402 252 
L 290.58402 34.56 
L 152.21598 34.56 
z
" style="fill:#ffffff;"/>
   </g>
   <g id="PatchCollection_1">
    <path clip-path="url(#p3ac2a0ca19)" d="M 230.994723 97.405543 
L 284.182819 96.91081 
L 284.294564 44.443636 
L 229.850085 44.956431 
L 230.994723 97.405543 
" style="fill:none;stroke:#0000ff;stroke-opacity:0.2;"/>
    <path clip-path="url(#p3ac2a0ca19)" d="M 231.979844 145.162613 
L 284.08665 144.68362 
L 284.192566 92.208478 
L 230.894885 92.704796 
L 231.979844 145.162613 
" style="fill:none;stroke:#0000ff;stroke-opacity:0.2;"/>
    <path clip-path="url(#p3ac2a0ca19)" d="M 233.803183 240.757946 
L 283.908659 240.308629 
L 284.004072 187.817339 
L 232.825759 188.282658 
L 233.803183 240.757946 
" style="fill:none;stroke:#0000ff;stroke-opacity:0.2;"/>
    <path clip-path="url(#p3ac2a0ca19)" d="M 188.232645 242.116364 
L 238.292207 240.673108 
L 237.410829 188.194799 
L 186.281954 189.689417 
L 188.232645 242.116364 
" style="fill:none;stroke:#0000ff;stroke-opacity:0.2;"/>
    <path clip-path="url(#p3ac2a0ca19)" d="M 234.903597 101.686237 
L 238.427918 49.39306 
L 220.172216 48.421322 
L 218.60887 54.058173 
L 216.480049 61.787365 
L 214.35557 69.519592 
L 212.237621 77.253991 
L 210.129445 84.988119 
L 208.039232 92.726066 
L 206.039683 100.169088 
L 234.903597 101.686237 
" style="fill:none;stroke:#0000ff;stroke-opacity:0.2;"/>
    <path clip-path="url(#p3ac2a0ca19)" d="M 228.988701 196.97042 
L 232.159491 144.647585 
L 194.822291 142.705949 
L 193.73417 146.906171 
L 191.738093 154.650497 
L 189.744564 162.396573 
L 187.759237 170.145505 
L 185.781767 177.895546 
L 183.818355 185.647023 
L 181.866771 193.398559 
L 181.581497 194.538059 
L 228.988701 196.97042 
" style="fill:none;stroke:#0000ff;stroke-opacity:0.2;"/>
    <path clip-path="url(#p3ac2a0ca19)" d="M 206.572694 98.185034 
L 235.759704 97.312132 
L 234.727526 44.85961 
L 221.047602 45.273902 
L 220.751665 46.332039 
L 218.60887 54.058173 
L 216.480049 61.787365 
L 214.35557 69.519592 
L 212.237621 77.253991 
L 210.129445 84.988119 
L 208.039232 92.726066 
L 206.572694 98.185034 
" style="fill:none;stroke:#0000ff;stroke-opacity:0.2;"/>
    <path clip-path="url(#p3ac2a0ca19)" d="M 186.460202 194.358667 
L 237.491369 192.868713 
L 236.563178 140.399027 
L 195.102096 141.625883 
L 193.73417 146.906171 
L 191.738093 154.650497 
L 189.744564 162.396573 
L 187.759237 170.145505 
L 185.810602 177.782539 
L 186.460202 194.358667 
" style="fill:none;stroke:#0000ff;stroke-opacity:0.2;"/>
    <path clip-path="url(#p3ac2a0ca19)" d="M 231.869653 149.30739 
L 235.211037 96.999173 
L 207.286046 95.529689 
L 205.960159 100.465106 
L 203.88628 108.202081 
L 201.830354 115.940068 
L 199.792709 123.679845 
L 197.761183 131.420599 
L 195.74049 139.161638 
L 193.73417 146.906171 
L 193.627243 147.321023 
L 231.869653 149.30739 
" style="fill:none;stroke:#0000ff;stroke-opacity:0.2;"/>
    <path clip-path="url(#p3ac2a0ca19)" d="M 193.881837 146.336164 
L 236.648032 145.072173 
L 235.669675 92.611085 
L 207.846319 93.444156 
L 205.960159 100.465106 
L 203.88628 108.202081 
L 201.830354 115.940068 
L 199.792709 123.679845 
L 197.761183 131.420599 
L 195.74049 139.161638 
L 193.881837 146.336164 
" style="fill:none;stroke:#0000ff;stroke-opacity:0.2;"/>
   </g>
   <g id="PatchCollection_2">
    <path clip-path="url(#p3ac2a0ca19)" d="M 158.505436 98.986011 
L 158.610043 99.365557 
L 158.634092 100.153095 
L 158.948653 100.578355 
L 159.604958 101.14996 
L 160.011262 101.443872 
L 161.025716 102.583217 
L 161.373519 102.54545 
L 163.294966 101.548905 
L 163.960396 101.379456 
L 164.420356 101.309654 
L 164.813969 101.446047 
L 165.361424 102.021479 
L 166.432929 102.959546 
L 166.98071 102.965384 
L 167.706295 102.709716 
L 167.795978 102.790842 
L 168.23925 103.323888 
L 168.974219 103.604791 
L 169.245557 103.570682 
L 170.061522 103.257967 
L 170.481308 103.351016 
L 170.669982 103.572171 
L 170.618481 103.808881 
L 170.13934 104.711042 
L 170.337829 105.015725 
L 170.692538 105.188263 
L 171.047062 105.164436 
L 171.718773 104.992111 
L 171.941 105.22697 
L 172.04209 105.662347 
L 172.047736 106.19029 
L 172.244563 106.542845 
L 172.617645 106.678308 
L 173.019917 106.480842 
L 173.529027 106.137447 
L 173.952095 106.119935 
L 174.549442 106.407888 
L 174.875712 106.887028 
L 175.243676 107.421631 
L 175.587442 107.635614 
L 176.164151 107.717878 
L 176.924581 107.78743 
L 177.334468 108.124823 
L 177.384674 108.429979 
L 177.213379 108.785703 
L 176.656741 109.355458 
L 176.575505 109.810829 
L 176.745728 110.132869 
L 176.975892 110.275035 
L 177.387178 110.305141 
L 178.163442 110.331945 
L 178.375028 110.554503 
L 178.744345 111.021979 
L 179.21761 111.2049 
L 180.594786 111.458382 
L 181.178285 111.874328 
L 181.872169 112.021492 
L 181.86525 111.969526 
L 182.034887 111.754804 
L 182.204413 111.752374 
L 182.464472 111.731742 
L 182.466753 111.712497 
L 182.559773 111.465033 
L 182.574926 111.46886 
L 183.098614 111.348156 
L 183.363691 111.424991 
L 183.814273 111.418234 
L 183.857185 111.520619 
L 183.938164 111.455687 
L 184.122805 111.406655 
L 184.467002 111.528508 
L 184.426922 111.651201 
L 184.535433 111.639681 
L 184.828436 111.605142 
L 184.924627 111.972434 
L 185.024729 112.029019 
L 185.928586 112.076009 
L 186.223782 111.266456 
L 186.444564 111.132317 
L 186.175944 111.943981 
L 186.213027 112.136774 
L 186.518508 112.764693 
L 186.368725 113.283875 
L 186.418283 113.229431 
L 186.906656 113.028303 
L 187.925969 112.600932 
L 188.442514 112.094047 
L 188.65786 111.965629 
L 188.881765 112.512965 
L 189.067388 112.78154 
L 189.152048 112.833916 
L 189.309634 112.645482 
L 189.317768 112.598317 
L 189.400808 112.618125 
L 189.687607 112.788855 
L 189.864717 113.04398 
L 189.769679 113.30657 
L 189.887774 113.612752 
L 189.985696 113.844044 
L 190.003088 114.185951 
L 190.366086 115.452491 
L 190.628749 115.845551 
L 190.452896 115.912153 
L 190.562116 116.184657 
L 190.304127 116.335137 
L 190.255521 116.7327 
L 190.103257 116.832863 
L 190.079273 116.794623 
L 189.90826 116.748718 
L 189.884185 116.756963 
L 189.638004 116.655328 
L 189.402489 116.650995 
L 189.514971 116.800657 
L 189.402463 117.500297 
L 189.182481 117.503546 
L 189.164963 117.661315 
L 189.244643 118.036337 
L 189.20929 118.03462 
L 188.979868 118.087787 
L 188.94272 118.207232 
L 189.089023 118.627851 
L 189.388064 118.749151 
L 189.410254 119.082121 
L 189.329122 119.107267 
L 189.375502 119.166266 
L 189.409641 119.366454 
L 188.99346 119.752374 
L 188.790355 119.921052 
L 188.925541 119.982752 
L 188.952211 120.013735 
L 188.863748 120.119458 
L 188.933329 120.134726 
L 188.69786 120.496458 
L 188.756546 120.482981 
L 188.976917 120.401515 
L 189.097112 120.583415 
L 189.078262 120.602925 
L 188.921787 120.77693 
L 189.132191 120.942584 
L 189.317324 121.038111 
L 189.426538 121.124701 
L 189.525032 121.302135 
L 189.460712 121.324671 
L 189.31746 121.52481 
L 189.494307 122.045629 
L 189.731743 121.980936 
L 189.808991 122.020271 
L 189.80938 122.044188 
L 189.668719 122.251446 
L 189.646601 122.378015 
L 189.668495 122.396829 
L 189.896381 122.574529 
L 189.973561 122.834609 
L 190.00437 123.068506 
L 189.945544 123.375746 
L 189.979758 123.4239 
L 189.918963 123.487541 
L 189.829758 124.000736 
L 189.94031 124.543203 
L 189.763709 124.713082 
L 189.759987 125.155902 
L 189.853992 125.155859 
L 189.947656 125.155827 
L 189.628707 125.261795 
L 188.694847 125.746267 
L 188.010969 125.473477 
L 187.682343 125.279206 
L 187.708053 125.885403 
L 187.797177 125.853969 
L 187.953846 125.805814 
L 187.893731 125.868216 
L 187.808197 126.358903 
L 187.928262 126.546698 
L 187.894327 127.711725 
L 188.074803 128.02981 
L 188.154655 128.05671 
L 188.076127 128.149244 
L 187.349471 129.054362 
L 187.065671 129.948655 
L 186.91661 130.172915 
L 186.948122 130.332678 
L 186.880045 130.551775 
L 186.99574 130.479953 
L 187.333925 130.371417 
L 187.600032 130.173468 
L 187.954287 130.071827 
L 188.203578 130.268075 
L 188.388544 130.342257 
L 188.343689 130.415669 
L 188.185299 130.674925 
L 188.009391 130.868323 
L 187.720758 131.389727 
L 187.847905 131.761214 
L 188.308837 132.242974 
L 188.361404 132.142275 
L 188.62296 132.103509 
L 189.006048 132.077374 
L 189.149718 131.865018 
L 189.196598 131.943613 
L 189.458422 132.043191 
L 189.615762 131.801059 
L 189.605711 131.634682 
L 189.533769 131.423209 
L 189.921716 130.786326 
L 189.974368 130.822455 
L 190.458701 131.027039 
L 190.630735 131.088053 
L 190.615963 131.412869 
L 190.745701 131.873232 
L 191.022971 132.00694 
L 190.999664 132.032649 
L 190.764162 132.306822 
L 191.047476 132.482852 
L 191.080572 132.719924 
L 191.131575 132.705607 
L 191.451141 132.594339 
L 191.607519 132.455862 
L 191.830565 132.407761 
L 191.817838 132.374694 
L 191.932231 132.271676 
L 192.168377 132.44507 
L 192.346611 132.540587 
L 192.966354 132.241044 
L 192.938075 132.455963 
L 192.851608 132.523362 
L 192.793566 132.488865 
L 192.421362 132.577109 
L 192.286376 133.204141 
L 192.697287 133.334739 
L 192.825447 133.212051 
L 192.979548 133.177182 
L 192.955357 133.261327 
L 192.808123 133.578083 
L 192.756631 134.012104 
L 192.465688 134.200644 
L 192.50986 134.591492 
L 192.148316 134.841902 
L 192.080883 134.938758 
L 192.197897 134.959783 
L 192.241641 134.997746 
L 192.235324 135.04126 
L 192.064201 135.376101 
L 192.005485 135.599026 
L 191.642183 135.740974 
L 191.708219 135.838612 
L 191.904564 136.101052 
L 191.805289 136.12363 
L 191.538162 136.297874 
L 191.177859 136.694156 
L 191.350786 136.811123 
L 192.066102 137.089454 
L 192.087498 137.43144 
L 192.055669 137.628108 
L 192.034338 137.629852 
L 191.847491 137.792773 
L 191.789452 138.284092 
L 191.888572 138.415621 
L 192.204956 138.556452 
L 192.134536 138.645276 
L 191.921583 138.903963 
L 191.481791 139.079977 
L 191.55842 139.370264 
L 191.940793 139.86246 
L 192.008601 140.073594 
L 192.231376 140.3479 
L 191.795823 141.151153 
L 191.645998 141.494969 
L 191.636371 141.490769 
L 191.43897 141.641377 
L 191.251317 142.051406 
L 190.39831 144.366878 
L 190.315251 145.030018 
L 190.273716 145.218983 
L 190.224262 145.35327 
L 190.770317 145.52492 
L 190.630757 145.705055 
L 190.746725 145.746314 
L 191.04838 145.776186 
L 191.037661 145.875498 
L 191.17369 146.068487 
L 191.060375 146.088067 
L 190.755636 146.114611 
L 191.297772 146.162653 
L 191.532519 146.263119 
L 191.622167 146.427278 
L 191.774722 146.458431 
L 191.899977 146.467341 
L 191.773796 146.576536 
L 191.382597 147.110614 
L 191.147921 147.148604 
L 190.804906 147.15106 
L 190.598688 147.198996 
L 190.218208 147.608196 
L 190.467473 147.777948 
L 190.298782 148.114167 
L 190.294766 148.112742 
L 190.115074 148.322908 
L 190.196928 148.741432 
L 190.294114 148.870414 
L 190.212085 148.911987 
L 190.003888 148.918643 
L 189.668592 148.735744 
L 189.272984 149.567822 
L 189.444918 149.821315 
L 189.827351 150.09468 
L 189.780077 150.402627 
L 189.791265 150.403414 
L 190.567244 151.47235 
L 190.859887 151.69443 
L 190.979003 152.257183 
L 191.325607 153.111642 
L 191.563195 153.155357 
L 192.628335 153.948829 
L 192.879119 154.766771 
L 193.112075 155.162191 
L 193.554634 155.483684 
L 194.021802 156.174569 
L 194.892288 156.318888 
L 195.405661 156.983617 
L 196.0305 157.511209 
L 196.366566 157.736776 
L 196.838172 157.751975 
L 196.907545 157.403507 
L 197.031847 157.107293 
L 197.329622 156.788347 
L 197.846954 156.872885 
L 197.922993 157.469902 
L 198.077302 157.781735 
L 198.720446 158.261826 
L 199.560592 158.452716 
L 199.60385 158.563022 
L 199.882823 159.453041 
L 201.621916 159.618971 
L 202.203389 159.575963 
L 202.192651 159.070385 
L 203.164207 158.829263 
L 203.306445 158.182136 
L 203.688626 157.930435 
L 204.038972 157.99576 
L 204.635039 158.490211 
L 205.030391 158.549806 
L 205.291308 158.75322 
L 205.580897 158.979638 
L 206.091854 159.261902 
L 206.247999 159.199187 
L 206.771783 159.354292 
L 206.991306 159.686811 
L 207.435656 159.922521 
L 207.482665 160.521404 
L 208.865682 160.587697 
L 209.652548 160.470804 
L 209.655398 160.518528 
L 209.762633 160.806177 
L 209.819133 160.866596 
L 210.042915 162.102223 
L 211.082833 162.254814 
L 211.19643 162.447415 
L 211.668052 162.378767 
L 211.912406 162.291576 
L 212.060793 161.859814 
L 212.384734 161.960965 
L 212.967507 162.072925 
L 213.392784 162.095646 
L 213.386283 162.153811 
L 213.251728 162.74473 
L 213.317033 162.754278 
L 213.904606 162.919506 
L 213.795347 163.899645 
L 213.882291 163.852081 
L 214.377667 163.740212 
L 215.230689 163.937093 
L 215.377806 164.13156 
L 215.378412 163.949405 
L 215.402357 163.778898 
L 215.4621 163.801407 
L 216.158712 164.079934 
L 216.229973 164.392336 
L 215.894872 164.558027 
L 215.884886 165.003611 
L 215.882349 165.003249 
L 215.539493 164.960198 
L 215.66203 165.145851 
L 216.09594 165.537077 
L 216.429496 165.57672 
L 217.297245 165.610254 
L 217.438148 165.35043 
L 218.028268 165.338112 
L 218.523861 165.000075 
L 218.515788 164.849393 
L 218.603545 164.851264 
L 218.955289 164.884458 
L 218.948652 165.037257 
L 219.186421 165.145383 
L 219.311838 165.403108 
L 219.530673 165.514727 
L 219.52895 166.10555 
L 218.668788 166.335934 
L 218.859989 166.935693 
L 219.266261 167.899682 
L 219.205038 167.962706 
L 219.36839 168.222276 
L 219.516689 168.246608 
L 219.469674 168.362496 
L 219.5239 168.396658 
L 219.679611 168.569079 
L 219.870938 169.235014 
L 219.806067 169.411619 
L 219.903746 169.768364 
L 219.850621 169.907691 
L 220.191795 169.954181 
L 220.155761 170.183491 
L 220.082504 170.169488 
L 219.825714 170.233692 
L 219.795915 170.682779 
L 219.439875 171.047913 
L 219.540799 171.07393 
L 219.708113 171.166427 
L 219.64393 171.185704 
L 219.509796 171.430989 
L 219.605793 171.482264 
L 219.976922 171.795288 
L 219.903318 171.905822 
L 219.791286 171.89368 
L 219.780622 171.952026 
L 219.726163 172.084793 
L 219.767131 172.119279 
L 219.788076 172.185572 
L 219.696624 172.153425 
L 219.693459 172.204014 
L 219.752453 172.33642 
L 220.092792 172.615553 
L 220.553009 173.187944 
L 220.67803 173.379195 
L 220.721531 173.750916 
L 220.715962 173.750916 
L 220.093184 173.625379 
L 220.152652 173.803472 
L 220.170827 174.167776 
L 220.132752 174.145916 
L 219.750273 173.952926 
L 219.688545 174.150243 
L 219.884666 174.847433 
L 219.735097 174.864073 
L 219.851113 174.94338 
L 219.904815 175.076009 
L 219.827955 175.096258 
L 219.22068 175.582171 
L 218.865547 175.786611 
L 217.052005 176.915212 
L 216.370864 177.460916 
L 217.723824 179.596062 
L 217.969808 179.335126 
L 218.030918 179.408825 
L 218.073349 179.390245 
L 218.029609 179.262262 
L 218.014368 179.268923 
L 217.890195 179.313106 
L 217.94688 178.992438 
L 217.966769 179.054483 
L 218.039479 179.028051 
L 218.129101 179.283989 
L 218.267164 179.151068 
L 218.25353 179.115173 
L 218.534913 178.916464 
L 218.572373 178.826625 
L 218.736888 179.171594 
L 219.322149 180.014544 
L 219.325647 180.040269 
L 219.411541 180.010078 
L 219.668607 179.88797 
L 219.694583 179.941339 
L 219.797421 180.380198 
L 219.677068 180.56348 
L 219.583536 180.924095 
L 219.248581 181.422171 
L 219.272001 181.567553 
L 219.427987 181.832801 
L 219.832335 181.91903 
L 220.008482 182.10884 
L 220.678895 182.134974 
L 220.905978 183.26088 
L 221.390683 184.048519 
L 221.387243 184.432664 
L 221.374963 184.959692 
L 221.212741 185.001281 
L 221.207176 185.430453 
L 221.054423 185.586782 
L 221.107311 185.613778 
L 221.196749 185.651613 
L 221.120923 185.739703 
L 220.891099 185.851737 
L 220.650962 185.634676 
L 220.572027 185.647062 
L 220.64299 185.721851 
L 220.723157 186.038235 
L 220.618067 186.833184 
L 220.967512 187.213246 
L 221.243916 187.420499 
L 221.258785 187.737893 
L 221.146403 188.015532 
L 220.875058 188.465927 
L 220.883545 188.559003 
L 220.823239 188.512545 
L 220.671402 188.503619 
L 220.329839 188.836648 
L 220.365209 189.119757 
L 220.762408 189.181452 
L 220.776347 189.028691 
L 220.75338 188.785931 
L 220.919596 188.615403 
L 221.256601 188.959745 
L 221.212232 189.359051 
L 221.212725 189.65492 
L 221.780441 190.807018 
L 222.464355 190.830558 
L 222.691755 190.851328 
L 222.68068 190.835826 
L 222.957363 190.953979 
L 223.19049 191.19357 
L 223.208708 191.343615 
L 223.371432 191.353333 
L 223.423916 191.016992 
L 223.371355 191.024961 
L 223.216101 191.016769 
L 223.209084 190.821584 
L 223.063325 190.679492 
L 223.096907 190.457578 
L 223.145001 190.493015 
L 223.94692 190.571212 
L 223.930496 190.464813 
L 223.996387 189.914346 
L 225.314061 189.100146 
L 225.060892 188.546414 
L 225.124885 188.553793 
L 225.464145 188.552177 
L 225.463355 188.619815 
L 225.61732 188.987065 
L 226.369262 188.790407 
L 227.053734 189.115887 
L 227.013815 188.97244 
L 226.818449 188.468931 
L 226.905813 188.582336 
L 227.079376 188.540949 
L 227.360814 187.929452 
L 227.640876 187.727999 
L 227.693667 187.655651 
L 227.709284 187.66942 
L 227.870647 187.956697 
L 227.848643 188.14293 
L 228.225113 188.481929 
L 228.287713 188.48859 
L 228.303819 188.563469 
L 228.368155 188.742763 
L 228.561698 188.844665 
L 228.550195 189.025225 
L 228.593194 189.001504 
L 228.559488 189.108221 
L 228.517883 189.111889 
L 228.372492 189.267554 
L 228.334294 189.387211 
L 228.586569 189.3149 
L 228.721338 189.05785 
L 229.103218 189.150331 
L 229.058007 189.037053 
L 229.095362 188.891804 
L 229.189847 188.983428 
L 229.426767 189.344421 
L 229.667219 189.287277 
L 229.713693 189.088525 
L 229.738859 189.121331 
L 230.081965 189.549292 
L 229.97852 189.494157 
L 229.748127 189.368604 
L 229.748613 189.489851 
L 229.782658 189.931528 
L 230.176828 189.992388 
L 230.668842 190.241415 
L 230.843775 190.357399 
L 231.036614 190.325608 
L 231.548517 190.398419 
L 231.679794 191.541953 
L 231.724043 191.534712 
L 232.09845 191.559762 
L 232.182053 191.971407 
L 232.242353 192.160297 
L 232.378324 192.084297 
L 232.466158 191.767971 
L 232.597703 191.641935 
L 232.80054 191.559002 
L 233.40843 191.34261 
L 233.780637 191.371998 
L 233.704202 191.491868 
L 233.844578 191.734633 
L 233.817145 191.868692 
L 233.924094 191.88958 
L 233.958975 191.89665 
L 233.955188 192.166363 
L 233.99234 192.168596 
L 234.234119 192.165188 
L 236.197988 192.084042 
L 236.339261 191.82124 
L 236.390307 191.872355 
L 236.786129 192.249349 
L 237.055177 191.916751 
L 237.597202 192.394509 
L 238.041086 192.455363 
L 238.505827 192.5302 
L 238.747827 192.571501 
L 238.749965 192.566057 
L 239.182647 192.038705 
L 239.58511 192.145843 
L 239.570235 192.179569 
L 239.394437 192.710068 
L 239.510968 192.534277 
L 239.819824 192.609119 
L 240.030957 192.14009 
L 240.390404 192.084669 
L 240.911371 192.017312 
L 241.275033 192.093722 
L 241.651134 191.790948 
L 241.784458 191.667479 
L 241.692179 191.397607 
L 241.817622 191.452943 
L 242.39446 191.53123 
L 242.631931 191.505871 
L 242.629246 191.606071 
L 242.879966 191.783505 
L 243.34095 191.852441 
L 243.659683 191.710296 
L 243.940749 191.720817 
L 244.133718 191.673768 
L 244.130187 191.636879 
L 244.1834 191.404268 
L 244.406747 191.347703 
L 244.61374 191.293324 
L 245.312451 190.939875 
L 245.474553 190.747184 
L 245.778061 190.690247 
L 246.073351 190.825311 
L 246.168703 190.957296 
L 246.104231 191.825711 
L 246.15767 191.828316 
L 247.060986 191.99298 
L 247.080322 191.993831 
L 247.04994 191.891185 
L 247.086431 191.253574 
L 247.258381 191.167622 
L 247.241828 190.897691 
L 247.183721 190.897696 
L 247.250988 190.737482 
L 247.42297 190.625107 
L 247.971986 190.732421 
L 247.946366 190.612976 
L 247.895062 190.445643 
L 247.576261 190.376489 
L 247.650558 190.21872 
L 247.811008 190.101508 
L 247.950568 190.086889 
L 248.351926 189.612252 
L 248.514552 189.450006 
L 248.502353 189.44065 
L 248.375155 189.147386 
L 248.304068 189.023204 
L 248.566932 189.038643 
L 248.539664 188.955875 
L 248.467631 188.764252 
L 248.255582 188.697756 
L 248.281169 188.664264 
L 248.705549 188.334957 
L 249.088407 188.119134 
L 248.768632 187.709095 
L 248.765451 187.213044 
L 248.196506 186.694086 
L 248.17053 186.496184 
L 248.312095 186.278778 
L 249.486212 186.675622 
L 249.942301 186.338601 
L 249.830979 186.225009 
L 249.526651 185.807474 
L 249.451833 185.631422 
L 249.519298 185.605054 
L 249.859213 185.561248 
L 250.203883 185.217746 
L 250.292621 184.812539 
L 250.530017 184.105397 
L 250.702355 184.041714 
L 251.67051 183.996676 
L 251.546493 183.865275 
L 251.285404 183.526621 
L 251.311535 183.180201 
L 251.592695 182.876039 
L 253.696677 183.095428 
L 254.078344 183.14757 
L 254.404497 183.3536 
L 254.376905 183.37571 
L 254.579625 183.474474 
L 255.001808 183.571421 
L 254.990212 183.576471 
L 255.067949 183.737324 
L 255.788976 183.48945 
L 256.128731 183.618533 
L 257.605235 184.408363 
L 257.777052 184.90308 
L 257.932753 184.917247 
L 258.077346 184.821959 
L 258.153308 184.434944 
L 258.174519 184.273299 
L 258.061419 184.272077 
L 258.072688 184.199096 
L 258.170856 184.09443 
L 258.638011 184.017792 
L 258.901792 183.763889 
L 259.537168 183.415294 
L 259.580662 183.420004 
L 259.574041 183.323829 
L 259.584433 183.10134 
L 259.601173 183.007838 
L 259.622164 183.007466 
L 260.259374 183.204347 
L 260.403374 183.162987 
L 261.047833 182.917606 
L 261.571 182.969296 
L 261.554288 182.883157 
L 261.635154 182.266806 
L 261.844414 182.212054 
L 263.540042 182.118866 
L 263.82482 182.317884 
L 264.76454 181.706269 
L 264.697567 181.304124 
L 264.859166 181.384394 
L 265.139435 181.350115 
L 265.264693 181.224413 
L 265.516239 180.899975 
L 265.934099 181.108615 
L 266.007799 181.271276 
L 266.017346 181.269803 
L 266.367756 181.333932 
L 266.463733 181.479746 
L 266.570174 181.985514 
L 266.673978 182.241442 
L 266.615039 182.288092 
L 266.706196 182.345667 
L 266.8152 182.530485 
L 266.80736 182.551904 
L 266.911391 182.580505 
L 267.363237 182.539825 
L 267.718846 182.365097 
L 267.805067 182.338548 
L 268.405426 182.36094 
L 268.64361 182.366198 
L 268.648631 182.387723 
L 269.004515 182.455016 
L 269.37555 182.04496 
L 269.550629 181.439178 
L 269.701348 181.12592 
L 269.718697 181.169645 
L 269.955368 181.135398 
L 269.916863 181.115521 
L 269.819405 180.778175 
L 269.679764 180.289078 
L 269.74676 180.0492 
L 270.093561 180.12183 
L 270.403007 180.515522 
L 270.561493 180.786368 
L 270.704626 180.870289 
L 270.713375 180.770286 
L 270.924968 180.515852 
L 271.065369 180.318807 
L 271.289968 180.190271 
L 271.446919 180.093585 
L 271.661232 179.819641 
L 271.845679 179.504283 
L 271.80279 179.107268 
L 271.668747 178.71045 
L 271.464087 178.419615 
L 271.454758 177.305709 
L 271.405605 177.054677 
L 271.594175 176.740856 
L 271.546648 176.578552 
L 271.448561 176.362878 
L 271.264341 175.863978 
L 270.952243 175.569109 
L 270.984422 175.537855 
L 270.992465 175.336944 
L 270.835235 175.176974 
L 270.654604 175.184412 
L 270.004159 174.5652 
L 269.051366 173.498427 
L 268.92361 173.313157 
L 268.687399 173.130279 
L 268.32248 172.34315 
L 268.44022 171.98052 
L 268.416087 171.689266 
L 268.574781 171.565196 
L 268.462159 171.44782 
L 268.127917 171.257972 
L 268.251238 171.030226 
L 268.263904 170.815291 
L 268.23841 170.424815 
L 268.229936 170.236446 
L 268.186257 170.043483 
L 268.031421 169.798459 
L 267.842747 169.431757 
L 267.633594 169.303354 
L 267.537791 169.185345 
L 266.966644 169.079956 
L 266.829161 169.069569 
L 266.682167 169.029495 
L 266.526401 168.703723 
L 266.438645 168.429927 
L 266.26825 168.25261 
L 266.176451 168.133341 
L 266.240875 167.561933 
L 266.182373 167.257122 
L 266.289873 167.133281 
L 266.406151 167.027244 
L 266.443446 167.053197 
L 266.64163 167.149596 
L 266.664299 166.955321 
L 266.658449 166.712125 
L 266.778385 166.781076 
L 266.831769 166.890069 
L 266.875645 166.88117 
L 266.889542 166.738073 
L 266.794471 166.382961 
L 266.953165 166.200609 
L 267.313779 166.158984 
L 268.199305 165.187536 
L 268.273165 164.81413 
L 268.617608 164.4356 
L 268.923293 164.496337 
L 268.9328 164.460044 
L 268.951815 164.226731 
L 269.205577 164.100088 
L 269.484203 163.645403 
L 269.466653 163.486948 
L 269.914942 162.694842 
L 269.906895 162.191583 
L 270.047307 162.030268 
L 270.210387 161.911137 
L 270.36981 161.669196 
L 270.41391 161.25376 
L 270.394497 161.101318 
L 270.192104 160.92651 
L 269.974908 160.382953 
L 269.988105 159.715226 
L 270.024304 159.715965 
L 270.192137 159.655717 
L 270.276236 159.380007 
L 270.390687 159.095823 
L 270.42746 158.842527 
L 270.263075 158.341745 
L 270.313167 158.325493 
L 270.57022 158.167022 
L 270.715808 157.802904 
L 271.085541 157.331313 
L 271.070546 157.06605 
L 271.295487 156.82379 
L 271.350818 156.444787 
L 271.282559 156.232861 
L 271.222574 156.134213 
L 271.444687 155.536118 
L 271.627644 155.297314 
L 271.592206 154.999499 
L 271.29115 154.45942 
L 271.006048 154.04795 
L 270.223386 153.549246 
L 269.643568 153.320522 
L 269.191803 152.660014 
L 269.164298 152.228438 
L 269.217896 151.92199 
L 269.088893 151.013965 
L 269.314797 150.622011 
L 269.851312 149.875785 
L 269.911191 149.42901 
L 269.71219 148.951827 
L 269.276712 148.328075 
L 269.433158 148.035306 
L 269.884304 147.6065 
L 270.06316 147.197045 
L 270.239965 146.083473 
L 269.3953 144.986717 
L 267.586235 144.489624 
L 266.947484 144.195021 
L 266.304531 144.078915 
L 266.17787 143.845889 
L 266.05821 143.522068 
L 265.658536 143.115399 
L 265.705837 142.851444 
L 266.01067 142.405961 
L 265.873831 142.113298 
L 265.775084 141.859204 
L 265.730371 141.562038 
L 265.561758 141.385715 
L 265.247836 141.209669 
L 265.246725 140.982411 
L 265.285655 140.59378 
L 265.000812 140.045864 
L 264.965011 139.696472 
L 264.968406 138.889986 
L 264.787756 138.384037 
L 264.370321 137.493151 
L 264.533064 137.09729 
L 264.775129 136.625369 
L 264.816213 135.652555 
L 265.183681 135.293636 
L 265.906422 135.023913 
L 266.122611 134.708321 
L 266.400981 134.406599 
L 266.663321 134.081704 
L 266.836368 133.857009 
L 267.019769 133.175172 
L 267.416099 132.825557 
L 267.642 132.269486 
L 267.502495 131.930407 
L 267.245394 131.730863 
L 266.936376 131.550564 
L 266.852322 131.199146 
L 266.70354 130.68132 
L 266.621249 130.405797 
L 266.739461 130.006485 
L 266.939583 129.677922 
L 267.23864 128.892536 
L 267.776827 128.37739 
L 267.733909 128.100606 
L 267.419961 127.850117 
L 267.038369 127.565508 
L 266.868509 127.295317 
L 266.594434 126.494737 
L 266.300394 126.138051 
L 265.632806 125.635967 
L 265.438285 125.479899 
L 263.198514 124.238764 
L 262.051484 123.343046 
L 261.747594 122.695568 
L 261.304766 122.488103 
L 261.040833 122.29749 
L 260.799501 121.666897 
L 260.356038 121.115818 
L 259.85558 120.457357 
L 258.08034 118.508215 
L 255.821877 117.195992 
L 254.965003 116.270056 
L 254.024674 115.191407 
L 253.516662 115.091473 
L 251.362237 114.671906 
L 251.165976 114.418722 
L 251.063351 113.74731 
L 251.638671 112.815925 
L 252.181347 112.041443 
L 252.17827 111.084748 
L 251.987662 110.494967 
L 251.873213 109.780946 
L 251.789769 109.496476 
L 251.667293 108.841619 
L 251.749565 107.483751 
L 252.109292 107.354466 
L 252.375988 107.258243 
L 252.791301 106.718908 
L 253.106289 106.59967 
L 255.56189 105.201554 
L 256.46025 104.435168 
L 256.69455 104.220983 
L 256.920395 103.944115 
L 257.054311 103.818174 
L 257.178504 103.586115 
L 258.476822 102.344407 
L 258.679895 101.762127 
L 258.738951 101.532515 
L 258.992425 100.968358 
L 259.036541 100.805368 
L 259.073893 100.198576 
L 259.062258 99.889517 
L 259.363492 99.331714 
L 259.411434 98.697803 
L 259.468248 98.390584 
L 259.606084 97.904523 
L 259.082413 97.112454 
L 258.94571 96.257612 
L 259.262389 94.984746 
L 259.391512 94.656523 
L 259.816219 94.542442 
L 260.136746 94.362807 
L 260.261683 94.107251 
L 260.355854 93.498019 
L 261.293341 92.046368 
L 261.641992 91.430383 
L 261.3879 90.868879 
L 260.680142 90.678511 
L 260.309726 89.15962 
L 260.283422 88.943516 
L 260.481763 88.132714 
L 260.311025 87.93569 
L 259.931995 87.966843 
L 259.404731 88.26781 
L 259.261064 88.671959 
L 259.068163 88.722941 
L 258.779271 88.592003 
L 258.778681 88.622226 
L 258.749278 88.730889 
L 258.401285 88.823487 
L 258.405049 88.8417 
L 258.280481 88.985594 
L 257.301423 88.881216 
L 257.300137 88.936658 
L 257.179262 89.458652 
L 256.805363 90.140691 
L 256.845716 90.258971 
L 256.776031 90.287067 
L 255.59554 90.965018 
L 255.66457 91.537234 
L 255.633109 91.699921 
L 255.018099 91.806064 
L 254.649445 91.821556 
L 253.839032 91.845851 
L 253.541297 91.556574 
L 253.370928 91.587227 
L 253.005245 91.557271 
L 252.424001 91.319317 
L 252.186404 91.259961 
L 251.911742 91.322283 
L 251.336164 91.531051 
L 251.04951 91.636902 
L 250.479108 91.596605 
L 250.268847 91.574091 
L 250.686402 90.365678 
L 251.968044 89.068208 
L 253.053297 88.028973 
L 254.185377 86.610235 
L 254.609793 85.720598 
L 254.934605 84.221293 
L 254.875523 83.087988 
L 254.903327 83.013518 
L 254.860927 82.981536 
L 254.692023 82.672637 
L 254.612089 82.717734 
L 254.343508 82.386481 
L 253.394443 83.00876 
L 252.871568 83.011992 
L 252.511132 82.827169 
L 251.483974 82.034617 
L 251.347841 82.121287 
L 250.941184 82.109836 
L 250.307547 83.02759 
L 249.941764 83.179267 
L 249.756526 83.496087 
L 249.714402 83.632889 
L 249.674507 83.582576 
L 249.352405 83.410756 
L 249.082781 83.493641 
L 248.712164 83.482015 
L 248.578053 82.923243 
L 248.530717 82.63427 
L 248.487378 82.652855 
L 247.261192 82.56668 
L 247.054857 82.360756 
L 245.774783 82.596918 
L 245.298716 82.578896 
L 244.348514 83.009265 
L 244.001761 82.70059 
L 244.020219 82.41866 
L 244.204452 82.232428 
L 244.111461 82.051671 
L 243.994826 81.825583 
L 244.015227 81.826604 
L 244.418833 81.569081 
L 244.157129 81.07689 
L 243.044595 80.268395 
L 243.220124 79.614107 
L 243.171952 79.607116 
L 243.010209 79.505709 
L 242.973054 79.264236 
L 242.999591 79.252296 
L 243.062997 78.951032 
L 243.139665 78.736687 
L 243.165418 78.680032 
L 241.884313 78.056977 
L 241.290157 77.932551 
L 241.347224 77.833122 
L 241.343227 77.739663 
L 240.528762 76.294094 
L 240.608838 75.780755 
L 240.497924 75.820222 
L 240.226702 75.900965 
L 240.010753 76.396436 
L 239.813488 77.413306 
L 239.940583 77.784627 
L 239.932468 78.185523 
L 239.950625 78.187049 
L 240.151022 78.217362 
L 240.579156 78.901936 
L 240.648108 79.008537 
L 240.673064 78.988319 
L 240.951943 78.803023 
L 241.056719 78.825367 
L 241.058452 78.83466 
L 241.166778 78.926976 
L 241.180749 78.917247 
L 241.353548 78.96311 
L 241.409779 78.945162 
L 241.208274 79.373952 
L 240.582272 80.063604 
L 239.946342 80.266667 
L 239.073456 80.057086 
L 238.872369 79.889545 
L 238.775024 79.666908 
L 238.682335 79.631332 
L 238.587108 79.88778 
L 237.860189 79.830349 
L 237.676455 79.978475 
L 237.494924 80.241856 
L 236.796368 80.725276 
L 236.636637 80.797294 
L 236.251213 81.127027 
L 236.114699 81.212815 
L 236.11536 81.225074 
L 236.015861 81.318709 
L 235.761535 81.911435 
L 235.418566 81.704937 
L 235.202202 82.093345 
L 235.359147 82.208904 
L 235.341804 82.223401 
L 235.210508 82.521385 
L 235.142097 82.496346 
L 235.04059 82.507941 
L 235.09307 82.60132 
L 235.225373 83.062395 
L 235.141057 83.256416 
L 234.794457 83.734636 
L 234.774888 83.698326 
L 234.55969 83.476491 
L 233.975997 83.688093 
L 233.876748 83.764136 
L 233.86427 83.763455 
L 233.711552 83.727204 
L 233.273477 83.782184 
L 233.152699 83.86449 
L 232.787945 84.208412 
L 232.788256 84.198375 
L 232.720295 84.154516 
L 232.668858 84.193579 
L 232.466414 84.360163 
L 232.389069 84.605809 
L 232.462782 84.602407 
L 232.670248 84.618903 
L 232.666354 84.734345 
L 232.648331 84.849191 
L 232.616935 85.053663 
L 232.56656 85.198743 
L 232.536636 85.205005 
L 232.492811 85.207966 
L 232.683889 85.483352 
L 232.660355 85.489944 
L 232.368217 85.845896 
L 232.200424 86.121159 
L 231.88173 86.041581 
L 231.711086 85.950477 
L 231.431037 86.691972 
L 231.394222 86.754156 
L 231.464217 86.757287 
L 231.685803 86.879193 
L 231.642707 87.27356 
L 231.504816 87.530488 
L 231.548566 87.805602 
L 231.507255 88.531589 
L 231.199711 88.580531 
L 231.209004 88.547884 
L 231.118825 88.282307 
L 230.946853 88.067617 
L 230.93143 88.243514 
L 231.037142 88.705398 
L 230.541915 89.718248 
L 230.412051 89.901578 
L 230.318979 89.996239 
L 229.823205 90.07016 
L 229.696421 90.106465 
L 229.575131 90.101537 
L 229.579682 90.055897 
L 229.453709 89.702475 
L 229.378955 89.614885 
L 229.064777 89.60631 
L 228.907485 89.532271 
L 228.828773 89.575901 
L 228.829894 89.606932 
L 228.847648 90.005505 
L 228.789681 89.998822 
L 228.763303 90.116412 
L 228.824095 90.104726 
L 229.002452 90.242395 
L 228.948122 90.295499 
L 228.737463 90.444645 
L 228.58034 90.446729 
L 228.495399 90.715496 
L 228.427282 90.902499 
L 227.983726 91.486304 
L 227.901499 91.508377 
L 227.916996 91.550546 
L 227.873171 91.696555 
L 227.865792 91.862193 
L 227.846233 91.869178 
L 227.756257 92.242791 
L 227.794987 92.256656 
L 227.810118 92.352709 
L 227.784255 92.372969 
L 227.594126 92.40332 
L 227.508757 92.349658 
L 227.493639 92.441703 
L 227.270807 92.571275 
L 227.13024 92.264896 
L 227.165169 92.169098 
L 227.076684 92.170857 
L 227.004379 92.08701 
L 226.239874 90.68968 
L 225.819965 90.740142 
L 225.695364 90.789386 
L 225.716861 90.947416 
L 225.612529 90.946204 
L 224.582798 90.624174 
L 224.2917 90.62529 
L 224.01443 90.863924 
L 224.015159 90.839236 
L 223.967755 90.798748 
L 223.931161 90.801422 
L 223.68288 91.125248 
L 223.476649 91.446119 
L 223.205116 91.45656 
L 223.156338 91.456619 
L 223.137657 91.502583 
L 222.724327 91.796782 
L 222.640448 92.181506 
L 222.699423 92.486258 
L 222.663975 92.497629 
L 222.624857 92.512887 
L 222.710249 92.57364 
L 222.470542 93.046385 
L 222.385254 93.324673 
L 222.408435 93.475696 
L 222.266569 93.649132 
L 221.985234 93.913693 
L 221.626454 93.769358 
L 221.501144 93.728588 
L 221.241033 93.688036 
L 220.853449 92.786608 
L 220.783211 92.557532 
L 220.533187 92.133107 
L 220.515245 92.214009 
L 220.347811 92.351556 
L 220.344011 92.349163 
L 220.263669 92.257432 
L 220.199097 92.172213 
L 220.151936 92.194775 
L 219.742428 92.324358 
L 219.60004 92.398009 
L 219.569318 92.33961 
L 219.595592 92.128934 
L 219.558752 92.148875 
L 219.068157 92.570993 
L 218.897698 92.863087 
L 218.82503 92.8053 
L 218.81721 92.769266 
L 218.446648 92.668333 
L 218.294297 92.708444 
L 218.038673 92.941927 
L 218.147216 93.550139 
L 217.907743 94.12076 
L 217.75187 94.099144 
L 217.592142 93.980114 
L 217.38986 94.163997 
L 217.437102 94.304802 
L 217.336282 94.310846 
L 217.272334 94.741178 
L 217.229935 94.873164 
L 217.201643 94.834212 
L 216.96422 94.710344 
L 216.890817 94.656454 
L 216.854951 94.705443 
L 216.680588 94.813851 
L 216.355811 94.865647 
L 215.605009 95.488404 
L 215.51296 95.631277 
L 215.27202 95.820216 
L 215.275819 96.156121 
L 214.862097 96.493716 
L 214.891264 96.520792 
L 214.817961 96.60331 
L 214.152767 96.593528 
L 214.173376 96.6893 
L 214.202083 96.73184 
L 214.101155 96.780467 
L 213.889294 96.78782 
L 213.770262 96.657195 
L 213.612235 96.571391 
L 213.386552 96.029409 
L 213.346482 96.053066 
L 212.980536 96.294039 
L 212.829218 96.258963 
L 212.853198 96.142064 
L 213.022226 95.98018 
L 213.435971 95.842273 
L 213.404381 95.672691 
L 213.43427 95.652936 
L 214.031578 95.262943 
L 213.921781 95.168644 
L 213.71394 94.931786 
L 213.032469 94.884046 
L 212.905695 94.969706 
L 212.730875 95.110745 
L 212.609786 95.15604 
L 212.675227 95.200175 
L 212.866188 95.51415 
L 212.796977 95.606754 
L 212.761681 95.599444 
L 212.056449 95.473859 
L 212.190188 95.418576 
L 212.425965 95.215283 
L 212.310985 95.089943 
L 212.077926 95.108651 
L 211.921616 95.112276 
L 211.792943 95.147847 
L 211.618202 95.180797 
L 211.610787 95.164157 
L 211.530863 95.17983 
L 211.511573 95.206586 
L 211.515084 95.302953 
L 211.430979 95.41378 
L 211.421222 95.401452 
L 211.05984 95.577073 
L 210.977218 95.895068 
L 210.9527 95.869125 
L 210.466974 95.705252 
L 210.258002 95.532071 
L 210.050738 95.420426 
L 209.623174 94.798168 
L 209.590784 94.817997 
L 209.455643 94.939941 
L 209.286094 94.993502 
L 209.054061 95.047913 
L 208.95371 95.026047 
L 208.926513 95.060816 
L 208.833836 95.182291 
L 208.807394 95.080034 
L 208.692793 95.079008 
L 208.691141 95.138294 
L 208.663399 95.275298 
L 208.592857 95.240004 
L 208.532677 95.007233 
L 208.56163 95.00213 
L 208.593048 94.997292 
L 208.371352 95.103765 
L 208.347903 95.18488 
L 208.277817 95.192589 
L 208.167113 95.264777 
L 208.18917 95.297839 
L 208.170191 95.338561 
L 208.095408 95.360512 
L 207.991733 95.399427 
L 207.976577 95.332926 
L 207.716242 95.442009 
L 207.540276 95.505108 
L 207.540082 95.488468 
L 207.396667 95.430266 
L 207.079749 95.435104 
L 206.964769 95.319332 
L 206.82174 95.082256 
L 206.224672 94.842069 
L 206.298493 94.777908 
L 206.711769 94.103759 
L 206.783176 93.539772 
L 206.414438 93.577464 
L 205.930167 93.656622 
L 204.776483 93.412895 
L 204.360516 93.414155 
L 204.163825 93.322668 
L 203.779975 93.007401 
L 203.801578 92.990389 
L 203.965886 92.846676 
L 203.838079 92.818511 
L 203.829475 92.64971 
L 204.073263 92.36936 
L 204.150395 92.345867 
L 204.08578 92.270265 
L 203.999345 92.230707 
L 203.964918 92.276033 
L 203.864884 92.186721 
L 203.791718 91.989776 
L 203.222463 91.920416 
L 202.767986 91.965811 
L 202.597906 91.932813 
L 202.597239 91.998612 
L 202.360228 92.118541 
L 202.2276 92.182223 
L 201.989614 92.404898 
L 201.759496 92.450565 
L 201.749587 92.43148 
L 201.607012 92.27026 
L 200.609937 91.870326 
L 199.781863 91.473684 
L 198.916029 91.474545 
L 198.506579 91.559658 
L 198.431346 91.894489 
L 197.760004 91.874989 
L 197.220774 91.904015 
L 196.714184 92.194546 
L 196.711544 92.115936 
L 196.28271 91.419086 
L 196.118081 90.84972 
L 195.0561 90.42203 
L 194.969934 90.231912 
L 195.181876 89.787178 
L 194.995628 89.403284 
L 194.567015 89.35463 
L 194.097158 89.186925 
L 193.82982 88.98207 
L 193.547945 88.787044 
L 192.667291 88.371274 
L 192.335617 88.261547 
L 192.242001 88.071864 
L 191.293269 88.103443 
L 191.033605 88.230341 
L 190.824831 88.238421 
L 190.624706 88.21099 
L 190.625257 88.099456 
L 190.614017 87.983456 
L 190.317165 87.807914 
L 190.176741 87.638487 
L 189.714426 86.529205 
L 189.718118 86.435161 
L 189.647598 86.444199 
L 189.36445 86.566419 
L 189.115702 86.705704 
L 188.358577 86.751264 
L 188.255113 87.028292 
L 188.305095 87.045038 
L 188.331042 87.162366 
L 188.212807 87.256889 
L 187.700963 87.387987 
L 187.338224 86.704162 
L 187.191547 86.258557 
L 186.844066 86.370995 
L 186.819253 86.282639 
L 186.797938 86.261853 
L 186.792107 86.402998 
L 186.703641 86.733986 
L 186.361019 86.915269 
L 185.787238 86.90469 
L 185.797313 87.033076 
L 185.735377 87.211595 
L 185.696149 87.20075 
L 184.905885 86.907773 
L 184.663742 85.850128 
L 184.643759 85.854737 
L 184.2886 85.751443 
L 184.183092 85.775807 
L 184.178816 85.789895 
L 183.733297 85.764175 
L 183.822802 85.860213 
L 183.849086 86.059108 
L 183.801177 86.250864 
L 183.890064 86.315722 
L 183.963369 86.425821 
L 184.093878 86.907597 
L 183.227108 87.409416 
L 182.728995 87.706024 
L 182.790966 87.773944 
L 182.886915 88.071705 
L 182.925884 88.56925 
L 182.949855 88.958715 
L 182.966667 89.415112 
L 182.793752 89.547167 
L 182.316957 89.608676 
L 182.027913 89.804047 
L 181.42148 89.65716 
L 181.423715 89.713405 
L 181.373959 89.874646 
L 181.18705 90.241784 
L 180.842322 90.767983 
L 180.849967 90.769259 
L 180.816926 90.876274 
L 180.806657 90.877497 
L 180.719844 90.945597 
L 180.700699 90.944641 
L 180.55114 91.029859 
L 180.5146 90.916093 
L 180.37058 90.887598 
L 179.095293 90.757191 
L 178.794522 90.64454 
L 178.686264 91.180574 
L 178.050484 91.745422 
L 177.914465 91.923834 
L 177.894413 91.988798 
L 177.903516 92.033773 
L 177.816799 92.226752 
L 177.526524 92.239245 
L 177.026924 92.089381 
L 176.820547 92.097196 
L 175.773981 91.938975 
L 175.706594 92.087042 
L 175.926518 92.357632 
L 176.403715 92.509436 
L 176.878265 93.150604 
L 176.728093 93.195568 
L 176.724511 93.328862 
L 176.372348 93.317113 
L 176.229893 93.418796 
L 175.788471 93.42021 
L 174.427148 93.561584 
L 174.137326 93.775254 
L 173.607092 93.902604 
L 173.479819 93.940875 
L 173.486145 93.897925 
L 173.451254 93.814429 
L 173.403115 93.158897 
L 173.036499 93.213378 
L 173.03497 93.123964 
L 172.791723 93.026428 
L 172.830598 92.841567 
L 172.626903 92.698439 
L 172.503352 92.503025 
L 172.322388 92.555624 
L 172.261456 92.634894 
L 171.31198 92.530265 
L 171.139373 92.719002 
L 170.773339 92.767549 
L 170.502176 92.745546 
L 170.211457 92.632831 
L 169.914518 92.9192 
L 169.781039 93.251846 
L 169.416234 93.414299 
L 168.648285 94.15648 
L 168.42497 94.175512 
L 168.21364 94.1448 
L 167.958968 94.282782 
L 167.738115 94.464102 
L 167.840011 94.509551 
L 167.990972 94.75003 
L 167.963736 94.767461 
L 167.907097 95.632649 
L 168.24889 95.776617 
L 168.176673 96.257214 
L 168.292883 96.521876 
L 168.286058 96.716354 
L 168.158895 96.821897 
L 167.946215 97.158365 
L 167.913861 97.477024 
L 167.7817 97.50267 
L 167.750379 97.389179 
L 167.887204 98.096635 
L 167.653491 98.525648 
L 167.257999 98.602244 
L 167.200171 98.817545 
L 166.877253 98.82208 
L 166.384115 98.805414 
L 166.119168 99.013878 
L 166.057485 98.750168 
L 165.427833 98.630686 
L 165.21901 98.734634 
L 165.198204 98.601016 
L 165.22419 98.321952 
L 164.693016 98.023297 
L 163.692595 98.027449 
L 163.429601 98.067321 
L 163.430557 98.075487 
L 163.359311 98.191412 
L 163.355836 98.191566 
L 162.690288 98.022192 
L 162.600666 98.652594 
L 162.754174 99.102946 
L 162.883566 99.330246 
L 162.815414 99.352739 
L 162.619435 99.545899 
L 162.673373 99.565755 
L 162.677733 99.603037 
L 162.638654 99.613585 
L 161.82485 99.442605 
L 161.715827 99.384201 
L 161.630507 99.351931 
L 160.579536 99.345275 
L 160.604006 99.258727 
L 160.291859 99.163179 
L 160.24208 99.18178 
L 160.202356 99.117358 
L 160.060001 99.1837 
L 159.733523 99.268281 
L 159.5562 99.260583 
L 159.277463 99.230886 
L 159.27755 99.20414 
L 159.208501 99.129299 
L 158.505436 98.986011 
M 191.482426 146.07795 
L 191.492286 146.036164 
L 191.552739 146.125498 
L 191.482426 146.07795 
M 217.529607 136.32797 
L 218.321245 135.819564 
L 218.358403 135.619121 
L 218.547501 135.15408 
L 218.305401 134.810355 
L 218.254816 134.585213 
L 218.313908 134.260616 
L 218.359171 133.723737 
L 218.432117 133.561013 
L 218.683585 133.211801 
L 218.872324 133.068306 
L 220.136536 131.564928 
L 220.009075 131.492606 
L 219.068219 131.061031 
L 218.47014 131.148514 
L 218.878087 129.130788 
L 218.895184 129.077748 
L 218.974045 129.156401 
L 219.155214 129.262263 
L 219.426568 129.169697 
L 219.405833 128.901149 
L 219.466415 128.58982 
L 219.61668 128.202077 
L 219.643278 127.937505 
L 219.514159 127.62388 
L 218.933191 127.790294 
L 218.929181 127.777343 
L 218.845318 127.41415 
L 218.923962 127.435059 
L 219.181705 127.321132 
L 219.530343 127.137739 
L 219.894834 126.829957 
L 220.055848 126.8507 
L 220.37999 127.005471 
L 220.818108 127.217057 
L 221.097246 127.323556 
L 221.70995 127.404926 
L 221.733355 127.101291 
L 221.198993 126.391023 
L 221.332997 126.29085 
L 221.457112 126.087659 
L 221.964379 125.239802 
L 221.960253 125.228792 
L 223.237127 125.182467 
L 223.166121 124.647395 
L 223.159714 124.576227 
L 223.232219 124.592862 
L 223.687564 124.585679 
L 223.869131 124.441573 
L 223.82758 123.510119 
L 224.032143 123.551404 
L 224.712967 123.687989 
L 224.601942 123.760964 
L 224.449873 123.994755 
L 224.643104 124.607614 
L 224.588975 124.633658 
L 224.610154 124.712875 
L 224.639965 125.199713 
L 224.470339 125.293698 
L 224.83344 125.250701 
L 225.679119 125.502312 
L 226.078935 125.519759 
L 226.080331 125.526065 
L 226.278694 125.507926 
L 226.085161 125.513401 
L 226.280304 125.496166 
L 226.821818 125.223678 
L 226.854049 125.232928 
L 226.986297 124.908336 
L 227.298623 124.658155 
L 227.296051 124.65555 
L 227.290055 124.531927 
L 227.32077 124.6173 
L 227.310637 124.538264 
L 227.558299 124.172051 
L 227.629289 124.245989 
L 227.951164 124.448994 
L 228.102408 124.485883 
L 228.102978 124.51819 
L 228.128834 124.599634 
L 228.41392 124.85368 
L 228.414655 124.847854 
L 228.655793 124.750796 
L 228.734842 124.721487 
L 228.724376 124.653009 
L 228.78167 124.364775 
L 228.927475 124.247047 
L 229.05009 124.106401 
L 229.74814 124.025212 
L 230.006301 123.733995 
L 229.898972 123.717977 
L 229.491699 123.55015 
L 229.270094 123.407675 
L 229.341437 123.329054 
L 229.639814 123.113162 
L 229.760663 123.170971 
L 230.19995 122.725041 
L 230.159676 122.854284 
L 230.081553 123.201358 
L 230.489477 122.975903 
L 230.456624 123.673433 
L 230.809 123.981896 
L 231.420859 124.263644 
L 231.48849 124.243443 
L 231.510371 124.320166 
L 231.567969 124.683965 
L 231.270202 125.246309 
L 231.051463 125.432414 
L 230.926429 125.847318 
L 230.756281 126.471989 
L 230.812538 126.466524 
L 230.83117 126.464738 
L 231.222399 127.150514 
L 231.893362 127.199003 
L 232.671352 127.593987 
L 233.01864 128.005786 
L 233.177645 128.162003 
L 233.35768 128.179823 
L 233.362192 128.195251 
L 233.496109 128.275223 
L 233.538725 128.376316 
L 233.580036 128.727207 
L 233.846004 129.467783 
L 235.323363 129.879997 
L 235.277053 129.953552 
L 235.094262 130.055405 
L 234.90791 130.029999 
L 234.916598 130.09331 
L 234.969836 130.453802 
L 235.068619 130.437476 
L 235.602018 130.477475 
L 235.972833 130.59709 
L 235.917836 130.756656 
L 235.039932 131.760065 
L 234.973957 132.405991 
L 235.066297 132.42565 
L 235.009531 132.5029 
L 234.548446 133.316196 
L 234.591866 133.665354 
L 234.767123 133.61913 
L 234.813776 133.73077 
L 234.840973 133.838833 
L 234.90966 133.618481 
L 235.016577 133.461823 
L 235.587056 133.178655 
L 235.900237 133.296919 
L 236.232429 133.440223 
L 236.390025 133.499446 
L 237.013713 133.915434 
L 237.254576 134.117259 
L 237.399027 134.454945 
L 237.517962 134.359641 
L 237.439224 134.120034 
L 237.31312 133.741753 
L 237.528117 133.886631 
L 237.992519 134.318382 
L 238.222711 134.599923 
L 238.425586 134.684419 
L 238.566101 134.732473 
L 239.17153 134.916828 
L 239.157487 134.948146 
L 239.16509 135.19813 
L 239.135114 135.329223 
L 239.324254 135.366947 
L 239.106734 135.421661 
L 239.127423 135.331068 
L 239.166859 135.159625 
L 239.063207 135.163416 
L 238.857417 135.27235 
L 238.74691 135.506875 
L 238.64975 135.610084 
L 238.169321 135.46241 
L 238.081862 135.39701 
L 238.508192 135.621604 
L 238.629323 135.730517 
L 238.485235 136.074078 
L 238.312006 136.529784 
L 238.463 137.142376 
L 238.316246 137.390038 
L 238.291125 137.363744 
L 238.029275 137.44161 
L 237.797942 137.437671 
L 237.798088 137.443843 
L 237.624584 137.617423 
L 236.895339 138.229596 
L 236.923958 138.228607 
L 237.039152 138.283018 
L 237.263947 138.521073 
L 237.084518 139.116197 
L 237.026036 139.081912 
L 236.521991 139.10138 
L 236.11042 139.789835 
L 236.119448 139.794647 
L 236.023509 139.866915 
L 235.76079 140.423071 
L 235.686053 140.649754 
L 235.681751 140.649037 
L 235.569107 140.606847 
L 235.292758 140.128292 
L 235.328089 140.124805 
L 235.436742 139.333598 
L 235.634927 139.071471 
L 235.514466 138.94199 
L 235.491428 138.829195 
L 235.48619 138.567537 
L 235.386869 138.589753 
L 235.132664 138.550025 
L 235.027347 138.362916 
L 234.971884 138.394542 
L 234.292226 138.77404 
L 234.324078 138.645765 
L 234.088389 138.154153 
L 233.70946 137.769546 
L 232.764778 137.997096 
L 231.992463 137.862442 
L 232.102117 137.373084 
L 232.109337 137.338003 
L 232.0007 137.410622 
L 231.719012 137.428229 
L 231.235599 137.330693 
L 230.208797 137.587227 
L 230.197929 137.507021 
L 230.025591 136.903418 
L 229.683661 136.251033 
L 229.176974 136.459376 
L 228.878014 136.604822 
L 228.221877 136.995314 
L 228.474187 138.223174 
L 228.203708 138.634893 
L 227.240386 138.481855 
L 227.109032 137.988665 
L 226.664724 137.9869 
L 226.630866 137.649049 
L 225.877757 137.06149 
L 225.785994 136.840134 
L 225.789829 136.748594 
L 225.680318 136.816211 
L 224.776571 137.419192 
L 224.717353 137.320773 
L 224.280563 136.507716 
L 224.15892 136.604397 
L 223.415918 137.148979 
L 222.74523 137.00055 
L 222.572775 136.251932 
L 221.557732 136.433247 
L 221.157051 136.546753 
L 220.742279 136.719535 
L 219.828114 137.298014 
L 219.77933 137.565377 
L 219.905294 137.548535 
L 220.217182 137.500455 
L 220.231772 137.603292 
L 219.924659 137.685008 
L 219.415985 137.615041 
L 219.087058 137.663716 
L 218.891047 137.883829 
L 218.944425 137.939958 
L 218.981981 138.04659 
L 218.836481 137.982498 
L 218.791231 137.817796 
L 219.024488 137.707315 
L 219.168871 137.584733 
L 219.052521 137.536361 
L 218.992626 137.405354 
L 218.960676 137.442743 
L 218.691253 137.516532 
L 218.131738 136.867401 
L 218.289308 136.814541 
L 218.286237 136.798077 
L 218.159178 136.662891 
L 218.149221 136.664794 
L 218.1426 136.765999 
L 218.098739 136.864046 
L 218.0227 136.841335 
L 217.93344 136.695527 
L 217.917263 136.638857 
L 217.837689 136.659664 
L 217.792164 136.675841 
L 217.833229 136.753798 
L 217.863053 136.826189 
L 217.822662 136.870962 
L 217.589975 136.651259 
L 217.529607 136.32797 
M 230.975796 125.729559 
L 231.041007 125.681872 
L 230.975796 125.729559 
" style="fill:none;stroke:#ffc0cb;"/>
    <path clip-path="url(#p3ac2a0ca19)" d="M 189.339863 112.849673 
L 189.345082 112.851969 
L 189.355778 112.856674 
L 189.361366 112.857557 
L 189.367637 112.856717 
L 189.374738 112.853389 
L 189.394271 112.833458 
L 189.396172 112.835138 
L 189.433282 112.801019 
L 189.471642 112.767479 
L 189.442682 112.746357 
L 189.425339 112.767378 
L 189.419324 112.760291 
L 189.398006 112.787505 
L 189.375301 112.816654 
L 189.366335 112.809711 
L 189.363604 112.809376 
L 189.359905 112.813714 
L 189.36121 112.815952 
L 189.352302 112.829684 
L 189.339863 112.849673 
" style="fill:none;stroke:#ffc0cb;"/>
    <path clip-path="url(#p3ac2a0ca19)" d="M 190.698181 146.415168 
L 190.709275 146.419017 
L 190.728828 146.425657 
L 190.753233 146.379002 
L 190.737473 146.372564 
L 190.723259 146.367078 
L 190.698181 146.415168 
" style="fill:none;stroke:#ffc0cb;"/>
    <path clip-path="url(#p3ac2a0ca19)" d="M 190.781068 146.248159 
L 190.782322 146.256782 
L 190.788389 146.261051 
L 190.796319 146.259913 
L 190.799474 146.265075 
L 190.805402 146.277845 
L 190.809386 146.293682 
L 190.811651 146.298865 
L 190.815535 146.302789 
L 190.821887 146.303198 
L 190.837442 146.30962 
L 190.850458 146.309062 
L 190.855342 146.367136 
L 190.859997 146.393499 
L 190.869129 146.430649 
L 190.899329 146.426747 
L 190.951132 146.43151 
L 190.969156 146.430442 
L 190.987513 146.42168 
L 191.005083 146.417257 
L 191.022572 146.422749 
L 191.040265 146.423998 
L 191.042413 146.442648 
L 191.044111 146.458086 
L 190.913479 146.680309 
L 191.046038 146.458671 
L 191.044561 146.443371 
L 191.086743 146.457533 
L 191.113581 146.465895 
L 191.131294 146.436784 
L 191.153878 146.449139 
L 191.154749 146.445577 
L 191.164474 146.434227 
L 191.175442 146.413254 
L 191.175206 146.390208 
L 191.181496 146.379704 
L 191.169025 146.370294 
L 191.152916 146.361235 
L 191.134105 146.357524 
L 191.08477 146.342272 
L 191.061859 146.348524 
L 191.04057 146.355398 
L 191.036096 146.351203 
L 191.013266 146.346594 
L 190.991012 146.342554 
L 190.967125 146.348205 
L 190.939902 146.343378 
L 190.926802 146.339258 
L 190.911665 146.339417 
L 190.901561 146.336462 
L 190.895325 146.336105 
L 190.891467 146.333187 
L 190.884671 146.326515 
L 190.879744 146.320747 
L 190.873486 146.317105 
L 190.870389 146.314803 
L 190.865203 146.314335 
L 190.858922 146.30903 
L 190.854938 146.306558 
L 190.850393 146.307573 
L 190.843853 146.306877 
L 190.838006 146.308115 
L 190.822392 146.301061 
L 190.815554 146.299902 
L 190.813675 146.297504 
L 190.812418 146.295814 
L 190.806818 146.277133 
L 190.80099 146.26347 
L 190.796824 146.258063 
L 190.788431 146.25877 
L 190.783456 146.255092 
L 190.782646 146.248345 
L 190.786024 146.242933 
L 190.784204 146.241493 
L 190.781068 146.248159 
" style="fill:none;stroke:#ffc0cb;"/>
    <path clip-path="url(#p3ac2a0ca19)" d="M 191.229387 146.51179 
L 191.230553 146.512641 
L 191.230494 146.52566 
L 191.259606 146.532125 
L 191.293434 146.519238 
L 191.327787 146.526591 
L 191.371602 146.536574 
L 191.40558 146.533358 
L 191.418057 146.513125 
L 191.393477 146.490956 
L 191.398968 146.462153 
L 191.37523 146.450845 
L 191.346277 146.45396 
L 191.310898 146.439819 
L 191.323035 146.436848 
L 191.330165 146.439043 
L 191.335847 146.438363 
L 191.343715 146.432233 
L 191.354217 146.419676 
L 191.357618 146.416417 
L 191.361696 146.411154 
L 191.363433 146.40444 
L 191.373355 146.396147 
L 191.384819 146.394174 
L 191.39304 146.387848 
L 191.397472 146.385849 
L 191.407552 146.385009 
L 191.407617 146.383654 
L 191.397342 146.38443 
L 191.391628 146.386689 
L 191.384048 146.392112 
L 191.372969 146.39427 
L 191.364139 146.400889 
L 191.361826 146.404249 
L 191.360093 146.410091 
L 191.357297 146.415381 
L 191.352899 146.418804 
L 191.342367 146.431457 
L 191.3354 146.436816 
L 191.330936 146.437331 
L 191.324318 146.434652 
L 191.311409 146.437363 
L 191.307807 146.439325 
L 191.293363 146.447953 
L 191.280049 146.456273 
L 191.249231 146.462041 
L 191.242535 146.471403 
L 191.238965 146.479133 
L 191.229387 146.51179 
" style="fill:none;stroke:#ffc0cb;"/>
    <path clip-path="url(#p3ac2a0ca19)" d="M 191.431656 146.553214 
L 191.450305 146.560662 
L 191.456369 146.560742 
L 191.467936 146.567015 
L 191.485267 146.560551 
L 191.504835 146.566632 
L 191.527423 146.566914 
L 191.544728 146.550131 
L 191.54673 146.5444 
L 191.54822 146.534671 
L 191.54901 146.529732 
L 191.537225 146.519642 
L 191.514304 146.515671 
L 191.49309 146.514119 
L 191.478999 146.508234 
L 191.460094 146.507761 
L 191.448267 146.505921 
L 191.433302 146.525889 
L 191.431656 146.553214 
" style="fill:none;stroke:#ffc0cb;"/>
    <path clip-path="url(#p3ac2a0ca19)" d="M 191.546483 146.610752 
L 191.54659 146.611953 
L 191.552521 146.613373 
L 191.556953 146.616477 
L 191.552803 146.616801 
L 191.547569 146.616605 
L 191.547743 146.617827 
L 191.553085 146.618003 
L 191.557863 146.61761 
L 191.556017 146.61997 
L 191.551718 146.622219 
L 191.552612 146.623048 
L 191.557581 146.621124 
L 191.559275 146.617631 
L 191.565466 146.618333 
L 191.572136 146.622176 
L 191.574439 146.64082 
L 191.575628 146.645174 
L 191.580347 146.650384 
L 191.586515 146.654185 
L 191.592511 146.656413 
L 191.600078 146.656615 
L 191.605501 146.659602 
L 191.611322 146.661 
L 191.618487 146.658773 
L 191.626119 146.660666 
L 191.631998 146.664493 
L 191.637508 146.671053 
L 191.642772 146.675498 
L 191.648195 146.682515 
L 191.651939 146.689607 
L 191.653459 146.694843 
L 191.65928 146.698645 
L 191.659889 146.697422 
L 191.673769 146.696752 
L 191.682046 146.687422 
L 191.684148 146.670681 
L 191.677167 146.658156 
L 191.66445 146.650081 
L 191.643692 146.637003 
L 191.631172 146.637917 
L 191.618098 146.629422 
L 191.608426 146.623617 
L 191.597331 146.618636 
L 191.573198 146.615015 
L 191.573655 146.621389 
L 191.57268 146.620315 
L 191.566033 146.617041 
L 191.559541 146.616275 
L 191.552521 146.612304 
L 191.546483 146.610752 
" style="fill:none;stroke:#ffc0cb;"/>
   </g>
   <g id="matplotlib.axis_1">
    <g id="xtick_1">
     <g id="line2d_1">
      <defs>
       <path d="M 0 0 
L 0 3.5 
" id="mb334f42634" style="stroke:#000000;stroke-width:0.8;"/>
      </defs>
      <g>
       <use style="stroke:#000000;stroke-width:0.8;" x="182.274651" xlink:href="#mb334f42634" y="252"/>
      </g>
     </g>
     <g id="text_1">
      <!-- 12 -->
      <defs>
       <path d="M 12.40625 8.296875 
L 28.515625 8.296875 
L 28.515625 63.921875 
L 10.984375 60.40625 
L 10.984375 69.390625 
L 28.421875 72.90625 
L 38.28125 72.90625 
L 38.28125 8.296875 
L 54.390625 8.296875 
L 54.390625 0 
L 12.40625 0 
z
" id="DejaVuSans-49"/>
       <path d="M 19.1875 8.296875 
L 53.609375 8.296875 
L 53.609375 0 
L 7.328125 0 
L 7.328125 8.296875 
Q 12.9375 14.109375 22.625 23.890625 
Q 32.328125 33.6875 34.8125 36.53125 
Q 39.546875 41.84375 41.421875 45.53125 
Q 43.3125 49.21875 43.3125 52.78125 
Q 43.3125 58.59375 39.234375 62.25 
Q 35.15625 65.921875 28.609375 65.921875 
Q 23.96875 65.921875 18.8125 64.3125 
Q 13.671875 62.703125 7.8125 59.421875 
L 7.8125 69.390625 
Q 13.765625 71.78125 18.9375 73 
Q 24.125 74.21875 28.421875 74.21875 
Q 39.75 74.21875 46.484375 68.546875 
Q 53.21875 62.890625 53.21875 53.421875 
Q 53.21875 48.921875 51.53125 44.890625 
Q 49.859375 40.875 45.40625 35.40625 
Q 44.1875 33.984375 37.640625 27.21875 
Q 31.109375 20.453125 19.1875 8.296875 
z
" id="DejaVuSans-50"/>
      </defs>
      <g transform="translate(175.912151 266.598437)scale(0.1 -0.1)">
       <use xlink:href="#DejaVuSans-49"/>
       <use x="63.623047" xlink:href="#DejaVuSans-50"/>
      </g>
     </g>
    </g>
    <g id="xtick_2">
     <g id="line2d_2">
      <g>
       <use style="stroke:#000000;stroke-width:0.8;" x="247.061012" xlink:href="#mb334f42634" y="252"/>
      </g>
     </g>
     <g id="text_2">
      <!-- 14 -->
      <defs>
       <path d="M 37.796875 64.3125 
L 12.890625 25.390625 
L 37.796875 25.390625 
z
M 35.203125 72.90625 
L 47.609375 72.90625 
L 47.609375 25.390625 
L 58.015625 25.390625 
L 58.015625 17.1875 
L 47.609375 17.1875 
L 47.609375 0 
L 37.796875 0 
L 37.796875 17.1875 
L 4.890625 17.1875 
L 4.890625 26.703125 
z
" id="DejaVuSans-52"/>
      </defs>
      <g transform="translate(240.698512 266.598437)scale(0.1 -0.1)">
       <use xlink:href="#DejaVuSans-49"/>
       <use x="63.623047" xlink:href="#DejaVuSans-52"/>
      </g>
     </g>
    </g>
   </g>
   <g id="matplotlib.axis_2">
    <g id="ytick_1">
     <g id="line2d_3">
      <defs>
       <path d="M 0 0 
L -3.5 0 
" id="m950e4f57db" style="stroke:#000000;stroke-width:0.8;"/>
      </defs>
      <g>
       <use style="stroke:#000000;stroke-width:0.8;" x="152.21598" xlink:href="#m950e4f57db" y="238.379755"/>
      </g>
     </g>
     <g id="text_3">
      <!-- 50.5 -->
      <defs>
       <path d="M 10.796875 72.90625 
L 49.515625 72.90625 
L 49.515625 64.59375 
L 19.828125 64.59375 
L 19.828125 46.734375 
Q 21.96875 47.46875 24.109375 47.828125 
Q 26.265625 48.1875 28.421875 48.1875 
Q 40.625 48.1875 47.75 41.5 
Q 54.890625 34.8125 54.890625 23.390625 
Q 54.890625 11.625 47.5625 5.09375 
Q 40.234375 -1.421875 26.90625 -1.421875 
Q 22.3125 -1.421875 17.546875 -0.640625 
Q 12.796875 0.140625 7.71875 1.703125 
L 7.71875 11.625 
Q 12.109375 9.234375 16.796875 8.0625 
Q 21.484375 6.890625 26.703125 6.890625 
Q 35.15625 6.890625 40.078125 11.328125 
Q 45.015625 15.765625 45.015625 23.390625 
Q 45.015625 31 40.078125 35.4375 
Q 35.15625 39.890625 26.703125 39.890625 
Q 22.75 39.890625 18.8125 39.015625 
Q 14.890625 38.140625 10.796875 36.28125 
z
" id="DejaVuSans-53"/>
       <path d="M 31.78125 66.40625 
Q 24.171875 66.40625 20.328125 58.90625 
Q 16.5 51.421875 16.5 36.375 
Q 16.5 21.390625 20.328125 13.890625 
Q 24.171875 6.390625 31.78125 6.390625 
Q 39.453125 6.390625 43.28125 13.890625 
Q 47.125 21.390625 47.125 36.375 
Q 47.125 51.421875 43.28125 58.90625 
Q 39.453125 66.40625 31.78125 66.40625 
z
M 31.78125 74.21875 
Q 44.046875 74.21875 50.515625 64.515625 
Q 56.984375 54.828125 56.984375 36.375 
Q 56.984375 17.96875 50.515625 8.265625 
Q 44.046875 -1.421875 31.78125 -1.421875 
Q 19.53125 -1.421875 13.0625 8.265625 
Q 6.59375 17.96875 6.59375 36.375 
Q 6.59375 54.828125 13.0625 64.515625 
Q 19.53125 74.21875 31.78125 74.21875 
z
" id="DejaVuSans-48"/>
       <path d="M 10.6875 12.40625 
L 21 12.40625 
L 21 0 
L 10.6875 0 
z
" id="DejaVuSans-46"/>
      </defs>
      <g transform="translate(122.950355 242.178974)scale(0.1 -0.1)">
       <use xlink:href="#DejaVuSans-53"/>
       <use x="63.623047" xlink:href="#DejaVuSans-48"/>
       <use x="127.246094" xlink:href="#DejaVuSans-46"/>
       <use x="159.033203" xlink:href="#DejaVuSans-53"/>
      </g>
     </g>
    </g>
    <g id="ytick_2">
     <g id="line2d_4">
      <g>
       <use style="stroke:#000000;stroke-width:0.8;" x="152.21598" xlink:href="#m950e4f57db" y="211.798682"/>
      </g>
     </g>
     <g id="text_4">
      <!-- 51.0 -->
      <g transform="translate(122.950355 215.5979)scale(0.1 -0.1)">
       <use xlink:href="#DejaVuSans-53"/>
       <use x="63.623047" xlink:href="#DejaVuSans-49"/>
       <use x="127.246094" xlink:href="#DejaVuSans-46"/>
       <use x="159.033203" xlink:href="#DejaVuSans-48"/>
      </g>
     </g>
    </g>
    <g id="ytick_3">
     <g id="line2d_5">
      <g>
       <use style="stroke:#000000;stroke-width:0.8;" x="152.21598" xlink:href="#m950e4f57db" y="185.217608"/>
      </g>
     </g>
     <g id="text_5">
      <!-- 51.5 -->
      <g transform="translate(122.950355 189.016827)scale(0.1 -0.1)">
       <use xlink:href="#DejaVuSans-53"/>
       <use x="63.623047" xlink:href="#DejaVuSans-49"/>
       <use x="127.246094" xlink:href="#DejaVuSans-46"/>
       <use x="159.033203" xlink:href="#DejaVuSans-53"/>
      </g>
     </g>
    </g>
    <g id="ytick_4">
     <g id="line2d_6">
      <g>
       <use style="stroke:#000000;stroke-width:0.8;" x="152.21598" xlink:href="#m950e4f57db" y="158.636534"/>
      </g>
     </g>
     <g id="text_6">
      <!-- 52.0 -->
      <g transform="translate(122.950355 162.435753)scale(0.1 -0.1)">
       <use xlink:href="#DejaVuSans-53"/>
       <use x="63.623047" xlink:href="#DejaVuSans-50"/>
       <use x="127.246094" xlink:href="#DejaVuSans-46"/>
       <use x="159.033203" xlink:href="#DejaVuSans-48"/>
      </g>
     </g>
    </g>
    <g id="ytick_5">
     <g id="line2d_7">
      <g>
       <use style="stroke:#000000;stroke-width:0.8;" x="152.21598" xlink:href="#m950e4f57db" y="132.055461"/>
      </g>
     </g>
     <g id="text_7">
      <!-- 52.5 -->
      <g transform="translate(122.950355 135.854679)scale(0.1 -0.1)">
       <use xlink:href="#DejaVuSans-53"/>
       <use x="63.623047" xlink:href="#DejaVuSans-50"/>
       <use x="127.246094" xlink:href="#DejaVuSans-46"/>
       <use x="159.033203" xlink:href="#DejaVuSans-53"/>
      </g>
     </g>
    </g>
    <g id="ytick_6">
     <g id="line2d_8">
      <g>
       <use style="stroke:#000000;stroke-width:0.8;" x="152.21598" xlink:href="#m950e4f57db" y="105.474387"/>
      </g>
     </g>
     <g id="text_8">
      <!-- 53.0 -->
      <defs>
       <path d="M 40.578125 39.3125 
Q 47.65625 37.796875 51.625 33 
Q 55.609375 28.21875 55.609375 21.1875 
Q 55.609375 10.40625 48.1875 4.484375 
Q 40.765625 -1.421875 27.09375 -1.421875 
Q 22.515625 -1.421875 17.65625 -0.515625 
Q 12.796875 0.390625 7.625 2.203125 
L 7.625 11.71875 
Q 11.71875 9.328125 16.59375 8.109375 
Q 21.484375 6.890625 26.8125 6.890625 
Q 36.078125 6.890625 40.9375 10.546875 
Q 45.796875 14.203125 45.796875 21.1875 
Q 45.796875 27.640625 41.28125 31.265625 
Q 36.765625 34.90625 28.71875 34.90625 
L 20.21875 34.90625 
L 20.21875 43.015625 
L 29.109375 43.015625 
Q 36.375 43.015625 40.234375 45.921875 
Q 44.09375 48.828125 44.09375 54.296875 
Q 44.09375 59.90625 40.109375 62.90625 
Q 36.140625 65.921875 28.71875 65.921875 
Q 24.65625 65.921875 20.015625 65.03125 
Q 15.375 64.15625 9.8125 62.3125 
L 9.8125 71.09375 
Q 15.4375 72.65625 20.34375 73.4375 
Q 25.25 74.21875 29.59375 74.21875 
Q 40.828125 74.21875 47.359375 69.109375 
Q 53.90625 64.015625 53.90625 55.328125 
Q 53.90625 49.265625 50.4375 45.09375 
Q 46.96875 40.921875 40.578125 39.3125 
z
" id="DejaVuSans-51"/>
      </defs>
      <g transform="translate(122.950355 109.273606)scale(0.1 -0.1)">
       <use xlink:href="#DejaVuSans-53"/>
       <use x="63.623047" xlink:href="#DejaVuSans-51"/>
       <use x="127.246094" xlink:href="#DejaVuSans-46"/>
       <use x="159.033203" xlink:href="#DejaVuSans-48"/>
      </g>
     </g>
    </g>
    <g id="ytick_7">
     <g id="line2d_9">
      <g>
       <use style="stroke:#000000;stroke-width:0.8;" x="152.21598" xlink:href="#m950e4f57db" y="78.893313"/>
      </g>
     </g>
     <g id="text_9">
      <!-- 53.5 -->
      <g transform="translate(122.950355 82.692532)scale(0.1 -0.1)">
       <use xlink:href="#DejaVuSans-53"/>
       <use x="63.623047" xlink:href="#DejaVuSans-51"/>
       <use x="127.246094" xlink:href="#DejaVuSans-46"/>
       <use x="159.033203" xlink:href="#DejaVuSans-53"/>
      </g>
     </g>
    </g>
    <g id="ytick_8">
     <g id="line2d_10">
      <g>
       <use style="stroke:#000000;stroke-width:0.8;" x="152.21598" xlink:href="#m950e4f57db" y="52.31224"/>
      </g>
     </g>
     <g id="text_10">
      <!-- 54.0 -->
      <g transform="translate(122.950355 56.111458)scale(0.1 -0.1)">
       <use xlink:href="#DejaVuSans-53"/>
       <use x="63.623047" xlink:href="#DejaVuSans-52"/>
       <use x="127.246094" xlink:href="#DejaVuSans-46"/>
       <use x="159.033203" xlink:href="#DejaVuSans-48"/>
      </g>
     </g>
    </g>
   </g>
   <g id="patch_3">
    <path d="M 152.21598 252 
L 152.21598 34.56 
" style="fill:none;stroke:#000000;stroke-linecap:square;stroke-linejoin:miter;stroke-width:0.8;"/>
   </g>
   <g id="patch_4">
    <path d="M 290.58402 252 
L 290.58402 34.56 
" style="fill:none;stroke:#000000;stroke-linecap:square;stroke-linejoin:miter;stroke-width:0.8;"/>
   </g>
   <g id="patch_5">
    <path d="M 152.21598 252 
L 290.58402 252 
" style="fill:none;stroke:#000000;stroke-linecap:square;stroke-linejoin:miter;stroke-width:0.8;"/>
   </g>
   <g id="patch_6">
    <path d="M 152.21598 34.56 
L 290.58402 34.56 
" style="fill:none;stroke:#000000;stroke-linecap:square;stroke-linejoin:miter;stroke-width:0.8;"/>
   </g>
  </g>
 </g>
 <defs>
  <clipPath id="p3ac2a0ca19">
   <rect height="217.44" width="138.36804" x="152.21598" y="34.56"/>
  </clipPath>
 </defs>
</svg>
