<?xml version="1.0" encoding="utf-8" standalone="no"?>
<!DOCTYPE svg PUBLIC "-//W3C//DTD SVG 1.1//EN"
  "http://www.w3.org/Graphics/SVG/1.1/DTD/svg11.dtd">
<!-- Created with matplotlib (https://matplotlib.org/) -->
<svg height="288pt" version="1.1" viewBox="0 0 432 288" width="432pt" xmlns="http://www.w3.org/2000/svg" xmlns:xlink="http://www.w3.org/1999/xlink">
 <defs>
  <style type="text/css">
*{stroke-linecap:butt;stroke-linejoin:round;}
  </style>
 </defs>
 <g id="figure_1">
  <g id="patch_1">
   <path d="M 0 288 
L 432 288 
L 432 0 
L 0 0 
z
" style="fill:#ffffff;"/>
  </g>
  <g id="axes_1">
   <g id="patch_2">
    <path d="M 107.858476 252 
L 334.941524 252 
L 334.941524 34.56 
L 107.858476 34.56 
z
" style="fill:#ffffff;"/>
   </g>
   <g id="PatchCollection_1">
    <path clip-path="url(#p6f98bef52c)" d="M 237.146403 97.405543 
L 324.436177 96.91081 
L 324.619568 44.443636 
L 235.267877 44.956431 
L 237.146403 97.405543 
" style="fill:none;stroke:#0000ff;stroke-opacity:0.2;"/>
    <path clip-path="url(#p6f98bef52c)" d="M 238.763137 145.162613 
L 324.278349 144.68362 
L 324.452173 92.208478 
L 236.982554 92.704796 
L 238.763137 145.162613 
" style="fill:none;stroke:#0000ff;stroke-opacity:0.2;"/>
    <path clip-path="url(#p6f98bef52c)" d="M 240.297995 192.956297 
L 324.128518 192.492431 
L 324.293425 140.009247 
L 238.608703 140.489752 
L 240.297995 192.956297 
" style="fill:none;stroke:#0000ff;stroke-opacity:0.2;"/>
    <path clip-path="url(#p6f98bef52c)" d="M 241.755514 240.757946 
L 323.98624 240.308629 
L 324.142827 187.817339 
L 240.151413 188.282658 
L 241.755514 240.757946 
" style="fill:none;stroke:#0000ff;stroke-opacity:0.2;"/>
    <path clip-path="url(#p6f98bef52c)" d="M 197.190794 98.182763 
L 244.966464 97.312132 
L 243.272503 44.85961 
L 220.935898 45.271794 
L 220.507633 46.204312 
L 216.981033 53.929895 
L 213.481473 61.658346 
L 210.006944 69.38834 
L 206.547394 77.118916 
L 203.094421 84.848031 
L 199.660966 92.583144 
L 197.190794 98.182763 
" style="fill:none;stroke:#0000ff;stroke-opacity:0.2;"/>
    <path clip-path="url(#p6f98bef52c)" d="M 166.967314 242.116364 
L 249.122687 240.673108 
L 247.676211 188.194799 
L 163.765934 189.689417 
L 166.967314 242.116364 
" style="fill:none;stroke:#0000ff;stroke-opacity:0.2;"/>
    <path clip-path="url(#p6f98bef52c)" d="M 164.058465 194.358667 
L 247.80839 192.868713 
L 246.285086 140.399027 
L 178.352054 141.623883 
L 176.167269 146.767894 
L 172.886941 154.511366 
L 169.618353 162.255129 
L 166.377626 170.00331 
L 163.151599 177.754312 
L 163.012156 178.090158 
L 164.058465 194.358667 
" style="fill:none;stroke:#0000ff;stroke-opacity:0.2;"/>
    <path clip-path="url(#p6f98bef52c)" d="M 176.3515 146.334129 
L 246.424345 145.072173 
L 244.818713 92.611085 
L 199.282158 93.441861 
L 196.24719 100.321814 
L 192.845409 108.060555 
L 189.466051 115.800697 
L 186.106109 123.541222 
L 182.766257 131.281998 
L 179.456032 139.024599 
L 176.3515 146.334129 
" style="fill:none;stroke:#0000ff;stroke-opacity:0.2;"/>
    <path clip-path="url(#p6f98bef52c)" d="M 233.854215 196.97042 
L 239.057965 144.647585 
L 177.891007 142.709405 
L 176.167269 146.767894 
L 172.886941 154.511366 
L 169.618353 162.255129 
L 166.377626 170.00331 
L 163.151599 177.754312 
L 159.932551 185.507329 
L 156.718964 193.262322 
L 156.191074 194.542414 
L 233.854215 196.97042 
" style="fill:none;stroke:#0000ff;stroke-opacity:0.2;"/>
    <path clip-path="url(#p6f98bef52c)" d="M 238.582296 149.30739 
L 244.066017 96.999173 
L 198.359417 95.533619 
L 196.24719 100.321814 
L 192.845409 108.060555 
L 189.466051 115.800697 
L 186.106109 123.541222 
L 182.766257 131.281998 
L 179.456032 139.024599 
L 176.167269 146.767894 
L 175.931464 147.32453 
L 238.582296 149.30739 
" style="fill:none;stroke:#0000ff;stroke-opacity:0.2;"/>
    <path clip-path="url(#p6f98bef52c)" d="M 243.561462 101.686237 
L 249.345409 49.39306 
L 219.493991 48.424857 
L 216.981033 53.929895 
L 213.481473 61.658346 
L 210.006944 69.38834 
L 206.547394 77.118916 
L 203.094421 84.848031 
L 199.660966 92.583144 
L 196.312846 100.172979 
L 243.561462 101.686237 
" style="fill:none;stroke:#0000ff;stroke-opacity:0.2;"/>
   </g>
   <g id="PatchCollection_2">
    <path clip-path="url(#p6f98bef52c)" d="M 118.180432 98.986011 
L 118.346463 99.278105 
L 118.276156 99.769525 
L 118.315145 100.063873 
L 118.570515 100.334772 
L 119.543425 100.966311 
L 120.782975 101.542164 
L 121.580763 102.304817 
L 122.130885 102.565051 
L 122.81522 102.573504 
L 125.454742 101.620892 
L 128.076991 101.327963 
L 128.65647 101.506822 
L 130.123378 102.444522 
L 130.737773 102.821383 
L 131.388175 102.981221 
L 132.216675 102.93061 
L 133.164715 102.688935 
L 133.427629 102.790842 
L 134.155105 103.323888 
L 135.230299 103.597699 
L 135.806608 103.570682 
L 137.145731 103.257967 
L 137.834664 103.351016 
L 138.120709 103.530864 
L 138.117599 103.745139 
L 137.76507 104.019036 
L 137.295978 104.433281 
L 137.273442 104.711042 
L 137.532884 104.976337 
L 138.058376 105.169391 
L 138.628311 105.185621 
L 140.04025 105.068122 
L 140.36733 105.387483 
L 140.396144 105.662347 
L 140.40541 106.19029 
L 140.643348 106.496371 
L 141.057237 106.63523 
L 141.468021 106.652556 
L 143.208794 106.087054 
L 144.149743 106.239348 
L 144.910546 106.695628 
L 145.734288 107.473071 
L 146.004251 107.606976 
L 147.161075 107.717878 
L 148.409057 107.78743 
L 149.011192 108.062517 
L 149.169775 108.347695 
L 149.040682 108.663749 
L 148.644847 108.924594 
L 148.115432 109.224514 
L 147.79497 109.660927 
L 147.935999 109.976891 
L 148.279692 110.218056 
L 148.932911 110.310186 
L 150.565781 110.378409 
L 151.071539 110.838373 
L 151.540568 111.079405 
L 152.313163 111.216324 
L 154.432424 111.458382 
L 155.311598 111.857412 
L 156.528804 112.021492 
L 156.557751 111.883589 
L 156.8643 111.741795 
L 157.560734 111.649846 
L 157.657266 111.465033 
L 157.682135 111.46886 
L 158.541587 111.348156 
L 158.976618 111.424991 
L 159.716093 111.418234 
L 159.841561 111.493097 
L 160.222441 111.406655 
L 160.787321 111.528508 
L 160.721543 111.651201 
L 160.80353 111.652334 
L 161.46576 111.690743 
L 161.530155 111.746707 
L 161.61404 112.024931 
L 163.186002 112.076009 
L 163.486995 111.441827 
L 163.858338 111.091973 
L 163.857472 111.094705 
L 164.0328 111.132317 
L 163.595031 111.860033 
L 163.652813 112.136774 
L 164.274965 112.611198 
L 163.77876 113.245327 
L 164.035974 113.210288 
L 164.791164 113.028303 
L 166.464012 112.600932 
L 167.288323 112.116381 
L 167.589757 111.969297 
L 167.690388 112.038078 
L 167.861225 112.381272 
L 168.190043 112.548562 
L 168.274454 112.601863 
L 168.272402 112.65217 
L 168.640991 112.764853 
L 168.884447 112.618125 
L 169.355129 112.788855 
L 169.645793 113.04398 
L 169.48982 113.30657 
L 169.683634 113.612752 
L 169.891359 113.731149 
L 169.83647 113.816889 
L 170.348293 115.296078 
L 170.899686 115.845551 
L 170.611085 115.912153 
L 170.790331 116.184657 
L 170.366932 116.335137 
L 170.354194 116.644685 
L 170.037274 116.832863 
L 169.94475 116.76052 
L 168.887206 116.650995 
L 168.935265 116.684524 
L 169.071807 116.800657 
L 168.959347 117.487756 
L 168.49739 117.661315 
L 168.519393 117.790111 
L 168.502568 117.954924 
L 168.628158 118.036337 
L 168.405174 118.017459 
L 168.158646 118.119041 
L 168.132655 118.207232 
L 168.372761 118.627851 
L 168.863533 118.749151 
L 168.871348 118.879541 
L 168.925701 119.016822 
L 168.899949 119.082121 
L 168.766799 119.107267 
L 168.842917 119.166266 
L 168.988512 119.322653 
L 168.957418 119.33966 
L 167.882601 119.921052 
L 167.926407 119.917384 
L 168.148231 120.013735 
L 167.972546 120.060778 
L 168.117243 120.134726 
L 167.694657 120.468228 
L 167.730802 120.496458 
L 167.827116 120.482981 
L 168.188778 120.401515 
L 168.386036 120.583415 
L 168.355101 120.602925 
L 168.098301 120.77693 
L 168.443605 120.942584 
L 168.747438 121.038111 
L 168.787995 121.087812 
L 169.09943 121.271142 
L 169.049308 121.312077 
L 168.744099 121.475322 
L 168.878078 121.832539 
L 169.063513 122.048659 
L 169.554976 122.044188 
L 169.490607 122.144973 
L 169.259767 122.354464 
L 169.287831 122.378015 
L 169.697174 122.710395 
L 169.897521 123.023111 
L 169.820436 123.410381 
L 169.834593 123.4239 
L 169.612652 123.567752 
L 169.650407 123.622913 
L 169.689832 123.841696 
L 169.577527 123.957579 
L 169.748481 124.212093 
L 169.811069 124.398894 
L 169.769852 124.543203 
L 169.480023 124.713082 
L 169.473914 125.155902 
L 169.781909 125.155827 
L 169.258464 125.261795 
L 168.064607 125.647285 
L 167.859173 125.744832 
L 167.374509 125.673446 
L 166.064185 125.279206 
L 166.106379 125.885403 
L 166.509763 125.805814 
L 166.411105 125.868216 
L 166.236122 126.257693 
L 166.318395 126.375925 
L 166.527557 126.379461 
L 166.408984 126.978678 
L 166.581059 127.986377 
L 166.839321 128.05671 
L 166.710445 128.149244 
L 165.537592 129.018552 
L 164.795608 130.493318 
L 164.797293 130.563539 
L 164.899726 130.481404 
L 165.512601 130.35398 
L 165.837209 130.189879 
L 166.510486 130.071827 
L 166.866949 130.25606 
L 167.223167 130.342257 
L 167.149554 130.415669 
L 166.954975 130.658827 
L 166.627241 130.816129 
L 166.425661 131.06136 
L 166.073929 131.274174 
L 166.113822 131.331828 
L 166.292436 131.732602 
L 167.092356 132.242974 
L 167.118969 132.189541 
L 167.275091 132.112334 
L 168.275645 132.042936 
L 168.472371 131.865018 
L 168.477565 131.888128 
L 168.715524 132.004712 
L 168.979001 132.043191 
L 169.074927 131.876809 
L 169.302137 131.722092 
L 169.269097 131.679493 
L 169.081838 131.441257 
L 169.102657 131.423209 
L 169.335081 131.312132 
L 169.53613 131.154894 
L 169.523807 130.969098 
L 169.49351 130.862747 
L 169.529044 130.843034 
L 169.825747 130.822455 
L 170.32504 131.06059 
L 170.902945 131.088053 
L 170.917431 131.349414 
L 170.897363 131.474787 
L 170.989413 131.726584 
L 171.035786 131.860249 
L 171.546664 132.00694 
L 171.467341 132.055716 
L 171.12192 132.306822 
L 171.237351 132.325806 
L 171.586881 132.482852 
L 171.641197 132.719924 
L 171.679665 132.713369 
L 172.249356 132.594339 
L 172.433212 132.450966 
L 172.872049 132.407761 
L 172.851162 132.374694 
L 172.910959 132.304531 
L 173.137924 132.295015 
L 173.71896 132.540587 
L 174.712241 132.233979 
L 174.74727 132.32907 
L 174.586911 132.524957 
L 173.841637 132.577109 
L 173.59103 133.161563 
L 173.663692 133.217745 
L 173.937966 133.32358 
L 174.114864 133.34468 
L 174.773707 133.18648 
L 174.589001 133.358869 
L 174.47584 133.664307 
L 174.391865 134.012104 
L 173.914384 134.200644 
L 174.012011 134.581242 
L 173.702208 134.603214 
L 173.353002 134.736013 
L 173.393528 134.841902 
L 173.28286 134.938758 
L 173.384607 134.956259 
L 173.546688 134.997746 
L 173.487019 135.072141 
L 173.282334 135.438173 
L 173.18787 135.587766 
L 172.562885 135.740974 
L 172.727124 135.887192 
L 172.993493 136.101052 
L 172.919587 136.112424 
L 172.403154 136.283616 
L 172.265693 136.34495 
L 171.793724 136.57889 
L 171.880735 136.741949 
L 172.711675 136.963927 
L 173.242861 137.066557 
L 173.227088 137.222183 
L 173.102991 137.663849 
L 172.835713 137.894754 
L 172.772179 138.195035 
L 172.845569 138.37224 
L 173.486482 138.556452 
L 173.370912 138.645276 
L 173.063465 138.904462 
L 172.444099 138.989463 
L 172.290647 139.16249 
L 172.390884 139.348228 
L 173.05295 139.86246 
L 173.025279 139.981134 
L 173.568059 140.315147 
L 173.529841 140.3479 
L 173.001292 140.915034 
L 172.553348 141.490769 
L 172.229383 141.641377 
L 171.967161 141.992476 
L 171.53449 142.601571 
L 171.185028 142.993036 
L 171.0978 143.162511 
L 170.536397 144.21299 
L 170.583573 144.621472 
L 170.723485 144.729971 
L 170.667638 144.787519 
L 170.235861 145.35327 
L 171.13202 145.52492 
L 170.902982 145.705055 
L 171.013533 145.734406 
L 171.828189 146.016457 
L 171.706177 146.063362 
L 171.238222 146.086445 
L 171.256276 146.037802 
L 171.115046 146.105414 
L 171.144423 146.169293 
L 171.201078 146.172254 
L 171.46952 146.132877 
L 172.387285 146.237357 
L 172.38291 146.263119 
L 172.389816 146.351358 
L 172.43453 146.342357 
L 172.985965 146.467341 
L 172.813406 146.549413 
L 171.930617 147.118737 
L 171.139607 147.14174 
L 170.944794 147.155972 
L 170.242421 147.590477 
L 170.225925 147.608196 
L 170.332813 147.639306 
L 170.646278 147.755434 
L 170.586715 147.869785 
L 170.172157 148.187583 
L 170.056667 148.322908 
L 170.191003 148.741432 
L 170.3505 148.870414 
L 170.240704 148.904401 
L 169.874193 148.918643 
L 169.323923 148.735744 
L 168.674669 149.567822 
L 168.956838 149.821315 
L 169.612242 149.981827 
L 169.506886 150.402627 
L 169.525248 150.403414 
L 170.689307 151.43897 
L 171.279019 151.69443 
L 171.313904 151.885814 
L 171.463189 152.048564 
L 171.529578 152.532829 
L 171.920872 153.12379 
L 172.433254 153.155357 
L 174.181311 153.948829 
L 174.429589 154.481519 
L 174.666123 154.882606 
L 175.062702 155.189017 
L 175.741838 155.532811 
L 176.314543 156.160359 
L 178.149254 156.556512 
L 178.739327 156.983617 
L 179.764782 157.511209 
L 180.160787 157.670865 
L 180.877572 157.75543 
L 181.124686 157.711258 
L 181.209086 157.357554 
L 181.246507 157.254537 
L 181.814821 156.78831 
L 182.74586 156.872885 
L 182.809511 157.261846 
L 182.987466 157.728238 
L 183.627167 158.092978 
L 183.868422 158.206926 
L 184.885653 158.356083 
L 185.6746 158.48086 
L 185.698667 158.658326 
L 185.907419 159.197517 
L 185.866702 159.438092 
L 185.90105 159.437465 
L 189.895436 159.575963 
L 189.864612 159.489574 
L 189.894819 159.243386 
L 189.829488 159.077722 
L 189.934632 159.061917 
L 191.212257 158.946688 
L 191.472283 158.829263 
L 191.705718 158.182136 
L 192.042979 157.953773 
L 192.837796 157.97264 
L 193.049929 158.120707 
L 193.258622 158.369347 
L 194.676408 158.582059 
L 195.023084 158.650202 
L 194.963181 158.75322 
L 195.308395 158.920638 
L 196.276998 159.261902 
L 196.439334 159.199984 
L 196.967048 159.297308 
L 197.493354 159.512758 
L 197.753136 159.686811 
L 198.482382 159.922521 
L 198.449416 160.50066 
L 199.786179 160.649514 
L 201.160473 160.495843 
L 202.077223 160.364219 
L 202.301306 160.806177 
L 202.394032 160.866596 
L 202.687078 162.098538 
L 204.467956 162.254814 
L 204.598103 162.445166 
L 205.428389 162.378767 
L 205.829412 162.291576 
L 205.937156 161.861983 
L 206.604575 161.960965 
L 207.560994 162.072925 
L 208.258938 162.095646 
L 208.248269 162.153811 
L 208.027444 162.74473 
L 208.064875 162.747616 
L 209.103802 162.895407 
L 209.098916 162.919506 
L 208.919606 163.899645 
L 208.978451 163.880603 
L 209.724922 163.735688 
L 210.433855 163.784922 
L 211.195052 163.897429 
L 211.516662 164.13156 
L 211.517656 163.949405 
L 211.556953 163.778898 
L 212.782192 164.009968 
L 212.915198 164.392336 
L 212.341393 164.440023 
L 212.365246 164.558027 
L 212.348857 165.003611 
L 212.344694 165.003249 
L 211.782015 164.960198 
L 211.877181 165.111205 
L 212.187318 165.302722 
L 212.577969 165.526625 
L 213.896423 165.606459 
L 214.768516 165.464883 
L 214.864053 165.346953 
L 215.746024 165.349547 
L 216.675825 165.126128 
L 216.727855 164.850312 
L 217.387857 164.884458 
L 217.376964 165.037257 
L 217.76718 165.145383 
L 217.795037 165.217578 
L 217.968563 165.332195 
L 218.045372 165.406617 
L 218.33215 165.514727 
L 218.385222 166.011145 
L 218.329322 166.10555 
L 216.910817 166.297891 
L 216.917665 166.335934 
L 217.117639 166.821113 
L 217.471439 167.333989 
L 217.58813 167.547058 
L 217.765851 167.717512 
L 217.759838 167.747001 
L 217.867375 167.7475 
L 217.928639 167.825697 
L 217.855349 167.94798 
L 217.797732 167.962706 
L 218.065818 168.222276 
L 218.3092 168.246608 
L 218.18773 168.322561 
L 218.23204 168.362496 
L 218.576579 168.569079 
L 218.974965 169.189183 
L 218.890576 169.235014 
L 218.784113 169.411619 
L 219.044055 169.672502 
L 218.93898 169.721693 
L 218.857232 169.907691 
L 219.417152 169.954181 
L 219.358015 170.183491 
L 218.825893 170.199753 
L 218.824001 170.269252 
L 218.9067 170.289257 
L 218.897636 170.5056 
L 218.767452 170.682779 
L 218.183136 171.047913 
L 218.310784 171.067966 
L 218.623356 171.166427 
L 218.518021 171.185704 
L 218.297887 171.430989 
L 218.376003 171.456554 
L 219.064512 171.795288 
L 219.005321 171.891378 
L 218.638364 172.070636 
L 218.652978 172.084793 
L 218.759579 172.179416 
L 218.6045 172.153425 
L 218.602735 172.173552 
L 218.502986 172.2342 
L 218.469649 172.237692 
L 218.691292 172.291152 
L 218.662069 172.326781 
L 219.286639 172.542545 
L 219.239793 172.586436 
L 219.393463 172.743349 
L 219.762621 172.860662 
L 219.985503 173.135638 
L 220.286529 173.750916 
L 220.190321 173.747253 
L 219.255316 173.625379 
L 219.316394 173.762388 
L 219.423973 174.047465 
L 219.38274 174.167776 
L 219.336239 174.152907 
L 218.692547 173.952926 
L 218.570295 174.121217 
L 218.885727 174.637735 
L 218.913106 174.847433 
L 218.66764 174.864073 
L 218.858041 174.94338 
L 218.946173 175.076009 
L 218.858094 175.086317 
L 218.584032 175.177219 
L 218.555038 175.308014 
L 213.056673 177.371332 
L 213.17296 177.487699 
L 214.798526 179.244123 
L 215.020042 179.487117 
L 215.587399 179.48919 
L 215.52177 179.439191 
L 215.492701 179.404827 
L 215.940459 179.390245 
L 215.639875 179.313106 
L 215.518942 179.040273 
L 215.884873 179.028051 
L 216.031957 179.283989 
L 216.292457 179.224256 
L 216.258539 179.151068 
L 216.236163 179.115173 
L 216.697956 178.916464 
L 216.658675 178.849277 
L 216.856321 178.997461 
L 217.197909 179.297817 
L 217.775766 179.764283 
L 218.015335 179.935231 
L 217.993597 179.976006 
L 217.995671 180.040269 
L 218.654515 180.008265 
L 218.693323 180.080236 
L 218.944588 180.324011 
L 218.554968 180.493157 
L 218.562151 180.719442 
L 218.268249 181.033572 
L 217.895295 181.534279 
L 217.998047 181.652709 
L 218.163626 181.832801 
L 218.827222 181.91903 
L 219.04692 182.104879 
L 220.245472 182.264998 
L 220.49149 183.154242 
L 221.249518 183.909575 
L 221.411424 183.927272 
L 221.379064 184.432664 
L 221.392269 184.772923 
L 221.35891 184.959692 
L 221.092679 185.001281 
L 221.196016 185.287123 
L 221.083546 185.430453 
L 220.804004 185.538989 
L 220.919653 185.613778 
L 221.066433 185.651613 
L 220.65869 185.843098 
L 220.539474 185.823348 
L 220.36254 185.659816 
L 220.041169 185.647062 
L 220.11457 185.686727 
L 220.28999 185.93543 
L 220.245982 186.134182 
L 220.034817 186.645384 
L 220.116729 186.833184 
L 220.628292 187.190126 
L 221.18456 187.505866 
L 221.114885 187.881473 
L 220.879627 188.087083 
L 220.548166 188.403679 
L 220.552419 188.559003 
L 220.453447 188.512545 
L 220.20426 188.503619 
L 219.643703 188.836648 
L 219.666828 189.108168 
L 220.280463 189.213105 
L 220.40046 189.061758 
L 220.305311 188.819577 
L 220.611583 188.615403 
L 221.140525 188.919559 
L 221.182524 189.181404 
L 221.092653 189.65492 
L 221.936554 190.802345 
L 224.060611 190.999146 
L 224.35204 191.241363 
L 224.368366 191.343615 
L 224.635421 191.353333 
L 224.721554 191.016992 
L 224.635293 191.024961 
L 224.380498 191.016769 
L 224.368983 190.821584 
L 224.129769 190.679492 
L 224.184882 190.457578 
L 224.229454 190.479332 
L 224.434814 190.504903 
L 225.579884 190.571212 
L 225.55293 190.464813 
L 225.535812 189.960852 
L 227.823571 189.100146 
L 227.408082 188.546414 
L 227.513104 188.553793 
L 228.069882 188.552177 
L 228.068585 188.619815 
L 228.221856 188.896508 
L 228.443123 188.960425 
L 229.555317 188.790407 
L 230.678639 189.115887 
L 230.649431 189.016804 
L 230.234352 188.50146 
L 230.435879 188.582336 
L 230.720722 188.540949 
L 231.11636 187.946394 
L 231.642229 187.727999 
L 231.728868 187.655651 
L 231.754497 187.66942 
L 232.115883 187.892701 
L 232.019319 187.956697 
L 231.918072 188.090517 
L 231.970697 188.122643 
L 232.380837 188.430574 
L 232.730219 188.563469 
L 232.760941 188.664105 
L 232.966674 188.733104 
L 233.116968 188.811736 
L 233.140062 188.862378 
L 233.075624 188.906216 
L 233.084715 188.943902 
L 233.133103 188.940649 
L 233.155607 188.962818 
L 233.116495 189.006107 
L 233.169727 189.093511 
L 232.780234 189.387211 
L 232.945196 189.379518 
L 233.194256 189.3149 
L 233.348426 189.094176 
L 233.464484 189.064533 
L 233.482575 189.122495 
L 233.962863 189.115893 
L 234.042155 189.150331 
L 233.937111 189.003332 
L 234.0636 188.893611 
L 234.099059 188.953589 
L 234.274186 189.130624 
L 234.428532 189.35189 
L 234.967766 189.287277 
L 235.044038 189.088525 
L 235.085339 189.121331 
L 235.648428 189.549292 
L 235.579529 189.525108 
L 235.100549 189.368604 
L 235.101347 189.489851 
L 234.991322 189.709868 
L 234.952998 189.705828 
L 235.025771 189.888365 
L 235.804113 189.992388 
L 236.558851 190.168221 
L 236.727678 190.36835 
L 237.625443 190.329106 
L 237.907702 190.350233 
L 238.055264 190.398419 
L 238.343328 191.534712 
L 238.957787 191.559762 
L 239.009142 191.84882 
L 239.193955 192.160297 
L 239.417103 192.084297 
L 239.488856 191.910462 
L 239.683052 191.637549 
L 240.110024 191.559002 
L 241.107664 191.34261 
L 241.718513 191.371998 
L 241.593072 191.491868 
L 241.82345 191.734633 
L 241.778427 191.868692 
L 241.881392 191.875545 
L 242.011192 191.89665 
L 241.943852 192.15706 
L 242.004978 192.166363 
L 243.145561 192.134514 
L 243.164433 192.07737 
L 244.313363 192.203497 
L 245.484036 192.184619 
L 245.742681 191.990965 
L 245.948168 191.835429 
L 246.650983 192.249349 
L 247.092531 191.916751 
L 247.806616 192.328226 
L 248.500866 192.479499 
L 249.473271 192.5302 
L 249.870429 192.571501 
L 250.073062 192.447102 
L 250.334997 192.240264 
L 250.534525 192.034505 
L 251.244538 192.145843 
L 251.220126 192.179569 
L 251.001347 192.367369 
L 250.844705 192.462253 
L 250.946925 192.707676 
L 250.98509 192.664886 
L 251.12286 192.534277 
L 251.62974 192.609119 
L 251.833367 192.183232 
L 252.524156 192.089347 
L 253.5596 192.05585 
L 253.957955 192.135912 
L 254.635198 191.790948 
L 254.854003 191.667479 
L 254.70256 191.397607 
L 254.843636 191.435931 
L 255.336003 191.480098 
L 256.331905 191.653912 
L 256.324144 191.672992 
L 256.404142 191.716154 
L 256.427108 191.704198 
L 256.651899 191.783505 
L 257.408444 191.852441 
L 257.774939 191.750641 
L 257.774838 191.76728 
L 258.327958 191.744575 
L 258.705989 191.64278 
L 258.703703 191.636879 
L 258.642146 191.446845 
L 258.71837 191.432651 
L 259.216744 191.355199 
L 259.497286 191.293324 
L 260.643977 190.939875 
L 260.789881 190.79444 
L 261.340077 190.685781 
L 261.89273 190.825311 
L 262.052354 190.942735 
L 262.049218 190.957296 
L 261.943409 191.825711 
L 263.125459 191.961992 
L 263.545323 191.993831 
L 263.507051 191.94615 
L 263.395305 191.310984 
L 263.879054 191.067847 
L 263.947994 190.959726 
L 263.898293 190.962171 
L 263.714804 190.771128 
L 263.768221 190.756721 
L 264.321448 190.634671 
L 265.00868 190.732421 
L 264.970462 190.660604 
L 264.882436 190.445643 
L 264.359235 190.376489 
L 264.404785 190.25705 
L 265.899114 189.450006 
L 265.879093 189.44065 
L 265.796245 189.219825 
L 265.670341 189.147386 
L 265.553677 189.023204 
L 265.985077 189.038643 
L 265.940325 188.955875 
L 265.822109 188.764252 
L 265.474104 188.697756 
L 265.516097 188.664264 
L 266.212569 188.334957 
L 266.840898 188.119134 
L 266.316097 187.709095 
L 266.425691 187.279752 
L 265.254369 186.546502 
L 265.566851 186.278778 
L 267.493755 186.675622 
L 268.122212 186.411284 
L 268.242268 186.338601 
L 267.560123 185.807474 
L 267.437334 185.631422 
L 268.674598 185.252621 
L 268.739807 184.939687 
L 269.328312 184.046765 
L 269.627354 184.024862 
L 269.927678 184.017361 
L 270.463154 184.046967 
L 270.81817 184.004597 
L 270.894442 183.963614 
L 271.078521 183.996676 
L 270.87499 183.865275 
L 270.459315 183.567179 
L 270.430868 183.278593 
L 270.597292 183.090367 
L 271.016194 182.882307 
L 271.165984 182.894906 
L 271.507184 183.015143 
L 275.336634 183.268232 
L 275.944458 183.463948 
L 276.537716 183.56191 
L 276.527354 183.600235 
L 276.403503 183.682944 
L 276.514542 183.683955 
L 276.785951 183.696761 
L 277.35308 183.488259 
L 277.949803 183.490136 
L 278.695089 183.678702 
L 279.769363 183.934976 
L 280.749248 184.29214 
L 280.890776 184.666822 
L 280.907862 184.826016 
L 281.100288 184.90308 
L 281.218382 184.943605 
L 281.701982 184.652952 
L 281.705076 184.48624 
L 281.752593 184.273299 
L 281.566977 184.272077 
L 281.585472 184.199096 
L 281.695821 184.096078 
L 282.55851 183.974183 
L 283.836273 183.393014 
L 284.072068 183.297981 
L 284.058214 183.293271 
L 284.099595 183.240662 
L 284.104481 183.194629 
L 284.128399 183.007466 
L 285.174156 183.204347 
L 285.346216 183.192598 
L 285.505096 183.130776 
L 287.030191 182.860717 
L 287.326734 182.969296 
L 287.299308 182.883157 
L 287.357446 182.329904 
L 287.615027 182.23805 
L 288.191672 182.1813 
L 288.149865 182.253037 
L 288.265216 182.270931 
L 288.418509 182.165851 
L 289.22692 182.130339 
L 290.841635 182.287263 
L 291.025597 182.317884 
L 292.630174 181.832019 
L 292.56782 181.706269 
L 292.457908 181.304124 
L 292.628951 181.355107 
L 293.26341 181.33726 
L 293.464033 181.159864 
L 293.633806 180.96125 
L 293.801474 180.899975 
L 294.487245 181.108615 
L 294.608199 181.271276 
L 295.159581 181.307256 
L 295.375632 181.56876 
L 295.907259 182.463873 
L 296.172235 182.579968 
L 296.578011 182.538491 
L 297.192369 182.472208 
L 297.55779 182.338548 
L 298.54307 182.36094 
L 298.942206 182.387723 
L 299.526267 182.455016 
L 300.049457 182.12709 
L 300.262137 181.775822 
L 300.399062 181.495742 
L 300.536608 181.221388 
L 300.422528 181.186519 
L 300.343667 181.160113 
L 300.625729 181.133261 
L 300.754318 181.168173 
L 301.086762 181.135398 
L 301.022032 181.085442 
L 300.863625 180.778175 
L 300.652369 180.381442 
L 300.547857 180.074479 
L 300.597303 180.074271 
L 301.157388 180.05491 
L 301.626517 180.358508 
L 301.775244 180.504332 
L 301.831872 180.632681 
L 302.316408 180.870289 
L 302.316147 180.853751 
L 302.418325 180.688629 
L 303.094957 180.233412 
L 303.569705 180.001498 
L 303.630262 179.904753 
L 304.042269 179.689127 
L 304.078685 179.592745 
L 304.202074 179.403221 
L 304.203829 179.240971 
L 303.65594 178.281075 
L 303.696396 178.080494 
L 303.640576 177.883316 
L 303.679065 177.437338 
L 303.438033 177.104448 
L 303.776294 176.740856 
L 303.782136 176.62207 
L 303.746119 176.597339 
L 303.535086 176.413202 
L 303.493301 176.231493 
L 303.290471 176.017128 
L 303.133249 175.833298 
L 302.729988 175.728361 
L 302.722785 175.569109 
L 302.821204 175.441116 
L 302.654375 175.192599 
L 302.386736 175.209712 
L 302.234315 175.184412 
L 301.469402 174.720886 
L 299.697598 173.675176 
L 299.393489 173.313157 
L 299.005831 173.130279 
L 298.818604 172.84037 
L 298.525761 172.509622 
L 298.406943 172.34315 
L 298.600172 171.98052 
L 298.500556 171.713785 
L 298.821007 171.565196 
L 298.786202 171.509477 
L 298.517361 171.430733 
L 298.087635 171.257972 
L 298.191302 171.09317 
L 298.318997 170.947878 
L 298.26945 170.184788 
L 298.18338 170.043483 
L 297.98928 169.906107 
L 297.619628 169.431757 
L 297.276376 169.303354 
L 297.119149 169.185345 
L 296.18181 169.079956 
L 295.956179 169.069569 
L 295.71494 169.029495 
L 295.459304 168.703723 
L 295.390895 168.511547 
L 295.035639 168.25261 
L 294.884983 168.133341 
L 294.881495 167.936502 
L 294.905498 167.787409 
L 295.03632 167.6183 
L 294.982312 167.379485 
L 294.936704 167.196315 
L 295.323161 167.053197 
L 295.577601 167.168134 
L 295.730022 167.056164 
L 295.620805 166.867826 
L 295.610008 166.735851 
L 295.854841 166.744745 
L 296.032467 166.88117 
L 296.055273 166.738073 
L 295.815235 166.43708 
L 295.899248 166.382961 
L 296.159689 166.200609 
L 296.751511 166.158984 
L 298.204794 165.187536 
L 298.292405 164.888212 
L 298.461631 164.724493 
L 298.72447 164.57708 
L 298.816882 164.440788 
L 299.408571 164.460044 
L 299.317361 164.314868 
L 299.439777 164.226731 
L 299.856239 164.100088 
L 300.04707 163.995662 
L 300.425122 163.76388 
L 300.347803 163.429984 
L 300.752771 163.093085 
L 300.988008 162.745915 
L 301.000012 162.614908 
L 300.955606 162.249306 
L 301.237647 162.030268 
L 301.505286 161.911137 
L 301.766924 161.669196 
L 301.805009 161.310473 
L 301.807439 161.101318 
L 301.596497 160.957572 
L 301.444075 160.895442 
L 301.086422 160.209927 
L 300.985217 159.912001 
L 301.066077 159.744056 
L 301.283308 159.722988 
L 301.475335 159.655717 
L 301.624758 159.43655 
L 301.660764 159.232551 
L 301.878596 158.930282 
L 301.776583 158.70564 
L 301.532346 158.36613 
L 301.591755 158.341745 
L 302.095827 158.167022 
L 302.17606 157.878639 
L 302.891473 157.436798 
L 302.915237 157.276482 
L 302.916938 157.06605 
L 303.297983 156.889052 
L 303.296282 156.58312 
L 303.353995 156.288192 
L 303.166439 156.134213 
L 303.161005 155.834464 
L 303.202738 155.688268 
L 303.689538 155.470255 
L 303.831221 155.297314 
L 303.823193 155.044687 
L 302.782188 154.03375 
L 301.837842 153.606066 
L 300.57505 153.320522 
L 299.833634 152.660014 
L 299.76362 152.2842 
L 299.853868 151.869897 
L 299.67116 151.304693 
L 299.686099 150.974689 
L 299.842635 150.78583 
L 301.0231 149.656693 
L 300.946749 149.265393 
L 300.687668 148.951827 
L 299.972983 148.328075 
L 300.104012 148.114044 
L 301.173273 147.383623 
L 301.394066 146.821912 
L 301.461529 146.388715 
L 301.589729 146.149745 
L 301.503447 146.0429 
L 300.961464 145.632148 
L 300.663644 145.221168 
L 300.167604 144.986717 
L 297.198653 144.489624 
L 296.150364 144.195021 
L 295.095181 144.078915 
L 294.887311 143.845889 
L 294.786585 143.597059 
L 294.430457 143.428263 
L 294.092298 143.260202 
L 294.055159 142.942 
L 294.112633 142.851444 
L 294.615233 142.445109 
L 294.57332 142.291954 
L 294.239658 141.791933 
L 294.152898 141.562038 
L 293.876178 141.385715 
L 293.360984 141.209669 
L 293.35916 140.982411 
L 293.449865 140.717637 
L 293.27628 140.371286 
L 292.877819 139.756652 
L 292.91868 139.419359 
L 292.605922 138.384037 
L 291.920848 137.493151 
L 292.10523 137.170489 
L 292.585199 136.625369 
L 292.484143 136.326683 
L 292.445755 135.970752 
L 292.652625 135.652555 
L 293.255696 135.293636 
L 294.441823 135.023913 
L 294.796622 134.708321 
L 295.253471 134.406599 
L 295.68401 134.081704 
L 295.968007 133.857009 
L 296.171039 133.227532 
L 297.123912 132.627443 
L 297.290171 132.269486 
L 297.128574 131.987387 
L 296.690417 131.738997 
L 296.132135 131.550564 
L 295.999931 131.327735 
L 295.968619 131.054136 
L 295.633033 130.293635 
L 295.808968 130.006485 
L 296.137398 129.677922 
L 296.515407 128.952923 
L 297.522501 128.324871 
L 297.441008 128.100606 
L 297.031633 127.886714 
L 296.202479 127.493293 
L 296.020755 127.295317 
L 295.694286 126.623321 
L 295.088392 126.138051 
L 293.992778 125.635967 
L 293.67354 125.479899 
L 290.771833 124.578359 
L 288.115283 123.343046 
L 287.616553 122.695568 
L 287.173946 122.547836 
L 286.456651 122.29749 
L 286.110326 121.702845 
L 283.696073 119.825881 
L 283.205557 119.427186 
L 282.646594 119.187951 
L 282.056606 118.666462 
L 277.891548 117.195992 
L 276.485287 116.270056 
L 275.95869 115.974443 
L 275.687648 115.752108 
L 275.082147 115.240773 
L 274.677413 115.13708 
L 270.751 114.737264 
L 270.572599 114.671906 
L 270.252568 114.445026 
L 270.183824 114.332004 
L 270.059701 114.028081 
L 270.188172 113.600562 
L 270.677775 113.153622 
L 271.945123 111.835296 
L 272.01813 111.254899 
L 271.598102 110.402194 
L 271.411189 109.780946 
L 271.290665 109.588653 
L 270.917419 108.081932 
L 270.964568 107.947543 
L 271.321292 107.439574 
L 272.353849 107.145805 
L 272.698989 106.772554 
L 277.550614 105.148769 
L 277.790535 104.945153 
L 280.016439 103.712322 
L 280.253224 103.513448 
L 282.043826 102.54536 
L 282.053985 102.453342 
L 282.343931 102.230587 
L 283.076926 100.933755 
L 283.106649 100.839179 
L 283.175658 100.695482 
L 283.228603 100.198576 
L 283.201612 99.900772 
L 283.528549 99.605286 
L 283.675436 99.393222 
L 283.783509 98.924492 
L 283.753052 98.799874 
L 283.982118 97.81244 
L 283.242584 97.112454 
L 282.992515 96.294289 
L 283.195211 95.866227 
L 283.21621 95.757463 
L 283.459002 95.374004 
L 283.749863 94.656523 
L 284.446872 94.542442 
L 284.972906 94.362807 
L 285.177947 94.107251 
L 285.23053 93.608537 
L 285.905896 93.019506 
L 286.597594 92.48209 
L 286.690888 92.205695 
L 287.443244 91.430383 
L 287.116297 90.877986 
L 285.864701 90.678511 
L 285.406704 89.301026 
L 285.140138 89.061712 
L 285.600028 88.229809 
L 285.30358 87.944733 
L 284.75064 87.941739 
L 283.771558 88.26781 
L 283.614863 88.599127 
L 283.436786 88.706801 
L 283.034279 88.625878 
L 282.745082 88.592003 
L 282.695859 88.730889 
L 282.120443 88.803982 
L 282.130927 88.8417 
L 282.004284 88.997774 
L 280.568018 88.882305 
L 280.319708 88.881216 
L 280.316168 88.97653 
L 280.22567 89.231969 
L 279.534386 90.21196 
L 279.571823 90.258971 
L 279.457461 90.287067 
L 277.441095 90.774931 
L 277.520094 90.965018 
L 277.618369 91.423706 
L 277.581751 91.699921 
L 276.627868 91.81961 
L 276.193501 91.820423 
L 274.895542 91.906349 
L 274.637398 91.845851 
L 274.40132 91.718549 
L 274.254109 91.620624 
L 274.148768 91.556574 
L 273.953982 91.568833 
L 273.808823 91.594867 
L 271.390147 91.331151 
L 271.032042 91.392404 
L 269.997538 91.640448 
L 268.778179 91.574091 
L 269.274044 90.526775 
L 270.132379 89.939887 
L 271.318288 89.189561 
L 272.799247 88.364028 
L 274.48109 87.260817 
L 275.599468 86.193928 
L 276.094891 85.306768 
L 276.472247 84.49587 
L 276.372658 83.981218 
L 276.251283 83.673064 
L 276.18558 83.332799 
L 276.384066 83.013518 
L 276.314483 82.981536 
L 276.037284 82.672637 
L 275.906102 82.717734 
L 275.465318 82.386481 
L 274.796161 82.787983 
L 274.814869 82.798514 
L 274.459873 82.985714 
L 274.072821 82.990031 
L 273.049641 83.011992 
L 272.458111 82.827169 
L 270.772387 82.034617 
L 270.548973 82.121287 
L 269.881586 82.109836 
L 268.841692 83.02759 
L 268.241385 83.179267 
L 267.877038 83.45529 
L 267.959626 83.555852 
L 267.908175 83.603315 
L 267.802776 83.582576 
L 267.274158 83.410756 
L 266.831663 83.493641 
L 266.223425 83.482015 
L 266.003328 82.923243 
L 265.854516 82.652855 
L 263.842159 82.56668 
L 263.503532 82.360756 
L 261.402734 82.596918 
L 260.621437 82.578896 
L 259.06201 83.009265 
L 258.492936 82.70059 
L 258.523228 82.41866 
L 258.825582 82.232428 
L 258.782765 82.142727 
L 258.481554 81.825583 
L 258.515035 81.826604 
L 259.182295 81.5873 
L 259.177415 81.569081 
L 259.072058 81.3046 
L 259.127081 81.278178 
L 259.161663 81.263808 
L 259.079415 81.215686 
L 256.896673 80.313195 
L 257.346542 79.730234 
L 257.387589 79.674653 
L 257.346462 79.653883 
L 256.999223 79.624628 
L 256.894196 79.53186 
L 256.818419 79.315649 
L 256.832049 79.191149 
L 256.964774 79.012508 
L 257.004417 78.850167 
L 257.120369 78.680032 
L 255.203709 78.063761 
L 254.04278 77.932551 
L 254.142024 77.765133 
L 253.91895 77.509194 
L 252.793215 76.294094 
L 252.96336 75.891954 
L 252.932388 75.874235 
L 252.87997 75.751925 
L 252.83289 75.78043 
L 252.700909 75.820935 
L 252.297488 75.900965 
L 251.943083 76.396436 
L 251.619341 77.413306 
L 251.834031 77.736175 
L 251.814606 78.185523 
L 251.86083 78.183046 
L 252.502216 78.4052 
L 252.448713 78.439022 
L 252.529424 78.502976 
L 252.74143 78.711345 
L 253.030036 78.988319 
L 253.436275 78.817191 
L 253.682649 78.887077 
L 253.95838 78.906827 
L 254.146813 78.96311 
L 254.183155 78.98287 
L 254.239098 78.945162 
L 254.326645 78.983827 
L 252.881033 80.063604 
L 251.837375 80.266667 
L 250.404836 80.057086 
L 250.074822 79.889545 
L 249.999422 79.677349 
L 249.762946 79.631332 
L 249.606665 79.88778 
L 248.41368 79.830349 
L 248.112144 79.978475 
L 247.883185 80.207227 
L 246.614173 80.722118 
L 246.35186 80.839165 
L 246.014201 81.074083 
L 245.364724 81.360723 
L 245.125112 81.539789 
L 245.205876 81.570628 
L 245.078228 81.696038 
L 244.956514 81.850298 
L 244.969469 81.911435 
L 244.823571 81.785946 
L 244.406604 81.704937 
L 244.051518 82.093345 
L 244.325458 82.188032 
L 244.280626 82.223401 
L 244.006091 82.499079 
L 243.786287 82.507941 
L 243.872415 82.60132 
L 244.123425 83.031939 
L 244.109391 83.041864 
L 243.382345 83.734636 
L 243.35023 83.698326 
L 242.997058 83.476491 
L 242.039129 83.688093 
L 241.945176 83.739006 
L 241.605135 83.727204 
L 240.886186 83.782184 
L 240.687971 83.86449 
L 240.141756 84.222553 
L 239.744725 84.227082 
L 239.561672 84.360163 
L 239.434737 84.605809 
L 239.474268 84.601998 
L 239.938315 84.685622 
L 239.851108 84.787289 
L 239.90763 84.944649 
L 239.86728 84.949566 
L 239.609879 85.244632 
L 239.721663 85.275158 
L 239.95537 85.322568 
L 239.94151 85.365916 
L 239.879959 85.489944 
L 239.412494 85.812409 
L 239.219765 86.128235 
L 238.384806 85.960721 
L 238.322064 85.950477 
L 237.994999 86.520731 
L 237.802042 86.754156 
L 237.916915 86.757287 
L 238.280571 86.879193 
L 238.230168 87.247373 
L 238.035541 87.582167 
L 238.158808 87.701484 
L 238.06554 87.744354 
L 238.116507 88.060089 
L 238.188685 88.428077 
L 238.106693 88.50975 
L 237.650668 88.565331 
L 237.482819 88.580531 
L 237.489045 88.493031 
L 237.067841 88.067617 
L 237.059686 88.079339 
L 237.11347 88.319807 
L 237.265849 88.457763 
L 237.22452 88.497917 
L 237.307836 88.620609 
L 237.310074 88.671273 
L 237.239204 88.694287 
L 236.991388 88.903762 
L 236.403277 89.718248 
L 236.205354 89.886634 
L 235.956959 89.998322 
L 235.347801 90.060405 
L 234.772533 90.026706 
L 234.636215 89.808379 
L 234.53458 89.622317 
L 233.591749 89.575901 
L 233.589984 89.593971 
L 233.538459 89.752389 
L 233.515169 89.887984 
L 233.676154 89.955649 
L 233.514015 90.003984 
L 233.434182 90.048242 
L 233.515642 90.122919 
L 233.669312 90.194842 
L 233.824254 90.20373 
L 233.87933 90.237201 
L 233.78762 90.295499 
L 233.473383 90.444603 
L 233.087639 90.521332 
L 233.135437 90.550161 
L 233.153975 90.585594 
L 233.08901 90.616731 
L 232.966434 90.857715 
L 232.57405 91.201621 
L 232.364628 91.436289 
L 232.057856 91.766086 
L 231.865733 92.057962 
L 231.821646 92.239224 
L 231.854803 92.245848 
L 231.929337 92.276618 
L 231.923095 92.343677 
L 231.817813 92.396105 
L 231.504284 92.353002 
L 231.425402 92.349658 
L 231.410915 92.377504 
L 231.257266 92.523487 
L 231.034889 92.571275 
L 230.81535 92.301939 
L 230.673269 92.164239 
L 230.028896 91.354462 
L 229.866443 90.991397 
L 229.342972 90.68968 
L 228.653836 90.740142 
L 228.449348 90.789386 
L 228.484626 90.947416 
L 228.399785 90.942828 
L 227.771126 90.856556 
L 226.14572 90.62529 
L 225.906964 90.754442 
L 225.146554 91.125248 
L 224.937116 91.400947 
L 224.480879 91.450314 
L 224.25176 91.502583 
L 223.573422 91.796782 
L 223.398646 92.146227 
L 223.432202 92.201463 
L 223.332879 92.230734 
L 223.391586 92.340939 
L 223.52732 92.314826 
L 223.535076 92.276841 
L 223.524752 92.265784 
L 223.673388 92.379981 
L 223.569281 92.458459 
L 223.103293 92.854905 
L 223.230537 92.841556 
L 223.267389 92.860402 
L 223.181638 92.91231 
L 223.162229 93.1091 
L 223.097546 93.23334 
L 222.747399 93.744404 
L 222.45018 93.933502 
L 221.001118 93.515652 
L 220.874927 93.322589 
L 220.489278 92.858239 
L 220.444388 92.630253 
L 219.977428 92.133107 
L 219.945079 92.161006 
L 219.877659 92.297309 
L 219.535108 92.257432 
L 219.429135 92.172213 
L 218.445991 92.398009 
L 218.452722 92.259548 
L 218.414881 92.131539 
L 218.378231 92.148875 
L 217.57309 92.570993 
L 217.338512 92.855527 
L 217.174082 92.8053 
L 217.174257 92.781892 
L 216.970338 92.734732 
L 216.515541 92.689768 
L 216.129461 92.7906 
L 216.053099 92.874283 
L 215.883549 92.941927 
L 216.084965 93.516227 
L 215.935664 93.856321 
L 216.012095 94.038997 
L 215.412862 94.099144 
L 215.230745 93.961157 
L 214.978644 94.033531 
L 215.028915 94.124449 
L 214.952404 94.128548 
L 214.818749 94.163997 
L 214.859731 94.230497 
L 214.89628 94.304802 
L 214.817366 94.304701 
L 214.696651 94.362595 
L 214.710229 94.399627 
L 214.37502 94.839544 
L 214.137433 94.784122 
L 213.999743 94.656454 
L 213.980408 94.66841 
L 213.365896 94.824372 
L 213.016887 94.907873 
L 211.890859 95.497824 
L 211.911045 95.524124 
L 211.861556 95.591411 
L 211.483196 95.639113 
L 211.308122 95.667922 
L 211.33263 95.698543 
L 211.462038 95.956507 
L 211.411789 95.962233 
L 211.349286 96.156121 
L 210.638673 96.446306 
L 210.718171 96.520792 
L 210.657933 96.586776 
L 210.434748 96.599137 
L 210.468341 96.542088 
L 210.470734 96.492903 
L 209.612957 96.573045 
L 209.509094 96.624984 
L 209.540008 96.6893 
L 209.58712 96.73184 
L 209.468425 96.76378 
L 209.073787 96.78782 
L 208.920531 96.657945 
L 208.604205 96.543386 
L 208.533026 96.393952 
L 208.402253 96.082241 
L 208.182948 96.053066 
L 207.735036 96.253476 
L 207.334039 96.258963 
L 207.280367 96.184025 
L 207.344448 96.164797 
L 207.76427 95.973057 
L 208.329814 95.842273 
L 208.279044 95.791003 
L 208.24366 95.71025 
L 208.27797 95.672691 
L 209.307296 95.262943 
L 209.167719 95.189899 
L 209.084578 95.026691 
L 209.120931 94.978026 
L 209.036998 94.94741 
L 207.710768 94.877263 
L 207.381853 95.039487 
L 206.973919 95.15604 
L 207.170103 95.251806 
L 207.36919 95.458133 
L 207.298538 95.596786 
L 207.094709 95.587376 
L 206.065808 95.473859 
L 206.349301 95.40024 
L 206.665488 95.22767 
L 206.590912 95.133435 
L 206.256257 95.06358 
L 205.386098 95.191653 
L 205.14008 95.212641 
L 205.160223 95.234167 
L 205.177347 95.302953 
L 205.039316 95.41378 
L 205.023304 95.401452 
L 204.430222 95.577073 
L 204.310469 95.894855 
L 203.692868 95.823894 
L 202.963218 95.5207 
L 202.693478 95.347189 
L 202.618902 95.18118 
L 202.6503 95.172653 
L 202.544784 95.041353 
L 202.289802 94.817264 
L 202.019276 94.817997 
L 201.797489 94.939941 
L 201.605191 94.989775 
L 200.961296 95.042033 
L 200.739397 95.163068 
L 200.733613 95.080034 
L 200.530991 95.115487 
L 200.497297 95.275298 
L 200.492937 95.274926 
L 200.301049 95.173929 
L 200.270959 95.016744 
L 200.381839 94.997292 
L 199.951667 95.187272 
L 199.682815 95.264777 
L 199.723213 95.305122 
L 199.608564 95.343665 
L 198.057797 95.472418 
L 197.660841 95.262348 
L 197.367216 95.054245 
L 196.48819 94.854403 
L 196.523495 94.827891 
L 196.726718 94.689217 
L 197.171271 94.328666 
L 197.447496 93.546843 
L 197.411564 93.539772 
L 196.806408 93.577464 
L 196.011645 93.656622 
L 194.137429 93.410705 
L 193.41502 93.398292 
L 193.020955 93.287725 
L 192.528302 93.081233 
L 192.498483 92.99544 
L 192.561735 92.97115 
L 192.787961 92.846676 
L 192.60881 92.828489 
L 192.518206 92.758262 
L 192.572596 92.702357 
L 192.56409 92.64971 
L 192.621197 92.601673 
L 193.090768 92.345867 
L 193.014395 92.292104 
L 192.786372 92.276033 
L 192.622202 92.186721 
L 192.546244 91.99892 
L 191.687383 91.919618 
L 190.541802 91.998612 
L 190.228576 92.122794 
L 189.935169 92.182223 
L 189.753859 92.298425 
L 189.580317 92.39517 
L 189.150676 92.43148 
L 188.960484 92.267602 
L 188.553325 92.176758 
L 185.251626 91.408544 
L 183.828407 91.559658 
L 183.770369 91.839896 
L 183.572585 91.902995 
L 182.535976 91.869513 
L 181.718204 91.904015 
L 180.886812 92.194546 
L 180.882479 92.115936 
L 180.178698 91.419086 
L 180.006282 90.902143 
L 179.76222 90.822405 
L 178.165644 90.42203 
L 178.024232 90.231912 
L 178.372062 89.787178 
L 178.1665 89.432869 
L 177.800154 89.411497 
L 177.278575 89.324008 
L 176.787426 89.185702 
L 176.351246 89.107405 
L 175.458021 88.699199 
L 173.696026 88.128961 
L 173.588372 88.073725 
L 171.982982 88.10844 
L 171.601543 88.241292 
L 171.211014 88.24108 
L 170.849777 88.178508 
L 170.854083 88.162612 
L 170.875508 87.983456 
L 170.38833 87.807914 
L 170.165899 87.645291 
L 169.645867 87.062634 
L 169.539011 86.833559 
L 169.420141 86.630479 
L 169.178413 86.451429 
L 168.824778 86.566419 
L 168.464658 86.709691 
L 167.220716 86.72346 
L 167.04879 86.92723 
L 167.117422 87.21521 
L 166.094742 87.387987 
L 165.504377 86.744512 
L 165.371631 86.412089 
L 165.258714 86.258557 
L 164.654633 86.297312 
L 164.655856 86.291889 
L 164.612741 86.261853 
L 164.607106 86.342128 
L 164.572019 86.66647 
L 164.356606 86.865828 
L 164.248155 86.935151 
L 162.952859 86.883371 
L 162.964395 86.977787 
L 162.983162 87.190383 
L 162.886566 87.184003 
L 161.507593 86.907773 
L 161.404246 86.108427 
L 161.347097 85.925868 
L 161.21509 85.848087 
L 159.583198 85.764175 
L 159.869715 85.958685 
L 159.902357 85.979418 
L 159.81868 86.030986 
L 159.708841 86.206378 
L 159.684551 86.292384 
L 159.763763 86.303973 
L 159.960782 86.425821 
L 160.100646 86.639931 
L 159.991308 86.68538 
L 160.174967 86.907597 
L 158.797063 87.391862 
L 157.934985 87.706024 
L 158.049714 87.78447 
L 158.288838 88.507156 
L 158.200961 88.723951 
L 158.29745 88.958715 
L 158.391547 89.35052 
L 158.041262 89.547167 
L 157.258768 89.608676 
L 156.887377 89.826056 
L 155.774268 89.690652 
L 155.773418 89.696287 
L 155.706752 89.887564 
L 155.50892 90.123259 
L 155.105967 90.414827 
L 154.930479 90.617747 
L 154.932605 90.619767 
L 154.502204 90.997696 
L 154.307897 90.933158 
L 154.064467 90.887598 
L 151.971527 90.757191 
L 151.477916 90.64454 
L 151.364893 91.101628 
L 150.96421 91.41268 
L 150.826148 91.496783 
L 150.029992 91.975029 
L 149.937118 92.144244 
L 149.860989 92.246369 
L 149.555148 92.24504 
L 148.321945 92.106659 
L 148.322743 92.111231 
L 148.139227 92.08364 
L 147.266996 91.994806 
L 147.22025 92.011275 
L 146.341538 92.007804 
L 146.771083 92.357632 
L 147.554236 92.509436 
L 148.344454 93.13473 
L 148.333046 93.150604 
L 148.086591 93.195568 
L 148.080711 93.328862 
L 147.502759 93.317113 
L 147.320982 93.405857 
L 146.919831 93.411284 
L 146.544527 93.42021 
L 144.310388 93.561584 
L 143.937482 93.730449 
L 143.419699 93.869851 
L 142.708799 93.814429 
L 142.629794 93.158897 
L 142.028121 93.213378 
L 142.025612 93.123964 
L 141.626407 93.026428 
L 141.690207 92.841567 
L 141.355912 92.698439 
L 141.153147 92.503025 
L 140.856156 92.555624 
L 140.756158 92.634894 
L 139.197923 92.530265 
L 138.966364 92.714164 
L 137.868911 92.745546 
L 137.391797 92.632831 
L 136.932487 92.885713 
L 136.896188 93.048373 
L 136.778487 93.235504 
L 135.84715 93.540548 
L 135.583774 93.767264 
L 135.085411 94.070469 
L 134.826394 94.15648 
L 134.459899 94.175512 
L 134.113075 94.1448 
L 133.695119 94.282782 
L 133.308748 94.423545 
L 133.448171 94.485787 
L 133.754661 94.722066 
L 133.702738 95.287435 
L 133.75834 95.470983 
L 133.721195 95.472716 
L 133.609991 95.632649 
L 134.170926 95.776617 
L 133.996644 96.226225 
L 134.259069 96.450118 
L 134.087148 96.71873 
L 133.739797 97.096378 
L 133.562453 97.333247 
L 133.621091 97.477024 
L 133.404195 97.50267 
L 133.352792 97.389179 
L 133.275665 97.433144 
L 133.484448 98.164363 
L 133.097843 98.312377 
L 133.193784 98.525648 
L 132.544722 98.602244 
L 132.449817 98.817545 
L 131.91986 98.82208 
L 131.110546 98.805414 
L 130.744291 99.039295 
L 130.650412 98.969621 
L 130.574496 98.750168 
L 129.541141 98.630686 
L 129.164285 98.601016 
L 129.206932 98.321952 
L 128.335195 98.023297 
L 127.639802 98.178791 
L 127.173272 98.153013 
L 126.785694 98.044887 
L 126.316888 98.008981 
L 126.345261 98.065864 
L 126.094761 98.17683 
L 125.978841 98.201922 
L 125.103393 98.041681 
L 125.048413 98.022192 
L 124.901329 98.652594 
L 124.933158 98.80527 
L 125.36561 99.330246 
L 125.210297 99.370065 
L 124.761874 99.586158 
L 124.647799 99.503443 
L 124.471216 99.561507 
L 124.02359 99.564282 
L 123.609505 99.42891 
L 123.449173 99.384201 
L 123.30915 99.351931 
L 121.584346 99.345275 
L 121.624505 99.258727 
L 121.112224 99.163179 
L 120.965337 99.117358 
L 120.731711 99.1837 
L 120.20279 99.273108 
L 120.031645 99.28206 
L 119.465627 99.258998 
L 119.334269 99.129299 
L 118.180432 98.986011 
M 172.3007 146.07795 
L 172.316882 146.036164 
L 172.414844 146.075196 
L 172.438517 146.113882 
L 172.3007 146.07795 
M 215.048095 136.32797 
L 215.582667 136.048528 
L 215.752808 136.061962 
L 216.035396 136.0083 
L 216.896868 135.265657 
L 216.240198 134.743977 
L 216.194564 134.631145 
L 216.21997 134.605144 
L 216.339622 134.313369 
L 216.303934 134.223041 
L 216.270602 134.082879 
L 216.297948 133.786069 
L 216.529251 133.561013 
L 216.846273 133.22532 
L 217.251698 133.068306 
L 219.326463 131.564928 
L 219.180814 131.514047 
L 217.573191 131.061031 
L 216.591653 131.148514 
L 217.10202 129.491737 
L 217.316631 129.088673 
L 217.388288 129.131644 
L 217.817025 129.265027 
L 218.161297 129.169697 
L 218.158512 128.939229 
L 218.114206 128.819763 
L 218.173684 128.788535 
L 218.368449 128.408303 
L 218.520913 128.027338 
L 218.357184 127.66457 
L 218.106726 127.676798 
L 217.345009 127.777343 
L 217.207377 127.41415 
L 217.273516 127.425782 
L 217.606423 127.384932 
L 217.998419 127.279102 
L 218.544155 126.960023 
L 218.929793 126.829957 
L 219.194041 126.8507 
L 219.677073 127.001867 
L 220.277289 127.15869 
L 221.357198 127.404395 
L 221.374019 127.357203 
L 221.949866 127.32134 
L 221.947086 127.101291 
L 221.074461 126.448141 
L 221.170073 126.328154 
L 221.399585 126.195993 
L 222.078587 125.25069 
L 222.07594 125.233774 
L 222.175231 125.238505 
L 224.40752 125.241275 
L 224.374368 124.751253 
L 224.287958 124.576227 
L 224.31555 124.580119 
L 225.154241 124.585679 
L 225.45222 124.441573 
L 225.509688 123.941556 
L 225.33815 123.934789 
L 225.347879 123.845843 
L 225.384029 123.510119 
L 225.48466 123.52679 
L 226.837083 123.687989 
L 226.654875 123.760964 
L 226.323101 123.8948 
L 226.364738 123.945469 
L 226.757712 124.55106 
L 226.629645 124.800359 
L 226.831703 125.161718 
L 226.815664 125.172403 
L 226.438894 125.293698 
L 226.937847 125.241296 
L 227.341853 125.321933 
L 228.047219 125.452929 
L 228.466466 125.506171 
L 228.927419 125.475358 
L 230.033739 125.313278 
L 230.065328 125.283672 
L 230.137602 125.288355 
L 230.360415 125.230579 
L 230.354599 125.21077 
L 230.394737 125.179692 
L 230.352946 125.076648 
L 230.330916 125.058923 
L 230.696081 124.838891 
L 230.649389 124.804245 
L 230.894009 124.784107 
L 230.890586 124.777286 
L 231.013273 124.740067 
L 231.088184 124.634073 
L 231.155912 124.435177 
L 231.236092 124.322069 
L 231.201983 124.44069 
L 231.246378 124.330246 
L 231.578605 124.220493 
L 232.151459 124.448994 
L 232.399673 124.485883 
L 232.512621 124.651654 
L 233.031085 124.777084 
L 233.224547 124.7486 
L 233.437595 124.721487 
L 233.420418 124.653009 
L 233.424182 124.38512 
L 233.465186 124.376864 
L 233.753734 124.247047 
L 233.896586 124.11504 
L 235.048658 124.050384 
L 235.271933 123.988892 
L 235.433839 123.913412 
L 235.56415 123.775276 
L 235.552667 123.761597 
L 235.348109 123.717977 
L 234.679712 123.55015 
L 234.316025 123.407675 
L 234.433109 123.329054 
L 234.922791 123.113162 
L 235.121123 123.170971 
L 235.702079 122.79731 
L 235.724391 122.810372 
L 235.873729 122.759607 
L 235.649804 122.995552 
L 235.647752 123.201358 
L 236.317218 122.975903 
L 236.154249 123.579899 
L 236.743499 123.94364 
L 237.845757 124.263644 
L 237.99266 124.320166 
L 238.124178 124.347098 
L 238.156458 124.345009 
L 238.14497 124.448734 
L 237.946011 124.986458 
L 237.806534 125.189468 
L 237.239523 125.432414 
L 237.108802 125.729123 
L 236.755083 126.471989 
L 236.877988 126.464738 
L 237.460656 127.153092 
L 238.621207 127.199003 
L 239.881575 127.581882 
L 240.814417 128.146794 
L 241.031781 128.195251 
L 241.13524 128.274563 
L 241.321499 128.376316 
L 241.389833 128.654232 
L 241.59245 129.242338 
L 241.579383 129.426406 
L 241.580398 129.426635 
L 244.250361 129.879997 
L 244.158911 129.970074 
L 243.943163 130.03767 
L 243.56854 130.029999 
L 243.579417 130.07801 
L 243.67017 130.453802 
L 243.683982 130.450713 
L 244.639805 130.471617 
L 245.331083 130.630742 
L 245.274099 130.727566 
L 243.800875 131.729662 
L 243.524969 132.36386 
L 243.828477 132.42565 
L 243.735315 132.5029 
L 242.997052 133.244565 
L 242.969222 133.351618 
L 243.07022 133.368571 
L 243.125173 133.393573 
L 243.050236 133.455077 
L 242.853084 133.615663 
L 242.990859 133.64586 
L 243.159038 133.586063 
L 243.418883 133.755097 
L 243.458686 133.838833 
L 243.46606 133.714917 
L 243.513645 133.715768 
L 243.588907 133.716985 
L 243.571411 133.618481 
L 243.704821 133.459781 
L 243.939995 133.374344 
L 244.993249 133.242141 
L 247.40975 134.089631 
L 247.656842 134.454945 
L 247.852032 134.359641 
L 247.844366 134.188975 
L 247.782592 134.182 
L 247.722811 134.120034 
L 247.566972 133.809822 
L 247.515856 133.741753 
L 247.695879 133.79878 
L 248.298988 134.020265 
L 248.450628 134.084096 
L 248.905913 134.527968 
L 249.304156 134.694334 
L 249.572189 134.732473 
L 250.56579 134.916828 
L 250.542744 134.948146 
L 250.456047 135.070786 
L 250.570404 135.084268 
L 250.599298 135.087766 
L 250.570032 135.159258 
L 250.506025 135.329223 
L 250.816433 135.366947 
L 250.45945 135.421661 
L 250.493404 135.331068 
L 250.558124 135.159625 
L 250.505387 135.160821 
L 250.050282 135.27235 
L 249.883044 135.449779 
L 249.797879 135.617325 
L 248.862762 135.430874 
L 248.777479 135.39701 
L 249.781053 135.880387 
L 249.776364 135.879972 
L 249.664468 135.966977 
L 249.476083 136.039288 
L 249.149593 136.502692 
L 249.296257 136.667298 
L 249.640136 136.981715 
L 249.532525 137.028243 
L 249.386483 137.181164 
L 249.197556 137.377529 
L 248.935934 137.396539 
L 248.597919 137.430749 
L 247.584978 137.826919 
L 247.479632 137.863457 
L 247.47296 137.809248 
L 246.830213 138.229596 
L 247.01854 138.261849 
L 247.47565 138.355797 
L 247.503076 138.355069 
L 247.464278 138.439687 
L 247.416783 138.570939 
L 247.534288 138.566989 
L 247.598029 138.584097 
L 247.562777 138.669273 
L 246.927569 139.10785 
L 246.754782 139.029686 
L 246.416931 139.009622 
L 245.745514 139.529889 
L 245.768486 139.599818 
L 245.660189 139.616144 
L 245.269468 139.999119 
L 245.147669 140.215 
L 244.968246 140.423071 
L 244.912495 140.629654 
L 244.653665 140.606847 
L 244.200133 140.128292 
L 244.258117 140.124805 
L 244.386759 139.396622 
L 244.626525 139.242909 
L 244.757841 139.12289 
L 244.738278 138.958486 
L 244.486938 138.923633 
L 244.526182 138.829195 
L 244.517586 138.567537 
L 244.449767 138.576941 
L 243.937395 138.550025 
L 243.67353 138.394542 
L 242.558109 138.77404 
L 242.608432 138.678991 
L 242.53728 138.414834 
L 242.09757 138.130065 
L 241.97786 138.033273 
L 241.9961 138.001121 
L 241.907733 137.743045 
L 241.749422 137.724863 
L 240.592082 137.958915 
L 240.051333 137.997096 
L 238.783846 137.862442 
L 238.86268 137.487404 
L 238.963805 137.373084 
L 238.975655 137.338003 
L 238.84789 137.392542 
L 238.405837 137.463168 
L 237.783419 137.276584 
L 236.801834 137.434891 
L 235.821242 137.426549 
L 235.646976 137.040002 
L 234.994751 136.251033 
L 234.163199 136.459376 
L 233.678589 136.604073 
L 232.61306 136.841255 
L 232.641789 137.100394 
L 233.031255 138.192451 
L 232.652858 138.637833 
L 230.984964 138.481855 
L 230.850475 137.984592 
L 230.040214 137.9869 
L 230.031528 137.666582 
L 228.793254 137.088816 
L 228.598085 136.840134 
L 228.604379 136.748594 
L 228.543695 136.769088 
L 226.880464 137.354701 
L 225.927809 136.604397 
L 224.753973 137.147533 
L 224.247018 137.060528 
L 223.818345 137.050741 
L 223.625165 137.086647 
L 223.607728 137.00055 
L 223.374872 136.249486 
L 221.658862 136.433247 
L 221.048619 136.546392 
L 220.574604 136.634061 
L 218.820295 137.298014 
L 218.740233 137.565377 
L 218.927614 137.550582 
L 219.48276 137.603292 
L 219.040472 137.681786 
L 218.213572 137.621793 
L 217.60411 137.663716 
L 217.282426 137.883829 
L 217.348528 137.92587 
L 217.431663 138.04659 
L 217.339347 138.037866 
L 217.23617 138.00624 
L 217.118612 137.817796 
L 217.501422 137.707315 
L 217.738377 137.584733 
L 217.559619 137.56181 
L 217.535122 137.511226 
L 217.648389 137.498579 
L 217.693316 137.485644 
L 216.898925 137.484443 
L 216.007018 136.909696 
L 216.036284 136.867401 
L 216.294881 136.814541 
L 216.289841 136.798077 
L 216.142289 136.675911 
L 216.045481 136.67094 
L 216.054109 136.765999 
L 215.982128 136.864046 
L 215.940103 136.845487 
L 215.721011 136.811405 
L 215.719294 136.803813 
L 215.713372 136.640138 
L 215.660274 136.642328 
L 215.478991 136.675841 
L 215.546384 136.753798 
L 215.612757 136.796121 
L 215.560435 136.846417 
L 215.529043 136.870962 
L 215.147168 136.651259 
L 215.048095 136.32797 
M 237.115341 125.729559 
L 237.222362 125.681872 
L 237.115341 125.729559 
" style="fill:none;stroke:#ffc0cb;"/>
    <path clip-path="url(#p6f98bef52c)" d="M 168.784428 112.849673 
L 168.792992 112.851969 
L 168.810546 112.856674 
L 168.819717 112.857557 
L 168.830009 112.856717 
L 168.841662 112.853389 
L 168.873719 112.833458 
L 168.87684 112.835138 
L 168.937742 112.801019 
L 169.000697 112.767479 
L 168.95317 112.746357 
L 168.924707 112.767378 
L 168.914835 112.760291 
L 168.879849 112.787505 
L 168.842587 112.816654 
L 168.827872 112.809711 
L 168.82339 112.809376 
L 168.817319 112.813714 
L 168.819462 112.815952 
L 168.804842 112.829684 
L 168.784428 112.849673 
" style="fill:none;stroke:#ffc0cb;"/>
    <path clip-path="url(#p6f98bef52c)" d="M 171.013634 146.415168 
L 171.031842 146.419017 
L 171.06393 146.425657 
L 171.103983 146.379002 
L 171.078119 146.372564 
L 171.054792 146.367078 
L 171.013634 146.415168 
" style="fill:none;stroke:#ffc0cb;"/>
    <path clip-path="url(#p6f98bef52c)" d="M 171.149665 146.248159 
L 171.151722 146.256782 
L 171.16168 146.261051 
L 171.174694 146.259913 
L 171.179872 146.265075 
L 171.1896 146.277845 
L 171.196139 146.293682 
L 171.199855 146.298865 
L 171.20623 146.302789 
L 171.216655 146.303198 
L 171.242183 146.30962 
L 171.263544 146.309062 
L 171.27156 146.367136 
L 171.2792 146.393499 
L 171.294186 146.430649 
L 171.343749 146.426747 
L 171.428766 146.43151 
L 171.458346 146.430442 
L 171.488473 146.42168 
L 171.517308 146.417257 
L 171.54601 146.422749 
L 171.575047 146.423998 
L 171.578572 146.442648 
L 171.581358 146.458086 
L 171.366971 146.680309 
L 171.584521 146.458671 
L 171.582097 146.443371 
L 171.651324 146.457533 
L 171.695369 146.465895 
L 171.724438 146.436784 
L 171.761503 146.449139 
L 171.762933 146.445577 
L 171.778892 146.434227 
L 171.796893 146.413254 
L 171.796505 146.390208 
L 171.806829 146.379704 
L 171.786361 146.370294 
L 171.759924 146.361235 
L 171.729053 146.357524 
L 171.648087 146.342272 
L 171.610485 146.348524 
L 171.575547 146.355398 
L 171.568205 146.351203 
L 171.530737 146.346594 
L 171.494214 146.342554 
L 171.455012 146.348205 
L 171.410335 146.343378 
L 171.388836 146.339258 
L 171.363994 146.339417 
L 171.347412 146.336462 
L 171.337179 146.336105 
L 171.330847 146.333187 
L 171.319693 146.326515 
L 171.311608 146.320747 
L 171.301337 146.317105 
L 171.296254 146.314803 
L 171.287743 146.314335 
L 171.277435 146.30903 
L 171.270896 146.306558 
L 171.263437 146.307573 
L 171.252704 146.306877 
L 171.243108 146.308115 
L 171.217484 146.301061 
L 171.206261 146.299902 
L 171.203178 146.297504 
L 171.201115 146.295814 
L 171.191924 146.277133 
L 171.18236 146.26347 
L 171.175523 146.258063 
L 171.161749 146.25877 
L 171.153583 146.255092 
L 171.152254 146.248345 
L 171.157799 146.242933 
L 171.154811 146.241493 
L 171.149665 146.248159 
" style="fill:none;stroke:#ffc0cb;"/>
    <path clip-path="url(#p6f98bef52c)" d="M 171.885424 146.51179 
L 171.887338 146.512641 
L 171.887242 146.52566 
L 171.935019 146.532125 
L 171.990536 146.519238 
L 172.046914 146.526591 
L 172.118822 146.536574 
L 172.174583 146.533358 
L 172.195061 146.513125 
L 172.154722 146.490956 
L 172.163733 146.462153 
L 172.124776 146.450845 
L 172.077259 146.45396 
L 172.019196 146.439819 
L 172.039116 146.436848 
L 172.050817 146.439043 
L 172.060141 146.438363 
L 172.073054 146.432233 
L 172.090289 146.419676 
L 172.095871 146.416417 
L 172.102565 146.411154 
L 172.105414 146.40444 
L 172.121698 146.396147 
L 172.140512 146.394174 
L 172.154004 146.387848 
L 172.161277 146.385849 
L 172.177821 146.385009 
L 172.177927 146.383654 
L 172.161064 146.38443 
L 172.151686 146.386689 
L 172.139246 146.392112 
L 172.121065 146.39427 
L 172.106573 146.400889 
L 172.102777 146.404249 
L 172.099933 146.410091 
L 172.095345 146.415381 
L 172.088126 146.418804 
L 172.070843 146.431457 
L 172.059408 146.436816 
L 172.052082 146.437331 
L 172.041221 146.434652 
L 172.020036 146.437363 
L 172.014124 146.439325 
L 171.990419 146.447953 
L 171.968569 146.456273 
L 171.917991 146.462041 
L 171.907002 146.471403 
L 171.901144 146.479133 
L 171.885424 146.51179 
" style="fill:none;stroke:#ffc0cb;"/>
    <path clip-path="url(#p6f98bef52c)" d="M 172.217379 146.553214 
L 172.247984 146.560662 
L 172.257936 146.560742 
L 172.27692 146.567015 
L 172.305362 146.560551 
L 172.337477 146.566632 
L 172.374547 146.566914 
L 172.402947 146.550131 
L 172.406232 146.5444 
L 172.408678 146.534671 
L 172.409975 146.529732 
L 172.390634 146.519642 
L 172.353017 146.515671 
L 172.318201 146.514119 
L 172.295075 146.508234 
L 172.26405 146.507761 
L 172.24464 146.505921 
L 172.22008 146.525889 
L 172.217379 146.553214 
" style="fill:none;stroke:#ffc0cb;"/>
    <path clip-path="url(#p6f98bef52c)" d="M 172.405828 146.610752 
L 172.406003 146.611953 
L 172.415737 146.613373 
L 172.42301 146.616477 
L 172.4162 146.616801 
L 172.407609 146.616605 
L 172.407896 146.617827 
L 172.416662 146.618003 
L 172.424504 146.61761 
L 172.421474 146.61997 
L 172.414419 146.622219 
L 172.415886 146.623048 
L 172.424041 146.621124 
L 172.426822 146.617631 
L 172.436981 146.618333 
L 172.447927 146.622176 
L 172.451707 146.64082 
L 172.453658 146.645174 
L 172.461404 146.650384 
L 172.471526 146.654185 
L 172.481366 146.656413 
L 172.493785 146.656615 
L 172.502684 146.659602 
L 172.512237 146.661 
L 172.523997 146.658773 
L 172.536522 146.660666 
L 172.546171 146.664493 
L 172.555214 146.671053 
L 172.563853 146.675498 
L 172.572752 146.682515 
L 172.578897 146.689607 
L 172.581391 146.694843 
L 172.590944 146.698645 
L 172.591943 146.697422 
L 172.614723 146.696752 
L 172.628306 146.687422 
L 172.631757 146.670681 
L 172.6203 146.658156 
L 172.599429 146.650081 
L 172.565362 146.637003 
L 172.544815 146.637917 
L 172.523359 146.629422 
L 172.507485 146.623617 
L 172.489277 146.618636 
L 172.449671 146.615015 
L 172.45042 146.621389 
L 172.44882 146.620315 
L 172.437911 146.617041 
L 172.427258 146.616275 
L 172.415737 146.612304 
L 172.405828 146.610752 
" style="fill:none;stroke:#ffc0cb;"/>
   </g>
   <g id="matplotlib.axis_1">
    <g id="xtick_1">
     <g id="line2d_1">
      <defs>
       <path d="M 0 0 
L 0 3.5 
" id="md5a6a49d43" style="stroke:#000000;stroke-width:0.8;"/>
      </defs>
      <g>
       <use style="stroke:#000000;stroke-width:0.8;" x="157.189338" xlink:href="#md5a6a49d43" y="252"/>
      </g>
     </g>
     <g id="text_1">
      <!-- 12 -->
      <defs>
       <path d="M 12.40625 8.296875 
L 28.515625 8.296875 
L 28.515625 63.921875 
L 10.984375 60.40625 
L 10.984375 69.390625 
L 28.421875 72.90625 
L 38.28125 72.90625 
L 38.28125 8.296875 
L 54.390625 8.296875 
L 54.390625 0 
L 12.40625 0 
z
" id="DejaVuSans-49"/>
       <path d="M 19.1875 8.296875 
L 53.609375 8.296875 
L 53.609375 0 
L 7.328125 0 
L 7.328125 8.296875 
Q 12.9375 14.109375 22.625 23.890625 
Q 32.328125 33.6875 34.8125 36.53125 
Q 39.546875 41.84375 41.421875 45.53125 
Q 43.3125 49.21875 43.3125 52.78125 
Q 43.3125 58.59375 39.234375 62.25 
Q 35.15625 65.921875 28.609375 65.921875 
Q 23.96875 65.921875 18.8125 64.3125 
Q 13.671875 62.703125 7.8125 59.421875 
L 7.8125 69.390625 
Q 13.765625 71.78125 18.9375 73 
Q 24.125 74.21875 28.421875 74.21875 
Q 39.75 74.21875 46.484375 68.546875 
Q 53.21875 62.890625 53.21875 53.421875 
Q 53.21875 48.921875 51.53125 44.890625 
Q 49.859375 40.875 45.40625 35.40625 
Q 44.1875 33.984375 37.640625 27.21875 
Q 31.109375 20.453125 19.1875 8.296875 
z
" id="DejaVuSans-50"/>
      </defs>
      <g transform="translate(150.826838 266.598437)scale(0.1 -0.1)">
       <use xlink:href="#DejaVuSans-49"/>
       <use x="63.623047" xlink:href="#DejaVuSans-50"/>
      </g>
     </g>
    </g>
    <g id="xtick_2">
     <g id="line2d_2">
      <g>
       <use style="stroke:#000000;stroke-width:0.8;" x="210.351486" xlink:href="#md5a6a49d43" y="252"/>
      </g>
     </g>
     <g id="text_2">
      <!-- 13 -->
      <defs>
       <path d="M 40.578125 39.3125 
Q 47.65625 37.796875 51.625 33 
Q 55.609375 28.21875 55.609375 21.1875 
Q 55.609375 10.40625 48.1875 4.484375 
Q 40.765625 -1.421875 27.09375 -1.421875 
Q 22.515625 -1.421875 17.65625 -0.515625 
Q 12.796875 0.390625 7.625 2.203125 
L 7.625 11.71875 
Q 11.71875 9.328125 16.59375 8.109375 
Q 21.484375 6.890625 26.8125 6.890625 
Q 36.078125 6.890625 40.9375 10.546875 
Q 45.796875 14.203125 45.796875 21.1875 
Q 45.796875 27.640625 41.28125 31.265625 
Q 36.765625 34.90625 28.71875 34.90625 
L 20.21875 34.90625 
L 20.21875 43.015625 
L 29.109375 43.015625 
Q 36.375 43.015625 40.234375 45.921875 
Q 44.09375 48.828125 44.09375 54.296875 
Q 44.09375 59.90625 40.109375 62.90625 
Q 36.140625 65.921875 28.71875 65.921875 
Q 24.65625 65.921875 20.015625 65.03125 
Q 15.375 64.15625 9.8125 62.3125 
L 9.8125 71.09375 
Q 15.4375 72.65625 20.34375 73.4375 
Q 25.25 74.21875 29.59375 74.21875 
Q 40.828125 74.21875 47.359375 69.109375 
Q 53.90625 64.015625 53.90625 55.328125 
Q 53.90625 49.265625 50.4375 45.09375 
Q 46.96875 40.921875 40.578125 39.3125 
z
" id="DejaVuSans-51"/>
      </defs>
      <g transform="translate(203.988986 266.598437)scale(0.1 -0.1)">
       <use xlink:href="#DejaVuSans-49"/>
       <use x="63.623047" xlink:href="#DejaVuSans-51"/>
      </g>
     </g>
    </g>
    <g id="xtick_3">
     <g id="line2d_3">
      <g>
       <use style="stroke:#000000;stroke-width:0.8;" x="263.513633" xlink:href="#md5a6a49d43" y="252"/>
      </g>
     </g>
     <g id="text_3">
      <!-- 14 -->
      <defs>
       <path d="M 37.796875 64.3125 
L 12.890625 25.390625 
L 37.796875 25.390625 
z
M 35.203125 72.90625 
L 47.609375 72.90625 
L 47.609375 25.390625 
L 58.015625 25.390625 
L 58.015625 17.1875 
L 47.609375 17.1875 
L 47.609375 0 
L 37.796875 0 
L 37.796875 17.1875 
L 4.890625 17.1875 
L 4.890625 26.703125 
z
" id="DejaVuSans-52"/>
      </defs>
      <g transform="translate(257.151133 266.598437)scale(0.1 -0.1)">
       <use xlink:href="#DejaVuSans-49"/>
       <use x="63.623047" xlink:href="#DejaVuSans-52"/>
      </g>
     </g>
    </g>
    <g id="xtick_4">
     <g id="line2d_4">
      <g>
       <use style="stroke:#000000;stroke-width:0.8;" x="316.67578" xlink:href="#md5a6a49d43" y="252"/>
      </g>
     </g>
     <g id="text_4">
      <!-- 15 -->
      <defs>
       <path d="M 10.796875 72.90625 
L 49.515625 72.90625 
L 49.515625 64.59375 
L 19.828125 64.59375 
L 19.828125 46.734375 
Q 21.96875 47.46875 24.109375 47.828125 
Q 26.265625 48.1875 28.421875 48.1875 
Q 40.625 48.1875 47.75 41.5 
Q 54.890625 34.8125 54.890625 23.390625 
Q 54.890625 11.625 47.5625 5.09375 
Q 40.234375 -1.421875 26.90625 -1.421875 
Q 22.3125 -1.421875 17.546875 -0.640625 
Q 12.796875 0.140625 7.71875 1.703125 
L 7.71875 11.625 
Q 12.109375 9.234375 16.796875 8.0625 
Q 21.484375 6.890625 26.703125 6.890625 
Q 35.15625 6.890625 40.078125 11.328125 
Q 45.015625 15.765625 45.015625 23.390625 
Q 45.015625 31 40.078125 35.4375 
Q 35.15625 39.890625 26.703125 39.890625 
Q 22.75 39.890625 18.8125 39.015625 
Q 14.890625 38.140625 10.796875 36.28125 
z
" id="DejaVuSans-53"/>
      </defs>
      <g transform="translate(310.31328 266.598437)scale(0.1 -0.1)">
       <use xlink:href="#DejaVuSans-49"/>
       <use x="63.623047" xlink:href="#DejaVuSans-53"/>
      </g>
     </g>
    </g>
   </g>
   <g id="matplotlib.axis_2">
    <g id="ytick_1">
     <g id="line2d_5">
      <defs>
       <path d="M 0 0 
L -3.5 0 
" id="m8b96abec63" style="stroke:#000000;stroke-width:0.8;"/>
      </defs>
      <g>
       <use style="stroke:#000000;stroke-width:0.8;" x="107.858476" xlink:href="#m8b96abec63" y="238.379755"/>
      </g>
     </g>
     <g id="text_5">
      <!-- 50.5 -->
      <defs>
       <path d="M 31.78125 66.40625 
Q 24.171875 66.40625 20.328125 58.90625 
Q 16.5 51.421875 16.5 36.375 
Q 16.5 21.390625 20.328125 13.890625 
Q 24.171875 6.390625 31.78125 6.390625 
Q 39.453125 6.390625 43.28125 13.890625 
Q 47.125 21.390625 47.125 36.375 
Q 47.125 51.421875 43.28125 58.90625 
Q 39.453125 66.40625 31.78125 66.40625 
z
M 31.78125 74.21875 
Q 44.046875 74.21875 50.515625 64.515625 
Q 56.984375 54.828125 56.984375 36.375 
Q 56.984375 17.96875 50.515625 8.265625 
Q 44.046875 -1.421875 31.78125 -1.421875 
Q 19.53125 -1.421875 13.0625 8.265625 
Q 6.59375 17.96875 6.59375 36.375 
Q 6.59375 54.828125 13.0625 64.515625 
Q 19.53125 74.21875 31.78125 74.21875 
z
" id="DejaVuSans-48"/>
       <path d="M 10.6875 12.40625 
L 21 12.40625 
L 21 0 
L 10.6875 0 
z
" id="DejaVuSans-46"/>
      </defs>
      <g transform="translate(78.592851 242.178974)scale(0.1 -0.1)">
       <use xlink:href="#DejaVuSans-53"/>
       <use x="63.623047" xlink:href="#DejaVuSans-48"/>
       <use x="127.246094" xlink:href="#DejaVuSans-46"/>
       <use x="159.033203" xlink:href="#DejaVuSans-53"/>
      </g>
     </g>
    </g>
    <g id="ytick_2">
     <g id="line2d_6">
      <g>
       <use style="stroke:#000000;stroke-width:0.8;" x="107.858476" xlink:href="#m8b96abec63" y="211.798682"/>
      </g>
     </g>
     <g id="text_6">
      <!-- 51.0 -->
      <g transform="translate(78.592851 215.5979)scale(0.1 -0.1)">
       <use xlink:href="#DejaVuSans-53"/>
       <use x="63.623047" xlink:href="#DejaVuSans-49"/>
       <use x="127.246094" xlink:href="#DejaVuSans-46"/>
       <use x="159.033203" xlink:href="#DejaVuSans-48"/>
      </g>
     </g>
    </g>
    <g id="ytick_3">
     <g id="line2d_7">
      <g>
       <use style="stroke:#000000;stroke-width:0.8;" x="107.858476" xlink:href="#m8b96abec63" y="185.217608"/>
      </g>
     </g>
     <g id="text_7">
      <!-- 51.5 -->
      <g transform="translate(78.592851 189.016827)scale(0.1 -0.1)">
       <use xlink:href="#DejaVuSans-53"/>
       <use x="63.623047" xlink:href="#DejaVuSans-49"/>
       <use x="127.246094" xlink:href="#DejaVuSans-46"/>
       <use x="159.033203" xlink:href="#DejaVuSans-53"/>
      </g>
     </g>
    </g>
    <g id="ytick_4">
     <g id="line2d_8">
      <g>
       <use style="stroke:#000000;stroke-width:0.8;" x="107.858476" xlink:href="#m8b96abec63" y="158.636534"/>
      </g>
     </g>
     <g id="text_8">
      <!-- 52.0 -->
      <g transform="translate(78.592851 162.435753)scale(0.1 -0.1)">
       <use xlink:href="#DejaVuSans-53"/>
       <use x="63.623047" xlink:href="#DejaVuSans-50"/>
       <use x="127.246094" xlink:href="#DejaVuSans-46"/>
       <use x="159.033203" xlink:href="#DejaVuSans-48"/>
      </g>
     </g>
    </g>
    <g id="ytick_5">
     <g id="line2d_9">
      <g>
       <use style="stroke:#000000;stroke-width:0.8;" x="107.858476" xlink:href="#m8b96abec63" y="132.055461"/>
      </g>
     </g>
     <g id="text_9">
      <!-- 52.5 -->
      <g transform="translate(78.592851 135.854679)scale(0.1 -0.1)">
       <use xlink:href="#DejaVuSans-53"/>
       <use x="63.623047" xlink:href="#DejaVuSans-50"/>
       <use x="127.246094" xlink:href="#DejaVuSans-46"/>
       <use x="159.033203" xlink:href="#DejaVuSans-53"/>
      </g>
     </g>
    </g>
    <g id="ytick_6">
     <g id="line2d_10">
      <g>
       <use style="stroke:#000000;stroke-width:0.8;" x="107.858476" xlink:href="#m8b96abec63" y="105.474387"/>
      </g>
     </g>
     <g id="text_10">
      <!-- 53.0 -->
      <g transform="translate(78.592851 109.273606)scale(0.1 -0.1)">
       <use xlink:href="#DejaVuSans-53"/>
       <use x="63.623047" xlink:href="#DejaVuSans-51"/>
       <use x="127.246094" xlink:href="#DejaVuSans-46"/>
       <use x="159.033203" xlink:href="#DejaVuSans-48"/>
      </g>
     </g>
    </g>
    <g id="ytick_7">
     <g id="line2d_11">
      <g>
       <use style="stroke:#000000;stroke-width:0.8;" x="107.858476" xlink:href="#m8b96abec63" y="78.893313"/>
      </g>
     </g>
     <g id="text_11">
      <!-- 53.5 -->
      <g transform="translate(78.592851 82.692532)scale(0.1 -0.1)">
       <use xlink:href="#DejaVuSans-53"/>
       <use x="63.623047" xlink:href="#DejaVuSans-51"/>
       <use x="127.246094" xlink:href="#DejaVuSans-46"/>
       <use x="159.033203" xlink:href="#DejaVuSans-53"/>
      </g>
     </g>
    </g>
    <g id="ytick_8">
     <g id="line2d_12">
      <g>
       <use style="stroke:#000000;stroke-width:0.8;" x="107.858476" xlink:href="#m8b96abec63" y="52.31224"/>
      </g>
     </g>
     <g id="text_12">
      <!-- 54.0 -->
      <g transform="translate(78.592851 56.111458)scale(0.1 -0.1)">
       <use xlink:href="#DejaVuSans-53"/>
       <use x="63.623047" xlink:href="#DejaVuSans-52"/>
       <use x="127.246094" xlink:href="#DejaVuSans-46"/>
       <use x="159.033203" xlink:href="#DejaVuSans-48"/>
      </g>
     </g>
    </g>
   </g>
   <g id="patch_3">
    <path d="M 107.858476 252 
L 107.858476 34.56 
" style="fill:none;stroke:#000000;stroke-linecap:square;stroke-linejoin:miter;stroke-width:0.8;"/>
   </g>
   <g id="patch_4">
    <path d="M 334.941524 252 
L 334.941524 34.56 
" style="fill:none;stroke:#000000;stroke-linecap:square;stroke-linejoin:miter;stroke-width:0.8;"/>
   </g>
   <g id="patch_5">
    <path d="M 107.858476 252 
L 334.941524 252 
" style="fill:none;stroke:#000000;stroke-linecap:square;stroke-linejoin:miter;stroke-width:0.8;"/>
   </g>
   <g id="patch_6">
    <path d="M 107.858476 34.56 
L 334.941524 34.56 
" style="fill:none;stroke:#000000;stroke-linecap:square;stroke-linejoin:miter;stroke-width:0.8;"/>
   </g>
  </g>
 </g>
 <defs>
  <clipPath id="p6f98bef52c">
   <rect height="217.44" width="227.083049" x="107.858476" y="34.56"/>
  </clipPath>
 </defs>
</svg>
