<?xml version="1.0" encoding="utf-8" standalone="no"?>
<!DOCTYPE svg PUBLIC "-//W3C//DTD SVG 1.1//EN"
  "http://www.w3.org/Graphics/SVG/1.1/DTD/svg11.dtd">
<!-- Created with matplotlib (https://matplotlib.org/) -->
<svg height="288pt" version="1.1" viewBox="0 0 432 288" width="432pt" xmlns="http://www.w3.org/2000/svg" xmlns:xlink="http://www.w3.org/1999/xlink">
 <defs>
  <style type="text/css">
*{stroke-linecap:butt;stroke-linejoin:round;}
  </style>
 </defs>
 <g id="figure_1">
  <g id="patch_1">
   <path d="M 0 288 
L 432 288 
L 432 0 
L 0 0 
z
" style="fill:#ffffff;"/>
  </g>
  <g id="axes_1">
   <g id="patch_2">
    <path d="M 54 228.910912 
L 388.8 228.910912 
L 388.8 57.649088 
L 54 57.649088 
z
" style="fill:#ffffff;"/>
   </g>
   <g id="PatchCollection_1">
    <path clip-path="url(#p151f88fb9c)" d="M 181.111996 133.153299 
L 181.964053 131.576063 
L 187.442709 121.527788 
L 180.208396 119.825717 
L 181.111996 133.153299 
" style="fill:none;stroke:#0000ff;stroke-opacity:0.2;"/>
    <path clip-path="url(#p151f88fb9c)" d="M 173.600366 147.082884 
L 176.470748 141.744668 
L 181.964053 131.576063 
L 187.442709 121.527788 
L 175.52274 118.723287 
L 173.600366 147.082884 
" style="fill:none;stroke:#0000ff;stroke-opacity:0.2;"/>
    <path clip-path="url(#p151f88fb9c)" d="M 166.831459 159.708192 
L 171.002158 151.914924 
L 176.470748 141.744668 
L 181.964053 131.576063 
L 185.39135 125.290138 
L 185.688256 121.115005 
L 169.998375 117.423528 
L 162.241418 115.620429 
L 162.251874 115.600951 
L 162.214488 115.592155 
L 162.217156 115.587187 
L 161.92288 115.523546 
L 161.222029 115.358651 
L 161.215617 115.37059 
L 161.175592 115.361934 
L 161.165697 115.38037 
L 137.898136 110.34242 
L 137.918512 110.303919 
L 115.847721 105.578207 
L 113.315728 105.037884 
L 113.316258 105.036865 
L 113.315342 105.036669 
L 113.315663 105.036052 
L 113.248852 105.021747 
L 113.248882 105.021689 
L 113.191756 105.010266 
L 112.529415 104.868765 
L 112.429963 104.848864 
L 112.078064 104.773769 
L 112.071482 104.786407 
L 112.045306 104.781181 
L 112.039117 104.793073 
L 89.152291 100.220104 
L 89.1768 100.172316 
L 71.292067 96.708223 
L 69.218182 157.831455 
L 166.831459 159.708192 
" style="fill:none;stroke:#0000ff;stroke-opacity:0.2;"/>
    <path clip-path="url(#p151f88fb9c)" d="M 181.129454 133.127836 
L 181.525503 132.390829 
L 187.058246 122.228208 
L 192.622329 112.06848 
L 198.219881 101.908349 
L 203.861305 91.750524 
L 205.117967 89.507022 
L 178.186127 89.99837 
L 181.109959 133.123263 
L 181.129454 133.127836 
" style="fill:none;stroke:#0000ff;stroke-opacity:0.2;"/>
    <path clip-path="url(#p151f88fb9c)" d="M 181.129454 133.127836 
L 181.525503 132.390829 
L 185.391362 125.289964 
L 187.882045 90.265624 
L 71.587515 88.000539 
L 70.85953 109.456307 
L 81.626504 111.545109 
L 81.615783 111.565944 
L 81.631905 111.569068 
L 81.629277 111.574251 
L 83.154724 111.869481 
L 83.163369 111.852524 
L 105.925166 116.422213 
L 105.91391 116.444027 
L 107.173581 116.695776 
L 107.176115 116.690866 
L 107.255695 116.7079 
L 107.260452 116.698792 
L 129.981879 121.551342 
L 129.974012 121.566254 
L 129.999179 121.571614 
L 129.999031 121.571898 
L 131.663749 121.925571 
L 131.672955 121.908016 
L 154.799945 126.9526 
L 154.78666 126.977553 
L 155.745537 127.185093 
L 155.969173 127.23776 
L 155.976852 127.223317 
L 165.047938 129.355824 
L 181.129454 133.127836 
" style="fill:none;stroke:#0000ff;stroke-opacity:0.2;"/>
    <path clip-path="url(#p151f88fb9c)" d="M 181.129454 133.127836 
L 181.525503 132.390829 
L 187.058246 122.228208 
L 192.622329 112.06848 
L 198.219881 101.908349 
L 203.861305 91.750524 
L 204.360381 90.85953 
L 177.46995 89.997305 
L 174.649349 131.60789 
L 181.129454 133.127836 
" style="fill:none;stroke:#0000ff;stroke-opacity:0.2;"/>
   </g>
   <g id="PatchCollection_2">
    <path clip-path="url(#p151f88fb9c)" d="M 125.921253 96.362512 
L 126.14227 96.751342 
L 126.066045 97.260847 
L 126.10058 97.797343 
L 126.440524 98.157958 
L 127.735644 98.998652 
L 129.38571 99.765216 
L 130.447712 100.780447 
L 131.028685 101.088594 
L 131.427239 101.151047 
L 132.187074 101.100773 
L 136.23644 99.784777 
L 137.490436 99.664867 
L 138.395423 99.458435 
L 139.095373 99.480076 
L 139.866764 99.718169 
L 141.099877 100.52706 
L 142.844299 101.545893 
L 143.50316 101.680863 
L 144.436951 101.659781 
L 146.022115 101.319441 
L 146.218045 101.427434 
L 146.963251 102.036113 
L 147.821227 102.330298 
L 148.792114 102.510949 
L 149.384899 102.465544 
L 151.167515 102.049262 
L 151.944893 102.128587 
L 152.440103 102.366114 
L 152.488487 102.659138 
L 152.266543 102.875576 
L 151.367521 103.613819 
L 151.337522 103.98357 
L 151.592954 104.279765 
L 152.131262 104.528141 
L 152.841487 104.634265 
L 153.567912 104.523803 
L 154.377355 104.32718 
L 154.941188 104.41794 
L 155.27356 104.670364 
L 155.522268 105.134634 
L 155.465038 105.77046 
L 155.584226 106.127523 
L 155.936745 106.422033 
L 156.562636 106.592911 
L 156.990113 106.542778 
L 159.238555 105.815292 
L 160.05407 105.938366 
L 160.772852 106.147515 
L 161.399075 106.533614 
L 161.828548 107.048518 
L 162.488825 107.591857 
L 163.030784 107.84869 
L 164.499761 107.986215 
L 165.969148 108.039794 
L 166.697427 108.289175 
L 167.11363 108.590755 
L 167.142178 109.021728 
L 166.895656 109.336463 
L 166.180994 109.700001 
L 165.575909 110.166132 
L 165.359372 110.687257 
L 165.619771 111.091649 
L 166.136303 111.358631 
L 166.858397 111.437049 
L 168.867557 111.466015 
L 169.190148 111.632356 
L 170.136641 112.384576 
L 170.963691 112.603639 
L 172.313041 112.665541 
L 173.695864 112.819427 
L 174.334699 113.056091 
L 175.12594 113.50949 
L 175.087435 113.426712 
L 175.083351 113.383544 
L 175.126471 113.404272 
L 175.691437 113.553742 
L 176.969912 113.715108 
L 177.008445 113.531535 
L 177.366959 113.346263 
L 178.344611 113.2037 
L 178.323727 113.178004 
L 178.342127 112.967425 
L 178.414276 112.983213 
L 179.649292 112.818776 
L 179.882601 112.92088 
L 181.278114 113.004019 
L 181.30652 113.048356 
L 181.379794 113.011719 
L 181.804532 112.851626 
L 181.886815 112.896649 
L 182.555633 113.014627 
L 182.638772 113.058858 
L 182.55121 113.222184 
L 183.03739 113.141416 
L 183.32759 113.071639 
L 183.62762 113.34932 
L 183.739286 113.719687 
L 184.619674 113.67206 
L 185.291168 113.70462 
L 185.831854 113.787681 
L 186.232531 112.94347 
L 186.726856 112.477749 
L 186.725702 112.481387 
L 186.959097 112.531456 
L 186.690976 112.735262 
L 186.513085 112.946024 
L 186.368314 113.799316 
L 187.281461 114.500115 
L 186.620922 115.344255 
L 186.901682 115.323096 
L 187.666053 115.106473 
L 190.138576 114.531401 
L 190.62264 114.266501 
L 191.194718 113.963987 
L 191.503523 113.669399 
L 191.828011 113.737188 
L 192.055426 114.194041 
L 192.493143 114.416735 
L 192.605509 114.487688 
L 192.583875 114.49768 
L 192.695336 114.752355 
L 193.069036 114.735752 
L 193.260479 114.486018 
L 193.962608 114.699427 
L 194.424783 115.00998 
L 194.361155 115.166039 
L 194.223383 115.425781 
L 194.36613 115.72056 
L 194.680463 116.182756 
L 194.699903 116.205593 
L 194.660343 116.426376 
L 195.56635 118.320792 
L 196.10017 118.805627 
L 195.71599 118.894286 
L 195.9546 119.257038 
L 195.390978 119.457355 
L 195.374022 119.869419 
L 195.003896 120.121334 
L 194.473543 120.018882 
L 193.935716 119.883587 
L 193.421194 119.877819 
L 193.621079 120.017679 
L 193.66693 120.077047 
L 193.586212 120.941172 
L 193.421137 121.008395 
L 193.091618 120.961136 
L 192.890105 121.130676 
L 193.076353 121.721961 
L 192.867296 121.702507 
L 192.551187 121.751889 
L 192.416748 121.949454 
L 192.736374 122.509374 
L 193.320122 122.59499 
L 193.400084 122.84442 
L 193.44154 122.998802 
L 193.4833 123.075529 
L 193.438157 123.114091 
L 193.26091 123.147564 
L 193.362237 123.226103 
L 193.55605 123.434283 
L 193.514658 123.456922 
L 193.340454 123.614084 
L 193.378237 123.661563 
L 193.278822 123.662412 
L 192.702504 123.75957 
L 192.472564 124.065148 
L 192.080789 124.179751 
L 192.083882 124.23086 
L 192.142195 124.225977 
L 192.437484 124.354238 
L 192.203615 124.416861 
L 192.440357 124.46608 
L 192.114956 124.67145 
L 191.884329 124.752848 
L 191.816292 124.892595 
L 191.945069 125.012179 
L 192.42827 124.855371 
L 192.736212 125.027034 
L 192.712865 125.138558 
L 192.371018 125.37019 
L 192.83068 125.590705 
L 193.22353 125.67039 
L 193.289126 125.78403 
L 193.639026 125.958665 
L 193.704197 126.050155 
L 193.636981 126.082567 
L 193.227508 126.254796 
L 193.364997 126.678084 
L 193.65589 127.063093 
L 194.140506 126.972941 
L 194.309268 127.025302 
L 194.22443 127.191304 
L 193.917139 127.470174 
L 193.954498 127.501525 
L 194.269793 127.549286 
L 194.492473 127.661582 
L 194.736108 128.420694 
L 194.690469 128.603185 
L 194.701863 128.612951 
L 194.765194 128.666091 
L 194.613841 128.670691 
L 194.464824 128.770821 
L 194.682338 128.893789 
L 194.386894 129.085281 
L 194.437153 129.15871 
L 194.488156 129.405374 
L 194.489635 129.449951 
L 194.340137 129.604212 
L 194.529839 129.911609 
L 194.660187 130.162208 
L 194.596156 130.383784 
L 194.20843 130.48126 
L 194.202209 131.199398 
L 194.612206 131.199299 
L 194.279672 131.304503 
L 192.882242 131.543375 
L 192.448078 131.719072 
L 192.215009 131.991502 
L 191.407519 131.888343 
L 189.663238 131.363538 
L 189.719407 132.170497 
L 190.256385 132.06455 
L 190.125052 132.147618 
L 189.892118 132.666082 
L 190.001639 132.823471 
L 190.280071 132.828177 
L 190.122229 133.625844 
L 190.351292 134.967275 
L 190.695085 135.060902 
L 190.611833 135.123263 
L 188.929709 136.408397 
L 188.869301 136.608177 
L 188.496358 137.371847 
L 188.095738 137.736863 
L 187.99076 137.854629 
L 188.094761 137.945616 
L 188.059207 138.090628 
L 187.91048 138.382286 
L 188.066553 138.308836 
L 188.240495 138.291179 
L 188.868466 138.238046 
L 188.990442 138.005111 
L 189.106545 137.931505 
L 189.673556 137.765666 
L 190.014625 137.66371 
L 190.15048 137.647313 
L 190.647196 137.988757 
L 190.88219 138.023327 
L 191.206055 138.10338 
L 191.134409 138.177871 
L 189.747163 139.497753 
L 190.024936 139.992269 
L 190.819482 140.551178 
L 190.987345 140.659185 
L 191.519277 140.462038 
L 191.846977 140.481081 
L 192.032037 140.578119 
L 192.041017 140.552947 
L 192.436464 140.485596 
L 193.057048 140.25809 
L 193.053559 140.26494 
L 193.161742 140.29351 
L 193.427988 140.364646 
L 193.54339 140.367632 
L 193.671084 140.146148 
L 193.973542 139.940191 
L 193.958355 139.922746 
L 193.764563 139.484102 
L 194.304696 139.143536 
L 194.243106 138.919752 
L 194.208246 138.825714 
L 194.228294 138.796246 
L 194.555535 138.694517 
L 195.335213 139.059611 
L 196.067914 139.083835 
L 196.131769 139.151476 
L 196.097078 139.610983 
L 196.219614 139.946171 
L 196.231156 140.089859 
L 196.600914 140.210994 
L 196.961416 140.319375 
L 196.855822 140.384306 
L 196.396004 140.718573 
L 196.549664 140.743845 
L 197.014952 140.952902 
L 197.087256 141.268487 
L 197.896827 141.101311 
L 198.095446 140.905452 
L 198.716269 140.878836 
L 198.885229 140.669382 
L 199.163809 140.732005 
L 199.853137 141.029757 
L 200.993882 140.640211 
L 201.218041 140.646722 
L 201.210115 140.706868 
L 201.14055 140.922281 
L 200.908769 140.988216 
L 200.777515 140.961755 
L 200.217042 141.014612 
L 199.947315 141.174747 
L 199.735328 141.473857 
L 199.79689 141.581057 
L 199.721543 141.913068 
L 199.779566 141.931177 
L 200.059271 142.019136 
L 200.380157 142.100151 
L 200.899237 141.923598 
L 201.13641 141.865858 
L 201.258472 141.921475 
L 201.183046 141.989193 
L 200.946786 142.202751 
L 200.845474 142.665733 
L 200.865926 142.916791 
L 200.583963 143.029094 
L 200.14781 143.191847 
L 200.154561 143.318565 
L 200.307046 143.511183 
L 200.10968 143.785156 
L 199.373128 143.889016 
L 199.408052 144.245456 
L 199.623811 144.300683 
L 199.610012 144.358607 
L 199.244591 144.711586 
L 199.079694 145.108859 
L 198.314191 145.290055 
L 198.45846 145.420029 
L 198.887409 145.769384 
L 198.789026 145.784522 
L 198.326583 145.929753 
L 197.310333 146.511165 
L 197.366714 146.607361 
L 198.373424 146.889522 
L 198.823675 146.906584 
L 199.114356 146.893266 
L 199.219766 147.142173 
L 199.24399 147.491061 
L 199.303428 147.672236 
L 199.033171 147.849751 
L 198.762722 148.021372 
L 198.58263 148.521083 
L 198.690495 148.792749 
L 199.543666 149.037968 
L 199.389822 149.156208 
L 199.100924 149.504864 
L 198.320624 149.583162 
L 197.963788 149.734875 
L 198.02605 150.034056 
L 198.64008 150.551827 
L 198.934831 150.911961 
L 198.929721 150.934479 
L 199.477561 151.210398 
L 199.65226 151.37911 
L 198.932892 152.133177 
L 198.301495 152.944078 
L 197.870239 153.144565 
L 197.632138 153.437518 
L 195.674937 156.283176 
L 195.596738 156.772703 
L 195.723109 157.143225 
L 195.865615 157.256044 
L 195.821541 157.302214 
L 195.227538 158.056535 
L 195.216498 158.085769 
L 195.975023 158.252911 
L 196.40945 158.314267 
L 196.104558 158.554059 
L 196.251721 158.59313 
L 196.61516 158.619909 
L 196.641939 158.555531 
L 197.016927 158.648747 
L 196.815067 158.687818 
L 196.805102 158.731065 
L 196.900364 158.746768 
L 197.141324 158.840636 
L 197.129371 158.87648 
L 197.235644 158.93509 
L 197.358852 159.010459 
L 197.229197 159.034329 
L 196.386854 159.087009 
L 196.42596 159.172045 
L 196.443709 159.182214 
L 196.712382 159.191138 
L 196.960786 159.13153 
L 198.080436 159.262649 
L 198.074611 159.296944 
L 198.083804 159.414405 
L 198.143328 159.402424 
L 198.877388 159.568801 
L 198.688648 159.649711 
L 197.819137 160.31652 
L 197.886523 160.323179 
L 197.747081 160.425114 
L 197.294941 160.464709 
L 196.630863 160.499385 
L 196.160218 160.485494 
L 195.279306 161.006392 
L 195.345559 161.128899 
L 195.762838 161.283486 
L 195.747835 161.313457 
L 195.455597 161.681198 
L 195.370526 161.759128 
L 194.95692 161.931442 
L 194.970543 161.934174 
L 195.156784 162.596029 
L 195.369104 162.767728 
L 195.313487 162.784804 
L 194.823125 162.856231 
L 194.002543 162.588457 
L 193.138269 163.696104 
L 193.513886 164.03355 
L 194.386349 164.247221 
L 194.2461 164.807382 
L 194.270543 164.808429 
L 194.984045 165.660531 
L 195.225189 165.926762 
L 195.573002 166.109239 
L 196.605132 166.527007 
L 196.65157 166.781773 
L 196.850295 166.998424 
L 196.931311 167.441456 
L 197.033763 167.850781 
L 197.459555 168.429745 
L 198.141629 168.471767 
L 200.46861 169.528022 
L 200.709598 170.080441 
L 201.393901 171.057082 
L 201.756215 171.229325 
L 202.691279 171.831367 
L 203.225942 172.423494 
L 203.51288 172.490887 
L 205.414606 172.683002 
L 206.156465 173.302743 
L 206.400567 173.466317 
L 206.976912 173.787868 
L 207.669566 173.965476 
L 208.242713 174.47084 
L 209.05275 174.581013 
L 209.711506 174.536499 
L 209.791743 174.364475 
L 209.873672 173.92852 
L 210.542427 173.310414 
L 211.512691 173.361233 
L 211.869584 173.420473 
L 211.954315 173.938251 
L 212.191205 174.559103 
L 212.488836 174.699097 
L 213.157217 175.123234 
L 213.943589 175.298782 
L 215.768269 175.560979 
L 215.72377 175.713358 
L 215.929148 176.024414 
L 216.078193 176.514981 
L 216.023991 176.83523 
L 216.069715 176.834395 
L 219.007867 176.981204 
L 220.668117 177.066374 
L 221.386969 177.018761 
L 221.345938 176.903762 
L 221.311204 176.804856 
L 221.429147 176.795253 
L 221.408362 176.690629 
L 221.299181 176.355511 
L 221.439147 176.334472 
L 222.579185 176.234243 
L 223.480945 176.072034 
L 223.625709 175.61729 
L 223.701849 175.556089 
L 223.796785 175.163324 
L 224.24574 174.859331 
L 225.303786 174.884447 
L 225.586173 175.081551 
L 225.855101 175.411892 
L 227.384422 175.596951 
L 228.212802 175.786405 
L 228.13306 175.923541 
L 228.477193 176.099655 
L 229.88199 176.600689 
L 230.098089 176.518265 
L 230.738162 176.622988 
L 231.232692 176.712921 
L 231.447375 176.834345 
L 231.561921 177.005704 
L 232.12003 177.224216 
L 232.591836 177.286138 
L 232.817757 177.480094 
L 232.773874 178.249701 
L 234.377085 178.447194 
L 236.091232 178.348685 
L 236.382784 178.243289 
L 237.600809 178.062412 
L 237.90144 178.6564 
L 238.024875 178.736829 
L 238.319045 180.370845 
L 240.352245 180.427891 
L 240.749334 180.380328 
L 240.752441 180.414948 
L 240.875238 180.842297 
L 242.533762 180.650543 
L 242.597991 180.633736 
L 242.741418 180.06187 
L 243.424178 180.148837 
L 244.619925 180.302978 
L 245.828297 180.417665 
L 245.817929 180.450346 
L 245.523971 181.236966 
L 245.573799 181.240809 
L 246.956799 181.437545 
L 246.950296 181.469625 
L 246.711601 182.774369 
L 246.789934 182.74902 
L 247.673684 182.560811 
L 248.727342 182.621651 
L 249.673963 182.735779 
L 250.168755 183.08309 
L 250.168924 182.912722 
L 250.22239 182.613633 
L 251.853406 182.921228 
L 252.030461 183.43023 
L 251.266622 183.49371 
L 251.313046 184.183476 
L 251.271016 184.243466 
L 250.521988 184.186158 
L 250.648671 184.387176 
L 250.927506 184.551416 
L 251.737643 184.954088 
L 252.156111 184.961052 
L 253.336649 185.046448 
L 254.144903 185.118094 
L 254.307317 185.154632 
L 254.316857 185.107394 
L 254.503834 184.810874 
L 254.609683 184.816323 
L 254.669928 184.705627 
L 255.798806 184.704452 
L 256.535428 184.634385 
L 256.660709 184.623599 
L 256.666378 184.504659 
L 257.036539 184.407041 
L 257.1058 184.03988 
L 257.984384 184.085334 
L 257.969884 184.288737 
L 258.437961 184.289756 
L 258.526414 184.528777 
L 258.752357 184.636217 
L 258.859656 184.780422 
L 259.197526 184.799919 
L 259.324202 185.392924 
L 259.237645 185.71083 
L 257.349357 185.96687 
L 257.541925 186.453368 
L 258.250983 187.629739 
L 258.492 187.826744 
L 258.479558 187.895899 
L 258.705819 187.942769 
L 258.704263 188.000658 
L 258.638964 188.112111 
L 258.530002 188.183042 
L 258.886874 188.528576 
L 259.210859 188.560967 
L 259.04916 188.662074 
L 259.108145 188.715235 
L 259.566789 188.990235 
L 260.097114 189.815707 
L 259.936278 189.962636 
L 259.959497 189.985261 
L 260.00716 190.116282 
L 259.989263 190.13144 
L 259.819524 190.095999 
L 259.843055 190.111809 
L 260.189085 190.459091 
L 260.015136 190.626742 
L 259.94039 190.772171 
L 260.685745 190.834058 
L 260.607022 191.139311 
L 259.898672 191.160959 
L 259.896153 191.253475 
L 260.023861 191.332919 
L 259.924771 191.701609 
L 259.674902 191.889903 
L 259.043045 192.290014 
L 259.629058 192.447778 
L 259.195799 192.799957 
L 259.352311 192.850974 
L 260.202934 193.227937 
L 260.137523 193.412819 
L 259.655851 193.619746 
L 259.735812 193.687663 
L 259.80375 193.804445 
L 259.666204 193.735849 
L 259.424445 193.873827 
L 260.466879 194.24149 
L 260.504365 194.396473 
L 260.499942 194.505853 
L 260.606272 194.495655 
L 260.754992 194.557408 
L 261.145627 194.703113 
L 261.32005 194.90181 
L 261.775679 195.469514 
L 261.644 195.531288 
L 261.668832 195.625262 
L 261.843043 195.888202 
L 261.714973 195.883326 
L 260.470311 195.721089 
L 260.514768 195.860638 
L 260.730563 196.235739 
L 260.429747 196.354326 
L 260.130778 196.128737 
L 260.082663 196.086913 
L 259.558424 196.38114 
L 259.978322 197.06872 
L 260.014768 197.347866 
L 259.688008 197.370016 
L 259.879833 197.453162 
L 260.108026 197.584919 
L 259.941536 197.665864 
L 259.576711 197.786871 
L 259.538113 197.960983 
L 252.21879 200.707635 
L 252.338262 200.826887 
L 254.099732 202.587862 
L 254.009269 202.638872 
L 254.012411 202.679012 
L 254.404581 202.887722 
L 254.775536 203.511547 
L 255.449514 203.573059 
L 255.587647 203.526889 
L 255.500283 203.460331 
L 255.461587 203.414587 
L 255.83143 203.321802 
L 256.057634 203.395175 
L 255.928779 203.233674 
L 255.657502 203.29249 
L 255.642938 203.08046 
L 255.496518 202.929299 
L 255.983639 202.913029 
L 256.179434 203.25373 
L 256.526207 203.174214 
L 256.481056 203.076787 
L 256.45127 203.029005 
L 256.746021 202.964789 
L 256.80064 202.817449 
L 257.20942 202.834405 
L 257.620047 203.185417 
L 258.806438 204.145491 
L 258.793495 204.260475 
L 259.599498 204.128782 
L 260.056677 204.638188 
L 259.538021 204.863352 
L 259.547582 205.164578 
L 259.21163 205.530699 
L 258.658603 206.201514 
L 258.708134 206.341048 
L 259.017073 206.646661 
L 259.790807 206.607031 
L 260.192899 207.008848 
L 261.749898 207.04891 
L 262.115884 208.40574 
L 263.124958 209.411225 
L 263.340483 209.434784 
L 263.297406 210.107552 
L 263.314985 210.560499 
L 263.270578 210.809123 
L 262.916177 210.864485 
L 263.053736 211.244993 
L 262.881613 211.292896 
L 262.916283 211.363063 
L 262.95696 211.408595 
L 262.904019 211.435792 
L 262.531897 211.580273 
L 262.638913 211.666709 
L 262.881238 211.730196 
L 262.338458 211.985097 
L 262.17976 211.958806 
L 261.944228 211.741115 
L 261.534896 211.721937 
L 261.516425 211.724138 
L 261.614135 211.776938 
L 261.84765 212.108007 
L 261.789068 212.372582 
L 261.516171 212.979925 
L 261.579721 213.249376 
L 261.836858 213.506945 
L 262.380431 213.809013 
L 262.937159 214.037921 
L 263.045633 214.271712 
L 262.906531 214.753029 
L 262.457583 215.082421 
L 262.19133 215.393696 
L 262.196992 215.600461 
L 262.065242 215.538616 
L 261.839731 215.496799 
L 261.276152 215.744609 
L 260.987325 215.970056 
L 260.965818 216.284516 
L 261.064597 216.346927 
L 261.834969 216.471189 
L 262.011267 216.313942 
L 261.912623 215.902543 
L 262.153264 215.760029 
L 262.27575 215.675539 
L 262.932531 216.023748 
L 263.04794 216.317756 
L 262.987943 216.540719 
L 262.871911 216.935989 
L 263.057162 217.265311 
L 264.039527 218.586756 
L 266.779662 218.805261 
L 267.236911 219.107549 
L 267.276712 219.307286 
L 267.63221 219.320222 
L 267.746869 218.872491 
L 267.292861 218.872194 
L 267.277532 218.612368 
L 266.961119 218.492054 
L 266.96751 218.469267 
L 266.969654 218.256912 
L 267.087406 218.273167 
L 267.067265 218.210799 
L 267.032461 218.127809 
L 267.137531 218.174983 
L 268.055844 218.246282 
L 268.889462 218.279076 
L 268.886603 218.240239 
L 268.830795 217.466576 
L 270.285632 217.034393 
L 270.59029 216.888851 
L 270.644612 216.829582 
L 270.652135 216.64833 
L 271.876218 216.32082 
L 271.704654 215.928154 
L 271.53028 215.754467 
L 271.323126 215.583703 
L 271.46293 215.593525 
L 272.204102 215.591374 
L 272.202375 215.681413 
L 272.406408 216.049742 
L 272.538738 216.170289 
L 274.181487 215.908502 
L 275.179323 216.37994 
L 275.248159 216.468578 
L 275.70216 216.300262 
L 275.683959 216.282145 
L 275.267302 215.740313 
L 275.121024 215.63305 
L 275.162812 215.480558 
L 275.541112 215.67302 
L 275.732853 215.576428 
L 275.984746 215.32786 
L 276.159233 215.043527 
L 276.081975 214.844306 
L 276.959547 214.494243 
L 277.074878 214.397934 
L 277.108995 214.416263 
L 277.590065 214.713491 
L 277.326743 214.97682 
L 277.760773 215.305115 
L 277.712049 215.36754 
L 277.878277 215.427354 
L 278.372673 215.506728 
L 278.617546 215.843225 
L 278.850601 215.884985 
L 278.97124 215.980728 
L 278.909027 216.043578 
L 278.850941 216.082628 
L 278.961035 216.125945 
L 279.014182 216.277906 
L 278.875518 216.336453 
L 278.561151 216.463412 
L 278.493496 216.602082 
L 278.474438 216.702956 
L 279.025576 216.606697 
L 279.173631 216.394363 
L 279.508309 216.335016 
L 279.934201 216.315838 
L 280.154284 216.387626 
L 280.055512 216.236832 
L 280.061952 216.106767 
L 280.182832 216.045885 
L 280.230034 216.125726 
L 280.386723 216.222112 
L 280.668622 216.655937 
L 281.386441 216.569925 
L 281.487973 216.30535 
L 282.292525 216.918715 
L 282.066533 216.845321 
L 281.5632 216.678187 
L 281.563695 216.768622 
L 281.530936 217.051236 
L 281.366782 217.127093 
L 281.463657 217.370083 
L 282.367448 217.500984 
L 283.410073 217.671366 
L 283.574659 217.840057 
L 283.729204 218.009031 
L 284.70842 217.954256 
L 285.496463 218.049058 
L 285.669131 219.544849 
L 285.651835 219.578761 
L 286.697885 219.595016 
L 286.766248 219.979806 
L 287.012267 220.394438 
L 287.26346 220.407078 
L 287.663344 219.698565 
L 288.083801 219.664865 
L 288.979277 219.244217 
L 290.001932 219.32703 
L 290.372914 219.345069 
L 290.205929 219.504638 
L 290.512604 219.827802 
L 290.45267 220.006259 
L 290.762523 220.043476 
L 290.672881 220.390129 
L 290.75425 220.402513 
L 292.272574 220.360116 
L 292.297697 220.284047 
L 293.827131 220.451945 
L 295.38551 220.426815 
L 295.654034 220.292928 
L 295.962669 219.943091 
L 296.64422 220.376916 
L 296.938928 220.512983 
L 297.52671 220.070234 
L 298.477286 220.617982 
L 299.218834 220.806976 
L 299.998936 220.751069 
L 300.193238 220.754317 
L 301.229268 220.934579 
L 301.494338 220.776227 
L 301.817014 220.548056 
L 302.10863 220.226986 
L 303.053785 220.375197 
L 303.051945 220.379804 
L 302.928454 220.518092 
L 302.730196 220.590694 
L 302.750429 220.622539 
L 302.531514 220.850393 
L 302.6685 220.907354 
L 302.637228 221.126284 
L 302.749233 220.955399 
L 303.003398 220.933532 
L 303.587153 220.931968 
L 303.587712 220.779405 
L 304.132467 220.338567 
L 305.951231 220.2041 
L 306.745714 220.305815 
L 307.316561 219.94813 
L 307.85864 219.738408 
L 307.634552 219.463359 
L 307.657042 219.379158 
L 307.682519 219.379158 
L 308.307029 219.488482 
L 309.710093 219.523278 
L 309.744769 219.691474 
L 309.795786 219.653691 
L 309.922157 219.803203 
L 309.952729 219.787287 
L 310.094599 219.879626 
L 310.437069 219.912314 
L 310.837774 220.009748 
L 310.893674 220.041587 
L 310.924239 220.022699 
L 311.533676 219.902612 
L 311.564241 219.855055 
L 311.635286 219.858311 
L 311.746937 219.849111 
L 311.746803 219.871261 
L 311.990912 219.8051 
L 312.249323 219.86262 
L 312.259301 219.900977 
L 312.340175 219.882082 
L 312.798118 219.758952 
L 312.991005 219.746779 
L 312.983291 219.697673 
L 312.901348 219.444704 
L 315.214699 218.943982 
L 316.492785 218.431589 
L 316.847781 218.559242 
L 317.055742 218.610542 
L 317.43119 218.693964 
L 317.416484 219.396688 
L 317.29593 219.949043 
L 318.290715 220.088082 
L 319.428368 220.172841 
L 319.377422 220.109369 
L 319.133292 219.469834 
L 319.159894 219.314094 
L 319.441715 219.187425 
L 319.817369 219.073007 
L 319.781206 218.71368 
L 319.654261 218.713687 
L 319.725087 218.526023 
L 320.461532 218.363553 
L 321.376363 218.493675 
L 321.325488 218.398074 
L 321.208309 218.111921 
L 320.557543 218.057939 
L 320.511685 217.911604 
L 320.760401 217.730245 
L 320.8417 217.66005 
L 321.329571 217.634354 
L 322.206407 217.002526 
L 322.560964 216.879509 
L 322.465419 216.489285 
L 322.257155 216.383705 
L 322.101853 216.218397 
L 322.676126 216.238948 
L 322.459185 215.873684 
L 321.995927 215.785166 
L 322.051827 215.740582 
L 322.813664 215.352665 
L 323.815378 215.014915 
L 323.101777 214.586822 
L 323.268472 214.13919 
L 323.313608 213.948349 
L 323.028305 213.770671 
L 322.105399 213.230778 
L 321.866867 213.117916 
L 321.70342 212.921456 
L 322.11939 212.565066 
L 324.599684 213.114703 
L 324.790801 213.035874 
L 325.52104 212.741456 
L 325.680857 212.644701 
L 325.185895 212.21031 
L 325.068433 212.114999 
L 324.604319 211.722213 
L 324.609344 211.703318 
L 325.367019 211.626109 
L 325.631439 211.524068 
L 326.252326 211.15264 
L 326.257839 210.846743 
L 326.462962 210.555488 
L 326.768335 209.86246 
L 327.179436 209.602272 
L 328.320479 209.582018 
L 329.064708 209.560434 
L 329.211383 209.483162 
L 329.456426 209.527173 
L 329.250936 209.394354 
L 328.615095 208.901445 
L 328.594282 208.571274 
L 328.815823 208.320711 
L 329.286426 208.035401 
L 329.75548 208.18548 
L 330.083237 208.222973 
L 330.793859 208.265427 
L 331.227323 208.254026 
L 331.930309 208.379336 
L 334.978562 208.444408 
L 335.429294 208.671122 
L 335.369013 208.700554 
L 335.724646 208.829905 
L 336.734222 208.961081 
L 336.544945 209.109539 
L 337.313703 209.041786 
L 337.323738 208.89366 
L 338.224904 208.879634 
L 339.19618 209.023796 
L 342.410188 210.028334 
L 342.448898 210.192106 
L 342.726919 210.641543 
L 342.954426 210.787708 
L 343.248816 210.757178 
L 343.453266 210.625776 
L 343.598186 210.400795 
L 343.602304 210.178872 
L 343.665557 209.895409 
L 343.418469 209.893782 
L 343.443089 209.796631 
L 343.589984 209.659495 
L 344.678134 209.555282 
L 344.960345 209.424339 
L 345.254409 209.217291 
L 346.524788 208.730418 
L 346.737518 208.759518 
L 346.705078 208.688481 
L 346.828187 208.210355 
L 348.069494 208.394742 
L 348.364769 208.521333 
L 348.660822 208.374502 
L 350.691 208.015006 
L 351.085754 208.159543 
L 351.049244 208.044877 
L 351.126637 207.308396 
L 351.331971 207.191218 
L 355.387466 207.027467 
L 355.941965 207.316209 
L 357.334385 206.936742 
L 357.955371 206.787045 
L 358.062593 206.478225 
L 357.916279 205.942897 
L 358.121175 206.005924 
L 358.762408 206.029553 
L 359.129541 205.869001 
L 359.606004 205.419861 
L 360.562553 205.527444 
L 360.625254 205.808182 
L 360.642897 205.876191 
L 360.669973 205.879906 
L 361.025174 205.877295 
L 361.645063 206.017551 
L 361.775483 206.227797 
L 362.142764 206.95483 
L 362.302283 207.148198 
L 362.241897 207.179286 
L 362.105328 207.252737 
L 362.241253 207.29575 
L 362.542613 207.575406 
L 362.525487 207.603919 
L 362.950742 207.594025 
L 363.10426 207.585738 
L 364.466242 207.398895 
L 364.70515 207.319903 
L 365.645472 207.307328 
L 366.397415 207.28517 
L 366.36501 207.403127 
L 366.466337 207.376667 
L 366.686887 207.424987 
L 367.325551 207.474943 
L 367.809551 207.195981 
L 368.312311 206.705923 
L 368.4874 206.197975 
L 368.670499 205.83276 
L 368.617692 205.815861 
L 368.413659 205.751192 
L 368.755386 205.745722 
L 368.87168 205.712567 
L 368.885805 205.763881 
L 369.402854 205.718292 
L 369.32135 205.702723 
L 369.105817 205.242763 
L 368.809467 204.783653 
L 368.788215 204.543903 
L 368.678751 204.309221 
L 368.751296 204.305739 
L 369.49687 204.279965 
L 369.952435 204.574121 
L 370.383302 204.993566 
L 370.439591 205.077108 
L 371.039736 205.365384 
L 371.039389 205.343368 
L 371.175406 205.123561 
L 371.635685 204.853862 
L 371.792161 204.666283 
L 372.123577 204.493169 
L 372.346802 204.461571 
L 372.616961 204.378439 
L 373.129608 203.966779 
L 373.335473 203.741381 
L 373.552237 203.196464 
L 373.459106 202.899803 
L 373.403269 202.713328 
L 373.146026 202.490244 
L 372.7781 202.200751 
L 372.728846 202.019159 
L 372.89593 201.702541 
L 372.770457 201.066686 
L 372.853681 200.795501 
L 372.531451 200.40389 
L 372.571145 200.28611 
L 372.861692 200.048738 
L 372.990887 199.710231 
L 372.664991 199.3652 
L 372.50894 199.142739 
L 372.365152 199.015915 
L 372.216567 198.68004 
L 371.523184 198.426427 
L 371.650999 198.266943 
L 371.711711 198.138166 
L 371.599876 197.892521 
L 371.325075 197.786546 
L 370.930455 197.796446 
L 370.351152 197.472638 
L 369.596413 197.015084 
L 368.020745 196.123231 
L 367.427904 195.552094 
L 367.275015 195.348026 
L 366.465077 194.831629 
L 366.09115 194.2833 
L 365.824346 194.084448 
L 365.899432 193.944963 
L 366.09275 193.531484 
L 365.905822 193.224865 
L 366.169435 193.120036 
L 366.386722 192.978612 
L 366.250917 192.853019 
L 365.413797 192.537088 
L 365.548469 192.350259 
L 365.718455 192.156849 
L 365.747612 191.801874 
L 365.651862 191.460557 
L 365.593903 191.280664 
L 365.633349 191.020186 
L 364.787467 190.138616 
L 364.352899 190.049696 
L 364.255444 189.856045 
L 363.846445 189.826407 
L 363.327209 189.83233 
L 362.689741 189.634744 
L 362.355834 189.653512 
L 362.010738 189.368018 
L 361.911684 189.16947 
L 361.820619 188.913649 
L 361.515465 188.618339 
L 361.147158 188.410188 
L 361.193645 188.243945 
L 361.126543 188.003998 
L 361.348614 187.724576 
L 361.252758 187.465903 
L 361.251159 187.339538 
L 361.168077 187.200344 
L 361.216008 187.162836 
L 361.730453 186.972321 
L 362.069158 187.125322 
L 362.272058 186.97627 
L 362.212945 186.842029 
L 362.112298 186.549875 
L 362.380702 186.529147 
L 362.473366 186.686076 
L 362.578811 186.755168 
L 362.74177 186.642653 
L 362.53088 186.361369 
L 362.350349 186.19064 
L 362.385493 186.152156 
L 362.844023 185.837371 
L 363.631846 185.781959 
L 364.617418 185.248337 
L 365.020027 185.089511 
L 365.234116 184.772857 
L 365.587201 184.626869 
L 365.593591 184.318156 
L 365.673475 184.20276 
L 365.798091 183.920713 
L 366.258214 183.676158 
L 366.291765 183.536135 
L 366.480285 183.487822 
L 367.168877 183.520361 
L 367.210418 183.209779 
L 367.65776 183.132882 
L 368.018835 182.902184 
L 368.533279 182.661656 
L 368.464577 182.500983 
L 368.288838 182.294976 
L 368.520498 182.064342 
L 368.836833 181.905672 
L 368.958251 181.700691 
L 369.141987 181.308499 
L 369.314535 181.170557 
L 369.228261 180.577468 
L 369.603709 180.285887 
L 369.886005 180.203697 
L 370.308273 179.805235 
L 370.268331 179.615165 
L 370.362206 179.049286 
L 370.081403 178.857935 
L 369.878503 178.775228 
L 369.437552 177.968 
L 369.293835 177.337488 
L 369.553456 177.20513 
L 369.920115 177.124928 
L 370.119024 176.833178 
L 370.166955 176.561618 
L 370.353883 176.379608 
L 370.43422 176.042425 
L 370.097093 175.680125 
L 369.916923 175.507585 
L 370.075091 175.375792 
L 370.746104 175.143205 
L 370.852907 174.759314 
L 371.340941 174.406116 
L 371.836887 173.957733 
L 371.770237 173.733213 
L 371.950987 173.641469 
L 372.350906 173.508715 
L 372.344127 173.034743 
L 372.45258 172.722738 
L 372.302331 172.568484 
L 372.171282 172.437166 
L 372.205378 172.107357 
L 372.181458 171.875873 
L 372.566085 171.676872 
L 373.004284 171.432438 
L 373.075406 171.027217 
L 372.82577 170.790985 
L 372.541026 170.611325 
L 371.978197 169.86297 
L 371.659774 169.641068 
L 370.491054 169.100892 
L 369.736485 168.964542 
L 368.926101 168.810472 
L 368.231451 168.324746 
L 367.68405 167.703052 
L 367.641511 167.312098 
L 367.791717 166.829931 
L 367.469742 165.842966 
L 367.582703 165.472698 
L 368.637075 164.624672 
L 369.256611 163.978336 
L 369.3137 163.615888 
L 369.216471 163.293517 
L 368.871588 162.876103 
L 367.920212 162.045776 
L 368.094635 161.760862 
L 369.518015 160.788538 
L 369.811931 160.040799 
L 369.901736 159.464134 
L 370.072395 159.146023 
L 369.957537 159.003792 
L 369.23606 158.457007 
L 368.92402 157.980678 
L 368.598018 157.775924 
L 367.849252 157.554298 
L 366.716164 157.356748 
L 365.833836 157.191893 
L 364.733252 157.095258 
L 362.83161 156.543929 
L 361.512776 156.418499 
L 361.27505 156.280947 
L 360.748193 155.579397 
L 360.09195 155.299515 
L 360.003114 155.014629 
L 360.119019 154.755383 
L 360.788071 154.214478 
L 360.732277 154.010601 
L 360.288113 153.344981 
L 360.241264 153.103746 
L 359.804255 152.804232 
L 359.118437 152.569882 
L 359.097674 152.314486 
L 359.201059 151.750022 
L 358.923633 151.354978 
L 358.487777 150.858566 
L 358.500558 150.555542 
L 358.492617 149.92479 
L 358.376168 149.127349 
L 357.989644 148.672916 
L 357.265046 147.95785 
L 357.201354 147.622521 
L 357.446801 147.192999 
L 358.063293 146.562657 
L 358.054299 146.234397 
L 357.875339 145.756059 
L 358.007931 145.386973 
L 358.426803 144.965023 
L 358.97828 144.694567 
L 359.85617 144.63137 
L 360.348783 144.519068 
L 362.58886 142.782154 
L 362.859132 141.944206 
L 364.12758 141.145378 
L 364.343169 140.754708 
L 364.277213 140.478031 
L 363.880958 140.107396 
L 363.305059 139.927601 
L 362.807344 139.711856 
L 362.631357 139.41523 
L 362.589674 139.05102 
L 362.142948 138.038656 
L 362.377149 137.656407 
L 362.763333 137.295735 
L 362.87887 136.975826 
L 362.935605 136.55791 
L 363.317549 136.253924 
L 364.658173 135.417872 
L 364.549692 135.119335 
L 364.125301 134.88076 
L 362.858396 134.2792 
L 362.586306 133.831752 
L 362.375536 133.307322 
L 361.579157 132.553935 
L 360.410797 132.127045 
L 359.870855 131.762432 
L 358.529792 131.388158 
L 356.784139 130.752481 
L 355.671807 130.430583 
L 352.135456 128.786157 
L 351.579067 127.985015 
L 351.008099 127.750417 
L 349.970032 127.45803 
L 349.275765 126.482374 
L 348.547479 125.994297 
L 348.241915 125.640335 
L 347.047293 124.760307 
L 346.662681 124.494833 
L 346.352906 124.176637 
L 345.163592 123.447665 
L 344.625426 123.022573 
L 344.185663 122.600481 
L 340.35776 121.376809 
L 339.221898 120.974419 
L 336.913741 119.628714 
L 336.324551 119.147227 
L 335.592012 118.681237 
L 334.886811 118.056352 
L 334.383873 117.88345 
L 332.591003 117.720782 
L 330.182122 117.483325 
L 328.532161 117.114105 
L 328.265421 116.79082 
L 328.088634 116.42034 
L 328.419264 115.638397 
L 328.820005 115.289941 
L 329.315498 114.87184 
L 329.49089 114.695358 
L 330.008704 114.359377 
L 330.588772 113.635501 
L 330.635542 112.578467 
L 330.347083 112.318244 
L 330.165703 112.030853 
L 329.590865 109.876944 
L 329.483927 109.614746 
L 329.464671 108.701054 
L 329.232479 108.364833 
L 329.515065 107.988762 
L 329.629137 107.67455 
L 329.962888 107.571936 
L 330.997665 107.374358 
L 331.239757 107.081801 
L 331.327375 106.865313 
L 331.904988 106.656404 
L 332.342252 106.580894 
L 333.374842 106.126214 
L 334.024851 105.881277 
L 334.699281 105.792682 
L 334.960354 105.770949 
L 338.071959 104.566264 
L 338.391337 104.295213 
L 341.245735 102.737181 
L 341.980156 102.286315 
L 344.053878 101.127481 
L 344.066765 100.97816 
L 344.452736 100.681633 
L 344.769638 100.058028 
L 344.831419 99.844095 
L 345.383413 99.188354 
L 345.657216 98.307775 
L 345.592958 97.902915 
L 345.582407 97.597408 
L 345.838249 97.346604 
L 346.225211 96.904584 
L 346.326757 96.460222 
L 346.400717 95.730252 
L 346.451946 95.624021 
L 346.536592 95.441368 
L 346.55265 95.27032 
L 346.793057 94.922854 
L 345.832934 94.077807 
L 345.541786 93.634011 
L 345.529967 93.304159 
L 345.305702 92.828383 
L 345.497272 92.439305 
L 346.063222 90.918341 
L 346.102704 90.707458 
L 346.688101 90.492386 
L 347.95238 90.208186 
L 348.225327 89.867995 
L 348.295324 89.204116 
L 349.071725 88.520209 
L 349.481765 88.284055 
L 350.014149 87.94501 
L 350.115136 87.70461 
L 350.239327 87.336677 
L 351.060178 86.727573 
L 351.250687 86.560418 
L 351.24085 86.304597 
L 351.006535 85.949332 
L 350.857532 85.641588 
L 350.872925 85.630569 
L 350.895641 85.578363 
L 350.805624 85.569255 
L 349.139521 85.303718 
L 348.529843 83.470035 
L 348.174996 83.151464 
L 348.787193 82.04405 
L 348.471764 81.668921 
L 347.505066 81.693994 
L 346.353168 82.094636 
L 346.184208 82.499148 
L 345.907524 82.679014 
L 345.488709 82.633524 
L 345.080665 82.529352 
L 344.986741 82.526196 
L 344.997293 82.624741 
L 345.028388 82.701171 
L 344.921217 82.711079 
L 344.155233 82.808378 
L 344.169188 82.858589 
L 344.000604 83.066351 
L 342.579303 82.95143 
L 341.758127 82.911191 
L 341.755317 82.984995 
L 341.632945 83.378107 
L 340.6744 84.587781 
L 340.762556 84.745234 
L 340.690273 84.762756 
L 337.926169 85.432071 
L 338.188041 86.170596 
L 338.154482 86.182677 
L 338.171261 86.649678 
L 337.138629 86.794704 
L 336.611581 86.818687 
L 334.287968 86.936446 
L 333.795702 86.688063 
L 333.602016 86.529598 
L 333.543483 86.47258 
L 333.321844 86.520787 
L 333.171284 86.513385 
L 332.50693 86.510837 
L 332.099049 86.477866 
L 331.234025 86.225725 
L 331.167665 86.180539 
L 330.583485 86.077734 
L 330.119301 86.123266 
L 328.017441 86.584231 
L 326.394252 86.495898 
L 327.054338 85.10173 
L 327.883059 84.532787 
L 329.600667 83.408856 
L 331.747025 82.22272 
L 333.985864 80.754146 
L 335.474628 79.333922 
L 335.877796 78.703834 
L 336.609726 77.006671 
L 336.47959 76.21151 
L 336.197068 75.63728 
L 336.519072 75.100218 
L 336.426443 75.057644 
L 336.057442 74.646443 
L 335.882814 74.706476 
L 335.296051 74.265518 
L 334.622887 74.571216 
L 334.314018 74.895584 
L 333.823153 75.029499 
L 332.247302 75.109991 
L 331.562907 74.974399 
L 330.207846 74.338296 
L 329.924645 74.198394 
L 329.048906 73.797122 
L 328.881411 73.932757 
L 327.95428 73.807072 
L 326.903418 74.994086 
L 326.807866 75.098321 
L 326.030311 75.131724 
L 325.19467 75.688297 
L 325.304609 75.822163 
L 325.280463 75.844702 
L 325.182972 75.924713 
L 325.149569 75.887241 
L 324.743634 75.709492 
L 324.168598 75.652276 
L 323.197194 75.796367 
L 322.910192 75.604578 
L 322.502325 74.62011 
L 319.823511 74.505395 
L 319.372737 74.231273 
L 316.768061 74.558181 
L 315.461051 74.546851 
L 313.460264 75.094556 
L 312.702722 74.683653 
L 312.57386 74.4933 
L 312.514966 74.441165 
L 312.592713 74.393035 
L 313.146391 73.988119 
L 313.088538 73.941037 
L 312.687571 73.518861 
L 312.732141 73.520219 
L 313.620384 73.201662 
L 313.483433 72.706976 
L 310.577806 71.505596 
L 310.91579 71.084014 
L 311.031404 70.98169 
L 311.138215 70.774678 
L 311.231304 70.655582 
L 311.176557 70.627932 
L 310.810444 70.561162 
L 310.594203 70.556732 
L 310.586115 70.525997 
L 310.497251 70.382854 
L 310.423828 70.303848 
L 310.474017 70.250538 
L 310.550546 69.979021 
L 310.679097 69.869613 
L 310.721233 69.55804 
L 310.875586 69.33156 
L 308.324163 68.51119 
L 306.967658 68.35729 
L 306.778756 68.336526 
L 306.883762 68.242178 
L 306.894696 68.079757 
L 305.152644 66.295981 
L 305.246306 65.714787 
L 305.3772 65.688808 
L 305.300621 65.596533 
L 305.230843 65.433716 
L 304.795759 65.516876 
L 304.606092 65.485306 
L 304.067877 66.074468 
L 303.595617 67.483837 
L 303.552717 67.645316 
L 303.837815 68.0116 
L 303.830378 68.139613 
L 303.718577 68.643973 
L 304.727984 68.965708 
L 304.661341 69.014453 
L 305.233653 69.553929 
L 305.269342 69.730475 
L 305.486488 69.699761 
L 305.574106 69.633373 
L 306.039869 69.495283 
L 306.272556 69.537397 
L 306.386217 69.64493 
L 307.156631 69.735966 
L 305.232259 71.173345 
L 303.984483 71.438692 
L 303.681084 71.353734 
L 302.822203 71.250794 
L 301.654912 71.042041 
L 301.081517 70.597912 
L 300.873479 70.939292 
L 299.796156 70.891984 
L 299.522445 70.871022 
L 299.3794 70.856472 
L 298.942596 70.966489 
L 298.579214 71.364533 
L 296.961298 72.054151 
L 296.701096 72.103696 
L 294.907716 73.138416 
L 294.956009 73.134793 
L 295.119866 73.292953 
L 295.026629 73.324608 
L 294.805598 73.392447 
L 294.683281 73.551761 
L 294.700528 73.633145 
L 294.567943 73.524501 
L 294.383159 73.464786 
L 293.951252 73.358259 
L 293.478568 73.8753 
L 293.843231 74.001346 
L 293.783552 74.048428 
L 293.720228 74.336958 
L 293.749626 74.389058 
L 293.125497 74.427202 
L 293.240149 74.551507 
L 293.639205 75.036059 
L 293.59615 75.065697 
L 292.831496 76.057128 
L 292.545026 76.011822 
L 292.201232 75.734127 
L 291.661927 75.766843 
L 291.548421 75.890079 
L 291.445538 75.899081 
L 290.641459 76.075981 
L 290.380161 76.070567 
L 290.221986 76.050264 
L 289.533791 76.137932 
L 289.001074 76.233016 
L 288.888262 76.402365 
L 288.964112 76.454175 
L 288.797303 76.476941 
L 288.557143 76.60097 
L 288.499708 76.66912 
L 287.812383 76.687909 
L 287.474513 76.925606 
L 287.347526 77.01556 
L 287.248287 77.08911 
L 287.279758 77.120871 
L 287.385415 77.214773 
L 288.003146 77.326092 
L 287.871453 77.422988 
L 287.962299 77.670904 
L 287.908585 77.677451 
L 287.565939 78.070237 
L 287.633614 78.106775 
L 288.025849 78.173984 
L 288.007399 78.231688 
L 287.925464 78.396791 
L 287.287394 78.761404 
L 287.313507 78.78519 
L 287.173343 79.053622 
L 286.920664 79.237054 
L 286.224423 79.13112 
L 285.851621 79.009844 
L 285.489605 79.644574 
L 285.159378 80.079687 
L 285.312295 80.083855 
L 285.78287 80.163654 
L 285.755468 80.595858 
L 285.634058 80.806444 
L 285.432891 80.886334 
L 285.400989 81.113126 
L 285.634298 81.340753 
L 285.574223 81.360738 
L 285.496569 81.479353 
L 285.657015 82.177569 
L 285.604944 82.402004 
L 285.170496 82.490479 
L 284.734435 82.510924 
L 284.742722 82.394446 
L 284.209509 81.827449 
L 284.128911 81.920821 
L 284.229325 82.145363 
L 284.50448 82.631719 
L 284.466512 82.637975 
L 284.233592 82.823424 
L 284.042135 83.002864 
L 283.729727 83.333106 
L 283.766626 83.455535 
L 283.806603 83.635959 
L 283.153445 84.143277 
L 283.005603 84.333517 
L 282.164795 84.428984 
L 281.642658 84.484134 
L 281.178467 84.52024 
L 281.195203 84.474906 
L 280.935334 84.110561 
L 280.701437 83.874159 
L 280.334128 83.88505 
L 280.070303 83.876424 
L 279.758872 83.820863 
L 279.659322 83.770271 
L 279.625396 83.791671 
L 279.552362 83.859998 
L 279.585999 83.90483 
L 279.526129 84.017232 
L 279.427527 84.165782 
L 279.58895 84.326002 
L 279.667949 84.337898 
L 279.344961 84.464715 
L 279.382193 84.501224 
L 279.497503 84.556169 
L 279.568024 84.548335 
L 279.603776 84.608941 
L 279.723382 84.677933 
L 279.937534 84.716254 
L 279.860248 84.774794 
L 279.271489 84.956669 
L 279.059368 84.953853 
L 278.88365 85.094484 
L 278.969902 85.154311 
L 278.885476 85.221478 
L 278.836235 85.401867 
L 278.317127 85.960973 
L 278.006135 86.141277 
L 277.70856 86.379038 
L 277.528921 86.408421 
L 277.565664 86.436396 
L 277.408183 86.888713 
L 277.198383 87.381311 
L 277.203528 87.379726 
L 277.329284 87.53238 
L 277.272782 87.55935 
L 276.89439 87.60438 
L 276.637578 87.608096 
L 276.637882 87.650847 
L 276.259448 87.805603 
L 276.045883 87.751713 
L 275.879662 87.563292 
L 275.92598 87.379117 
L 275.920283 87.28796 
L 275.776248 87.281761 
L 275.669685 87.281492 
L 274.820187 86.283076 
L 274.689831 85.814765 
L 274.054557 85.327439 
L 272.981452 85.38576 
L 272.709241 85.451313 
L 272.756203 85.661679 
L 272.643263 85.655572 
L 272.032092 85.574075 
L 270.038424 85.18995 
L 269.70739 85.137787 
L 269.709584 85.160985 
L 269.03695 85.550537 
L 269.039463 85.498593 
L 268.739624 85.529943 
L 268.44333 85.806974 
L 268.191592 86.092758 
L 268.033821 86.265412 
L 267.568235 86.337079 
L 267.33051 86.347843 
L 267.121488 86.400707 
L 266.624552 86.461313 
L 266.482717 86.451094 
L 266.564059 86.523278 
L 266.522772 86.65926 
L 266.076492 86.970464 
L 265.97644 87.516712 
L 266.157126 87.481951 
L 266.237151 87.414806 
L 266.24945 87.444656 
L 266.351569 87.568685 
L 266.058666 87.931847 
L 265.829553 88.074863 
L 265.688532 88.044864 
L 265.592669 88.200895 
L 265.81111 88.208212 
L 265.696961 88.277311 
L 265.66406 88.455789 
L 265.585019 88.70466 
L 265.218445 89.258155 
L 264.723257 89.636703 
L 263.239291 89.407094 
L 263.199668 89.421673 
L 262.877721 89.164174 
L 262.626309 88.823466 
L 262.100867 88.266299 
L 262.096309 87.973134 
L 261.641884 87.347413 
L 261.388511 87.277189 
L 261.401816 87.318221 
L 261.254518 87.467011 
L 260.909147 87.520505 
L 260.701696 87.292107 
L 260.095953 87.36393 
L 259.824216 87.476417 
L 259.325836 87.514943 
L 259.386803 87.284705 
L 259.383237 87.234495 
L 259.302752 87.26104 
L 258.321858 87.753652 
L 257.963154 88.163961 
L 257.79171 88.221856 
L 257.788101 88.184908 
L 257.619926 88.075741 
L 256.788319 88.001837 
L 256.640179 88.022742 
L 256.464992 88.027321 
L 256.475395 88.033782 
L 256.39239 88.103659 
L 256.207579 88.22669 
L 255.981877 88.316736 
L 256.249997 89.081234 
L 256.051251 89.533961 
L 256.152995 89.777136 
L 255.355307 89.857203 
L 255.112875 89.673516 
L 254.777284 89.769861 
L 254.844202 89.890889 
L 254.742352 89.896345 
L 254.564433 89.943534 
L 254.667642 90.130971 
L 254.562593 90.130836 
L 254.401899 90.207903 
L 254.369785 90.336228 
L 254.222643 90.631828 
L 254.293935 90.788141 
L 254.171159 90.874054 
L 254.15324 90.835712 
L 253.64566 90.699405 
L 253.526925 90.588737 
L 253.151802 90.775177 
L 252.962291 90.807058 
L 252.305376 90.877557 
L 250.648883 91.644992 
L 250.627872 91.843682 
L 250.186588 91.90053 
L 249.891151 91.945532 
L 249.896813 91.964427 
L 249.956322 92.027616 
L 250.034938 92.242795 
L 250.149336 92.283642 
L 250.02915 92.337313 
L 249.945947 92.595413 
L 248.999992 92.981703 
L 249.042099 93.044814 
L 249.117241 93.12503 
L 249.059827 93.150677 
L 248.848597 93.189663 
L 248.728531 93.185148 
L 248.77325 93.109206 
L 248.776434 93.043731 
L 247.788407 93.114231 
L 247.496317 93.219556 
L 247.600184 93.3618 
L 247.523881 93.384559 
L 246.916843 93.436319 
L 246.764536 93.263432 
L 246.370072 93.218119 
L 246.196993 92.91201 
L 246.096934 92.510307 
L 245.567175 92.493825 
L 245.134723 92.725011 
L 244.641997 92.769588 
L 244.529476 92.632559 
L 244.61478 92.606962 
L 245.022583 92.361205 
L 245.753296 92.206448 
L 245.926481 92.177624 
L 245.82611 92.089036 
L 245.857467 91.95188 
L 247.227687 91.406431 
L 247.074664 91.335868 
L 246.931209 91.091936 
L 246.979601 91.027155 
L 246.921082 91.001756 
L 246.007879 90.850616 
L 244.768001 91.01608 
L 244.528322 91.175882 
L 244.121538 91.264123 
L 244.264504 91.322875 
L 244.648289 91.653548 
L 244.530488 91.864105 
L 243.280405 91.742879 
L 242.912677 91.687198 
L 243.029353 91.650087 
L 243.719948 91.342988 
L 243.611686 91.234032 
L 243.166198 91.141043 
L 242.541688 91.192916 
L 242.25187 91.298991 
L 241.939052 91.274929 
L 241.875296 91.262552 
L 241.680364 91.33947 
L 241.74964 91.39864 
L 241.612589 91.594258 
L 240.735414 91.824595 
L 240.607627 92.231698 
L 240.453586 92.207142 
L 239.673696 92.106176 
L 239.183341 91.790301 
L 238.530855 91.616069 
L 238.324218 91.29759 
L 238.366014 91.286238 
L 238.257477 91.129628 
L 237.526006 90.814128 
L 237.265125 90.950534 
L 236.974784 91.042795 
L 236.6713 91.116592 
L 236.621988 91.133357 
L 236.117643 91.11236 
L 235.822255 91.273479 
L 235.814555 91.162945 
L 235.564191 91.16158 
L 235.367589 91.413961 
L 235.214389 91.066035 
L 235.277642 91.059241 
L 235.34628 91.052801 
L 234.887842 91.156187 
L 234.657604 91.312776 
L 234.415752 91.408873 
L 234.464434 91.481474 
L 234.422475 91.507093 
L 233.394089 91.667227 
L 233.252014 91.705796 
L 233.046318 91.728796 
L 232.949804 91.653435 
L 232.732581 91.629168 
L 232.156893 91.660165 
L 231.777843 91.453117 
L 231.24836 91.116514 
L 230.328646 90.916126 
L 230.163125 90.86259 
L 230.236088 90.820659 
L 231.025942 90.223168 
L 231.384887 89.583138 
L 231.440136 89.121989 
L 230.714044 89.057448 
L 230.470756 89.189007 
L 229.528757 89.268126 
L 229.105278 89.288111 
L 228.867758 89.217824 
L 228.223623 89.079111 
L 226.724845 88.985576 
L 225.547604 88.777057 
L 224.892784 88.553195 
L 225.019863 88.291103 
L 225.237447 88.18994 
L 225.177245 88.176911 
L 224.939434 87.927743 
L 224.970537 87.89422 
L 225.603915 87.46169 
L 225.499376 87.422633 
L 225.310544 87.369974 
L 225.107439 87.4361 
L 224.982971 87.219577 
L 224.915677 87.061423 
L 223.894573 86.961236 
L 222.972742 87.028466 
L 222.248859 86.973422 
L 222.247401 87.061013 
L 221.83044 87.226321 
L 221.439862 87.305433 
L 221.198506 87.460119 
L 221.050486 87.483331 
L 220.91994 87.601854 
L 220.417207 87.662644 
L 220.084079 87.422625 
L 218.316827 87.02008 
L 215.839569 86.345182 
L 214.924759 86.299048 
L 213.31065 86.476684 
L 213.233392 86.849733 
L 212.970105 86.933728 
L 211.89218 86.911302 
L 210.570359 86.918888 
L 209.792387 87.204482 
L 209.528605 87.299991 
L 209.394852 87.321837 
L 209.389085 87.217192 
L 209.236168 87.138377 
L 209.045971 87.079052 
L 208.939613 86.886986 
L 208.587837 86.671432 
L 208.52808 86.498849 
L 208.452648 86.321468 
L 208.37471 85.760054 
L 208.092563 85.531628 
L 205.956225 85.095574 
L 205.584238 84.709213 
L 206.047262 84.117192 
L 205.773622 83.645541 
L 205.285949 83.617092 
L 204.703991 83.541391 
L 203.937823 83.316517 
L 203.432734 83.260391 
L 202.620588 82.816743 
L 201.12411 82.387773 
L 200.84001 82.258528 
L 199.829118 82.086299 
L 199.739454 81.839034 
L 197.600618 81.84328 
L 197.110476 82.055586 
L 196.703132 82.028481 
L 196.033733 81.975759 
L 196.092542 81.870526 
L 196.187301 81.784755 
L 196.114628 81.743164 
L 195.499714 81.501185 
L 195.186563 81.356534 
L 194.878579 81.00439 
L 194.524595 80.726412 
L 194.43111 80.490328 
L 194.334511 80.223814 
L 194.153768 79.950294 
L 193.956678 79.667078 
L 193.381613 79.806138 
L 192.794659 80.015189 
L 191.202793 80.038825 
L 191.027075 80.222116 
L 190.914553 80.444612 
L 191.123107 80.487214 
L 191.098692 80.554515 
L 191.06529 80.693434 
L 189.703916 80.923431 
L 188.930912 80.140307 
L 188.741323 79.624334 
L 188.591011 79.419955 
L 187.802579 79.492139 
L 187.731103 79.424342 
L 187.723602 79.531203 
L 187.676894 79.962961 
L 187.39014 80.228343 
L 187.383417 80.329401 
L 187.292621 80.323244 
L 185.521498 80.251697 
L 185.528009 80.312275 
L 185.561836 80.660385 
L 185.462548 80.653803 
L 183.646841 80.500094 
L 183.460012 79.220105 
L 183.383936 78.977086 
L 183.26622 78.874584 
L 182.258505 78.750131 
L 182.117385 78.76558 
L 181.75314 78.800164 
L 181.035866 78.761843 
L 181.231406 78.889686 
L 181.460725 79.048371 
L 181.357969 79.111708 
L 181.213799 79.305848 
L 181.170786 79.464985 
L 181.276231 79.480412 
L 181.510263 79.591165 
L 181.724684 79.927634 
L 181.579134 79.988134 
L 181.823618 80.283946 
L 180.198972 80.822961 
L 180.208151 80.830357 
L 178.841795 81.346797 
L 178.994521 81.451223 
L 179.368886 82.34234 
L 179.195715 82.730009 
L 179.437461 83.269548 
L 179.449562 83.535921 
L 179.123956 83.807177 
L 177.979842 83.837253 
L 177.660747 84.213317 
L 176.732689 83.921892 
L 176.520313 83.92168 
L 176.348345 83.942203 
L 175.964497 83.993793 
L 175.988417 84.017925 
L 175.997758 84.025568 
L 175.934491 84.054017 
L 175.93626 84.107093 
L 174.77318 85.258567 
L 174.68019 85.377317 
L 174.690098 85.40244 
L 174.760937 85.473633 
L 174.695052 85.514254 
L 174.501571 85.639373 
L 174.499731 85.636754 
L 174.333496 85.691317 
L 174.006191 85.637674 
L 174.004705 85.624653 
L 173.899472 85.584315 
L 171.046865 85.463513 
L 170.246261 85.258497 
L 170.123903 85.847291 
L 168.985096 86.538486 
L 168.717733 86.654971 
L 168.279817 87.047949 
L 168.290857 87.055733 
L 168.246839 87.190477 
L 168.069776 87.404693 
L 167.972187 87.402357 
L 167.960015 87.382047 
L 164.652154 87.04342 
L 164.578533 87.07787 
L 163.408808 87.073249 
L 163.62543 87.288569 
L 163.776068 87.323642 
L 163.98061 87.538933 
L 165.023129 87.741013 
L 166.075053 88.573392 
L 166.059866 88.594523 
L 165.731791 88.654379 
L 165.723964 88.831817 
L 164.954604 88.816177 
L 164.858861 88.951494 
L 163.811254 88.931488 
L 163.21498 88.966192 
L 162.481387 88.915466 
L 161.419527 88.930051 
L 158.913424 89.595572 
L 158.635374 89.646518 
L 158.649195 89.589344 
L 158.572971 89.478195 
L 158.467802 88.605563 
L 157.666865 88.678087 
L 157.663525 88.559061 
L 157.13211 88.429222 
L 157.217039 88.183139 
L 156.772033 87.992609 
L 156.577582 87.737885 
L 156.106767 87.802497 
L 155.973651 87.908019 
L 153.899356 87.76874 
L 153.675735 87.978441 
L 153.146259 88.086993 
L 152.34431 88.117657 
L 151.838259 87.937035 
L 151.495074 87.905274 
L 151.027075 88.130459 
L 150.835533 88.378828 
L 150.764425 88.6514 
L 150.554752 88.729295 
L 149.853656 88.886274 
L 148.891707 89.615734 
L 148.599836 89.812803 
L 147.936771 89.96855 
L 147.714169 89.984261 
L 146.940152 89.930279 
L 146.059792 90.289039 
L 146.128714 90.352724 
L 146.420308 90.473441 
L 146.644043 90.72365 
L 146.584541 90.746855 
L 146.584265 91.439034 
L 146.658282 91.68337 
L 146.608836 91.685677 
L 146.460802 91.898577 
L 147.207509 92.090225 
L 146.975508 92.688735 
L 147.324843 92.986777 
L 147.364756 93.244841 
L 147.288708 93.341185 
L 147.095985 93.344349 
L 146.833533 93.712989 
L 146.543615 94.027979 
L 146.397521 94.162383 
L 146.475579 94.353776 
L 146.18685 94.387915 
L 146.118424 94.236838 
L 146.015753 94.295364 
L 146.293682 95.268749 
L 145.77904 95.465783 
L 145.906756 95.749685 
L 145.042736 95.851648 
L 144.9164 96.138253 
L 144.21093 96.14429 
L 143.133586 96.122104 
L 142.646034 96.433443 
L 142.521064 96.340694 
L 142.420006 96.048561 
L 141.272729 95.879403 
L 140.678408 95.967255 
L 140.588213 96.027883 
L 140.556771 95.786477 
L 140.627978 95.52348 
L 140.599529 95.478528 
L 139.439089 95.080965 
L 138.583823 95.186318 
L 138.593717 95.215779 
L 138.513394 95.287956 
L 137.892359 95.25364 
L 137.505495 95.137035 
L 136.752356 95.061907 
L 136.814993 95.101424 
L 136.762129 95.159178 
L 136.707128 95.127934 
L 136.539711 95.229437 
L 136.545125 95.242586 
L 136.533356 95.302053 
L 136.44452 95.279478 
L 136.302353 95.318747 
L 135.331912 95.162752 
L 135.063784 95.079493 
L 134.789939 95.812662 
L 134.910358 96.121913 
L 135.486032 96.820752 
L 135.279282 96.873757 
L 134.715759 97.179739 
L 134.371966 97.104746 
L 134.190728 97.155267 
L 133.780348 97.169987 
L 133.38948 97.011614 
L 133.167238 97.024742 
L 133.169821 96.955601 
L 132.553605 96.768716 
L 130.787287 96.900119 
L 130.452481 96.840758 
L 130.536597 96.762983 
L 130.580374 96.730472 
L 130.447952 96.703191 
L 129.904415 96.570359 
L 129.628467 96.537359 
L 129.496654 96.518131 
L 129.487164 96.603705 
L 128.604221 96.738264 
L 128.385553 96.756607 
L 127.89667 96.738405 
L 127.140643 96.480093 
L 127.024668 96.41212 
L 125.921253 96.362512 
M 197.965175 159.05045 
L 197.986717 158.994826 
L 198.075361 159.024528 
L 198.148635 159.098283 
L 197.965175 159.05045 
M 254.869736 146.071452 
L 255.559254 145.75712 
L 255.692816 145.65992 
L 256.077364 145.671568 
L 256.262091 145.574049 
L 256.599204 145.394672 
L 256.548987 145.174271 
L 256.680383 145.127847 
L 256.913034 144.901508 
L 257.330788 144.657321 
L 257.048747 144.362945 
L 256.871175 144.263947 
L 256.564591 144.051231 
L 256.395893 143.812671 
L 256.56784 143.482387 
L 256.541485 143.269409 
L 256.437803 143.214918 
L 256.473526 142.884946 
L 256.44161 142.814333 
L 257.19482 141.953873 
L 257.786424 141.745141 
L 260.565021 139.730978 
L 260.371136 139.663245 
L 258.847229 139.040072 
L 258.714496 138.985262 
L 256.924492 139.176655 
L 257.432935 137.530212 
L 257.853073 136.420088 
L 257.907735 136.446166 
L 258.421153 136.665712 
L 258.968165 136.584243 
L 259.015601 136.347225 
L 259.137203 135.740937 
L 259.435478 135.316992 
L 259.369663 134.682241 
L 259.205332 134.484726 
L 257.964222 134.738268 
L 257.726362 134.393371 
L 257.915944 134.23337 
L 258.275335 134.166643 
L 258.672027 134.057496 
L 259.240688 133.837583 
L 259.916286 133.446545 
L 260.388744 133.455483 
L 260.907838 133.637592 
L 262.957583 134.166841 
L 263.268299 134.192551 
L 263.290691 134.12973 
L 264.057248 134.081989 
L 264.105774 133.847236 
L 263.770961 133.624882 
L 263.283762 133.316373 
L 262.909744 132.800733 
L 262.936735 132.783274 
L 263.423325 132.470329 
L 264.204729 131.459033 
L 264.314258 131.307298 
L 267.317149 131.405957 
L 267.314268 130.706899 
L 267.169674 130.427745 
L 267.206403 130.432925 
L 268.182435 130.461693 
L 268.715817 130.278155 
L 268.796019 129.582883 
L 268.56767 129.573874 
L 268.628744 129.008561 
L 268.738406 129.028079 
L 270.248394 129.095804 
L 270.473607 129.187089 
L 270.563023 129.245338 
L 270.135164 129.417214 
L 269.878819 129.520642 
L 269.934245 129.588091 
L 270.457366 130.394243 
L 270.348404 130.633724 
L 270.441082 130.910117 
L 270.555862 131.20714 
L 270.534511 131.221364 
L 270.03296 131.38283 
L 270.582216 131.321303 
L 271.075628 131.38215 
L 272.635571 131.665429 
L 272.85496 131.654991 
L 273.48325 131.696221 
L 273.70104 131.649613 
L 273.70065 131.642508 
L 273.82245 131.662931 
L 274.19322 131.585001 
L 274.587542 131.504919 
L 274.636182 131.466733 
L 274.69804 131.496908 
L 275.298907 131.231067 
L 275.28498 131.216913 
L 275.242215 131.11616 
L 275.302884 130.966244 
L 275.550376 130.864344 
L 276.212613 130.538455 
L 276.193945 130.525844 
L 276.210957 130.438254 
L 276.260219 130.482421 
L 276.241452 130.422997 
L 276.195063 130.389679 
L 276.312171 130.239982 
L 276.373498 130.247321 
L 276.396229 130.115649 
L 276.509664 129.987041 
L 276.691468 129.936718 
L 276.805802 129.917469 
L 277.637424 130.258375 
L 277.967842 130.307481 
L 278.025575 130.458905 
L 278.460482 130.694231 
L 278.648394 130.797086 
L 278.650001 130.78933 
L 279.0659 130.657205 
L 279.349505 130.621113 
L 279.336526 130.568971 
L 279.33165 130.173347 
L 279.770344 129.989547 
L 279.865074 129.812102 
L 279.905986 129.834472 
L 280.679216 129.865872 
L 281.35778 129.811012 
L 281.543575 129.705425 
L 282.180336 129.361533 
L 282.127224 129.306581 
L 281.080183 129.102365 
L 280.518855 128.87219 
L 280.674715 128.767531 
L 281.139296 128.425655 
L 281.590587 128.557093 
L 282.336614 128.043505 
L 282.393647 128.077071 
L 282.592442 128.009494 
L 282.367703 128.226668 
L 282.203548 128.490245 
L 282.241954 128.495426 
L 282.443064 128.517583 
L 283.182807 128.297423 
L 283.14225 128.44743 
L 282.965866 129.101452 
L 283.586803 129.521611 
L 285.153158 130.026728 
L 285.406707 130.065686 
L 285.444908 130.130963 
L 285.631171 130.119952 
L 285.623259 130.205497 
L 285.427194 130.816377 
L 285.165358 131.244081 
L 284.410563 131.567486 
L 284.328443 131.920762 
L 284.161811 132.080713 
L 283.798875 132.832409 
L 283.765685 132.95135 
L 283.847621 132.946466 
L 283.929294 132.941697 
L 284.704931 133.858021 
L 286.129551 133.893045 
L 287.778343 134.361935 
L 288.568197 134.849955 
L 288.974812 135.196706 
L 289.49622 135.322419 
L 289.596471 135.350904 
L 289.834826 135.463157 
L 289.975648 136.087901 
L 290.092006 136.273116 
L 290.211909 136.520537 
L 290.189058 136.884521 
L 293.743263 137.488027 
L 293.6528 137.576962 
L 293.357349 137.702024 
L 292.835636 137.687708 
L 292.840682 137.710021 
L 292.98931 138.247755 
L 294.118542 138.257288 
L 294.687273 138.274555 
L 295.138273 138.373207 
L 295.106045 138.616296 
L 294.319567 138.962255 
L 293.541149 139.438909 
L 293.219909 139.835142 
L 293.036647 140.242309 
L 292.907749 140.836672 
L 292.979926 140.850585 
L 293.181659 140.876755 
L 293.128229 140.921191 
L 292.086849 141.921171 
L 292.037835 142.109387 
L 292.126373 142.123986 
L 292.245434 142.165237 
L 292.183299 142.216205 
L 291.883234 142.460879 
L 291.977165 142.478862 
L 292.270946 142.435608 
L 292.3295 142.430336 
L 292.568238 142.554598 
L 292.65541 142.753309 
L 292.732923 142.739665 
L 292.686357 142.646979 
L 292.678601 142.644262 
L 292.862748 142.595757 
L 292.853187 142.372214 
L 292.964258 142.250541 
L 293.162106 142.216707 
L 293.597523 142.081122 
L 294.665893 141.942599 
L 295.729275 142.227336 
L 295.994933 142.27461 
L 296.667771 142.582792 
L 297.079262 142.821424 
L 297.962332 143.128594 
L 298.214282 143.573091 
L 298.526477 143.524891 
L 298.527539 143.224061 
L 298.365727 143.132288 
L 298.206752 142.78335 
L 298.090232 142.628728 
L 298.20533 142.631644 
L 298.410375 142.747895 
L 299.132723 142.999477 
L 299.334583 143.084449 
L 299.738402 143.533001 
L 300.400335 143.890077 
L 302.014125 144.139473 
L 302.090909 144.27469 
L 302.004161 144.397912 
L 302.096677 144.409101 
L 302.194854 144.420516 
L 302.155896 144.515685 
L 302.070691 144.741939 
L 302.483901 144.792156 
L 302.422467 144.870759 
L 302.333277 144.894891 
L 302.00869 144.864991 
L 302.022908 144.826514 
L 302.140044 144.516173 
L 302.069842 144.517766 
L 301.516736 144.638794 
L 301.24139 144.902421 
L 301.128019 145.125455 
L 299.960749 144.919235 
L 299.769682 144.832176 
L 300.508979 145.109687 
L 300.993191 145.162799 
L 300.965704 145.276135 
L 300.911418 145.418698 
L 301.0236 145.446036 
L 301.108565 145.465384 
L 301.076747 145.566732 
L 300.950426 145.590906 
L 300.744001 145.644846 
L 300.301606 146.217766 
L 300.323671 146.401729 
L 300.918035 146.941707 
L 300.842978 146.98547 
L 300.602344 147.155576 
L 300.359282 147.460404 
L 299.388388 147.527974 
L 299.278661 147.482505 
L 298.388436 147.93766 
L 298.239851 148.0092 
L 298.04201 148.115466 
L 298.068669 148.034061 
L 297.967753 148.17409 
L 297.177517 148.602863 
L 297.240041 148.601546 
L 297.300491 148.667035 
L 297.545209 148.696942 
L 297.888662 148.794794 
L 298.073219 148.76989 
L 298.021573 148.882533 
L 297.958348 149.057253 
L 298.199619 149.074768 
L 298.177015 149.134596 
L 297.946692 149.403636 
L 297.251222 149.774895 
L 296.892341 149.609382 
L 296.298813 149.781469 
L 296.033219 149.954081 
L 295.745637 150.287223 
L 295.388171 150.732272 
L 295.111027 150.904247 
L 294.937744 151.245797 
L 294.6989 151.522778 
L 294.66629 151.787848 
L 294.280134 151.767417 
L 293.970176 151.573674 
L 293.684901 151.336748 
L 293.676401 151.130373 
L 293.753589 151.125731 
L 293.899577 150.171609 
L 294.418812 149.792 
L 294.39277 149.573148 
L 294.05819 149.526752 
L 294.080865 149.479373 
L 294.108613 149.221974 
L 294.098988 149.052724 
L 294.008709 149.065243 
L 293.372529 149.07912 
L 293.024468 148.805388 
L 291.490568 149.327617 
L 291.557557 149.20109 
L 291.478877 148.869171 
L 291.035095 148.493738 
L 290.718151 148.341522 
L 290.726077 148.243366 
L 290.676468 148.245029 
L 290.531903 147.905312 
L 288.355382 148.298976 
L 286.513484 148.239919 
L 286.489606 147.919628 
L 286.72167 147.41599 
L 286.621448 147.461692 
L 286.057275 147.629145 
L 285.320101 147.383585 
L 284.944865 147.382531 
L 282.986644 147.654105 
L 282.54587 147.640984 
L 282.302829 147.04171 
L 281.631335 146.018383 
L 281.13401 146.004951 
L 280.315417 146.246378 
L 279.789416 146.414114 
L 278.228319 146.840458 
L 278.290143 147.09969 
L 278.808593 148.553417 
L 278.304877 149.146301 
L 276.093772 148.96749 
L 276.074905 148.580224 
L 276.026195 148.269578 
L 274.826973 148.27979 
L 274.939906 147.899813 
L 273.326236 147.184429 
L 272.904611 146.801635 
L 272.915616 146.63138 
L 272.834833 146.658661 
L 270.62077 147.438218 
L 269.560128 146.434424 
L 269.632828 146.3956 
L 269.618363 146.310728 
L 269.533023 146.345723 
L 267.673213 147.161379 
L 267.115175 147.046621 
L 266.629781 147.020875 
L 266.264163 146.96678 
L 266.023281 145.96232 
L 263.621512 146.229337 
L 262.794511 146.362693 
L 262.033262 146.54408 
L 259.89122 147.362758 
L 259.795364 147.633823 
L 259.784643 147.718667 
L 260.756676 147.700211 
L 260.77308 147.769139 
L 260.246917 147.870451 
L 259.306849 147.813943 
L 258.747077 147.696233 
L 258.753185 147.66443 
L 258.653974 147.666072 
L 257.844036 148.142584 
L 257.888953 148.17109 
L 258.042697 148.359249 
L 257.958157 148.344211 
L 257.68337 148.25103 
L 257.586304 148.197968 
L 257.62597 148.054683 
L 258.092009 147.934836 
L 258.450989 147.744434 
L 258.219498 147.727166 
L 258.18042 147.646582 
L 258.294011 147.633334 
L 258.391006 147.612528 
L 258.161242 147.556409 
L 257.996153 147.555418 
L 257.448278 147.682363 
L 256.850708 147.296398 
L 256.480271 147.085898 
L 256.185194 146.789533 
L 256.296506 146.806702 
L 256.529434 146.719168 
L 256.51879 146.6844 
L 256.363163 146.542374 
L 256.197437 146.528008 
L 256.219475 146.605337 
L 256.113103 146.785068 
L 256.081582 146.771148 
L 255.747781 146.516402 
L 255.75534 146.487005 
L 255.64228 146.496325 
L 255.443335 146.534533 
L 255.490234 146.587114 
L 255.598205 146.734674 
L 255.551753 146.761601 
L 255.509964 146.794275 
L 255.000155 146.55989 
L 255.00162 146.50181 
L 254.869736 146.071452 
M 284.245255 131.963039 
L 284.387719 131.89956 
L 284.245255 131.963039 
" style="fill:none;stroke:#ffc0cb;"/>
    <path clip-path="url(#p151f88fb9c)" d="M 193.284377 114.817568 
L 193.295778 114.820625 
L 193.319146 114.826888 
L 193.331353 114.828063 
L 193.345054 114.826945 
L 193.360567 114.822515 
L 193.40324 114.795984 
L 193.407394 114.79822 
L 193.488466 114.752801 
L 193.57227 114.708153 
L 193.509003 114.680036 
L 193.471114 114.708018 
L 193.457972 114.698585 
L 193.4114 114.734811 
L 193.361798 114.773614 
L 193.342209 114.764371 
L 193.336243 114.763925 
L 193.328162 114.7697 
L 193.331014 114.772679 
L 193.311552 114.790959 
L 193.284377 114.817568 
" style="fill:none;stroke:#ffc0cb;"/>
    <path clip-path="url(#p151f88fb9c)" d="M 196.251856 159.499349 
L 196.276094 159.504472 
L 196.31881 159.513311 
L 196.372127 159.451205 
L 196.337698 159.442635 
L 196.306645 159.435332 
L 196.251856 159.499349 
" style="fill:none;stroke:#ffc0cb;"/>
    <path clip-path="url(#p151f88fb9c)" d="M 196.432938 159.27703 
L 196.435677 159.288508 
L 196.448932 159.294191 
L 196.466256 159.292677 
L 196.473149 159.299548 
L 196.486099 159.316547 
L 196.494804 159.337629 
L 196.499751 159.344529 
L 196.508236 159.349751 
L 196.522113 159.350296 
L 196.556096 159.358845 
L 196.584531 159.358102 
L 196.595203 159.43541 
L 196.605373 159.470504 
L 196.625322 159.519957 
L 196.6913 159.514762 
L 196.804473 159.521103 
L 196.843848 159.519681 
L 196.883953 159.508018 
L 196.922338 159.50213 
L 196.960545 159.50944 
L 196.999199 159.511103 
L 197.003891 159.535929 
L 197.007599 159.55648 
L 196.722211 159.8523 
L 197.01181 159.557259 
L 197.008583 159.536892 
L 197.100738 159.555744 
L 197.15937 159.566876 
L 197.198066 159.528123 
L 197.247406 159.54457 
L 197.249309 159.539828 
L 197.270554 159.524719 
L 197.294516 159.496801 
L 197.293999 159.466123 
L 197.307743 159.452139 
L 197.280497 159.439613 
L 197.245304 159.427554 
L 197.204208 159.422615 
L 197.096428 159.402311 
L 197.046373 159.410633 
L 196.999864 159.419784 
L 196.990091 159.4142 
L 196.940214 159.408065 
L 196.891596 159.402686 
L 196.839411 159.410209 
L 196.779937 159.403783 
L 196.751318 159.398299 
L 196.718248 159.398511 
L 196.696176 159.394576 
L 196.682553 159.394102 
L 196.674124 159.390217 
L 196.659277 159.381335 
L 196.648513 159.373657 
L 196.634841 159.368809 
L 196.628075 159.365745 
L 196.616745 159.365122 
L 196.603023 159.35806 
L 196.594319 159.354769 
L 196.58439 159.35612 
L 196.570102 159.355193 
L 196.557328 159.356842 
L 196.523217 159.347451 
L 196.508278 159.345909 
L 196.504174 159.342717 
L 196.501428 159.340467 
L 196.489192 159.315598 
L 196.476461 159.297411 
L 196.46736 159.290214 
L 196.449024 159.291155 
L 196.438154 159.286258 
L 196.436384 159.277277 
L 196.443766 159.270073 
L 196.439788 159.268155 
L 196.432938 159.27703 
" style="fill:none;stroke:#ffc0cb;"/>
    <path clip-path="url(#p151f88fb9c)" d="M 197.412367 159.627971 
L 197.414915 159.629103 
L 197.414787 159.646434 
L 197.478387 159.65504 
L 197.55229 159.637885 
L 197.62734 159.647673 
L 197.723062 159.660963 
L 197.797291 159.656681 
L 197.824551 159.629747 
L 197.770852 159.600236 
L 197.782847 159.561894 
L 197.730988 159.546842 
L 197.667735 159.550989 
L 197.590442 159.532164 
L 197.616959 159.528208 
L 197.632535 159.531131 
L 197.644948 159.530225 
L 197.662137 159.522066 
L 197.68508 159.50535 
L 197.692511 159.501012 
L 197.701421 159.494006 
L 197.705214 159.485068 
L 197.72689 159.474028 
L 197.751935 159.471402 
L 197.769896 159.462981 
L 197.779577 159.46032 
L 197.801601 159.459202 
L 197.801742 159.457397 
L 197.779294 159.45843 
L 197.766811 159.461438 
L 197.750251 159.468657 
L 197.726048 159.47153 
L 197.706757 159.48034 
L 197.701704 159.484813 
L 197.697918 159.49259 
L 197.69181 159.499632 
L 197.6822 159.504189 
L 197.659193 159.521032 
L 197.643971 159.528166 
L 197.634219 159.528852 
L 197.619761 159.525285 
L 197.59156 159.528895 
L 197.58369 159.531506 
L 197.552135 159.542992 
L 197.523049 159.554067 
L 197.45572 159.561745 
L 197.441092 159.574208 
L 197.433293 159.584497 
L 197.412367 159.627971 
" style="fill:none;stroke:#ffc0cb;"/>
    <path clip-path="url(#p151f88fb9c)" d="M 197.854259 159.683113 
L 197.895001 159.693028 
L 197.908249 159.693134 
L 197.93352 159.701485 
L 197.971381 159.692879 
L 198.014133 159.700975 
L 198.063479 159.70135 
L 198.101284 159.679009 
L 198.105657 159.67138 
L 198.108913 159.658429 
L 198.11064 159.651855 
L 198.084894 159.638423 
L 198.034818 159.633137 
L 197.988472 159.63107 
L 197.957688 159.623236 
L 197.916387 159.622606 
L 197.89055 159.620158 
L 197.857855 159.646738 
L 197.854259 159.683113 
" style="fill:none;stroke:#ffc0cb;"/>
    <path clip-path="url(#p151f88fb9c)" d="M 198.10512 159.759706 
L 198.105353 159.761305 
L 198.118311 159.763195 
L 198.127992 159.767328 
L 198.118927 159.76776 
L 198.10749 159.767498 
L 198.107873 159.769125 
L 198.119542 159.769359 
L 198.129981 159.768835 
L 198.125947 159.771977 
L 198.116556 159.774971 
L 198.118509 159.776075 
L 198.129365 159.773513 
L 198.133066 159.768864 
L 198.14659 159.769798 
L 198.161161 159.774914 
L 198.166193 159.799733 
L 198.16879 159.805529 
L 198.179101 159.812464 
L 198.192575 159.817524 
L 198.205675 159.820489 
L 198.222206 159.820758 
L 198.234053 159.824735 
L 198.24677 159.826596 
L 198.262424 159.823631 
L 198.279097 159.826151 
L 198.291941 159.831246 
L 198.303979 159.839979 
L 198.315479 159.845895 
L 198.327326 159.855236 
L 198.335506 159.864677 
L 198.338825 159.871648 
L 198.351543 159.876708 
L 198.352873 159.87508 
L 198.383197 159.874188 
L 198.401279 159.861768 
L 198.405872 159.839483 
L 198.390621 159.82281 
L 198.362837 159.812061 
L 198.317489 159.794652 
L 198.290137 159.795869 
L 198.261575 159.78456 
L 198.240443 159.776832 
L 198.216205 159.770201 
L 198.163482 159.765382 
L 198.16448 159.773867 
L 198.16235 159.772437 
L 198.147828 159.768078 
L 198.133646 159.767059 
L 198.118311 159.761773 
L 198.10512 159.759706 
" style="fill:none;stroke:#ffc0cb;"/>
   </g>
   <g id="matplotlib.axis_1">
    <g id="xtick_1">
     <g id="line2d_1">
      <defs>
       <path d="M 0 0 
L 0 3.5 
" id="ma1e8034391" style="stroke:#000000;stroke-width:0.8;"/>
      </defs>
      <g>
       <use style="stroke:#000000;stroke-width:0.8;" x="107.080713" xlink:href="#ma1e8034391" y="228.910912"/>
      </g>
     </g>
     <g id="text_1">
      <!-- 11 -->
      <defs>
       <path d="M 12.40625 8.296875 
L 28.515625 8.296875 
L 28.515625 63.921875 
L 10.984375 60.40625 
L 10.984375 69.390625 
L 28.421875 72.90625 
L 38.28125 72.90625 
L 38.28125 8.296875 
L 54.390625 8.296875 
L 54.390625 0 
L 12.40625 0 
z
" id="DejaVuSans-49"/>
      </defs>
      <g transform="translate(100.718213 243.50935)scale(0.1 -0.1)">
       <use xlink:href="#DejaVuSans-49"/>
       <use x="63.623047" xlink:href="#DejaVuSans-49"/>
      </g>
     </g>
    </g>
    <g id="xtick_2">
     <g id="line2d_2">
      <g>
       <use style="stroke:#000000;stroke-width:0.8;" x="177.849203" xlink:href="#ma1e8034391" y="228.910912"/>
      </g>
     </g>
     <g id="text_2">
      <!-- 12 -->
      <defs>
       <path d="M 19.1875 8.296875 
L 53.609375 8.296875 
L 53.609375 0 
L 7.328125 0 
L 7.328125 8.296875 
Q 12.9375 14.109375 22.625 23.890625 
Q 32.328125 33.6875 34.8125 36.53125 
Q 39.546875 41.84375 41.421875 45.53125 
Q 43.3125 49.21875 43.3125 52.78125 
Q 43.3125 58.59375 39.234375 62.25 
Q 35.15625 65.921875 28.609375 65.921875 
Q 23.96875 65.921875 18.8125 64.3125 
Q 13.671875 62.703125 7.8125 59.421875 
L 7.8125 69.390625 
Q 13.765625 71.78125 18.9375 73 
Q 24.125 74.21875 28.421875 74.21875 
Q 39.75 74.21875 46.484375 68.546875 
Q 53.21875 62.890625 53.21875 53.421875 
Q 53.21875 48.921875 51.53125 44.890625 
Q 49.859375 40.875 45.40625 35.40625 
Q 44.1875 33.984375 37.640625 27.21875 
Q 31.109375 20.453125 19.1875 8.296875 
z
" id="DejaVuSans-50"/>
      </defs>
      <g transform="translate(171.486703 243.50935)scale(0.1 -0.1)">
       <use xlink:href="#DejaVuSans-49"/>
       <use x="63.623047" xlink:href="#DejaVuSans-50"/>
      </g>
     </g>
    </g>
    <g id="xtick_3">
     <g id="line2d_3">
      <g>
       <use style="stroke:#000000;stroke-width:0.8;" x="248.617693" xlink:href="#ma1e8034391" y="228.910912"/>
      </g>
     </g>
     <g id="text_3">
      <!-- 13 -->
      <defs>
       <path d="M 40.578125 39.3125 
Q 47.65625 37.796875 51.625 33 
Q 55.609375 28.21875 55.609375 21.1875 
Q 55.609375 10.40625 48.1875 4.484375 
Q 40.765625 -1.421875 27.09375 -1.421875 
Q 22.515625 -1.421875 17.65625 -0.515625 
Q 12.796875 0.390625 7.625 2.203125 
L 7.625 11.71875 
Q 11.71875 9.328125 16.59375 8.109375 
Q 21.484375 6.890625 26.8125 6.890625 
Q 36.078125 6.890625 40.9375 10.546875 
Q 45.796875 14.203125 45.796875 21.1875 
Q 45.796875 27.640625 41.28125 31.265625 
Q 36.765625 34.90625 28.71875 34.90625 
L 20.21875 34.90625 
L 20.21875 43.015625 
L 29.109375 43.015625 
Q 36.375 43.015625 40.234375 45.921875 
Q 44.09375 48.828125 44.09375 54.296875 
Q 44.09375 59.90625 40.109375 62.90625 
Q 36.140625 65.921875 28.71875 65.921875 
Q 24.65625 65.921875 20.015625 65.03125 
Q 15.375 64.15625 9.8125 62.3125 
L 9.8125 71.09375 
Q 15.4375 72.65625 20.34375 73.4375 
Q 25.25 74.21875 29.59375 74.21875 
Q 40.828125 74.21875 47.359375 69.109375 
Q 53.90625 64.015625 53.90625 55.328125 
Q 53.90625 49.265625 50.4375 45.09375 
Q 46.96875 40.921875 40.578125 39.3125 
z
" id="DejaVuSans-51"/>
      </defs>
      <g transform="translate(242.255193 243.50935)scale(0.1 -0.1)">
       <use xlink:href="#DejaVuSans-49"/>
       <use x="63.623047" xlink:href="#DejaVuSans-51"/>
      </g>
     </g>
    </g>
    <g id="xtick_4">
     <g id="line2d_4">
      <g>
       <use style="stroke:#000000;stroke-width:0.8;" x="319.386183" xlink:href="#ma1e8034391" y="228.910912"/>
      </g>
     </g>
     <g id="text_4">
      <!-- 14 -->
      <defs>
       <path d="M 37.796875 64.3125 
L 12.890625 25.390625 
L 37.796875 25.390625 
z
M 35.203125 72.90625 
L 47.609375 72.90625 
L 47.609375 25.390625 
L 58.015625 25.390625 
L 58.015625 17.1875 
L 47.609375 17.1875 
L 47.609375 0 
L 37.796875 0 
L 37.796875 17.1875 
L 4.890625 17.1875 
L 4.890625 26.703125 
z
" id="DejaVuSans-52"/>
      </defs>
      <g transform="translate(313.023683 243.50935)scale(0.1 -0.1)">
       <use xlink:href="#DejaVuSans-49"/>
       <use x="63.623047" xlink:href="#DejaVuSans-52"/>
      </g>
     </g>
    </g>
   </g>
   <g id="matplotlib.axis_2">
    <g id="ytick_1">
     <g id="line2d_5">
      <defs>
       <path d="M 0 0 
L -3.5 0 
" id="m119580d76f" style="stroke:#000000;stroke-width:0.8;"/>
      </defs>
      <g>
       <use style="stroke:#000000;stroke-width:0.8;" x="54" xlink:href="#m119580d76f" y="211.152456"/>
      </g>
     </g>
     <g id="text_5">
      <!-- 51.5 -->
      <defs>
       <path d="M 10.796875 72.90625 
L 49.515625 72.90625 
L 49.515625 64.59375 
L 19.828125 64.59375 
L 19.828125 46.734375 
Q 21.96875 47.46875 24.109375 47.828125 
Q 26.265625 48.1875 28.421875 48.1875 
Q 40.625 48.1875 47.75 41.5 
Q 54.890625 34.8125 54.890625 23.390625 
Q 54.890625 11.625 47.5625 5.09375 
Q 40.234375 -1.421875 26.90625 -1.421875 
Q 22.3125 -1.421875 17.546875 -0.640625 
Q 12.796875 0.140625 7.71875 1.703125 
L 7.71875 11.625 
Q 12.109375 9.234375 16.796875 8.0625 
Q 21.484375 6.890625 26.703125 6.890625 
Q 35.15625 6.890625 40.078125 11.328125 
Q 45.015625 15.765625 45.015625 23.390625 
Q 45.015625 31 40.078125 35.4375 
Q 35.15625 39.890625 26.703125 39.890625 
Q 22.75 39.890625 18.8125 39.015625 
Q 14.890625 38.140625 10.796875 36.28125 
z
" id="DejaVuSans-53"/>
       <path d="M 10.6875 12.40625 
L 21 12.40625 
L 21 0 
L 10.6875 0 
z
" id="DejaVuSans-46"/>
      </defs>
      <g transform="translate(24.734375 214.951675)scale(0.1 -0.1)">
       <use xlink:href="#DejaVuSans-53"/>
       <use x="63.623047" xlink:href="#DejaVuSans-49"/>
       <use x="127.246094" xlink:href="#DejaVuSans-46"/>
       <use x="159.033203" xlink:href="#DejaVuSans-53"/>
      </g>
     </g>
    </g>
    <g id="ytick_2">
     <g id="line2d_6">
      <g>
       <use style="stroke:#000000;stroke-width:0.8;" x="54" xlink:href="#m119580d76f" y="175.768211"/>
      </g>
     </g>
     <g id="text_6">
      <!-- 52.0 -->
      <defs>
       <path d="M 31.78125 66.40625 
Q 24.171875 66.40625 20.328125 58.90625 
Q 16.5 51.421875 16.5 36.375 
Q 16.5 21.390625 20.328125 13.890625 
Q 24.171875 6.390625 31.78125 6.390625 
Q 39.453125 6.390625 43.28125 13.890625 
Q 47.125 21.390625 47.125 36.375 
Q 47.125 51.421875 43.28125 58.90625 
Q 39.453125 66.40625 31.78125 66.40625 
z
M 31.78125 74.21875 
Q 44.046875 74.21875 50.515625 64.515625 
Q 56.984375 54.828125 56.984375 36.375 
Q 56.984375 17.96875 50.515625 8.265625 
Q 44.046875 -1.421875 31.78125 -1.421875 
Q 19.53125 -1.421875 13.0625 8.265625 
Q 6.59375 17.96875 6.59375 36.375 
Q 6.59375 54.828125 13.0625 64.515625 
Q 19.53125 74.21875 31.78125 74.21875 
z
" id="DejaVuSans-48"/>
      </defs>
      <g transform="translate(24.734375 179.56743)scale(0.1 -0.1)">
       <use xlink:href="#DejaVuSans-53"/>
       <use x="63.623047" xlink:href="#DejaVuSans-50"/>
       <use x="127.246094" xlink:href="#DejaVuSans-46"/>
       <use x="159.033203" xlink:href="#DejaVuSans-48"/>
      </g>
     </g>
    </g>
    <g id="ytick_3">
     <g id="line2d_7">
      <g>
       <use style="stroke:#000000;stroke-width:0.8;" x="54" xlink:href="#m119580d76f" y="140.383966"/>
      </g>
     </g>
     <g id="text_7">
      <!-- 52.5 -->
      <g transform="translate(24.734375 144.183185)scale(0.1 -0.1)">
       <use xlink:href="#DejaVuSans-53"/>
       <use x="63.623047" xlink:href="#DejaVuSans-50"/>
       <use x="127.246094" xlink:href="#DejaVuSans-46"/>
       <use x="159.033203" xlink:href="#DejaVuSans-53"/>
      </g>
     </g>
    </g>
    <g id="ytick_4">
     <g id="line2d_8">
      <g>
       <use style="stroke:#000000;stroke-width:0.8;" x="54" xlink:href="#m119580d76f" y="104.999721"/>
      </g>
     </g>
     <g id="text_8">
      <!-- 53.0 -->
      <g transform="translate(24.734375 108.79894)scale(0.1 -0.1)">
       <use xlink:href="#DejaVuSans-53"/>
       <use x="63.623047" xlink:href="#DejaVuSans-51"/>
       <use x="127.246094" xlink:href="#DejaVuSans-46"/>
       <use x="159.033203" xlink:href="#DejaVuSans-48"/>
      </g>
     </g>
    </g>
    <g id="ytick_5">
     <g id="line2d_9">
      <g>
       <use style="stroke:#000000;stroke-width:0.8;" x="54" xlink:href="#m119580d76f" y="69.615476"/>
      </g>
     </g>
     <g id="text_9">
      <!-- 53.5 -->
      <g transform="translate(24.734375 73.414695)scale(0.1 -0.1)">
       <use xlink:href="#DejaVuSans-53"/>
       <use x="63.623047" xlink:href="#DejaVuSans-51"/>
       <use x="127.246094" xlink:href="#DejaVuSans-46"/>
       <use x="159.033203" xlink:href="#DejaVuSans-53"/>
      </g>
     </g>
    </g>
   </g>
   <g id="patch_3">
    <path d="M 54 228.910912 
L 54 57.649088 
" style="fill:none;stroke:#000000;stroke-linecap:square;stroke-linejoin:miter;stroke-width:0.8;"/>
   </g>
   <g id="patch_4">
    <path d="M 388.8 228.910912 
L 388.8 57.649088 
" style="fill:none;stroke:#000000;stroke-linecap:square;stroke-linejoin:miter;stroke-width:0.8;"/>
   </g>
   <g id="patch_5">
    <path d="M 54 228.910912 
L 388.8 228.910912 
" style="fill:none;stroke:#000000;stroke-linecap:square;stroke-linejoin:miter;stroke-width:0.8;"/>
   </g>
   <g id="patch_6">
    <path d="M 54 57.649088 
L 388.8 57.649088 
" style="fill:none;stroke:#000000;stroke-linecap:square;stroke-linejoin:miter;stroke-width:0.8;"/>
   </g>
  </g>
 </g>
 <defs>
  <clipPath id="p151f88fb9c">
   <rect height="171.261824" width="334.8" x="54" y="57.649088"/>
  </clipPath>
 </defs>
</svg>
