<?xml version="1.0" encoding="utf-8" standalone="no"?>
<!DOCTYPE svg PUBLIC "-//W3C//DTD SVG 1.1//EN"
  "http://www.w3.org/Graphics/SVG/1.1/DTD/svg11.dtd">
<!-- Created with matplotlib (https://matplotlib.org/) -->
<svg height="288pt" version="1.1" viewBox="0 0 432 288" width="432pt" xmlns="http://www.w3.org/2000/svg" xmlns:xlink="http://www.w3.org/1999/xlink">
 <defs>
  <style type="text/css">
*{stroke-linecap:butt;stroke-linejoin:round;}
  </style>
 </defs>
 <g id="figure_1">
  <g id="patch_1">
   <path d="M 0 288 
L 432 288 
L 432 0 
L 0 0 
z
" style="fill:#ffffff;"/>
  </g>
  <g id="axes_1">
   <g id="patch_2">
    <path d="M 137.628572 252 
L 305.171428 252 
L 305.171428 34.56 
L 137.628572 34.56 
z
" style="fill:#ffffff;"/>
   </g>
   <g id="PatchCollection_1">
    <path clip-path="url(#p3da8405b5b)" d="M 190.36307 116.795005 
L 192.222208 111.299245 
L 195.716899 101.042538 
L 199.234703 90.78827 
L 202.780322 80.541463 
L 206.348917 70.301735 
L 209.928341 60.067108 
L 213.52566 49.84084 
L 214.345389 47.521201 
L 179.747028 45.679555 
L 176.679091 116.075746 
L 190.36307 116.795005 
" style="fill:none;stroke:#0000ff;stroke-opacity:0.2;"/>
    <path clip-path="url(#p3da8405b5b)" d="M 177.654805 116.076817 
L 190.738392 115.685523 
L 192.222208 111.299245 
L 195.716899 101.042538 
L 199.234703 90.78827 
L 202.780322 80.541463 
L 206.348917 70.301735 
L 209.928341 60.067108 
L 213.52566 49.84084 
L 215.432958 44.443636 
L 174.586257 45.680665 
L 177.654805 116.076817 
" style="fill:none;stroke:#0000ff;stroke-opacity:0.2;"/>
    <path clip-path="url(#p3da8405b5b)" d="M 174.714119 163.81909 
L 175.126436 162.559007 
L 178.493864 152.308477 
L 181.886096 142.056641 
L 185.308964 131.805355 
L 188.753445 121.553185 
L 192.222208 111.299245 
L 192.466238 110.583033 
L 176.946696 109.766355 
L 174.714119 163.81909 
" style="fill:none;stroke:#0000ff;stroke-opacity:0.2;"/>
   </g>
   <g id="PatchCollection_2">
    <path clip-path="url(#p3da8405b5b)" d="M 145.244156 116.190832 
L 145.380082 116.583283 
L 145.456064 117.842178 
L 145.988717 118.494439 
L 146.721449 119.098265 
L 147.26735 119.493159 
L 147.609443 120.052893 
L 148.251291 120.877881 
L 148.630348 121.023957 
L 149.097647 120.973215 
L 151.588014 119.644964 
L 152.359224 119.523937 
L 152.915793 119.315583 
L 153.346264 119.337426 
L 153.82067 119.577737 
L 154.579037 120.39416 
L 155.769771 121.4807 
L 156.329652 121.584984 
L 156.822939 121.437886 
L 157.405295 121.149291 
L 157.726719 121.302917 
L 158.322289 122.019106 
L 159.202528 122.386993 
L 159.67434 122.350693 
L 160.770652 121.930536 
L 161.248741 122.010599 
L 161.568847 122.297194 
L 161.5663 122.58509 
L 161.183222 123.052633 
L 160.893656 123.509661 
L 160.908058 123.976404 
L 161.208269 124.345505 
L 161.705939 124.53361 
L 162.094801 124.492025 
L 162.951821 124.244636 
L 163.140335 124.362619 
L 163.408109 124.791706 
L 163.422415 125.245991 
L 163.533781 126.145177 
L 163.777391 126.396938 
L 164.249839 126.516629 
L 164.821171 126.154892 
L 164.970872 126.042186 
L 165.651424 125.722948 
L 166.235899 125.855853 
L 166.677951 126.06695 
L 167.127546 126.5493 
L 167.820341 127.622362 
L 168.022939 127.773766 
L 168.970007 127.922771 
L 169.873683 127.976849 
L 170.321576 128.228552 
L 170.577542 128.53294 
L 170.56771 129.052804 
L 170.315321 129.413041 
L 169.560241 130.299656 
L 169.498669 130.648965 
L 169.751402 131.1675 
L 170.060644 131.358511 
L 170.613239 131.39896 
L 171.656209 131.434974 
L 171.940491 131.733998 
L 172.436698 132.362088 
L 172.945336 132.583192 
L 173.775188 132.645669 
L 174.625627 132.800988 
L 175.018511 133.039856 
L 175.505126 133.497478 
L 175.477972 133.395008 
L 175.478934 133.370358 
L 175.570219 133.439793 
L 176.261012 133.748724 
L 176.598818 133.717474 
L 176.629876 133.63519 
L 176.806578 133.370908 
L 177.085568 133.34343 
L 177.434977 133.315709 
L 177.563021 132.957365 
L 177.583381 132.962507 
L 178.286996 132.800331 
L 178.430481 132.903387 
L 179.288724 132.9873 
L 179.296554 133.034392 
L 179.351257 132.995071 
L 179.663076 132.87893 
L 180.074401 132.998007 
L 180.071681 133.207496 
L 180.099888 133.209846 
L 180.401209 133.109841 
L 180.549156 133.055549 
L 180.733675 133.335816 
L 180.802349 133.709632 
L 181.34379 133.661561 
L 181.75676 133.694425 
L 182.089282 133.778259 
L 182.335699 132.926187 
L 182.63971 132.45613 
L 182.639 132.459801 
L 182.782539 132.510336 
L 182.424146 133.488078 
L 182.471451 133.859901 
L 182.980793 134.497326 
L 182.574561 135.349328 
L 182.747229 135.327971 
L 183.306709 135.080632 
L 184.694236 134.570897 
L 184.772921 134.483534 
L 185.433979 133.860265 
L 185.654017 133.650247 
L 185.756274 133.629954 
L 185.760992 133.650761 
L 186.001028 134.335686 
L 186.255092 134.484784 
L 186.253412 134.552376 
L 186.288526 134.595496 
L 186.321212 134.756451 
L 186.339892 134.750158 
L 186.555169 134.703773 
L 186.754481 134.506633 
L 187.089711 134.698495 
L 187.372783 135.046418 
L 187.334818 135.169452 
L 187.275117 135.570538 
L 187.408758 135.842991 
L 187.538569 136.076259 
L 187.563691 136.613129 
L 187.9942 138.186326 
L 188.404315 138.84293 
L 188.168043 138.932415 
L 188.314789 139.298545 
L 187.968161 139.500727 
L 187.934626 139.95727 
L 187.622529 140.072261 
L 186.75674 139.925106 
L 186.907868 140.126189 
L 186.8158 141.04936 
L 186.430119 141.18963 
L 186.544662 141.78642 
L 186.416092 141.766785 
L 186.221684 141.816627 
L 186.139004 142.016031 
L 186.335575 142.581165 
L 186.694581 142.667578 
L 186.743757 142.919331 
L 186.720481 143.304568 
L 186.81422 143.537536 
L 186.733412 143.734297 
L 186.605302 143.781154 
L 185.93429 144.318681 
L 185.938982 144.317874 
L 186.089597 144.360159 
L 186.151756 144.443208 
L 186.0329 144.585256 
L 186.153523 144.556092 
L 185.922931 144.77196 
L 185.921038 144.764324 
L 185.7907 144.883608 
L 185.848921 145.107276 
L 186.184951 144.964221 
L 186.346442 145.208617 
L 186.162846 145.535527 
L 186.393573 145.691188 
L 186.635176 145.771616 
L 186.766206 145.920378 
L 186.930787 146.154917 
L 186.78701 146.230694 
L 186.643629 146.482448 
L 186.826141 147.120866 
L 187.029797 147.175644 
L 187.302907 147.139145 
L 187.294463 147.219779 
L 187.11444 147.449747 
L 187.084723 147.619801 
L 187.317274 147.674001 
L 187.419321 147.816484 
L 187.52402 148.23327 
L 187.583864 148.486538 
L 187.410848 149.401124 
L 187.536158 150.192811 
L 187.479344 150.528899 
L 187.240891 150.627283 
L 187.237066 151.352108 
L 187.489215 151.352008 
L 187.284706 151.458192 
L 186.425284 151.699288 
L 186.158272 151.876621 
L 185.884431 152.144238 
L 185.518326 152.047468 
L 184.445591 151.517777 
L 184.480135 152.33225 
L 184.579954 152.291972 
L 184.810376 152.225316 
L 184.729607 152.309157 
L 184.586352 152.832449 
L 184.653708 152.991304 
L 184.824944 152.996054 
L 184.72787 153.801148 
L 184.92646 155.193605 
L 185.080178 155.249569 
L 185.028978 155.312511 
L 183.996262 156.624969 
L 183.946176 156.872822 
L 183.617044 157.791544 
L 183.416565 158.028883 
L 183.408413 158.617688 
L 183.523087 158.505382 
L 183.966214 158.433755 
L 184.07882 158.158388 
L 184.745245 157.860064 
L 185.102797 158.204566 
L 185.394426 158.320378 
L 185.350363 158.395563 
L 184.497204 159.727735 
L 184.668035 160.226856 
L 185.156683 160.790968 
L 185.217419 160.927795 
L 185.287334 160.874139 
L 185.436934 160.698613 
L 185.852746 160.809175 
L 186.026206 160.795483 
L 186.256067 160.605371 
L 186.417123 160.366325 
L 186.42806 160.410103 
L 186.793325 160.600243 
L 186.831891 160.605714 
L 186.910423 160.382168 
L 187.087095 160.156685 
L 186.967912 159.713957 
L 187.308495 159.299656 
L 187.421441 158.914412 
L 187.678077 159.038296 
L 187.878774 159.188722 
L 187.933865 159.285513 
L 188.384478 159.309963 
L 188.414156 159.445411 
L 188.418843 159.673571 
L 188.402413 159.842019 
L 188.462879 160.224499 
L 188.56145 160.377361 
L 188.768261 160.512501 
L 188.903678 160.550851 
L 188.933983 160.557008 
L 188.869042 160.622542 
L 188.586253 160.959923 
L 188.680754 160.98543 
L 188.966908 161.196434 
L 189.011375 161.514957 
L 189.042868 161.50615 
L 189.509262 161.346224 
L 189.659781 161.153591 
L 190.019048 161.095542 
L 190.050903 160.956844 
L 190.236714 160.944059 
L 190.712396 161.274004 
L 191.413957 160.880831 
L 191.551815 160.887403 
L 191.54694 160.948109 
L 191.445293 161.246219 
L 191.033455 161.304496 
L 190.844205 161.296361 
L 190.652609 161.583828 
L 190.683201 161.791724 
L 190.66715 162.183818 
L 190.715321 162.188961 
L 190.839169 162.272595 
L 191.036514 162.354366 
L 191.355749 162.176168 
L 191.478636 162.09282 
L 191.501611 162.117891 
L 191.57668 162.174026 
L 191.530293 162.242374 
L 191.33787 162.622754 
L 191.161855 163.291958 
L 190.89362 163.456227 
L 190.897773 163.584125 
L 190.98094 163.828821 
L 190.931733 164.029554 
L 190.632854 164.061603 
L 190.41719 164.159888 
L 190.473317 164.530103 
L 190.571361 164.575388 
L 190.507735 164.700186 
L 190.332773 165.050424 
L 190.236727 165.39109 
L 189.765942 165.573973 
L 189.854667 165.705156 
L 190.118472 166.057765 
L 190.057966 166.073044 
L 189.773563 166.219627 
L 189.148567 166.806454 
L 189.20748 166.918859 
L 189.854563 167.20344 
L 190.079275 167.205555 
L 190.206979 167.113442 
L 190.258045 167.192112 
L 190.309711 167.564092 
L 190.208115 168.157504 
L 190.041789 168.330723 
L 189.945086 168.917035 
L 190.096984 169.167567 
L 190.522071 169.356786 
L 190.43456 169.446098 
L 190.249784 169.828028 
L 189.769898 169.907056 
L 189.550443 170.060182 
L 189.625128 170.420598 
L 190.167147 171.111508 
L 190.229102 171.374818 
L 190.588857 171.719727 
L 190.124856 172.525722 
L 189.758134 173.299267 
L 189.49291 173.501621 
L 189.278235 173.97335 
L 188.910981 174.808051 
L 188.637919 175.317679 
L 188.566507 175.545382 
L 188.104047 176.994546 
L 188.183986 177.548694 
L 188.232957 177.697985 
L 187.860855 178.488837 
L 188.32735 178.657534 
L 188.594523 178.719462 
L 188.407014 178.961486 
L 188.497519 179.000922 
L 188.721035 179.02795 
L 188.737504 178.962972 
L 188.968122 179.057056 
L 188.843978 179.096492 
L 188.946021 179.16469 
L 189.136485 179.449786 
L 188.984238 179.476093 
L 188.681468 179.473914 
L 188.672872 179.409901 
L 188.574798 179.511757 
L 188.590431 179.521456 
L 188.76864 179.620212 
L 188.933595 179.544335 
L 189.6186 179.711289 
L 189.699905 179.910136 
L 190.112309 179.985678 
L 189.942775 180.13239 
L 189.598083 180.599111 
L 189.461483 180.740359 
L 189.502925 180.74708 
L 189.417168 180.849964 
L 189.139101 180.889928 
L 188.730692 180.924927 
L 188.441244 180.910906 
L 187.899482 181.436655 
L 187.965915 181.578532 
L 187.978071 181.574403 
L 188.163804 181.634024 
L 188.210404 181.631452 
L 188.196855 181.716329 
L 187.960979 182.198315 
L 187.955583 182.196401 
L 187.714153 182.478775 
L 187.824131 183.041095 
L 187.954708 183.214392 
L 187.86482 183.260055 
L 187.61893 183.303719 
L 187.11427 183.033452 
L 186.58274 184.151413 
L 186.813746 184.492001 
L 187.350312 184.707662 
L 187.264058 185.273039 
L 187.279091 185.274096 
L 188.232083 186.665446 
L 188.714867 187.008676 
L 188.834355 187.387106 
L 188.917792 188.001668 
L 189.02656 188.491231 
L 189.240339 188.929132 
L 189.659816 188.971545 
L 191.090913 190.037636 
L 191.33928 190.931336 
L 191.740856 191.667882 
L 192.237407 192.028648 
L 192.368484 192.165839 
L 192.837346 193.008997 
L 194.030575 193.224865 
L 194.13271 193.221994 
L 194.643262 193.895212 
L 195.093531 194.337148 
L 195.519514 194.516409 
L 195.917212 195.045065 
L 196.113517 195.127036 
L 196.747156 195.147457 
L 196.824657 194.919125 
L 196.953197 194.343984 
L 197.407457 193.852748 
L 198.102532 193.966332 
L 198.180791 194.607387 
L 198.30033 195.115564 
L 198.483374 195.256862 
L 199.02155 195.758719 
L 199.523245 195.88591 
L 200.500231 196.12677 
L 200.519934 196.365209 
L 200.686008 197.133012 
L 200.652317 197.363951 
L 200.76061 197.415214 
L 201.57966 197.492663 
L 203.829908 197.612147 
L 203.955741 197.598126 
L 203.901751 196.928701 
L 205.033795 196.752646 
L 205.24354 196.642584 
L 205.40941 195.755783 
L 205.713891 195.418588 
L 206.36459 195.443938 
L 206.538259 195.642878 
L 206.741706 195.980822 
L 206.956739 196.117535 
L 207.974436 196.300553 
L 208.153641 196.354295 
L 208.100943 196.457572 
L 208.21069 196.606834 
L 209.180194 197.176161 
L 209.210077 197.122983 
L 209.445209 197.098398 
L 209.814969 197.248517 
L 210.142909 197.411993 
L 210.300422 197.656154 
L 210.556593 197.805494 
L 210.846754 197.867993 
L 210.985696 198.063754 
L 210.958708 198.840528 
L 211.944685 199.039861 
L 212.998889 198.940434 
L 213.440162 198.730565 
L 213.927281 198.651495 
L 213.928718 198.657209 
L 214.279185 200.461289 
L 214.368998 200.981423 
L 215.61942 201.039001 
L 215.86363 200.990995 
L 215.865541 201.025937 
L 215.99251 201.453123 
L 216.353422 201.477437 
L 217.000558 201.246762 
L 217.199927 200.666657 
L 217.508664 200.757348 
L 218.299616 200.923553 
L 218.980825 201.061665 
L 218.953745 201.16907 
L 218.80004 201.85561 
L 218.887782 201.868438 
L 219.677233 202.090435 
L 219.530435 203.407329 
L 219.57861 203.381743 
L 220.122118 203.191782 
L 220.770119 203.253188 
L 221.352293 203.368379 
L 221.656591 203.718924 
L 221.656695 203.546969 
L 221.689576 203.245095 
L 221.769845 203.275338 
L 222.692654 203.555555 
L 222.801543 204.069297 
L 222.331781 204.133367 
L 222.337891 204.890591 
L 222.334483 204.890106 
L 221.87383 204.832264 
L 221.983372 205.048346 
L 222.205643 205.292471 
L 222.525461 205.593302 
L 223.499209 205.701657 
L 224.101929 205.772878 
L 224.201814 205.809756 
L 224.207681 205.762078 
L 224.42482 205.35657 
L 225.119082 205.355384 
L 225.572106 205.284664 
L 225.649154 205.273778 
L 225.730402 205.146987 
L 225.88029 205.055203 
L 225.872713 204.683387 
L 225.990621 204.685902 
L 226.463217 204.730501 
L 226.454299 204.935798 
L 226.742167 204.936826 
L 226.796566 205.178073 
L 226.935521 205.286514 
L 227.00151 205.432061 
L 227.209301 205.45174 
L 227.279738 206.244292 
L 227.233974 206.371133 
L 226.072674 206.629557 
L 226.241995 207.332546 
L 226.531643 208.021636 
L 226.678741 208.344773 
L 226.753609 208.417051 
L 227.018249 209.215117 
L 227.217501 209.247809 
L 227.154332 209.403514 
L 227.436398 209.681074 
L 227.693461 210.57581 
L 227.606302 210.813092 
L 227.733089 211.2297 
L 227.666164 211.479603 
L 228.124558 211.542067 
L 228.076144 211.850162 
L 227.977717 211.831348 
L 227.643092 211.848498 
L 227.640507 211.872012 
L 227.717499 212.045573 
L 227.629948 212.472545 
L 227.114295 213.01158 
L 227.290245 213.073143 
L 227.448637 213.217626 
L 227.388458 213.196712 
L 227.208239 213.526272 
L 227.304494 213.577764 
L 227.827629 213.958236 
L 227.762523 214.154733 
L 227.491172 214.353694 
L 227.580228 214.502385 
L 227.574613 214.546913 
L 227.497539 214.470878 
L 227.471534 214.478542 
L 227.348857 214.61014 
L 227.469162 214.656668 
L 227.989955 214.981228 
L 228.009819 215.192567 
L 227.977856 215.225467 
L 228.075682 215.237759 
L 228.081928 215.25703 
L 228.253011 215.356665 
L 228.392402 215.414378 
L 228.836299 216.643273 
L 228.398151 216.54841 
L 228.323109 216.467997 
L 228.093483 216.487647 
L 227.992066 216.474604 
L 228.096386 217.203357 
L 228.016086 217.151458 
L 227.531339 216.91469 
L 227.431254 217.140801 
L 227.689492 217.834783 
L 227.711906 218.116529 
L 227.608901 218.122536 
L 227.510948 218.138886 
L 227.628921 218.222806 
L 227.76926 218.355789 
L 227.595504 218.49313 
L 226.096207 219.5498 
L 222.917366 221.507583 
L 222.945443 221.549561 
L 224.70367 224.408996 
L 224.887845 224.412431 
L 224.989219 224.353089 
L 224.93549 224.285912 
L 224.911692 224.239741 
L 225.139146 224.146092 
L 225.278262 224.220148 
L 225.219493 224.048194 
L 225.199016 224.057144 
L 225.03218 224.116507 
L 225.10834 223.685664 
L 225.135063 223.769027 
L 225.232755 223.733513 
L 225.353169 224.077386 
L 225.538667 223.898796 
L 225.520349 223.850568 
L 225.701621 223.785755 
L 225.735212 223.637043 
L 225.948739 223.462882 
L 225.986612 223.654157 
L 226.30771 224.095965 
L 226.780789 224.722698 
L 226.959123 225.007165 
L 226.960821 225.093506 
L 227.456515 224.960587 
L 227.73768 225.474736 
L 227.418706 225.701997 
L 227.424586 226.006028 
L 227.183975 226.428086 
L 226.878646 227.100825 
L 227.036002 227.332722 
L 227.098322 227.501912 
L 227.57417 227.461912 
L 227.821457 227.86747 
L 228.779014 227.907906 
L 229.084117 229.420646 
L 229.624678 230.292219 
L 229.757227 230.315997 
L 229.730735 230.995029 
L 229.714766 231.56702 
L 229.714235 231.703132 
L 229.496278 231.75901 
L 229.580877 232.143061 
L 229.496343 232.262231 
L 229.5142 232.291423 
L 229.455458 232.359315 
L 229.283565 232.545676 
L 229.32576 232.568705 
L 229.474791 232.632782 
L 229.14098 232.890057 
L 229.04338 232.863522 
L 228.835293 232.610283 
L 228.68282 232.621161 
L 228.635428 232.626668 
L 228.730773 232.727152 
L 228.840399 233.087961 
L 228.803104 233.281151 
L 228.630227 233.96799 
L 228.771441 234.337513 
L 229.166793 234.730957 
L 229.509182 234.961996 
L 229.575894 235.197964 
L 229.447745 235.758184 
L 229.042575 236.414031 
L 229.053978 236.539086 
L 228.972951 236.476665 
L 228.768947 236.464673 
L 228.31003 236.912123 
L 228.357553 237.292503 
L 228.831333 237.417922 
L 228.939757 237.25921 
L 228.909291 236.779132 
L 228.989925 236.729562 
L 229.102414 236.614863 
L 229.535448 237.023521 
L 229.569831 237.37533 
L 229.496256 238.011534 
L 230.259027 239.559468 
L 231.177918 239.591096 
L 231.467049 239.637874 
L 231.38832 239.606195 
L 231.620458 239.636616 
L 231.626028 239.735136 
L 231.926061 239.817606 
L 232.164649 240.143044 
L 232.178014 240.280428 
L 232.396647 240.293485 
L 232.467162 239.841585 
L 232.396542 239.852292 
L 232.187946 239.841285 
L 232.178519 239.579039 
L 231.987855 239.434605 
L 232.0278 239.089968 
L 232.06429 239.119196 
L 232.232414 239.153552 
L 233.169859 239.242644 
L 233.1681 239.203445 
L 233.133778 238.422578 
L 234.071524 237.973321 
L 234.161477 237.940443 
L 234.457614 237.531185 
L 235.003563 237.301481 
L 234.939359 237.077842 
L 234.70481 236.538543 
L 234.666567 236.522172 
L 234.84679 236.53115 
L 235.208368 236.529915 
L 235.207306 236.620792 
L 235.41417 237.11422 
L 236.424464 236.849995 
L 237.049842 237.361773 
L 237.184397 237.385216 
L 237.35968 237.245404 
L 237.348486 237.227118 
L 237.02798 236.418066 
L 237.233639 236.606042 
L 237.351463 236.55155 
L 237.640781 235.976966 
L 237.702457 235.715999 
L 238.132975 235.422568 
L 238.203904 235.325362 
L 238.224886 235.343862 
L 238.520745 235.643857 
L 238.381429 235.934631 
L 238.610141 236.276833 
L 238.642374 236.373917 
L 238.952017 236.425173 
L 239.02369 236.545086 
L 239.085949 236.745554 
L 239.21727 236.773004 
L 239.291986 236.769182 
L 239.295977 236.82626 
L 239.331909 236.986329 
L 239.306466 237.005593 
L 239.313908 237.056228 
L 239.371946 237.081642 
L 239.383506 237.257239 
L 239.064636 237.651847 
L 239.199687 237.641512 
L 239.403587 237.554692 
L 239.554489 237.225797 
L 239.624817 237.218304 
L 239.639628 237.296181 
L 240.03283 237.28731 
L 240.097744 237.333581 
L 240.011748 237.136077 
L 240.115301 236.988657 
L 240.144331 237.069242 
L 240.240695 237.166526 
L 240.414063 237.604391 
L 240.855523 237.517578 
L 240.917965 237.250539 
L 240.951778 237.294617 
L 241.412767 237.869615 
L 241.356361 237.837123 
L 240.96423 237.626848 
L 240.964535 237.718125 
L 240.874808 238.085362 
L 240.843433 238.079933 
L 240.950442 238.346115 
L 241.284649 238.47502 
L 241.540223 238.464949 
L 242.158111 238.701195 
L 242.296326 238.970084 
L 242.898546 238.914799 
L 243.383194 239.010483 
L 243.559574 240.546909 
L 243.619026 240.537181 
L 244.122071 240.570838 
L 244.164114 240.95921 
L 244.315416 241.377704 
L 244.4699 241.390461 
L 244.71583 240.67535 
L 244.974412 240.641337 
L 245.525131 240.216772 
L 246.154065 240.300356 
L 246.38222 240.318563 
L 246.279524 240.479618 
L 246.46813 240.805791 
L 246.43127 240.98591 
L 246.515565 240.995117 
L 246.62183 241.023473 
L 246.616742 241.385854 
L 246.666659 241.388853 
L 246.941026 241.398418 
L 247.759175 241.313705 
L 248.700133 241.435174 
L 249.055875 241.382889 
L 249.592736 241.326462 
L 249.81993 240.922154 
L 249.926286 241.033852 
L 250.42033 241.497352 
L 250.781817 241.05048 
L 251.366423 241.603329 
L 251.822476 241.794083 
L 252.302241 241.737655 
L 252.421737 241.740934 
L 253.068036 241.908531 
L 253.416236 241.574465 
L 253.517779 241.301433 
L 253.712156 241.22107 
L 254.179847 241.362932 
L 254.160993 241.403596 
L 253.981884 241.655921 
L 253.872528 241.690777 
L 253.875531 241.770626 
L 253.859781 241.837904 
L 253.931624 241.828118 
L 253.93454 241.844182 
L 253.924795 242.116364 
L 254.040805 241.860539 
L 254.496336 241.98073 
L 254.728703 241.376589 
L 255.137974 241.282098 
L 255.525531 241.187242 
L 255.925444 241.160028 
L 256.3804 241.372675 
L 256.892654 240.894197 
L 257.107774 240.741206 
L 257.11748 240.628937 
L 257.011989 240.35297 
L 257.127486 240.404462 
L 257.530576 240.463804 
L 258.345944 240.68755 
L 258.405039 240.780963 
L 258.455173 240.761899 
L 259.186643 240.983146 
L 259.792645 240.808798 
L 259.861141 240.882647 
L 259.892125 240.860576 
L 260.223846 240.714228 
L 260.292386 240.724014 
L 260.287642 240.67445 
L 260.29965 240.400055 
L 260.659222 240.285921 
L 260.89347 240.228929 
L 261.860306 239.760329 
L 262.230367 239.402299 
L 262.536676 239.406363 
L 263.026546 239.761379 
L 262.939923 240.928161 
L 263.551717 241.068494 
L 264.251376 241.154043 
L 264.220044 241.08998 
L 264.128559 240.236586 
L 264.524594 239.909912 
L 264.581035 239.764643 
L 264.540345 239.767929 
L 264.390127 239.511247 
L 264.433858 239.49189 
L 264.886773 239.327907 
L 265.449396 239.459241 
L 265.418108 239.362749 
L 265.346043 239.073932 
L 264.945821 239.019447 
L 264.930022 238.842893 
L 265.23311 238.611561 
L 265.420619 238.591918 
L 265.959875 237.954207 
L 266.177928 237.830044 
L 266.09416 237.426951 
L 265.991085 237.329624 
L 265.895574 237.162776 
L 266.248752 237.183519 
L 266.115333 236.814853 
L 265.830429 236.725512 
L 265.864808 236.680512 
L 266.434995 236.238062 
L 266.949395 235.948088 
L 266.519751 235.397168 
L 266.609473 234.820313 
L 265.650537 233.835135 
L 265.906359 233.475426 
L 267.431744 234.030182 
L 267.549282 233.950619 
L 267.99838 233.653459 
L 268.096667 233.555804 
L 267.53821 232.842193 
L 267.437685 232.605654 
L 267.52833 232.570226 
L 267.903657 232.527727 
L 268.066275 232.424735 
L 268.448122 232.049848 
L 268.503992 231.676254 
L 268.985789 230.476544 
L 269.230609 230.447116 
L 269.43148 230.421545 
L 270.104289 230.5373 
L 270.267948 230.364825 
L 270.418649 230.409245 
L 270.292272 230.27519 
L 269.877248 229.675771 
L 269.936339 229.312248 
L 270.292168 228.907083 
L 270.490253 228.928933 
L 270.769586 229.09048 
L 273.869429 229.386104 
L 274.217345 229.703271 
L 274.894507 229.837883 
L 274.778101 229.987723 
L 275.250889 229.919339 
L 275.32261 229.756698 
L 275.640535 229.745263 
L 276.408616 229.901182 
L 278.390232 230.923409 
L 278.465727 231.523528 
L 278.623262 231.627069 
L 278.719943 231.681518 
L 279.115857 231.291003 
L 279.128792 230.998093 
L 279.15729 230.780911 
L 279.005331 230.779268 
L 279.020472 230.681213 
L 279.152368 230.540586 
L 279.728396 230.492937 
L 280.631967 229.6548 
L 280.988114 229.628115 
L 281.046552 229.634443 
L 281.029473 229.539345 
L 281.222027 229.100016 
L 281.772942 229.1785 
L 282.047314 229.39404 
L 282.229387 229.245842 
L 283.47795 228.882998 
L 283.711215 229.046959 
L 283.698271 228.913147 
L 283.745867 228.169809 
L 283.956744 228.046396 
L 284.428831 227.970147 
L 284.46683 228.100403 
L 284.539013 227.959719 
L 286.087004 227.850514 
L 286.086508 227.858685 
L 286.278056 227.978919 
L 286.366285 227.886263 
L 286.707303 228.177694 
L 287.599001 227.790043 
L 287.952193 227.629167 
L 288.026182 227.370978 
L 287.921509 226.791594 
L 288.296545 226.913821 
L 288.625037 226.806744 
L 288.871907 226.379322 
L 288.933862 226.25616 
L 288.973415 226.263824 
L 289.20399 226.26901 
L 289.531498 226.347001 
L 289.587534 226.655625 
L 289.681909 226.747459 
L 290.119721 226.785666 
L 290.294491 227.027555 
L 290.400278 227.464755 
L 290.756181 228.468083 
L 291.034443 228.432155 
L 291.531068 228.444997 
L 291.980832 228.217094 
L 292.096677 228.181423 
L 292.674977 228.16873 
L 293.137423 228.146366 
L 293.117494 228.265421 
L 293.23007 228.247493 
L 293.696956 228.34612 
L 294.136553 227.897313 
L 294.31067 227.425356 
L 294.456441 226.940092 
L 294.502897 226.663375 
L 294.377417 226.598104 
L 294.58758 226.592583 
L 294.6591 226.559119 
L 294.713608 226.608933 
L 294.985773 226.564898 
L 294.934038 226.538191 
L 294.870673 226.142819 
L 294.696304 225.883644 
L 294.544583 225.13947 
L 294.585064 225.139191 
L 295.043593 225.113177 
L 295.359299 225.449558 
L 295.58691 225.846088 
L 295.623369 225.917744 
L 295.992459 226.208703 
L 295.992246 226.186482 
L 296.127819 225.889201 
L 296.884092 225.266361 
L 296.989787 225.165141 
L 297.183028 224.859503 
L 297.405386 224.621721 
L 297.496609 224.423224 
L 297.555844 224.144014 
L 297.446036 223.531952 
L 297.225854 223.253456 
L 297.031264 222.83132 
L 297.122227 222.460397 
L 297.076528 222.195473 
L 297.040361 221.496341 
L 296.934278 221.082133 
L 297.150303 220.73351 
L 297.162934 220.467664 
L 296.991128 220.267388 
L 296.896022 219.928115 
L 296.789905 219.688105 
L 296.66119 219.441115 
L 296.331049 219.300125 
L 296.325151 219.086157 
L 296.405725 218.914188 
L 296.269146 218.580286 
L 296.104077 218.587286 
L 295.925251 218.569286 
L 295.568978 218.242463 
L 295.051327 217.737328 
L 294.492112 217.271506 
L 294.19201 217.038167 
L 294.054452 216.795371 
L 293.790774 216.40802 
L 293.651122 216.077303 
L 293.282158 215.8094 
L 293.051257 215.201181 
L 292.886188 214.562127 
L 292.916646 214.196725 
L 292.835093 213.955136 
L 293.067961 213.810396 
L 293.102353 213.631727 
L 292.882258 213.525929 
L 292.533889 213.32681 
L 292.61532 213.072386 
L 292.719862 212.877174 
L 292.449929 211.477475 
L 292.147303 210.840149 
L 291.880042 210.7504 
L 291.737571 210.509076 
L 290.998685 210.433291 
L 290.857197 210.331585 
L 290.587974 210.299679 
L 290.37869 209.861978 
L 290.260783 209.494113 
L 290.135015 209.305716 
L 289.908506 209.095626 
L 289.90565 208.831159 
L 289.925301 208.63084 
L 290.032402 208.40363 
L 289.988187 208.082763 
L 290.017378 207.779568 
L 290.267233 207.64437 
L 290.475537 207.798796 
L 290.600321 207.648356 
L 290.618993 207.177149 
L 290.667138 207.19707 
L 290.847927 207.413238 
L 290.889195 207.311632 
L 290.702508 206.972945 
L 290.670084 206.816569 
L 290.952081 206.498852 
L 291.436594 206.442924 
L 292.176354 205.875462 
L 292.312928 205.656408 
L 292.421992 205.424426 
L 292.63914 205.277078 
L 292.685318 204.918705 
L 292.836633 204.515576 
L 293.051814 204.317514 
L 293.12747 204.134396 
L 293.278785 204.157281 
L 293.5991 204.20903 
L 293.611874 204.160267 
L 293.637421 203.846793 
L 293.912537 203.76918 
L 294.134599 203.536334 
L 294.450983 203.293566 
L 294.352726 203.065734 
L 294.329146 202.852837 
L 294.931457 201.788582 
L 294.920646 201.112414 
L 295.1093 200.895675 
L 295.282912 200.812719 
L 295.518044 200.218707 
L 295.537302 199.566324 
L 295.346094 199.44349 
L 295.278299 199.370948 
L 294.985495 198.449906 
L 295.029758 197.785237 
L 295.078394 197.78623 
L 295.30389 197.705281 
L 295.426219 197.410814 
L 295.48763 197.094027 
L 295.633657 196.68774 
L 295.479278 196.307167 
L 295.316172 196.023743 
L 295.466504 195.918023 
L 295.788786 195.749776 
L 295.821702 195.596921 
L 295.877559 195.31764 
L 296.213829 194.92046 
L 296.504247 194.582266 
L 296.484101 194.225864 
L 296.796054 193.988053 
L 296.794662 193.57701 
L 296.84191 193.180752 
L 296.688362 192.973869 
L 296.683914 192.571132 
L 296.718079 192.374707 
L 297.044282 192.131782 
L 297.218765 191.891929 
L 297.226251 191.510599 
L 296.373784 190.151734 
L 295.600667 189.577107 
L 294.566845 189.193456 
L 294.034279 188.462418 
L 293.883664 187.961554 
L 293.863361 186.658081 
L 293.83908 186.041648 
L 293.967232 185.787902 
L 294.933655 184.270818 
L 294.815965 183.586172 
L 294.272614 182.929546 
L 294.077715 182.60478 
L 294.107872 182.302985 
L 294.284143 182.092359 
L 294.890293 181.516225 
L 295.1306 180.966091 
L 295.397542 179.558963 
L 295.326905 179.415408 
L 294.883195 178.863531 
L 294.639376 178.311347 
L 294.233278 177.996344 
L 292.11396 177.489102 
L 290.944447 176.932639 
L 290.133361 176.806041 
L 289.98716 176.667208 
L 289.663142 175.959126 
L 289.259551 175.676637 
L 289.229146 175.249108 
L 289.461762 174.938127 
L 289.687667 174.581497 
L 289.580253 174.235588 
L 289.368079 173.802574 
L 289.309163 173.395023 
L 289.082618 173.158119 
L 288.660839 172.921587 
L 288.659346 172.616249 
L 288.711652 172.094093 
L 288.541034 171.695371 
L 288.272982 171.194336 
L 288.291683 170.09941 
L 288.204342 169.446998 
L 287.778189 168.724902 
L 287.471824 168.040713 
L 287.57586 167.611548 
L 288.006392 166.527108 
L 287.900118 165.943188 
L 288.08092 165.455175 
L 288.574642 164.972939 
L 289.114546 164.909155 
L 289.417504 164.795806 
L 290.795155 163.042719 
L 291.041568 162.126619 
L 291.574069 161.656884 
L 291.874058 160.996394 
L 291.791369 160.6223 
L 291.515518 160.282848 
L 290.831693 159.74657 
L 290.713363 159.028096 
L 290.520918 158.255051 
L 290.725436 157.804679 
L 290.958718 157.331665 
L 291.150871 156.537906 
L 292.067787 155.609863 
L 292.001071 155.308546 
L 291.665924 155.021165 
L 291.066559 154.5896 
L 290.838339 154.226577 
L 290.571065 153.323699 
L 290.075032 152.671702 
L 289.282544 152.123353 
L 289.123577 151.920385 
L 288.298821 151.542626 
L 287.225241 150.901029 
L 286.541155 150.576134 
L 284.366293 148.916396 
L 283.957993 148.046459 
L 283.59564 147.847969 
L 283.034553 147.575902 
L 282.467491 146.473755 
L 282.159681 146.098539 
L 281.929567 145.683246 
L 279.406179 142.633043 
L 277.122989 141.438054 
L 276.424432 141.031918 
L 275.004911 139.673682 
L 274.511811 139.079112 
L 274.280954 138.876001 
L 273.696334 138.030364 
L 273.364987 137.891045 
L 270.217757 137.39461 
L 269.761221 137.00398 
L 269.584562 136.401018 
L 269.689739 135.826613 
L 270.183583 135.08341 
L 271.104999 133.731817 
L 271.143808 132.557785 
L 270.844019 131.529358 
L 270.690997 130.694664 
L 270.592327 130.436304 
L 270.405923 128.02592 
L 270.730124 127.504635 
L 271.366514 127.305217 
L 271.924519 126.580578 
L 272.193437 126.504365 
L 272.828482 126.04545 
L 273.228239 125.798233 
L 273.643015 125.708813 
L 273.803575 125.686877 
L 275.717217 124.470975 
L 275.913636 124.197401 
L 277.735937 122.540998 
L 277.929788 122.273795 
L 279.396108 121.000172 
L 279.488507 120.776175 
L 279.641407 120.550171 
L 280.322325 118.487639 
L 280.365669 117.820007 
L 280.350035 117.404763 
L 280.731482 116.737952 
L 280.819959 116.108176 
L 280.811124 115.84553 
L 280.982556 114.614049 
L 280.430822 113.773719 
L 280.32014 113.341076 
L 280.237325 112.944939 
L 280.193445 112.525017 
L 280.56613 111.122818 
L 280.726255 110.419121 
L 281.219633 110.21526 
L 281.704912 110.068984 
L 281.938751 109.752346 
L 282.243893 108.614857 
L 282.637125 108.09715 
L 282.975336 107.827797 
L 283.123792 107.45231 
L 283.20017 107.080952 
L 283.816109 106.039261 
L 283.599074 105.305479 
L 282.523788 105.029062 
L 282.148835 103.178305 
L 281.930603 102.856767 
L 282.276082 101.658557 
L 282.06441 101.356019 
L 281.732853 101.332798 
L 281.347529 101.462432 
L 280.810175 101.790098 
L 280.657241 102.282605 
L 280.446173 102.388253 
L 280.278532 102.334004 
L 279.983174 102.223113 
L 279.97631 102.32514 
L 279.995434 102.402282 
L 279.929523 102.412281 
L 279.461967 102.536694 
L 279.467024 102.561165 
L 279.299658 102.754498 
L 277.984217 102.614257 
L 277.988931 102.649649 
L 277.741695 103.535278 
L 277.317723 104.306459 
L 277.371939 104.465378 
L 277.327485 104.483064 
L 275.627556 105.15861 
L 275.772074 106.055925 
L 275.742709 106.401405 
L 275.084419 106.526518 
L 274.149667 106.629173 
L 274.035451 106.570538 
L 273.390056 106.676994 
L 272.932197 106.208808 
L 272.841278 106.303992 
L 272.77273 106.225279 
L 272.753349 106.201444 
L 272.703293 106.249993 
L 272.294715 106.247422 
L 272.003347 106.202537 
L 271.792771 106.079917 
L 270.894945 105.855385 
L 270.438827 105.947462 
L 269.910195 106.198516 
L 268.535407 106.232344 
L 268.941361 104.825194 
L 269.515465 104.175004 
L 271.161644 102.555008 
L 272.498519 101.209343 
L 273.797568 99.563019 
L 274.367803 98.367723 
L 274.81402 96.421646 
L 274.689162 94.909762 
L 274.762189 94.730551 
L 274.723902 94.709001 
L 274.010029 93.888078 
L 273.462204 94.427527 
L 273.44409 94.489397 
L 273.406077 94.524011 
L 273.104194 94.659173 
L 272.135043 94.740415 
L 271.714139 94.60356 
L 270.880774 93.961534 
L 270.706605 93.820329 
L 270.168024 93.415321 
L 269.985119 93.531769 
L 269.494827 93.425364 
L 268.587404 94.749457 
L 268.095945 94.953247 
L 267.797662 95.324106 
L 267.850424 95.481968 
L 267.790467 95.562723 
L 267.736865 95.495124 
L 267.304096 95.264271 
L 267.166625 95.287749 
L 266.56921 95.433183 
L 266.392704 95.239607 
L 266.200094 94.221001 
L 266.141865 94.245972 
L 264.49439 94.130189 
L 264.217163 93.853514 
L 262.615282 94.183466 
L 261.811469 94.172031 
L 260.580981 94.724836 
L 260.115092 94.310107 
L 260.139891 93.931313 
L 260.367759 93.728759 
L 260.352369 93.560576 
L 260.105773 93.134468 
L 260.133184 93.13584 
L 260.679456 92.814316 
L 260.485962 92.247032 
L 258.829064 91.042265 
L 259.064901 90.163179 
L 258.782865 90.017538 
L 258.732944 89.6931 
L 258.7915 89.561667 
L 258.864017 89.354884 
L 258.927195 89.08321 
L 258.9914 88.908177 
L 257.42227 88.080168 
L 256.588017 87.924835 
L 256.471842 87.903878 
L 256.536421 87.808651 
L 256.543145 87.644718 
L 255.47178 85.844331 
L 255.566268 85.246798 
L 255.609882 85.231505 
L 255.562786 85.138371 
L 255.519873 84.974038 
L 255.481329 85.012337 
L 255.37328 85.066758 
L 255.13565 85.026108 
L 254.752863 85.839989 
L 254.487822 87.206232 
L 254.663585 87.640032 
L 254.672076 88.245816 
L 254.685525 88.240437 
L 255.211823 88.523118 
L 255.301593 88.718608 
L 255.32513 88.790979 
L 255.609199 89.349548 
L 255.68307 89.251814 
L 256.06396 89.067117 
L 256.704236 89.316349 
L 255.520743 90.767112 
L 254.753359 91.034929 
L 254.566768 90.949181 
L 253.847947 90.815826 
L 253.320669 90.634586 
L 252.96803 90.186321 
L 252.840086 90.53088 
L 252.177531 90.483131 
L 252.009198 90.461974 
L 251.863414 90.453717 
L 251.616553 90.652735 
L 251.429109 90.960081 
L 250.434088 91.65612 
L 250.274063 91.706126 
L 249.171132 92.750481 
L 249.200831 92.746824 
L 249.285731 92.927814 
L 249.215586 92.936593 
L 249.108328 93.006877 
L 249.04371 93.249816 
L 248.924266 93.081212 
L 248.582904 92.972371 
L 248.292203 93.494227 
L 248.50307 93.649489 
L 248.479768 93.668967 
L 248.303362 94.069332 
L 248.255013 94.039361 
L 248.075063 94.051268 
L 248.351072 94.7553 
L 248.210049 95.056903 
L 247.744365 95.699428 
L 247.738154 95.682529 
L 247.428938 95.352591 
L 247.108519 95.488296 
L 247.080003 95.554581 
L 247.01854 95.540052 
L 246.760454 95.573216 
L 246.635118 95.695686 
L 246.155758 95.734756 
L 245.573728 95.823005 
L 245.49799 95.919096 
L 245.230195 96.314062 
L 244.807489 96.333026 
L 244.593783 96.597279 
L 244.623535 96.660428 
L 244.521601 96.663728 
L 244.460569 96.737962 
L 244.479923 96.770019 
L 244.587229 96.878667 
L 244.61158 96.865346 
L 244.890326 96.88751 
L 244.885094 97.042615 
L 244.860878 97.19692 
L 244.84363 97.379888 
L 244.77214 97.626163 
L 244.710807 97.674984 
L 244.671606 97.661248 
L 244.672146 97.74654 
L 244.697546 97.765104 
L 244.937156 97.860252 
L 244.927424 97.89118 
L 244.877034 98.05782 
L 244.500679 98.449836 
L 244.336546 98.915414 
L 243.830891 98.798988 
L 243.601617 98.676582 
L 243.288863 99.535969 
L 243.175886 99.756387 
L 243.26993 99.760594 
L 243.559335 99.841136 
L 243.509745 100.454248 
L 243.312226 100.764464 
L 243.467963 101.029196 
L 243.431017 101.049367 
L 243.385827 101.227486 
L 243.419344 101.404954 
L 243.425298 102.115165 
L 243.182724 102.189628 
L 242.914545 102.210263 
L 242.919642 102.092701 
L 242.574811 101.521124 
L 242.571551 101.560645 
L 242.612167 101.859961 
L 242.732529 102.05713 
L 242.710693 102.078472 
L 242.767625 102.219849 
L 242.696122 102.378032 
L 242.389804 102.860332 
L 242.347339 103.235869 
L 242.312769 103.376488 
L 241.56914 104.107962 
L 241.174588 104.186518 
L 241.03213 104.207646 
L 240.829309 104.25801 
L 240.743683 104.277203 
L 240.737912 104.192532 
L 240.56957 103.786639 
L 240.468219 103.599999 
L 240.208349 103.597184 
L 240.004092 103.603392 
L 239.871726 103.565264 
L 239.86391 103.537435 
L 239.729007 103.547621 
L 239.730512 103.589313 
L 239.661411 103.807553 
L 239.713082 104.032013 
L 239.754367 104.124826 
L 239.650474 104.134819 
L 239.641043 104.273838 
L 239.962358 104.443107 
L 239.922404 104.485114 
L 239.742307 104.604555 
L 239.652924 104.702467 
L 239.554824 104.678782 
L 239.489026 104.596626 
L 239.424369 104.675939 
L 239.287142 105.004113 
L 239.151468 105.398585 
L 238.895838 105.731901 
L 238.746707 105.979226 
L 238.685562 106.088703 
L 238.449285 106.334399 
L 238.340035 107.149422 
L 238.360364 107.278477 
L 238.092904 107.351148 
L 237.943603 107.311791 
L 237.935151 107.398047 
L 237.702413 107.554245 
L 237.57107 107.499853 
L 237.457846 107.232964 
L 237.471551 106.997439 
L 237.339708 107.025253 
L 236.812173 105.937255 
L 236.679176 105.449449 
L 236.250621 105.044069 
L 235.68644 105.111868 
L 235.519029 105.178031 
L 235.547911 105.390357 
L 235.478453 105.384192 
L 235.102582 105.301937 
L 233.876472 104.914235 
L 233.677695 104.846879 
L 233.674235 104.885 
L 233.260564 105.27818 
L 233.253092 105.223002 
L 233.077708 105.257394 
L 232.643638 105.999711 
L 232.330222 106.052289 
L 231.689707 106.187123 
L 231.739732 106.259979 
L 231.66435 106.432983 
L 231.484815 106.611595 
L 231.384125 107.001053 
L 231.330283 107.114594 
L 231.401029 107.275749 
L 231.495817 107.176543 
L 231.490638 107.160858 
L 231.5766 107.217721 
L 231.60905 107.31512 
L 231.142325 107.953217 
L 231.246497 107.935281 
L 231.276667 107.960602 
L 231.206465 108.030344 
L 231.190575 108.294747 
L 231.129029 108.490944 
L 231.033584 108.690498 
L 231.099099 108.806289 
L 230.773914 109.286489 
L 230.703546 109.436487 
L 230.695682 109.43343 
L 229.437901 108.879117 
L 228.583244 106.983425 
L 228.559137 107.092123 
L 228.334177 107.276927 
L 228.329072 107.273713 
L 228.261951 107.266492 
L 228.134368 107.035967 
L 227.761835 107.108459 
L 227.594717 107.221993 
L 227.288212 107.260878 
L 227.323513 106.977818 
L 227.30402 106.981318 
L 226.586364 107.655672 
L 226.385838 107.96421 
L 226.288203 107.886568 
L 226.293121 107.87449 
L 226.257611 107.826076 
L 226.239074 107.826897 
L 225.727634 107.752306 
L 225.636528 107.773405 
L 225.615981 107.75712 
L 225.528788 107.778027 
L 225.527012 107.826969 
L 225.283041 108.234277 
L 225.352355 108.973665 
L 225.274336 109.298696 
L 225.336909 109.544135 
L 224.846329 109.624948 
L 224.697233 109.439551 
L 224.490844 109.536792 
L 224.531999 109.658948 
L 224.469361 109.664455 
L 224.359941 109.712082 
L 224.423414 109.901265 
L 224.309724 109.892208 
L 224.260731 110.061806 
L 224.179622 110.450114 
L 224.173924 110.617804 
L 224.145069 110.664903 
L 224.107056 110.612568 
L 223.794894 110.474992 
L 223.721871 110.363294 
L 223.673609 110.389801 
L 223.205913 110.609769 
L 222.970616 110.654804 
L 221.951871 111.429384 
L 221.881969 111.665695 
L 221.594662 111.683652 
L 221.546874 111.658088 
L 221.5081 111.687516 
L 221.525944 111.815571 
L 221.583037 112.041903 
L 221.644648 112.073982 
L 221.570733 112.128152 
L 221.519564 112.388655 
L 220.963695 112.842241 
L 221.009908 112.923204 
L 220.953568 112.967275 
L 220.77085 112.983882 
L 220.792468 112.947132 
L 220.800311 112.841148 
L 220.192672 112.912304 
L 220.013037 113.01861 
L 219.979742 113.205093 
L 219.678886 113.265827 
L 219.446253 113.064823 
L 219.412962 113.093216 
L 219.25094 112.854755 
L 218.981186 112.218408 
L 218.257625 112.564452 
L 218.188424 112.426147 
L 218.240886 112.400312 
L 218.491686 112.152266 
L 218.941076 111.996068 
L 219.047585 111.966976 
L 218.982144 111.858571 
L 219.079208 111.679731 
L 219.398404 111.492512 
L 219.847829 111.188602 
L 219.790287 111.164767 
L 219.680214 110.85265 
L 219.695255 110.805794 
L 219.626542 110.764659 
L 218.648089 110.643947 
L 217.937541 111.044969 
L 218.025466 111.104268 
L 218.261142 111.450855 
L 218.189046 111.650538 
L 217.343082 111.529604 
L 217.225426 111.60166 
L 217.200144 111.531669 
L 217.265846 111.434527 
L 217.690563 111.124568 
L 217.572068 110.974949 
L 217.301395 110.942028 
L 217.012931 110.98617 
L 216.84005 111.033962 
L 216.637626 111.092818 
L 216.436215 111.121018 
L 216.394534 111.378178 
L 215.855069 111.61066 
L 215.74406 112.037911 
L 215.740709 112.034625 
L 215.610249 112.022911 
L 215.438361 112.094331 
L 215.058507 111.782879 
L 214.810149 111.544161 
L 214.598624 111.512847 
L 214.371509 111.14361 
L 214.267046 110.81203 
L 213.977071 110.537491 
L 213.672621 110.793666 
L 213.586307 110.832715 
L 213.401348 110.880321 
L 213.125714 110.859529 
L 213.02532 110.870314 
L 213.015132 110.891793 
L 212.833468 111.054412 
L 212.828732 110.942849 
L 212.674758 110.941471 
L 212.553847 111.196202 
L 212.540486 111.157781 
L 212.449967 110.857815 
L 212.540742 110.831679 
L 212.188569 111.086933 
L 211.968466 111.191067 
L 211.98161 111.213423 
L 211.998405 111.264344 
L 211.972601 111.290201 
L 211.340141 111.451827 
L 211.210857 111.526176 
L 210.978419 111.432249 
L 210.803693 111.460991 
L 210.409551 111.382349 
L 209.924542 110.885807 
L 209.687378 110.767545 
L 209.358646 110.623125 
L 209.397965 110.597376 
L 209.912317 109.933329 
L 210.10904 108.873388 
L 209.691909 108.817746 
L 209.542286 108.95053 
L 208.962955 109.030386 
L 208.702515 109.050557 
L 208.57226 109.0392 
L 208.55644 108.979615 
L 208.160295 108.83961 
L 207.238545 108.745205 
L 206.514539 108.534744 
L 206.111823 108.308797 
L 206.241804 108.014837 
L 206.323792 107.94216 
L 206.224565 107.912918 
L 206.102949 107.823369 
L 206.279081 107.528938 
L 206.404457 107.438368 
L 206.55737 107.287206 
L 206.541684 107.1983 
L 206.493435 107.185786 
L 206.405249 107.095952 
L 206.368747 107.114558 
L 206.243837 107.1813 
L 206.220513 107.146165 
L 206.089783 106.790849 
L 205.324945 106.697658 
L 204.930995 106.769871 
L 204.485805 106.714315 
L 204.484908 106.80272 
L 204.228477 106.969568 
L 203.98827 107.049417 
L 203.839836 107.205543 
L 203.748804 107.228971 
L 203.619911 107.375026 
L 203.421565 107.428446 
L 203.329049 107.323248 
L 203.154461 107.167701 
L 202.067598 106.761407 
L 200.439913 106.041354 
L 199.98147 106.033661 
L 198.98879 106.212951 
L 198.887709 106.662823 
L 198.185099 106.65733 
L 197.261212 106.675622 
L 196.580568 107.065974 
L 196.58099 107.034631 
L 196.482977 106.880805 
L 196.366005 106.820927 
L 196.225092 106.589224 
L 196.084252 106.409512 
L 195.953179 105.489648 
L 195.779658 105.259094 
L 194.465807 104.81898 
L 194.237034 104.429022 
L 194.521794 103.831488 
L 194.271556 103.315696 
L 193.745161 103.285175 
L 193.224486 103.023358 
L 192.913855 102.966709 
L 192.326481 102.48773 
L 191.743241 102.247541 
L 191.471546 102.063108 
L 191.319325 101.955517 
L 190.697624 101.781684 
L 190.605487 101.529331 
L 189.327093 101.536402 
L 188.99249 101.761184 
L 188.684132 101.725399 
L 188.573889 101.763613 
L 188.368679 101.695328 
L 188.421907 101.528117 
L 188.384521 101.408047 
L 188.035033 101.191122 
L 187.842445 101.045124 
L 187.602722 100.648059 
L 187.397904 100.255565 
L 187.086063 99.339936 
L 186.732398 99.480291 
L 186.37142 99.691288 
L 185.392419 99.715145 
L 185.25702 99.972855 
L 185.215151 100.12471 
L 185.282307 100.147209 
L 185.328397 100.235637 
L 185.192215 100.418562 
L 184.470607 100.607988 
L 183.987287 99.74343 
L 183.878611 99.296794 
L 183.786169 99.090512 
L 183.3193 99.241581 
L 183.301282 99.163368 
L 183.257324 99.09494 
L 183.24949 99.28458 
L 183.130629 99.729287 
L 183.047631 99.906427 
L 183.043497 100.008426 
L 182.944918 99.998426 
L 181.899284 99.910713 
L 181.899371 99.958641 
L 181.829691 100.370992 
L 180.715204 99.962784 
L 180.641824 98.750445 
L 180.556737 98.540663 
L 180.441184 98.539013 
L 179.971052 98.471307 
L 179.804878 98.430043 
L 179.580866 98.46495 
L 179.139741 98.426272 
L 179.259999 98.555306 
L 179.332525 98.784752 
L 179.242603 99.020406 
L 179.287566 99.151532 
L 179.431496 99.263316 
L 179.62421 99.962548 
L 178.609773 100.528232 
L 177.88139 100.993368 
L 177.790384 101.035296 
L 177.861983 101.112123 
L 177.945938 101.344405 
L 178.071937 102.12275 
L 178.024627 102.493316 
L 178.164161 103.244804 
L 177.87739 103.509014 
L 177.254362 103.562228 
L 176.976382 103.898723 
L 176.433349 103.595442 
L 176.362668 103.634155 
L 176.197891 103.645441 
L 176.021449 103.701797 
L 176.036639 103.732368 
L 175.98563 103.893508 
L 175.838828 104.209932 
L 175.701427 104.474714 
L 175.575733 104.592569 
L 175.452477 104.778352 
L 175.454087 104.780923 
L 175.350155 104.928921 
L 175.252533 105.146418 
L 175.265764 105.150989 
L 175.280649 105.20056 
L 175.219804 105.255416 
L 175.090933 105.387914 
L 174.95697 105.468984 
L 174.864267 105.501126 
L 174.855127 105.42227 
L 174.750846 105.312272 
L 172.996488 105.190345 
L 172.504115 104.98342 
L 172.384776 105.651124 
L 172.075851 106.016761 
L 171.970526 106.128474 
L 171.317206 106.735964 
L 171.321559 106.739893 
L 171.274467 106.93339 
L 170.884982 107.117816 
L 170.538106 106.957961 
L 170.394959 106.94089 
L 169.851926 106.935176 
L 168.761098 106.781314 
L 168.569946 106.773028 
L 168.445784 106.722593 
L 168.299069 106.81507 
L 168.650729 107.285092 
L 169.29188 107.489053 
L 169.929475 108.350511 
L 169.727708 108.410924 
L 169.722894 108.590014 
L 169.249737 108.574229 
L 169.100919 108.693463 
L 168.804421 108.725619 
L 168.603167 108.692127 
L 168.288733 108.729862 
L 168.118136 108.683963 
L 167.946857 108.597993 
L 167.075658 108.689163 
L 165.5344 109.360881 
L 165.363399 109.412301 
L 165.371899 109.354595 
L 165.325021 109.242411 
L 165.260341 108.361653 
L 164.767764 108.434852 
L 164.76571 108.314718 
L 164.438889 108.18367 
L 164.49112 107.935296 
L 164.217441 107.742992 
L 164.051441 107.480439 
L 163.830994 107.521945 
L 163.726434 107.657614 
L 162.450739 107.517038 
L 162.261167 107.76412 
L 161.362705 107.806283 
L 160.972102 107.654843 
L 160.684281 107.882125 
L 160.566483 108.132807 
L 160.469997 108.46458 
L 159.769499 108.819939 
L 158.901233 109.711768 
L 158.747924 109.772546 
L 158.49688 109.685847 
L 158.072904 109.743339 
L 157.648975 110.115298 
L 157.743537 110.144433 
L 157.994454 110.461892 
L 157.951945 111.221509 
L 157.997466 111.468119 
L 157.967056 111.470448 
L 157.876015 111.68533 
L 158.335241 111.878763 
L 158.192561 112.482847 
L 158.407402 112.783663 
L 158.266654 113.144565 
L 157.885103 114.163392 
L 157.707534 114.197849 
L 157.665452 114.045365 
L 157.60231 114.104436 
L 157.773236 115.086885 
L 157.45673 115.285753 
L 157.535276 115.572299 
L 157.003902 115.675211 
L 156.926205 115.964485 
L 156.49234 115.970578 
L 155.829772 115.948186 
L 155.529926 116.262424 
L 155.453069 116.168811 
L 155.390919 115.873958 
L 154.685341 115.703225 
L 154.319833 115.791895 
L 154.264363 115.853087 
L 154.048351 115.168112 
L 153.730191 114.937666 
L 153.557649 114.897352 
L 153.031659 115.003686 
L 153.037744 115.033421 
L 152.988346 115.10627 
L 152.606407 115.071635 
L 152.289105 114.926359 
L 151.905304 114.878117 
L 151.944875 114.934666 
L 151.753166 115.120934 
L 151.628551 115.137348 
L 151.031728 114.979901 
L 150.866829 114.895866 
L 150.746415 115.74286 
L 150.918861 116.317366 
L 151.049603 116.574919 
L 151.126512 116.653339 
L 150.99936 116.706838 
L 150.652793 117.015669 
L 150.632246 116.997177 
L 150.493052 116.869714 
L 149.720719 116.886271 
L 149.44293 116.682474 
L 148.03087 116.673532 
L 148.082601 116.595033 
L 148.109524 116.562219 
L 148.008412 116.519884 
L 147.708749 116.396936 
L 147.456857 116.345144 
L 147.332834 116.456442 
L 146.912309 116.59419 
L 146.833716 116.557783 
L 146.802314 116.569512 
L 146.66258 116.574569 
L 146.655938 116.55974 
L 146.281434 116.519841 
L 146.281551 116.483906 
L 146.188778 116.38335 
L 145.244156 116.190832 
M 189.551296 179.4625 
L 189.564545 179.406358 
L 189.658053 179.491185 
L 189.645767 179.526385 
L 189.551296 179.4625 
M 224.547702 166.362646 
L 224.971757 166.045387 
L 225.053898 165.947281 
L 225.096276 165.967638 
L 225.253763 166.05193 
L 225.404004 165.860611 
L 225.611328 165.679564 
L 225.661253 165.410254 
L 225.804334 165.181807 
L 226.061254 164.935347 
L 225.590041 164.323614 
L 225.507091 164.047896 
L 225.60645 163.644296 
L 225.570931 162.947406 
L 225.760294 162.645025 
L 226.019833 162.193997 
L 226.299958 162.048599 
L 228.050313 159.963131 
L 227.931073 159.894768 
L 226.951215 159.231935 
L 226.811677 159.234393 
L 225.894074 159.40769 
L 225.811381 159.403647 
L 226.274071 157.01752 
L 226.38246 156.621412 
L 226.471599 156.702732 
L 226.699758 156.867058 
L 227.068244 156.787095 
L 227.098549 156.502792 
L 227.172202 155.935937 
L 227.356656 155.478215 
L 227.214102 154.668028 
L 226.433525 154.891617 
L 226.315461 154.386239 
L 226.369608 154.401868 
L 226.619472 154.369068 
L 226.886118 154.23682 
L 227.235845 154.014859 
L 227.678977 153.613123 
L 227.941902 153.629201 
L 228.307354 153.828791 
L 228.764621 153.987124 
L 229.009458 154.159828 
L 229.699229 154.43661 
L 229.712834 154.373132 
L 229.726604 154.309726 
L 230.198038 154.261541 
L 230.195762 153.965889 
L 229.481362 153.088331 
L 229.559638 152.927119 
L 229.747535 152.74955 
L 230.300791 151.468327 
L 230.301253 151.456735 
L 230.408401 151.46517 
L 230.630119 151.511962 
L 231.211244 151.468327 
L 231.365606 151.509998 
L 231.609481 151.525048 
L 232.202883 151.56059 
L 232.210069 151.466813 
L 232.159757 150.76736 
L 232.112186 150.57327 
L 232.134775 150.578498 
L 232.735036 150.607534 
L 233.063067 150.422286 
L 233.112391 149.72054 
L 232.971956 149.711447 
L 233.009517 149.140871 
L 233.091901 149.16327 
L 233.971047 149.233369 
L 234.144111 149.321061 
L 233.864116 149.600864 
L 233.812402 149.725797 
L 234.114502 150.56722 
L 234.066845 150.797459 
L 234.01128 150.811316 
L 234.04756 150.910515 
L 234.181567 151.374279 
L 233.873112 151.537248 
L 234.219288 151.474056 
L 234.514355 151.536562 
L 235.479524 151.816329 
L 235.752498 151.790844 
L 236.478284 151.723916 
L 236.669275 151.674246 
L 237.096446 151.317151 
L 237.116758 151.112233 
L 237.673131 150.683347 
L 237.663978 150.67479 
L 237.661619 150.513749 
L 237.689274 150.522263 
L 237.845329 150.150162 
L 237.974108 150.062899 
L 238.022027 150.030228 
L 238.080887 150.095313 
L 238.549871 150.402322 
L 238.753079 150.451886 
L 238.868218 150.691482 
L 239.171619 150.94605 
L 239.172607 150.938221 
L 239.428386 150.804866 
L 239.602804 150.768438 
L 239.594822 150.71581 
L 239.625392 150.30541 
L 239.86162 150.130991 
L 239.99658 149.941044 
L 240.925577 149.861288 
L 241.337842 149.483408 
L 241.318453 149.456494 
L 241.166902 149.420145 
L 240.667174 149.235548 
L 240.321956 149.00323 
L 240.417811 148.897596 
L 240.818703 148.607529 
L 240.981073 148.685199 
L 241.39867 148.120665 
L 241.45669 148.183157 
L 241.474956 148.200707 
L 241.57129 148.086058 
L 241.418081 148.438246 
L 241.412214 148.726027 
L 241.434371 148.707685 
L 241.862335 148.480381 
L 241.960292 148.42311 
L 241.940567 148.543023 
L 241.916151 149.360296 
L 242.309279 149.72334 
L 243.185252 150.163633 
L 243.302542 150.126148 
L 243.327994 150.20784 
L 243.439612 150.265417 
L 243.466039 150.26261 
L 243.461173 150.348952 
L 243.29375 151.124447 
L 243.102507 151.433835 
L 242.718205 151.657082 
L 242.589226 152.171995 
L 242.318762 153.120373 
L 242.419383 153.11063 
L 242.896401 154.035488 
L 243.772544 154.070837 
L 244.786554 154.544094 
L 245.302273 155.097057 
L 245.598419 155.383288 
L 245.817169 155.426059 
L 245.958478 155.542786 
L 246.048266 155.649584 
L 246.083715 155.964172 
L 246.247539 156.966742 
L 246.269148 157.090169 
L 248.454991 157.699295 
L 248.399356 157.789058 
L 248.192201 157.907849 
L 247.918247 157.916713 
L 247.896799 157.900835 
L 247.914682 158.030476 
L 247.980001 158.470247 
L 248.072417 158.454419 
L 248.685788 158.475719 
L 249.035558 158.493147 
L 249.312924 158.592717 
L 249.253712 158.877155 
L 248.098644 160.148971 
L 247.861127 161.036557 
L 248.109603 161.119578 
L 248.033334 161.223369 
L 247.428933 162.219853 
L 247.504763 162.398358 
L 247.517872 162.445857 
L 247.472474 162.502692 
L 247.311069 162.718453 
L 247.403682 162.748481 
L 247.518886 162.729495 
L 247.585524 162.687625 
L 247.732348 162.813044 
L 247.806863 163.018298 
L 247.826884 162.852279 
L 247.913472 162.854586 
L 247.896694 162.74766 
L 248.008369 162.509013 
L 248.097578 162.472007 
L 248.458246 162.281424 
L 248.875312 162.135005 
L 249.194412 162.274788 
L 250.253568 162.841501 
L 250.555573 163.101447 
L 251.049726 163.392385 
L 251.243807 163.846092 
L 251.396676 163.792372 
L 251.314592 163.476105 
L 251.128384 162.887864 
L 251.275765 162.964485 
L 251.769518 163.262066 
L 251.893662 163.347829 
L 252.266395 163.944205 
L 252.592429 164.16773 
L 252.75624 164.19978 
L 253.625302 164.466669 
L 253.588808 164.549153 
L 253.535458 164.673522 
L 253.638885 164.693486 
L 253.652734 164.696336 
L 253.628775 164.792392 
L 253.576373 165.020753 
L 253.830498 165.071438 
L 253.792716 165.150772 
L 253.669647 165.164958 
L 253.538243 165.144951 
L 253.546987 165.106116 
L 253.619026 164.792885 
L 253.575851 164.794492 
L 253.23569 164.916647 
L 253.066352 165.182729 
L 252.92425 165.398111 
L 252.336741 165.244049 
L 252.161249 165.11183 
L 252.756152 165.417211 
L 252.902894 165.521381 
L 252.966772 165.745249 
L 252.965096 165.853226 
L 252.816301 165.859983 
L 252.760457 165.932067 
L 252.465891 166.5974 
L 252.609624 166.859274 
L 252.821328 167.285175 
L 252.673337 167.456865 
L 252.476162 167.789617 
L 252.255001 167.818052 
L 252.149367 167.88838 
L 252.141006 167.884201 
L 251.818377 167.822552 
L 251.577213 168.056834 
L 251.436652 168.134162 
L 251.151404 168.410614 
L 250.567063 168.917628 
L 251.125512 168.342823 
L 250.642692 168.982398 
L 250.793194 169.012584 
L 251.004418 169.111346 
L 251.117921 169.086211 
L 251.086159 169.199902 
L 251.047275 169.37625 
L 251.143474 169.370942 
L 251.195657 169.393928 
L 251.174697 169.479584 
L 250.971768 169.827935 
L 250.720454 170.064139 
L 250.073846 170.084739 
L 249.764677 170.371763 
L 249.689849 170.721921 
L 249.587213 170.805634 
L 249.289313 171.29512 
L 249.165095 171.613829 
L 249.042709 171.864732 
L 248.997067 172.142292 
L 248.79694 172.137485 
L 248.594542 171.916103 
L 248.397062 171.563508 
L 248.720358 170.317256 
L 248.873601 170.048753 
L 248.711753 169.874785 
L 248.662616 169.8023 
L 248.673762 169.371678 
L 248.666189 169.373471 
L 248.226988 169.398321 
L 248.057271 169.096754 
L 247.982752 169.139246 
L 247.069579 169.649131 
L 247.110778 169.521426 
L 247.027588 169.125975 
L 246.548655 168.419371 
L 246.498382 168.206918 
L 246.479998 168.213582 
L 245.141434 168.610911 
L 244.008664 168.551305 
L 244.015675 168.12019 
L 244.136699 167.719704 
L 243.990736 167.817274 
L 243.6702 167.887873 
L 243.210095 167.654305 
L 243.02622 167.691604 
L 241.583176 168.054556 
L 241.36198 167.200383 
L 240.877615 166.259276 
L 240.268001 166.499523 
L 239.328471 166.915423 
L 238.913273 167.138813 
L 238.977369 167.498443 
L 239.252593 168.909 
L 238.902222 169.462927 
L 237.600522 169.285651 
L 237.418401 168.593919 
L 236.821439 168.591547 
L 236.814327 168.161175 
L 235.878906 167.465293 
L 235.639183 167.099628 
L 235.64595 166.927787 
L 235.596269 166.955323 
L 234.284559 167.828788 
L 234.234617 167.742139 
L 233.618134 166.60415 
L 233.454698 166.734048 
L 232.493702 167.463793 
L 232.12056 167.373302 
L 231.825232 167.314974 
L 231.569571 167.381988 
L 231.555295 167.266311 
L 231.364661 166.257198 
L 230.028382 166.475302 
L 229.421453 166.656599 
L 228.953284 166.839675 
L 227.635924 167.665976 
L 227.570379 168.025199 
L 227.739621 168.002571 
L 228.158667 167.937972 
L 228.168181 168.006571 
L 228.17827 168.076141 
L 227.854678 168.178397 
L 227.276535 168.121362 
L 226.93603 167.970457 
L 226.93526 167.961607 
L 226.837773 168.003442 
L 226.376902 168.453064 
L 226.424129 168.502342 
L 226.499079 168.671746 
L 226.423502 168.660025 
L 226.407756 168.67556 
L 226.329193 168.608711 
L 226.218397 168.508963 
L 226.333802 168.356044 
L 226.529406 168.243381 
L 226.750179 168.051206 
L 226.603834 168.020406 
L 226.583779 167.952443 
L 226.688503 167.93365 
L 226.71329 167.918072 
L 226.571984 167.86143 
L 226.513381 167.810195 
L 226.470454 167.86043 
L 226.13351 167.988557 
L 225.356712 167.087414 
L 225.425169 167.104742 
L 225.568419 167.016393 
L 225.561874 166.981301 
L 225.423846 166.823296 
L 225.364241 166.823453 
L 225.375318 166.922259 
L 225.312375 167.082907 
L 225.246403 167.06545 
L 225.097429 166.894524 
L 225.068548 166.780347 
L 224.97013 166.807447 
L 224.900467 166.830039 
L 224.948655 166.924388 
L 224.995712 167.032043 
L 224.967144 167.059221 
L 224.941444 167.092199 
L 224.62791 166.855631 
L 224.547702 166.362646 
M 242.613699 152.12286 
L 242.701314 152.05879 
L 242.613699 152.12286 
" style="fill:none;stroke:#ffc0cb;"/>
    <path clip-path="url(#p3da8405b5b)" d="M 186.672597 134.817736 
L 186.679609 134.820821 
L 186.69398 134.827143 
L 186.701488 134.828328 
L 186.709914 134.8272 
L 186.719454 134.822729 
L 186.745698 134.79595 
L 186.748253 134.798207 
L 186.798113 134.752365 
L 186.849652 134.707302 
L 186.810743 134.678924 
L 186.787441 134.707166 
L 186.779359 134.697645 
L 186.750716 134.734208 
L 186.720211 134.773372 
L 186.708164 134.764044 
L 186.704495 134.763594 
L 186.699525 134.769422 
L 186.701279 134.772429 
L 186.68931 134.790879 
L 186.672597 134.817736 
" style="fill:none;stroke:#ffc0cb;"/>
    <path clip-path="url(#p3da8405b5b)" d="M 188.497602 179.915579 
L 188.512508 179.92075 
L 188.538779 179.929671 
L 188.571569 179.866987 
L 188.550395 179.858337 
L 188.531297 179.850966 
L 188.497602 179.915579 
" style="fill:none;stroke:#ffc0cb;"/>
    <path clip-path="url(#p3da8405b5b)" d="M 188.608968 179.691189 
L 188.610652 179.702775 
L 188.618804 179.708511 
L 188.629458 179.706982 
L 188.633697 179.713918 
L 188.641662 179.731075 
L 188.647015 179.752353 
L 188.650058 179.759317 
L 188.655276 179.764588 
L 188.663811 179.765138 
L 188.68471 179.773767 
L 188.702198 179.773017 
L 188.708761 179.851044 
L 188.715015 179.886465 
L 188.727284 179.936378 
L 188.767861 179.931136 
L 188.837462 179.937536 
L 188.861678 179.9361 
L 188.886343 179.924329 
L 188.909949 179.918386 
L 188.933447 179.925764 
L 188.957219 179.927443 
L 188.960105 179.9525 
L 188.962386 179.973242 
L 188.786871 180.271816 
L 188.964975 179.974028 
L 188.962991 179.953471 
L 189.019666 179.972499 
L 189.055724 179.983735 
L 189.079523 179.944621 
L 189.109867 179.961221 
L 189.111038 179.956435 
L 189.124103 179.941186 
L 189.13884 179.913007 
L 189.138522 179.882044 
L 189.146974 179.86793 
L 189.130218 179.855287 
L 189.108574 179.843116 
L 189.0833 179.83813 
L 189.017015 179.817637 
L 188.986232 179.826037 
L 188.957629 179.835273 
L 188.951618 179.829637 
L 188.920943 179.823445 
L 188.891043 179.818016 
L 188.858949 179.825609 
L 188.822373 179.819123 
L 188.804772 179.813588 
L 188.784434 179.813802 
L 188.770859 179.80983 
L 188.762481 179.809352 
L 188.757298 179.805431 
L 188.748167 179.796466 
L 188.741547 179.788716 
L 188.733138 179.783824 
L 188.728977 179.780731 
L 188.722009 179.780102 
L 188.71357 179.772974 
L 188.708217 179.769653 
L 188.702111 179.771017 
L 188.693324 179.770081 
L 188.685468 179.771745 
L 188.66449 179.762267 
L 188.655302 179.76071 
L 188.652778 179.757488 
L 188.651089 179.755217 
L 188.643564 179.730117 
L 188.635734 179.711761 
L 188.630137 179.704496 
L 188.618861 179.705446 
L 188.612175 179.700504 
L 188.611087 179.691439 
L 188.615627 179.684168 
L 188.613181 179.682232 
L 188.608968 179.691189 
" style="fill:none;stroke:#ffc0cb;"/>
    <path clip-path="url(#p3da8405b5b)" d="M 189.211318 180.045398 
L 189.212885 180.046541 
L 189.212807 180.064034 
L 189.251921 180.072719 
L 189.297371 180.055405 
L 189.343527 180.065284 
L 189.402396 180.078698 
L 189.448047 180.074376 
L 189.464812 180.047191 
L 189.431787 180.017406 
L 189.439164 179.978706 
L 189.407271 179.963514 
L 189.36837 179.967699 
L 189.320835 179.9487 
L 189.337143 179.944707 
L 189.346722 179.947657 
L 189.354356 179.946743 
L 189.364927 179.938507 
L 189.379038 179.921636 
L 189.383607 179.917257 
L 189.389087 179.910186 
L 189.39142 179.901165 
L 189.404751 179.890022 
L 189.420154 179.887372 
L 189.4312 179.878872 
L 189.437153 179.876187 
L 189.450698 179.875058 
L 189.450785 179.873237 
L 189.436979 179.874279 
L 189.429302 179.877315 
L 189.419118 179.884601 
L 189.404233 179.887501 
L 189.392369 179.896393 
L 189.389261 179.900908 
L 189.386933 179.908757 
L 189.383177 179.915865 
L 189.377266 179.920464 
L 189.363117 179.937464 
L 189.353755 179.944664 
L 189.347758 179.945357 
L 189.338866 179.941757 
L 189.321522 179.9454 
L 189.316683 179.948035 
L 189.297276 179.959628 
L 189.279388 179.970807 
L 189.23798 179.978556 
L 189.228984 179.991135 
L 189.224188 180.00152 
L 189.211318 180.045398 
" style="fill:none;stroke:#ffc0cb;"/>
    <path clip-path="url(#p3da8405b5b)" d="M 189.483083 180.101055 
L 189.508139 180.111061 
L 189.516287 180.111169 
L 189.531829 180.119597 
L 189.555113 180.110911 
L 189.581405 180.119083 
L 189.611754 180.119461 
L 189.635004 180.096912 
L 189.637693 180.089212 
L 189.639695 180.076141 
L 189.640757 180.069505 
L 189.624924 180.055948 
L 189.594127 180.050612 
L 189.565624 180.048527 
L 189.546692 180.04062 
L 189.521292 180.039984 
L 189.505402 180.037513 
L 189.485294 180.064341 
L 189.483083 180.101055 
" style="fill:none;stroke:#ffc0cb;"/>
    <path clip-path="url(#p3da8405b5b)" d="M 189.637362 180.17836 
L 189.637506 180.179975 
L 189.645475 180.181882 
L 189.651429 180.186053 
L 189.645854 180.186489 
L 189.63882 180.186225 
L 189.639056 180.187867 
L 189.646232 180.188103 
L 189.652652 180.187575 
L 189.650171 180.190746 
L 189.644396 180.193767 
L 189.645597 180.194882 
L 189.652273 180.192296 
L 189.65455 180.187603 
L 189.662867 180.188546 
L 189.671828 180.19371 
L 189.674923 180.21876 
L 189.67652 180.22461 
L 189.682861 180.23161 
L 189.691148 180.236717 
L 189.699204 180.23971 
L 189.709371 180.239981 
L 189.716657 180.243995 
L 189.724478 180.245874 
L 189.734105 180.242881 
L 189.744359 180.245424 
L 189.752258 180.250566 
L 189.759661 180.259381 
L 189.766734 180.265352 
L 189.77402 180.27478 
L 189.779051 180.284309 
L 189.781092 180.291344 
L 189.788913 180.296451 
L 189.789731 180.294809 
L 189.808381 180.293909 
L 189.819501 180.281373 
L 189.822325 180.258881 
L 189.812946 180.242052 
L 189.795859 180.231202 
L 189.76797 180.213631 
L 189.751148 180.21486 
L 189.733583 180.203446 
L 189.720587 180.195646 
L 189.70568 180.188953 
L 189.673256 180.184089 
L 189.673869 180.192653 
L 189.672559 180.19121 
L 189.663628 180.18681 
L 189.654906 180.185782 
L 189.645475 180.180446 
L 189.637362 180.17836 
" style="fill:none;stroke:#ffc0cb;"/>
   </g>
   <g id="matplotlib.axis_1">
    <g id="xtick_1">
     <g id="line2d_1">
      <defs>
       <path d="M 0 0 
L 0 3.5 
" id="m5bee0a8f00" style="stroke:#000000;stroke-width:0.8;"/>
      </defs>
      <g>
       <use style="stroke:#000000;stroke-width:0.8;" x="177.179938" xlink:href="#m5bee0a8f00" y="252"/>
      </g>
     </g>
     <g id="text_1">
      <!-- 12 -->
      <defs>
       <path d="M 12.40625 8.296875 
L 28.515625 8.296875 
L 28.515625 63.921875 
L 10.984375 60.40625 
L 10.984375 69.390625 
L 28.421875 72.90625 
L 38.28125 72.90625 
L 38.28125 8.296875 
L 54.390625 8.296875 
L 54.390625 0 
L 12.40625 0 
z
" id="DejaVuSans-49"/>
       <path d="M 19.1875 8.296875 
L 53.609375 8.296875 
L 53.609375 0 
L 7.328125 0 
L 7.328125 8.296875 
Q 12.9375 14.109375 22.625 23.890625 
Q 32.328125 33.6875 34.8125 36.53125 
Q 39.546875 41.84375 41.421875 45.53125 
Q 43.3125 49.21875 43.3125 52.78125 
Q 43.3125 58.59375 39.234375 62.25 
Q 35.15625 65.921875 28.609375 65.921875 
Q 23.96875 65.921875 18.8125 64.3125 
Q 13.671875 62.703125 7.8125 59.421875 
L 7.8125 69.390625 
Q 13.765625 71.78125 18.9375 73 
Q 24.125 74.21875 28.421875 74.21875 
Q 39.75 74.21875 46.484375 68.546875 
Q 53.21875 62.890625 53.21875 53.421875 
Q 53.21875 48.921875 51.53125 44.890625 
Q 49.859375 40.875 45.40625 35.40625 
Q 44.1875 33.984375 37.640625 27.21875 
Q 31.109375 20.453125 19.1875 8.296875 
z
" id="DejaVuSans-50"/>
      </defs>
      <g transform="translate(170.817438 266.598437)scale(0.1 -0.1)">
       <use xlink:href="#DejaVuSans-49"/>
       <use x="63.623047" xlink:href="#DejaVuSans-50"/>
      </g>
     </g>
    </g>
    <g id="xtick_2">
     <g id="line2d_2">
      <g>
       <use style="stroke:#000000;stroke-width:0.8;" x="220.702685" xlink:href="#m5bee0a8f00" y="252"/>
      </g>
     </g>
     <g id="text_2">
      <!-- 13 -->
      <defs>
       <path d="M 40.578125 39.3125 
Q 47.65625 37.796875 51.625 33 
Q 55.609375 28.21875 55.609375 21.1875 
Q 55.609375 10.40625 48.1875 4.484375 
Q 40.765625 -1.421875 27.09375 -1.421875 
Q 22.515625 -1.421875 17.65625 -0.515625 
Q 12.796875 0.390625 7.625 2.203125 
L 7.625 11.71875 
Q 11.71875 9.328125 16.59375 8.109375 
Q 21.484375 6.890625 26.8125 6.890625 
Q 36.078125 6.890625 40.9375 10.546875 
Q 45.796875 14.203125 45.796875 21.1875 
Q 45.796875 27.640625 41.28125 31.265625 
Q 36.765625 34.90625 28.71875 34.90625 
L 20.21875 34.90625 
L 20.21875 43.015625 
L 29.109375 43.015625 
Q 36.375 43.015625 40.234375 45.921875 
Q 44.09375 48.828125 44.09375 54.296875 
Q 44.09375 59.90625 40.109375 62.90625 
Q 36.140625 65.921875 28.71875 65.921875 
Q 24.65625 65.921875 20.015625 65.03125 
Q 15.375 64.15625 9.8125 62.3125 
L 9.8125 71.09375 
Q 15.4375 72.65625 20.34375 73.4375 
Q 25.25 74.21875 29.59375 74.21875 
Q 40.828125 74.21875 47.359375 69.109375 
Q 53.90625 64.015625 53.90625 55.328125 
Q 53.90625 49.265625 50.4375 45.09375 
Q 46.96875 40.921875 40.578125 39.3125 
z
" id="DejaVuSans-51"/>
      </defs>
      <g transform="translate(214.340185 266.598437)scale(0.1 -0.1)">
       <use xlink:href="#DejaVuSans-49"/>
       <use x="63.623047" xlink:href="#DejaVuSans-51"/>
      </g>
     </g>
    </g>
    <g id="xtick_3">
     <g id="line2d_3">
      <g>
       <use style="stroke:#000000;stroke-width:0.8;" x="264.225432" xlink:href="#m5bee0a8f00" y="252"/>
      </g>
     </g>
     <g id="text_3">
      <!-- 14 -->
      <defs>
       <path d="M 37.796875 64.3125 
L 12.890625 25.390625 
L 37.796875 25.390625 
z
M 35.203125 72.90625 
L 47.609375 72.90625 
L 47.609375 25.390625 
L 58.015625 25.390625 
L 58.015625 17.1875 
L 47.609375 17.1875 
L 47.609375 0 
L 37.796875 0 
L 37.796875 17.1875 
L 4.890625 17.1875 
L 4.890625 26.703125 
z
" id="DejaVuSans-52"/>
      </defs>
      <g transform="translate(257.862932 266.598437)scale(0.1 -0.1)">
       <use xlink:href="#DejaVuSans-49"/>
       <use x="63.623047" xlink:href="#DejaVuSans-52"/>
      </g>
     </g>
    </g>
   </g>
   <g id="matplotlib.axis_2">
    <g id="ytick_1">
     <g id="line2d_4">
      <defs>
       <path d="M 0 0 
L -3.5 0 
" id="mf2a31ba78e" style="stroke:#000000;stroke-width:0.8;"/>
      </defs>
      <g>
       <use style="stroke:#000000;stroke-width:0.8;" x="137.628572" xlink:href="#mf2a31ba78e" y="232.049663"/>
      </g>
     </g>
     <g id="text_4">
      <!-- 51.5 -->
      <defs>
       <path d="M 10.796875 72.90625 
L 49.515625 72.90625 
L 49.515625 64.59375 
L 19.828125 64.59375 
L 19.828125 46.734375 
Q 21.96875 47.46875 24.109375 47.828125 
Q 26.265625 48.1875 28.421875 48.1875 
Q 40.625 48.1875 47.75 41.5 
Q 54.890625 34.8125 54.890625 23.390625 
Q 54.890625 11.625 47.5625 5.09375 
Q 40.234375 -1.421875 26.90625 -1.421875 
Q 22.3125 -1.421875 17.546875 -0.640625 
Q 12.796875 0.140625 7.71875 1.703125 
L 7.71875 11.625 
Q 12.109375 9.234375 16.796875 8.0625 
Q 21.484375 6.890625 26.703125 6.890625 
Q 35.15625 6.890625 40.078125 11.328125 
Q 45.015625 15.765625 45.015625 23.390625 
Q 45.015625 31 40.078125 35.4375 
Q 35.15625 39.890625 26.703125 39.890625 
Q 22.75 39.890625 18.8125 39.015625 
Q 14.890625 38.140625 10.796875 36.28125 
z
" id="DejaVuSans-53"/>
       <path d="M 10.6875 12.40625 
L 21 12.40625 
L 21 0 
L 10.6875 0 
z
" id="DejaVuSans-46"/>
      </defs>
      <g transform="translate(108.362947 235.848881)scale(0.1 -0.1)">
       <use xlink:href="#DejaVuSans-53"/>
       <use x="63.623047" xlink:href="#DejaVuSans-49"/>
       <use x="127.246094" xlink:href="#DejaVuSans-46"/>
       <use x="159.033203" xlink:href="#DejaVuSans-53"/>
      </g>
     </g>
    </g>
    <g id="ytick_2">
     <g id="line2d_5">
      <g>
       <use style="stroke:#000000;stroke-width:0.8;" x="137.628572" xlink:href="#mf2a31ba78e" y="196.335931"/>
      </g>
     </g>
     <g id="text_5">
      <!-- 52.0 -->
      <defs>
       <path d="M 31.78125 66.40625 
Q 24.171875 66.40625 20.328125 58.90625 
Q 16.5 51.421875 16.5 36.375 
Q 16.5 21.390625 20.328125 13.890625 
Q 24.171875 6.390625 31.78125 6.390625 
Q 39.453125 6.390625 43.28125 13.890625 
Q 47.125 21.390625 47.125 36.375 
Q 47.125 51.421875 43.28125 58.90625 
Q 39.453125 66.40625 31.78125 66.40625 
z
M 31.78125 74.21875 
Q 44.046875 74.21875 50.515625 64.515625 
Q 56.984375 54.828125 56.984375 36.375 
Q 56.984375 17.96875 50.515625 8.265625 
Q 44.046875 -1.421875 31.78125 -1.421875 
Q 19.53125 -1.421875 13.0625 8.265625 
Q 6.59375 17.96875 6.59375 36.375 
Q 6.59375 54.828125 13.0625 64.515625 
Q 19.53125 74.21875 31.78125 74.21875 
z
" id="DejaVuSans-48"/>
      </defs>
      <g transform="translate(108.362947 200.13515)scale(0.1 -0.1)">
       <use xlink:href="#DejaVuSans-53"/>
       <use x="63.623047" xlink:href="#DejaVuSans-50"/>
       <use x="127.246094" xlink:href="#DejaVuSans-46"/>
       <use x="159.033203" xlink:href="#DejaVuSans-48"/>
      </g>
     </g>
    </g>
    <g id="ytick_3">
     <g id="line2d_6">
      <g>
       <use style="stroke:#000000;stroke-width:0.8;" x="137.628572" xlink:href="#mf2a31ba78e" y="160.6222"/>
      </g>
     </g>
     <g id="text_6">
      <!-- 52.5 -->
      <g transform="translate(108.362947 164.421418)scale(0.1 -0.1)">
       <use xlink:href="#DejaVuSans-53"/>
       <use x="63.623047" xlink:href="#DejaVuSans-50"/>
       <use x="127.246094" xlink:href="#DejaVuSans-46"/>
       <use x="159.033203" xlink:href="#DejaVuSans-53"/>
      </g>
     </g>
    </g>
    <g id="ytick_4">
     <g id="line2d_7">
      <g>
       <use style="stroke:#000000;stroke-width:0.8;" x="137.628572" xlink:href="#mf2a31ba78e" y="124.908468"/>
      </g>
     </g>
     <g id="text_7">
      <!-- 53.0 -->
      <g transform="translate(108.362947 128.707687)scale(0.1 -0.1)">
       <use xlink:href="#DejaVuSans-53"/>
       <use x="63.623047" xlink:href="#DejaVuSans-51"/>
       <use x="127.246094" xlink:href="#DejaVuSans-46"/>
       <use x="159.033203" xlink:href="#DejaVuSans-48"/>
      </g>
     </g>
    </g>
    <g id="ytick_5">
     <g id="line2d_8">
      <g>
       <use style="stroke:#000000;stroke-width:0.8;" x="137.628572" xlink:href="#mf2a31ba78e" y="89.194737"/>
      </g>
     </g>
     <g id="text_8">
      <!-- 53.5 -->
      <g transform="translate(108.362947 92.993955)scale(0.1 -0.1)">
       <use xlink:href="#DejaVuSans-53"/>
       <use x="63.623047" xlink:href="#DejaVuSans-51"/>
       <use x="127.246094" xlink:href="#DejaVuSans-46"/>
       <use x="159.033203" xlink:href="#DejaVuSans-53"/>
      </g>
     </g>
    </g>
    <g id="ytick_6">
     <g id="line2d_9">
      <g>
       <use style="stroke:#000000;stroke-width:0.8;" x="137.628572" xlink:href="#mf2a31ba78e" y="53.481005"/>
      </g>
     </g>
     <g id="text_9">
      <!-- 54.0 -->
      <g transform="translate(108.362947 57.280224)scale(0.1 -0.1)">
       <use xlink:href="#DejaVuSans-53"/>
       <use x="63.623047" xlink:href="#DejaVuSans-52"/>
       <use x="127.246094" xlink:href="#DejaVuSans-46"/>
       <use x="159.033203" xlink:href="#DejaVuSans-48"/>
      </g>
     </g>
    </g>
   </g>
   <g id="patch_3">
    <path d="M 137.628572 252 
L 137.628572 34.56 
" style="fill:none;stroke:#000000;stroke-linecap:square;stroke-linejoin:miter;stroke-width:0.8;"/>
   </g>
   <g id="patch_4">
    <path d="M 305.171428 252 
L 305.171428 34.56 
" style="fill:none;stroke:#000000;stroke-linecap:square;stroke-linejoin:miter;stroke-width:0.8;"/>
   </g>
   <g id="patch_5">
    <path d="M 137.628572 252 
L 305.171428 252 
" style="fill:none;stroke:#000000;stroke-linecap:square;stroke-linejoin:miter;stroke-width:0.8;"/>
   </g>
   <g id="patch_6">
    <path d="M 137.628572 34.56 
L 305.171428 34.56 
" style="fill:none;stroke:#000000;stroke-linecap:square;stroke-linejoin:miter;stroke-width:0.8;"/>
   </g>
  </g>
 </g>
 <defs>
  <clipPath id="p3da8405b5b">
   <rect height="217.44" width="167.542857" x="137.628572" y="34.56"/>
  </clipPath>
 </defs>
</svg>
